<svg xmlns="http://www.w3.org/2000/svg" viewBox="0 0 400 400"><defs><style>.cls-1,.cls-2,.cls-3{fill:none;stroke:#000;stroke-linecap:round;stroke-linejoin:round;}.cls-1{stroke-width:0.6px;}.cls-2{stroke-width:0.5px;}.cls-3{stroke-width:0.96px;}</style></defs><title>Downpipe-Rectangular-50x100-Dimensioned</title><g id="Image"><line class="cls-1" x1="254" y1="96.77" x2="201.62" y2="69.17"/><line class="cls-1" x1="201.62" y1="69.17" x2="158.76" y2="112.37"/><line class="cls-1" x1="158.76" y1="112.37" x2="158.02" y2="112.56"/><line class="cls-1" x1="158.02" y1="112.56" x2="157.37" y2="112.84"/><line class="cls-1" x1="157.37" y1="112.84" x2="156.81" y2="113.22"/><line class="cls-1" x1="156.81" y1="113.22" x2="156.34" y2="113.69"/><line class="cls-1" x1="156.34" y1="113.69" x2="155.97" y2="114.25"/><line class="cls-1" x1="155.97" y1="114.25" x2="155.79" y2="114.81"/><line class="cls-1" x1="155.79" y1="114.81" x2="155.79" y2="115.37"/><line class="cls-1" x1="155.79" y1="115.37" x2="112.75" y2="158.76"/><line class="cls-1" x1="112.75" y1="158.76" x2="159.37" y2="192.36"/><line class="cls-1" x1="159.37" y1="192.36" x2="254" y2="96.77"/><line class="cls-1" x1="111.07" y1="158.95" x2="154.67" y2="115.19"/><line class="cls-1" x1="154.67" y1="115.19" x2="154.76" y2="114.35"/><line class="cls-1" x1="154.76" y1="114.35" x2="155.13" y2="113.6"/><line class="cls-1" x1="155.13" y1="113.6" x2="155.69" y2="112.85"/><line class="cls-1" x1="155.69" y1="112.85" x2="156.43" y2="112.29"/><line class="cls-1" x1="156.43" y1="112.29" x2="157.27" y2="111.82"/><line class="cls-1" x1="157.27" y1="111.82" x2="158.29" y2="111.53"/><line class="cls-1" x1="158.29" y1="111.53" x2="201.52" y2="67.95"/><line class="cls-1" x1="201.52" y1="67.95" x2="255.87" y2="96.39"/><line class="cls-1" x1="255.87" y1="96.39" x2="159.47" y2="193.95"/><line class="cls-1" x1="159.47" y1="193.95" x2="111.07" y2="158.95"/><line class="cls-1" x1="187.06" y1="345.14" x2="207.2" y2="363.26"/><line class="cls-1" x1="207.2" y1="363.26" x2="243.36" y2="326.24"/><line class="cls-1" x1="155.79" y1="115.37" x2="170.8" y2="180.83"/><line class="cls-1" x1="158.76" y1="112.37" x2="173.13" y2="178.49"/><line class="cls-1" x1="111.07" y1="158.95" x2="187.06" y2="345.14"/><line class="cls-1" x1="243.36" y1="326.24" x2="255.87" y2="96.39"/><line class="cls-1" x1="207.2" y1="363.26" x2="159.47" y2="193.95"/><line class="cls-1" x1="208.08" y1="143.25" x2="201.62" y2="69.17"/></g><g id="Dimensions"><line class="cls-2" x1="193.26" y1="59.31" x2="170.02" y2="43.12"/><line class="cls-3" x1="174.06" y1="45.93" x2="174.47" y2="51.63"/><line class="cls-3" x1="174.06" y1="45.93" x2="173.74" y2="40.3"/><line class="cls-2" x1="100.32" y1="153.24" x2="77.28" y2="137.18"/><line class="cls-3" x1="81.22" y1="139.93" x2="81.54" y2="145.56"/><line class="cls-3" x1="81.22" y1="139.93" x2="80.8" y2="134.23"/><line class="cls-2" x1="177.44" y1="42.52" x2="77.87" y2="142.42"/><line class="cls-2" x1="211.5" y1="63.55" x2="231.41" y2="43.41"/><line class="cls-3" x1="227.95" y1="46.91" x2="228.58" y2="52.59"/><line class="cls-3" x1="277.93" y1="72.91" x2="278.55" y2="78.59"/><line class="cls-3" x1="227.95" y1="46.91" x2="227.25" y2="41.31"/><line class="cls-3" x1="277.91" y1="73.22" x2="277.2" y2="67.62"/><line class="cls-2" x1="261.54" y1="89.74" x2="281.28" y2="69.78"/><line class="cls-2" x1="223.53" y1="44.56" x2="281.65" y2="75.04"/><path d="M256.39,48.63l1.21-.12a2.82,2.82,0,0,0,.64,1.63,1.5,1.5,0,0,0,1.15.53,1.74,1.74,0,0,0,1.41-.75,3.22,3.22,0,0,0,.6-2.06,2.89,2.89,0,0,0-.58-1.91,1.8,1.8,0,0,0-1.44-.67,1.73,1.73,0,0,0-1,.29,2,2,0,0,0-.72.82l-1.09-.17.92-5.89h4.66v1.34h-3.75l-.5,3.09a2.55,2.55,0,0,1,3.82.28,4,4,0,0,1,.87,2.71,4.77,4.77,0,0,1-.87,2.88,2.89,2.89,0,0,1-4.39.35A3.62,3.62,0,0,1,256.39,48.63Z"/><path d="M263.69,46a9.66,9.66,0,0,1,.77-4.37,2.47,2.47,0,0,1,2.3-1.49,2.4,2.4,0,0,1,2.11,1.21,8.79,8.79,0,0,1,.94,4.65,9.76,9.76,0,0,1-.77,4.35,2.47,2.47,0,0,1-2.3,1.49,2.55,2.55,0,0,1-2.2-1.31A8.79,8.79,0,0,1,263.69,46Zm1.17,0a8.58,8.58,0,0,0,.54,3.74,1.57,1.57,0,0,0,1.37,1,1.55,1.55,0,0,0,1.33-1,8.78,8.78,0,0,0,.53-3.73,8.58,8.58,0,0,0-.54-3.74,1.58,1.58,0,0,0-1.39-1,1.54,1.54,0,0,0-1.31,1A8.82,8.82,0,0,0,264.86,46Z"/><path d="M271.32,51.63V43.34h1v1.15a2.58,2.58,0,0,1,.88-1,2.15,2.15,0,0,1,1.18-.35,1.94,1.94,0,0,1,1.21.37,2,2,0,0,1,.71,1.08,3.09,3.09,0,0,1,.93-1.09,2.08,2.08,0,0,1,1.18-.36,1.93,1.93,0,0,1,1.54.66,3.27,3.27,0,0,1,.56,2.13v5.69H279.4V46.4a4.52,4.52,0,0,0-.13-1.26,1.2,1.2,0,0,0-.42-.58,1.17,1.17,0,0,0-.66-.2A1.49,1.49,0,0,0,277,45a2.94,2.94,0,0,0-.47,1.86v4.82h-1.15V46.24a2.54,2.54,0,0,0-.32-1.46,1,1,0,0,0-.87-.42,1.45,1.45,0,0,0-1.25.64,4.28,4.28,0,0,0-.45,2.33v4.3Z"/><path d="M282.25,51.63V43.34h1v1.15a2.58,2.58,0,0,1,.88-1,2.15,2.15,0,0,1,1.18-.35,1.94,1.94,0,0,1,1.21.37,2,2,0,0,1,.71,1.08,3.09,3.09,0,0,1,.93-1.09,2.08,2.08,0,0,1,1.18-.36,1.93,1.93,0,0,1,1.54.66,3.27,3.27,0,0,1,.56,2.13v5.69h-1.14V46.4a4.52,4.52,0,0,0-.13-1.26,1.1,1.1,0,0,0-1.08-.78,1.49,1.49,0,0,0-1.21.59,2.94,2.94,0,0,0-.47,1.86v4.82h-1.15V46.24a2.54,2.54,0,0,0-.32-1.46,1,1,0,0,0-.87-.42,1.45,1.45,0,0,0-1.25.64,4.28,4.28,0,0,0-.45,2.33v4.3Z"/><path d="M85.67,87H84.52V78a6.06,6.06,0,0,1-1.07,1,6.83,6.83,0,0,1-1.24.74V78.38A6.66,6.66,0,0,0,83.89,77a5,5,0,0,0,1-1.54h.75Z"/><path d="M88.63,81.36A9.66,9.66,0,0,1,89.4,77a2.47,2.47,0,0,1,2.3-1.49,2.4,2.4,0,0,1,2.11,1.21,8.79,8.79,0,0,1,.94,4.65A9.76,9.76,0,0,1,94,85.71a2.47,2.47,0,0,1-2.3,1.49,2.55,2.55,0,0,1-2.2-1.31A8.79,8.79,0,0,1,88.63,81.36Zm1.17,0a8.58,8.58,0,0,0,.54,3.74,1.57,1.57,0,0,0,1.37,1,1.55,1.55,0,0,0,1.33-1,8.78,8.78,0,0,0,.53-3.73A8.58,8.58,0,0,0,93,77.61a1.58,1.58,0,0,0-1.39-1,1.54,1.54,0,0,0-1.31,1A8.82,8.82,0,0,0,89.8,81.35Z"/><path d="M95.92,81.36A9.64,9.64,0,0,1,96.7,77,2.47,2.47,0,0,1,99,75.5a2.41,2.41,0,0,1,2.12,1.21,8.89,8.89,0,0,1,.94,4.65,9.6,9.6,0,0,1-.78,4.35A2.46,2.46,0,0,1,99,87.2a2.55,2.55,0,0,1-2.2-1.31A8.77,8.77,0,0,1,95.92,81.36Zm1.18,0a8.58,8.58,0,0,0,.54,3.74A1.56,1.56,0,0,0,99,86a1.53,1.53,0,0,0,1.32-1,8.58,8.58,0,0,0,.54-3.73,8.58,8.58,0,0,0-.54-3.74,1.59,1.59,0,0,0-1.39-1,1.53,1.53,0,0,0-1.31,1A8.82,8.82,0,0,0,97.1,81.35Z"/><path d="M103.55,87V78.71h1v1.15a2.5,2.5,0,0,1,.88-1,2.15,2.15,0,0,1,1.18-.35,2,2,0,0,1,1.21.37,2,2,0,0,1,.7,1.08,3.22,3.22,0,0,1,.94-1.09,2,2,0,0,1,1.17-.36,1.93,1.93,0,0,1,1.55.66,3.33,3.33,0,0,1,.56,2.13V87h-1.15V81.77a4.16,4.16,0,0,0-.13-1.26,1.09,1.09,0,0,0-.42-.58,1.14,1.14,0,0,0-.65-.2,1.51,1.51,0,0,0-1.22.59,3,3,0,0,0-.47,1.86V87h-1.15V81.61a2.55,2.55,0,0,0-.31-1.46,1,1,0,0,0-.87-.42,1.44,1.44,0,0,0-1.25.64,4.26,4.26,0,0,0-.46,2.33V87Z"/><path d="M114.48,87V78.71h1v1.15a2.5,2.5,0,0,1,.88-1,2.14,2.14,0,0,1,1.17-.35,2,2,0,0,1,1.22.37,2,2,0,0,1,.7,1.08,3.22,3.22,0,0,1,.94-1.09,2,2,0,0,1,1.17-.36,1.93,1.93,0,0,1,1.55.66,3.33,3.33,0,0,1,.56,2.13V87h-1.15V81.77a4.16,4.16,0,0,0-.13-1.26,1.09,1.09,0,0,0-.42-.58,1.14,1.14,0,0,0-.65-.2,1.51,1.51,0,0,0-1.22.59,3,3,0,0,0-.47,1.86V87h-1.15V81.61a2.55,2.55,0,0,0-.31-1.46,1,1,0,0,0-.87-.42,1.44,1.44,0,0,0-1.25.64,4.26,4.26,0,0,0-.46,2.33V87Z"/></g></svg>