<svg xmlns="http://www.w3.org/2000/svg" viewBox="0 0 700 500"><defs><style>.cls-1,.cls-2,.cls-3{fill:none;stroke:#000;stroke-linecap:round;stroke-linejoin:round;}.cls-1{stroke-width:0.6px;}.cls-2{stroke-width:0.5px;}.cls-3{stroke-width:0.96px;}</style></defs><title>Wall Cladding-Monopanel-Dimensioned</title><g id="Image"><line class="cls-1" x1="272.1" y1="258.41" x2="273.02" y2="258.41"/><line class="cls-1" x1="274.12" y1="350.64" x2="275.96" y2="350.22"/><line class="cls-1" x1="482.52" y1="304.27" x2="275.54" y2="351.14"/><line class="cls-1" x1="483.44" y1="341.65" x2="276.72" y2="436.74"/><line class="cls-1" x1="277.06" y1="263.95" x2="274.96" y2="263.95"/><line class="cls-1" x1="271.34" y1="253.2" x2="271.43" y2="254.12"/><line class="cls-1" x1="271.43" y1="254.12" x2="271.68" y2="255.05"/><line class="cls-1" x1="271.68" y1="255.05" x2="274.87" y2="262.94"/><line class="cls-1" x1="274.87" y1="262.94" x2="272.77" y2="258.91"/><line class="cls-1" x1="272.77" y1="258.91" x2="272.6" y2="258.66"/><line class="cls-1" x1="272.6" y1="258.66" x2="272.52" y2="258.49"/><line class="cls-1" x1="272.52" y1="258.49" x2="272.27" y2="258.41"/><line class="cls-1" x1="272.27" y1="258.41" x2="272.1" y2="258.41"/><line class="cls-1" x1="272.1" y1="258.41" x2="272.1" y2="258.41"/><line class="cls-1" x1="272.1" y1="258.41" x2="271.93" y2="258.41"/><line class="cls-1" x1="271.93" y1="258.41" x2="271.76" y2="258.58"/><line class="cls-1" x1="271.76" y1="258.58" x2="271.6" y2="258.74"/><line class="cls-1" x1="271.6" y1="258.74" x2="271.43" y2="258.91"/><line class="cls-1" x1="271.43" y1="258.91" x2="271.34" y2="259.16"/><line class="cls-1" x1="271.34" y1="259.16" x2="271.34" y2="259.42"/><line class="cls-1" x1="271.34" y1="259.42" x2="271.34" y2="278.99"/><line class="cls-1" x1="271.34" y1="278.99" x2="271.43" y2="280.25"/><line class="cls-1" x1="271.43" y1="280.25" x2="271.76" y2="281.51"/><line class="cls-1" x1="271.76" y1="281.51" x2="272.27" y2="282.6"/><line class="cls-1" x1="272.27" y1="282.6" x2="273.02" y2="283.61"/><line class="cls-1" x1="273.02" y1="283.61" x2="273.78" y2="284.28"/><line class="cls-1" x1="273.78" y1="284.28" x2="274.79" y2="284.78"/><line class="cls-1" x1="274.79" y1="284.78" x2="275.63" y2="285.29"/><line class="cls-1" x1="275.63" y1="285.29" x2="276.47" y2="285.96"/><line class="cls-1" x1="276.47" y1="285.96" x2="277.14" y2="286.88"/><line class="cls-1" x1="277.14" y1="286.88" x2="277.64" y2="287.98"/><line class="cls-1" x1="277.64" y1="287.98" x2="277.9" y2="289.15"/><line class="cls-1" x1="277.9" y1="289.15" x2="278.06" y2="290.41"/><line class="cls-1" x1="278.06" y1="290.41" x2="278.06" y2="346.02"/><line class="cls-1" x1="278.06" y1="346.02" x2="277.9" y2="347.2"/><line class="cls-1" x1="277.9" y1="347.2" x2="277.56" y2="348.37"/><line class="cls-1" x1="277.56" y1="348.37" x2="277.06" y2="349.21"/><line class="cls-1" x1="277.06" y1="349.21" x2="276.38" y2="349.97"/><line class="cls-1" x1="276.38" y1="349.97" x2="275.63" y2="350.39"/><line class="cls-1" x1="275.63" y1="350.39" x2="275.29" y2="350.47"/><line class="cls-1" x1="275.29" y1="350.47" x2="274.7" y2="350.56"/><line class="cls-1" x1="274.7" y1="350.56" x2="274.12" y2="350.64"/><line class="cls-1" x1="274.12" y1="350.64" x2="273.78" y2="350.72"/><line class="cls-1" x1="273.78" y1="350.72" x2="272.94" y2="351.14"/><line class="cls-1" x1="272.94" y1="351.14" x2="272.27" y2="351.82"/><line class="cls-1" x1="272.27" y1="351.82" x2="271.76" y2="352.74"/><line class="cls-1" x1="271.76" y1="352.74" x2="271.43" y2="353.83"/><line class="cls-1" x1="271.43" y1="353.83" x2="271.34" y2="355.09"/><line class="cls-1" x1="271.34" y1="355.09" x2="271.34" y2="364.08"/><line class="cls-1" x1="271.34" y1="364.08" x2="271.43" y2="365.34"/><line class="cls-1" x1="271.43" y1="365.34" x2="271.76" y2="366.68"/><line class="cls-1" x1="271.76" y1="366.68" x2="272.27" y2="367.94"/><line class="cls-1" x1="272.27" y1="367.94" x2="272.94" y2="369.04"/><line class="cls-1" x1="272.94" y1="369.04" x2="273.78" y2="370.04"/><line class="cls-1" x1="273.78" y1="370.04" x2="274.7" y2="370.72"/><line class="cls-1" x1="274.7" y1="370.72" x2="275.63" y2="371.47"/><line class="cls-1" x1="275.63" y1="371.47" x2="276.38" y2="372.4"/><line class="cls-1" x1="276.38" y1="372.4" x2="277.06" y2="373.49"/><line class="cls-1" x1="277.06" y1="373.49" x2="277.56" y2="374.75"/><line class="cls-1" x1="277.56" y1="374.75" x2="277.9" y2="376.01"/><line class="cls-1" x1="277.9" y1="376.01" x2="278.06" y2="377.35"/><line class="cls-1" x1="278.06" y1="377.35" x2="278.06" y2="432.54"/><line class="cls-1" x1="278.06" y1="432.54" x2="277.9" y2="433.88"/><line class="cls-1" x1="277.9" y1="433.88" x2="277.48" y2="434.98"/><line class="cls-1" x1="277.48" y1="434.98" x2="276.8" y2="435.82"/><line class="cls-1" x1="276.8" y1="435.82" x2="276.38" y2="435.98"/><line class="cls-1" x1="276.38" y1="435.98" x2="275.88" y2="436.15"/><line class="cls-1" x1="275.88" y1="436.15" x2="274.87" y2="436.15"/><line class="cls-1" x1="274.87" y1="436.15" x2="273.19" y2="435.82"/><line class="cls-1" x1="273.19" y1="435.82" x2="273.11" y2="435.73"/><line class="cls-1" x1="273.11" y1="435.73" x2="272.94" y2="435.65"/><line class="cls-1" x1="272.94" y1="435.65" x2="272.86" y2="435.48"/><line class="cls-1" x1="272.86" y1="435.48" x2="272.69" y2="435.31"/><line class="cls-1" x1="272.69" y1="435.31" x2="272.6" y2="435.14"/><line class="cls-1" x1="272.6" y1="435.14" x2="272.6" y2="434.98"/><line class="cls-1" x1="272.6" y1="434.98" x2="272.6" y2="434.72"/><line class="cls-1" x1="272.6" y1="434.72" x2="272.6" y2="434.56"/><line class="cls-1" x1="272.6" y1="434.56" x2="272.6" y2="434.47"/><line class="cls-1" x1="272.6" y1="434.47" x2="273.61" y2="432.71"/><line class="cls-1" x1="273.61" y1="432.71" x2="273.7" y2="432.54"/><line class="cls-1" x1="273.7" y1="432.54" x2="273.7" y2="432.29"/><line class="cls-1" x1="273.7" y1="432.29" x2="273.7" y2="432.04"/><line class="cls-1" x1="273.7" y1="432.04" x2="273.61" y2="431.7"/><line class="cls-1" x1="273.61" y1="431.7" x2="273.53" y2="431.45"/><line class="cls-1" x1="273.53" y1="431.45" x2="273.36" y2="431.2"/><line class="cls-1" x1="273.36" y1="431.2" x2="272.1" y2="429.52"/><line class="cls-1" x1="272.1" y1="429.52" x2="271.85" y2="430.02"/><line class="cls-1" x1="271.85" y1="430.02" x2="273.28" y2="431.95"/><line class="cls-1" x1="273.28" y1="431.95" x2="272.18" y2="433.88"/><line class="cls-1" x1="272.18" y1="433.88" x2="272.1" y2="434.14"/><line class="cls-1" x1="272.1" y1="434.14" x2="272.1" y2="434.47"/><line class="cls-1" x1="272.1" y1="434.47" x2="272.1" y2="434.81"/><line class="cls-1" x1="272.1" y1="434.81" x2="272.18" y2="435.23"/><line class="cls-1" x1="272.18" y1="435.23" x2="272.35" y2="435.56"/><line class="cls-1" x1="272.35" y1="435.56" x2="272.6" y2="435.9"/><line class="cls-1" x1="272.6" y1="435.9" x2="272.86" y2="436.24"/><line class="cls-1" x1="272.86" y1="436.24" x2="273.11" y2="436.4"/><line class="cls-1" x1="273.11" y1="436.4" x2="273.36" y2="436.49"/><line class="cls-1" x1="273.36" y1="436.49" x2="275.04" y2="436.91"/><line class="cls-1" x1="275.04" y1="436.91" x2="276.22" y2="436.91"/><line class="cls-1" x1="276.22" y1="436.91" x2="276.72" y2="436.74"/><line class="cls-1" x1="276.72" y1="436.74" x2="277.14" y2="436.49"/><line class="cls-1" x1="277.14" y1="436.49" x2="277.9" y2="435.65"/><line class="cls-1" x1="277.9" y1="435.65" x2="278.4" y2="434.39"/><line class="cls-1" x1="278.4" y1="434.39" x2="278.57" y2="432.88"/><line class="cls-1" x1="278.57" y1="432.88" x2="278.57" y2="377.52"/><line class="cls-1" x1="278.57" y1="377.52" x2="278.48" y2="376.26"/><line class="cls-1" x1="278.48" y1="376.26" x2="278.15" y2="374.92"/><line class="cls-1" x1="278.15" y1="374.92" x2="277.73" y2="373.66"/><line class="cls-1" x1="277.73" y1="373.66" x2="276.89" y2="372.23"/><line class="cls-1" x1="276.89" y1="372.23" x2="275.88" y2="370.97"/><line class="cls-1" x1="275.88" y1="370.97" x2="274.79" y2="370.13"/><line class="cls-1" x1="274.79" y1="370.13" x2="273.95" y2="369.46"/><line class="cls-1" x1="273.95" y1="369.46" x2="273.28" y2="368.62"/><line class="cls-1" x1="273.28" y1="368.62" x2="272.69" y2="367.61"/><line class="cls-1" x1="272.69" y1="367.61" x2="272.18" y2="366.52"/><line class="cls-1" x1="272.18" y1="366.52" x2="271.93" y2="365.34"/><line class="cls-1" x1="271.93" y1="365.34" x2="271.85" y2="364.25"/><line class="cls-1" x1="271.85" y1="364.25" x2="271.85" y2="355.26"/><line class="cls-1" x1="271.85" y1="355.26" x2="271.93" y2="354.25"/><line class="cls-1" x1="271.93" y1="354.25" x2="272.18" y2="353.41"/><line class="cls-1" x1="272.18" y1="353.41" x2="272.52" y2="352.66"/><line class="cls-1" x1="272.52" y1="352.66" x2="272.94" y2="351.98"/><line class="cls-1" x1="272.94" y1="351.98" x2="273.53" y2="351.56"/><line class="cls-1" x1="273.53" y1="351.56" x2="274.12" y2="351.31"/><line class="cls-1" x1="274.12" y1="351.31" x2="274.28" y2="351.31"/><line class="cls-1" x1="274.28" y1="351.31" x2="274.79" y2="351.23"/><line class="cls-1" x1="274.79" y1="351.23" x2="275.54" y2="351.14"/><line class="cls-1" x1="275.54" y1="351.14" x2="275.88" y2="351.06"/><line class="cls-1" x1="275.88" y1="351.06" x2="276.8" y2="350.56"/><line class="cls-1" x1="276.8" y1="350.56" x2="277.56" y2="349.72"/><line class="cls-1" x1="277.56" y1="349.72" x2="278.15" y2="348.62"/><line class="cls-1" x1="278.15" y1="348.62" x2="278.48" y2="347.28"/><line class="cls-1" x1="278.48" y1="347.28" x2="278.57" y2="345.94"/><line class="cls-1" x1="278.57" y1="345.94" x2="278.57" y2="291.08"/><line class="cls-1" x1="278.57" y1="291.08" x2="278.4" y2="289.32"/><line class="cls-1" x1="278.4" y1="289.32" x2="278.06" y2="287.56"/><line class="cls-1" x1="278.06" y1="287.56" x2="277.48" y2="286.38"/><line class="cls-1" x1="277.48" y1="286.38" x2="276.72" y2="285.37"/><line class="cls-1" x1="276.72" y1="285.37" x2="275.8" y2="284.62"/><line class="cls-1" x1="275.8" y1="284.62" x2="274.87" y2="284.11"/><line class="cls-1" x1="274.87" y1="284.11" x2="274.03" y2="283.69"/><line class="cls-1" x1="274.03" y1="283.69" x2="273.28" y2="283.02"/><line class="cls-1" x1="273.28" y1="283.02" x2="272.69" y2="282.18"/><line class="cls-1" x1="272.69" y1="282.18" x2="272.27" y2="281.17"/><line class="cls-1" x1="272.27" y1="281.17" x2="271.93" y2="280.08"/><line class="cls-1" x1="271.93" y1="280.08" x2="271.85" y2="278.99"/><line class="cls-1" x1="271.85" y1="278.99" x2="271.85" y2="259.42"/><line class="cls-1" x1="271.85" y1="259.42" x2="271.85" y2="259.33"/><line class="cls-1" x1="271.85" y1="259.33" x2="271.85" y2="259.25"/><line class="cls-1" x1="271.85" y1="259.25" x2="271.93" y2="259.16"/><line class="cls-1" x1="271.93" y1="259.16" x2="271.93" y2="259.16"/><line class="cls-1" x1="271.93" y1="259.16" x2="272.02" y2="259.08"/><line class="cls-1" x1="272.02" y1="259.08" x2="272.1" y2="259.08"/><line class="cls-1" x1="272.1" y1="259.08" x2="272.1" y2="259.08"/><line class="cls-1" x1="272.1" y1="259.08" x2="272.18" y2="259.08"/><line class="cls-1" x1="272.18" y1="259.08" x2="272.27" y2="259.16"/><line class="cls-1" x1="272.27" y1="259.16" x2="272.27" y2="259.16"/><line class="cls-1" x1="272.27" y1="259.16" x2="272.35" y2="259.25"/><line class="cls-1" x1="272.35" y1="259.25" x2="274.62" y2="263.7"/><line class="cls-1" x1="274.62" y1="263.7" x2="274.7" y2="263.78"/><line class="cls-1" x1="274.7" y1="263.78" x2="274.79" y2="263.87"/><line class="cls-1" x1="274.79" y1="263.87" x2="274.87" y2="263.95"/><line class="cls-1" x1="274.87" y1="263.95" x2="274.96" y2="263.95"/><line class="cls-1" x1="274.96" y1="263.95" x2="275.04" y2="263.95"/><line class="cls-1" x1="275.04" y1="263.95" x2="275.12" y2="263.95"/><line class="cls-1" x1="275.12" y1="263.95" x2="275.29" y2="263.87"/><line class="cls-1" x1="275.29" y1="263.87" x2="275.38" y2="263.78"/><line class="cls-1" x1="275.38" y1="263.78" x2="275.46" y2="263.62"/><line class="cls-1" x1="275.46" y1="263.62" x2="275.46" y2="263.45"/><line class="cls-1" x1="275.46" y1="263.45" x2="275.54" y2="263.28"/><line class="cls-1" x1="275.54" y1="263.28" x2="275.46" y2="263.11"/><line class="cls-1" x1="275.46" y1="263.11" x2="275.46" y2="262.94"/><line class="cls-1" x1="275.46" y1="262.94" x2="272.27" y2="254.96"/><line class="cls-1" x1="272.27" y1="254.96" x2="272.1" y2="254.54"/><line class="cls-1" x1="272.1" y1="254.54" x2="271.93" y2="254.12"/><line class="cls-1" x1="271.93" y1="254.12" x2="271.85" y2="253.62"/><line class="cls-1" x1="271.85" y1="253.62" x2="271.85" y2="253.12"/><line class="cls-1" x1="271.85" y1="253.12" x2="271.85" y2="243.79"/><line class="cls-1" x1="271.85" y1="243.79" x2="271.34" y2="243.88"/><line class="cls-1" x1="271.34" y1="243.88" x2="271.34" y2="253.2"/><line class="cls-1" x1="479.75" y1="267.4" x2="479.75" y2="272.6"/><line class="cls-1" x1="479.75" y1="272.6" x2="479.83" y2="273.11"/><line class="cls-1" x1="479.83" y1="273.11" x2="480.08" y2="273.53"/><line class="cls-1" x1="480.08" y1="273.53" x2="480.42" y2="273.95"/><line class="cls-1" x1="480.42" y1="273.95" x2="480.84" y2="274.37"/><line class="cls-1" x1="480.84" y1="274.37" x2="481.43" y2="274.62"/><line class="cls-1" x1="481.43" y1="274.62" x2="482.02" y2="274.79"/><line class="cls-1" x1="482.02" y1="274.79" x2="482.77" y2="275.04"/><line class="cls-1" x1="482.77" y1="275.04" x2="483.44" y2="275.38"/><line class="cls-1" x1="483.44" y1="275.38" x2="483.95" y2="275.8"/><line class="cls-1" x1="483.95" y1="275.8" x2="484.37" y2="276.3"/><line class="cls-1" x1="484.37" y1="276.3" x2="484.7" y2="277.06"/><line class="cls-1" x1="484.7" y1="277.06" x2="484.79" y2="277.81"/><line class="cls-1" x1="484.79" y1="277.81" x2="484.79" y2="301.75"/><line class="cls-1" x1="484.79" y1="301.75" x2="484.7" y2="302.34"/><line class="cls-1" x1="484.7" y1="302.34" x2="484.45" y2="302.93"/><line class="cls-1" x1="484.45" y1="302.93" x2="484.03" y2="303.43"/><line class="cls-1" x1="484.03" y1="303.43" x2="483.44" y2="303.85"/><line class="cls-1" x1="483.44" y1="303.85" x2="482.77" y2="304.19"/><line class="cls-1" x1="482.77" y1="304.19" x2="482.52" y2="304.27"/><line class="cls-1" x1="482.52" y1="304.27" x2="482.35" y2="304.27"/><line class="cls-1" x1="481.01" y1="304.61" x2="480.59" y2="304.78"/><line class="cls-1" x1="480.59" y1="304.78" x2="480.25" y2="305.11"/><line class="cls-1" x1="480.25" y1="305.11" x2="480" y2="305.45"/><line class="cls-1" x1="480" y1="305.45" x2="479.83" y2="305.87"/><line class="cls-1" x1="479.83" y1="305.87" x2="479.75" y2="306.29"/><line class="cls-1" x1="479.75" y1="306.29" x2="479.75" y2="310.32"/><line class="cls-1" x1="479.75" y1="310.32" x2="479.83" y2="310.74"/><line class="cls-1" x1="479.83" y1="310.74" x2="480.08" y2="311.24"/><line class="cls-1" x1="480.08" y1="311.24" x2="480.34" y2="311.66"/><line class="cls-1" x1="480.34" y1="311.66" x2="480.84" y2="312.08"/><line class="cls-1" x1="480.84" y1="312.08" x2="481.34" y2="312.42"/><line class="cls-1" x1="481.34" y1="312.42" x2="482.02" y2="312.59"/><line class="cls-1" x1="482.02" y1="312.59" x2="482.86" y2="312.92"/><line class="cls-1" x1="482.86" y1="312.92" x2="483.53" y2="313.34"/><line class="cls-1" x1="483.53" y1="313.34" x2="484.12" y2="313.93"/><line class="cls-1" x1="484.12" y1="313.93" x2="484.45" y2="314.44"/><line class="cls-1" x1="484.45" y1="314.44" x2="484.7" y2="315.02"/><line class="cls-1" x1="484.7" y1="315.02" x2="484.79" y2="315.53"/><line class="cls-1" x1="484.79" y1="315.53" x2="484.79" y2="339.72"/><line class="cls-1" x1="484.79" y1="339.72" x2="484.62" y2="340.39"/><line class="cls-1" x1="484.62" y1="340.39" x2="484.28" y2="340.98"/><line class="cls-1" x1="484.28" y1="340.98" x2="483.78" y2="341.48"/><line class="cls-1" x1="483.78" y1="341.48" x2="483.44" y2="341.65"/><line class="cls-1" x1="483.44" y1="341.65" x2="483.11" y2="341.74"/><line class="cls-1" x1="273.19" y1="258.91" x2="272.77" y2="258.91"/><line class="cls-1" x1="272.69" y1="367.61" x2="480.34" y2="311.66"/><line class="cls-1" x1="272.69" y1="282.18" x2="480.42" y2="273.95"/><line class="cls-1" x1="271.93" y1="254.12" x2="277.98" y2="254.29"/><line class="cls-1" x1="278.06" y1="427" x2="272.1" y2="429.52"/><line class="cls-1" x1="480.59" y1="304.78" x2="272.94" y2="351.98"/><line class="cls-1" x1="484.03" y1="303.43" x2="277.56" y2="349.72"/><line class="cls-1" x1="277.98" y1="244.21" x2="271.85" y2="243.79"/><line class="cls-1" x1="484.37" y1="276.3" x2="278.06" y2="287.56"/><line class="cls-1" x1="272.52" y1="89.74" x2="273.44" y2="90.16"/><line class="cls-1" x1="277.64" y1="116.45" x2="273.19" y2="114.6"/><line class="cls-1" x1="480.67" y1="267.4" x2="273.02" y2="267.23"/><line class="cls-1" x1="274.96" y1="200.7" x2="274.28" y2="200.62"/><line class="cls-1" x1="481.85" y1="191.12" x2="274.62" y2="93.77"/><line class="cls-1" x1="276.47" y1="114.1" x2="483.28" y2="200.28"/><line class="cls-1" x1="275.21" y1="200.03" x2="482.27" y2="237.83"/><line class="cls-1" x1="271.34" y1="85.03" x2="271.43" y2="85.96"/><line class="cls-1" x1="271.43" y1="85.96" x2="271.68" y2="86.71"/><line class="cls-1" x1="271.68" y1="86.71" x2="274.79" y2="92.76"/><line class="cls-1" x1="274.79" y1="92.76" x2="272.69" y2="89.9"/><line class="cls-1" x1="272.69" y1="89.9" x2="272.6" y2="89.82"/><line class="cls-1" x1="272.6" y1="89.82" x2="272.52" y2="89.74"/><line class="cls-1" x1="272.52" y1="89.74" x2="272.44" y2="89.74"/><line class="cls-1" x1="272.44" y1="89.74" x2="272.27" y2="89.74"/><line class="cls-1" x1="272.27" y1="89.74" x2="272.1" y2="89.82"/><line class="cls-1" x1="272.1" y1="89.82" x2="271.85" y2="89.99"/><line class="cls-1" x1="271.85" y1="89.99" x2="271.68" y2="90.16"/><line class="cls-1" x1="271.68" y1="90.16" x2="271.51" y2="90.41"/><line class="cls-1" x1="271.51" y1="90.41" x2="271.43" y2="90.74"/><line class="cls-1" x1="271.43" y1="90.74" x2="271.34" y2="91"/><line class="cls-1" x1="271.34" y1="91" x2="271.34" y2="91.25"/><line class="cls-1" x1="271.34" y1="91.25" x2="271.34" y2="110.82"/><line class="cls-1" x1="271.34" y1="110.82" x2="271.43" y2="112"/><line class="cls-1" x1="271.43" y1="112" x2="271.76" y2="113.09"/><line class="cls-1" x1="271.76" y1="113.09" x2="272.27" y2="113.93"/><line class="cls-1" x1="272.27" y1="113.93" x2="272.94" y2="114.43"/><line class="cls-1" x1="272.94" y1="114.43" x2="273.19" y2="114.6"/><line class="cls-1" x1="273.19" y1="114.6" x2="273.78" y2="114.77"/><line class="cls-1" x1="273.78" y1="114.77" x2="274.7" y2="114.68"/><line class="cls-1" x1="274.7" y1="114.68" x2="275.63" y2="114.68"/><line class="cls-1" x1="275.63" y1="114.68" x2="276.22" y2="114.77"/><line class="cls-1" x1="276.22" y1="114.77" x2="276.38" y2="114.85"/><line class="cls-1" x1="276.38" y1="114.85" x2="277.06" y2="115.44"/><line class="cls-1" x1="277.06" y1="115.44" x2="277.56" y2="116.2"/><line class="cls-1" x1="277.56" y1="116.2" x2="277.9" y2="117.2"/><line class="cls-1" x1="277.9" y1="117.2" x2="277.98" y2="118.46"/><line class="cls-1" x1="277.98" y1="118.46" x2="277.98" y2="173.99"/><line class="cls-1" x1="277.98" y1="173.99" x2="277.9" y2="175.33"/><line class="cls-1" x1="277.9" y1="175.33" x2="277.56" y2="176.59"/><line class="cls-1" x1="277.56" y1="176.59" x2="277.06" y2="177.77"/><line class="cls-1" x1="277.06" y1="177.77" x2="276.38" y2="178.86"/><line class="cls-1" x1="276.38" y1="178.86" x2="275.54" y2="179.78"/><line class="cls-1" x1="275.54" y1="179.78" x2="274.62" y2="180.46"/><line class="cls-1" x1="274.62" y1="180.46" x2="273.78" y2="181.13"/><line class="cls-1" x1="273.78" y1="181.13" x2="272.94" y2="182.05"/><line class="cls-1" x1="272.94" y1="182.05" x2="272.27" y2="183.14"/><line class="cls-1" x1="272.27" y1="183.14" x2="271.76" y2="184.32"/><line class="cls-1" x1="271.76" y1="184.32" x2="271.43" y2="185.58"/><line class="cls-1" x1="271.43" y1="185.58" x2="271.34" y2="186.92"/><line class="cls-1" x1="271.34" y1="186.92" x2="271.34" y2="195.91"/><line class="cls-1" x1="271.34" y1="195.91" x2="271.43" y2="197.17"/><line class="cls-1" x1="271.43" y1="197.17" x2="271.76" y2="198.26"/><line class="cls-1" x1="271.76" y1="198.26" x2="272.27" y2="199.19"/><line class="cls-1" x1="272.27" y1="199.19" x2="272.94" y2="199.94"/><line class="cls-1" x1="272.94" y1="199.94" x2="273.78" y2="200.45"/><line class="cls-1" x1="273.78" y1="200.45" x2="274.28" y2="200.62"/><line class="cls-1" x1="274.28" y1="200.62" x2="274.62" y2="200.62"/><line class="cls-1" x1="274.62" y1="200.62" x2="275.04" y2="200.7"/><line class="cls-1" x1="275.04" y1="200.7" x2="275.54" y2="200.87"/><line class="cls-1" x1="275.54" y1="200.87" x2="276.38" y2="201.29"/><line class="cls-1" x1="276.38" y1="201.29" x2="277.06" y2="202.04"/><line class="cls-1" x1="277.06" y1="202.04" x2="277.56" y2="202.97"/><line class="cls-1" x1="277.56" y1="202.97" x2="277.9" y2="204.14"/><line class="cls-1" x1="277.9" y1="204.14" x2="277.98" y2="205.32"/><line class="cls-1" x1="277.98" y1="205.32" x2="277.98" y2="260.51"/><line class="cls-1" x1="277.98" y1="260.51" x2="277.81" y2="261.94"/><line class="cls-1" x1="277.81" y1="261.94" x2="277.39" y2="263.28"/><line class="cls-1" x1="277.39" y1="263.28" x2="276.72" y2="264.46"/><line class="cls-1" x1="276.72" y1="264.46" x2="275.88" y2="265.38"/><line class="cls-1" x1="275.88" y1="265.38" x2="274.87" y2="265.88"/><line class="cls-1" x1="274.87" y1="265.88" x2="273.19" y2="266.56"/><line class="cls-1" x1="273.19" y1="266.56" x2="273.02" y2="266.56"/><line class="cls-1" x1="273.02" y1="266.56" x2="273.02" y2="266.56"/><line class="cls-1" x1="273.02" y1="266.56" x2="272.94" y2="266.56"/><line class="cls-1" x1="272.94" y1="266.56" x2="272.77" y2="266.47"/><line class="cls-1" x1="272.77" y1="266.47" x2="272.69" y2="266.39"/><line class="cls-1" x1="272.69" y1="266.39" x2="272.6" y2="266.22"/><line class="cls-1" x1="272.6" y1="266.22" x2="272.52" y2="266.05"/><line class="cls-1" x1="272.52" y1="266.05" x2="272.52" y2="265.88"/><line class="cls-1" x1="272.52" y1="265.88" x2="272.52" y2="265.72"/><line class="cls-1" x1="272.52" y1="265.72" x2="272.6" y2="265.55"/><line class="cls-1" x1="272.6" y1="265.55" x2="273.61" y2="263.28"/><line class="cls-1" x1="273.61" y1="263.28" x2="273.7" y2="263.03"/><line class="cls-1" x1="273.7" y1="263.03" x2="273.7" y2="262.78"/><line class="cls-1" x1="273.7" y1="262.78" x2="273.7" y2="262.52"/><line class="cls-1" x1="273.7" y1="262.52" x2="273.61" y2="262.27"/><line class="cls-1" x1="273.61" y1="262.27" x2="273.44" y2="262.02"/><line class="cls-1" x1="273.44" y1="262.02" x2="273.28" y2="261.85"/><line class="cls-1" x1="273.28" y1="261.85" x2="272.02" y2="260.93"/><line class="cls-1" x1="272.02" y1="260.93" x2="271.76" y2="261.52"/><line class="cls-1" x1="271.76" y1="261.52" x2="273.28" y2="262.61"/><line class="cls-1" x1="273.28" y1="262.61" x2="272.18" y2="265.21"/><line class="cls-1" x1="272.18" y1="265.21" x2="272.02" y2="265.55"/><line class="cls-1" x1="272.02" y1="265.55" x2="272.02" y2="265.88"/><line class="cls-1" x1="272.02" y1="265.88" x2="272.02" y2="266.22"/><line class="cls-1" x1="272.02" y1="266.22" x2="272.18" y2="266.56"/><line class="cls-1" x1="272.18" y1="266.56" x2="272.35" y2="266.81"/><line class="cls-1" x1="272.35" y1="266.81" x2="272.52" y2="267.06"/><line class="cls-1" x1="272.52" y1="267.06" x2="272.77" y2="267.23"/><line class="cls-1" x1="272.77" y1="267.23" x2="273.02" y2="267.23"/><line class="cls-1" x1="273.02" y1="267.23" x2="273.02" y2="267.23"/><line class="cls-1" x1="273.02" y1="267.23" x2="273.28" y2="267.14"/><line class="cls-1" x1="273.28" y1="267.14" x2="275.04" y2="266.56"/><line class="cls-1" x1="275.04" y1="266.56" x2="276.13" y2="265.97"/><line class="cls-1" x1="276.13" y1="265.97" x2="277.14" y2="264.96"/><line class="cls-1" x1="277.14" y1="264.96" x2="277.9" y2="263.7"/><line class="cls-1" x1="277.9" y1="263.7" x2="278.32" y2="262.19"/><line class="cls-1" x1="278.32" y1="262.19" x2="278.48" y2="260.51"/><line class="cls-1" x1="278.48" y1="260.51" x2="278.48" y2="205.24"/><line class="cls-1" x1="278.48" y1="205.24" x2="278.4" y2="203.98"/><line class="cls-1" x1="278.4" y1="203.98" x2="278.15" y2="202.8"/><line class="cls-1" x1="278.15" y1="202.8" x2="277.64" y2="201.79"/><line class="cls-1" x1="277.64" y1="201.79" x2="276.89" y2="200.87"/><line class="cls-1" x1="276.89" y1="200.87" x2="275.88" y2="200.2"/><line class="cls-1" x1="275.88" y1="200.2" x2="275.21" y2="200.03"/><line class="cls-1" x1="275.21" y1="200.03" x2="274.79" y2="199.94"/><line class="cls-1" x1="274.79" y1="199.94" x2="274.45" y2="199.94"/><line class="cls-1" x1="274.45" y1="199.94" x2="273.95" y2="199.78"/><line class="cls-1" x1="273.95" y1="199.78" x2="273.19" y2="199.36"/><line class="cls-1" x1="273.19" y1="199.36" x2="272.6" y2="198.68"/><line class="cls-1" x1="272.6" y1="198.68" x2="272.18" y2="197.84"/><line class="cls-1" x1="272.18" y1="197.84" x2="271.93" y2="196.84"/><line class="cls-1" x1="271.93" y1="196.84" x2="271.85" y2="195.74"/><line class="cls-1" x1="271.85" y1="195.74" x2="271.85" y2="186.76"/><line class="cls-1" x1="271.85" y1="186.76" x2="271.85" y2="185.75"/><line class="cls-1" x1="271.85" y1="185.75" x2="272.1" y2="184.74"/><line class="cls-1" x1="272.1" y1="184.74" x2="272.44" y2="183.82"/><line class="cls-1" x1="272.44" y1="183.82" x2="272.94" y2="182.89"/><line class="cls-1" x1="272.94" y1="182.89" x2="273.44" y2="182.14"/><line class="cls-1" x1="273.44" y1="182.14" x2="274.12" y2="181.55"/><line class="cls-1" x1="274.12" y1="181.55" x2="274.79" y2="181.04"/><line class="cls-1" x1="274.79" y1="181.04" x2="275.8" y2="180.29"/><line class="cls-1" x1="275.8" y1="180.29" x2="276.72" y2="179.28"/><line class="cls-1" x1="276.72" y1="179.28" x2="277.48" y2="178.02"/><line class="cls-1" x1="277.48" y1="178.02" x2="278.06" y2="176.59"/><line class="cls-1" x1="278.06" y1="176.59" x2="278.4" y2="175.08"/><line class="cls-1" x1="278.4" y1="175.08" x2="278.48" y2="173.65"/><line class="cls-1" x1="278.48" y1="173.65" x2="278.48" y2="118.8"/><line class="cls-1" x1="278.48" y1="118.8" x2="278.4" y2="117.12"/><line class="cls-1" x1="278.4" y1="117.12" x2="277.98" y2="115.52"/><line class="cls-1" x1="277.98" y1="115.52" x2="277.39" y2="114.68"/><line class="cls-1" x1="277.39" y1="114.68" x2="276.64" y2="114.18"/><line class="cls-1" x1="276.64" y1="114.18" x2="276.47" y2="114.1"/><line class="cls-1" x1="276.47" y1="114.1" x2="275.8" y2="113.93"/><line class="cls-1" x1="275.8" y1="113.93" x2="274.79" y2="113.93"/><line class="cls-1" x1="274.79" y1="113.93" x2="273.95" y2="114.01"/><line class="cls-1" x1="273.95" y1="114.01" x2="273.44" y2="113.84"/><line class="cls-1" x1="273.44" y1="113.84" x2="273.28" y2="113.76"/><line class="cls-1" x1="273.28" y1="113.76" x2="272.6" y2="113.26"/><line class="cls-1" x1="272.6" y1="113.26" x2="272.18" y2="112.5"/><line class="cls-1" x1="272.18" y1="112.5" x2="271.93" y2="111.58"/><line class="cls-1" x1="271.93" y1="111.58" x2="271.85" y2="110.57"/><line class="cls-1" x1="271.85" y1="110.57" x2="271.85" y2="91"/><line class="cls-1" x1="271.85" y1="91" x2="271.85" y2="90.91"/><line class="cls-1" x1="271.85" y1="90.91" x2="271.85" y2="90.83"/><line class="cls-1" x1="271.85" y1="90.83" x2="271.85" y2="90.74"/><line class="cls-1" x1="271.85" y1="90.74" x2="271.93" y2="90.66"/><line class="cls-1" x1="271.93" y1="90.66" x2="271.93" y2="90.58"/><line class="cls-1" x1="271.93" y1="90.58" x2="272.02" y2="90.49"/><line class="cls-1" x1="272.02" y1="90.49" x2="272.1" y2="90.49"/><line class="cls-1" x1="272.1" y1="90.49" x2="272.18" y2="90.49"/><line class="cls-1" x1="272.18" y1="90.49" x2="272.18" y2="90.49"/><line class="cls-1" x1="272.18" y1="90.49" x2="272.18" y2="90.49"/><line class="cls-1" x1="272.18" y1="90.49" x2="272.27" y2="90.49"/><line class="cls-1" x1="272.27" y1="90.49" x2="272.27" y2="90.58"/><line class="cls-1" x1="272.27" y1="90.58" x2="274.54" y2="93.68"/><line class="cls-1" x1="274.54" y1="93.68" x2="274.62" y2="93.77"/><line class="cls-1" x1="274.62" y1="93.77" x2="274.62" y2="93.77"/><line class="cls-1" x1="274.62" y1="93.77" x2="274.7" y2="93.77"/><line class="cls-1" x1="274.7" y1="93.77" x2="274.87" y2="93.77"/><line class="cls-1" x1="274.87" y1="93.77" x2="274.96" y2="93.68"/><line class="cls-1" x1="274.96" y1="93.68" x2="275.12" y2="93.6"/><line class="cls-1" x1="275.12" y1="93.6" x2="275.21" y2="93.43"/><line class="cls-1" x1="275.21" y1="93.43" x2="275.29" y2="93.26"/><line class="cls-1" x1="275.29" y1="93.26" x2="275.38" y2="93.1"/><line class="cls-1" x1="275.38" y1="93.1" x2="275.46" y2="92.93"/><line class="cls-1" x1="275.46" y1="92.93" x2="275.46" y2="92.76"/><line class="cls-1" x1="275.46" y1="92.76" x2="275.46" y2="92.59"/><line class="cls-1" x1="275.46" y1="92.59" x2="275.38" y2="92.51"/><line class="cls-1" x1="275.38" y1="92.51" x2="272.18" y2="86.29"/><line class="cls-1" x1="272.18" y1="86.29" x2="272.02" y2="85.96"/><line class="cls-1" x1="272.02" y1="85.96" x2="271.93" y2="85.62"/><line class="cls-1" x1="271.93" y1="85.62" x2="271.85" y2="85.2"/><line class="cls-1" x1="271.85" y1="85.2" x2="271.85" y2="84.7"/><line class="cls-1" x1="271.85" y1="84.7" x2="271.85" y2="75.37"/><line class="cls-1" x1="271.85" y1="75.37" x2="271.34" y2="75.71"/><line class="cls-1" x1="271.34" y1="75.71" x2="271.34" y2="85.03"/><line class="cls-1" x1="479.75" y1="182.56" x2="479.75" y2="186.67"/><line class="cls-1" x1="479.75" y1="186.67" x2="479.75" y2="186.92"/><line class="cls-1" x1="479.75" y1="186.92" x2="479.83" y2="187.09"/><line class="cls-1" x1="479.83" y1="187.09" x2="479.92" y2="187.26"/><line class="cls-1" x1="479.92" y1="187.26" x2="480" y2="187.43"/><line class="cls-1" x1="480" y1="187.43" x2="482.44" y2="190.62"/><line class="cls-1" x1="482.44" y1="190.62" x2="482.44" y2="190.7"/><line class="cls-1" x1="482.44" y1="190.7" x2="482.52" y2="190.79"/><line class="cls-1" x1="482.52" y1="190.79" x2="482.44" y2="190.87"/><line class="cls-1" x1="482.44" y1="190.87" x2="482.44" y2="190.96"/><line class="cls-1" x1="482.44" y1="190.96" x2="482.35" y2="190.96"/><line class="cls-1" x1="482.35" y1="190.96" x2="482.27" y2="191.04"/><line class="cls-1" x1="482.27" y1="191.04" x2="482.18" y2="191.12"/><line class="cls-1" x1="482.18" y1="191.12" x2="482.1" y2="191.12"/><line class="cls-1" x1="482.1" y1="191.12" x2="482.02" y2="191.12"/><line class="cls-1" x1="482.02" y1="191.12" x2="481.93" y2="191.12"/><line class="cls-1" x1="481.93" y1="191.12" x2="481.85" y2="191.12"/><line class="cls-1" x1="481.85" y1="191.12" x2="481.85" y2="191.04"/><line class="cls-1" x1="479.75" y1="190.12" x2="479.75" y2="198.1"/><line class="cls-1" x1="479.75" y1="198.1" x2="479.83" y2="198.6"/><line class="cls-1" x1="479.83" y1="198.6" x2="480" y2="198.94"/><line class="cls-1" x1="483.28" y1="200.28" x2="483.36" y2="200.28"/><line class="cls-1" x1="483.36" y1="200.28" x2="483.95" y2="200.7"/><line class="cls-1" x1="483.95" y1="200.7" x2="484.37" y2="201.12"/><line class="cls-1" x1="484.37" y1="201.12" x2="484.62" y2="201.79"/><line class="cls-1" x1="484.62" y1="201.79" x2="484.7" y2="202.63"/><line class="cls-1" x1="484.7" y1="202.63" x2="484.7" y2="226.49"/><line class="cls-1" x1="484.7" y1="226.49" x2="484.62" y2="227.16"/><line class="cls-1" x1="484.62" y1="227.16" x2="484.37" y2="227.75"/><line class="cls-1" x1="484.37" y1="227.75" x2="484.03" y2="228.34"/><line class="cls-1" x1="484.03" y1="228.34" x2="483.44" y2="228.84"/><line class="cls-1" x1="483.44" y1="228.84" x2="482.77" y2="229.26"/><line class="cls-1" x1="482.77" y1="229.26" x2="481.93" y2="229.51"/><line class="cls-1" x1="481.93" y1="229.51" x2="481.43" y2="229.68"/><line class="cls-1" x1="481.43" y1="229.68" x2="481.01" y2="229.93"/><line class="cls-1" x1="481.01" y1="229.93" x2="480.59" y2="230.18"/><line class="cls-1" x1="480.59" y1="230.18" x2="480.25" y2="230.52"/><line class="cls-1" x1="480.25" y1="230.52" x2="480" y2="230.94"/><line class="cls-1" x1="480" y1="230.94" x2="479.83" y2="231.36"/><line class="cls-1" x1="479.83" y1="231.36" x2="479.75" y2="231.78"/><line class="cls-1" x1="479.75" y1="231.78" x2="479.75" y2="235.81"/><line class="cls-1" x1="479.75" y1="235.81" x2="479.83" y2="236.23"/><line class="cls-1" x1="479.83" y1="236.23" x2="480" y2="236.74"/><line class="cls-1" x1="480" y1="236.74" x2="480.34" y2="237.07"/><line class="cls-1" x1="480.34" y1="237.07" x2="480.76" y2="237.41"/><line class="cls-1" x1="480.76" y1="237.41" x2="481.34" y2="237.66"/><line class="cls-1" x1="481.93" y1="237.83" x2="482.27" y2="237.83"/><line class="cls-1" x1="482.27" y1="237.83" x2="482.77" y2="238"/><line class="cls-1" x1="482.77" y1="238" x2="483.53" y2="238.33"/><line class="cls-1" x1="483.53" y1="238.33" x2="484.12" y2="238.75"/><line class="cls-1" x1="484.12" y1="238.75" x2="484.45" y2="239.26"/><line class="cls-1" x1="484.45" y1="239.26" x2="484.7" y2="239.76"/><line class="cls-1" x1="484.7" y1="239.76" x2="484.7" y2="240.35"/><line class="cls-1" x1="484.7" y1="240.35" x2="484.7" y2="264.46"/><line class="cls-1" x1="484.7" y1="264.46" x2="484.62" y2="265.21"/><line class="cls-1" x1="484.62" y1="265.21" x2="484.28" y2="265.8"/><line class="cls-1" x1="484.28" y1="265.8" x2="483.7" y2="266.39"/><line class="cls-1" x1="483.7" y1="266.39" x2="482.94" y2="266.81"/><line class="cls-1" x1="482.94" y1="266.81" x2="482.1" y2="267.14"/><line class="cls-1" x1="482.1" y1="267.14" x2="480.84" y2="267.4"/><line class="cls-1" x1="480.84" y1="267.4" x2="480.67" y2="267.4"/><line class="cls-1" x1="480.67" y1="267.4" x2="480.67" y2="267.4"/><line class="cls-1" x1="273.53" y1="90.32" x2="272.69" y2="89.9"/><line class="cls-1" x1="272.6" y1="198.68" x2="480.34" y2="237.07"/><line class="cls-1" x1="272.6" y1="113.26" x2="274.37" y2="114.01"/><line class="cls-1" x1="271.93" y1="85.62" x2="479.83" y2="187.09"/><line class="cls-1" x1="273.19" y1="260.93" x2="272.02" y2="260.93"/><line class="cls-1" x1="480.59" y1="230.18" x2="272.94" y2="182.89"/><line class="cls-1" x1="484.03" y1="228.34" x2="277.48" y2="178.02"/><line class="cls-1" x1="479.75" y1="182.56" x2="271.85" y2="75.37"/><line class="cls-1" x1="484.37" y1="201.12" x2="277.98" y2="115.52"/></g><g id="Dimensions"><line class="cls-2" x1="243.62" y1="447.74" x2="253.03" y2="455.56"/><line class="cls-3" x1="250.6" y1="453.62" x2="250.26" y2="457.57"/><line class="cls-3" x1="250.6" y1="453.62" x2="250.93" y2="449.59"/><line class="cls-2" x1="248.33" y1="454.72" x2="265.97" y2="445.73"/><line class="cls-3" x1="245.56" y1="449.26" x2="245.22" y2="453.2"/><line class="cls-3" x1="245.56" y1="449.26" x2="245.89" y2="445.31"/><line class="cls-2" x1="243.29" y1="450.43" x2="261.01" y2="441.44"/><line class="cls-2" x1="237.66" y1="269.75" x2="237.66" y2="91.16"/><line class="cls-3" x1="237.66" y1="267.23" x2="234.47" y2="264.88"/><line class="cls-3" x1="237.66" y1="267.23" x2="240.85" y2="269.66"/><line class="cls-2" x1="234.55" y1="267.23" x2="254.46" y2="267.23"/><line class="cls-3" x1="237.66" y1="94.52" x2="234.47" y2="92.17"/><line class="cls-3" x1="237.66" y1="94.52" x2="240.94" y2="97.04"/><line class="cls-2" x1="234.72" y1="94.52" x2="254.54" y2="94.52"/><path d="M191.89,160v1.35h-6.21a3.9,3.9,0,0,1,.5-1.84,10.79,10.79,0,0,1,1.9-2.4,13.25,13.25,0,0,0,2.12-2.49,3.35,3.35,0,0,0,.5-1.63,2,2,0,0,0-.51-1.43,1.64,1.64,0,0,0-1.26-.55,1.68,1.68,0,0,0-1.33.59,2.57,2.57,0,0,0-.51,1.71l-1.19-.15a3.86,3.86,0,0,1,.94-2.48,2.82,2.82,0,0,1,2.12-.83,2.56,2.56,0,0,1,2.18,1,3.54,3.54,0,0,1,.74,2.2,4.11,4.11,0,0,1-.58,2.1,15.39,15.39,0,0,1-2.2,2.67c-.68.71-1.13,1.19-1.33,1.44a4.71,4.71,0,0,0-.49.77Z"/><path d="M193.11,158.32l1.21-.12a2.92,2.92,0,0,0,.64,1.62,1.53,1.53,0,0,0,1.15.54,1.76,1.76,0,0,0,1.42-.76,3.28,3.28,0,0,0,.59-2.06,2.85,2.85,0,0,0-.57-1.9,1.85,1.85,0,0,0-2.43-.39,2.13,2.13,0,0,0-.72.82l-1.08-.17.91-5.88h4.66v1.34h-3.74l-.51,3.08a2.69,2.69,0,0,1,1.78-.72,2.64,2.64,0,0,1,2.05,1,4,4,0,0,1,.87,2.71,4.83,4.83,0,0,1-.87,2.89,2.75,2.75,0,0,1-2.34,1.2,2.82,2.82,0,0,1-2.06-.85A3.64,3.64,0,0,1,193.11,158.32Z"/><path d="M200.41,155.67a9.67,9.67,0,0,1,.78-4.37,2.48,2.48,0,0,1,2.29-1.48,2.4,2.4,0,0,1,2.12,1.2,8.91,8.91,0,0,1,.93,4.65,9.67,9.67,0,0,1-.77,4.36,2.47,2.47,0,0,1-2.3,1.49,2.54,2.54,0,0,1-2.19-1.32A8.62,8.62,0,0,1,200.41,155.67Zm1.18,0a8.58,8.58,0,0,0,.54,3.74,1.56,1.56,0,0,0,1.37,1,1.53,1.53,0,0,0,1.32-1,13.46,13.46,0,0,0,0-7.48,1.58,1.58,0,0,0-1.39-.94,1.53,1.53,0,0,0-1.31,1A8.78,8.78,0,0,0,201.59,155.67Z"/><path d="M208,161.32V153h1v1.16a2.6,2.6,0,0,1,.89-1,2,2,0,0,1,1.17-.35,1.87,1.87,0,0,1,1.92,1.44,3.16,3.16,0,0,1,.94-1.08,2,2,0,0,1,1.17-.36,1.91,1.91,0,0,1,1.54.66,3.23,3.23,0,0,1,.57,2.13v5.69h-1.15v-5.23a4.07,4.07,0,0,0-.13-1.26,1.2,1.2,0,0,0-.42-.58,1.14,1.14,0,0,0-.65-.2,1.48,1.48,0,0,0-1.22.59,3,3,0,0,0-.47,1.86v4.82h-1.15v-5.4a2.52,2.52,0,0,0-.31-1.45,1.06,1.06,0,0,0-.88-.42,1.45,1.45,0,0,0-1.24.63,4.2,4.2,0,0,0-.46,2.33v4.31Z"/><path d="M219,161.32V153h1v1.16a2.67,2.67,0,0,1,.88-1,2.09,2.09,0,0,1,1.18-.35,2,2,0,0,1,1.22.37,2,2,0,0,1,.7,1.07,3.06,3.06,0,0,1,.94-1.08,2,2,0,0,1,1.17-.36,1.91,1.91,0,0,1,1.54.66,3.23,3.23,0,0,1,.57,2.13v5.69h-1.15v-5.23a4.07,4.07,0,0,0-.13-1.26,1.2,1.2,0,0,0-.42-.58,1.14,1.14,0,0,0-.65-.2,1.48,1.48,0,0,0-1.22.59,3,3,0,0,0-.47,1.86v4.82H223v-5.4a2.43,2.43,0,0,0-.32-1.45,1,1,0,0,0-.87-.42,1.45,1.45,0,0,0-1.24.63,4.2,4.2,0,0,0-.46,2.33v4.31Z"/><path d="M186.89,183.28a16.53,16.53,0,0,1-1.56-3.31,12.4,12.4,0,0,1-.71-4.21,14.19,14.19,0,0,1,2.27-7.49h.83a26.31,26.31,0,0,0-1.2,2.84,13.76,13.76,0,0,0-.53,2.23,15.21,15.21,0,0,0-.19,2.43,16.37,16.37,0,0,0,1.92,7.51Z"/><path d="M191.93,177.88v-3.15h-3.12v-1.31h3.12V170.3h1.32v3.12h3.12v1.31h-3.12v3.15Zm4.44,2h-7.56V178.6h7.56Z"/><path d="M201.2,179.91v-2.74h-4.07v-1.29l4.28-7.42h1v7.42h1.27v1.29h-1.27v2.74Zm0-4v-5.16l-2.94,5.16Z"/><path d="M205.14,179.91v-8.29h1v1.15a2.58,2.58,0,0,1,.88-1,2.15,2.15,0,0,1,1.18-.35,1.94,1.94,0,0,1,1.21.37,2,2,0,0,1,.71,1.08,3.09,3.09,0,0,1,.93-1.09,2.07,2.07,0,0,1,1.17-.36,1.93,1.93,0,0,1,1.55.66,3.33,3.33,0,0,1,.56,2.13v5.69h-1.15v-5.23a4.16,4.16,0,0,0-.13-1.26,1.12,1.12,0,0,0-.41-.58,1.19,1.19,0,0,0-.66-.2,1.49,1.49,0,0,0-1.21.59,2.94,2.94,0,0,0-.48,1.86v4.82h-1.14v-5.39a2.52,2.52,0,0,0-.32-1.46,1,1,0,0,0-.87-.42,1.45,1.45,0,0,0-1.25.64,4.26,4.26,0,0,0-.45,2.32v4.31Z"/><path d="M216.07,179.91v-8.29h1v1.15a2.58,2.58,0,0,1,.88-1,2.15,2.15,0,0,1,1.18-.35,1.88,1.88,0,0,1,1.92,1.45,3.09,3.09,0,0,1,.93-1.09,2.07,2.07,0,0,1,1.17-.36,1.93,1.93,0,0,1,1.55.66,3.33,3.33,0,0,1,.56,2.13v5.69h-1.15v-5.23a4.16,4.16,0,0,0-.13-1.26,1.09,1.09,0,0,0-.42-.58,1.14,1.14,0,0,0-.65-.2,1.49,1.49,0,0,0-1.21.59,2.94,2.94,0,0,0-.48,1.86v4.82h-1.14v-5.39a2.52,2.52,0,0,0-.32-1.46,1,1,0,0,0-.87-.42,1.45,1.45,0,0,0-1.25.64,4.25,4.25,0,0,0-.46,2.32v4.31Z"/><path d="M227.44,183.28h-.83a15.64,15.64,0,0,0,1.73-9.94,14.92,14.92,0,0,0-.52-2.23,24.84,24.84,0,0,0-1.21-2.84h.83a14.19,14.19,0,0,1,2.27,7.49,12.66,12.66,0,0,1-.68,4.14A15.4,15.4,0,0,1,227.44,183.28Z"/><path d="M197.35,194.59l1.25.39a5.31,5.31,0,0,1-1.45,2.87,3.56,3.56,0,0,1-2.52,1,3.87,3.87,0,0,1-2.23-.63,4.49,4.49,0,0,1-1.51-2,8.42,8.42,0,0,1-.59-3.32,7.65,7.65,0,0,1,.59-3.2,4.5,4.5,0,0,1,1.6-2,3.94,3.94,0,0,1,2.25-.67,3.44,3.44,0,0,1,2.34.85,4.56,4.56,0,0,1,1.36,2.48l-1.21.35c-.42-1.59-1.26-2.38-2.52-2.38a2.77,2.77,0,0,0-1.62.48,3.2,3.2,0,0,0-1.1,1.5,6.78,6.78,0,0,0-.41,2.57,6.07,6.07,0,0,0,.83,3.53,2.57,2.57,0,0,0,2.2,1.18,2.38,2.38,0,0,0,1.75-.73A3.93,3.93,0,0,0,197.35,194.59Z"/><path d="M199.55,194.46a5,5,0,0,1,.91-3.24,2.91,2.91,0,0,1,4.56,0,4.85,4.85,0,0,1,.91,3.15,5.17,5.17,0,0,1-.9,3.33,2.92,2.92,0,0,1-4.57,0A5,5,0,0,1,199.55,194.46Zm1.18,0a4,4,0,0,0,.59,2.39,1.74,1.74,0,0,0,1.45.79,1.7,1.7,0,0,0,1.4-.79,4,4,0,0,0,.58-2.39,4,4,0,0,0-.59-2.39,1.74,1.74,0,0,0-1.45-.79,1.69,1.69,0,0,0-1.4.79A4.08,4.08,0,0,0,200.73,194.46Z"/><path d="M209.19,198.61l-2.59-8.3h1.22l1.46,5c.17.56.32,1.12.44,1.67.1-.44.24-1,.43-1.58l1.51-5.06h1.19l-2.59,8.3Z"/><path d="M218.5,195.94l1.19.18a3.62,3.62,0,0,1-1.08,2,2.83,2.83,0,0,1-1.92.68,2.86,2.86,0,0,1-2.34-1.1,4.89,4.89,0,0,1-.9-3.17,5.19,5.19,0,0,1,.9-3.28,2.84,2.84,0,0,1,2.29-1.13,2.71,2.71,0,0,1,2.2,1.11,5.05,5.05,0,0,1,.89,3.21v.38h-5.08a3.57,3.57,0,0,0,.65,2.11,1.75,1.75,0,0,0,1.4.71C217.56,197.64,218.16,197.07,218.5,195.94Zm-3.79-2.28h3.8a3.21,3.21,0,0,0-.46-1.61,1.69,1.69,0,0,0-1.42-.77,1.72,1.72,0,0,0-1.32.64A2.88,2.88,0,0,0,214.71,193.66Z"/><path d="M221.15,198.61v-8.3h1v1.26a3.5,3.5,0,0,1,.73-1.16,1.12,1.12,0,0,1,.74-.29,2,2,0,0,1,1.18.46l-.39,1.3a1.43,1.43,0,0,0-.83-.3,1,1,0,0,0-.68.25,1.44,1.44,0,0,0-.42.72,6.36,6.36,0,0,0-.22,1.71v4.35Z"/><path d="M211,464.83h-1.16v-9a6.08,6.08,0,0,1-1.07.95,6.83,6.83,0,0,1-1.24.74V456.2a7.1,7.1,0,0,0,1.69-1.33,5.31,5.31,0,0,0,1-1.54H211Z"/><path d="M214,461.79l1.15-.18c.24,1.5.84,2.26,1.82,2.26a1.78,1.78,0,0,0,1.37-.67,2.56,2.56,0,0,0,.58-1.74,2.38,2.38,0,0,0-.53-1.61,1.67,1.67,0,0,0-1.31-.61,2.6,2.6,0,0,0-.81.16l.13-1.24.18,0a1.93,1.93,0,0,0,1.39-.52,1.87,1.87,0,0,0,.54-1.4,1.81,1.81,0,0,0-.45-1.29,1.41,1.41,0,0,0-1.09-.49,1.44,1.44,0,0,0-1.12.51,2.81,2.81,0,0,0-.59,1.55l-1.14-.25a3.76,3.76,0,0,1,1-2.21,2.66,2.66,0,0,1,3.79.09,3,3,0,0,1,.8,2.12,2.82,2.82,0,0,1-.34,1.38,2.41,2.41,0,0,1-1,.95,2.1,2.1,0,0,1,.93.51,2.66,2.66,0,0,1,.59,1,3.86,3.86,0,0,1,.23,1.35,3.65,3.65,0,0,1-.93,2.58,2.94,2.94,0,0,1-2.23,1,2.73,2.73,0,0,1-2-.87A3.73,3.73,0,0,1,214,461.79Z"/><path d="M221.62,464.83v-8.3h1v1.16a2.61,2.61,0,0,1,.88-1,2.17,2.17,0,0,1,1.18-.35,1.94,1.94,0,0,1,1.21.37,2,2,0,0,1,.71,1.08,3.1,3.1,0,0,1,.94-1.09,2,2,0,0,1,1.17-.36,1.89,1.89,0,0,1,1.54.67,3.22,3.22,0,0,1,.57,2.12v5.7H229.7v-5.24a4.16,4.16,0,0,0-.13-1.26,1.13,1.13,0,0,0-.42-.57,1.07,1.07,0,0,0-.65-.21,1.49,1.49,0,0,0-1.22.59,3,3,0,0,0-.47,1.86v4.83h-1.15v-5.4a2.54,2.54,0,0,0-.32-1.46,1,1,0,0,0-.87-.42,1.46,1.46,0,0,0-1.24.64,4.2,4.2,0,0,0-.46,2.33v4.31Z"/><path d="M232.55,464.83v-8.3h1v1.16a2.61,2.61,0,0,1,.88-1,2.15,2.15,0,0,1,1.18-.35,1.94,1.94,0,0,1,1.21.37,2,2,0,0,1,.71,1.08,3.1,3.1,0,0,1,.94-1.09,2,2,0,0,1,1.17-.36,1.89,1.89,0,0,1,1.54.67,3.22,3.22,0,0,1,.57,2.12v5.7h-1.15v-5.24a4.16,4.16,0,0,0-.13-1.26,1.13,1.13,0,0,0-.42-.57,1.07,1.07,0,0,0-.65-.21,1.49,1.49,0,0,0-1.22.59,3,3,0,0,0-.47,1.86v4.83h-1.15v-5.4a2.54,2.54,0,0,0-.32-1.46,1,1,0,0,0-.87-.42,1.46,1.46,0,0,0-1.24.64,4.2,4.2,0,0,0-.46,2.33v4.31Z"/></g></svg>