<svg xmlns="http://www.w3.org/2000/svg" viewBox="0 0 400 400"><defs><style>.cls-1,.cls-2,.cls-3{fill:none;stroke:#000;stroke-linecap:round;stroke-linejoin:round;}.cls-1{stroke-width:0.6px;}.cls-2{stroke-width:0.5px;}.cls-3{stroke-width:0.96px;}</style></defs><title>Gutter-Triline-Capping-Dimensioned</title><g id="Image"><line class="cls-1" x1="79.23" y1="105.36" x2="264.87" y2="63.84"/><line class="cls-1" x1="324.87" y1="131.28" x2="211.59" y2="298.68"/><line class="cls-1" x1="192.39" y1="287.04" x2="208.95" y2="265.8"/><line class="cls-1" x1="77.55" y1="107.88" x2="77.55" y2="127.44"/><line class="cls-1" x1="77.55" y1="127.44" x2="78.27" y2="127.56"/><line class="cls-1" x1="78.27" y1="127.56" x2="78.27" y2="107.88"/><line class="cls-1" x1="78.27" y1="107.88" x2="78.27" y2="107.52"/><line class="cls-1" x1="78.27" y1="107.52" x2="78.39" y2="107.16"/><line class="cls-1" x1="78.39" y1="107.16" x2="78.51" y2="106.92"/><line class="cls-1" x1="78.51" y1="106.92" x2="78.87" y2="106.56"/><line class="cls-1" x1="78.87" y1="106.56" x2="79.23" y2="106.44"/><line class="cls-1" x1="79.23" y1="106.44" x2="79.47" y2="106.32"/><line class="cls-1" x1="79.47" y1="106.32" x2="79.59" y2="106.32"/><line class="cls-1" x1="79.59" y1="106.32" x2="79.95" y2="106.32"/><line class="cls-1" x1="79.95" y1="106.32" x2="117.75" y2="109.92"/><line class="cls-1" x1="117.75" y1="109.92" x2="118.83" y2="108.72"/><line class="cls-1" x1="118.83" y1="108.72" x2="160.83" y2="112.8"/><line class="cls-1" x1="160.83" y1="112.8" x2="162.03" y2="114.24"/><line class="cls-1" x1="162.03" y1="114.24" x2="209.43" y2="118.8"/><line class="cls-1" x1="209.43" y1="118.8" x2="210.03" y2="118.92"/><line class="cls-1" x1="210.03" y1="118.92" x2="210.51" y2="119.28"/><line class="cls-1" x1="210.51" y1="119.28" x2="210.87" y2="119.64"/><line class="cls-1" x1="210.87" y1="119.64" x2="211.23" y2="120.12"/><line class="cls-1" x1="211.23" y1="120.12" x2="211.47" y2="120.6"/><line class="cls-1" x1="211.47" y1="120.6" x2="211.47" y2="121.2"/><line class="cls-1" x1="211.47" y1="121.2" x2="211.47" y2="136.68"/><line class="cls-1" x1="211.47" y1="136.68" x2="206.43" y2="172.32"/><line class="cls-1" x1="206.43" y1="172.32" x2="211.23" y2="209.4"/><line class="cls-1" x1="211.23" y1="209.4" x2="206.19" y2="244.44"/><line class="cls-1" x1="206.19" y1="244.44" x2="210.99" y2="281.76"/><line class="cls-1" x1="210.99" y1="281.76" x2="210.99" y2="296.88"/><line class="cls-1" x1="210.99" y1="296.88" x2="210.87" y2="297.36"/><line class="cls-1" x1="210.87" y1="297.36" x2="210.75" y2="297.84"/><line class="cls-1" x1="210.75" y1="297.84" x2="210.75" y2="297.84"/><line class="cls-1" x1="210.75" y1="297.84" x2="210.39" y2="298.2"/><line class="cls-1" x1="210.39" y1="298.2" x2="209.91" y2="298.44"/><line class="cls-1" x1="209.91" y1="298.44" x2="209.43" y2="298.44"/><line class="cls-1" x1="209.43" y1="298.44" x2="208.95" y2="298.32"/><line class="cls-1" x1="208.95" y1="298.32" x2="196.71" y2="294.6"/><line class="cls-1" x1="196.71" y1="294.6" x2="196.23" y2="294.36"/><line class="cls-1" x1="196.23" y1="294.36" x2="195.87" y2="294.12"/><line class="cls-1" x1="195.87" y1="294.12" x2="195.39" y2="293.76"/><line class="cls-1" x1="195.39" y1="293.76" x2="195.15" y2="293.4"/><line class="cls-1" x1="195.15" y1="293.4" x2="193.23" y2="290.4"/><line class="cls-1" x1="193.23" y1="290.4" x2="192.99" y2="289.8"/><line class="cls-1" x1="192.99" y1="289.8" x2="192.87" y2="289.2"/><line class="cls-1" x1="192.87" y1="289.2" x2="192.87" y2="288.72"/><line class="cls-1" x1="192.87" y1="288.72" x2="192.99" y2="288.24"/><line class="cls-1" x1="192.99" y1="288.24" x2="193.11" y2="287.88"/><line class="cls-1" x1="193.11" y1="287.88" x2="193.23" y2="287.76"/><line class="cls-1" x1="193.23" y1="287.76" x2="193.59" y2="287.52"/><line class="cls-1" x1="193.59" y1="287.52" x2="193.95" y2="287.4"/><line class="cls-1" x1="193.95" y1="287.4" x2="200.43" y2="286.32"/><line class="cls-1" x1="200.43" y1="286.32" x2="200.07" y2="285.24"/><line class="cls-1" x1="200.07" y1="285.24" x2="193.59" y2="286.32"/><line class="cls-1" x1="193.59" y1="286.32" x2="192.99" y2="286.56"/><line class="cls-1" x1="192.99" y1="286.56" x2="192.39" y2="286.92"/><line class="cls-1" x1="192.39" y1="286.92" x2="192.39" y2="287.04"/><line class="cls-1" x1="192.39" y1="287.04" x2="192.03" y2="287.52"/><line class="cls-1" x1="192.03" y1="287.52" x2="191.91" y2="288.24"/><line class="cls-1" x1="191.91" y1="288.24" x2="191.91" y2="289.08"/><line class="cls-1" x1="191.91" y1="289.08" x2="192.15" y2="289.92"/><line class="cls-1" x1="192.15" y1="289.92" x2="192.51" y2="290.76"/><line class="cls-1" x1="192.51" y1="290.76" x2="194.43" y2="293.76"/><line class="cls-1" x1="194.43" y1="293.76" x2="194.79" y2="294.36"/><line class="cls-1" x1="194.79" y1="294.36" x2="195.39" y2="294.96"/><line class="cls-1" x1="195.39" y1="294.96" x2="195.99" y2="295.32"/><line class="cls-1" x1="195.99" y1="295.32" x2="196.71" y2="295.68"/><line class="cls-1" x1="196.71" y1="295.68" x2="208.95" y2="299.4"/><line class="cls-1" x1="208.95" y1="299.4" x2="209.67" y2="299.52"/><line class="cls-1" x1="209.67" y1="299.52" x2="210.51" y2="299.52"/><line class="cls-1" x1="210.51" y1="299.52" x2="211.11" y2="299.16"/><line class="cls-1" x1="211.11" y1="299.16" x2="211.59" y2="298.68"/><line class="cls-1" x1="211.59" y1="298.68" x2="211.59" y2="298.68"/><line class="cls-1" x1="211.59" y1="298.68" x2="211.95" y2="297.96"/><line class="cls-1" x1="211.95" y1="297.96" x2="211.95" y2="297.24"/><line class="cls-1" x1="211.95" y1="297.24" x2="212.07" y2="282"/><line class="cls-1" x1="212.07" y1="282" x2="207.27" y2="244.68"/><line class="cls-1" x1="207.27" y1="244.68" x2="212.31" y2="209.64"/><line class="cls-1" x1="212.31" y1="209.64" x2="207.51" y2="172.56"/><line class="cls-1" x1="207.51" y1="172.56" x2="212.43" y2="136.92"/><line class="cls-1" x1="212.43" y1="136.92" x2="212.55" y2="122.28"/><line class="cls-1" x1="212.55" y1="122.28" x2="212.43" y2="120.96"/><line class="cls-1" x1="212.43" y1="120.96" x2="212.07" y2="119.64"/><line class="cls-1" x1="212.07" y1="119.64" x2="211.59" y2="118.92"/><line class="cls-1" x1="211.59" y1="118.92" x2="210.99" y2="118.32"/><line class="cls-1" x1="210.99" y1="118.32" x2="210.27" y2="117.96"/><line class="cls-1" x1="210.27" y1="117.96" x2="209.43" y2="117.84"/><line class="cls-1" x1="209.43" y1="117.84" x2="162.51" y2="113.28"/><line class="cls-1" x1="162.51" y1="113.28" x2="161.19" y2="111.84"/><line class="cls-1" x1="161.19" y1="111.84" x2="118.47" y2="107.76"/><line class="cls-1" x1="118.47" y1="107.76" x2="117.39" y2="108.96"/><line class="cls-1" x1="117.39" y1="108.96" x2="79.71" y2="105.36"/><line class="cls-1" x1="79.71" y1="105.36" x2="79.23" y2="105.36"/><line class="cls-1" x1="79.23" y1="105.36" x2="79.23" y2="105.36"/><line class="cls-1" x1="79.23" y1="105.36" x2="78.63" y2="105.6"/><line class="cls-1" x1="78.63" y1="105.6" x2="78.15" y2="105.96"/><line class="cls-1" x1="78.15" y1="105.96" x2="77.79" y2="106.56"/><line class="cls-1" x1="77.79" y1="106.56" x2="77.67" y2="107.16"/><line class="cls-1" x1="77.67" y1="107.16" x2="77.55" y2="107.88"/><line class="cls-1" x1="264.87" y1="63.84" x2="264.87" y2="63.84"/><line class="cls-1" x1="264.87" y1="63.84" x2="265.23" y2="63.72"/><line class="cls-1" x1="265.23" y1="63.72" x2="282.39" y2="64.32"/><line class="cls-1" x1="284.07" y1="63.84" x2="303.63" y2="64.44"/><line class="cls-1" x1="303.63" y1="64.44" x2="304.23" y2="64.92"/><line class="cls-1" x1="304.23" y1="64.92" x2="324.27" y2="65.52"/><line class="cls-1" x1="324.27" y1="65.52" x2="324.51" y2="65.64"/><line class="cls-1" x1="324.51" y1="65.64" x2="324.87" y2="65.76"/><line class="cls-1" x1="324.87" y1="65.76" x2="325.11" y2="65.88"/><line class="cls-1" x1="325.11" y1="65.88" x2="325.35" y2="66.12"/><line class="cls-1" x1="325.35" y1="66.12" x2="325.47" y2="66.6"/><line class="cls-1" x1="325.47" y1="66.6" x2="325.47" y2="67.2"/><line class="cls-1" x1="325.47" y1="67.2" x2="325.47" y2="72.48"/><line class="cls-1" x1="325.47" y1="72.48" x2="323.31" y2="85.56"/><line class="cls-1" x1="323.31" y1="85.56" x2="325.35" y2="98.88"/><line class="cls-1" x1="325.35" y1="98.88" x2="323.19" y2="111.84"/><line class="cls-1" x1="323.19" y1="111.84" x2="325.11" y2="125.16"/><line class="cls-1" x1="325.11" y1="125.16" x2="325.11" y2="130.68"/><line class="cls-1" x1="325.11" y1="130.68" x2="324.99" y2="131.04"/><line class="cls-1" x1="324.99" y1="131.04" x2="324.87" y2="131.28"/><line class="cls-1" x1="324.87" y1="131.28" x2="324.87" y2="131.28"/><line class="cls-1" x1="161.19" y1="111.84" x2="303.63" y2="64.44"/><line class="cls-1" x1="162.51" y1="113.28" x2="304.23" y2="64.92"/><line class="cls-1" x1="212.07" y1="119.64" x2="325.35" y2="66.12"/><line class="cls-1" x1="212.43" y1="136.92" x2="325.47" y2="72.48"/><line class="cls-1" x1="212.31" y1="209.64" x2="325.35" y2="98.88"/><line class="cls-1" x1="207.27" y1="244.68" x2="323.19" y2="111.84"/><line class="cls-1" x1="200.07" y1="285.24" x2="209.79" y2="272.28"/><line class="cls-1" x1="78.51" y1="106.92" x2="80.91" y2="106.32"/><line class="cls-1" x1="210.03" y1="273.6" x2="200.43" y2="286.32"/><line class="cls-1" x1="136.47" y1="110.4" x2="78.27" y2="127.56"/><line class="cls-1" x1="325.11" y1="125.16" x2="212.07" y2="282"/><line class="cls-1" x1="323.31" y1="85.56" x2="207.51" y2="172.56"/><line class="cls-1" x1="284.07" y1="63.84" x2="118.47" y2="107.76"/><line class="cls-1" x1="121.23" y1="108.96" x2="117.75" y2="109.92"/></g><g id="Dimensions"><path d="M112.23,337.56h-1.15v-9a6.52,6.52,0,0,1-1.07,1,6.72,6.72,0,0,1-1.24.73v-1.36a6.85,6.85,0,0,0,1.69-1.33,5.06,5.06,0,0,0,1-1.54h.75Z"/><path d="M121.27,336.21v1.35h-6.21a3.76,3.76,0,0,1,.49-1.84,10.57,10.57,0,0,1,1.9-2.4,13.25,13.25,0,0,0,2.12-2.49,3.36,3.36,0,0,0,.5-1.64,2,2,0,0,0-.51-1.42,1.75,1.75,0,0,0-2.58,0,2.52,2.52,0,0,0-.52,1.71l-1.19-.15a3.91,3.91,0,0,1,.94-2.48,2.85,2.85,0,0,1,2.13-.83,2.55,2.55,0,0,1,2.17,1,3.54,3.54,0,0,1,.74,2.2,4.11,4.11,0,0,1-.58,2.1,14.77,14.77,0,0,1-2.19,2.67c-.69.71-1.13,1.19-1.33,1.44a3.67,3.67,0,0,0-.49.77Z"/><path d="M122.48,334.56l1.22-.13a2.85,2.85,0,0,0,.63,1.63,1.53,1.53,0,0,0,1.15.54,1.76,1.76,0,0,0,1.42-.76,3.28,3.28,0,0,0,.59-2.06,2.85,2.85,0,0,0-.57-1.9,1.84,1.84,0,0,0-2.42-.39,2.08,2.08,0,0,0-.73.82l-1.08-.17.91-5.89h4.67v1.35h-3.75l-.5,3.08a2.57,2.57,0,0,1,3.82.28,4,4,0,0,1,.87,2.71,4.77,4.77,0,0,1-.87,2.88,2.75,2.75,0,0,1-2.34,1.2,2.81,2.81,0,0,1-2.06-.84A3.64,3.64,0,0,1,122.48,334.56Z"/><path d="M130.12,337.56v-8.3h1v1.16a2.69,2.69,0,0,1,.88-1,2.14,2.14,0,0,1,1.18-.34,2,2,0,0,1,1.21.36,2,2,0,0,1,.71,1.08,3.14,3.14,0,0,1,.93-1.08,2.08,2.08,0,0,1,1.18-.36,1.93,1.93,0,0,1,1.54.66,3.22,3.22,0,0,1,.56,2.12v5.7H138.2v-5.23a4.55,4.55,0,0,0-.13-1.27,1.22,1.22,0,0,0-.42-.57,1.12,1.12,0,0,0-.66-.2,1.46,1.46,0,0,0-1.21.59,2.91,2.91,0,0,0-.47,1.85v4.83h-1.15v-5.4a2.48,2.48,0,0,0-.32-1.45,1,1,0,0,0-.87-.42,1.47,1.47,0,0,0-1.25.63,4.31,4.31,0,0,0-.45,2.33v4.31Z"/><path d="M141.05,337.56v-8.3h1v1.16a2.69,2.69,0,0,1,.88-1,2.14,2.14,0,0,1,1.18-.34,2,2,0,0,1,1.21.36,2,2,0,0,1,.71,1.08,3.14,3.14,0,0,1,.93-1.08,2.08,2.08,0,0,1,1.18-.36,1.93,1.93,0,0,1,1.54.66,3.22,3.22,0,0,1,.56,2.12v5.7h-1.14v-5.23a4.55,4.55,0,0,0-.13-1.27,1.22,1.22,0,0,0-.42-.57,1.12,1.12,0,0,0-.66-.2,1.46,1.46,0,0,0-1.21.59,2.91,2.91,0,0,0-.48,1.85v4.83h-1.14v-5.4a2.48,2.48,0,0,0-.32-1.45,1,1,0,0,0-.87-.42,1.47,1.47,0,0,0-1.25.63,4.31,4.31,0,0,0-.45,2.33v4.31Z"/><path d="M279,229.67h-1.15v-9a6.52,6.52,0,0,1-1.07,1,7.46,7.46,0,0,1-1.24.74v-1.36a7.13,7.13,0,0,0,1.69-1.34,5.06,5.06,0,0,0,1-1.54H279Z"/><path d="M281.93,226.64l1.15-.19c.24,1.51.84,2.26,1.82,2.26a1.75,1.75,0,0,0,1.37-.67,2.53,2.53,0,0,0,.58-1.73,2.37,2.37,0,0,0-.53-1.61,1.68,1.68,0,0,0-1.31-.62,2.87,2.87,0,0,0-.81.16l.13-1.23h.18a1.89,1.89,0,0,0,1.39-.52,2.08,2.08,0,0,0,.09-2.69,1.48,1.48,0,0,0-2.21,0,2.81,2.81,0,0,0-.59,1.55l-1.15-.25a3.83,3.83,0,0,1,1-2.22,2.66,2.66,0,0,1,3.79.09,3,3,0,0,1,.8,2.13,2.82,2.82,0,0,1-.34,1.38,2.39,2.39,0,0,1-.95.94,2.11,2.11,0,0,1,.93.52,2.66,2.66,0,0,1,.59,1,3.8,3.8,0,0,1,.23,1.34,3.65,3.65,0,0,1-.93,2.58,3,3,0,0,1-2.23,1,2.74,2.74,0,0,1-2-.88A3.7,3.7,0,0,1,281.93,226.64Z"/><path d="M291,223.46a2.28,2.28,0,0,1-1.05-.9,2.8,2.8,0,0,1-.35-1.45,3,3,0,0,1,.77-2.12,2.5,2.5,0,0,1,1.92-.82,2.55,2.55,0,0,1,1.95.84,3,3,0,0,1,.77,2.15,2.67,2.67,0,0,1-.34,1.4,2.37,2.37,0,0,1-1,.9,2.59,2.59,0,0,1,1.31,1.08,4,4,0,0,1-.43,4.36,3,3,0,0,1-4.41,0,3.61,3.61,0,0,1-.89-2.54,3.44,3.44,0,0,1,.48-1.89A2.28,2.28,0,0,1,291,223.46Zm-.61,2.91a2.48,2.48,0,0,0,.57,1.7,1.75,1.75,0,0,0,2.7,0,2.4,2.4,0,0,0,.55-1.67,2.52,2.52,0,0,0-.56-1.7,1.77,1.77,0,0,0-1.37-.64,1.71,1.71,0,0,0-1.34.64A2.5,2.5,0,0,0,290.4,226.37Zm.39-5.3a2,2,0,0,0,.44,1.34,1.39,1.39,0,0,0,1.09.5,1.4,1.4,0,0,0,1.08-.49,1.85,1.85,0,0,0,.44-1.27,1.91,1.91,0,0,0-.45-1.31,1.42,1.42,0,0,0-1.08-.51,1.35,1.35,0,0,0-1.07.5A1.77,1.77,0,0,0,290.79,221.07Z"/><path d="M296.86,229.67v-8.3h1v1.16a2.58,2.58,0,0,1,.88-1,2.07,2.07,0,0,1,1.18-.35,1.94,1.94,0,0,1,1.21.37,2,2,0,0,1,.71,1.07,3.14,3.14,0,0,1,.93-1.08,2.08,2.08,0,0,1,1.18-.36,1.93,1.93,0,0,1,1.54.66,3.23,3.23,0,0,1,.56,2.13v5.69h-1.14v-5.23a4.42,4.42,0,0,0-.13-1.26,1.1,1.1,0,0,0-1.08-.78,1.46,1.46,0,0,0-1.21.59,2.92,2.92,0,0,0-.48,1.86v4.82H300.9v-5.4a2.5,2.5,0,0,0-.32-1.45,1,1,0,0,0-.87-.42,1.45,1.45,0,0,0-1.25.64,4.26,4.26,0,0,0-.45,2.32v4.31Z"/><path d="M307.79,229.67v-8.3h1v1.16a2.58,2.58,0,0,1,.88-1,2.07,2.07,0,0,1,1.18-.35,1.94,1.94,0,0,1,1.21.37,2,2,0,0,1,.71,1.07,3.14,3.14,0,0,1,.93-1.08,2.07,2.07,0,0,1,1.17-.36,1.93,1.93,0,0,1,1.55.66A3.23,3.23,0,0,1,317,224v5.69h-1.14v-5.23a4.42,4.42,0,0,0-.13-1.26,1.1,1.1,0,0,0-1.08-.78,1.46,1.46,0,0,0-1.21.59,2.92,2.92,0,0,0-.48,1.86v4.82h-1.14v-5.4a2.5,2.5,0,0,0-.32-1.45,1,1,0,0,0-.87-.42,1.45,1.45,0,0,0-1.25.64,4.26,4.26,0,0,0-.45,2.32v4.31Z"/><line class="cls-2" x1="269.07" y1="130.44" x2="269.07" y2="322.56"/><line class="cls-3" x1="269.07" y1="134.28" x2="264.03" y2="136.8"/><line class="cls-3" x1="269.07" y1="134.28" x2="274.11" y2="131.64"/><line class="cls-3" x1="269.07" y1="318.48" x2="264.03" y2="321.12"/><line class="cls-3" x1="269.07" y1="318.48" x2="274.11" y2="315.96"/><line class="cls-2" x1="76.71" y1="276.72" x2="76.71" y2="305.16"/><line class="cls-3" x1="76.71" y1="300.12" x2="81.15" y2="296.64"/><line class="cls-3" x1="76.71" y1="300.12" x2="72.39" y2="303.6"/><line class="cls-2" x1="246.75" y1="127.44" x2="273.87" y2="135.72"/><line class="cls-2" x1="246.63" y1="311.64" x2="273.75" y2="319.92"/><line class="cls-2" x1="72.15" y1="298.68" x2="214.83" y2="342.36"/><line class="cls-2" x1="210.87" y1="317.76" x2="210.87" y2="346.08"/><line class="cls-3" x1="210.87" y1="341.16" x2="215.31" y2="337.56"/><line class="cls-3" x1="210.87" y1="341.16" x2="206.43" y2="344.64"/></g></svg>