<svg xmlns="http://www.w3.org/2000/svg" viewBox="0 0 400 400"><defs><style>.cls-1,.cls-2,.cls-3{fill:none;stroke:#000;stroke-linecap:round;stroke-linejoin:round;}.cls-1{stroke-width:0.6px;}.cls-2{stroke-width:0.5px;}.cls-3{stroke-width:0.96px;}</style></defs><title>Gutter-Half Round-150-Dimensioned</title><g id="Image"><line class="cls-1" x1="252.83" y1="149.28" x2="360.47" y2="65.16"/><line class="cls-1" x1="365.63" y1="70.2" x2="266.03" y2="164.64"/><line class="cls-1" x1="250.67" y1="165.48" x2="265.19" y2="152.88"/><line class="cls-1" x1="351.83" y1="98.76" x2="232.19" y2="239.16"/><line class="cls-1" x1="92.99" y1="150.36" x2="287.03" y2="71.88"/><line class="cls-1" x1="259.07" y1="166.68" x2="261.35" y2="166.68"/><line class="cls-1" x1="261.35" y1="166.68" x2="263.63" y2="166.2"/><line class="cls-1" x1="263.63" y1="166.2" x2="265.55" y2="165.12"/><line class="cls-1" x1="265.55" y1="165.12" x2="266.03" y2="164.64"/><line class="cls-1" x1="266.03" y1="164.64" x2="267.11" y2="163.44"/><line class="cls-1" x1="267.11" y1="163.44" x2="268.07" y2="161.4"/><line class="cls-1" x1="268.07" y1="161.4" x2="268.43" y2="159"/><line class="cls-1" x1="268.43" y1="159" x2="268.19" y2="156.6"/><line class="cls-1" x1="268.19" y1="156.6" x2="267.35" y2="154.08"/><line class="cls-1" x1="267.35" y1="154.08" x2="266.03" y2="151.92"/><line class="cls-1" x1="266.03" y1="151.92" x2="264.11" y2="150.12"/><line class="cls-1" x1="264.11" y1="150.12" x2="261.95" y2="148.68"/><line class="cls-1" x1="261.95" y1="148.68" x2="259.67" y2="147.84"/><line class="cls-1" x1="259.67" y1="147.84" x2="257.27" y2="147.72"/><line class="cls-1" x1="257.27" y1="147.72" x2="255.11" y2="148.08"/><line class="cls-1" x1="255.11" y1="148.08" x2="253.07" y2="149.16"/><line class="cls-1" x1="253.07" y1="149.16" x2="252.83" y2="149.28"/><line class="cls-1" x1="252.83" y1="149.28" x2="251.51" y2="150.72"/><line class="cls-1" x1="251.51" y1="150.72" x2="250.43" y2="152.64"/><line class="cls-1" x1="250.43" y1="152.64" x2="249.95" y2="154.92"/><line class="cls-1" x1="249.95" y1="154.92" x2="249.95" y2="157.32"/><line class="cls-1" x1="249.95" y1="157.32" x2="251.27" y2="157.44"/><line class="cls-1" x1="251.27" y1="157.44" x2="251.15" y2="155.4"/><line class="cls-1" x1="251.15" y1="155.4" x2="251.63" y2="153.48"/><line class="cls-1" x1="251.63" y1="153.48" x2="252.47" y2="151.8"/><line class="cls-1" x1="252.47" y1="151.8" x2="253.67" y2="150.48"/><line class="cls-1" x1="253.67" y1="150.48" x2="253.79" y2="150.36"/><line class="cls-1" x1="253.79" y1="150.36" x2="255.47" y2="149.52"/><line class="cls-1" x1="255.47" y1="149.52" x2="257.39" y2="149.04"/><line class="cls-1" x1="257.39" y1="149.04" x2="259.43" y2="149.16"/><line class="cls-1" x1="259.43" y1="149.16" x2="261.47" y2="149.88"/><line class="cls-1" x1="261.47" y1="149.88" x2="263.39" y2="150.96"/><line class="cls-1" x1="263.39" y1="150.96" x2="264.95" y2="152.64"/><line class="cls-1" x1="264.95" y1="152.64" x2="266.15" y2="154.44"/><line class="cls-1" x1="266.15" y1="154.44" x2="266.87" y2="156.6"/><line class="cls-1" x1="266.87" y1="156.6" x2="267.11" y2="158.64"/><line class="cls-1" x1="267.11" y1="158.64" x2="266.75" y2="160.68"/><line class="cls-1" x1="266.75" y1="160.68" x2="265.91" y2="162.48"/><line class="cls-1" x1="265.91" y1="162.48" x2="264.95" y2="163.68"/><line class="cls-1" x1="264.95" y1="163.68" x2="264.59" y2="163.92"/><line class="cls-1" x1="264.59" y1="163.92" x2="263.03" y2="164.88"/><line class="cls-1" x1="263.03" y1="164.88" x2="261.11" y2="165.36"/><line class="cls-1" x1="261.11" y1="165.36" x2="259.07" y2="165.24"/><line class="cls-1" x1="259.07" y1="165.24" x2="254.39" y2="164.52"/><line class="cls-1" x1="254.39" y1="164.52" x2="253.07" y2="164.4"/><line class="cls-1" x1="253.07" y1="164.4" x2="251.75" y2="164.76"/><line class="cls-1" x1="251.75" y1="164.76" x2="250.67" y2="165.48"/><line class="cls-1" x1="250.67" y1="165.48" x2="250.67" y2="165.48"/><line class="cls-1" x1="250.67" y1="165.48" x2="249.95" y2="166.44"/><line class="cls-1" x1="249.95" y1="166.44" x2="249.35" y2="167.64"/><line class="cls-1" x1="249.35" y1="167.64" x2="249.23" y2="168.96"/><line class="cls-1" x1="249.23" y1="168.96" x2="249.11" y2="185.52"/><line class="cls-1" x1="249.11" y1="185.52" x2="248.75" y2="193.92"/><line class="cls-1" x1="248.75" y1="193.92" x2="247.67" y2="202.2"/><line class="cls-1" x1="247.67" y1="202.2" x2="245.87" y2="210"/><line class="cls-1" x1="245.87" y1="210" x2="243.35" y2="217.56"/><line class="cls-1" x1="243.35" y1="217.56" x2="240.23" y2="224.52"/><line class="cls-1" x1="240.23" y1="224.52" x2="236.51" y2="231.12"/><line class="cls-1" x1="236.51" y1="231.12" x2="232.19" y2="237"/><line class="cls-1" x1="232.19" y1="237" x2="230.99" y2="238.44"/><line class="cls-1" x1="230.99" y1="238.44" x2="227.27" y2="242.28"/><line class="cls-1" x1="227.27" y1="242.28" x2="221.99" y2="246.96"/><line class="cls-1" x1="221.99" y1="246.96" x2="216.35" y2="250.92"/><line class="cls-1" x1="216.35" y1="250.92" x2="210.23" y2="254.16"/><line class="cls-1" x1="210.23" y1="254.16" x2="203.99" y2="256.68"/><line class="cls-1" x1="203.99" y1="256.68" x2="197.39" y2="258.48"/><line class="cls-1" x1="197.39" y1="258.48" x2="190.67" y2="259.44"/><line class="cls-1" x1="190.67" y1="259.44" x2="183.95" y2="259.8"/><line class="cls-1" x1="183.95" y1="259.8" x2="177.11" y2="259.32"/><line class="cls-1" x1="177.11" y1="259.32" x2="170.27" y2="258.24"/><line class="cls-1" x1="170.27" y1="258.24" x2="163.55" y2="256.56"/><line class="cls-1" x1="163.55" y1="256.56" x2="156.83" y2="254.16"/><line class="cls-1" x1="156.83" y1="254.16" x2="150.35" y2="251.16"/><line class="cls-1" x1="150.35" y1="251.16" x2="144.11" y2="247.68"/><line class="cls-1" x1="144.11" y1="247.68" x2="138.11" y2="243.6"/><line class="cls-1" x1="138.11" y1="243.6" x2="132.35" y2="239.16"/><line class="cls-1" x1="132.35" y1="239.16" x2="126.83" y2="234.12"/><line class="cls-1" x1="126.83" y1="234.12" x2="121.79" y2="228.72"/><line class="cls-1" x1="121.79" y1="228.72" x2="116.99" y2="223.08"/><line class="cls-1" x1="116.99" y1="223.08" x2="112.67" y2="216.96"/><line class="cls-1" x1="112.67" y1="216.96" x2="108.71" y2="210.72"/><line class="cls-1" x1="108.71" y1="210.72" x2="105.23" y2="204.12"/><line class="cls-1" x1="105.23" y1="204.12" x2="102.11" y2="197.4"/><line class="cls-1" x1="102.11" y1="197.4" x2="99.47" y2="190.56"/><line class="cls-1" x1="99.47" y1="190.56" x2="97.31" y2="183.48"/><line class="cls-1" x1="97.31" y1="183.48" x2="95.63" y2="176.52"/><line class="cls-1" x1="95.63" y1="176.52" x2="94.31" y2="169.44"/><line class="cls-1" x1="94.31" y1="169.44" x2="93.59" y2="162.36"/><line class="cls-1" x1="93.59" y1="162.36" x2="93.35" y2="155.28"/><line class="cls-1" x1="93.35" y1="155.28" x2="93.35" y2="151.56"/><line class="cls-1" x1="93.35" y1="151.56" x2="95.15" y2="155.88"/><line class="cls-1" x1="95.15" y1="155.88" x2="95.99" y2="155.52"/><line class="cls-1" x1="95.99" y1="155.52" x2="93.95" y2="150.96"/><line class="cls-1" x1="93.95" y1="150.96" x2="93.83" y2="150.72"/><line class="cls-1" x1="93.83" y1="150.72" x2="93.71" y2="150.48"/><line class="cls-1" x1="93.71" y1="150.48" x2="93.47" y2="150.36"/><line class="cls-1" x1="93.47" y1="150.36" x2="93.35" y2="150.24"/><line class="cls-1" x1="93.35" y1="150.24" x2="93.11" y2="150.24"/><line class="cls-1" x1="93.11" y1="150.24" x2="92.99" y2="150.36"/><line class="cls-1" x1="92.99" y1="150.36" x2="92.87" y2="150.36"/><line class="cls-1" x1="92.87" y1="150.36" x2="92.75" y2="150.48"/><line class="cls-1" x1="92.75" y1="150.48" x2="92.63" y2="150.6"/><line class="cls-1" x1="92.63" y1="150.6" x2="92.51" y2="150.84"/><line class="cls-1" x1="92.51" y1="150.84" x2="92.51" y2="151.08"/><line class="cls-1" x1="92.51" y1="151.08" x2="92.51" y2="155.16"/><line class="cls-1" x1="92.51" y1="155.16" x2="92.75" y2="162.24"/><line class="cls-1" x1="92.75" y1="162.24" x2="93.47" y2="169.44"/><line class="cls-1" x1="93.47" y1="169.44" x2="94.79" y2="176.52"/><line class="cls-1" x1="94.79" y1="176.52" x2="96.47" y2="183.72"/><line class="cls-1" x1="96.47" y1="183.72" x2="98.63" y2="190.8"/><line class="cls-1" x1="98.63" y1="190.8" x2="101.27" y2="197.76"/><line class="cls-1" x1="101.27" y1="197.76" x2="104.39" y2="204.6"/><line class="cls-1" x1="104.39" y1="204.6" x2="107.99" y2="211.2"/><line class="cls-1" x1="107.99" y1="211.2" x2="111.95" y2="217.56"/><line class="cls-1" x1="111.95" y1="217.56" x2="116.39" y2="223.68"/><line class="cls-1" x1="116.39" y1="223.68" x2="121.19" y2="229.56"/><line class="cls-1" x1="121.19" y1="229.56" x2="126.35" y2="234.96"/><line class="cls-1" x1="126.35" y1="234.96" x2="131.87" y2="240"/><line class="cls-1" x1="131.87" y1="240" x2="137.75" y2="244.68"/><line class="cls-1" x1="137.75" y1="244.68" x2="143.87" y2="248.76"/><line class="cls-1" x1="143.87" y1="248.76" x2="150.23" y2="252.36"/><line class="cls-1" x1="150.23" y1="252.36" x2="156.71" y2="255.36"/><line class="cls-1" x1="156.71" y1="255.36" x2="163.55" y2="257.76"/><line class="cls-1" x1="163.55" y1="257.76" x2="170.39" y2="259.56"/><line class="cls-1" x1="170.39" y1="259.56" x2="177.23" y2="260.64"/><line class="cls-1" x1="177.23" y1="260.64" x2="184.19" y2="261"/><line class="cls-1" x1="184.19" y1="261" x2="191.15" y2="260.76"/><line class="cls-1" x1="191.15" y1="260.76" x2="197.87" y2="259.68"/><line class="cls-1" x1="197.87" y1="259.68" x2="204.59" y2="257.88"/><line class="cls-1" x1="204.59" y1="257.88" x2="210.95" y2="255.36"/><line class="cls-1" x1="210.95" y1="255.36" x2="217.07" y2="252.12"/><line class="cls-1" x1="217.07" y1="252.12" x2="222.83" y2="248.16"/><line class="cls-1" x1="222.83" y1="248.16" x2="228.23" y2="243.36"/><line class="cls-1" x1="228.23" y1="243.36" x2="232.19" y2="239.16"/><line class="cls-1" x1="232.19" y1="239.16" x2="233.15" y2="238.08"/><line class="cls-1" x1="233.15" y1="238.08" x2="237.59" y2="231.96"/><line class="cls-1" x1="237.59" y1="231.96" x2="241.31" y2="225.36"/><line class="cls-1" x1="241.31" y1="225.36" x2="244.55" y2="218.28"/><line class="cls-1" x1="244.55" y1="218.28" x2="247.07" y2="210.72"/><line class="cls-1" x1="247.07" y1="210.72" x2="248.87" y2="202.68"/><line class="cls-1" x1="248.87" y1="202.68" x2="250.07" y2="194.4"/><line class="cls-1" x1="250.07" y1="194.4" x2="250.43" y2="185.76"/><line class="cls-1" x1="250.43" y1="185.76" x2="250.43" y2="169.2"/><line class="cls-1" x1="250.43" y1="169.2" x2="250.67" y2="168.12"/><line class="cls-1" x1="250.67" y1="168.12" x2="251.03" y2="167.28"/><line class="cls-1" x1="251.03" y1="167.28" x2="251.63" y2="166.56"/><line class="cls-1" x1="251.63" y1="166.56" x2="251.63" y2="166.56"/><line class="cls-1" x1="251.63" y1="166.56" x2="252.47" y2="166.08"/><line class="cls-1" x1="252.47" y1="166.08" x2="253.43" y2="165.84"/><line class="cls-1" x1="253.43" y1="165.84" x2="254.39" y2="165.84"/><line class="cls-1" x1="254.39" y1="165.84" x2="259.07" y2="166.68"/><line class="cls-1" x1="359.39" y1="76.08" x2="359.39" y2="78.36"/><line class="cls-1" x1="359.39" y1="78.36" x2="359.27" y2="81.48"/><line class="cls-1" x1="359.27" y1="81.48" x2="358.79" y2="84.6"/><line class="cls-1" x1="358.79" y1="84.6" x2="357.95" y2="87.6"/><line class="cls-1" x1="357.95" y1="87.6" x2="356.99" y2="90.48"/><line class="cls-1" x1="356.99" y1="90.48" x2="355.67" y2="93.24"/><line class="cls-1" x1="355.67" y1="93.24" x2="354.11" y2="95.88"/><line class="cls-1" x1="354.11" y1="95.88" x2="352.19" y2="98.4"/><line class="cls-1" x1="352.19" y1="98.4" x2="351.83" y2="98.76"/><line class="cls-1" x1="351.83" y1="98.76" x2="351.71" y2="98.88"/><line class="cls-1" x1="287.03" y1="71.88" x2="287.03" y2="71.88"/><line class="cls-1" x1="287.03" y1="71.88" x2="287.15" y2="71.88"/><line class="cls-1" x1="287.15" y1="71.88" x2="287.27" y2="71.88"/><line class="cls-1" x1="287.27" y1="71.88" x2="287.39" y2="71.88"/><line class="cls-1" x1="287.39" y1="71.88" x2="287.39" y2="71.88"/><line class="cls-1" x1="287.39" y1="71.88" x2="287.51" y2="72"/><line class="cls-1" x1="287.51" y1="72" x2="287.63" y2="72.12"/><line class="cls-1" x1="287.63" y1="72.12" x2="288.59" y2="73.92"/><line class="cls-1" x1="288.59" y1="73.92" x2="288.23" y2="74.04"/><line class="cls-1" x1="287.27" y1="74.52" x2="287.39" y2="76.8"/><line class="cls-1" x1="287.39" y1="76.8" x2="287.75" y2="79.68"/><line class="cls-1" x1="287.75" y1="79.68" x2="288.35" y2="82.44"/><line class="cls-1" x1="288.35" y1="82.44" x2="289.19" y2="85.2"/><line class="cls-1" x1="289.19" y1="85.2" x2="290.27" y2="87.96"/><line class="cls-1" x1="290.27" y1="87.96" x2="291.71" y2="90.6"/><line class="cls-1" x1="291.71" y1="90.6" x2="293.27" y2="93.12"/><line class="cls-1" x1="293.27" y1="93.12" x2="294.95" y2="95.64"/><line class="cls-1" x1="294.95" y1="95.64" x2="296.99" y2="97.92"/><line class="cls-1" x1="296.99" y1="97.92" x2="299.15" y2="100.08"/><line class="cls-1" x1="299.15" y1="100.08" x2="301.55" y2="102"/><line class="cls-1" x1="301.55" y1="102" x2="304.07" y2="103.8"/><line class="cls-1" x1="304.07" y1="103.8" x2="306.71" y2="105.36"/><line class="cls-1" x1="306.71" y1="105.36" x2="308.15" y2="106.08"/><line class="cls-1" x1="360.47" y1="65.16" x2="360.47" y2="65.04"/><line class="cls-1" x1="360.47" y1="65.04" x2="361.31" y2="64.68"/><line class="cls-1" x1="361.31" y1="64.68" x2="362.15" y2="64.44"/><line class="cls-1" x1="362.15" y1="64.44" x2="363.11" y2="64.44"/><line class="cls-1" x1="363.11" y1="64.44" x2="364.07" y2="64.56"/><line class="cls-1" x1="364.07" y1="64.56" x2="364.91" y2="65.04"/><line class="cls-1" x1="364.91" y1="65.04" x2="365.63" y2="65.64"/><line class="cls-1" x1="365.63" y1="65.64" x2="366.23" y2="66.36"/><line class="cls-1" x1="366.23" y1="66.36" x2="366.59" y2="67.2"/><line class="cls-1" x1="366.59" y1="67.2" x2="366.59" y2="68.04"/><line class="cls-1" x1="366.59" y1="68.04" x2="366.47" y2="68.88"/><line class="cls-1" x1="366.47" y1="68.88" x2="366.11" y2="69.72"/><line class="cls-1" x1="366.11" y1="69.72" x2="365.63" y2="70.2"/><line class="cls-1" x1="365.63" y1="70.2" x2="365.51" y2="70.32"/><line class="cls-1" x1="95.99" y1="155.52" x2="288.59" y2="73.92"/><line class="cls-1" x1="251.27" y1="157.44" x2="260.87" y2="149.64"/><line class="cls-1" x1="95.15" y1="155.88" x2="288.23" y2="74.04"/></g><g id="Dimensions"><line class="cls-2" x1="310.55" y1="162.72" x2="310.55" y2="307.08"/><line class="cls-3" x1="310.55" y1="166.68" x2="305.51" y2="169.32"/><line class="cls-3" x1="310.55" y1="166.68" x2="315.59" y2="164.16"/><line class="cls-3" x1="310.55" y1="303.72" x2="305.51" y2="306.36"/><line class="cls-3" x1="310.55" y1="303.72" x2="315.59" y2="301.2"/><line class="cls-2" x1="92.15" y1="248.64" x2="92.15" y2="276.96"/><line class="cls-3" x1="92.15" y1="271.92" x2="96.59" y2="268.44"/><line class="cls-3" x1="92.15" y1="271.92" x2="87.71" y2="275.52"/><line class="cls-3" x1="59.39" y1="225.72" x2="64.43" y2="223.2"/><line class="cls-3" x1="59.39" y1="225.72" x2="54.35" y2="228.36"/><line class="cls-3" x1="60.23" y1="139.08" x2="64.43" y2="136.92"/><line class="cls-3" x1="54.23" y1="142.2" x2="60.23" y2="139.08"/><line class="cls-2" x1="54.35" y1="224.28" x2="80.87" y2="232.32"/><line class="cls-2" x1="288.11" y1="159.84" x2="315.23" y2="168.12"/><line class="cls-2" x1="288.11" y1="296.88" x2="315.23" y2="305.16"/><line class="cls-2" x1="53.75" y1="137.76" x2="80.87" y2="146.04"/><line class="cls-2" x1="86.75" y1="270.36" x2="273.95" y2="327.48"/><line class="cls-2" x1="269.87" y1="303" x2="269.87" y2="331.32"/><line class="cls-3" x1="269.87" y1="326.28" x2="274.31" y2="322.8"/><line class="cls-3" x1="269.87" y1="326.28" x2="265.43" y2="329.88"/><line class="cls-2" x1="59.39" y1="228.72" x2="59.39" y2="136.08"/><path d="M146,317.16h-1.15v-9a6.52,6.52,0,0,1-1.07,1,6.72,6.72,0,0,1-1.24.73v-1.35a7.13,7.13,0,0,0,1.69-1.34,5.06,5.06,0,0,0,1-1.54H146Z"/><path d="M154.9,308.5l-1.14.11a2.68,2.68,0,0,0-.49-1.25,1.39,1.39,0,0,0-1.1-.54,1.83,1.83,0,0,0-1.62,1.25,7.68,7.68,0,0,0-.53,3.18,3,3,0,0,1,1-1.13,2.31,2.31,0,0,1,1.27-.39,2.46,2.46,0,0,1,2,1,4.12,4.12,0,0,1,.84,2.71,5,5,0,0,1-.42,2.08,3.21,3.21,0,0,1-1.08,1.38,2.48,2.48,0,0,1-1.44.45,2.79,2.79,0,0,1-2.35-1.29,7.53,7.53,0,0,1-.92-4.27,8.84,8.84,0,0,1,.95-4.73,2.81,2.81,0,0,1,2.42-1.41,2.41,2.41,0,0,1,1.79.73A3.42,3.42,0,0,1,154.9,308.5Zm-4.7,4.95a3.19,3.19,0,0,0,.59,2,1.69,1.69,0,0,0,1.36.75,1.53,1.53,0,0,0,1.21-.71,3.18,3.18,0,0,0,.54-1.95,3,3,0,0,0-.53-1.9,1.64,1.64,0,0,0-1.3-.67,1.68,1.68,0,0,0-1.31.67A2.76,2.76,0,0,0,150.2,313.45Z"/><path d="M156.22,314.13l1.15-.19c.24,1.51.85,2.26,1.83,2.26a1.76,1.76,0,0,0,1.37-.67,2.58,2.58,0,0,0,.58-1.73,2.41,2.41,0,0,0-.53-1.62,1.7,1.7,0,0,0-1.31-.61,2.87,2.87,0,0,0-.81.16l.13-1.23h.18a2,2,0,0,0,1.48-3.21,1.43,1.43,0,0,0-1.09-.48,1.46,1.46,0,0,0-1.13.51,2.8,2.8,0,0,0-.58,1.55l-1.15-.25a3.83,3.83,0,0,1,1-2.22,2.54,2.54,0,0,1,1.85-.75,2.59,2.59,0,0,1,1.94.84,3,3,0,0,1,.79,2.13,2.72,2.72,0,0,1-.34,1.38,2.43,2.43,0,0,1-.94.94,2.23,2.23,0,0,1,.93.52,2.66,2.66,0,0,1,.59,1,3.81,3.81,0,0,1,.22,1.34,3.65,3.65,0,0,1-.93,2.58,2.93,2.93,0,0,1-2.22,1,2.71,2.71,0,0,1-2-.88A3.71,3.71,0,0,1,156.22,314.13Z"/><path d="M163.86,317.16v-8.3h1V310a2.58,2.58,0,0,1,.88-1,2.07,2.07,0,0,1,1.18-.35,2,2,0,0,1,1.21.36,2,2,0,0,1,.71,1.08,3.14,3.14,0,0,1,.93-1.08,2.08,2.08,0,0,1,1.18-.36,1.93,1.93,0,0,1,1.54.66,3.22,3.22,0,0,1,.56,2.12v5.7h-1.14v-5.23a4.42,4.42,0,0,0-.13-1.26,1.1,1.1,0,0,0-1.08-.78,1.46,1.46,0,0,0-1.21.59,2.91,2.91,0,0,0-.48,1.85v4.83H167.9v-5.4a2.5,2.5,0,0,0-.32-1.45,1,1,0,0,0-.87-.42,1.47,1.47,0,0,0-1.25.63,4.31,4.31,0,0,0-.45,2.33v4.31Z"/><path d="M174.79,317.16v-8.3h1V310a2.58,2.58,0,0,1,.88-1,2.07,2.07,0,0,1,1.18-.35,2,2,0,0,1,1.21.36,2,2,0,0,1,.71,1.08,3.14,3.14,0,0,1,.93-1.08,2.07,2.07,0,0,1,1.17-.36,1.93,1.93,0,0,1,1.55.66,3.22,3.22,0,0,1,.56,2.12v5.7h-1.14v-5.23a4.42,4.42,0,0,0-.13-1.26,1.1,1.1,0,0,0-1.08-.78,1.46,1.46,0,0,0-1.21.59,2.91,2.91,0,0,0-.48,1.85v4.83h-1.14v-5.4a2.5,2.5,0,0,0-.32-1.45,1,1,0,0,0-.87-.42,1.47,1.47,0,0,0-1.25.63,4.31,4.31,0,0,0-.45,2.33v4.31Z"/><path d="M320.69,237h-1.15v-9a6.52,6.52,0,0,1-1.07,1,6.72,6.72,0,0,1-1.24.73v-1.36a7.1,7.1,0,0,0,1.69-1.33,5.06,5.06,0,0,0,1-1.54h.75Z"/><path d="M323.65,231.35a9.67,9.67,0,0,1,.78-4.37,2.45,2.45,0,0,1,2.29-1.48,2.42,2.42,0,0,1,2.12,1.2,8.91,8.91,0,0,1,.93,4.65,9.7,9.7,0,0,1-.77,4.36,2.47,2.47,0,0,1-2.3,1.48,2.54,2.54,0,0,1-2.2-1.31A8.74,8.74,0,0,1,323.65,231.35Zm1.18,0a8.78,8.78,0,0,0,.53,3.74,1.59,1.59,0,0,0,1.38.95,1.53,1.53,0,0,0,1.32-1,8.66,8.66,0,0,0,.53-3.73,8.8,8.8,0,0,0-.53-3.75,1.58,1.58,0,0,0-1.39-.94,1.53,1.53,0,0,0-1.31,1A8.62,8.62,0,0,0,324.83,231.35Z"/><path d="M334.64,237v-2.74h-4.07V233l4.28-7.42h.95V233h1.27v1.29H335.8V237Zm0-4V227.8L331.71,233Z"/><path d="M338.58,237v-8.3h1v1.16a2.69,2.69,0,0,1,.88-1,2.15,2.15,0,0,1,1.18-.35,2,2,0,0,1,1.21.37,2,2,0,0,1,.71,1.08,3.14,3.14,0,0,1,.93-1.08,2,2,0,0,1,1.18-.37,1.93,1.93,0,0,1,1.54.67,3.22,3.22,0,0,1,.56,2.12V237h-1.14v-5.23a4.55,4.55,0,0,0-.13-1.27,1.17,1.17,0,0,0-.42-.57,1.12,1.12,0,0,0-.66-.2,1.46,1.46,0,0,0-1.21.59,2.91,2.91,0,0,0-.47,1.85V237h-1.15v-5.4a2.48,2.48,0,0,0-.32-1.45,1,1,0,0,0-.87-.42,1.47,1.47,0,0,0-1.25.63,4.31,4.31,0,0,0-.45,2.33V237Z"/><path d="M349.51,237v-8.3h1v1.16a2.69,2.69,0,0,1,.88-1,2.15,2.15,0,0,1,1.18-.35,2,2,0,0,1,1.21.37,2,2,0,0,1,.71,1.08,3.14,3.14,0,0,1,.93-1.08,2,2,0,0,1,1.18-.37,1.93,1.93,0,0,1,1.54.67,3.22,3.22,0,0,1,.56,2.12V237h-1.14v-5.23a4.55,4.55,0,0,0-.13-1.27,1.17,1.17,0,0,0-.42-.57,1.12,1.12,0,0,0-.66-.2,1.46,1.46,0,0,0-1.21.59,2.91,2.91,0,0,0-.48,1.85V237h-1.14v-5.4a2.48,2.48,0,0,0-.32-1.45,1,1,0,0,0-.87-.42,1.47,1.47,0,0,0-1.25.63,4.31,4.31,0,0,0-.45,2.33V237Z"/><path d="M19.34,179.69v-1.35h6.07v1.09A17.14,17.14,0,0,0,23,184a19.7,19.7,0,0,0-1.19,5.62H20.65a17,17,0,0,1,.46-3.36,19.88,19.88,0,0,1,1.19-3.64,15.36,15.36,0,0,1,1.63-3Z"/><path d="M26.73,187l1.11-.13c.18,1.21.7,1.81,1.56,1.81a1.59,1.59,0,0,0,1.05-.39,2.9,2.9,0,0,0,.8-1.4,7.58,7.58,0,0,0,.33-2.35v-.29a2.91,2.91,0,0,1-1,1.11,2.2,2.2,0,0,1-1.24.4,2.51,2.51,0,0,1-2-1,4.22,4.22,0,0,1-.83-2.75,4.31,4.31,0,0,1,.86-2.83,2.64,2.64,0,0,1,3.73-.46,3.63,3.63,0,0,1,1.17,1.71,9.69,9.69,0,0,1,.42,3.24,11.69,11.69,0,0,1-.45,3.66,4,4,0,0,1-1.2,1.91,2.7,2.7,0,0,1-1.71.6,2.41,2.41,0,0,1-1.79-.73A3.38,3.38,0,0,1,26.73,187Zm4.73-5.06a3.1,3.1,0,0,0-.55-1.93,1.6,1.6,0,0,0-1.26-.71,1.67,1.67,0,0,0-1.33.75,3.18,3.18,0,0,0-.58,2,2.7,2.7,0,0,0,.55,1.79,1.69,1.69,0,0,0,1.34.67,1.61,1.61,0,0,0,1.3-.67A3.06,3.06,0,0,0,31.46,181.94Z"/><path d="M34.19,189.65v-8.3h1v1.15a2.75,2.75,0,0,1,.88-1,2.17,2.17,0,0,1,1.18-.35,2,2,0,0,1,1.22.37,2,2,0,0,1,.7,1.08,3.1,3.1,0,0,1,.94-1.09,2,2,0,0,1,1.17-.36,1.89,1.89,0,0,1,1.54.67,3.22,3.22,0,0,1,.57,2.12v5.7H42.27v-5.24a4.16,4.16,0,0,0-.13-1.26,1.13,1.13,0,0,0-.42-.57,1.07,1.07,0,0,0-.65-.21,1.51,1.51,0,0,0-1.22.59,3,3,0,0,0-.47,1.86v4.83H38.23v-5.4a2.46,2.46,0,0,0-.32-1.46,1,1,0,0,0-.87-.42,1.43,1.43,0,0,0-1.24.64,4.17,4.17,0,0,0-.46,2.33v4.31Z"/><path d="M45.12,189.65v-8.3h1v1.15a2.75,2.75,0,0,1,.88-1,2.17,2.17,0,0,1,1.18-.35,1.94,1.94,0,0,1,1.21.37,2,2,0,0,1,.71,1.08,3.1,3.1,0,0,1,.94-1.09,2,2,0,0,1,1.17-.36,1.89,1.89,0,0,1,1.54.67,3.22,3.22,0,0,1,.57,2.12v5.7H53.2v-5.24a4.16,4.16,0,0,0-.13-1.26,1.13,1.13,0,0,0-.42-.57,1.07,1.07,0,0,0-.65-.21,1.49,1.49,0,0,0-1.22.59,3,3,0,0,0-.47,1.86v4.83H49.16v-5.4a2.46,2.46,0,0,0-.32-1.46,1,1,0,0,0-.87-.42,1.43,1.43,0,0,0-1.24.64,4.17,4.17,0,0,0-.46,2.33v4.31Z"/></g></svg>