<svg xmlns="http://www.w3.org/2000/svg" viewBox="0 0 700 500"><defs><style>.cls-1,.cls-2,.cls-3{fill:none;stroke:#000;stroke-linecap:round;stroke-linejoin:round;}.cls-1{stroke-width:0.6px;}.cls-2{stroke-width:0.5px;}.cls-3{stroke-width:0.96px;}</style></defs><title>Wall Cladding-Minirib-Dimensioned</title><g id="Image"><line class="cls-1" x1="306.44" y1="97.31" x2="306.44" y2="368.63"/><line class="cls-1" x1="328.37" y1="103.28" x2="328.37" y2="358.64"/><line class="cls-1" x1="347.86" y1="108.65" x2="347.86" y2="349.73"/><line class="cls-1" x1="365.33" y1="113.44" x2="365.33" y2="341.84"/><line class="cls-1" x1="380.95" y1="117.73" x2="380.95" y2="334.61"/><line class="cls-1" x1="395.15" y1="121.59" x2="395.15" y2="328.15"/><line class="cls-1" x1="408.08" y1="125.12" x2="408.08" y2="322.27"/><line class="cls-1" x1="419.84" y1="128.31" x2="419.84" y2="316.89"/><line class="cls-1" x1="430.6" y1="131.33" x2="430.6" y2="312.02"/><line class="cls-1" x1="440.51" y1="134.02" x2="440.51" y2="307.48"/><line class="cls-1" x1="449.66" y1="136.54" x2="449.66" y2="303.28"/><line class="cls-1" x1="458.15" y1="138.81" x2="458.15" y2="299.42"/><line class="cls-1" x1="466.04" y1="140.99" x2="466.04" y2="295.81"/><line class="cls-1" x1="473.35" y1="143.01" x2="473.35" y2="292.45"/><line class="cls-1" x1="480.16" y1="144.86" x2="480.16" y2="289.34"/><line class="cls-1" x1="486.54" y1="146.62" x2="486.54" y2="286.4"/><line class="cls-1" x1="221.44" y1="75.39" x2="221.77" y2="75.14"/><line class="cls-1" x1="221.77" y1="75.14" x2="235.13" y2="78.75"/><line class="cls-1" x1="235.13" y1="78.75" x2="235.38" y2="78.83"/><line class="cls-1" x1="235.38" y1="78.83" x2="235.63" y2="78.83"/><line class="cls-1" x1="235.63" y1="78.83" x2="235.88" y2="78.92"/><line class="cls-1" x1="235.88" y1="78.92" x2="236.14" y2="78.83"/><line class="cls-1" x1="236.14" y1="78.83" x2="238.57" y2="78.75"/><line class="cls-1" x1="238.57" y1="78.75" x2="238.99" y2="78.75"/><line class="cls-1" x1="238.99" y1="78.75" x2="239.33" y2="78.75"/><line class="cls-1" x1="239.33" y1="78.75" x2="239.75" y2="78.83"/><line class="cls-1" x1="239.75" y1="78.83" x2="252.6" y2="82.36"/><line class="cls-1" x1="252.6" y1="82.36" x2="252.85" y2="82.45"/><line class="cls-1" x1="252.85" y1="82.45" x2="253.02" y2="82.61"/><line class="cls-1" x1="253.02" y1="82.61" x2="253.1" y2="82.7"/><line class="cls-1" x1="253.1" y1="82.7" x2="253.44" y2="83.71"/><line class="cls-1" x1="253.44" y1="83.71" x2="253.52" y2="83.87"/><line class="cls-1" x1="253.52" y1="83.87" x2="253.69" y2="83.96"/><line class="cls-1" x1="253.69" y1="83.96" x2="265.87" y2="87.23"/><line class="cls-1" x1="265.87" y1="87.23" x2="266.12" y2="87.23"/><line class="cls-1" x1="266.12" y1="87.23" x2="266.54" y2="87.23"/><line class="cls-1" x1="266.54" y1="87.23" x2="269.15" y2="87.15"/><line class="cls-1" x1="269.15" y1="87.15" x2="269.48" y2="87.07"/><line class="cls-1" x1="269.48" y1="87.07" x2="269.9" y2="87.15"/><line class="cls-1" x1="269.9" y1="87.15" x2="270.24" y2="87.15"/><line class="cls-1" x1="270.24" y1="87.15" x2="281.24" y2="90.17"/><line class="cls-1" x1="281.24" y1="90.17" x2="281.41" y2="90.26"/><line class="cls-1" x1="281.41" y1="90.26" x2="281.5" y2="90.43"/><line class="cls-1" x1="281.5" y1="90.43" x2="281.58" y2="90.51"/><line class="cls-1" x1="281.58" y1="90.51" x2="281.66" y2="91.43"/><line class="cls-1" x1="281.66" y1="91.43" x2="281.66" y2="91.52"/><line class="cls-1" x1="281.66" y1="91.52" x2="281.83" y2="91.6"/><line class="cls-1" x1="281.83" y1="91.6" x2="292.42" y2="94.46"/><line class="cls-1" x1="292.42" y1="94.46" x2="292.75" y2="94.46"/><line class="cls-1" x1="292.75" y1="94.46" x2="293.09" y2="94.46"/><line class="cls-1" x1="293.09" y1="94.46" x2="295.52" y2="94.37"/><line class="cls-1" x1="295.52" y1="94.37" x2="295.86" y2="94.37"/><line class="cls-1" x1="295.86" y1="94.37" x2="296.2" y2="94.37"/><line class="cls-1" x1="296.2" y1="94.37" x2="296.53" y2="94.37"/><line class="cls-1" x1="296.53" y1="94.37" x2="306.19" y2="97.06"/><line class="cls-1" x1="306.19" y1="97.06" x2="306.36" y2="97.15"/><line class="cls-1" x1="306.36" y1="97.15" x2="306.44" y2="97.23"/><line class="cls-1" x1="306.44" y1="97.23" x2="306.44" y2="97.31"/><line class="cls-1" x1="306.44" y1="97.31" x2="306.44" y2="97.31"/><line class="cls-1" x1="306.44" y1="98.24" x2="315.77" y2="100.84"/><line class="cls-1" x1="315.77" y1="100.84" x2="316.1" y2="100.84"/><line class="cls-1" x1="316.1" y1="100.84" x2="316.36" y2="100.84"/><line class="cls-1" x1="316.36" y1="100.84" x2="318.71" y2="100.76"/><line class="cls-1" x1="318.71" y1="100.76" x2="319.04" y2="100.67"/><line class="cls-1" x1="319.04" y1="100.67" x2="319.38" y2="100.76"/><line class="cls-1" x1="319.38" y1="100.76" x2="319.63" y2="100.76"/><line class="cls-1" x1="319.63" y1="100.76" x2="328.2" y2="103.11"/><line class="cls-1" x1="328.2" y1="103.11" x2="328.28" y2="103.19"/><line class="cls-1" x1="328.28" y1="103.19" x2="328.37" y2="103.28"/><line class="cls-1" x1="328.37" y1="103.28" x2="328.37" y2="103.28"/><line class="cls-1" x1="328.37" y1="104.2" x2="336.52" y2="106.47"/><line class="cls-1" x1="336.52" y1="106.47" x2="336.77" y2="106.47"/><line class="cls-1" x1="336.77" y1="106.47" x2="337.02" y2="106.47"/><line class="cls-1" x1="337.02" y1="106.47" x2="339.29" y2="106.39"/><line class="cls-1" x1="339.29" y1="106.39" x2="339.62" y2="106.39"/><line class="cls-1" x1="339.62" y1="106.39" x2="339.88" y2="106.39"/><line class="cls-1" x1="339.88" y1="106.39" x2="340.13" y2="106.39"/><line class="cls-1" x1="340.13" y1="106.39" x2="347.69" y2="108.49"/><line class="cls-1" x1="347.69" y1="108.49" x2="347.86" y2="108.57"/><line class="cls-1" x1="347.86" y1="108.57" x2="347.86" y2="108.65"/><line class="cls-1" x1="347.86" y1="108.65" x2="347.86" y2="108.65"/><line class="cls-1" x1="347.86" y1="109.58" x2="354.91" y2="111.43"/><line class="cls-1" x1="354.91" y1="111.43" x2="355.16" y2="111.51"/><line class="cls-1" x1="355.16" y1="111.51" x2="355.42" y2="111.43"/><line class="cls-1" x1="355.42" y1="111.43" x2="357.6" y2="111.34"/><line class="cls-1" x1="357.6" y1="111.34" x2="357.85" y2="111.34"/><line class="cls-1" x1="357.85" y1="111.34" x2="358.19" y2="111.43"/><line class="cls-1" x1="358.19" y1="111.43" x2="358.36" y2="111.43"/><line class="cls-1" x1="358.36" y1="111.43" x2="365.16" y2="113.27"/><line class="cls-1" x1="365.16" y1="113.27" x2="365.24" y2="113.36"/><line class="cls-1" x1="365.24" y1="113.36" x2="365.33" y2="113.44"/><line class="cls-1" x1="365.33" y1="113.44" x2="365.33" y2="113.44"/><line class="cls-1" x1="365.33" y1="114.28" x2="371.46" y2="115.96"/><line class="cls-1" x1="371.46" y1="115.96" x2="371.71" y2="115.96"/><line class="cls-1" x1="371.71" y1="115.96" x2="371.96" y2="115.96"/><line class="cls-1" x1="371.96" y1="115.96" x2="374.06" y2="115.88"/><line class="cls-1" x1="374.06" y1="115.88" x2="374.32" y2="115.88"/><line class="cls-1" x1="374.32" y1="115.88" x2="374.57" y2="115.88"/><line class="cls-1" x1="374.57" y1="115.88" x2="374.82" y2="115.88"/><line class="cls-1" x1="374.82" y1="115.88" x2="380.87" y2="117.56"/><line class="cls-1" x1="380.87" y1="117.56" x2="380.95" y2="117.64"/><line class="cls-1" x1="380.95" y1="117.64" x2="380.95" y2="117.73"/><line class="cls-1" x1="380.95" y1="117.73" x2="380.95" y2="117.73"/><line class="cls-1" x1="380.95" y1="118.57" x2="386.41" y2="119.99"/><line class="cls-1" x1="386.41" y1="119.99" x2="386.66" y2="119.99"/><line class="cls-1" x1="386.66" y1="119.99" x2="386.83" y2="119.99"/><line class="cls-1" x1="386.83" y1="119.99" x2="388.85" y2="119.91"/><line class="cls-1" x1="388.85" y1="119.91" x2="389.1" y2="119.91"/><line class="cls-1" x1="389.1" y1="119.91" x2="389.35" y2="119.91"/><line class="cls-1" x1="389.35" y1="119.91" x2="389.52" y2="119.99"/><line class="cls-1" x1="389.52" y1="119.99" x2="395.15" y2="121.51"/><line class="cls-1" x1="395.15" y1="121.51" x2="395.15" y2="121.59"/><line class="cls-1" x1="395.15" y1="121.59" x2="395.15" y2="121.59"/><line class="cls-1" x1="395.15" y1="121.59" x2="395.15" y2="121.59"/><line class="cls-1" x1="395.15" y1="122.43" x2="399.94" y2="123.69"/><line class="cls-1" x1="399.94" y1="123.69" x2="400.19" y2="123.69"/><line class="cls-1" x1="400.19" y1="123.69" x2="400.44" y2="123.69"/><line class="cls-1" x1="400.44" y1="123.69" x2="402.29" y2="123.61"/><line class="cls-1" x1="402.29" y1="123.61" x2="402.54" y2="123.61"/><line class="cls-1" x1="402.54" y1="123.61" x2="402.79" y2="123.61"/><line class="cls-1" x1="402.79" y1="123.61" x2="402.96" y2="123.69"/><line class="cls-1" x1="402.96" y1="123.69" x2="408" y2="125.03"/><line class="cls-1" x1="408" y1="125.03" x2="408.08" y2="125.12"/><line class="cls-1" x1="408.08" y1="125.12" x2="408.08" y2="125.12"/><line class="cls-1" x1="408.08" y1="125.12" x2="408.08" y2="125.12"/><line class="cls-1" x1="408.08" y1="125.87" x2="412.28" y2="127.05"/><line class="cls-1" x1="412.28" y1="127.05" x2="412.54" y2="127.05"/><line class="cls-1" x1="412.54" y1="127.05" x2="412.7" y2="127.05"/><line class="cls-1" x1="412.7" y1="127.05" x2="414.55" y2="126.97"/><line class="cls-1" x1="414.55" y1="126.97" x2="414.8" y2="126.97"/><line class="cls-1" x1="414.8" y1="126.97" x2="414.97" y2="126.97"/><line class="cls-1" x1="414.97" y1="126.97" x2="415.14" y2="127.05"/><line class="cls-1" x1="415.14" y1="127.05" x2="419.76" y2="128.31"/><line class="cls-1" x1="419.76" y1="128.31" x2="419.84" y2="128.31"/><line class="cls-1" x1="419.84" y1="128.31" x2="419.84" y2="128.31"/><line class="cls-1" x1="419.84" y1="129.07" x2="423.62" y2="130.07"/><line class="cls-1" x1="423.62" y1="130.07" x2="423.79" y2="130.16"/><line class="cls-1" x1="423.79" y1="130.16" x2="423.96" y2="130.16"/><line class="cls-1" x1="423.96" y1="130.16" x2="425.72" y2="130.07"/><line class="cls-1" x1="425.72" y1="130.07" x2="425.98" y2="130.07"/><line class="cls-1" x1="425.98" y1="130.07" x2="426.14" y2="130.07"/><line class="cls-1" x1="426.14" y1="130.07" x2="426.31" y2="130.07"/><line class="cls-1" x1="426.31" y1="130.07" x2="430.6" y2="131.25"/><line class="cls-1" x1="430.6" y1="131.25" x2="430.6" y2="131.25"/><line class="cls-1" x1="430.6" y1="131.25" x2="430.6" y2="131.33"/><line class="cls-1" x1="430.6" y1="132.01" x2="433.96" y2="132.93"/><line class="cls-1" x1="433.96" y1="132.93" x2="434.12" y2="132.93"/><line class="cls-1" x1="434.12" y1="132.93" x2="434.38" y2="132.93"/><line class="cls-1" x1="434.38" y1="132.93" x2="436.06" y2="132.93"/><line class="cls-1" x1="436.06" y1="132.93" x2="436.22" y2="132.85"/><line class="cls-1" x1="436.22" y1="132.85" x2="436.48" y2="132.93"/><line class="cls-1" x1="436.48" y1="132.93" x2="436.64" y2="132.93"/><line class="cls-1" x1="436.64" y1="132.93" x2="440.51" y2="134.02"/><line class="cls-1" x1="440.51" y1="134.02" x2="440.51" y2="134.02"/><line class="cls-1" x1="440.51" y1="134.02" x2="440.51" y2="134.02"/><line class="cls-1" x1="440.51" y1="134.69" x2="443.53" y2="135.53"/><line class="cls-1" x1="443.53" y1="135.53" x2="443.7" y2="135.53"/><line class="cls-1" x1="443.7" y1="135.53" x2="443.87" y2="135.53"/><line class="cls-1" x1="443.87" y1="135.53" x2="445.46" y2="135.45"/><line class="cls-1" x1="445.46" y1="135.45" x2="445.72" y2="135.45"/><line class="cls-1" x1="445.72" y1="135.45" x2="445.88" y2="135.53"/><line class="cls-1" x1="445.88" y1="135.53" x2="446.05" y2="135.53"/><line class="cls-1" x1="446.05" y1="135.53" x2="449.66" y2="136.46"/><line class="cls-1" x1="449.66" y1="136.46" x2="449.66" y2="136.54"/><line class="cls-1" x1="449.66" y1="136.54" x2="449.66" y2="136.54"/><line class="cls-1" x1="449.66" y1="137.21" x2="452.35" y2="137.89"/><line class="cls-1" x1="452.35" y1="137.89" x2="452.52" y2="137.97"/><line class="cls-1" x1="452.52" y1="137.97" x2="452.69" y2="137.97"/><line class="cls-1" x1="452.69" y1="137.97" x2="454.28" y2="137.89"/><line class="cls-1" x1="454.28" y1="137.89" x2="454.45" y2="137.89"/><line class="cls-1" x1="454.45" y1="137.89" x2="454.62" y2="137.89"/><line class="cls-1" x1="454.62" y1="137.89" x2="454.79" y2="137.89"/><line class="cls-1" x1="454.79" y1="137.89" x2="458.15" y2="138.81"/><line class="cls-1" x1="458.15" y1="138.81" x2="458.15" y2="138.81"/><line class="cls-1" x1="458.15" y1="138.81" x2="458.15" y2="138.89"/><line class="cls-1" x1="458.15" y1="139.48" x2="460.5" y2="140.15"/><line class="cls-1" x1="460.5" y1="140.15" x2="460.67" y2="140.15"/><line class="cls-1" x1="460.67" y1="140.15" x2="460.92" y2="140.15"/><line class="cls-1" x1="460.92" y1="140.15" x2="462.35" y2="140.15"/><line class="cls-1" x1="462.35" y1="140.15" x2="462.6" y2="140.15"/><line class="cls-1" x1="462.6" y1="140.15" x2="462.77" y2="140.15"/><line class="cls-1" x1="462.77" y1="140.15" x2="462.94" y2="140.15"/><line class="cls-1" x1="462.94" y1="140.15" x2="465.96" y2="140.99"/><line class="cls-1" x1="465.96" y1="140.99" x2="466.04" y2="140.99"/><line class="cls-1" x1="466.04" y1="140.99" x2="466.04" y2="140.99"/><line class="cls-1" x1="466.04" y1="141.67" x2="468.14" y2="142.25"/><line class="cls-1" x1="468.14" y1="142.25" x2="468.31" y2="142.25"/><line class="cls-1" x1="468.31" y1="142.25" x2="468.48" y2="142.25"/><line class="cls-1" x1="468.48" y1="142.25" x2="469.91" y2="142.17"/><line class="cls-1" x1="469.91" y1="142.17" x2="470.16" y2="142.17"/><line class="cls-1" x1="470.16" y1="142.17" x2="470.33" y2="142.17"/><line class="cls-1" x1="470.33" y1="142.17" x2="470.41" y2="142.17"/><line class="cls-1" x1="470.41" y1="142.17" x2="473.27" y2="143.01"/><line class="cls-1" x1="473.27" y1="143.01" x2="473.35" y2="143.01"/><line class="cls-1" x1="473.35" y1="143.01" x2="473.27" y2="143.01"/><line class="cls-1" x1="473.27" y1="143.6" x2="475.2" y2="144.19"/><line class="cls-1" x1="475.2" y1="144.19" x2="475.37" y2="144.19"/><line class="cls-1" x1="475.37" y1="144.19" x2="475.54" y2="144.19"/><line class="cls-1" x1="475.54" y1="144.19" x2="476.96" y2="144.1"/><line class="cls-1" x1="476.96" y1="144.1" x2="477.13" y2="144.1"/><line class="cls-1" x1="477.13" y1="144.1" x2="477.3" y2="144.1"/><line class="cls-1" x1="477.3" y1="144.1" x2="477.47" y2="144.1"/><line class="cls-1" x1="477.47" y1="144.1" x2="480.16" y2="144.86"/><line class="cls-1" x1="480.16" y1="144.86" x2="480.16" y2="144.86"/><line class="cls-1" x1="480.16" y1="144.86" x2="480.16" y2="144.86"/><line class="cls-1" x1="480.16" y1="145.45" x2="481.84" y2="145.95"/><line class="cls-1" x1="481.84" y1="145.95" x2="482" y2="145.95"/><line class="cls-1" x1="482" y1="145.95" x2="482.17" y2="145.95"/><line class="cls-1" x1="482.17" y1="145.95" x2="483.52" y2="145.95"/><line class="cls-1" x1="483.52" y1="145.95" x2="483.77" y2="145.95"/><line class="cls-1" x1="483.77" y1="145.95" x2="483.85" y2="145.95"/><line class="cls-1" x1="483.85" y1="145.95" x2="484.02" y2="145.95"/><line class="cls-1" x1="484.02" y1="145.95" x2="486.54" y2="146.62"/><line class="cls-1" x1="486.54" y1="146.62" x2="486.54" y2="146.62"/><line class="cls-1" x1="486.54" y1="146.62" x2="486.54" y2="146.62"/><line class="cls-1" x1="486.54" y1="147.21" x2="488.14" y2="147.63"/><line class="cls-1" x1="488.14" y1="284.72" x2="486.54" y2="285.47"/><line class="cls-1" x1="486.54" y1="286.4" x2="486.54" y2="286.4"/><line class="cls-1" x1="486.54" y1="286.4" x2="486.54" y2="286.4"/><line class="cls-1" x1="486.54" y1="286.4" x2="484.02" y2="287.57"/><line class="cls-1" x1="484.02" y1="287.57" x2="483.85" y2="287.57"/><line class="cls-1" x1="483.85" y1="287.57" x2="483.77" y2="287.57"/><line class="cls-1" x1="483.77" y1="287.57" x2="483.52" y2="287.57"/><line class="cls-1" x1="483.52" y1="287.57" x2="482.17" y2="287.57"/><line class="cls-1" x1="482.17" y1="287.57" x2="482" y2="287.57"/><line class="cls-1" x1="482" y1="287.57" x2="481.84" y2="287.57"/><line class="cls-1" x1="481.84" y1="287.57" x2="480.16" y2="288.33"/><line class="cls-1" x1="480.16" y1="289.34" x2="480.16" y2="289.34"/><line class="cls-1" x1="480.16" y1="289.34" x2="480.16" y2="289.34"/><line class="cls-1" x1="480.16" y1="289.34" x2="477.47" y2="290.6"/><line class="cls-1" x1="477.47" y1="290.6" x2="477.3" y2="290.6"/><line class="cls-1" x1="477.3" y1="290.6" x2="477.13" y2="290.6"/><line class="cls-1" x1="477.13" y1="290.6" x2="476.96" y2="290.6"/><line class="cls-1" x1="476.96" y1="290.6" x2="475.54" y2="290.51"/><line class="cls-1" x1="475.54" y1="290.51" x2="475.37" y2="290.51"/><line class="cls-1" x1="475.37" y1="290.51" x2="475.2" y2="290.6"/><line class="cls-1" x1="475.2" y1="290.6" x2="473.27" y2="291.44"/><line class="cls-1" x1="473.27" y1="292.45" x2="473.27" y2="292.45"/><line class="cls-1" x1="473.27" y1="292.45" x2="473.35" y2="292.45"/><line class="cls-1" x1="473.35" y1="292.45" x2="473.27" y2="292.45"/><line class="cls-1" x1="473.27" y1="292.45" x2="470.41" y2="293.79"/><line class="cls-1" x1="470.41" y1="293.79" x2="470.33" y2="293.79"/><line class="cls-1" x1="470.33" y1="293.79" x2="470.16" y2="293.79"/><line class="cls-1" x1="470.16" y1="293.79" x2="469.91" y2="293.79"/><line class="cls-1" x1="469.91" y1="293.79" x2="468.48" y2="293.79"/><line class="cls-1" x1="468.48" y1="293.79" x2="468.31" y2="293.79"/><line class="cls-1" x1="468.31" y1="293.79" x2="468.14" y2="293.79"/><line class="cls-1" x1="468.14" y1="293.79" x2="466.04" y2="294.71"/><line class="cls-1" x1="466.04" y1="295.81" x2="466.04" y2="295.81"/><line class="cls-1" x1="466.04" y1="295.81" x2="465.96" y2="295.81"/><line class="cls-1" x1="465.96" y1="295.81" x2="462.94" y2="297.23"/><line class="cls-1" x1="462.94" y1="297.23" x2="462.77" y2="297.23"/><line class="cls-1" x1="462.77" y1="297.23" x2="462.6" y2="297.32"/><line class="cls-1" x1="462.6" y1="297.32" x2="462.35" y2="297.32"/><line class="cls-1" x1="462.35" y1="297.32" x2="460.92" y2="297.23"/><line class="cls-1" x1="460.92" y1="297.23" x2="460.67" y2="297.23"/><line class="cls-1" x1="460.67" y1="297.23" x2="460.5" y2="297.23"/><line class="cls-1" x1="460.5" y1="297.23" x2="458.15" y2="298.33"/><line class="cls-1" x1="458.15" y1="299.42" x2="458.15" y2="299.42"/><line class="cls-1" x1="458.15" y1="299.42" x2="458.15" y2="299.42"/><line class="cls-1" x1="458.15" y1="299.42" x2="454.79" y2="300.93"/><line class="cls-1" x1="454.79" y1="300.93" x2="454.62" y2="301.01"/><line class="cls-1" x1="454.62" y1="301.01" x2="454.45" y2="301.01"/><line class="cls-1" x1="454.45" y1="301.01" x2="454.28" y2="301.01"/><line class="cls-1" x1="454.28" y1="301.01" x2="452.69" y2="300.93"/><line class="cls-1" x1="452.69" y1="300.93" x2="452.52" y2="300.93"/><line class="cls-1" x1="452.52" y1="300.93" x2="452.35" y2="300.93"/><line class="cls-1" x1="452.35" y1="300.93" x2="449.66" y2="302.11"/><line class="cls-1" x1="449.66" y1="303.28" x2="449.66" y2="303.28"/><line class="cls-1" x1="449.66" y1="303.28" x2="449.66" y2="303.28"/><line class="cls-1" x1="449.66" y1="303.28" x2="446.05" y2="304.96"/><line class="cls-1" x1="446.05" y1="304.96" x2="445.88" y2="304.96"/><line class="cls-1" x1="445.88" y1="304.96" x2="445.72" y2="304.96"/><line class="cls-1" x1="445.72" y1="304.96" x2="445.46" y2="304.96"/><line class="cls-1" x1="445.46" y1="304.96" x2="443.87" y2="304.88"/><line class="cls-1" x1="443.87" y1="304.88" x2="443.7" y2="304.88"/><line class="cls-1" x1="443.7" y1="304.88" x2="443.53" y2="304.96"/><line class="cls-1" x1="443.53" y1="304.96" x2="440.51" y2="306.31"/><line class="cls-1" x1="440.51" y1="307.48" x2="440.51" y2="307.48"/><line class="cls-1" x1="440.51" y1="307.48" x2="440.51" y2="307.48"/><line class="cls-1" x1="440.51" y1="307.48" x2="436.64" y2="309.33"/><line class="cls-1" x1="436.64" y1="309.33" x2="436.48" y2="309.33"/><line class="cls-1" x1="436.48" y1="309.33" x2="436.22" y2="309.33"/><line class="cls-1" x1="436.22" y1="309.33" x2="436.06" y2="309.33"/><line class="cls-1" x1="436.06" y1="309.33" x2="434.38" y2="309.25"/><line class="cls-1" x1="434.38" y1="309.25" x2="434.12" y2="309.25"/><line class="cls-1" x1="434.12" y1="309.25" x2="433.96" y2="309.25"/><line class="cls-1" x1="433.96" y1="309.25" x2="430.6" y2="310.76"/><line class="cls-1" x1="430.6" y1="312.02" x2="430.6" y2="312.02"/><line class="cls-1" x1="430.6" y1="312.02" x2="430.6" y2="312.02"/><line class="cls-1" x1="430.6" y1="312.02" x2="426.31" y2="314.03"/><line class="cls-1" x1="426.31" y1="314.03" x2="426.14" y2="314.03"/><line class="cls-1" x1="426.14" y1="314.03" x2="425.98" y2="314.03"/><line class="cls-1" x1="425.98" y1="314.03" x2="425.72" y2="314.03"/><line class="cls-1" x1="425.72" y1="314.03" x2="423.96" y2="313.95"/><line class="cls-1" x1="423.96" y1="313.95" x2="423.79" y2="313.95"/><line class="cls-1" x1="423.79" y1="313.95" x2="423.62" y2="313.95"/><line class="cls-1" x1="423.62" y1="313.95" x2="419.84" y2="315.63"/><line class="cls-1" x1="419.84" y1="316.89" x2="419.84" y2="316.97"/><line class="cls-1" x1="419.84" y1="316.97" x2="419.76" y2="316.97"/><line class="cls-1" x1="419.76" y1="316.97" x2="415.14" y2="319.07"/><line class="cls-1" x1="415.14" y1="319.07" x2="414.97" y2="319.16"/><line class="cls-1" x1="414.97" y1="319.16" x2="414.8" y2="319.16"/><line class="cls-1" x1="414.8" y1="319.16" x2="414.55" y2="319.16"/><line class="cls-1" x1="414.55" y1="319.16" x2="412.7" y2="319.07"/><line class="cls-1" x1="412.7" y1="319.07" x2="412.54" y2="319.07"/><line class="cls-1" x1="412.54" y1="319.07" x2="412.28" y2="319.07"/><line class="cls-1" x1="412.28" y1="319.07" x2="408.08" y2="321.01"/><line class="cls-1" x1="408.08" y1="322.27" x2="408.08" y2="322.35"/><line class="cls-1" x1="408.08" y1="322.35" x2="408" y2="322.43"/><line class="cls-1" x1="408" y1="322.43" x2="402.96" y2="324.7"/><line class="cls-1" x1="402.96" y1="324.7" x2="402.79" y2="324.7"/><line class="cls-1" x1="402.79" y1="324.7" x2="402.54" y2="324.79"/><line class="cls-1" x1="402.54" y1="324.79" x2="402.29" y2="324.79"/><line class="cls-1" x1="402.29" y1="324.79" x2="400.44" y2="324.62"/><line class="cls-1" x1="400.44" y1="324.62" x2="400.19" y2="324.62"/><line class="cls-1" x1="400.19" y1="324.62" x2="399.94" y2="324.62"/><line class="cls-1" x1="399.94" y1="324.62" x2="395.15" y2="326.8"/><line class="cls-1" x1="395.15" y1="328.15" x2="395.15" y2="328.15"/><line class="cls-1" x1="395.15" y1="328.15" x2="395.15" y2="328.23"/><line class="cls-1" x1="395.15" y1="328.23" x2="395.15" y2="328.31"/><line class="cls-1" x1="395.15" y1="328.31" x2="389.52" y2="330.83"/><line class="cls-1" x1="389.52" y1="330.83" x2="389.35" y2="330.92"/><line class="cls-1" x1="389.35" y1="330.92" x2="389.1" y2="330.92"/><line class="cls-1" x1="389.1" y1="330.92" x2="388.85" y2="330.92"/><line class="cls-1" x1="388.85" y1="330.92" x2="386.83" y2="330.75"/><line class="cls-1" x1="386.83" y1="330.75" x2="386.66" y2="330.75"/><line class="cls-1" x1="386.66" y1="330.75" x2="386.41" y2="330.83"/><line class="cls-1" x1="386.41" y1="330.83" x2="380.95" y2="333.27"/><line class="cls-1" x1="380.95" y1="334.61" x2="380.95" y2="334.61"/><line class="cls-1" x1="380.95" y1="334.61" x2="380.95" y2="334.7"/><line class="cls-1" x1="380.95" y1="334.7" x2="380.87" y2="334.78"/><line class="cls-1" x1="380.87" y1="334.78" x2="374.82" y2="337.64"/><line class="cls-1" x1="374.82" y1="337.64" x2="374.57" y2="337.64"/><line class="cls-1" x1="374.57" y1="337.64" x2="374.32" y2="337.64"/><line class="cls-1" x1="374.32" y1="337.64" x2="374.06" y2="337.64"/><line class="cls-1" x1="374.06" y1="337.64" x2="371.96" y2="337.55"/><line class="cls-1" x1="371.96" y1="337.55" x2="371.71" y2="337.55"/><line class="cls-1" x1="371.71" y1="337.55" x2="371.46" y2="337.55"/><line class="cls-1" x1="371.46" y1="337.55" x2="365.33" y2="340.33"/><line class="cls-1" x1="365.33" y1="341.75" x2="365.33" y2="341.84"/><line class="cls-1" x1="365.33" y1="341.84" x2="365.24" y2="341.92"/><line class="cls-1" x1="365.24" y1="341.92" x2="365.16" y2="342.01"/><line class="cls-1" x1="365.16" y1="342.01" x2="358.36" y2="345.11"/><line class="cls-1" x1="358.36" y1="345.11" x2="358.19" y2="345.2"/><line class="cls-1" x1="358.19" y1="345.2" x2="357.85" y2="345.2"/><line class="cls-1" x1="357.85" y1="345.2" x2="357.6" y2="345.2"/><line class="cls-1" x1="357.6" y1="345.2" x2="355.42" y2="345.03"/><line class="cls-1" x1="355.42" y1="345.03" x2="355.16" y2="345.03"/><line class="cls-1" x1="355.16" y1="345.03" x2="354.91" y2="345.03"/><line class="cls-1" x1="354.91" y1="345.03" x2="347.86" y2="348.22"/><line class="cls-1" x1="347.86" y1="349.73" x2="347.86" y2="349.73"/><line class="cls-1" x1="347.86" y1="349.73" x2="347.86" y2="349.9"/><line class="cls-1" x1="347.86" y1="349.9" x2="347.69" y2="349.99"/><line class="cls-1" x1="347.69" y1="349.99" x2="340.13" y2="353.51"/><line class="cls-1" x1="340.13" y1="353.51" x2="339.88" y2="353.51"/><line class="cls-1" x1="339.88" y1="353.51" x2="339.62" y2="353.6"/><line class="cls-1" x1="339.62" y1="353.6" x2="339.29" y2="353.6"/><line class="cls-1" x1="339.29" y1="353.6" x2="337.02" y2="353.43"/><line class="cls-1" x1="337.02" y1="353.43" x2="336.77" y2="353.35"/><line class="cls-1" x1="336.77" y1="353.35" x2="336.52" y2="353.43"/><line class="cls-1" x1="336.52" y1="353.43" x2="328.37" y2="357.04"/><line class="cls-1" x1="328.37" y1="358.55" x2="328.37" y2="358.64"/><line class="cls-1" x1="328.37" y1="358.64" x2="328.37" y2="358.72"/><line class="cls-1" x1="328.37" y1="358.72" x2="328.28" y2="358.81"/><line class="cls-1" x1="328.28" y1="358.81" x2="328.2" y2="358.97"/><line class="cls-1" x1="328.2" y1="358.97" x2="319.63" y2="362.84"/><line class="cls-1" x1="319.63" y1="362.84" x2="319.38" y2="362.92"/><line class="cls-1" x1="319.38" y1="362.92" x2="319.04" y2="362.92"/><line class="cls-1" x1="319.04" y1="362.92" x2="318.71" y2="362.92"/><line class="cls-1" x1="318.71" y1="362.92" x2="316.36" y2="362.75"/><line class="cls-1" x1="316.36" y1="362.75" x2="316.1" y2="362.75"/><line class="cls-1" x1="316.1" y1="362.75" x2="315.77" y2="362.75"/><line class="cls-1" x1="315.77" y1="362.75" x2="306.44" y2="367.04"/><line class="cls-1" x1="306.44" y1="368.55" x2="306.44" y2="368.63"/><line class="cls-1" x1="306.44" y1="368.63" x2="306.44" y2="368.72"/><line class="cls-1" x1="306.44" y1="368.72" x2="306.36" y2="368.89"/><line class="cls-1" x1="306.36" y1="368.89" x2="306.19" y2="369.05"/><line class="cls-1" x1="306.19" y1="369.05" x2="296.53" y2="373.51"/><line class="cls-1" x1="296.53" y1="373.51" x2="296.2" y2="373.51"/><line class="cls-1" x1="296.2" y1="373.51" x2="295.86" y2="373.59"/><line class="cls-1" x1="295.86" y1="373.59" x2="295.52" y2="373.59"/><line class="cls-1" x1="295.52" y1="373.59" x2="293.09" y2="373.34"/><line class="cls-1" x1="293.09" y1="373.34" x2="292.75" y2="373.34"/><line class="cls-1" x1="292.75" y1="373.34" x2="292.42" y2="373.34"/><line class="cls-1" x1="292.42" y1="373.34" x2="281.83" y2="378.21"/><line class="cls-1" x1="281.83" y1="378.21" x2="281.66" y2="378.29"/><line class="cls-1" x1="281.66" y1="378.29" x2="281.66" y2="378.46"/><line class="cls-1" x1="281.66" y1="378.46" x2="281.58" y2="379.97"/><line class="cls-1" x1="281.58" y1="379.97" x2="281.5" y2="380.14"/><line class="cls-1" x1="281.5" y1="380.14" x2="281.41" y2="380.31"/><line class="cls-1" x1="281.41" y1="380.31" x2="281.24" y2="380.48"/><line class="cls-1" x1="281.24" y1="380.48" x2="270.24" y2="385.52"/><line class="cls-1" x1="270.24" y1="385.52" x2="269.9" y2="385.6"/><line class="cls-1" x1="269.9" y1="385.6" x2="269.48" y2="385.6"/><line class="cls-1" x1="269.48" y1="385.6" x2="269.15" y2="385.6"/><line class="cls-1" x1="269.15" y1="385.6" x2="266.54" y2="385.35"/><line class="cls-1" x1="266.54" y1="385.35" x2="266.12" y2="385.35"/><line class="cls-1" x1="266.12" y1="385.35" x2="265.87" y2="385.43"/><line class="cls-1" x1="265.87" y1="385.43" x2="253.69" y2="390.89"/><line class="cls-1" x1="253.69" y1="390.89" x2="253.52" y2="391.06"/><line class="cls-1" x1="253.52" y1="391.06" x2="253.44" y2="391.31"/><line class="cls-1" x1="253.44" y1="391.31" x2="253.1" y2="392.91"/><line class="cls-1" x1="253.1" y1="392.91" x2="253.02" y2="393.16"/><line class="cls-1" x1="253.02" y1="393.16" x2="252.85" y2="393.41"/><line class="cls-1" x1="252.85" y1="393.41" x2="252.6" y2="393.58"/><line class="cls-1" x1="252.6" y1="393.58" x2="239.75" y2="399.46"/><line class="cls-1" x1="239.75" y1="399.46" x2="239.33" y2="399.55"/><line class="cls-1" x1="239.33" y1="399.55" x2="238.99" y2="399.63"/><line class="cls-1" x1="238.99" y1="399.63" x2="238.57" y2="399.63"/><line class="cls-1" x1="238.57" y1="399.63" x2="236.14" y2="399.38"/><line class="cls-1" x1="236.14" y1="399.38" x2="235.88" y2="399.38"/><line class="cls-1" x1="235.88" y1="399.38" x2="235.63" y2="399.38"/><line class="cls-1" x1="235.63" y1="399.38" x2="235.38" y2="399.46"/><line class="cls-1" x1="235.38" y1="399.46" x2="235.13" y2="399.55"/><line class="cls-1" x1="235.13" y1="399.55" x2="221.77" y2="405.59"/><line class="cls-1" x1="221.77" y1="405.59" x2="221.44" y2="405.26"/><line class="cls-1" x1="221.44" y1="405.26" x2="221.44" y2="75.39"/><line class="cls-1" x1="221.77" y1="405.59" x2="221.77" y2="75.14"/><line class="cls-1" x1="239.75" y1="399.46" x2="239.75" y2="78.83"/><line class="cls-1" x1="252.6" y1="393.58" x2="252.6" y2="82.36"/><line class="cls-1" x1="253.69" y1="390.89" x2="253.69" y2="83.96"/><line class="cls-1" x1="265.87" y1="385.43" x2="265.87" y2="87.23"/><line class="cls-1" x1="270.24" y1="385.52" x2="270.24" y2="87.15"/><line class="cls-1" x1="281.24" y1="380.48" x2="281.24" y2="90.17"/><line class="cls-1" x1="281.83" y1="378.21" x2="281.83" y2="91.6"/><line class="cls-1" x1="292.42" y1="373.34" x2="292.42" y2="94.46"/><line class="cls-1" x1="296.53" y1="373.51" x2="296.53" y2="94.37"/><line class="cls-1" x1="306.19" y1="369.05" x2="306.19" y2="97.06"/><line class="cls-1" x1="306.44" y1="367.04" x2="306.44" y2="98.24"/><line class="cls-1" x1="315.77" y1="362.75" x2="315.77" y2="100.84"/><line class="cls-1" x1="319.63" y1="362.84" x2="319.63" y2="100.76"/><line class="cls-1" x1="328.2" y1="358.97" x2="328.2" y2="103.11"/><line class="cls-1" x1="336.52" y1="353.43" x2="336.52" y2="106.47"/><line class="cls-1" x1="340.13" y1="353.51" x2="340.13" y2="106.39"/><line class="cls-1" x1="347.69" y1="349.99" x2="347.69" y2="108.49"/><line class="cls-1" x1="354.91" y1="345.03" x2="354.91" y2="111.43"/><line class="cls-1" x1="358.36" y1="345.11" x2="358.36" y2="111.43"/><line class="cls-1" x1="365.16" y1="342.01" x2="365.16" y2="113.27"/><line class="cls-1" x1="371.46" y1="337.55" x2="371.46" y2="115.96"/><line class="cls-1" x1="374.82" y1="337.64" x2="374.82" y2="115.88"/><line class="cls-1" x1="380.87" y1="334.78" x2="380.87" y2="117.56"/><line class="cls-1" x1="386.41" y1="330.83" x2="386.41" y2="119.99"/><line class="cls-1" x1="389.52" y1="330.83" x2="389.52" y2="119.99"/><line class="cls-1" x1="395.15" y1="328.31" x2="395.15" y2="121.51"/><line class="cls-1" x1="399.94" y1="324.62" x2="399.94" y2="123.69"/><line class="cls-1" x1="402.96" y1="324.7" x2="402.96" y2="123.69"/><line class="cls-1" x1="408" y1="322.43" x2="408" y2="125.03"/><line class="cls-1" x1="412.28" y1="319.07" x2="412.28" y2="127.05"/><line class="cls-1" x1="415.14" y1="319.07" x2="415.14" y2="127.05"/><line class="cls-1" x1="419.76" y1="316.97" x2="419.76" y2="128.31"/><line class="cls-1" x1="423.62" y1="313.95" x2="423.62" y2="130.07"/><line class="cls-1" x1="426.31" y1="314.03" x2="426.31" y2="130.07"/><line class="cls-1" x1="430.6" y1="312.02" x2="430.6" y2="131.25"/><line class="cls-1" x1="433.96" y1="309.25" x2="433.96" y2="132.93"/><line class="cls-1" x1="436.64" y1="309.33" x2="436.64" y2="132.93"/><line class="cls-1" x1="440.51" y1="307.48" x2="440.51" y2="134.02"/><line class="cls-1" x1="443.53" y1="304.96" x2="443.53" y2="135.53"/><line class="cls-1" x1="446.05" y1="304.96" x2="446.05" y2="135.53"/><line class="cls-1" x1="449.66" y1="303.28" x2="449.66" y2="136.46"/><line class="cls-1" x1="452.35" y1="300.93" x2="452.35" y2="137.89"/><line class="cls-1" x1="454.79" y1="300.93" x2="454.79" y2="137.89"/><line class="cls-1" x1="458.15" y1="299.42" x2="458.15" y2="138.81"/><line class="cls-1" x1="460.5" y1="297.23" x2="460.5" y2="140.15"/><line class="cls-1" x1="462.94" y1="297.23" x2="462.94" y2="140.15"/><line class="cls-1" x1="465.96" y1="295.81" x2="465.96" y2="140.99"/><line class="cls-1" x1="468.14" y1="293.79" x2="468.14" y2="142.25"/><line class="cls-1" x1="470.41" y1="293.79" x2="470.41" y2="142.17"/><line class="cls-1" x1="473.27" y1="292.45" x2="473.27" y2="143.01"/><line class="cls-1" x1="475.2" y1="290.6" x2="475.2" y2="144.19"/><line class="cls-1" x1="477.47" y1="290.6" x2="477.47" y2="144.1"/><line class="cls-1" x1="480.16" y1="289.34" x2="480.16" y2="144.86"/><line class="cls-1" x1="481.84" y1="287.57" x2="481.84" y2="145.95"/><line class="cls-1" x1="484.02" y1="287.57" x2="484.02" y2="145.95"/><line class="cls-1" x1="486.54" y1="286.4" x2="486.54" y2="146.62"/><line class="cls-1" x1="488.14" y1="284.72" x2="488.14" y2="147.63"/><line class="cls-1" x1="235.13" y1="399.55" x2="235.13" y2="78.75"/></g><g id="Dimensions"><line class="cls-2" x1="244.28" y1="426.17" x2="488.98" y2="309.08"/><line class="cls-3" x1="485.45" y1="310.76" x2="488.98" y2="312.52"/><line class="cls-3" x1="485.45" y1="310.76" x2="481.84" y2="308.83"/><line class="cls-2" x1="485.45" y1="314.03" x2="485.45" y2="294.21"/><line class="cls-3" x1="247.39" y1="424.66" x2="250.92" y2="426.51"/><line class="cls-3" x1="247.39" y1="424.66" x2="243.86" y2="422.81"/><line class="cls-2" x1="247.39" y1="428.02" x2="247.39" y2="408.2"/><line class="cls-2" x1="190.86" y1="416.6" x2="198.5" y2="424.24"/><line class="cls-3" x1="196.24" y1="421.97" x2="195.56" y2="425.84"/><line class="cls-3" x1="196.24" y1="421.97" x2="196.91" y2="418.03"/><line class="cls-3" x1="192.46" y1="418.19" x2="191.78" y2="422.14"/><line class="cls-3" x1="192.46" y1="418.19" x2="193.21" y2="414.33"/><line class="cls-2" x1="194.14" y1="422.9" x2="212.03" y2="414.33"/><line class="cls-2" x1="190.44" y1="419.12" x2="208.33" y2="410.55"/><path d="M162.63,431.46v-2.74h-4.07v-1.29l4.28-7.42h.94v7.42h1.28v1.29h-1.28v2.74Zm0-4v-5.16l-2.94,5.16Z"/><path d="M166.56,431.46v-8.3h1v1.16a2.6,2.6,0,0,1,.89-1,2,2,0,0,1,1.17-.35,1.87,1.87,0,0,1,1.92,1.44,3.16,3.16,0,0,1,.94-1.08,2,2,0,0,1,1.17-.36,2,2,0,0,1,1.55.66,3.29,3.29,0,0,1,.56,2.13v5.69h-1.15v-5.23a4.07,4.07,0,0,0-.13-1.26,1.09,1.09,0,0,0-.42-.58,1.14,1.14,0,0,0-.65-.2,1.48,1.48,0,0,0-1.22.59,3,3,0,0,0-.47,1.86v4.82H170.6v-5.4a2.52,2.52,0,0,0-.31-1.45,1,1,0,0,0-.87-.42,1.44,1.44,0,0,0-1.25.64,4.16,4.16,0,0,0-.46,2.32v4.31Z"/><path d="M177.49,431.46v-8.3h1v1.16a2.6,2.6,0,0,1,.89-1,2,2,0,0,1,1.17-.35,1.87,1.87,0,0,1,1.92,1.44,3.16,3.16,0,0,1,.94-1.08,2,2,0,0,1,1.17-.36,2,2,0,0,1,1.55.66,3.29,3.29,0,0,1,.56,2.13v5.69h-1.15v-5.23a4.07,4.07,0,0,0-.13-1.26,1.09,1.09,0,0,0-.42-.58,1.14,1.14,0,0,0-.65-.2,1.48,1.48,0,0,0-1.22.59,3,3,0,0,0-.47,1.86v4.82h-1.15v-5.4a2.52,2.52,0,0,0-.31-1.45,1.06,1.06,0,0,0-.88-.42,1.43,1.43,0,0,0-1.24.64,4.16,4.16,0,0,0-.46,2.32v4.31Z"/><path d="M356.85,388.12,358,388c.18,1.21.7,1.82,1.56,1.82a1.6,1.6,0,0,0,1.05-.4,3,3,0,0,0,.81-1.4,7.9,7.9,0,0,0,.32-2.35v-.28a2.88,2.88,0,0,1-1,1.1,2.2,2.2,0,0,1-1.24.4,2.51,2.51,0,0,1-2-1,4.22,4.22,0,0,1-.83-2.75,4.33,4.33,0,0,1,.86-2.83,2.64,2.64,0,0,1,3.73-.46,3.72,3.72,0,0,1,1.18,1.71,10,10,0,0,1,.41,3.24,11.69,11.69,0,0,1-.45,3.66,4,4,0,0,1-1.2,1.91,2.7,2.7,0,0,1-1.71.6,2.41,2.41,0,0,1-1.79-.73A3.44,3.44,0,0,1,356.85,388.12Zm4.73-5.06a3,3,0,0,0-.55-1.93,1.6,1.6,0,0,0-1.26-.71,1.67,1.67,0,0,0-1.33.75,3.18,3.18,0,0,0-.58,2,2.65,2.65,0,0,0,.56,1.79,1.66,1.66,0,0,0,1.33.67,1.61,1.61,0,0,0,1.3-.67A3.06,3.06,0,0,0,361.58,383.06Z"/><path d="M364,385.12a9.83,9.83,0,0,1,.77-4.37,2.48,2.48,0,0,1,2.3-1.48,2.39,2.39,0,0,1,2.11,1.2,8.79,8.79,0,0,1,.94,4.65,9.76,9.76,0,0,1-.77,4.35A2.46,2.46,0,0,1,367,391a2.56,2.56,0,0,1-2.2-1.31A8.79,8.79,0,0,1,364,385.12Zm1.18,0a8.67,8.67,0,0,0,.53,3.75,1.59,1.59,0,0,0,1.38.95,1.55,1.55,0,0,0,1.32-1,13.43,13.43,0,0,0,0-7.47,1.6,1.6,0,0,0-1.39-.95,1.54,1.54,0,0,0-1.32,1A8.89,8.89,0,0,0,365.16,385.11Z"/><path d="M371.27,385.12a9.67,9.67,0,0,1,.78-4.37,2.46,2.46,0,0,1,2.29-1.48,2.39,2.39,0,0,1,2.12,1.2,8.79,8.79,0,0,1,.94,4.65,9.76,9.76,0,0,1-.77,4.35,2.47,2.47,0,0,1-2.3,1.49,2.55,2.55,0,0,1-2.2-1.31A8.77,8.77,0,0,1,371.27,385.12Zm1.18,0a8.63,8.63,0,0,0,.54,3.75,1.58,1.58,0,0,0,1.37.95,1.55,1.55,0,0,0,1.33-1,8.78,8.78,0,0,0,.53-3.73,8.58,8.58,0,0,0-.54-3.74,1.58,1.58,0,0,0-1.39-.95,1.53,1.53,0,0,0-1.31,1A8.85,8.85,0,0,0,372.45,385.11Z"/><path d="M378.91,390.77v-8.3h1v1.16a2.69,2.69,0,0,1,.88-1,2.15,2.15,0,0,1,1.18-.35,2,2,0,0,1,1.21.37,2.1,2.1,0,0,1,.71,1.08,3.19,3.19,0,0,1,.93-1.09,2.07,2.07,0,0,1,1.17-.36,1.91,1.91,0,0,1,1.55.67,3.28,3.28,0,0,1,.56,2.12v5.7H387v-5.24a4.16,4.16,0,0,0-.13-1.26,1,1,0,0,0-.42-.57,1.07,1.07,0,0,0-.65-.21,1.52,1.52,0,0,0-1.22.59,3,3,0,0,0-.47,1.86v4.83H383v-5.4a2.48,2.48,0,0,0-.32-1.45,1,1,0,0,0-.87-.43,1.48,1.48,0,0,0-1.25.64,4.29,4.29,0,0,0-.46,2.33v4.31Z"/><path d="M389.84,390.77v-8.3h1v1.16a2.69,2.69,0,0,1,.88-1,2.15,2.15,0,0,1,1.18-.35,1.86,1.86,0,0,1,1.91,1.45,3.32,3.32,0,0,1,.94-1.09,2,2,0,0,1,1.17-.36,1.91,1.91,0,0,1,1.55.67,3.28,3.28,0,0,1,.56,2.12v5.7h-1.15v-5.24a4.16,4.16,0,0,0-.13-1.26,1,1,0,0,0-.42-.57,1.07,1.07,0,0,0-.65-.21,1.51,1.51,0,0,0-1.22.59,3,3,0,0,0-.47,1.86v4.83h-1.14v-5.4a2.48,2.48,0,0,0-.32-1.45,1,1,0,0,0-.87-.43,1.48,1.48,0,0,0-1.25.64,4.29,4.29,0,0,0-.46,2.33v4.31Z"/><path d="M406.62,394.13a16,16,0,0,1-1.57-3.31,12.36,12.36,0,0,1-.71-4.21,14.12,14.12,0,0,1,2.28-7.49h.83a24.1,24.1,0,0,0-1.21,2.85,14.47,14.47,0,0,0-.53,2.22,16.6,16.6,0,0,0-.19,2.44,16.22,16.22,0,0,0,1.93,7.5Z"/><path d="M411.65,388.74v-3.15h-3.12v-1.32h3.12v-3.11H413v3.11h3.11v1.32H413v3.15Zm4.44,2h-7.56v-1.32h7.56Z"/><path d="M420.92,390.77V388h-4.07v-1.28l4.28-7.43h.95v7.43h1.27V388h-1.27v2.75Zm0-4v-5.17L418,386.74Z"/><path d="M424.86,390.77v-8.3h1v1.16a2.69,2.69,0,0,1,.88-1,2.15,2.15,0,0,1,1.18-.35,2,2,0,0,1,1.21.37,2,2,0,0,1,.71,1.08,3.1,3.1,0,0,1,.94-1.09,2,2,0,0,1,1.17-.36,1.89,1.89,0,0,1,1.54.67,3.22,3.22,0,0,1,.57,2.12v5.7h-1.15v-5.24a4.52,4.52,0,0,0-.13-1.26,1.13,1.13,0,0,0-.42-.57,1.1,1.1,0,0,0-.65-.21,1.49,1.49,0,0,0-1.22.59,3,3,0,0,0-.47,1.86v4.83H428.9v-5.4a2.48,2.48,0,0,0-.32-1.45,1,1,0,0,0-.87-.43,1.48,1.48,0,0,0-1.25.64,4.31,4.31,0,0,0-.45,2.33v4.31Z"/><path d="M435.79,390.77v-8.3h1v1.16a2.69,2.69,0,0,1,.88-1,2.15,2.15,0,0,1,1.18-.35,2,2,0,0,1,1.21.37,2,2,0,0,1,.71,1.08,3.19,3.19,0,0,1,.93-1.09,2.08,2.08,0,0,1,1.18-.36,1.9,1.9,0,0,1,1.54.67,3.22,3.22,0,0,1,.57,2.12v5.7h-1.15v-5.24a4.52,4.52,0,0,0-.13-1.26,1.13,1.13,0,0,0-.42-.57,1.1,1.1,0,0,0-.65-.21,1.49,1.49,0,0,0-1.22.59,3,3,0,0,0-.47,1.86v4.83h-1.15v-5.4a2.48,2.48,0,0,0-.32-1.45,1,1,0,0,0-.87-.43,1.48,1.48,0,0,0-1.25.64,4.31,4.31,0,0,0-.45,2.33v4.31Z"/><path d="M447.16,394.13h-.82a16.44,16.44,0,0,0,1.91-7.5,15.34,15.34,0,0,0-.19-2.44,14.5,14.5,0,0,0-.52-2.22,25.48,25.48,0,0,0-1.2-2.85h.82a14.19,14.19,0,0,1,2.27,7.49,12.61,12.61,0,0,1-.68,4.14A15.4,15.4,0,0,1,447.16,394.13Z"/><path d="M461.55,386.75l1.25.38a5.23,5.23,0,0,1-1.44,2.88,3.56,3.56,0,0,1-2.52.95,3.85,3.85,0,0,1-2.23-.63,4.51,4.51,0,0,1-1.52-2.05,8.6,8.6,0,0,1-.59-3.32,7.82,7.82,0,0,1,.59-3.2,4.45,4.45,0,0,1,1.6-2,3.94,3.94,0,0,1,2.25-.67,3.42,3.42,0,0,1,2.34.85,4.57,4.57,0,0,1,1.37,2.48l-1.22.35c-.42-1.59-1.25-2.38-2.51-2.38a2.78,2.78,0,0,0-1.63.48,3.27,3.27,0,0,0-1.1,1.5,7,7,0,0,0-.41,2.57,6.17,6.17,0,0,0,.83,3.53,2.58,2.58,0,0,0,2.2,1.18,2.46,2.46,0,0,0,1.76-.73A3.85,3.85,0,0,0,461.55,386.75Z"/><path d="M463.76,386.62a5,5,0,0,1,.9-3.24,2.91,2.91,0,0,1,4.56,0,4.79,4.79,0,0,1,.91,3.15,5.17,5.17,0,0,1-.9,3.33,2.93,2.93,0,0,1-4.56,0A5,5,0,0,1,463.76,386.62Zm1.18,0a4,4,0,0,0,.58,2.4,1.75,1.75,0,0,0,1.46.79,1.7,1.7,0,0,0,1.39-.8,5.21,5.21,0,0,0,0-4.78,1.77,1.77,0,0,0-1.46-.78,1.67,1.67,0,0,0-1.39.79A4,4,0,0,0,464.94,386.61Z"/><path d="M473.39,390.77l-2.59-8.3H472l1.47,5c.16.56.31,1.12.44,1.67.09-.44.24-1,.42-1.58l1.52-5.06h1.18l-2.58,8.3Z"/><path d="M482.7,388.09l1.19.18a3.67,3.67,0,0,1-1.07,2,2.84,2.84,0,0,1-1.93.67,2.88,2.88,0,0,1-2.34-1.09,4.89,4.89,0,0,1-.89-3.17,5.17,5.17,0,0,1,.9-3.28,2.8,2.8,0,0,1,2.28-1.13,2.72,2.72,0,0,1,2.21,1.11,5.05,5.05,0,0,1,.88,3.21V387h-5.08a3.67,3.67,0,0,0,.65,2.11,1.78,1.78,0,0,0,1.41.71Q482.19,389.8,482.7,388.09Zm-3.79-2.27h3.8a3.21,3.21,0,0,0-.46-1.61,1.68,1.68,0,0,0-1.41-.77,1.66,1.66,0,0,0-1.32.64A2.82,2.82,0,0,0,478.91,385.82Z"/><path d="M485.35,390.77v-8.3h1v1.26a3.56,3.56,0,0,1,.73-1.16,1.12,1.12,0,0,1,.75-.29,1.94,1.94,0,0,1,1.18.46l-.39,1.3a1.49,1.49,0,0,0-.84-.3,1,1,0,0,0-.67.25,1.41,1.41,0,0,0-.43.72,6.36,6.36,0,0,0-.22,1.71v4.35Z"/></g></svg>