<svg xmlns="http://www.w3.org/2000/svg" viewBox="0 0 700 500"><defs><style>.cls-1,.cls-2,.cls-3{fill:none;stroke:#000;stroke-linecap:round;stroke-linejoin:round;}.cls-1{stroke-width:0.6px;}.cls-2{stroke-width:0.5px;}.cls-3{stroke-width:0.96px;}</style></defs><title>Wall Cladding-K Panel-Dimensioned</title><g id="Image"><line class="cls-1" x1="347.83" y1="109.88" x2="347.83" y2="354.32"/><line class="cls-1" x1="412.09" y1="127.85" x2="412.09" y2="324.33"/><line class="cls-1" x1="455.18" y1="139.95" x2="455.18" y2="304.17"/><line class="cls-1" x1="218.89" y1="77.62" x2="219.31" y2="77.45"/><line class="cls-1" x1="219.31" y1="77.45" x2="221.66" y2="78.38"/><line class="cls-1" x1="221.66" y1="78.38" x2="222.17" y2="78.55"/><line class="cls-1" x1="222.17" y1="78.55" x2="222.84" y2="78.63"/><line class="cls-1" x1="222.84" y1="78.63" x2="223.51" y2="78.63"/><line class="cls-1" x1="223.51" y1="78.63" x2="224.18" y2="78.63"/><line class="cls-1" x1="224.18" y1="78.63" x2="232.84" y2="77.79"/><line class="cls-1" x1="232.84" y1="77.79" x2="233.34" y2="77.71"/><line class="cls-1" x1="233.34" y1="77.71" x2="233.76" y2="77.79"/><line class="cls-1" x1="233.76" y1="77.79" x2="234.26" y2="77.87"/><line class="cls-1" x1="234.26" y1="77.87" x2="241.57" y2="79.89"/><line class="cls-1" x1="241.57" y1="79.89" x2="241.91" y2="80.06"/><line class="cls-1" x1="241.91" y1="80.06" x2="242.08" y2="80.23"/><line class="cls-1" x1="242.08" y1="80.23" x2="242.16" y2="80.39"/><line class="cls-1" x1="242.16" y1="80.39" x2="242.66" y2="83.75"/><line class="cls-1" x1="242.66" y1="83.75" x2="242.75" y2="84.01"/><line class="cls-1" x1="242.75" y1="84.01" x2="243.08" y2="84.26"/><line class="cls-1" x1="243.08" y1="84.26" x2="243.5" y2="84.43"/><line class="cls-1" x1="243.5" y1="84.43" x2="266.02" y2="90.56"/><line class="cls-1" x1="266.02" y1="90.56" x2="267.61" y2="90.47"/><line class="cls-1" x1="267.61" y1="90.47" x2="283.99" y2="94.93"/><line class="cls-1" x1="283.99" y1="94.93" x2="283.99" y2="95.43"/><line class="cls-1" x1="283.99" y1="95.43" x2="303.23" y2="100.64"/><line class="cls-1" x1="303.23" y1="100.64" x2="304.66" y2="100.55"/><line class="cls-1" x1="304.66" y1="100.55" x2="318.26" y2="104.33"/><line class="cls-1" x1="318.26" y1="104.75" x2="333.47" y2="108.87"/><line class="cls-1" x1="333.47" y1="108.87" x2="333.8" y2="108.95"/><line class="cls-1" x1="333.8" y1="108.95" x2="334.22" y2="109.04"/><line class="cls-1" x1="334.22" y1="109.04" x2="334.73" y2="109.04"/><line class="cls-1" x1="334.73" y1="109.04" x2="335.23" y2="109.04"/><line class="cls-1" x1="335.23" y1="109.04" x2="342.54" y2="108.53"/><line class="cls-1" x1="342.54" y1="108.53" x2="342.88" y2="108.53"/><line class="cls-1" x1="342.88" y1="108.53" x2="343.21" y2="108.53"/><line class="cls-1" x1="343.21" y1="108.53" x2="343.55" y2="108.53"/><line class="cls-1" x1="343.55" y1="108.53" x2="347.66" y2="109.71"/><line class="cls-1" x1="347.66" y1="109.71" x2="347.83" y2="109.79"/><line class="cls-1" x1="347.83" y1="109.79" x2="347.83" y2="109.88"/><line class="cls-1" x1="347.83" y1="109.88" x2="347.83" y2="109.88"/><line class="cls-1" x1="347.83" y1="112.82" x2="359.34" y2="115.93"/><line class="cls-1" x1="359.34" y1="115.93" x2="360.6" y2="115.84"/><line class="cls-1" x1="360.6" y1="115.84" x2="370.51" y2="118.53"/><line class="cls-1" x1="370.51" y1="118.95" x2="381.94" y2="122.06"/><line class="cls-1" x1="381.94" y1="122.06" x2="383.11" y2="122.06"/><line class="cls-1" x1="383.11" y1="122.06" x2="391.68" y2="124.33"/><line class="cls-1" x1="391.68" y1="124.66" x2="401.09" y2="127.27"/><line class="cls-1" x1="401.09" y1="127.27" x2="401.34" y2="127.35"/><line class="cls-1" x1="401.34" y1="127.35" x2="401.59" y2="127.35"/><line class="cls-1" x1="401.59" y1="127.35" x2="402.01" y2="127.35"/><line class="cls-1" x1="402.01" y1="127.35" x2="402.43" y2="127.35"/><line class="cls-1" x1="402.43" y1="127.35" x2="408.56" y2="127.01"/><line class="cls-1" x1="408.56" y1="127.01" x2="408.82" y2="127.01"/><line class="cls-1" x1="408.82" y1="127.01" x2="409.15" y2="127.01"/><line class="cls-1" x1="409.15" y1="127.01" x2="409.32" y2="127.01"/><line class="cls-1" x1="409.32" y1="127.01" x2="412.01" y2="127.77"/><line class="cls-1" x1="412.01" y1="127.77" x2="412.09" y2="127.85"/><line class="cls-1" x1="412.09" y1="127.85" x2="412.09" y2="127.85"/><line class="cls-1" x1="412.09" y1="130.29" x2="417.97" y2="131.89"/><line class="cls-1" x1="417.97" y1="131.89" x2="419.06" y2="131.8"/><line class="cls-1" x1="419.06" y1="131.8" x2="425.62" y2="133.65"/><line class="cls-1" x1="425.62" y1="133.9" x2="433.18" y2="136"/><line class="cls-1" x1="433.18" y1="136" x2="434.1" y2="135.92"/><line class="cls-1" x1="434.1" y1="135.92" x2="439.98" y2="137.51"/><line class="cls-1" x1="439.98" y1="137.85" x2="446.28" y2="139.53"/><line class="cls-1" x1="446.28" y1="139.53" x2="446.45" y2="139.61"/><line class="cls-1" x1="446.45" y1="139.61" x2="446.7" y2="139.61"/><line class="cls-1" x1="446.7" y1="139.61" x2="447.04" y2="139.61"/><line class="cls-1" x1="447.04" y1="139.61" x2="447.37" y2="139.61"/><line class="cls-1" x1="447.37" y1="139.61" x2="452.66" y2="139.36"/><line class="cls-1" x1="452.66" y1="139.36" x2="452.92" y2="139.36"/><line class="cls-1" x1="452.92" y1="139.36" x2="453.17" y2="139.36"/><line class="cls-1" x1="453.17" y1="139.36" x2="453.34" y2="139.45"/><line class="cls-1" x1="453.34" y1="139.45" x2="455.18" y2="139.95"/><line class="cls-1" x1="455.18" y1="139.95" x2="455.18" y2="139.95"/><line class="cls-1" x1="455.18" y1="139.95" x2="455.18" y2="139.95"/><line class="cls-1" x1="455.18" y1="141.97" x2="458.21" y2="142.81"/><line class="cls-1" x1="458.21" y1="142.81" x2="459.13" y2="142.72"/><line class="cls-1" x1="459.13" y1="142.72" x2="463.75" y2="144.07"/><line class="cls-1" x1="463.75" y1="144.32" x2="469.04" y2="145.75"/><line class="cls-1" x1="469.04" y1="145.75" x2="469.97" y2="145.75"/><line class="cls-1" x1="469.97" y1="145.75" x2="474.17" y2="146.84"/><line class="cls-1" x1="474.17" y1="147.09" x2="478.7" y2="148.35"/><line class="cls-1" x1="478.7" y1="148.35" x2="478.79" y2="148.35"/><line class="cls-1" x1="478.79" y1="148.35" x2="479.04" y2="148.35"/><line class="cls-1" x1="479.04" y1="148.35" x2="479.29" y2="148.43"/><line class="cls-1" x1="479.29" y1="148.43" x2="479.63" y2="148.35"/><line class="cls-1" x1="479.63" y1="148.35" x2="484.16" y2="148.27"/><line class="cls-1" x1="484.16" y1="148.27" x2="484.42" y2="148.18"/><line class="cls-1" x1="484.42" y1="148.18" x2="484.58" y2="148.27"/><line class="cls-1" x1="484.58" y1="148.27" x2="484.75" y2="148.27"/><line class="cls-1" x1="484.75" y1="148.27" x2="486.1" y2="148.6"/><line class="cls-1" x1="486.1" y1="289.72" x2="484.75" y2="290.39"/><line class="cls-1" x1="484.75" y1="290.39" x2="484.58" y2="290.39"/><line class="cls-1" x1="484.58" y1="290.39" x2="484.42" y2="290.39"/><line class="cls-1" x1="484.42" y1="290.39" x2="484.16" y2="290.39"/><line class="cls-1" x1="484.16" y1="290.39" x2="479.63" y2="290.14"/><line class="cls-1" x1="479.63" y1="290.14" x2="479.29" y2="290.14"/><line class="cls-1" x1="479.29" y1="290.14" x2="479.04" y2="290.14"/><line class="cls-1" x1="479.04" y1="290.14" x2="478.79" y2="290.14"/><line class="cls-1" x1="478.79" y1="290.14" x2="478.7" y2="290.14"/><line class="cls-1" x1="478.7" y1="290.14" x2="474.17" y2="292.24"/><line class="cls-1" x1="474.17" y1="292.66" x2="469.97" y2="294.59"/><line class="cls-1" x1="469.97" y1="294.59" x2="469.04" y2="294.51"/><line class="cls-1" x1="469.04" y1="294.51" x2="463.75" y2="296.95"/><line class="cls-1" x1="463.75" y1="297.37" x2="459.13" y2="299.47"/><line class="cls-1" x1="459.13" y1="299.47" x2="458.21" y2="299.47"/><line class="cls-1" x1="458.21" y1="299.47" x2="455.18" y2="300.81"/><line class="cls-1" x1="455.18" y1="304.17" x2="455.18" y2="304.17"/><line class="cls-1" x1="455.18" y1="304.17" x2="455.18" y2="304.25"/><line class="cls-1" x1="455.18" y1="304.25" x2="453.34" y2="305.09"/><line class="cls-1" x1="453.34" y1="305.09" x2="453.17" y2="305.09"/><line class="cls-1" x1="453.17" y1="305.09" x2="452.92" y2="305.09"/><line class="cls-1" x1="452.92" y1="305.09" x2="452.66" y2="305.09"/><line class="cls-1" x1="452.66" y1="305.09" x2="447.37" y2="304.76"/><line class="cls-1" x1="447.37" y1="304.76" x2="447.04" y2="304.76"/><line class="cls-1" x1="447.04" y1="304.76" x2="446.7" y2="304.76"/><line class="cls-1" x1="446.7" y1="304.76" x2="446.45" y2="304.76"/><line class="cls-1" x1="446.45" y1="304.76" x2="446.28" y2="304.84"/><line class="cls-1" x1="446.28" y1="304.84" x2="439.98" y2="307.7"/><line class="cls-1" x1="439.98" y1="308.2" x2="434.1" y2="310.89"/><line class="cls-1" x1="434.1" y1="310.89" x2="433.18" y2="310.81"/><line class="cls-1" x1="433.18" y1="310.81" x2="425.62" y2="314.25"/><line class="cls-1" x1="425.62" y1="314.75" x2="419.06" y2="317.69"/><line class="cls-1" x1="419.06" y1="317.69" x2="417.97" y2="317.69"/><line class="cls-1" x1="417.97" y1="317.69" x2="412.09" y2="320.38"/><line class="cls-1" x1="412.09" y1="324.33" x2="412.09" y2="324.33"/><line class="cls-1" x1="412.09" y1="324.33" x2="412.01" y2="324.41"/><line class="cls-1" x1="412.01" y1="324.41" x2="409.32" y2="325.67"/><line class="cls-1" x1="409.32" y1="325.67" x2="409.15" y2="325.76"/><line class="cls-1" x1="409.15" y1="325.76" x2="408.82" y2="325.76"/><line class="cls-1" x1="408.82" y1="325.76" x2="408.56" y2="325.76"/><line class="cls-1" x1="408.56" y1="325.76" x2="402.43" y2="325.25"/><line class="cls-1" x1="402.43" y1="325.25" x2="402.01" y2="325.17"/><line class="cls-1" x1="402.01" y1="325.17" x2="401.59" y2="325.17"/><line class="cls-1" x1="401.59" y1="325.17" x2="401.34" y2="325.25"/><line class="cls-1" x1="401.34" y1="325.25" x2="401.09" y2="325.34"/><line class="cls-1" x1="401.09" y1="325.34" x2="391.68" y2="329.62"/><line class="cls-1" x1="391.68" y1="330.21" x2="383.11" y2="334.07"/><line class="cls-1" x1="383.11" y1="334.07" x2="381.94" y2="333.99"/><line class="cls-1" x1="381.94" y1="333.99" x2="370.51" y2="339.2"/><line class="cls-1" x1="370.51" y1="339.79" x2="360.6" y2="344.32"/><line class="cls-1" x1="360.6" y1="344.32" x2="359.34" y2="344.24"/><line class="cls-1" x1="359.34" y1="344.24" x2="347.83" y2="349.45"/><line class="cls-1" x1="347.83" y1="354.23" x2="347.83" y2="354.32"/><line class="cls-1" x1="347.83" y1="354.32" x2="347.83" y2="354.4"/><line class="cls-1" x1="347.83" y1="354.4" x2="347.66" y2="354.57"/><line class="cls-1" x1="347.66" y1="354.57" x2="343.55" y2="356.5"/><line class="cls-1" x1="343.55" y1="356.5" x2="343.21" y2="356.59"/><line class="cls-1" x1="343.21" y1="356.59" x2="342.88" y2="356.59"/><line class="cls-1" x1="342.88" y1="356.59" x2="342.54" y2="356.59"/><line class="cls-1" x1="342.54" y1="356.59" x2="335.23" y2="355.75"/><line class="cls-1" x1="335.23" y1="355.75" x2="334.73" y2="355.75"/><line class="cls-1" x1="334.73" y1="355.75" x2="334.22" y2="355.75"/><line class="cls-1" x1="334.22" y1="355.75" x2="333.8" y2="355.83"/><line class="cls-1" x1="333.8" y1="355.83" x2="333.47" y2="355.91"/><line class="cls-1" x1="333.47" y1="355.91" x2="318.26" y2="362.89"/><line class="cls-1" x1="318.26" y1="363.56" x2="304.66" y2="369.77"/><line class="cls-1" x1="304.66" y1="369.77" x2="303.23" y2="369.69"/><line class="cls-1" x1="303.23" y1="369.69" x2="283.99" y2="378.34"/><line class="cls-1" x1="283.99" y1="378.34" x2="283.99" y2="379.18"/><line class="cls-1" x1="283.99" y1="379.18" x2="267.61" y2="386.66"/><line class="cls-1" x1="267.61" y1="386.66" x2="266.02" y2="386.49"/><line class="cls-1" x1="266.02" y1="386.49" x2="243.5" y2="396.74"/><line class="cls-1" x1="243.5" y1="396.74" x2="243.08" y2="397.07"/><line class="cls-1" x1="243.08" y1="397.07" x2="242.75" y2="397.41"/><line class="cls-1" x1="242.75" y1="397.41" x2="242.66" y2="397.83"/><line class="cls-1" x1="242.66" y1="397.83" x2="242.16" y2="403.46"/><line class="cls-1" x1="242.16" y1="403.46" x2="242.08" y2="403.79"/><line class="cls-1" x1="242.08" y1="403.79" x2="241.91" y2="404.05"/><line class="cls-1" x1="241.91" y1="404.05" x2="241.57" y2="404.21"/><line class="cls-1" x1="241.57" y1="404.21" x2="234.26" y2="407.74"/><line class="cls-1" x1="234.26" y1="407.74" x2="233.76" y2="407.83"/><line class="cls-1" x1="233.76" y1="407.83" x2="233.34" y2="407.83"/><line class="cls-1" x1="233.34" y1="407.83" x2="232.84" y2="407.83"/><line class="cls-1" x1="232.84" y1="407.83" x2="224.18" y2="406.4"/><line class="cls-1" x1="224.18" y1="406.4" x2="223.51" y2="406.4"/><line class="cls-1" x1="223.51" y1="406.4" x2="222.84" y2="406.4"/><line class="cls-1" x1="222.84" y1="406.4" x2="222.17" y2="406.57"/><line class="cls-1" x1="222.17" y1="406.57" x2="221.66" y2="406.82"/><line class="cls-1" x1="221.66" y1="406.82" x2="219.31" y2="408.33"/><line class="cls-1" x1="219.31" y1="408.33" x2="218.89" y2="407.99"/><line class="cls-1" x1="218.89" y1="407.99" x2="218.89" y2="77.62"/><line class="cls-1" x1="219.31" y1="408.33" x2="219.31" y2="77.45"/><line class="cls-1" x1="234.26" y1="407.74" x2="234.26" y2="77.87"/><line class="cls-1" x1="241.57" y1="404.21" x2="241.57" y2="79.89"/><line class="cls-1" x1="243.5" y1="84.43" x2="243.5" y2="396.74"/><line class="cls-1" x1="266.02" y1="386.49" x2="266.02" y2="90.56"/><line class="cls-1" x1="267.61" y1="386.66" x2="267.61" y2="90.47"/><line class="cls-1" x1="283.99" y1="379.18" x2="283.99" y2="94.93"/><line class="cls-1" x1="283.99" y1="378.34" x2="283.99" y2="95.43"/><line class="cls-1" x1="303.23" y1="369.69" x2="303.23" y2="100.64"/><line class="cls-1" x1="304.66" y1="369.77" x2="304.66" y2="100.55"/><line class="cls-1" x1="318.26" y1="363.56" x2="318.26" y2="104.33"/><line class="cls-1" x1="333.47" y1="355.91" x2="333.47" y2="108.87"/><line class="cls-1" x1="343.55" y1="356.5" x2="343.55" y2="108.53"/><line class="cls-1" x1="347.66" y1="354.57" x2="347.66" y2="109.71"/><line class="cls-1" x1="359.34" y1="344.24" x2="359.34" y2="115.93"/><line class="cls-1" x1="360.6" y1="344.32" x2="360.6" y2="115.84"/><line class="cls-1" x1="370.51" y1="339.79" x2="370.51" y2="118.53"/><line class="cls-1" x1="381.94" y1="333.99" x2="381.94" y2="122.06"/><line class="cls-1" x1="383.11" y1="334.07" x2="383.11" y2="122.06"/><line class="cls-1" x1="391.68" y1="330.21" x2="391.68" y2="124.33"/><line class="cls-1" x1="401.09" y1="325.34" x2="401.09" y2="127.27"/><line class="cls-1" x1="409.32" y1="325.67" x2="409.32" y2="127.01"/><line class="cls-1" x1="412.01" y1="324.41" x2="412.01" y2="127.77"/><line class="cls-1" x1="417.97" y1="317.69" x2="417.97" y2="131.89"/><line class="cls-1" x1="419.06" y1="317.69" x2="419.06" y2="131.8"/><line class="cls-1" x1="425.62" y1="314.75" x2="425.62" y2="133.65"/><line class="cls-1" x1="433.18" y1="310.81" x2="433.18" y2="136"/><line class="cls-1" x1="434.1" y1="310.89" x2="434.1" y2="135.92"/><line class="cls-1" x1="439.98" y1="308.2" x2="439.98" y2="137.51"/><line class="cls-1" x1="446.28" y1="304.84" x2="446.28" y2="139.53"/><line class="cls-1" x1="453.34" y1="305.09" x2="453.34" y2="139.45"/><line class="cls-1" x1="455.18" y1="304.25" x2="455.18" y2="139.95"/><line class="cls-1" x1="458.21" y1="299.47" x2="458.21" y2="142.81"/><line class="cls-1" x1="459.13" y1="299.47" x2="459.13" y2="142.72"/><line class="cls-1" x1="463.75" y1="297.37" x2="463.75" y2="144.07"/><line class="cls-1" x1="469.04" y1="294.51" x2="469.04" y2="145.75"/><line class="cls-1" x1="469.97" y1="294.59" x2="469.97" y2="145.75"/><line class="cls-1" x1="474.17" y1="292.66" x2="474.17" y2="146.84"/><line class="cls-1" x1="478.7" y1="290.14" x2="478.7" y2="148.35"/><line class="cls-1" x1="484.75" y1="290.39" x2="484.75" y2="148.27"/><line class="cls-1" x1="486.1" y1="289.72" x2="486.1" y2="148.6"/><line class="cls-1" x1="221.66" y1="406.82" x2="221.66" y2="78.38"/></g><g id="Dimensions"><path d="M153.61,433.72h-1.16v-9a5.42,5.42,0,0,1-1.07,1,7.14,7.14,0,0,1-1.23.74V425.1a7,7,0,0,0,1.68-1.34,5,5,0,0,0,1-1.54h.75Z"/><path d="M162.64,432.37v1.35h-6.21a3.87,3.87,0,0,1,.49-1.83,10.18,10.18,0,0,1,1.91-2.4,14.19,14.19,0,0,0,2.11-2.49,3.28,3.28,0,0,0,.5-1.64,2,2,0,0,0-.51-1.43,1.74,1.74,0,0,0-2.58.05,2.53,2.53,0,0,0-.52,1.71l-1.18-.15a3.83,3.83,0,0,1,.93-2.48,2.82,2.82,0,0,1,2.13-.84,2.57,2.57,0,0,1,2.17,1,3.5,3.5,0,0,1,.74,2.2,4.11,4.11,0,0,1-.58,2.1,15.11,15.11,0,0,1-2.19,2.68,19.55,19.55,0,0,0-1.33,1.44,4.06,4.06,0,0,0-.49.76Z"/><path d="M164.19,433.72v-8.29h1v1.15a2.6,2.6,0,0,1,.89-1,2.11,2.11,0,0,1,1.17-.35,2,2,0,0,1,1.22.37,2,2,0,0,1,.7,1.08,3.11,3.11,0,0,1,.94-1.09,2,2,0,0,1,1.17-.36,1.91,1.91,0,0,1,1.54.66,3.27,3.27,0,0,1,.57,2.13v5.69h-1.15v-5.23a4.16,4.16,0,0,0-.13-1.26,1.09,1.09,0,0,0-.42-.58,1.14,1.14,0,0,0-.65-.2,1.51,1.51,0,0,0-1.22.59,3,3,0,0,0-.47,1.86v4.82h-1.15v-5.39a2.55,2.55,0,0,0-.31-1.46,1.06,1.06,0,0,0-.88-.42,1.43,1.43,0,0,0-1.24.64,4.17,4.17,0,0,0-.46,2.33v4.3Z"/><path d="M175.12,433.72v-8.29h1v1.15a2.6,2.6,0,0,1,.89-1,2.11,2.11,0,0,1,1.17-.35,2,2,0,0,1,1.22.37,2,2,0,0,1,.7,1.08,3.11,3.11,0,0,1,.94-1.09,2,2,0,0,1,1.17-.36,1.91,1.91,0,0,1,1.54.66,3.27,3.27,0,0,1,.57,2.13v5.69H183.2v-5.23a4.16,4.16,0,0,0-.13-1.26,1.2,1.2,0,0,0-.42-.58,1.14,1.14,0,0,0-.65-.2,1.51,1.51,0,0,0-1.22.59,3,3,0,0,0-.47,1.86v4.82h-1.15v-5.39a2.55,2.55,0,0,0-.31-1.46,1.06,1.06,0,0,0-.88-.42,1.43,1.43,0,0,0-1.24.64,4.17,4.17,0,0,0-.46,2.33v4.3Z"/><path d="M352.3,397.24a2.28,2.28,0,0,1-1-.89,2.71,2.71,0,0,1-.35-1.45,3,3,0,0,1,.76-2.12,2.68,2.68,0,0,1,3.87,0,3,3,0,0,1,.78,2.16,2.67,2.67,0,0,1-.34,1.4,2.29,2.29,0,0,1-1,.89,2.66,2.66,0,0,1,1.31,1.09,4,4,0,0,1-.43,4.36,3,3,0,0,1-4.41,0,3.62,3.62,0,0,1-.89-2.54,3.46,3.46,0,0,1,.48-1.9A2.38,2.38,0,0,1,352.3,397.24Zm-.6,2.91a2.46,2.46,0,0,0,.57,1.7,1.75,1.75,0,0,0,1.35.65,1.73,1.73,0,0,0,1.35-.63,2.42,2.42,0,0,0,.55-1.67,2.48,2.48,0,0,0-.57-1.7,1.75,1.75,0,0,0-1.36-.64,1.69,1.69,0,0,0-1.34.64A2.47,2.47,0,0,0,351.7,400.15Zm.39-5.29a1.92,1.92,0,0,0,.44,1.34,1.42,1.42,0,0,0,1.09.5,1.4,1.4,0,0,0,1.08-.49,1.85,1.85,0,0,0,.44-1.27,1.88,1.88,0,0,0-.46-1.32,1.39,1.39,0,0,0-1.07-.51,1.41,1.41,0,0,0-1.08.5A1.85,1.85,0,0,0,352.09,394.86Z"/><path d="M363.8,394.8l-1.15.11a2.75,2.75,0,0,0-.48-1.25,1.4,1.4,0,0,0-1.11-.55,1.85,1.85,0,0,0-1.62,1.25,7.86,7.86,0,0,0-.53,3.19,3,3,0,0,1,1-1.14,2.39,2.39,0,0,1,1.28-.38,2.46,2.46,0,0,1,1.95,1,4.16,4.16,0,0,1,.83,2.71,5,5,0,0,1-.42,2.08,3.27,3.27,0,0,1-1.07,1.38,2.58,2.58,0,0,1-1.45.44,2.75,2.75,0,0,1-2.34-1.28,7.47,7.47,0,0,1-.92-4.27,8.83,8.83,0,0,1,.94-4.73,2.83,2.83,0,0,1,2.42-1.41,2.41,2.41,0,0,1,1.79.73A3.48,3.48,0,0,1,363.8,394.8Zm-4.71,4.95a3.16,3.16,0,0,0,.59,2,1.68,1.68,0,0,0,1.36.76,1.52,1.52,0,0,0,1.21-.71,3.19,3.19,0,0,0,.54-2,3,3,0,0,0-.53-1.89,1.61,1.61,0,0,0-1.3-.67,1.65,1.65,0,0,0-1.31.67A2.74,2.74,0,0,0,359.09,399.75Z"/><path d="M368.81,403.46v-2.75h-4.07v-1.28L369,392h1v7.43h1.27v1.28H370v2.75Zm0-4v-5.17l-2.93,5.17Z"/><path d="M372.75,403.46v-8.3h1v1.16a2.69,2.69,0,0,1,.88-1,2.15,2.15,0,0,1,1.18-.35,2,2,0,0,1,1.21.37,2,2,0,0,1,.71,1.08,3.19,3.19,0,0,1,.94-1.09,2,2,0,0,1,1.17-.36,1.89,1.89,0,0,1,1.54.67,3.22,3.22,0,0,1,.57,2.12v5.7h-1.15v-5.24a4.16,4.16,0,0,0-.13-1.26,1.13,1.13,0,0,0-.42-.57,1.1,1.1,0,0,0-.65-.21,1.49,1.49,0,0,0-1.22.59,3,3,0,0,0-.47,1.86v4.83h-1.15v-5.4a2.48,2.48,0,0,0-.32-1.45,1,1,0,0,0-.87-.43,1.46,1.46,0,0,0-1.24.64,4.2,4.2,0,0,0-.46,2.33v4.31Z"/><path d="M383.68,403.46v-8.3h1v1.16a2.69,2.69,0,0,1,.88-1,2.15,2.15,0,0,1,1.18-.35,2,2,0,0,1,1.21.37,2,2,0,0,1,.71,1.08,3.19,3.19,0,0,1,.94-1.09,2,2,0,0,1,1.17-.36,1.89,1.89,0,0,1,1.54.67,3.22,3.22,0,0,1,.57,2.12v5.7h-1.15v-5.24a4.52,4.52,0,0,0-.13-1.26,1.13,1.13,0,0,0-.42-.57,1.1,1.1,0,0,0-.65-.21,1.49,1.49,0,0,0-1.22.59,3,3,0,0,0-.47,1.86v4.83h-1.15v-5.4a2.48,2.48,0,0,0-.32-1.45,1,1,0,0,0-.87-.43,1.45,1.45,0,0,0-1.24.64,4.2,4.2,0,0,0-.46,2.33v4.31Z"/><path d="M400.46,406.82a17.09,17.09,0,0,1-1.57-3.31,12.36,12.36,0,0,1-.7-4.21,14.19,14.19,0,0,1,2.27-7.49h.83a25.94,25.94,0,0,0-1.21,2.85,14.5,14.5,0,0,0-.52,2.22,15.34,15.34,0,0,0-.19,2.44,16.33,16.33,0,0,0,1.92,7.5Z"/><path d="M405.49,401.43v-3.15h-3.11V397h3.11v-3.11h1.33V397h3.12v1.32h-3.12v3.15Zm4.45,2h-7.56v-1.32h7.56Z"/><path d="M414.77,403.46v-2.75H410.7v-1.28L415,392h.94v7.43h1.28v1.28h-1.28v2.75Zm0-4v-5.17l-2.94,5.17Z"/><path d="M418.7,403.46v-8.3h1v1.16a2.71,2.71,0,0,1,.89-1,2.11,2.11,0,0,1,1.17-.35,1.86,1.86,0,0,1,1.92,1.45,3.3,3.3,0,0,1,.94-1.09,2,2,0,0,1,1.17-.36,1.92,1.92,0,0,1,1.55.67,3.28,3.28,0,0,1,.56,2.12v5.7h-1.15v-5.24a4.16,4.16,0,0,0-.13-1.26,1,1,0,0,0-.42-.57,1.07,1.07,0,0,0-.65-.21,1.51,1.51,0,0,0-1.22.59,3,3,0,0,0-.47,1.86v4.83h-1.15v-5.4a2.49,2.49,0,0,0-.31-1.45,1,1,0,0,0-.88-.43,1.46,1.46,0,0,0-1.24.64,4.2,4.2,0,0,0-.46,2.33v4.31Z"/><path d="M429.63,403.46v-8.3h1v1.16a2.71,2.71,0,0,1,.89-1,2.11,2.11,0,0,1,1.17-.35,1.86,1.86,0,0,1,1.92,1.45,3.3,3.3,0,0,1,.94-1.09,2,2,0,0,1,1.17-.36,1.89,1.89,0,0,1,1.54.67,3.22,3.22,0,0,1,.57,2.12v5.7h-1.15v-5.24a4.16,4.16,0,0,0-.13-1.26,1.13,1.13,0,0,0-1.07-.78,1.51,1.51,0,0,0-1.22.59,3,3,0,0,0-.47,1.86v4.83h-1.15v-5.4a2.49,2.49,0,0,0-.31-1.45,1,1,0,0,0-.88-.43,1.46,1.46,0,0,0-1.24.64,4.2,4.2,0,0,0-.46,2.33v4.31Z"/><path d="M441,406.82h-.83a16.31,16.31,0,0,0,1.91-7.5,15.34,15.34,0,0,0-.19-2.44,14.5,14.5,0,0,0-.52-2.22,25.48,25.48,0,0,0-1.2-2.85H441a14.18,14.18,0,0,1,2.26,7.49,12.71,12.71,0,0,1-.67,4.15A16,16,0,0,1,441,406.82Z"/><path d="M455.4,399.44l1.25.38a5.31,5.31,0,0,1-1.45,2.88,3.56,3.56,0,0,1-2.52.95,3.87,3.87,0,0,1-2.23-.63,4.58,4.58,0,0,1-1.52-2,8.6,8.6,0,0,1-.59-3.32,7.82,7.82,0,0,1,.59-3.2,4.58,4.58,0,0,1,1.6-2,4,4,0,0,1,2.26-.67,3.42,3.42,0,0,1,2.33.85,4.5,4.5,0,0,1,1.37,2.48l-1.22.35c-.41-1.59-1.25-2.38-2.51-2.38a2.8,2.8,0,0,0-1.63.48,3.26,3.26,0,0,0-1.09,1.5,6.75,6.75,0,0,0-.41,2.57,6.18,6.18,0,0,0,.82,3.53,2.59,2.59,0,0,0,2.21,1.18,2.44,2.44,0,0,0,1.75-.73A3.93,3.93,0,0,0,455.4,399.44Z"/><path d="M457.6,399.31a5,5,0,0,1,.9-3.24,2.91,2.91,0,0,1,4.56,0,4.79,4.79,0,0,1,.92,3.15,5.17,5.17,0,0,1-.9,3.33,2.94,2.94,0,0,1-4.57,0A5,5,0,0,1,457.6,399.31Zm1.18,0a4,4,0,0,0,.59,2.4,1.74,1.74,0,0,0,1.45.79,1.69,1.69,0,0,0,1.39-.8,5.12,5.12,0,0,0,0-4.77,1.74,1.74,0,0,0-1.45-.79,1.68,1.68,0,0,0-1.4.79A4,4,0,0,0,458.78,399.3Z"/><path d="M467.24,403.46l-2.59-8.3h1.22l1.46,5c.17.56.31,1.12.44,1.67.1-.44.24-1,.42-1.58l1.52-5.06h1.19l-2.59,8.3Z"/><path d="M476.55,400.79l1.18.17a3.54,3.54,0,0,1-1.07,2,2.84,2.84,0,0,1-1.93.67,2.88,2.88,0,0,1-2.34-1.09,5,5,0,0,1-.89-3.17,5.17,5.17,0,0,1,.9-3.28,2.82,2.82,0,0,1,2.29-1.13,2.71,2.71,0,0,1,2.2,1.11,5.05,5.05,0,0,1,.88,3.21v.38h-5.08a3.53,3.53,0,0,0,.65,2.11,1.75,1.75,0,0,0,1.4.71C475.61,402.49,476.21,401.92,476.55,400.79Zm-3.79-2.28h3.79a3.11,3.11,0,0,0-.46-1.61,1.68,1.68,0,0,0-1.41-.77,1.66,1.66,0,0,0-1.32.64A2.76,2.76,0,0,0,472.76,398.51Z"/><path d="M479.2,403.46v-8.3h1v1.26a3.56,3.56,0,0,1,.73-1.16,1.14,1.14,0,0,1,.75-.29,1.92,1.92,0,0,1,1.18.46l-.39,1.3a1.49,1.49,0,0,0-.84-.3,1,1,0,0,0-.67.25,1.48,1.48,0,0,0-.43.72,6.79,6.79,0,0,0-.22,1.71v4.35Z"/><line class="cls-2" x1="235.52" y1="440.17" x2="488.78" y2="318.95"/><line class="cls-3" x1="485.68" y1="320.47" x2="489.2" y2="322.23"/><line class="cls-3" x1="485.68" y1="320.47" x2="481.98" y2="318.53"/><line class="cls-2" x1="485.68" y1="323.74" x2="485.68" y2="303.92"/><line class="cls-3" x1="238.13" y1="438.91" x2="241.66" y2="440.67"/><line class="cls-3" x1="238.13" y1="438.91" x2="234.6" y2="437.06"/><line class="cls-2" x1="238.13" y1="442.27" x2="238.13" y2="422.44"/><line class="cls-2" x1="187.98" y1="419.08" x2="197.72" y2="428.74"/><line class="cls-3" x1="195.46" y1="426.56" x2="194.78" y2="430.42"/><line class="cls-3" x1="195.46" y1="426.56" x2="196.13" y2="422.61"/><line class="cls-3" x1="189.58" y1="420.68" x2="188.9" y2="424.63"/><line class="cls-3" x1="189.58" y1="420.68" x2="190.33" y2="416.81"/><line class="cls-2" x1="193.44" y1="427.48" x2="211.33" y2="418.91"/><line class="cls-2" x1="187.56" y1="421.6" x2="205.45" y2="413.03"/></g></svg>