<svg xmlns="http://www.w3.org/2000/svg" viewBox="0 0 400 400"><defs><style>.cls-1,.cls-2,.cls-3{fill:none;stroke:#000;stroke-linecap:round;stroke-linejoin:round;}.cls-1{stroke-width:0.6px;}.cls-2{stroke-width:0.5px;}.cls-3{stroke-width:0.96px;}</style></defs><title>Fascia-Dimensioned</title><g id="Image"><line class="cls-1" x1="155.27" y1="64.52" x2="311.39" y2="56.24"/><line class="cls-1" x1="173.75" y1="255.2" x2="151.07" y2="275"/><line class="cls-1" x1="141.11" y1="273.2" x2="148.79" y2="266.84"/><line class="cls-1" x1="320.15" y1="144.44" x2="175.43" y2="297.56"/><line class="cls-1" x1="174.59" y1="246.68" x2="172.55" y2="242.84"/><line class="cls-1" x1="172.55" y1="242.84" x2="172.55" y2="234.68"/><line class="cls-1" x1="172.55" y1="234.68" x2="174.71" y2="231.92"/><line class="cls-1" x1="174.71" y1="231.92" x2="174.71" y2="224.72"/><line class="cls-1" x1="174.71" y1="224.72" x2="172.55" y2="220.88"/><line class="cls-1" x1="172.55" y1="220.88" x2="172.55" y2="212.72"/><line class="cls-1" x1="172.55" y1="212.72" x2="174.71" y2="209.84"/><line class="cls-1" x1="174.71" y1="209.84" x2="174.71" y2="147.32"/><line class="cls-1" x1="174.71" y1="147.32" x2="172.55" y2="142.76"/><line class="cls-1" x1="172.55" y1="142.76" x2="172.55" y2="93.32"/><line class="cls-1" x1="172.55" y1="93.32" x2="174.83" y2="84.2"/><line class="cls-1" x1="174.83" y1="84.2" x2="174.83" y2="71.36"/><line class="cls-1" x1="174.83" y1="71.36" x2="174.83" y2="70.76"/><line class="cls-1" x1="174.83" y1="70.76" x2="174.59" y2="70.16"/><line class="cls-1" x1="174.59" y1="70.16" x2="174.23" y2="69.56"/><line class="cls-1" x1="174.23" y1="69.56" x2="173.87" y2="69.08"/><line class="cls-1" x1="173.87" y1="69.08" x2="173.39" y2="68.84"/><line class="cls-1" x1="173.39" y1="68.84" x2="172.79" y2="68.6"/><line class="cls-1" x1="172.79" y1="68.6" x2="155.87" y2="64.64"/><line class="cls-1" x1="155.87" y1="64.64" x2="155.27" y2="64.52"/><line class="cls-1" x1="155.27" y1="64.52" x2="155.27" y2="64.52"/><line class="cls-1" x1="155.27" y1="64.52" x2="154.67" y2="64.64"/><line class="cls-1" x1="154.67" y1="64.64" x2="154.19" y2="64.88"/><line class="cls-1" x1="154.19" y1="64.88" x2="153.71" y2="65.24"/><line class="cls-1" x1="153.71" y1="65.24" x2="153.35" y2="65.84"/><line class="cls-1" x1="153.35" y1="65.84" x2="153.11" y2="66.32"/><line class="cls-1" x1="153.11" y1="66.32" x2="152.99" y2="67.04"/><line class="cls-1" x1="152.99" y1="67.04" x2="153.11" y2="67.64"/><line class="cls-1" x1="153.11" y1="67.64" x2="153.23" y2="68.24"/><line class="cls-1" x1="153.23" y1="68.24" x2="153.47" y2="68.84"/><line class="cls-1" x1="153.47" y1="68.84" x2="153.95" y2="69.32"/><line class="cls-1" x1="153.95" y1="69.32" x2="158.75" y2="73.76"/><line class="cls-1" x1="158.75" y1="73.76" x2="159.35" y2="73.04"/><line class="cls-1" x1="159.35" y1="73.04" x2="154.43" y2="68.48"/><line class="cls-1" x1="154.43" y1="68.48" x2="154.19" y2="68.24"/><line class="cls-1" x1="154.19" y1="68.24" x2="154.07" y2="67.88"/><line class="cls-1" x1="154.07" y1="67.88" x2="153.95" y2="67.52"/><line class="cls-1" x1="153.95" y1="67.52" x2="153.95" y2="67.04"/><line class="cls-1" x1="153.95" y1="67.04" x2="153.95" y2="66.68"/><line class="cls-1" x1="153.95" y1="66.68" x2="154.07" y2="66.32"/><line class="cls-1" x1="154.07" y1="66.32" x2="154.31" y2="65.96"/><line class="cls-1" x1="154.31" y1="65.96" x2="154.67" y2="65.72"/><line class="cls-1" x1="154.67" y1="65.72" x2="154.91" y2="65.6"/><line class="cls-1" x1="154.91" y1="65.6" x2="155.27" y2="65.48"/><line class="cls-1" x1="155.27" y1="65.48" x2="155.27" y2="65.48"/><line class="cls-1" x1="155.27" y1="65.48" x2="155.63" y2="65.6"/><line class="cls-1" x1="155.63" y1="65.6" x2="172.67" y2="69.56"/><line class="cls-1" x1="172.67" y1="69.56" x2="173.03" y2="69.68"/><line class="cls-1" x1="173.03" y1="69.68" x2="173.27" y2="69.92"/><line class="cls-1" x1="173.27" y1="69.92" x2="173.63" y2="70.16"/><line class="cls-1" x1="173.63" y1="70.16" x2="173.75" y2="70.52"/><line class="cls-1" x1="173.75" y1="70.52" x2="173.87" y2="70.88"/><line class="cls-1" x1="173.87" y1="70.88" x2="173.99" y2="71.36"/><line class="cls-1" x1="173.99" y1="71.36" x2="173.87" y2="83.96"/><line class="cls-1" x1="173.87" y1="83.96" x2="171.71" y2="93.2"/><line class="cls-1" x1="171.71" y1="93.2" x2="171.59" y2="143"/><line class="cls-1" x1="171.59" y1="143" x2="173.87" y2="147.56"/><line class="cls-1" x1="173.87" y1="147.56" x2="173.75" y2="209.36"/><line class="cls-1" x1="173.75" y1="209.36" x2="171.71" y2="212.24"/><line class="cls-1" x1="171.71" y1="212.24" x2="171.71" y2="221"/><line class="cls-1" x1="171.71" y1="221" x2="173.75" y2="224.84"/><line class="cls-1" x1="173.75" y1="224.84" x2="173.75" y2="231.32"/><line class="cls-1" x1="173.75" y1="231.32" x2="171.71" y2="234.2"/><line class="cls-1" x1="171.71" y1="234.2" x2="171.59" y2="242.96"/><line class="cls-1" x1="171.59" y1="242.96" x2="173.75" y2="246.8"/><line class="cls-1" x1="173.75" y1="246.8" x2="173.75" y2="279.8"/><line class="cls-1" x1="173.75" y1="279.8" x2="175.07" y2="282.8"/><line class="cls-1" x1="175.07" y1="282.8" x2="175.07" y2="295.76"/><line class="cls-1" x1="175.07" y1="295.76" x2="174.95" y2="296.24"/><line class="cls-1" x1="174.95" y1="296.24" x2="174.83" y2="296.6"/><line class="cls-1" x1="174.83" y1="296.6" x2="174.71" y2="296.72"/><line class="cls-1" x1="174.71" y1="296.72" x2="174.59" y2="296.84"/><line class="cls-1" x1="174.59" y1="296.84" x2="174.23" y2="296.96"/><line class="cls-1" x1="174.23" y1="296.96" x2="173.87" y2="297.08"/><line class="cls-1" x1="173.87" y1="297.08" x2="173.51" y2="296.96"/><line class="cls-1" x1="173.51" y1="296.96" x2="142.91" y2="287.6"/><line class="cls-1" x1="142.91" y1="287.6" x2="142.55" y2="287.48"/><line class="cls-1" x1="142.55" y1="287.48" x2="142.19" y2="287.24"/><line class="cls-1" x1="142.19" y1="287.24" x2="141.95" y2="286.88"/><line class="cls-1" x1="141.95" y1="286.88" x2="141.71" y2="286.4"/><line class="cls-1" x1="141.71" y1="286.4" x2="141.59" y2="285.92"/><line class="cls-1" x1="141.59" y1="285.92" x2="141.59" y2="285.56"/><line class="cls-1" x1="141.59" y1="285.56" x2="141.59" y2="274.52"/><line class="cls-1" x1="141.59" y1="274.52" x2="141.59" y2="274.28"/><line class="cls-1" x1="141.59" y1="274.28" x2="141.59" y2="274.16"/><line class="cls-1" x1="141.59" y1="274.16" x2="141.71" y2="274.04"/><line class="cls-1" x1="141.71" y1="274.04" x2="141.71" y2="274.04"/><line class="cls-1" x1="141.71" y1="274.04" x2="141.83" y2="273.92"/><line class="cls-1" x1="141.83" y1="273.92" x2="141.95" y2="273.92"/><line class="cls-1" x1="141.95" y1="273.92" x2="142.19" y2="273.92"/><line class="cls-1" x1="142.19" y1="273.92" x2="147.83" y2="275.6"/><line class="cls-1" x1="147.83" y1="275.6" x2="149.03" y2="275.72"/><line class="cls-1" x1="149.03" y1="275.72" x2="150.11" y2="275.6"/><line class="cls-1" x1="150.11" y1="275.6" x2="150.95" y2="275"/><line class="cls-1" x1="150.95" y1="275" x2="151.07" y2="275"/><line class="cls-1" x1="151.07" y1="275" x2="151.67" y2="274.16"/><line class="cls-1" x1="151.67" y1="274.16" x2="152.15" y2="273.08"/><line class="cls-1" x1="152.15" y1="273.08" x2="152.27" y2="271.76"/><line class="cls-1" x1="152.27" y1="271.76" x2="152.15" y2="270.44"/><line class="cls-1" x1="152.15" y1="270.44" x2="151.67" y2="269"/><line class="cls-1" x1="151.67" y1="269" x2="150.95" y2="267.8"/><line class="cls-1" x1="150.95" y1="267.8" x2="150.11" y2="266.72"/><line class="cls-1" x1="150.11" y1="266.72" x2="149.03" y2="265.88"/><line class="cls-1" x1="149.03" y1="265.88" x2="147.83" y2="265.4"/><line class="cls-1" x1="147.83" y1="265.4" x2="140.75" y2="263.48"/><line class="cls-1" x1="140.75" y1="263.48" x2="140.75" y2="264.32"/><line class="cls-1" x1="140.75" y1="264.32" x2="147.83" y2="266.36"/><line class="cls-1" x1="147.83" y1="266.36" x2="148.79" y2="266.72"/><line class="cls-1" x1="148.79" y1="266.72" x2="149.63" y2="267.44"/><line class="cls-1" x1="149.63" y1="267.44" x2="150.35" y2="268.28"/><line class="cls-1" x1="150.35" y1="268.28" x2="150.95" y2="269.36"/><line class="cls-1" x1="150.95" y1="269.36" x2="151.31" y2="270.44"/><line class="cls-1" x1="151.31" y1="270.44" x2="151.43" y2="271.52"/><line class="cls-1" x1="151.43" y1="271.52" x2="151.31" y2="272.6"/><line class="cls-1" x1="151.31" y1="272.6" x2="150.95" y2="273.44"/><line class="cls-1" x1="150.95" y1="273.44" x2="150.47" y2="274.16"/><line class="cls-1" x1="150.47" y1="274.16" x2="150.35" y2="274.16"/><line class="cls-1" x1="150.35" y1="274.16" x2="149.63" y2="274.64"/><line class="cls-1" x1="149.63" y1="274.64" x2="148.79" y2="274.76"/><line class="cls-1" x1="148.79" y1="274.76" x2="147.83" y2="274.64"/><line class="cls-1" x1="147.83" y1="274.64" x2="142.19" y2="272.96"/><line class="cls-1" x1="142.19" y1="272.96" x2="141.83" y2="272.96"/><line class="cls-1" x1="141.83" y1="272.96" x2="141.47" y2="273.08"/><line class="cls-1" x1="141.47" y1="273.08" x2="141.11" y2="273.2"/><line class="cls-1" x1="141.11" y1="273.2" x2="141.11" y2="273.2"/><line class="cls-1" x1="141.11" y1="273.2" x2="140.87" y2="273.44"/><line class="cls-1" x1="140.87" y1="273.44" x2="140.75" y2="273.8"/><line class="cls-1" x1="140.75" y1="273.8" x2="140.75" y2="274.28"/><line class="cls-1" x1="140.75" y1="274.28" x2="140.75" y2="285.32"/><line class="cls-1" x1="140.75" y1="285.32" x2="140.75" y2="286.04"/><line class="cls-1" x1="140.75" y1="286.04" x2="140.99" y2="286.64"/><line class="cls-1" x1="140.99" y1="286.64" x2="141.35" y2="287.36"/><line class="cls-1" x1="141.35" y1="287.36" x2="141.83" y2="287.84"/><line class="cls-1" x1="141.83" y1="287.84" x2="142.43" y2="288.32"/><line class="cls-1" x1="142.43" y1="288.32" x2="142.91" y2="288.56"/><line class="cls-1" x1="142.91" y1="288.56" x2="173.51" y2="297.92"/><line class="cls-1" x1="173.51" y1="297.92" x2="174.11" y2="298.04"/><line class="cls-1" x1="174.11" y1="298.04" x2="174.71" y2="298.04"/><line class="cls-1" x1="174.71" y1="298.04" x2="175.19" y2="297.68"/><line class="cls-1" x1="175.19" y1="297.68" x2="175.43" y2="297.56"/><line class="cls-1" x1="175.43" y1="297.56" x2="175.55" y2="297.32"/><line class="cls-1" x1="175.55" y1="297.32" x2="175.79" y2="296.72"/><line class="cls-1" x1="175.79" y1="296.72" x2="175.91" y2="296"/><line class="cls-1" x1="175.91" y1="296" x2="175.91" y2="282.8"/><line class="cls-1" x1="175.91" y1="282.8" x2="174.59" y2="279.8"/><line class="cls-1" x1="174.59" y1="279.8" x2="174.59" y2="246.68"/><line class="cls-1" x1="319.91" y1="125.12" x2="319.79" y2="137.72"/><line class="cls-1" x1="319.79" y1="137.72" x2="320.39" y2="138.8"/><line class="cls-1" x1="320.39" y1="138.8" x2="320.39" y2="143.84"/><line class="cls-1" x1="320.39" y1="143.84" x2="320.27" y2="144.08"/><line class="cls-1" x1="320.27" y1="144.08" x2="320.15" y2="144.32"/><line class="cls-1" x1="320.15" y1="144.32" x2="320.15" y2="144.44"/><line class="cls-1" x1="320.15" y1="144.44" x2="320.03" y2="144.56"/><line class="cls-1" x1="311.39" y1="56.24" x2="311.39" y2="56.24"/><line class="cls-1" x1="311.39" y1="56.24" x2="311.63" y2="56.36"/><line class="cls-1" x1="311.63" y1="56.36" x2="319.31" y2="57.8"/><line class="cls-1" x1="319.31" y1="57.8" x2="319.55" y2="57.8"/><line class="cls-1" x1="319.55" y1="57.8" x2="319.79" y2="57.92"/><line class="cls-1" x1="319.79" y1="57.92" x2="320.03" y2="58.16"/><line class="cls-1" x1="320.03" y1="58.16" x2="320.15" y2="58.28"/><line class="cls-1" x1="320.15" y1="58.28" x2="320.27" y2="58.52"/><line class="cls-1" x1="320.27" y1="58.52" x2="320.27" y2="58.76"/><line class="cls-1" x1="320.27" y1="58.76" x2="320.27" y2="63.68"/><line class="cls-1" x1="320.27" y1="63.68" x2="319.19" y2="67.16"/><line class="cls-1" x1="319.19" y1="67.16" x2="319.07" y2="85.88"/><line class="cls-1" x1="319.07" y1="85.88" x2="320.03" y2="87.44"/><line class="cls-1" x1="320.03" y1="87.44" x2="319.91" y2="111.2"/><line class="cls-1" x1="319.91" y1="111.2" x2="318.95" y2="112.4"/><line class="cls-1" x1="318.95" y1="112.4" x2="318.95" y2="115.52"/><line class="cls-1" x1="318.95" y1="115.52" x2="319.91" y2="116.84"/><line class="cls-1" x1="319.91" y1="116.84" x2="319.91" y2="119.48"/><line class="cls-1" x1="319.91" y1="119.48" x2="318.95" y2="120.68"/><line class="cls-1" x1="318.95" y1="120.68" x2="318.95" y2="123.8"/><line class="cls-1" x1="318.95" y1="123.8" x2="319.91" y2="125.12"/><line class="cls-1" x1="174.59" y1="246.68" x2="319.91" y2="125.12"/><line class="cls-1" x1="318.95" y1="123.8" x2="172.55" y2="242.84"/><line class="cls-1" x1="318.95" y1="120.68" x2="172.55" y2="234.68"/><line class="cls-1" x1="319.91" y1="119.48" x2="174.71" y2="231.92"/><line class="cls-1" x1="319.91" y1="116.84" x2="174.71" y2="224.72"/><line class="cls-1" x1="318.95" y1="115.52" x2="172.55" y2="220.88"/><line class="cls-1" x1="318.95" y1="112.4" x2="172.55" y2="212.72"/><line class="cls-1" x1="319.91" y1="111.2" x2="174.71" y2="209.84"/><line class="cls-1" x1="320.03" y1="87.44" x2="174.71" y2="147.32"/><line class="cls-1" x1="319.07" y1="85.88" x2="172.55" y2="142.76"/><line class="cls-1" x1="319.19" y1="67.16" x2="172.55" y2="93.32"/><line class="cls-1" x1="320.27" y1="63.68" x2="174.83" y2="84.2"/><line class="cls-1" x1="173.99" y1="72.32" x2="158.75" y2="73.76"/><line class="cls-1" x1="173.99" y1="71.84" x2="159.35" y2="73.04"/><line class="cls-1" x1="171.59" y1="238.88" x2="140.75" y2="263.48"/><line class="cls-1" x1="320.39" y1="138.8" x2="175.91" y2="282.8"/><line class="cls-1" x1="319.79" y1="137.72" x2="174.59" y2="279.8"/></g><g id="Dimensions"><path d="M129,347.47l1.15-.18c.24,1.5.85,2.25,1.82,2.25a1.76,1.76,0,0,0,1.37-.66,2.56,2.56,0,0,0,.58-1.74,2.33,2.33,0,0,0-.53-1.61,1.65,1.65,0,0,0-1.3-.61,2.66,2.66,0,0,0-.82.16l.14-1.24.18,0a1.91,1.91,0,0,0,1.39-.53,1.86,1.86,0,0,0,.53-1.39,1.81,1.81,0,0,0-.45-1.29,1.41,1.41,0,0,0-1.09-.49,1.46,1.46,0,0,0-1.12.51,2.73,2.73,0,0,0-.58,1.55l-1.15-.25a3.76,3.76,0,0,1,1-2.22A2.55,2.55,0,0,1,132,339a2.58,2.58,0,0,1,1.94.85,3,3,0,0,1,.8,2.12,2.72,2.72,0,0,1-.34,1.38,2.52,2.52,0,0,1-.94.95,2,2,0,0,1,.92.51,2.53,2.53,0,0,1,.59,1,3.82,3.82,0,0,1,.23,1.35,3.65,3.65,0,0,1-.93,2.58,2.92,2.92,0,0,1-2.23,1,2.73,2.73,0,0,1-2-.87A3.78,3.78,0,0,1,129,347.47Z"/><path d="M136.33,347.47l1.15-.18c.24,1.5.84,2.25,1.82,2.25a1.77,1.77,0,0,0,1.37-.66,2.56,2.56,0,0,0,.58-1.74,2.38,2.38,0,0,0-.53-1.61,1.67,1.67,0,0,0-1.31-.61,2.55,2.55,0,0,0-.81.16l.13-1.24.18,0a1.89,1.89,0,0,0,1.39-.53,1.83,1.83,0,0,0,.54-1.39,1.81,1.81,0,0,0-.45-1.29,1.41,1.41,0,0,0-1.09-.49,1.44,1.44,0,0,0-1.12.51,2.81,2.81,0,0,0-.59,1.55l-1.15-.25a3.83,3.83,0,0,1,1-2.22,2.55,2.55,0,0,1,1.85-.75,2.58,2.58,0,0,1,1.94.85A3,3,0,0,1,142,342a2.82,2.82,0,0,1-.34,1.38,2.48,2.48,0,0,1-1,.95,2,2,0,0,1,.93.51,2.66,2.66,0,0,1,.59,1,3.82,3.82,0,0,1,.23,1.35,3.65,3.65,0,0,1-.93,2.58,2.94,2.94,0,0,1-2.23,1,2.73,2.73,0,0,1-2-.87A3.73,3.73,0,0,1,136.33,347.47Z"/><path d="M144,350.5v-8.29h1v1.15a2.58,2.58,0,0,1,.88-1,2.15,2.15,0,0,1,1.18-.35,1.94,1.94,0,0,1,1.21.37,2,2,0,0,1,.71,1.08,3,3,0,0,1,.94-1.09,2,2,0,0,1,1.17-.36,1.91,1.91,0,0,1,1.54.66,3.27,3.27,0,0,1,.57,2.13v5.69H152v-5.23a4.16,4.16,0,0,0-.13-1.26,1.2,1.2,0,0,0-.42-.58,1.16,1.16,0,0,0-.65-.2,1.49,1.49,0,0,0-1.22.59,3,3,0,0,0-.47,1.86v4.82H148v-5.39a2.54,2.54,0,0,0-.32-1.46,1,1,0,0,0-.87-.42,1.43,1.43,0,0,0-1.24.64,4.17,4.17,0,0,0-.46,2.33v4.3Z"/><path d="M154.89,350.5v-8.29h1v1.15a2.58,2.58,0,0,1,.88-1A2.15,2.15,0,0,1,158,342a1.94,1.94,0,0,1,1.21.37,2,2,0,0,1,.71,1.08,3,3,0,0,1,.94-1.09A2,2,0,0,1,162,342a1.91,1.91,0,0,1,1.54.66,3.27,3.27,0,0,1,.57,2.13v5.69H163v-5.23a4.16,4.16,0,0,0-.13-1.26,1.2,1.2,0,0,0-.42-.58,1.16,1.16,0,0,0-.65-.2,1.49,1.49,0,0,0-1.22.59,2.94,2.94,0,0,0-.47,1.86v4.82h-1.15v-5.39a2.54,2.54,0,0,0-.32-1.46,1,1,0,0,0-.87-.42,1.43,1.43,0,0,0-1.24.64,4.17,4.17,0,0,0-.46,2.33v4.3Z"/><path d="M55.54,167.56H54.38v-9a6.13,6.13,0,0,1-1.07,1,6.36,6.36,0,0,1-1.23.73v-1.36a6.62,6.62,0,0,0,1.68-1.33,5.11,5.11,0,0,0,1-1.54h.75Z"/><path d="M60.28,161.34a2.2,2.2,0,0,1-1.05-.89,2.8,2.8,0,0,1-.35-1.45,3,3,0,0,1,.76-2.12,2.54,2.54,0,0,1,1.93-.82,2.58,2.58,0,0,1,2,.83,3.09,3.09,0,0,1,.77,2.16,2.67,2.67,0,0,1-.34,1.4,2.29,2.29,0,0,1-1,.89,2.66,2.66,0,0,1,1.31,1.09,4,4,0,0,1-.43,4.36,3,3,0,0,1-4.41,0,3.61,3.61,0,0,1-.89-2.54,3.42,3.42,0,0,1,.48-1.89A2.34,2.34,0,0,1,60.28,161.34Zm-.61,2.91a2.46,2.46,0,0,0,.57,1.7,1.75,1.75,0,0,0,1.35.65,1.73,1.73,0,0,0,1.35-.63,2.4,2.4,0,0,0,.55-1.67,2.48,2.48,0,0,0-.57-1.7,1.73,1.73,0,0,0-1.36-.64,1.71,1.71,0,0,0-1.34.64A2.49,2.49,0,0,0,59.67,164.25Zm.39-5.29a2,2,0,0,0,.44,1.34,1.39,1.39,0,0,0,1.09.5,1.4,1.4,0,0,0,1.08-.49,1.85,1.85,0,0,0,.44-1.27,1.9,1.9,0,0,0-.45-1.31,1.42,1.42,0,0,0-1.08-.51,1.4,1.4,0,0,0-1.08.49A1.85,1.85,0,0,0,60.06,159Z"/><path d="M66,164.91l1.11-.12c.18,1.2.7,1.81,1.56,1.81a1.59,1.59,0,0,0,1.06-.4,3.07,3.07,0,0,0,.8-1.4,7.55,7.55,0,0,0,.32-2.35v-.28a2.86,2.86,0,0,1-1,1.1,2.24,2.24,0,0,1-1.25.41,2.52,2.52,0,0,1-2-1,4.19,4.19,0,0,1-.83-2.74,4.36,4.36,0,0,1,.86-2.84,2.65,2.65,0,0,1,2.1-1,2.6,2.6,0,0,1,1.63.58,3.63,3.63,0,0,1,1.18,1.7,10,10,0,0,1,.41,3.24,12.07,12.07,0,0,1-.44,3.67,4,4,0,0,1-1.21,1.9,2.7,2.7,0,0,1-1.71.6,2.41,2.41,0,0,1-1.79-.73A3.41,3.41,0,0,1,66,164.91Zm4.73-5.06a3,3,0,0,0-.55-1.93,1.56,1.56,0,0,0-1.26-.7,1.69,1.69,0,0,0-1.33.75,3.23,3.23,0,0,0-.58,2,2.75,2.75,0,0,0,.56,1.8,1.68,1.68,0,0,0,1.33.66,1.61,1.61,0,0,0,1.3-.67A3,3,0,0,0,70.69,159.85Z"/><path d="M73.42,167.56v-8.3h1v1.16a2.61,2.61,0,0,1,.88-1,2.13,2.13,0,0,1,1.17-.34,1.84,1.84,0,0,1,1.92,1.44,3.27,3.27,0,0,1,.94-1.08,2,2,0,0,1,1.17-.36,1.93,1.93,0,0,1,1.55.66,3.28,3.28,0,0,1,.56,2.12v5.7H81.5v-5.23a4.19,4.19,0,0,0-.13-1.27,1.1,1.1,0,0,0-.42-.57,1.07,1.07,0,0,0-.65-.2,1.48,1.48,0,0,0-1.22.59,3,3,0,0,0-.47,1.85v4.83H77.46v-5.4a2.49,2.49,0,0,0-.31-1.45,1,1,0,0,0-.87-.42,1.45,1.45,0,0,0-1.25.63,4.2,4.2,0,0,0-.46,2.33v4.31Z"/><path d="M84.35,167.56v-8.3h1v1.16a2.71,2.71,0,0,1,.89-1,2.13,2.13,0,0,1,1.17-.34,1.84,1.84,0,0,1,1.92,1.44,3.16,3.16,0,0,1,.94-1.08,2,2,0,0,1,1.17-.36,1.93,1.93,0,0,1,1.55.66,3.28,3.28,0,0,1,.56,2.12v5.7H92.43v-5.23a4.19,4.19,0,0,0-.13-1.27,1.1,1.1,0,0,0-.42-.57,1.07,1.07,0,0,0-.65-.2,1.48,1.48,0,0,0-1.22.59,3,3,0,0,0-.47,1.85v4.83H88.39v-5.4a2.49,2.49,0,0,0-.31-1.45,1,1,0,0,0-.87-.42,1.45,1.45,0,0,0-1.25.63,4.2,4.2,0,0,0-.46,2.33v4.31Z"/><line class="cls-2" x1="138.95" y1="299.96" x2="138.95" y2="328.4"/><line class="cls-3" x1="138.95" y1="323.36" x2="143.39" y2="319.88"/><line class="cls-3" x1="138.95" y1="323.36" x2="134.51" y2="326.84"/><line class="cls-3" x1="100.43" y1="275.36" x2="105.47" y2="272.84"/><line class="cls-3" x1="100.43" y1="275.36" x2="95.39" y2="278"/><line class="cls-3" x1="101.14" y1="58.81" x2="104.68" y2="55.68"/><line class="cls-3" x1="96.09" y1="63.32" x2="101.14" y2="58.81"/><line class="cls-2" x1="95.39" y1="273.92" x2="121.79" y2="281.96"/><line class="cls-2" x1="94.53" y1="59.13" x2="122.74" y2="60.5"/><line class="cls-2" x1="134.75" y1="322.16" x2="178.91" y2="335.6"/><line class="cls-2" x1="174.95" y1="311" x2="174.95" y2="339.44"/><line class="cls-3" x1="174.95" y1="334.4" x2="179.39" y2="330.8"/><line class="cls-3" x1="174.95" y1="334.4" x2="170.51" y2="337.88"/><line class="cls-2" x1="100.48" y1="278.36" x2="100.48" y2="54.07"/></g></svg>