<svg version="1.1" xmlns="http://www.w3.org/2000/svg" x="0" y="0" viewBox="0 0 129.3 23.9"><g fill="#231f20"><path d="M17.3 9.6C15.8 6 11.7 4.3 8.2 5.8S2.9 11.4 4.4 15c1.1 2.6 3.6 4.3 6.4 4.3 2.8 0 5.4-1.7 6.5-4.3h3.9c-1.5 5.7-7.3 9.1-13 7.6S-.9 15.3.6 9.6 7.9.5 13.6 2c3.7 1 6.6 3.9 7.6 7.6h-3.9zM33.7 15.4c0 2.3-1.8 4.1-4.1 4.1s-4.1-1.8-4.1-4.1 1.8-4.1 4.1-4.1 4.1 1.9 4.1 4.1m3.3 0c0-4.1-3.3-7.4-7.4-7.4s-7.4 3.3-7.4 7.4c0 4.1 3.3 7.4 7.4 7.4 4.1 0 7.4-3.3 7.4-7.4M38.5.7h3.4v22.1h-3.4z"/><path d="M50.8 22.8c-4.1 0-7.4-3.3-7.4-7.4S46.6 8 50.7 8s7.4 3.3 7.4 7.4c.1 4.1-3.3 7.4-7.3 7.4" fill="#ea5022"/><path d="M65.2 11.4c-1.2.1-2.2 1.1-2.2 2.4v9h-3.5v-9c0-3.2 2.5-5.8 5.7-5.8h.8v3.4h-.8zM79 15.4c0 2.3-1.8 4.1-4.1 4.1s-4.1-1.8-4.1-4.1 1.8-4.1 4.1-4.1 4.1 1.9 4.1 4.1m3.3 0c0-4.1-3.3-7.4-7.4-7.4-1.5 0-2.9.4-4.1 1.4V.7h-3.3v14.7c0 4.1 3.3 7.4 7.4 7.4 4.1 0 7.4-3.3 7.4-7.4M94.9 15.4c0 2.3-1.8 4.1-4.1 4.1s-4.1-1.8-4.1-4.1 1.8-4.1 4.1-4.1 4.1 1.9 4.1 4.1m3.3 0c0-4.1-3.3-7.4-7.4-7.4-4.1 0-7.4 3.3-7.4 7.4 0 4.1 3.3 7.4 7.4 7.4 4.1 0 7.4-3.3 7.4-7.4M108.7 22.8v-8.7c.1-1.6-1.1-2.9-2.7-3s-2.9 1.1-3 2.7v9h-3.4v-8.7c0-3.4 2.8-6.2 6.2-6.2 3.4 0 6.2 2.8 6.2 6.2v8.7h-3.3zM124.9 15.4c0 2.3-1.8 4.1-4.1 4.1s-4.1-1.8-4.1-4.1 1.8-4.1 4.1-4.1 4.1 1.9 4.1 4.1m3.3 0V.7h-3.3v8.6c-1.2-.9-2.6-1.3-4.1-1.3-4.1 0-7.4 3.3-7.4 7.4 0 4.1 3.3 7.4 7.4 7.4 4.1.1 7.4-3.3 7.4-7.4m-10-12.6c0 1.3 1 2.3 2.3 2.3s2.3-1 2.3-2.3-1-2.3-2.3-2.3-2.3 1.1-2.3 2.3m2.3 2.8c-1.5 0-2.8-1.3-2.8-2.8 0-1.5 1.3-2.8 2.8-2.8 1.5 0 2.8 1.3 2.8 2.8 0 1.5-1.2 2.8-2.8 2.8m-.6-2.6v1.4h-.5V1.2h1.2c.5-.1 1 .2 1.1.7v.3c0 .5-.3.9-.8.9l.9 1.4h-.5l-.8-1.5h-.6zm0-.4h.6c.4 0 .8 0 .8-.5 0-.3-.3-.5-.6-.5H119.9v1z"/></g></svg>
