<?xml version="1.0" encoding="utf-8"?>
<!-- Generator: Adobe Illustrator 26.0.3, SVG Export Plug-In . SVG Version: 6.00 Build 0)  -->
<svg version="1.1" id="Layer_1" xmlns="http://www.w3.org/2000/svg" xmlns:xlink="http://www.w3.org/1999/xlink" x="0px" y="0px"
	 viewBox="0 0 300 60.9" style="enable-background:new 0 0 300 60.9;" xml:space="preserve">
<style type="text/css">
	.st0{fill-rule:evenodd;clip-rule:evenodd;fill:#E1251B;}
	.st1{fill-rule:evenodd;clip-rule:evenodd;fill:#001689;}
	.st2{fill:#001689;}
	.st3{fill:#3D4543;}
</style>
<g>
	<g>
		<path class="st0" d="M36.6,3c-3.3,0.8-4.4,1.8-6.5,7.2l-7.6,19.9l-6.6-2c-5.5-1.8-7-1.6-9.7,0.5l-5.2,3.9L28.3,43l16-41.9L36.6,3z
			"/>
		<path id="XMLID_40_" class="st1" d="M48.3,3L56,1.1l-9.1,23.8c-1.9,4.7-2.9,6.2-5.7,7.6l-9.7,4.6l10.3-26.9
			C43.8,4.9,45,3.9,48.3,3"/>
		<path id="XMLID_39_" class="st1" d="M60.3,3.3l8.7-2.2L65.5,10c-2.1,5.3-3.3,7-6.4,8.6l-10.9,5.2L53,11.4
			C55.3,5.3,56.5,4.2,60.3,3.3"/>
	</g>
	<g>
		<g>
			<path class="st2" d="M92,38.4l20.8-37.2c0.2-0.4,0.5-0.6,0.9-0.6h0.5c0.4,0,0.7,0.3,0.8,0.6l10.2,37.2c0.2,0.7-0.3,1.4-1.1,1.4
				h-4.8c-0.8,0-1.3-0.3-1.4-1.1l-1.4-6.1h-13.8l-3.2,6.1c-0.3,0.6-0.9,1.1-1.8,1.1h-5.1C91.9,39.8,91.6,39.1,92,38.4z M114.8,26.6
				l-2.6-12.1h-0.1l-6,12.1H114.8z"/>
			<path class="st2" d="M125.9,34.4l2.2-3.2c0.5-0.8,1.3-0.6,1.7-0.2c0.8,0.7,3.5,2.9,6.9,2.9c2.5,0,4.9-1.9,4.9-4.7
				c0-2.4-1.7-4-4.8-6.1c-3.7-2.4-8-5.5-8-11.1c0-5.5,3.8-11.5,12.5-11.5c5.1,0,8.9,2.7,9.8,3.6c0.7,0.7,0.7,1.4,0.2,2.2l-2.2,3
				c-0.4,0.7-1.2,0.7-1.9,0.1c-0.9-0.7-3.4-2.4-6.3-2.4c-2.8,0-4.7,2.2-4.7,4.3c0,2.2,1.5,3.3,4.8,5.5c3.7,2.4,8.5,5.5,8.5,11.6
				c0,6.5-5,11.9-13.2,11.9c-5.7,0-9.6-3.3-10.5-4.3C125.5,35.7,125.3,35.2,125.9,34.4z"/>
			<path class="st2" d="M157.7,2.1c0.1-0.6,0.6-1.1,1.1-1.1h20.5c0.6,0,0.9,0.5,0.8,1.1l-0.7,4.5c-0.1,0.6-0.6,1.1-1.1,1.1h-14.2
				l-1.3,9.1h11.7c0.5,0,0.9,0.5,0.8,1.1l-0.7,4.6c-0.1,0.6-0.6,1.1-1.1,1.1h-11.7l-1.4,9.7h14.2c0.6,0,0.8,0.5,0.8,1.1l-0.6,4.5
				c-0.1,0.6-0.6,1.1-1.1,1.1h-20.5c-0.6,0-0.9-0.5-0.8-1.1L157.7,2.1z"/>
			<path class="st2" d="M185.1,2.1c0.1-0.6,0.6-1.1,1.1-1.1h14.6c5.4,0,9.3,4.6,9.3,10.3c0,6.7-3.5,11.1-8.8,12.8l4.5,14.2
				c0.2,0.7-0.1,1.4-0.9,1.4h-5.3c-0.6,0-1.1-0.2-1.2-0.9l-4-14.3h-5.3l-2,14.1c-0.1,0.6-0.6,1.1-1.1,1.1h-5.4
				c-0.6,0-0.9-0.5-0.8-1.1L185.1,2.1z M197,18.7c3.5,0,5.8-2.9,5.8-6.4c0-2.5-1.5-4.6-3.6-4.6h-7.6l-1.5,11H197z"/>
			<path class="st2" d="M216.9,2.1c0.1-0.6,0.6-1.1,1.1-1.1h5.4c0.5,0,0.8,0.5,0.8,1.1l-4.4,31H232c0.6,0,0.8,0.5,0.8,1.1l-0.6,4.5
				c-0.1,0.6-0.6,1.1-1.1,1.1h-18.5c-0.6,0-0.9-0.5-0.8-1.1L216.9,2.1z"/>
			<path class="st2" d="M239.8,2.1c0.1-0.6,0.6-1.1,1.1-1.1h5.4c0.5,0,0.9,0.5,0.8,1.1l-5.1,36.6c-0.1,0.6-0.6,1.1-1.1,1.1h-5.4
				c-0.5,0-0.9-0.5-0.8-1.1L239.8,2.1z"/>
			<path class="st2" d="M257.4,7.7h-7.3c-0.6,0-0.9-0.5-0.8-1.1l0.7-4.5c0.1-0.6,0.6-1.1,1.1-1.1h22c0.6,0,0.9,0.5,0.8,1.1l-0.7,4.5
				c-0.1,0.6-0.6,1.1-1.1,1.1h-7.3l-4.4,31c-0.1,0.6-0.6,1.1-1.1,1.1h-5.4c-0.5,0-0.9-0.5-0.8-1.1L257.4,7.7z"/>
			<path class="st2" d="M276.7,2.1c0.1-0.6,0.6-1.1,1.1-1.1h20.5c0.6,0,0.9,0.5,0.8,1.1l-0.7,4.5c-0.1,0.6-0.6,1.1-1.1,1.1h-14.2
				l-1.3,9.1h11.7c0.5,0,0.9,0.5,0.8,1.1l-0.7,4.6c-0.1,0.6-0.6,1.1-1.1,1.1h-11.7l-1.4,9.7h14.2c0.6,0,0.8,0.5,0.8,1.1l-0.6,4.5
				c-0.1,0.6-0.6,1.1-1.1,1.1h-20.5c-0.6,0-0.9-0.5-0.8-1.1L276.7,2.1z"/>
		</g>
		<g>
			<path class="st2" d="M81.9,1.1h1.8c0,0-0.1,0.5-0.1,1.1l-4.2,29.6c-0.1,0.8,0.5,1.5,1.3,1.5h11.5l-0.1,1.1
				c-0.4,3.2-3.1,5.5-6.3,5.5H72.1c-0.6,0-0.9-0.5-0.8-1.1l4.4-32.2C76.1,3.4,78.8,1.1,81.9,1.1z"/>
		</g>
	</g>
	<g>
		<g>
			<path class="st3" d="M71.2,50.7c0-0.1,0.1-0.2,0.2-0.2h2.9c1.5,0,2.7,1,2.7,2.4c0,1-0.9,1.7-1.5,2c0.7,0.3,1.7,0.9,1.7,2.1
				c0,1.4-1.3,2.4-2.8,2.4h-3.1c-0.1,0-0.2-0.1-0.2-0.2V50.7z M74.1,54.1c0.5,0,0.9-0.4,0.9-0.9c0-0.5-0.4-0.9-0.9-0.9h-1v1.8H74.1z
				 M74.3,57.5c0.5,0,0.9-0.4,0.9-0.9c0-0.5-0.5-0.9-1-0.9h-1v1.8H74.3z"/>
			<path class="st3" d="M84.7,50.7c0-0.1,0.1-0.2,0.2-0.2h1.6c0.1,0,0.2,0.1,0.2,0.2v5.1c0,0.9,0.7,1.6,1.6,1.6
				c0.9,0,1.6-0.7,1.6-1.6v-5.1c0-0.1,0.1-0.2,0.2-0.2h1.6c0.1,0,0.2,0.1,0.2,0.2V56c0,1.9-1.6,3.5-3.6,3.5c-2,0-3.6-1.6-3.6-3.5
				V50.7z"/>
			<path class="st3" d="M99.9,50.7c0-0.1,0.1-0.2,0.2-0.2h1.5c0.1,0,0.2,0.1,0.2,0.2v8.4c0,0.1-0.1,0.2-0.2,0.2h-1.5
				c-0.1,0-0.2-0.1-0.2-0.2V50.7z"/>
			<path class="st3" d="M110.1,50.7c0-0.1,0.1-0.2,0.2-0.2h1.5c0.1,0,0.2,0.1,0.2,0.2v6.8h3c0.1,0,0.2,0.1,0.2,0.2v1.4
				c0,0.1-0.1,0.2-0.2,0.2h-4.8c-0.1,0-0.2-0.1-0.2-0.2V50.7z"/>
			<path class="st3" d="M122.5,50.7c0-0.1,0.1-0.2,0.2-0.2h3.1c2.4,0,4.4,2,4.4,4.4c0,2.5-2,4.4-4.4,4.4h-3.1
				c-0.1,0-0.2-0.1-0.2-0.2V50.7z M125.7,57.5c1.4,0,2.5-1.1,2.5-2.6c0-1.4-1-2.6-2.5-2.6h-1.2v5.1H125.7z"/>
			<path class="st3" d="M137.7,50.7c0-0.1,0.1-0.2,0.2-0.2h1.5c0.1,0,0.2,0.1,0.2,0.2v8.4c0,0.1-0.1,0.2-0.2,0.2H138
				c-0.1,0-0.2-0.1-0.2-0.2V50.7z"/>
			<path class="st3" d="M147.8,50.6c0-0.1,0.1-0.2,0.2-0.2h0.3l5.1,4.9h0v-4.5c0-0.1,0.1-0.2,0.2-0.2h1.5c0.1,0,0.2,0.1,0.2,0.2v8.5
				c0,0.1-0.1,0.2-0.2,0.2H155c0,0-0.1,0-0.2-0.1l-5-5h0v4.7c0,0.1-0.1,0.2-0.2,0.2h-1.5c-0.1,0-0.2-0.1-0.2-0.2L147.8,50.6z"/>
			<path class="st3" d="M167.5,50.4c1.1,0,2.2,0.4,3.1,1.2c0.1,0.1,0.1,0.2,0,0.3l-1,1.1c-0.1,0.1-0.2,0.1-0.3,0
				c-0.5-0.4-1-0.6-1.7-0.6c-1.4,0-2.5,1.2-2.5,2.6c0,1.4,1.1,2.5,2.5,2.5c0.4,0,0.7-0.1,1.1-0.2v-0.7h-0.8c-0.1,0-0.2-0.1-0.2-0.2
				V55c0-0.1,0.1-0.2,0.2-0.2h2.5c0.1,0,0.2,0.1,0.2,0.2l0,3.4c0,0.1-0.1,0.2-0.1,0.2c0,0-1.3,0.8-3.1,0.8c-2.5,0-4.5-2-4.5-4.5
				C162.9,52.4,165,50.4,167.5,50.4z"/>
			<path class="st3" d="M187.1,50.7c0-0.1,0.1-0.2,0.2-0.2h3.1c1.6,0,2.8,1.3,2.8,2.8c0,1.6-1.3,2.8-2.8,2.8h-1.3v3
				c0,0.1-0.1,0.2-0.2,0.2h-1.5c-0.1,0-0.2-0.1-0.2-0.2V50.7z M190.3,54.3c0.5,0,1-0.4,1-1c0-0.5-0.5-0.9-1-0.9h-1.2v1.9H190.3z"/>
			<path class="st3" d="M200.5,50.7c0-0.1,0.1-0.2,0.2-0.2h3.8c1.5,0,2.8,1.2,2.8,2.7c0,1.2-0.8,2.1-1.9,2.5l1.7,3.2
				c0.1,0.2,0,0.4-0.2,0.4h-1.7c-0.1,0-0.2-0.1-0.2-0.1l-1.7-3.4h-0.9v3.2c0,0.1-0.1,0.2-0.2,0.2h-1.5c-0.1,0-0.2-0.1-0.2-0.2V50.7z
				 M204.4,54.3c0.5,0,1-0.5,1-1s-0.4-1-1-1h-1.9v2H204.4z"/>
			<path class="st3" d="M218.8,50.4c2.5,0,4.6,2,4.6,4.6c0,2.5-2,4.5-4.6,4.5c-2.5,0-4.5-2-4.5-4.5
				C214.3,52.4,216.3,50.4,218.8,50.4z M218.8,57.5c1.4,0,2.5-1.1,2.5-2.5c0-1.4-1.1-2.5-2.5-2.5c-1.4,0-2.5,1.2-2.5,2.5
				C216.3,56.3,217.4,57.5,218.8,57.5z"/>
			<path class="st3" d="M230.9,50.7c0-0.1,0.1-0.2,0.2-0.2h3.1c2.4,0,4.4,2,4.4,4.4c0,2.5-2,4.4-4.4,4.4h-3.1
				c-0.1,0-0.2-0.1-0.2-0.2V50.7z M234.1,57.5c1.4,0,2.5-1.1,2.5-2.6c0-1.4-1-2.6-2.5-2.6h-1.2v5.1H234.1z"/>
			<path class="st3" d="M246,50.7c0-0.1,0.1-0.2,0.2-0.2h1.6c0.1,0,0.2,0.1,0.2,0.2v5.1c0,0.9,0.7,1.6,1.6,1.6
				c0.9,0,1.6-0.7,1.6-1.6v-5.1c0-0.1,0.1-0.2,0.2-0.2h1.6c0.1,0,0.2,0.1,0.2,0.2V56c0,1.9-1.6,3.5-3.6,3.5c-2,0-3.6-1.6-3.6-3.5
				V50.7z"/>
			<path class="st3" d="M265.1,50.4c1.3,0,2.2,0.4,3.1,1.2c0.1,0.1,0.1,0.3,0,0.4l-1,1c-0.1,0.1-0.2,0.1-0.3,0
				c-0.5-0.4-1.1-0.6-1.7-0.6c-1.4,0-2.5,1.2-2.5,2.6c0,1.4,1.1,2.6,2.5,2.6c0.6,0,1.2-0.2,1.7-0.6c0.1-0.1,0.3-0.1,0.3,0l1,1.1
				c0.1,0.1,0.1,0.3,0,0.3c-0.9,0.8-1.9,1.2-3.1,1.2c-2.5,0-4.6-2-4.6-4.5C260.5,52.4,262.6,50.4,265.1,50.4z"/>
			<path class="st3" d="M276.8,52.3H275c-0.1,0-0.2-0.1-0.2-0.2v-1.4c0-0.1,0.1-0.2,0.2-0.2h5.6c0.1,0,0.2,0.1,0.2,0.2v1.4
				c0,0.1-0.1,0.2-0.2,0.2h-1.8v6.8c0,0.1-0.1,0.2-0.2,0.2H277c-0.1,0-0.2-0.1-0.2-0.2V52.3z"/>
			<path class="st3" d="M287.5,58.1l0.6-1.1c0.1-0.2,0.3-0.1,0.4-0.1c0.1,0,1,0.7,1.8,0.7c0.5,0,0.9-0.3,0.9-0.8
				c0-0.5-0.4-0.9-1.3-1.3c-1.1-0.4-2.5-1.3-2.5-2.8c0-1.3,1-2.5,2.9-2.5c1.3,0,2.3,0.7,2.7,0.9c0.2,0.1,0.1,0.3,0.1,0.4l-0.6,1
				c-0.1,0.1-0.3,0.3-0.4,0.2c-0.1-0.1-1-0.8-1.8-0.8c-0.5,0-0.8,0.3-0.8,0.6c0,0.5,0.4,0.8,1.4,1.2c1,0.4,2.6,1.2,2.6,2.9
				c0,1.3-1.1,2.6-3,2.6c-1.6,0-2.6-0.7-2.8-1C287.5,58.4,287.4,58.3,287.5,58.1z"/>
		</g>
	</g>
</g>
</svg>
