<svg xmlns="http://www.w3.org/2000/svg" xmlns:xlink="http://www.w3.org/1999/xlink" width="202.646" height="56" viewBox="0 0 202.646 56"><defs><linearGradient id="a" x1="62.773" y1="0.524" x2="63.493" y2="1.511" gradientTransform="matrix(28.394, 0, 0, -35.885, -1606.358, 51.411)" gradientUnits="userSpaceOnUse"><stop offset="0.067" stop-color="#006cb5"></stop><stop offset="0.436" stop-color="#53c9f4"></stop><stop offset="0.791" stop-color="#006cb5"></stop></linearGradient><linearGradient id="b" x1="63.124" y1="0.343" x2="63.854" y2="1.483" gradientTransform="matrix(32.328, 0, 0, -35.91, -1896.709, 51.462)" xlink:href="#a"></linearGradient><linearGradient id="c" x1="63.36" y1="0.534" x2="63.941" y2="1.43" gradientTransform="matrix(33.195, 0, 0, -37.249, -1989.394, 54.747)" xlink:href="#a"></linearGradient><linearGradient id="d" x1="63.579" y1="0.223" x2="64.153" y2="1.259" gradientTransform="matrix(37.464, 0, 0, -35.885, -2301.836, 51.41)" xlink:href="#a"></linearGradient><linearGradient id="e" x1="62.497" y1="0.507" x2="63.291" y2="1.421" gradientTransform="matrix(24.749, 0, 0, -37.248, -1498.818, 54.747)" xlink:href="#a"></linearGradient><linearGradient id="f" x1="63.087" y1="0.526" x2="63.733" y2="1.542" gradientTransform="matrix(32.457, 0, 0, -35.704, -2029.824, 51.049)" xlink:href="#a"></linearGradient><linearGradient id="g" x1="65.008" y1="0.375" x2="65.245" y2="1.885" gradientTransform="matrix(202.33, 0, 0, -55.095, -13086.448, 109.19)" xlink:href="#a"></linearGradient></defs><path d="M183.017,36.641V7.494h-8.765V.756h28.394V7.494h-8.774V36.641Z" fill="url(#a)"></path><path d="M171.938,36.641H161.066V20.105H150.5V36.642H139.61V.732H150.5V13.358h10.566V.747h10.872Z" fill="url(#b)"></path><path d="M136.475,20.168V35.394a39.781,39.781,0,0,1-11.321,1.855c-11.994,0-21.874-7.2-21.874-18.973C103.28,7.366,112.294,0,124.486,0a27.562,27.562,0,0,1,9.206,1.8l-2.668,6.372a28.674,28.674,0,0,0-5.977-.667c-5.147,0-10.434,3.346-10.434,11.167,0,7.667,5.7,11.056,9.407,11.056a5.733,5.733,0,0,0,1.593-.244V20.167Z" fill="url(#c)"></path><path d="M82.159,22.5,76.925,36.64h-8.6L82.989.755h9.1l13.7,35.885H94.242l-2.227-6.687-2.453-7.448,6.529-4.493H88.139l-2.193-7.355L83.68,18.011H75.934L82.158,22.5Z" fill="url(#d)"></path><path d="M65.815,8.081a10.288,10.288,0,0,0-5.3-1.339c-2.107,0-3.186,1.032-3.186,2.213,0,2.007,3.037,3.657,6.528,6.9,4.627,4.313,5.759,7.047,5.759,10.795,0,3.186-2.614,10.6-13.429,10.6-4.206,0-8.443-.977-11.32-3.294l3.294-5.967a10.213,10.213,0,0,0,6.186,2.524c2.159,0,4.52-1.078,4.52-3.767,0-2.872-3.495-4.969-6.328-7.458-3.767-3.276-5.967-5.181-5.967-9.6C46.572,3.918,52.383,0,59.167,0a19.115,19.115,0,0,1,9.419,2.419Z" fill="url(#e)"></path><path d="M25.37,36.641v-14L14.881.969,26.691.952l5.314,14.962h0L38.338.937h9l-11.117,21.7v14Z" fill="url(#f)"></path><path d="M11.2,52.26c35.743,5.989,72.811-3.3,109.779-5.54,26.884-2.238,54.468,3.678,81.351,9.28h0c-22.889-9.612-54.467-18-81.351-15.755C84.013,42.485,48.168,47.768,11.2,42.171V.905H0V50.148S5.775,51.523,11.2,52.26Z" fill="url(#g)"></path></svg>