<svg id="Versiclad-Logo-RGB_charcoal" xmlns="http://www.w3.org/2000/svg" width="151.842" height="32" viewBox="0 0 151.842 32">
  <path id="Path_1" data-name="Path 1" d="M242.678,10.739a10.793,10.793,0,0,1,5.273,1.294l.786-1.8a11.457,11.457,0,0,0-5.823-1.389c-6.658,0-11.464,4.809-11.464,11.832s4.251,11.373,10.678,11.373a14.315,14.315,0,0,0,6.472-1.477l-.6-1.712a13.068,13.068,0,0,1-5.546,1.249c-5.132,0-8.784-3.792-8.784-9.57,0-5.223,3.052-9.8,9.012-9.8m9.539,21.3h2.171V.08h-2.171V32.042Zm20.931-14.417c0-3.974-1.2-8.784-7.626-8.784a12.018,12.018,0,0,0-6.472,1.894l.695,1.617a9.426,9.426,0,0,1,5.546-1.663c5.273-.046,5.686,4.346,5.686,6.563V17.8c-9.015-.095-13.548,3-13.548,8.135,0,2.957,2.08,6.1,6.518,6.1a8.323,8.323,0,0,0,7.072-3.7h.14l.323,3.693h1.989a47.729,47.729,0,0,1-.323-5.774V17.617Zm-2.171,6.795a4.873,4.873,0,0,1-.232,1.34,6.681,6.681,0,0,1-6.563,4.437,4.243,4.243,0,0,1-4.437-4.623c0-5.314,6.381-6.055,11.236-5.918v4.76Zm24.268,1.944V.08h-2.171V12.728h-.091a7.953,7.953,0,0,0-7.258-3.883c-5.455,0-10.029,4.623-9.983,12.018,0,6.613,4.115,11.187,9.57,11.187a8.4,8.4,0,0,0,7.9-4.715h.091l.137,4.711h1.989c-.091-1.572-.186-4.016-.186-5.679m-2.171-3.792a7.675,7.675,0,0,1-.232,1.849,7.351,7.351,0,0,1-7.117,5.777c-5.269,0-7.763-4.574-7.763-9.57,0-5.777,3.048-9.987,7.9-9.987A7.19,7.19,0,0,1,292.85,16.1a10.043,10.043,0,0,1,.232,2.035v4.437Z" transform="translate(-143.592 -0.05)" fill="#3b3b3c"/>
  <path id="Path_2" data-name="Path 2" d="M35.8,8.765c-7.121,0-10.864,5.8-10.864,11.961C24.936,27.528,29.18,32,36.392,32a20.828,20.828,0,0,0,7.763-1.416L43.331,26.7a16.73,16.73,0,0,1-6.161,1.006c-3.561,0-6.711-1.735-6.848-5.751H45.206a13.84,13.84,0,0,0,.182-2.372c0-4.882-2.327-10.818-9.585-10.818m-5.478,9.266c.228-2.281,1.689-5.432,5.159-5.432,3.743,0,4.654,3.378,4.612,5.432ZM52.6,13.514h-.182L52.232,9.27H47.347c.137,2.008.182,4.153.182,7.167V32h5.614V20a9.662,9.662,0,0,1,.182-1.735,4.948,4.948,0,0,1,5.022-4.244,7.829,7.829,0,0,1,1.644.182v-5.3a5.921,5.921,0,0,0-1.325-.137,6.628,6.628,0,0,0-6.07,4.745m18.57,4.7c-2.832-1.006-3.879-1.689-3.879-3.105s1.1-2.331,3.105-2.331a9.849,9.849,0,0,1,4.7,1.279l1.093-3.971A13.063,13.063,0,0,0,70.3,8.765c-5.159,0-8.4,3.056-8.4,6.985-.046,2.6,1.78,4.977,6.115,6.484,2.741.96,3.652,1.735,3.652,3.242s-1.1,2.464-3.561,2.464a12.488,12.488,0,0,1-5.705-1.6L61.309,30.4A14.294,14.294,0,0,0,68.062,32c5.891,0,9.038-2.968,9.038-6.985-.046-3.287-1.917-5.341-5.933-6.8m8.461,13.779h5.66V9.266h-5.66V31.992ZM82.414,6.074a2.977,2.977,0,0,0,3.2-3.014,3.152,3.152,0,0,0-6.3,0,2.925,2.925,0,0,0,3.1,3.014M0,.03,11.544,32h5.823L5.823.03Z" fill="#3b3b3c"/>
  <path id="Path_3" data-name="Path 3" d="M47.926.08l-7.9,21.865,2.912,8.066L53.749.08Z" transform="translate(-24.835 -0.05)" fill="#3b3b3c"/>
</svg>
