<svg xmlns="http://www.w3.org/2000/svg" xmlns:xlink="http://www.w3.org/1999/xlink" width="500" zoomAndPan="magnify" viewBox="0 0 375 374.999991" height="500" preserveAspectRatio="xMidYMid meet" version="1.0"><defs><g/></defs><g fill="#ff914d" fill-opacity="1"><g transform="translate(102.210936, 179.749983)"><g><path d="M 39.234375 -21.03125 L 39.234375 -4.0625 C 37.109375 -2.5 34.84375 -1.351562 32.4375 -0.625 C 30.03125 0.101562 27.453125 0.46875 24.703125 0.46875 C 21.285156 0.46875 18.1875 -0.0625 15.40625 -1.125 C 12.632812 -2.1875 10.265625 -3.664062 8.296875 -5.5625 C 6.335938 -7.457031 4.828125 -9.71875 3.765625 -12.34375 C 2.703125 -14.976562 2.171875 -17.851562 2.171875 -20.96875 C 2.171875 -24.113281 2.679688 -27 3.703125 -29.625 C 4.734375 -32.257812 6.191406 -34.523438 8.078125 -36.421875 C 9.960938 -38.316406 12.25 -39.785156 14.9375 -40.828125 C 17.625 -41.867188 20.640625 -42.390625 23.984375 -42.390625 C 25.679688 -42.390625 27.269531 -42.253906 28.75 -41.984375 C 30.226562 -41.722656 31.597656 -41.351562 32.859375 -40.875 C 34.128906 -40.40625 35.285156 -39.832031 36.328125 -39.15625 C 37.378906 -38.476562 38.335938 -37.734375 39.203125 -36.921875 L 36.96875 -33.375 C 36.625 -32.8125 36.171875 -32.46875 35.609375 -32.34375 C 35.046875 -32.21875 34.4375 -32.359375 33.78125 -32.765625 C 33.144531 -33.140625 32.503906 -33.507812 31.859375 -33.875 C 31.222656 -34.238281 30.515625 -34.554688 29.734375 -34.828125 C 28.953125 -35.097656 28.070312 -35.316406 27.09375 -35.484375 C 26.125 -35.660156 25 -35.75 23.71875 -35.75 C 21.65625 -35.75 19.785156 -35.398438 18.109375 -34.703125 C 16.441406 -34.015625 15.015625 -33.019531 13.828125 -31.71875 C 12.648438 -30.425781 11.742188 -28.867188 11.109375 -27.046875 C 10.472656 -25.234375 10.15625 -23.207031 10.15625 -20.96875 C 10.15625 -18.570312 10.492188 -16.429688 11.171875 -14.546875 C 11.859375 -12.660156 12.828125 -11.0625 14.078125 -9.75 C 15.328125 -8.445312 16.832031 -7.453125 18.59375 -6.765625 C 20.351562 -6.078125 22.3125 -5.734375 24.46875 -5.734375 C 26.019531 -5.734375 27.40625 -5.898438 28.625 -6.234375 C 29.84375 -6.566406 31.03125 -7.007812 32.1875 -7.5625 L 32.1875 -15.171875 L 26.90625 -15.171875 C 26.40625 -15.171875 26.015625 -15.3125 25.734375 -15.59375 C 25.453125 -15.875 25.3125 -16.210938 25.3125 -16.609375 L 25.3125 -21.03125 Z M 39.234375 -21.03125 "/></g></g></g><g fill="#ff914d" fill-opacity="1"><g transform="translate(144.316139, 179.749983)"><g><path d="M 29.171875 -29.75 L 29.171875 0 L 24.796875 0 C 23.847656 0 23.25 -0.4375 23 -1.3125 L 22.5 -3.6875 C 21.28125 -2.445312 19.9375 -1.441406 18.46875 -0.671875 C 17 0.0859375 15.269531 0.46875 13.28125 0.46875 C 11.65625 0.46875 10.21875 0.191406 8.96875 -0.359375 C 7.726562 -0.910156 6.679688 -1.6875 5.828125 -2.6875 C 4.972656 -3.695312 4.328125 -4.894531 3.890625 -6.28125 C 3.460938 -7.664062 3.25 -9.1875 3.25 -10.84375 L 3.25 -29.75 L 10.40625 -29.75 L 10.40625 -10.84375 C 10.40625 -9.03125 10.828125 -7.625 11.671875 -6.625 C 12.515625 -5.632812 13.773438 -5.140625 15.453125 -5.140625 C 16.691406 -5.140625 17.851562 -5.410156 18.9375 -5.953125 C 20.019531 -6.503906 21.046875 -7.265625 22.015625 -8.234375 L 22.015625 -29.75 Z M 29.171875 -29.75 "/></g></g></g><g fill="#ff914d" fill-opacity="1"><g transform="translate(177.025972, 179.749983)"><g><path d="M 13.453125 0.46875 C 10.859375 0.46875 8.867188 -0.257812 7.484375 -1.71875 C 6.109375 -3.1875 5.421875 -5.203125 5.421875 -7.765625 L 5.421875 -24.390625 L 2.375 -24.390625 C 1.988281 -24.390625 1.660156 -24.515625 1.390625 -24.765625 C 1.117188 -25.015625 0.984375 -25.390625 0.984375 -25.890625 L 0.984375 -28.734375 L 5.765625 -29.515625 L 7.28125 -37.640625 C 7.375 -38.023438 7.554688 -38.320312 7.828125 -38.53125 C 8.097656 -38.75 8.445312 -38.859375 8.875 -38.859375 L 12.59375 -38.859375 L 12.59375 -29.5 L 20.53125 -29.5 L 20.53125 -24.390625 L 12.59375 -24.390625 L 12.59375 -8.265625 C 12.59375 -7.335938 12.816406 -6.613281 13.265625 -6.09375 C 13.722656 -5.570312 14.347656 -5.3125 15.140625 -5.3125 C 15.585938 -5.3125 15.957031 -5.363281 16.25 -5.46875 C 16.550781 -5.570312 16.8125 -5.679688 17.03125 -5.796875 C 17.257812 -5.910156 17.457031 -6.019531 17.625 -6.125 C 17.800781 -6.238281 17.976562 -6.296875 18.15625 -6.296875 C 18.363281 -6.296875 18.535156 -6.238281 18.671875 -6.125 C 18.804688 -6.019531 18.953125 -5.863281 19.109375 -5.65625 L 21.25 -2.171875 C 20.207031 -1.304688 19.007812 -0.648438 17.65625 -0.203125 C 16.300781 0.242188 14.898438 0.46875 13.453125 0.46875 Z M 13.453125 0.46875 "/></g></g></g><g fill="#ff914d" fill-opacity="1"><g transform="translate(198.600544, 179.749983)"><g><path d="M 13.453125 0.46875 C 10.859375 0.46875 8.867188 -0.257812 7.484375 -1.71875 C 6.109375 -3.1875 5.421875 -5.203125 5.421875 -7.765625 L 5.421875 -24.390625 L 2.375 -24.390625 C 1.988281 -24.390625 1.660156 -24.515625 1.390625 -24.765625 C 1.117188 -25.015625 0.984375 -25.390625 0.984375 -25.890625 L 0.984375 -28.734375 L 5.765625 -29.515625 L 7.28125 -37.640625 C 7.375 -38.023438 7.554688 -38.320312 7.828125 -38.53125 C 8.097656 -38.75 8.445312 -38.859375 8.875 -38.859375 L 12.59375 -38.859375 L 12.59375 -29.5 L 20.53125 -29.5 L 20.53125 -24.390625 L 12.59375 -24.390625 L 12.59375 -8.265625 C 12.59375 -7.335938 12.816406 -6.613281 13.265625 -6.09375 C 13.722656 -5.570312 14.347656 -5.3125 15.140625 -5.3125 C 15.585938 -5.3125 15.957031 -5.363281 16.25 -5.46875 C 16.550781 -5.570312 16.8125 -5.679688 17.03125 -5.796875 C 17.257812 -5.910156 17.457031 -6.019531 17.625 -6.125 C 17.800781 -6.238281 17.976562 -6.296875 18.15625 -6.296875 C 18.363281 -6.296875 18.535156 -6.238281 18.671875 -6.125 C 18.804688 -6.019531 18.953125 -5.863281 19.109375 -5.65625 L 21.25 -2.171875 C 20.207031 -1.304688 19.007812 -0.648438 17.65625 -0.203125 C 16.300781 0.242188 14.898438 0.46875 13.453125 0.46875 Z M 13.453125 0.46875 "/></g></g></g><g fill="#ff914d" fill-opacity="1"><g transform="translate(220.175116, 179.749983)"><g><path d="M 22.703125 -18.296875 C 22.703125 -19.222656 22.570312 -20.097656 22.3125 -20.921875 C 22.050781 -21.742188 21.660156 -22.460938 21.140625 -23.078125 C 20.617188 -23.703125 19.957031 -24.191406 19.15625 -24.546875 C 18.351562 -24.898438 17.421875 -25.078125 16.359375 -25.078125 C 14.285156 -25.078125 12.65625 -24.488281 11.46875 -23.3125 C 10.28125 -22.132812 9.519531 -20.460938 9.1875 -18.296875 Z M 9.046875 -13.984375 C 9.160156 -12.453125 9.429688 -11.128906 9.859375 -10.015625 C 10.285156 -8.910156 10.847656 -7.992188 11.546875 -7.265625 C 12.242188 -6.535156 13.066406 -5.992188 14.015625 -5.640625 C 14.972656 -5.285156 16.035156 -5.109375 17.203125 -5.109375 C 18.359375 -5.109375 19.351562 -5.242188 20.1875 -5.515625 C 21.03125 -5.785156 21.765625 -6.082031 22.390625 -6.40625 C 23.023438 -6.738281 23.578125 -7.039062 24.046875 -7.3125 C 24.523438 -7.582031 24.988281 -7.71875 25.4375 -7.71875 C 26.03125 -7.71875 26.472656 -7.492188 26.765625 -7.046875 L 28.828125 -4.4375 C 28.035156 -3.507812 27.144531 -2.726562 26.15625 -2.09375 C 25.164062 -1.46875 24.132812 -0.96875 23.0625 -0.59375 C 21.988281 -0.21875 20.894531 0.046875 19.78125 0.203125 C 18.675781 0.359375 17.601562 0.4375 16.5625 0.4375 C 14.488281 0.4375 12.5625 0.09375 10.78125 -0.59375 C 9.007812 -1.28125 7.460938 -2.296875 6.140625 -3.640625 C 4.828125 -4.984375 3.789062 -6.644531 3.03125 -8.625 C 2.28125 -10.601562 1.90625 -12.898438 1.90625 -15.515625 C 1.90625 -17.546875 2.234375 -19.453125 2.890625 -21.234375 C 3.554688 -23.023438 4.5 -24.582031 5.71875 -25.90625 C 6.945312 -27.226562 8.445312 -28.273438 10.21875 -29.046875 C 11.988281 -29.828125 13.988281 -30.21875 16.21875 -30.21875 C 18.09375 -30.21875 19.820312 -29.914062 21.40625 -29.3125 C 22.988281 -28.71875 24.347656 -27.84375 25.484375 -26.6875 C 26.628906 -25.539062 27.523438 -24.128906 28.171875 -22.453125 C 28.816406 -20.785156 29.140625 -18.878906 29.140625 -16.734375 C 29.140625 -15.648438 29.023438 -14.921875 28.796875 -14.546875 C 28.566406 -14.171875 28.125 -13.984375 27.46875 -13.984375 Z M 9.046875 -13.984375 "/></g></g></g><g fill="#ff914d" fill-opacity="1"><g transform="translate(251.145058, 179.749983)"><g><path d="M 10.296875 -24.59375 C 11.222656 -26.375 12.320312 -27.769531 13.59375 -28.78125 C 14.875 -29.800781 16.382812 -30.3125 18.125 -30.3125 C 19.5 -30.3125 20.601562 -30.007812 21.4375 -29.40625 L 20.96875 -24.046875 C 20.875 -23.691406 20.734375 -23.441406 20.546875 -23.296875 C 20.359375 -23.148438 20.113281 -23.078125 19.8125 -23.078125 C 19.519531 -23.078125 19.085938 -23.125 18.515625 -23.21875 C 17.941406 -23.320312 17.382812 -23.375 16.84375 -23.375 C 16.050781 -23.375 15.34375 -23.253906 14.71875 -23.015625 C 14.101562 -22.785156 13.550781 -22.453125 13.0625 -22.015625 C 12.570312 -21.585938 12.132812 -21.0625 11.75 -20.4375 C 11.375 -19.820312 11.023438 -19.117188 10.703125 -18.328125 L 10.703125 0 L 3.53125 0 L 3.53125 -29.75 L 7.75 -29.75 C 8.476562 -29.75 8.988281 -29.617188 9.28125 -29.359375 C 9.570312 -29.097656 9.765625 -28.628906 9.859375 -27.953125 Z M 10.296875 -24.59375 "/></g></g></g><g fill="#00167a" fill-opacity="1"><g transform="translate(175.453119, 210.316421)"><g><path d="M 10.59375 -24.953125 C 11.789062 -24.953125 12.898438 -24.734375 13.921875 -24.296875 C 14.941406 -23.867188 15.765625 -23.265625 16.390625 -22.484375 C 17.015625 -21.703125 17.328125 -20.78125 17.328125 -19.71875 C 17.328125 -19.289062 17.238281 -18.820312 17.0625 -18.3125 C 16.882812 -17.800781 16.582031 -17.257812 16.15625 -16.6875 C 15.738281 -16.113281 15.148438 -15.519531 14.390625 -14.90625 C 13.640625 -14.289062 12.679688 -13.675781 11.515625 -13.0625 L 16.890625 -6.75 C 17.109375 -7.050781 17.375 -7.507812 17.6875 -8.125 C 18 -8.75 18.289062 -9.488281 18.5625 -10.34375 C 18.832031 -11.207031 19 -12.175781 19.0625 -13.25 L 22.15625 -13.25 C 21.988281 -12.070312 21.71875 -10.992188 21.34375 -10.015625 C 20.976562 -9.046875 20.539062 -8.132812 20.03125 -7.28125 C 19.53125 -6.4375 19.007812 -5.628906 18.46875 -4.859375 L 22.609375 0 L 18.9375 0 L 16.5625 -2.734375 C 15.3125 -1.710938 14.035156 -0.972656 12.734375 -0.515625 C 11.441406 -0.0546875 10.160156 0.171875 8.890625 0.171875 C 7.296875 0.171875 5.941406 -0.09375 4.828125 -0.625 C 3.722656 -1.164062 2.890625 -1.910156 2.328125 -2.859375 C 1.765625 -3.816406 1.484375 -4.921875 1.484375 -6.171875 C 1.484375 -7.242188 1.691406 -8.210938 2.109375 -9.078125 C 2.535156 -9.953125 3.179688 -10.753906 4.046875 -11.484375 C 4.921875 -12.222656 6.007812 -12.941406 7.3125 -13.640625 C 6.675781 -14.316406 6.128906 -14.96875 5.671875 -15.59375 C 5.210938 -16.226562 4.859375 -16.863281 4.609375 -17.5 C 4.367188 -18.144531 4.25 -18.828125 4.25 -19.546875 C 4.25 -20.566406 4.515625 -21.484375 5.046875 -22.296875 C 5.585938 -23.117188 6.332031 -23.765625 7.28125 -24.234375 C 8.238281 -24.710938 9.34375 -24.953125 10.59375 -24.953125 Z M 10.703125 -22.796875 C 9.628906 -22.785156 8.8125 -22.476562 8.25 -21.875 C 7.6875 -21.269531 7.40625 -20.554688 7.40625 -19.734375 C 7.40625 -19.179688 7.523438 -18.628906 7.765625 -18.078125 C 8.003906 -17.523438 8.285156 -17.019531 8.609375 -16.5625 C 8.941406 -16.113281 9.238281 -15.75 9.5 -15.46875 L 10.09375 -14.8125 C 11.289062 -15.5 12.195312 -16.113281 12.8125 -16.65625 C 13.4375 -17.195312 13.863281 -17.707031 14.09375 -18.1875 C 14.332031 -18.675781 14.453125 -19.164062 14.453125 -19.65625 C 14.453125 -20.414062 14.265625 -21.023438 13.890625 -21.484375 C 13.523438 -21.953125 13.054688 -22.289062 12.484375 -22.5 C 11.910156 -22.707031 11.316406 -22.804688 10.703125 -22.796875 Z M 8.90625 -11.734375 C 7.726562 -11.085938 6.757812 -10.300781 6 -9.375 C 5.238281 -8.445312 4.890625 -7.40625 4.953125 -6.25 C 4.992188 -5.445312 5.226562 -4.753906 5.65625 -4.171875 C 6.09375 -3.585938 6.648438 -3.132812 7.328125 -2.8125 C 8.015625 -2.5 8.765625 -2.34375 9.578125 -2.34375 C 10.523438 -2.34375 11.476562 -2.554688 12.4375 -2.984375 C 13.40625 -3.410156 14.253906 -3.972656 14.984375 -4.671875 Z M 8.90625 -11.734375 "/></g></g></g><g fill="#ff914d" fill-opacity="1"><g transform="translate(102.210936, 249.149969)"><g><path d="M 12.5 -35.734375 L 12.5 -23.3125 L 28.21875 -23.3125 L 28.21875 -17.078125 L 12.5 -17.078125 L 12.5 0 L 4.671875 0 L 4.671875 -41.9375 L 31.109375 -41.9375 L 31.109375 -35.734375 Z M 12.5 -35.734375 "/></g></g></g><g fill="#ff914d" fill-opacity="1"><g transform="translate(135.036755, 249.149969)"><g><path d="M 10.78125 -43.09375 L 10.78125 0 L 3.625 0 L 3.625 -43.09375 Z M 10.78125 -43.09375 "/></g></g></g><g fill="#ff914d" fill-opacity="1"><g transform="translate(149.448802, 249.149969)"><g><path d="M 19.25 -12.703125 C 17.1875 -12.609375 15.445312 -12.429688 14.03125 -12.171875 C 12.625 -11.910156 11.492188 -11.578125 10.640625 -11.171875 C 9.785156 -10.765625 9.175781 -10.289062 8.8125 -9.75 C 8.445312 -9.207031 8.265625 -8.613281 8.265625 -7.96875 C 8.265625 -6.71875 8.632812 -5.820312 9.375 -5.28125 C 10.125 -4.738281 11.097656 -4.46875 12.296875 -4.46875 C 13.765625 -4.46875 15.035156 -4.734375 16.109375 -5.265625 C 17.179688 -5.796875 18.226562 -6.601562 19.25 -7.6875 Z M 2.84375 -25.609375 C 6.257812 -28.742188 10.378906 -30.3125 15.203125 -30.3125 C 16.941406 -30.3125 18.492188 -30.023438 19.859375 -29.453125 C 21.234375 -28.878906 22.394531 -28.082031 23.34375 -27.0625 C 24.289062 -26.050781 25.007812 -24.835938 25.5 -23.421875 C 26 -22.015625 26.25 -20.472656 26.25 -18.796875 L 26.25 0 L 23 0 C 22.320312 0 21.796875 -0.0976562 21.421875 -0.296875 C 21.054688 -0.503906 20.769531 -0.914062 20.5625 -1.53125 L 19.921875 -3.6875 C 19.171875 -3.007812 18.4375 -2.410156 17.71875 -1.890625 C 17 -1.378906 16.253906 -0.953125 15.484375 -0.609375 C 14.710938 -0.265625 13.882812 0 13 0.1875 C 12.125 0.375 11.15625 0.46875 10.09375 0.46875 C 8.832031 0.46875 7.671875 0.300781 6.609375 -0.03125 C 5.546875 -0.375 4.628906 -0.882812 3.859375 -1.5625 C 3.085938 -2.238281 2.488281 -3.078125 2.0625 -4.078125 C 1.632812 -5.085938 1.421875 -6.257812 1.421875 -7.59375 C 1.421875 -8.351562 1.546875 -9.101562 1.796875 -9.84375 C 2.046875 -10.59375 2.457031 -11.300781 3.03125 -11.96875 C 3.601562 -12.644531 4.34375 -13.285156 5.25 -13.890625 C 6.15625 -14.492188 7.269531 -15.015625 8.59375 -15.453125 C 9.914062 -15.898438 11.457031 -16.265625 13.21875 -16.546875 C 14.976562 -16.828125 16.988281 -16.992188 19.25 -17.046875 L 19.25 -18.796875 C 19.25 -20.785156 18.820312 -22.257812 17.96875 -23.21875 C 17.125 -24.175781 15.898438 -24.65625 14.296875 -24.65625 C 13.140625 -24.65625 12.175781 -24.519531 11.40625 -24.25 C 10.644531 -23.976562 9.972656 -23.671875 9.390625 -23.328125 C 8.816406 -22.992188 8.289062 -22.691406 7.8125 -22.421875 C 7.34375 -22.148438 6.816406 -22.015625 6.234375 -22.015625 C 5.734375 -22.015625 5.304688 -22.144531 4.953125 -22.40625 C 4.609375 -22.664062 4.332031 -22.96875 4.125 -23.3125 Z M 2.84375 -25.609375 "/></g></g></g><g fill="#ff914d" fill-opacity="1"><g transform="translate(178.881848, 249.149969)"><g><path d="M 21.6875 -23.953125 C 21.5 -23.640625 21.296875 -23.421875 21.078125 -23.296875 C 20.867188 -23.171875 20.597656 -23.109375 20.265625 -23.109375 C 19.921875 -23.109375 19.550781 -23.203125 19.15625 -23.390625 C 18.757812 -23.585938 18.300781 -23.804688 17.78125 -24.046875 C 17.257812 -24.296875 16.664062 -24.515625 16 -24.703125 C 15.332031 -24.898438 14.539062 -25 13.625 -25 C 12.21875 -25 11.113281 -24.695312 10.3125 -24.09375 C 9.507812 -23.5 9.109375 -22.71875 9.109375 -21.75 C 9.109375 -21.113281 9.316406 -20.578125 9.734375 -20.140625 C 10.148438 -19.703125 10.695312 -19.316406 11.375 -18.984375 C 12.0625 -18.660156 12.835938 -18.367188 13.703125 -18.109375 C 14.578125 -17.847656 15.460938 -17.5625 16.359375 -17.25 C 17.265625 -16.945312 18.148438 -16.597656 19.015625 -16.203125 C 19.890625 -15.804688 20.671875 -15.300781 21.359375 -14.6875 C 22.046875 -14.082031 22.597656 -13.351562 23.015625 -12.5 C 23.429688 -11.644531 23.640625 -10.617188 23.640625 -9.421875 C 23.640625 -7.992188 23.378906 -6.675781 22.859375 -5.46875 C 22.347656 -4.257812 21.585938 -3.210938 20.578125 -2.328125 C 19.578125 -1.453125 18.335938 -0.765625 16.859375 -0.265625 C 15.378906 0.222656 13.675781 0.46875 11.75 0.46875 C 10.71875 0.46875 9.710938 0.375 8.734375 0.1875 C 7.765625 0 6.828125 -0.253906 5.921875 -0.578125 C 5.023438 -0.910156 4.195312 -1.296875 3.4375 -1.734375 C 2.675781 -2.179688 2.003906 -2.664062 1.421875 -3.1875 L 3.078125 -5.921875 C 3.285156 -6.242188 3.535156 -6.492188 3.828125 -6.671875 C 4.117188 -6.847656 4.488281 -6.9375 4.9375 -6.9375 C 5.375 -6.9375 5.789062 -6.804688 6.1875 -6.546875 C 6.582031 -6.296875 7.039062 -6.023438 7.5625 -5.734375 C 8.09375 -5.453125 8.707031 -5.179688 9.40625 -4.921875 C 10.113281 -4.671875 11.007812 -4.546875 12.09375 -4.546875 C 12.945312 -4.546875 13.675781 -4.644531 14.28125 -4.84375 C 14.894531 -5.050781 15.398438 -5.316406 15.796875 -5.640625 C 16.191406 -5.972656 16.476562 -6.359375 16.65625 -6.796875 C 16.84375 -7.234375 16.9375 -7.6875 16.9375 -8.15625 C 16.9375 -8.84375 16.726562 -9.410156 16.3125 -9.859375 C 15.894531 -10.304688 15.34375 -10.691406 14.65625 -11.015625 C 13.96875 -11.347656 13.179688 -11.644531 12.296875 -11.90625 C 11.421875 -12.164062 10.523438 -12.445312 9.609375 -12.75 C 8.691406 -13.0625 7.789062 -13.425781 6.90625 -13.84375 C 6.03125 -14.257812 5.25 -14.785156 4.5625 -15.421875 C 3.875 -16.066406 3.320312 -16.851562 2.90625 -17.78125 C 2.5 -18.707031 2.296875 -19.828125 2.296875 -21.140625 C 2.296875 -22.359375 2.535156 -23.519531 3.015625 -24.625 C 3.492188 -25.726562 4.203125 -26.6875 5.140625 -27.5 C 6.078125 -28.320312 7.25 -28.976562 8.65625 -29.46875 C 10.0625 -29.96875 11.679688 -30.21875 13.515625 -30.21875 C 15.566406 -30.21875 17.429688 -29.878906 19.109375 -29.203125 C 20.796875 -28.523438 22.195312 -27.632812 23.3125 -26.53125 Z M 21.6875 -23.953125 "/></g></g></g><g fill="#ff914d" fill-opacity="1"><g transform="translate(204.371157, 249.149969)"><g><path d="M 10.703125 -26.5625 C 11.859375 -27.644531 13.128906 -28.523438 14.515625 -29.203125 C 15.910156 -29.878906 17.550781 -30.21875 19.4375 -30.21875 C 21.050781 -30.21875 22.488281 -29.941406 23.75 -29.390625 C 25.007812 -28.835938 26.054688 -28.0625 26.890625 -27.0625 C 27.734375 -26.070312 28.375 -24.882812 28.8125 -23.5 C 29.25 -22.125 29.46875 -20.601562 29.46875 -18.9375 L 29.46875 0 L 22.296875 0 L 22.296875 -18.9375 C 22.296875 -20.75 21.878906 -22.15625 21.046875 -23.15625 C 20.222656 -24.15625 18.957031 -24.65625 17.25 -24.65625 C 16.019531 -24.65625 14.863281 -24.375 13.78125 -23.8125 C 12.695312 -23.25 11.671875 -22.484375 10.703125 -21.515625 L 10.703125 0 L 3.53125 0 L 3.53125 -43.09375 L 10.703125 -43.09375 Z M 10.703125 -26.5625 "/></g></g></g><g fill="#ff914d" fill-opacity="1"><g transform="translate(237.08099, 249.149969)"><g><path d="M 10.96875 -29.75 L 10.96875 0 L 3.765625 0 L 3.765625 -29.75 Z M 11.953125 -38.421875 C 11.953125 -37.804688 11.820312 -37.226562 11.5625 -36.6875 C 11.3125 -36.144531 10.976562 -35.671875 10.5625 -35.265625 C 10.15625 -34.859375 9.671875 -34.535156 9.109375 -34.296875 C 8.546875 -34.054688 7.945312 -33.9375 7.3125 -33.9375 C 6.6875 -33.9375 6.097656 -34.054688 5.546875 -34.296875 C 5.003906 -34.535156 4.53125 -34.859375 4.125 -35.265625 C 3.71875 -35.671875 3.390625 -36.144531 3.140625 -36.6875 C 2.898438 -37.226562 2.78125 -37.804688 2.78125 -38.421875 C 2.78125 -39.054688 2.898438 -39.65625 3.140625 -40.21875 C 3.390625 -40.78125 3.71875 -41.265625 4.125 -41.671875 C 4.53125 -42.078125 5.003906 -42.398438 5.546875 -42.640625 C 6.097656 -42.878906 6.6875 -43 7.3125 -43 C 7.945312 -43 8.546875 -42.878906 9.109375 -42.640625 C 9.671875 -42.398438 10.15625 -42.078125 10.5625 -41.671875 C 10.976562 -41.265625 11.3125 -40.78125 11.5625 -40.21875 C 11.820312 -39.65625 11.953125 -39.054688 11.953125 -38.421875 Z M 11.953125 -38.421875 "/></g></g></g><g fill="#ff914d" fill-opacity="1"><g transform="translate(251.812007, 249.149969)"><g><path d="M 10.234375 -26.09375 C 10.835938 -26.695312 11.472656 -27.253906 12.140625 -27.765625 C 12.804688 -28.273438 13.507812 -28.707031 14.25 -29.0625 C 15 -29.425781 15.796875 -29.707031 16.640625 -29.90625 C 17.492188 -30.113281 18.425781 -30.21875 19.4375 -30.21875 C 21.050781 -30.21875 22.488281 -29.941406 23.75 -29.390625 C 25.007812 -28.835938 26.054688 -28.0625 26.890625 -27.0625 C 27.734375 -26.070312 28.375 -24.882812 28.8125 -23.5 C 29.25 -22.125 29.46875 -20.601562 29.46875 -18.9375 L 29.46875 0 L 22.296875 0 L 22.296875 -18.9375 C 22.296875 -20.75 21.878906 -22.15625 21.046875 -23.15625 C 20.222656 -24.15625 18.957031 -24.65625 17.25 -24.65625 C 16.019531 -24.65625 14.863281 -24.375 13.78125 -23.8125 C 12.695312 -23.25 11.671875 -22.484375 10.703125 -21.515625 L 10.703125 0 L 3.53125 0 L 3.53125 -29.75 L 7.921875 -29.75 C 8.847656 -29.75 9.457031 -29.316406 9.75 -28.453125 Z M 10.234375 -26.09375 "/></g></g></g><g fill="#ff914d" fill-opacity="1"><g transform="translate(284.521839, 249.149969)"><g><path d="M 14.40625 -15.609375 C 15.300781 -15.609375 16.078125 -15.726562 16.734375 -15.96875 C 17.390625 -16.207031 17.9375 -16.539062 18.375 -16.96875 C 18.8125 -17.394531 19.140625 -17.90625 19.359375 -18.5 C 19.578125 -19.101562 19.6875 -19.757812 19.6875 -20.46875 C 19.6875 -21.9375 19.242188 -23.101562 18.359375 -23.96875 C 17.484375 -24.832031 16.164062 -25.265625 14.40625 -25.265625 C 12.65625 -25.265625 11.335938 -24.832031 10.453125 -23.96875 C 9.578125 -23.101562 9.140625 -21.9375 9.140625 -20.46875 C 9.140625 -19.78125 9.25 -19.132812 9.46875 -18.53125 C 9.6875 -17.925781 10.015625 -17.40625 10.453125 -16.96875 C 10.890625 -16.539062 11.441406 -16.207031 12.109375 -15.96875 C 12.773438 -15.726562 13.539062 -15.609375 14.40625 -15.609375 Z M 22.5 1.328125 C 22.5 0.753906 22.320312 0.285156 21.96875 -0.078125 C 21.625 -0.453125 21.148438 -0.738281 20.546875 -0.9375 C 19.953125 -1.144531 19.253906 -1.296875 18.453125 -1.390625 C 17.648438 -1.484375 16.800781 -1.554688 15.90625 -1.609375 C 15.007812 -1.660156 14.082031 -1.703125 13.125 -1.734375 C 12.164062 -1.773438 11.234375 -1.851562 10.328125 -1.96875 C 9.535156 -1.53125 8.890625 -1.007812 8.390625 -0.40625 C 7.898438 0.195312 7.65625 0.894531 7.65625 1.6875 C 7.65625 2.207031 7.785156 2.691406 8.046875 3.140625 C 8.304688 3.597656 8.722656 3.988281 9.296875 4.3125 C 9.867188 4.644531 10.609375 4.898438 11.515625 5.078125 C 12.421875 5.265625 13.53125 5.359375 14.84375 5.359375 C 16.175781 5.359375 17.328125 5.253906 18.296875 5.046875 C 19.265625 4.847656 20.0625 4.570312 20.6875 4.21875 C 21.320312 3.863281 21.78125 3.4375 22.0625 2.9375 C 22.351562 2.445312 22.5 1.910156 22.5 1.328125 Z M 29.640625 -28.734375 L 29.640625 -26.078125 C 29.640625 -25.222656 29.125 -24.695312 28.09375 -24.5 L 25.4375 -24.015625 C 25.84375 -22.984375 26.046875 -21.859375 26.046875 -20.640625 C 26.046875 -19.171875 25.75 -17.84375 25.15625 -16.65625 C 24.5625 -15.46875 23.742188 -14.457031 22.703125 -13.625 C 21.660156 -12.800781 20.425781 -12.160156 19 -11.703125 C 17.582031 -11.242188 16.050781 -11.015625 14.40625 -11.015625 C 13.832031 -11.015625 13.273438 -11.039062 12.734375 -11.09375 C 12.191406 -11.15625 11.660156 -11.238281 11.140625 -11.34375 C 10.210938 -10.78125 9.75 -10.148438 9.75 -9.453125 C 9.75 -8.859375 10.019531 -8.421875 10.5625 -8.140625 C 11.113281 -7.859375 11.84375 -7.65625 12.75 -7.53125 C 13.664062 -7.414062 14.703125 -7.34375 15.859375 -7.3125 C 17.023438 -7.289062 18.210938 -7.226562 19.421875 -7.125 C 20.640625 -7.03125 21.828125 -6.863281 22.984375 -6.625 C 24.148438 -6.382812 25.1875 -6.003906 26.09375 -5.484375 C 27.007812 -4.960938 27.738281 -4.25 28.28125 -3.34375 C 28.832031 -2.445312 29.109375 -1.296875 29.109375 0.109375 C 29.109375 1.429688 28.785156 2.707031 28.140625 3.9375 C 27.492188 5.175781 26.554688 6.28125 25.328125 7.25 C 24.097656 8.21875 22.585938 8.992188 20.796875 9.578125 C 19.015625 10.171875 16.984375 10.46875 14.703125 10.46875 C 12.460938 10.46875 10.507812 10.25 8.84375 9.8125 C 7.175781 9.375 5.789062 8.789062 4.6875 8.0625 C 3.59375 7.34375 2.773438 6.507812 2.234375 5.5625 C 1.691406 4.613281 1.421875 3.628906 1.421875 2.609375 C 1.421875 1.210938 1.835938 0.046875 2.671875 -0.890625 C 3.515625 -1.828125 4.671875 -2.570312 6.140625 -3.125 C 5.347656 -3.53125 4.71875 -4.070312 4.25 -4.75 C 3.789062 -5.425781 3.5625 -6.316406 3.5625 -7.421875 C 3.5625 -7.867188 3.644531 -8.328125 3.8125 -8.796875 C 3.976562 -9.273438 4.21875 -9.742188 4.53125 -10.203125 C 4.851562 -10.671875 5.253906 -11.113281 5.734375 -11.53125 C 6.222656 -11.945312 6.796875 -12.316406 7.453125 -12.640625 C 5.941406 -13.453125 4.753906 -14.535156 3.890625 -15.890625 C 3.035156 -17.242188 2.609375 -18.828125 2.609375 -20.640625 C 2.609375 -22.117188 2.898438 -23.453125 3.484375 -24.640625 C 4.078125 -25.828125 4.898438 -26.835938 5.953125 -27.671875 C 7.015625 -28.515625 8.265625 -29.160156 9.703125 -29.609375 C 11.140625 -30.054688 12.707031 -30.28125 14.40625 -30.28125 C 15.6875 -30.28125 16.882812 -30.148438 18 -29.890625 C 19.125 -29.628906 20.148438 -29.242188 21.078125 -28.734375 Z M 29.640625 -28.734375 "/></g></g></g><path stroke-linecap="round" transform="matrix(0.75, 0.00000000000000048, -0.00000000000000048, 0.75, 108.886447, 197.191422)" fill="none" stroke-linejoin="miter" d="M 2.000363 1.999979 L 86.755576 1.999979 " stroke="#00167a" stroke-width="4" stroke-opacity="1" stroke-miterlimit="4"/><path stroke-linecap="round" transform="matrix(0.75, 0, 0, 0.75, 199.546866, 197.191422)" fill="none" stroke-linejoin="miter" d="M 2.000012 1.999979 L 147.682314 1.999979 " stroke="#00167a" stroke-width="4" stroke-opacity="1" stroke-miterlimit="4"/></svg>