<svg xmlns="http://www.w3.org/2000/svg" width="354" height="66" viewBox="0 0 354 66">
    <g fill="none" fill-rule="evenodd">
        <path fill="#E51B23" fill-rule="nonzero" d="m321.5 49.9-23-34.4C291.8 5.4 284.6.5 275.8.7h-60.6c-.3 0-.3.4 0 .5 3.6 1.5 13.6 6.7 20.9 17.3l27.3 40.9c2.5 3.7 6.2 5.9 10.6 6.2h1.1c4.7 0 9.2-2.2 12.8-5.8 1.4-1.4 2.8-3.1 2.8-3.1l1.8 2.7c2.5 3.7 6.2 5.9 10.6 6.2h1.1c4.7 0 9.1-2.2 12.8-5.8 1.4-1.4 2.7-3 2.7-3l1.7 2.6c2.5 3.7 6.2 5.9 10.6 6.2 5 .4 10.2-1.9 14.1-5.9 4.2-4.4 7-9.4 7-9.4.1-.1 0-.4-.2-.4h-31.4Zm-37.3 6.3c-2.7 2.6-6.4 4.3-9.9 4.1-1.9-.1-4.6-.9-6.6-3.8l-27.3-40.9c-2.9-4.3-5.7-7.3-9.1-9.5h15.5c4.6 0 10.9 1.4 18.3 12.5l22.5 33.7s-1.5 2.2-3.4 4.1v-.2Zm29 0c-3 2.9-6.4 4.3-9.9 4.1-1.9-.1-4.6-.9-6.6-3.8l-27.3-40.9c-2.7-4-5.9-7.3-9.4-9.5h15.7c4.6 0 10.9 1.4 18.3 12.5l22.5 33.8s-1.5 2.1-3.4 4l.1-.2Zm28.9-.2c-2.7 2.9-6.3 4.4-9.7 4.2-1.9-.1-4.6-.9-6.6-3.8l-.8-1.2h17.8l-.8.8h.1Z"/>
        <path fill="#000" fill-rule="nonzero" d="m62.5 24.3-2.1 9.3h6.4l-1.2 5.5c-.2 1.1-1.2 1.9-2.3 1.9h-4.5l-2.2 10.4h.1v.5c-.348 1.652-.393 1.187-.4 2.156v.544c0 1.7.8 2.2 3.3 2.2.4 0 1.6-.1 3.3-.1l-1.5 6.9c-.2 1-.6 1.7-2.1 1.9-1.425.19-.864.29-4.32.3h-.58c-4.1 0-5.9-.3-7.8-1.5-1.9-1.2-3.1-3.3-3.1-5.6v-.367c.008-1.156.089-1.477 1-6.033 0 0 1-4.7 1.6-7.4.642-2.75 3.384-3.651 3.837-3.783l.056-.015L50 41.1h-8.4l1.2-5.5c.2-1.1 1.2-1.9 2.3-1.9h3.3l1-4.2c.2-.8.8-1.5 1.6-1.7l11.5-3.5Zm48.8 8.4c9.9 0 15 2.8 15 8.3 0 5.5-.2 2.9-.8 5.6l-3.9 18.6h-8.5c-1.5 0-2.7-1.4-2.4-2.9l.4-1.9c-1.7 2.6-5.3 4.6-9.6 5.1-6.4.7-11.1-2.8-11.1-8.2 0-5.4 2.7-7.9 7.2-9.5 1.8-.6 4.9-1.1 9.3-1.4 2.8-.2 4.5-.7 5.7-1.2 1.2-.5 2.1-1.2 2-2.5-.1-1.3-1.4-2.5-4-2.5s-3.3.5-4.1 2c-.4.8-1.2 1.3-2.1 1.3h-9.7l.2-.2c.5-2.9 1.6-5 3.5-6.9 2.7-2.6 6.5-3.7 12.9-3.7Zm-16.3.6-1.7 8.2c-.2 1.1-1.2 1.9-2.3 1.9-5.3.1-9.4.9-10.9 7.6l-.2-.1L77 65.1h-9.1c-1.5 0-2.7-1.4-2.3-2.9l6.1-28.6h8.8c1.5 0 2.7 1.4 2.4 2.9l-.6 3.2c4.1-4.7 10.4-6.4 12.7-6.4Zm18.176 17.217.024-.017c-.8.6-2.2 1-4.4 1.2-2.7.3-3 .3-3.9.7-1.2.5-2.1 1.7-2.1 3.1 0 1.4 1.4 2.9 3.6 2.9s3.7-.7 4.8-2.1c.8-1 1.2-2.2 1.6-3.9l.146-.73.088-.442.14-.702.002-.009ZM143.7 37.7c3.1-3.5 6.3-5 10.4-5 4.1 0 7.2 1.8 8.1 5.3 3.4-3.9 6.3-5.3 10.8-5.3 4.5 0 9.7 3.6 9.7 9s-.3 3.7-.8 6.3l-3.7 17.2h-9.1c-1.5 0-2.7-1.4-2.3-2.9l3-13.8c.4-2 .5-2.5.5-3.3 0-2-1.3-3.1-3.4-3.1-2.1 0-4.1 1.7-5.1 6.4l-3.5 16.7h-9.1c-1.5 0-2.7-1.4-2.3-2.9l3-14.1c.3-1.3.5-2.4.5-3.1 0-2-1.2-3.3-3.3-3.3-2.1 0-4.2 1.8-5.1 6.1l-3.7 17.2h-9.1c-1.5 0-2.7-1.4-2.3-2.9l6.1-28.6h8.7c1.5 0 2.7 1.4 2.4 2.9l-.2 1.2h-.2Zm80.2-13.4-2.1 9.3h6.4l-1.2 5.5c-.19 1.045-1.102 1.82-2.136 1.894L224.7 41h-4.5L218 51.4h.1v.5c-.348 1.652-.393 1.187-.4 2.156v.544c0 1.7.8 2.2 3.3 2.2.376 0 1.462-.089 3.005-.099l.295-.001-1.5 6.9c-.2 1-.6 1.7-2.1 1.9-1.425.19-.864.29-4.32.3h-.58c-4.1 0-5.9-.3-7.8-1.5-1.9-1.2-3.1-3.3-3.1-5.6v-.367l.004-.242.004-.153c.032-.902.192-1.638.992-5.638 0 0 1-4.7 1.6-7.4.642-2.75 3.384-3.651 3.837-3.783l.063-.017H203l1.2-5.5c.19-1.045 1.102-1.82 2.136-1.894l.164-.006h3.3l1-4.2c.187-.747.722-1.406 1.443-1.653l.157-.047 11.5-3.5Zm-22.4 9.3-6.3 29.6c-.2 1.1-1.2 1.9-2.4 1.9h-10.1l6.4-29.6c.2-1.1 1.2-1.9 2.3-1.9h10.1Zm2.2-9.3-.9 4.3c-.2 1.1-1.2 1.9-2.3 1.9h-10.1l.9-4.2c.2-1.1 1.2-1.9 2.3-1.9v-.1h10.1ZM30.3 39.5c-1.5-.6-2.9-1-7.5-2.3-4.1-1.1-5.1-1.8-5.1-3.5s2-3.3 4.8-3.3 4.1.6 4.9 1.9c.8 1.3 1.2 1.2 2 1.2h11.1C40 25 34.1 20.6 23.1 20.6c-11 0-9.5 1.2-12.7 3.7C7 26.8 5 30.8 5 35.1c0 4.3 3.3 9.4 11 11.8l1.8.5 1.7.6 1.8.5c.8.3 1.5.5 2.2.8 1.5.7 2.3 1.7 2.3 3 0 2.3-2.2 3.8-5.6 3.8-3.4 0-5.4-1.1-6.3-3.2-.4-.9-1.2-1.4-2.2-1.4H.2C.4 60.7 7 65.9 18.7 65.9s10-1.1 13.2-3.2c4.2-2.7 6.6-7.1 6.6-12s-2.8-9.1-8.2-11.2Z"/>
    </g>
</svg>
