<?xml version="1.0" encoding="UTF-8"?>
<svg width="349px" height="84px" viewBox="0 0 349 84" version="1.1" xmlns="http://www.w3.org/2000/svg" xmlns:xlink="http://www.w3.org/1999/xlink">
    <!-- Generator: Sketch 40.3 (33839) - http://www.bohemiancoding.com/sketch -->
    <title>stratco-logo</title>
    <desc>Created with Sketch.</desc>
    <defs>
        <polygon id="path-1" points="348.661 83.9999 348.661 0.378 0 0.378 0 83.9999 348.661 83.9999"></polygon>
    </defs>
    <g id="Page-1" stroke="none" stroke-width="1" fill="none" fill-rule="evenodd">
        <g id="stratco-logo">
            <g id="Group-3" transform="translate(0.000000, -0.377900)">
                <mask id="mask-2" fill="white">
                    <use xlink:href="#path-1"></use>
                </mask>
                <g id="Clip-2"></g>
                <path d="M19.8425,0.3779 C8.8835,0.3779 -0.0005,9.2619 -0.0005,20.2209 L-0.0005,20.2219 L-0.0005,83.9999 L328.8185,83.9999 C339.7775,83.9999 348.6615,75.1159 348.6615,64.1579 L348.6615,0.3779 L19.8425,0.3779 Z" id="Fill-1" fill="#C4122E" mask="url(#mask-2)"></path>
            </g>
            <polygon id="Fill-4" fill="#FEFEFE" points="216.8098 35.1326 225.6208 35.1326 225.6208 65.0156 242.3418 65.0156 242.3418 35.1326 251.1538 35.1326 251.1538 18.6066 216.8098 18.6066"></polygon>
            <path d="M156.259,46.4535 C158.964,53.6385 163.259,65.0155 163.259,65.0155 L193.084,65.0155 L197.604,40.3405 L202.123,65.0155 L218.617,65.0155 L211.838,29.9265 C208.675,15.4375 187.887,14.7585 183.594,29.0215 L176.364,53.0175 L171.845,40.7935 C174.104,38.3025 175.234,35.1325 175.234,31.7375 C175.234,24.4925 169.36,18.6065 162.129,18.6065 L146.991,18.6065 C142.471,18.6065 138.856,22.2295 138.856,26.9825 L138.856,65.0155 L155.351,65.0155 L155.351,35.5855 C155.351,34.2275 156.48,33.3225 157.61,33.3225 C160.095,33.3225 160.772,36.2665 158.964,37.6245 C157.103,39.0225 155.802,41.0195 155.802,43.5095 C155.802,44.4145 155.849,45.3665 156.259,46.4535" id="Fill-6" fill="#FEFEFE"></path>
            <polygon id="Fill-8" fill="#FEFEFE" points="127.5587 65.0153 127.5587 35.1323 136.3707 35.1323 136.3707 18.6063 102.2527 18.6063 102.2527 35.1323 111.0647 35.1323 111.0647 65.0153"></polygon>
            <path d="M99.7668,18.6068 L99.7668,35.1328 C96.3778,34.9058 92.9888,36.7178 91.1808,39.6608 L84.8548,51.6588 C79.4318,59.8078 70.3938,65.0158 60.6778,65.0158 L60.6778,48.4898 C64.0668,48.7168 67.4568,46.9058 69.2638,43.9618 L75.5908,31.9638 C81.0138,23.8138 90.0508,18.6068 99.7668,18.6068" id="Fill-10" fill="#FEFEFE"></path>
            <path d="M280.5269,64.1102 C271.7159,67.2792 252.7329,61.1092 252.7329,41.6962 C252.7329,22.2252 271.7159,16.3432 280.5269,19.5122 L280.5269,38.7552 L278.2679,38.7552 C275.5569,36.0382 270.5849,38.0762 270.5849,42.1512 C270.5849,46.2262 275.5569,48.0372 278.2679,45.5472 L280.5269,45.3202 L280.5269,64.1102 Z" id="Fill-12" fill="#FEFEFE"></path>
            <path d="M283.9164,41.6983 C283.9164,26.3043 295.4394,18.6073 307.1894,18.6073 C318.7124,18.6073 330.2364,26.3043 330.2364,41.6983 C330.2364,57.3183 318.7124,65.0153 307.1894,65.0153 C295.4394,65.0153 283.9164,57.3183 283.9164,41.6983 M307.1894,35.1323 C303.8004,35.1323 300.4104,37.3973 300.4104,41.6983 C300.4104,46.2263 303.8004,48.4903 307.1894,48.4903 C310.3524,48.4903 313.7414,46.2263 313.7414,41.6983 C313.7414,37.3973 310.3524,35.1323 307.1894,35.1323" id="Fill-14" fill="#FEFEFE"></path>
            <path d="M39.0993,42.0377 L37.7443,43.3967 C38.1963,33.4357 42.0373,25.9647 51.9783,22.5687 L51.9783,40.9067 L42.0373,40.9067 C40.9073,40.9067 39.7773,41.3587 39.0993,42.0377" id="Fill-16" fill="#FEFEFE"></path>
            <path d="M35.2582,41.8114 L36.6142,40.4534 C36.1622,50.1874 32.5472,57.8844 22.3792,61.0534 L22.3792,42.9434 L32.5472,42.9434 C33.4502,42.9434 34.5802,42.4904 35.2582,41.8114" id="Fill-18" fill="#FEFEFE"></path>
            <path d="M55.9327,55.0544 C55.9327,60.5554 51.4817,65.0154 45.9907,65.0154 L18.4247,65.0154 L18.4247,28.5684 C18.4247,23.0664 22.8757,18.6064 28.3667,18.6064 L55.9327,18.6064 L55.9327,55.0544 Z M45.9907,62.9774 C50.3587,62.9774 53.8997,59.4304 53.8997,55.0544 L53.8997,20.6444 L28.3667,20.6444 C23.9997,20.6444 20.4587,24.1924 20.4587,28.5684 L20.4587,62.9774 L45.9907,62.9774 Z" id="Fill-20" fill="#FEFEFE"></path>
        </g>
    </g>
</svg>