<svg id="Layer_1" data-name="Layer 1" xmlns="http://www.w3.org/2000/svg" viewBox="0 0 90.89 60"><defs><style>.cls-1{fill: #e0e0e0}</style></defs><path class="cls-1" d="M7.46 5.38H0V0h22.68v5.38h-7.46v21.75H7.46V5.38zM25.55 0h13c9.05 0 10.8 4.31 10.8 7.82s-2.11 5.64-5.13 6.82l5.06 12.49h-8.62L36.82 16H33.3v11.13h-7.75zm7.75 10.84h4c2.23 0 3.84-1 3.84-2.73s-1.11-2.94-3.52-2.94H33.3zM52.14 0h7.75v27.13h-7.75zM2.58 32.87H23.4v5.6H10.34v5.16h8.61v5.6h-8.61V60H2.58V32.87zM26.27 32.87h7.75V60h-7.75zM45.2 46.54l-9.12-13.67h8.87l4.59 7.25 4.74-7.25h6.99l-8.32 12.27L63.14 60h-8.97l-5.64-8.4-5.31 8.4h-7.14l9.12-13.46zM72.94 46.54l-9.11-13.67h8.86l4.6 7.25 4.73-7.25h7L80.7 45.14 90.89 60h-8.97l-5.64-8.4-5.31 8.4h-7.14l9.11-13.46zM75.03 19.92h4.82v4.7h-4.82zM75.73 6.83c1.35.18 2.74.36 4.11.47V2H75v4.74l.7.09"/><path fill="#f6911e" d="M64.19 14.13h26.13v4.82H64.19z"/><path d="M90.32 11.39c-8.57 4.29-18.81-1.48-26.13 1.38V8.06c7.32-2.86 17.56 3 26.13-1.29z" fill="#508fcc"/></svg>