<svg xmlns="http://www.w3.org/2000/svg" viewBox="0 0 400 400"><defs><style>.cls-1,.cls-2,.cls-3{fill:none;stroke:#000;stroke-linecap:round;stroke-linejoin:round;}.cls-1{stroke-width:0.6px;}.cls-2{stroke-width:0.5px;}.cls-3{stroke-width:0.96px;}</style></defs><title>Gutter-S Pattern-Stiffened Back-Dimensioned</title><g id="Image"><line class="cls-1" x1="218.03" y1="100.24" x2="342.59" y2="50.68"/><line class="cls-1" x1="105.47" y1="147.88" x2="216.71" y2="102.52"/><line class="cls-1" x1="123.47" y1="150.64" x2="106.67" y2="147.76"/><line class="cls-1" x1="106.67" y1="147.76" x2="105.95" y2="147.64"/><line class="cls-1" x1="105.95" y1="147.64" x2="105.47" y2="147.88"/><line class="cls-1" x1="105.47" y1="147.88" x2="105.23" y2="147.88"/><line class="cls-1" x1="105.23" y1="147.88" x2="104.63" y2="148.36"/><line class="cls-1" x1="104.63" y1="148.36" x2="104.15" y2="148.96"/><line class="cls-1" x1="104.15" y1="148.96" x2="103.91" y2="149.8"/><line class="cls-1" x1="103.91" y1="149.8" x2="103.79" y2="150.64"/><line class="cls-1" x1="103.79" y1="150.64" x2="103.91" y2="191.08"/><line class="cls-1" x1="103.91" y1="191.08" x2="104.75" y2="192.4"/><line class="cls-1" x1="104.75" y1="192.4" x2="104.87" y2="220.72"/><line class="cls-1" x1="104.87" y1="220.72" x2="103.91" y2="221.68"/><line class="cls-1" x1="103.91" y1="221.68" x2="103.91" y2="242.56"/><line class="cls-1" x1="103.91" y1="242.56" x2="104.03" y2="243.28"/><line class="cls-1" x1="104.03" y1="243.28" x2="104.27" y2="244"/><line class="cls-1" x1="104.27" y1="244" x2="104.63" y2="244.6"/><line class="cls-1" x1="104.63" y1="244.6" x2="104.99" y2="245.2"/><line class="cls-1" x1="104.99" y1="245.2" x2="105.59" y2="245.68"/><line class="cls-1" x1="105.59" y1="245.68" x2="106.19" y2="245.92"/><line class="cls-1" x1="106.19" y1="245.92" x2="144.11" y2="257.68"/><line class="cls-1" x1="144.11" y1="257.68" x2="145.79" y2="259.96"/><line class="cls-1" x1="145.79" y1="259.96" x2="200.15" y2="276.88"/><line class="cls-1" x1="200.15" y1="276.88" x2="201.95" y2="275.44"/><line class="cls-1" x1="201.95" y1="275.44" x2="227.27" y2="283.24"/><line class="cls-1" x1="227.27" y1="283.24" x2="227.75" y2="283.36"/><line class="cls-1" x1="227.75" y1="283.36" x2="228.11" y2="283.36"/><line class="cls-1" x1="228.11" y1="283.36" x2="228.47" y2="283.12"/><line class="cls-1" x1="228.47" y1="283.12" x2="236.03" y2="277.6"/><line class="cls-1" x1="236.03" y1="277.6" x2="236.03" y2="267.28"/><line class="cls-1" x1="236.03" y1="267.28" x2="234.83" y2="265.6"/><line class="cls-1" x1="234.83" y1="265.6" x2="234.95" y2="202.48"/><line class="cls-1" x1="234.95" y1="202.48" x2="236.27" y2="201.4"/><line class="cls-1" x1="236.27" y1="201.4" x2="236.27" y2="186.88"/><line class="cls-1" x1="236.27" y1="186.88" x2="235.07" y2="185.32"/><line class="cls-1" x1="235.07" y1="185.32" x2="235.19" y2="121.96"/><line class="cls-1" x1="235.19" y1="121.96" x2="236.51" y2="120.76"/><line class="cls-1" x1="236.51" y1="120.76" x2="236.51" y2="112.24"/><line class="cls-1" x1="236.51" y1="112.24" x2="236.51" y2="111.4"/><line class="cls-1" x1="236.51" y1="111.4" x2="236.39" y2="110.56"/><line class="cls-1" x1="236.39" y1="110.56" x2="236.27" y2="110.08"/><line class="cls-1" x1="236.27" y1="110.08" x2="236.03" y2="109.72"/><line class="cls-1" x1="236.03" y1="109.72" x2="235.79" y2="109.36"/><line class="cls-1" x1="235.79" y1="109.36" x2="229.19" y2="101.68"/><line class="cls-1" x1="229.19" y1="101.68" x2="228.83" y2="101.44"/><line class="cls-1" x1="228.83" y1="101.44" x2="228.47" y2="101.2"/><line class="cls-1" x1="228.47" y1="101.2" x2="228.11" y2="100.96"/><line class="cls-1" x1="228.11" y1="100.96" x2="227.27" y2="100.84"/><line class="cls-1" x1="227.27" y1="100.84" x2="226.55" y2="100.84"/><line class="cls-1" x1="226.55" y1="100.84" x2="218.99" y2="100.12"/><line class="cls-1" x1="218.99" y1="100.12" x2="218.39" y2="100.12"/><line class="cls-1" x1="218.39" y1="100.12" x2="218.03" y2="100.24"/><line class="cls-1" x1="218.03" y1="100.24" x2="217.79" y2="100.36"/><line class="cls-1" x1="217.79" y1="100.36" x2="217.31" y2="100.6"/><line class="cls-1" x1="217.31" y1="100.6" x2="216.95" y2="101.08"/><line class="cls-1" x1="216.95" y1="101.08" x2="216.71" y2="101.68"/><line class="cls-1" x1="216.71" y1="101.68" x2="216.71" y2="102.28"/><line class="cls-1" x1="216.71" y1="102.28" x2="216.71" y2="108.28"/><line class="cls-1" x1="216.71" y1="108.28" x2="216.71" y2="108.88"/><line class="cls-1" x1="216.71" y1="108.88" x2="216.95" y2="109.48"/><line class="cls-1" x1="216.95" y1="109.48" x2="217.31" y2="109.96"/><line class="cls-1" x1="217.31" y1="109.96" x2="219.47" y2="112.48"/><line class="cls-1" x1="219.47" y1="112.48" x2="220.19" y2="111.88"/><line class="cls-1" x1="220.19" y1="111.88" x2="217.67" y2="108.88"/><line class="cls-1" x1="217.67" y1="108.88" x2="217.67" y2="102.4"/><line class="cls-1" x1="217.67" y1="102.4" x2="217.67" y2="102.04"/><line class="cls-1" x1="217.67" y1="102.04" x2="217.79" y2="101.68"/><line class="cls-1" x1="217.79" y1="101.68" x2="218.03" y2="101.44"/><line class="cls-1" x1="218.03" y1="101.44" x2="218.27" y2="101.2"/><line class="cls-1" x1="218.27" y1="101.2" x2="218.39" y2="101.2"/><line class="cls-1" x1="218.39" y1="101.2" x2="218.63" y2="101.2"/><line class="cls-1" x1="218.63" y1="101.2" x2="218.99" y2="101.08"/><line class="cls-1" x1="218.99" y1="101.08" x2="227.51" y2="101.92"/><line class="cls-1" x1="227.51" y1="101.92" x2="227.87" y2="102.04"/><line class="cls-1" x1="227.87" y1="102.04" x2="228.23" y2="102.16"/><line class="cls-1" x1="228.23" y1="102.16" x2="228.47" y2="102.4"/><line class="cls-1" x1="228.47" y1="102.4" x2="235.07" y2="109.96"/><line class="cls-1" x1="235.07" y1="109.96" x2="235.31" y2="110.32"/><line class="cls-1" x1="235.31" y1="110.32" x2="235.43" y2="110.68"/><line class="cls-1" x1="235.43" y1="110.68" x2="235.43" y2="111.16"/><line class="cls-1" x1="235.43" y1="111.16" x2="235.43" y2="120.16"/><line class="cls-1" x1="235.43" y1="120.16" x2="234.23" y2="121.36"/><line class="cls-1" x1="234.23" y1="121.36" x2="233.99" y2="185.56"/><line class="cls-1" x1="233.99" y1="185.56" x2="235.31" y2="187.12"/><line class="cls-1" x1="235.31" y1="187.12" x2="235.19" y2="200.68"/><line class="cls-1" x1="235.19" y1="200.68" x2="233.99" y2="201.76"/><line class="cls-1" x1="233.99" y1="201.76" x2="233.75" y2="265.72"/><line class="cls-1" x1="233.75" y1="265.72" x2="235.07" y2="267.4"/><line class="cls-1" x1="235.07" y1="267.4" x2="234.95" y2="276.88"/><line class="cls-1" x1="234.95" y1="276.88" x2="227.63" y2="282.28"/><line class="cls-1" x1="227.63" y1="282.28" x2="201.59" y2="274.36"/><line class="cls-1" x1="201.59" y1="274.36" x2="199.79" y2="275.8"/><line class="cls-1" x1="199.79" y1="275.8" x2="146.03" y2="259.12"/><line class="cls-1" x1="146.03" y1="259.12" x2="144.47" y2="256.84"/><line class="cls-1" x1="144.47" y1="256.84" x2="106.19" y2="244.96"/><line class="cls-1" x1="106.19" y1="244.96" x2="105.83" y2="244.84"/><line class="cls-1" x1="105.83" y1="244.84" x2="105.47" y2="244.72"/><line class="cls-1" x1="105.47" y1="244.72" x2="105.23" y2="244.36"/><line class="cls-1" x1="105.23" y1="244.36" x2="104.99" y2="244"/><line class="cls-1" x1="104.99" y1="244" x2="104.87" y2="243.64"/><line class="cls-1" x1="104.87" y1="243.64" x2="104.75" y2="243.16"/><line class="cls-1" x1="104.75" y1="243.16" x2="104.63" y2="242.8"/><line class="cls-1" x1="104.63" y1="242.8" x2="104.63" y2="222.16"/><line class="cls-1" x1="104.63" y1="222.16" x2="105.59" y2="221.32"/><line class="cls-1" x1="105.59" y1="221.32" x2="105.47" y2="192.16"/><line class="cls-1" x1="105.47" y1="192.16" x2="104.63" y2="190.84"/><line class="cls-1" x1="104.63" y1="190.84" x2="104.51" y2="150.76"/><line class="cls-1" x1="104.51" y1="150.76" x2="104.63" y2="150.16"/><line class="cls-1" x1="104.63" y1="150.16" x2="104.87" y2="149.56"/><line class="cls-1" x1="104.87" y1="149.56" x2="105.11" y2="149.08"/><line class="cls-1" x1="105.11" y1="149.08" x2="105.59" y2="148.72"/><line class="cls-1" x1="105.59" y1="148.72" x2="105.71" y2="148.72"/><line class="cls-1" x1="105.71" y1="148.72" x2="106.07" y2="148.6"/><line class="cls-1" x1="106.07" y1="148.6" x2="106.67" y2="148.6"/><line class="cls-1" x1="106.67" y1="148.6" x2="123.47" y2="151.48"/><line class="cls-1" x1="123.47" y1="151.48" x2="123.47" y2="150.64"/><line class="cls-1" x1="342.47" y1="50.68" x2="342.59" y2="50.68"/><line class="cls-1" x1="342.59" y1="50.68" x2="342.71" y2="50.56"/><line class="cls-1" x1="342.71" y1="50.56" x2="342.95" y2="50.56"/><line class="cls-1" x1="342.95" y1="50.56" x2="346.19" y2="50.68"/><line class="cls-1" x1="346.19" y1="50.68" x2="346.43" y2="50.68"/><line class="cls-1" x1="346.43" y1="50.68" x2="346.79" y2="50.68"/><line class="cls-1" x1="346.79" y1="50.68" x2="346.91" y2="50.8"/><line class="cls-1" x1="346.91" y1="50.8" x2="347.15" y2="50.8"/><line class="cls-1" x1="347.15" y1="50.8" x2="347.27" y2="50.92"/><line class="cls-1" x1="347.27" y1="50.92" x2="349.91" y2="53.56"/><line class="cls-1" x1="349.91" y1="53.56" x2="350.03" y2="53.68"/><line class="cls-1" x1="350.03" y1="53.68" x2="350.15" y2="53.8"/><line class="cls-1" x1="350.15" y1="53.8" x2="350.27" y2="54.04"/><line class="cls-1" x1="350.27" y1="54.04" x2="350.27" y2="54.28"/><line class="cls-1" x1="350.27" y1="54.28" x2="350.27" y2="54.52"/><line class="cls-1" x1="350.27" y1="54.52" x2="350.27" y2="57.64"/><line class="cls-1" x1="350.27" y1="57.64" x2="349.67" y2="58.12"/><line class="cls-1" x1="349.67" y1="58.12" x2="349.55" y2="81.16"/><line class="cls-1" x1="349.55" y1="81.16" x2="350.03" y2="81.76"/><line class="cls-1" x1="350.03" y1="81.76" x2="350.03" y2="87.04"/><line class="cls-1" x1="349.55" y1="87.52" x2="349.31" y2="110.44"/><line class="cls-1" x1="349.31" y1="110.44" x2="349.91" y2="111.04"/><line class="cls-1" x1="349.91" y1="111.04" x2="349.91" y2="114.76"/><line class="cls-1" x1="104.63" y1="222.16" x2="234.11" y2="138.52"/><line class="cls-1" x1="104.99" y1="244" x2="234.11" y2="151.48"/><line class="cls-1" x1="144.47" y1="256.84" x2="233.99" y2="178.96"/><line class="cls-1" x1="233.99" y1="201.76" x2="235.19" y2="200.56"/><line class="cls-1" x1="217.67" y1="108.88" x2="229.55" y2="103.6"/><line class="cls-1" x1="220.19" y1="111.88" x2="231.95" y2="106.36"/><line class="cls-1" x1="123.47" y1="151.48" x2="217.19" y2="109.84"/><line class="cls-1" x1="228.11" y1="100.96" x2="346.79" y2="50.68"/><line class="cls-1" x1="234.11" y1="138.4" x2="105.59" y2="221.32"/><line class="cls-1" x1="234.83" y1="265.6" x2="349.31" y2="110.44"/><line class="cls-1" x1="216.95" y1="109.36" x2="123.47" y2="150.64"/><line class="cls-1" x1="235.07" y1="185.32" x2="349.55" y2="81.16"/><line class="cls-1" x1="236.27" y1="186.88" x2="350.03" y2="81.76"/><line class="cls-1" x1="236.51" y1="120.76" x2="350.27" y2="57.64"/><line class="cls-1" x1="350.27" y1="54.04" x2="236.39" y2="110.56"/><line class="cls-1" x1="146.03" y1="259.12" x2="233.99" y2="181.48"/><line class="cls-1" x1="199.79" y1="275.8" x2="233.87" y2="235.48"/><line class="cls-1" x1="201.59" y1="274.36" x2="233.87" y2="236.2"/><line class="cls-1" x1="235.07" y1="271.96" x2="227.63" y2="282.28"/><line class="cls-1" x1="219.47" y1="112.48" x2="232.19" y2="106.6"/><line class="cls-1" x1="255.47" y1="178.96" x2="267.11" y2="167.56"/><line class="cls-1" x1="267.11" y1="167.56" x2="267.11" y2="162.16"/><line class="cls-1" x1="267.11" y1="162.16" x2="267.11" y2="161.32"/><line class="cls-1" x1="267.11" y1="161.32" x2="266.99" y2="160.6"/><line class="cls-1" x1="266.99" y1="160.6" x2="266.87" y2="160.12"/><line class="cls-1" x1="287.15" y1="147.76" x2="294.59" y2="140.44"/><line class="cls-1" x1="294.59" y1="140.44" x2="294.59" y2="136"/><line class="cls-1" x1="294.59" y1="136" x2="294.59" y2="135.28"/><line class="cls-1" x1="294.59" y1="135.28" x2="294.59" y2="134.8"/><line class="cls-1" x1="294.59" y1="134.8" x2="294.47" y2="134.32"/><line class="cls-1" x1="308.39" y1="126.76" x2="313.31" y2="121.96"/><line class="cls-1" x1="313.31" y1="121.96" x2="313.31" y2="118.24"/><line class="cls-1" x1="313.31" y1="118.24" x2="313.31" y2="117.64"/><line class="cls-1" x1="313.31" y1="117.64" x2="313.31" y2="117.16"/><line class="cls-1" x1="313.31" y1="117.16" x2="313.19" y2="116.8"/><line class="cls-1" x1="323.51" y1="111.88" x2="327.23" y2="108.28"/><line class="cls-1" x1="327.23" y1="108.28" x2="327.23" y2="105.04"/><line class="cls-1" x1="327.23" y1="105.04" x2="327.23" y2="104.56"/><line class="cls-1" x1="327.23" y1="104.56" x2="327.23" y2="104.08"/><line class="cls-1" x1="327.23" y1="104.08" x2="327.11" y2="103.72"/><line class="cls-1" x1="334.91" y1="100.6" x2="337.67" y2="97.96"/><line class="cls-1" x1="337.67" y1="97.96" x2="337.67" y2="95.08"/><line class="cls-1" x1="337.67" y1="95.08" x2="337.67" y2="94.6"/><line class="cls-1" x1="337.67" y1="94.6" x2="337.67" y2="94.24"/><line class="cls-1" x1="337.67" y1="94.24" x2="337.67" y2="94"/><line class="cls-1" x1="343.79" y1="91.96" x2="345.95" y2="89.8"/><line class="cls-1" x1="345.95" y1="89.8" x2="345.95" y2="87.28"/><line class="cls-1" x1="345.95" y1="87.28" x2="345.95" y2="86.92"/><line class="cls-1" x1="345.95" y1="86.92" x2="345.95" y2="86.56"/><line class="cls-1" x1="345.95" y1="86.56" x2="345.83" y2="86.2"/><line class="cls-1" x1="349.67" y1="58.12" x2="235.19" y2="121.96"/><line class="cls-1" x1="236.03" y1="277.6" x2="349.91" y2="114.76"/><line class="cls-1" x1="234.35" y1="121.24" x2="105.47" y2="192.16"/><line class="cls-1" x1="235.43" y1="119.56" x2="104.63" y2="190.84"/><line class="cls-1" x1="349.91" y1="111.04" x2="236.03" y2="267.28"/><line class="cls-1" x1="350.03" y1="87.04" x2="236.27" y2="201.4"/><line class="cls-1" x1="256.55" y1="169.72" x2="267.11" y2="159.88"/><line class="cls-1" x1="267.11" y1="159.88" x2="267.35" y2="159.76"/><line class="cls-1" x1="267.35" y1="159.76" x2="267.59" y2="159.88"/><line class="cls-1" x1="267.59" y1="159.88" x2="267.71" y2="160.24"/><line class="cls-1" x1="267.71" y1="160.24" x2="267.83" y2="160.72"/><line class="cls-1" x1="267.83" y1="160.72" x2="267.95" y2="161.44"/><line class="cls-1" x1="267.95" y1="161.44" x2="267.95" y2="162.28"/><line class="cls-1" x1="267.95" y1="162.28" x2="267.95" y2="167.68"/><line class="cls-1" x1="267.95" y1="167.68" x2="255.47" y2="180.04"/><line class="cls-1" x1="255.47" y1="180.04" x2="255.47" y2="174.16"/><line class="cls-1" x1="255.47" y1="174.16" x2="255.47" y2="173.2"/><line class="cls-1" x1="255.47" y1="173.2" x2="255.59" y2="172.36"/><line class="cls-1" x1="255.59" y1="172.36" x2="255.83" y2="171.4"/><line class="cls-1" x1="255.83" y1="171.4" x2="256.07" y2="170.68"/><line class="cls-1" x1="256.07" y1="170.68" x2="256.31" y2="170.08"/><line class="cls-1" x1="256.31" y1="170.08" x2="256.55" y2="169.72"/><line class="cls-1" x1="287.87" y1="140.44" x2="294.71" y2="133.96"/><line class="cls-1" x1="294.71" y1="133.96" x2="294.95" y2="133.96"/><line class="cls-1" x1="294.95" y1="133.96" x2="294.95" y2="133.96"/><line class="cls-1" x1="294.95" y1="133.96" x2="295.07" y2="134.08"/><line class="cls-1" x1="295.07" y1="134.08" x2="295.19" y2="134.32"/><line class="cls-1" x1="295.19" y1="134.32" x2="295.31" y2="134.8"/><line class="cls-1" x1="295.31" y1="134.8" x2="295.31" y2="135.4"/><line class="cls-1" x1="295.31" y1="135.4" x2="295.31" y2="136.12"/><line class="cls-1" x1="295.31" y1="136.12" x2="295.31" y2="140.44"/><line class="cls-1" x1="295.31" y1="140.44" x2="287.15" y2="148.6"/><line class="cls-1" x1="287.15" y1="148.6" x2="287.15" y2="143.92"/><line class="cls-1" x1="287.15" y1="143.92" x2="287.27" y2="143.08"/><line class="cls-1" x1="287.27" y1="143.08" x2="287.27" y2="142.36"/><line class="cls-1" x1="287.27" y1="142.36" x2="287.39" y2="141.64"/><line class="cls-1" x1="287.39" y1="141.64" x2="287.51" y2="141.04"/><line class="cls-1" x1="287.51" y1="141.04" x2="287.75" y2="140.68"/><line class="cls-1" x1="287.75" y1="140.68" x2="287.87" y2="140.44"/><line class="cls-1" x1="308.87" y1="120.76" x2="313.55" y2="116.44"/><line class="cls-1" x1="313.55" y1="116.44" x2="313.67" y2="116.44"/><line class="cls-1" x1="313.67" y1="116.44" x2="313.67" y2="116.44"/><line class="cls-1" x1="313.67" y1="116.44" x2="313.79" y2="116.56"/><line class="cls-1" x1="313.79" y1="116.56" x2="313.79" y2="116.8"/><line class="cls-1" x1="313.79" y1="116.8" x2="313.91" y2="117.28"/><line class="cls-1" x1="313.91" y1="117.28" x2="313.91" y2="117.76"/><line class="cls-1" x1="313.91" y1="117.76" x2="313.91" y2="118.24"/><line class="cls-1" x1="313.91" y1="118.24" x2="313.91" y2="122.08"/><line class="cls-1" x1="313.91" y1="122.08" x2="308.39" y2="127.6"/><line class="cls-1" x1="308.39" y1="127.6" x2="308.39" y2="123.64"/><line class="cls-1" x1="308.39" y1="123.64" x2="308.39" y2="123.04"/><line class="cls-1" x1="308.39" y1="123.04" x2="308.51" y2="122.32"/><line class="cls-1" x1="308.51" y1="122.32" x2="308.51" y2="121.84"/><line class="cls-1" x1="308.51" y1="121.84" x2="308.63" y2="121.36"/><line class="cls-1" x1="308.63" y1="121.36" x2="308.75" y2="121"/><line class="cls-1" x1="308.75" y1="121" x2="308.87" y2="120.76"/><line class="cls-1" x1="323.87" y1="106.72" x2="327.47" y2="103.48"/><line class="cls-1" x1="327.47" y1="103.48" x2="327.59" y2="103.36"/><line class="cls-1" x1="327.59" y1="103.36" x2="327.59" y2="103.36"/><line class="cls-1" x1="327.59" y1="103.36" x2="327.59" y2="103.48"/><line class="cls-1" x1="327.59" y1="103.48" x2="327.71" y2="103.84"/><line class="cls-1" x1="327.71" y1="103.84" x2="327.71" y2="104.08"/><line class="cls-1" x1="327.71" y1="104.08" x2="327.83" y2="104.56"/><line class="cls-1" x1="327.83" y1="104.56" x2="327.83" y2="105.04"/><line class="cls-1" x1="327.83" y1="105.04" x2="327.83" y2="108.28"/><line class="cls-1" x1="327.83" y1="108.28" x2="323.51" y2="112.48"/><line class="cls-1" x1="323.51" y1="112.48" x2="323.51" y2="109.12"/><line class="cls-1" x1="323.51" y1="109.12" x2="323.51" y2="108.64"/><line class="cls-1" x1="323.51" y1="108.64" x2="323.63" y2="108.04"/><line class="cls-1" x1="323.63" y1="108.04" x2="323.63" y2="107.56"/><line class="cls-1" x1="323.63" y1="107.56" x2="323.75" y2="107.2"/><line class="cls-1" x1="323.75" y1="107.2" x2="323.87" y2="106.96"/><line class="cls-1" x1="323.87" y1="106.96" x2="323.87" y2="106.72"/><line class="cls-1" x1="335.15" y1="96.16" x2="337.91" y2="93.64"/><line class="cls-1" x1="337.91" y1="93.64" x2="338.03" y2="93.64"/><line class="cls-1" x1="338.03" y1="93.64" x2="338.03" y2="93.64"/><line class="cls-1" x1="338.03" y1="93.64" x2="338.03" y2="93.76"/><line class="cls-1" x1="338.03" y1="93.76" x2="338.15" y2="94"/><line class="cls-1" x1="338.15" y1="94" x2="338.15" y2="94.24"/><line class="cls-1" x1="338.15" y1="94.24" x2="338.15" y2="94.72"/><line class="cls-1" x1="338.15" y1="94.72" x2="338.15" y2="95.08"/><line class="cls-1" x1="338.15" y1="95.08" x2="338.15" y2="97.96"/><line class="cls-1" x1="338.15" y1="97.96" x2="334.91" y2="101.2"/><line class="cls-1" x1="334.91" y1="101.2" x2="334.91" y2="98.2"/><line class="cls-1" x1="334.91" y1="98.2" x2="334.91" y2="97.72"/><line class="cls-1" x1="334.91" y1="97.72" x2="335.03" y2="97.36"/><line class="cls-1" x1="335.03" y1="97.36" x2="335.03" y2="96.88"/><line class="cls-1" x1="335.03" y1="96.88" x2="335.03" y2="96.64"/><line class="cls-1" x1="335.03" y1="96.64" x2="335.15" y2="96.4"/><line class="cls-1" x1="335.15" y1="96.4" x2="335.15" y2="96.16"/><line class="cls-1" x1="344.03" y1="88" x2="346.19" y2="85.96"/><line class="cls-1" x1="346.19" y1="85.96" x2="346.19" y2="85.96"/><line class="cls-1" x1="346.19" y1="85.96" x2="346.19" y2="85.96"/><line class="cls-1" x1="346.19" y1="85.96" x2="346.31" y2="86.08"/><line class="cls-1" x1="346.31" y1="86.08" x2="346.31" y2="86.32"/><line class="cls-1" x1="346.31" y1="86.32" x2="346.31" y2="86.56"/><line class="cls-1" x1="346.31" y1="86.56" x2="346.43" y2="86.92"/><line class="cls-1" x1="346.43" y1="86.92" x2="346.43" y2="87.28"/><line class="cls-1" x1="346.43" y1="87.28" x2="346.31" y2="89.8"/><line class="cls-1" x1="346.31" y1="89.8" x2="343.79" y2="92.44"/><line class="cls-1" x1="343.79" y1="92.44" x2="343.79" y2="89.8"/><line class="cls-1" x1="343.79" y1="89.8" x2="343.79" y2="89.32"/><line class="cls-1" x1="343.79" y1="89.32" x2="343.79" y2="88.96"/><line class="cls-1" x1="343.79" y1="88.96" x2="343.91" y2="88.6"/><line class="cls-1" x1="343.91" y1="88.6" x2="343.91" y2="88.36"/><line class="cls-1" x1="343.91" y1="88.36" x2="343.91" y2="88.12"/><line class="cls-1" x1="343.91" y1="88.12" x2="344.03" y2="88"/><line class="cls-1" x1="267.95" y1="167.68" x2="267.11" y2="167.56"/><line class="cls-1" x1="295.31" y1="140.44" x2="294.59" y2="140.44"/><line class="cls-1" x1="313.91" y1="122.08" x2="313.31" y2="121.96"/><line class="cls-1" x1="327.83" y1="108.28" x2="327.23" y2="108.28"/><line class="cls-1" x1="338.15" y1="97.96" x2="337.67" y2="97.96"/><line class="cls-1" x1="346.31" y1="89.8" x2="345.95" y2="89.8"/></g><g id="Dimensions"><line class="cls-2" x1="296.87" y1="114.64" x2="296.87" y2="308.68"/><line class="cls-3" x1="296.87" y1="117.64" x2="291.71" y2="120.16"/><line class="cls-3" x1="296.87" y1="117.64" x2="301.91" y2="115"/><line class="cls-3" x1="296.87" y1="305.44" x2="291.71" y2="307.96"/><line class="cls-3" x1="296.87" y1="305.44" x2="301.91" y2="302.8"/><line class="cls-2" x1="103.19" y1="257.8" x2="103.19" y2="286.12"/><line class="cls-3" x1="103.19" y1="281.2" x2="107.63" y2="277.6"/><line class="cls-3" x1="103.19" y1="281.2" x2="98.87" y2="284.68"/><line class="cls-3" x1="64.79" y1="233.2" x2="69.95" y2="230.68"/><line class="cls-3" x1="64.79" y1="233.2" x2="59.75" y2="235.84"/><line class="cls-3" x1="65.63" y1="134.2" x2="69.95" y2="132.04"/><line class="cls-3" x1="59.63" y1="137.32" x2="65.63" y2="134.2"/><line class="cls-2" x1="59.87" y1="231.76" x2="86.99" y2="240.04"/><line class="cls-2" x1="274.43" y1="110.8" x2="301.55" y2="119.08"/><line class="cls-2" x1="274.31" y1="298.48" x2="301.43" y2="306.88"/><line class="cls-2" x1="59.15" y1="132.88" x2="86.27" y2="141.16"/><line class="cls-2" x1="99.71" y1="280.12" x2="239.51" y2="322.84"/><line class="cls-2" x1="235.67" y1="298.36" x2="235.67" y2="326.68"/><line class="cls-3" x1="235.67" y1="321.64" x2="240.11" y2="318.16"/><line class="cls-3" x1="235.67" y1="321.64" x2="231.23" y2="325.24"/><line class="cls-2" x1="64.79" y1="236.2" x2="64.79" y2="131.56"/><path d="M136.78,319.9h-1.15v-9a7,7,0,0,1-1.07,1,6.72,6.72,0,0,1-1.24.73v-1.36a6.85,6.85,0,0,0,1.68-1.33,5.11,5.11,0,0,0,1-1.54h.75Z"/><path d="M145.81,318.55v1.35H139.6a3.9,3.9,0,0,1,.5-1.84,10.09,10.09,0,0,1,1.9-2.4,13.65,13.65,0,0,0,2.12-2.49,3.36,3.36,0,0,0,.5-1.64,2,2,0,0,0-.51-1.42,1.76,1.76,0,0,0-2.59,0,2.57,2.57,0,0,0-.51,1.71l-1.19-.15a3.91,3.91,0,0,1,.93-2.48,2.85,2.85,0,0,1,2.13-.83,2.56,2.56,0,0,1,2.18,1,3.54,3.54,0,0,1,.74,2.2,4.21,4.21,0,0,1-.58,2.1,15.77,15.77,0,0,1-2.2,2.67c-.68.71-1.13,1.19-1.33,1.44a4.71,4.71,0,0,0-.49.77Z"/><path d="M147,316.87l1.15-.19c.24,1.51.85,2.26,1.82,2.26a1.77,1.77,0,0,0,1.38-.67,2.58,2.58,0,0,0,.57-1.73,2.36,2.36,0,0,0-.53-1.62,1.68,1.68,0,0,0-1.3-.61,2.87,2.87,0,0,0-.81.16l.13-1.23h.18a1.81,1.81,0,0,0,1.92-1.92,1.84,1.84,0,0,0-.45-1.29,1.42,1.42,0,0,0-1.09-.48,1.46,1.46,0,0,0-1.12.51,2.8,2.8,0,0,0-.58,1.55l-1.15-.25a3.76,3.76,0,0,1,1-2.22,2.66,2.66,0,0,1,3.79.09,3,3,0,0,1,.8,2.13,2.72,2.72,0,0,1-.34,1.38,2.43,2.43,0,0,1-.94.94,2.13,2.13,0,0,1,.92.52,2.67,2.67,0,0,1,.6,1,3.81,3.81,0,0,1,.22,1.34,3.65,3.65,0,0,1-.93,2.58,2.92,2.92,0,0,1-2.23,1,2.69,2.69,0,0,1-2-.87A3.71,3.71,0,0,1,147,316.87Z"/><path d="M154.67,319.9v-8.3h1v1.16a2.61,2.61,0,0,1,.88-1,2.14,2.14,0,0,1,1.18-.34,1.84,1.84,0,0,1,1.91,1.44,3.27,3.27,0,0,1,.94-1.08,2,2,0,0,1,1.17-.36,1.93,1.93,0,0,1,1.55.66,3.28,3.28,0,0,1,.56,2.12v5.7h-1.15v-5.23a4.19,4.19,0,0,0-.13-1.27,1.11,1.11,0,0,0-1.07-.77,1.48,1.48,0,0,0-1.22.59,3,3,0,0,0-.47,1.85v4.83H158.7v-5.4a2.49,2.49,0,0,0-.31-1.45,1,1,0,0,0-.87-.42,1.47,1.47,0,0,0-1.25.63,4.29,4.29,0,0,0-.46,2.33v4.31Z"/><path d="M165.59,319.9v-8.3h1v1.16a2.61,2.61,0,0,1,.88-1,2.14,2.14,0,0,1,1.18-.34,1.84,1.84,0,0,1,1.91,1.44,3.27,3.27,0,0,1,.94-1.08,2,2,0,0,1,1.17-.36,1.93,1.93,0,0,1,1.55.66,3.28,3.28,0,0,1,.56,2.12v5.7h-1.15v-5.23a4.19,4.19,0,0,0-.13-1.27,1.11,1.11,0,0,0-1.07-.77,1.48,1.48,0,0,0-1.22.59,3,3,0,0,0-.47,1.85v4.83h-1.15v-5.4a2.49,2.49,0,0,0-.31-1.45,1,1,0,0,0-.87-.42,1.45,1.45,0,0,0-1.25.63,4.29,4.29,0,0,0-.46,2.33v4.31Z"/><path d="M306.29,217.9h-1.15v-9a6.52,6.52,0,0,1-1.07,1,6.72,6.72,0,0,1-1.24.73v-1.36a7.1,7.1,0,0,0,1.69-1.33,5.06,5.06,0,0,0,1-1.54h.75Z"/><path d="M312.94,217.9v-2.74h-4.07v-1.29l4.28-7.42h1v7.42h1.27v1.29H314.1v2.74Zm0-4V208.7L310,213.87Z"/><path d="M316.54,212.25a9.67,9.67,0,0,1,.78-4.37,2.47,2.47,0,0,1,2.3-1.48,2.39,2.39,0,0,1,2.11,1.2,8.79,8.79,0,0,1,.94,4.65,9.84,9.84,0,0,1-.77,4.36,2.47,2.47,0,0,1-2.3,1.48,2.53,2.53,0,0,1-2.2-1.31A8.72,8.72,0,0,1,316.54,212.25Zm1.18,0a8.58,8.58,0,0,0,.54,3.74,1.59,1.59,0,0,0,1.37.95,1.55,1.55,0,0,0,1.33-1,8.82,8.82,0,0,0,.53-3.73,8.6,8.6,0,0,0-.54-3.75,1.57,1.57,0,0,0-1.39-.94,1.54,1.54,0,0,0-1.31,1A8.78,8.78,0,0,0,317.72,212.25Z"/><path d="M324.18,217.9v-8.3h1v1.16a2.69,2.69,0,0,1,.88-1,2.14,2.14,0,0,1,1.18-.34,2,2,0,0,1,1.21.36,2,2,0,0,1,.71,1.08,3.14,3.14,0,0,1,.93-1.08,2.08,2.08,0,0,1,1.18-.36,1.93,1.93,0,0,1,1.54.66,3.22,3.22,0,0,1,.56,2.12v5.7h-1.14v-5.23a4.55,4.55,0,0,0-.13-1.27,1.17,1.17,0,0,0-.42-.57,1.12,1.12,0,0,0-.66-.2,1.46,1.46,0,0,0-1.21.59,2.91,2.91,0,0,0-.47,1.85v4.83h-1.15v-5.4a2.48,2.48,0,0,0-.32-1.45,1,1,0,0,0-.87-.42,1.47,1.47,0,0,0-1.25.63,4.31,4.31,0,0,0-.45,2.33v4.31Z"/><path d="M335.11,217.9v-8.3h1v1.16a2.69,2.69,0,0,1,.88-1,2.14,2.14,0,0,1,1.18-.34,2,2,0,0,1,1.21.36,2,2,0,0,1,.71,1.08,3.14,3.14,0,0,1,.93-1.08,2.08,2.08,0,0,1,1.18-.36,1.93,1.93,0,0,1,1.54.66,3.22,3.22,0,0,1,.56,2.12v5.7h-1.14v-5.23a4.55,4.55,0,0,0-.13-1.27,1.17,1.17,0,0,0-.42-.57,1.12,1.12,0,0,0-.66-.2,1.46,1.46,0,0,0-1.21.59,2.91,2.91,0,0,0-.48,1.85v4.83h-1.14v-5.4a2.48,2.48,0,0,0-.32-1.45,1,1,0,0,0-.87-.42,1.47,1.47,0,0,0-1.25.63,4.31,4.31,0,0,0-.45,2.33v4.31Z"/><path d="M24.52,181.23a2.25,2.25,0,0,1-1-.9,2.69,2.69,0,0,1-.35-1.45,3,3,0,0,1,.76-2.12,2.67,2.67,0,0,1,3.87,0,3,3,0,0,1,.78,2.15,2.67,2.67,0,0,1-.34,1.4,2.37,2.37,0,0,1-1,.9,2.59,2.59,0,0,1,1.31,1.08,4,4,0,0,1-.43,4.36,3,3,0,0,1-4.41,0,3.61,3.61,0,0,1-.89-2.54,3.44,3.44,0,0,1,.48-1.89A2.29,2.29,0,0,1,24.52,181.23Zm-.6,2.91a2.48,2.48,0,0,0,.57,1.7,1.73,1.73,0,0,0,1.35.64,1.76,1.76,0,0,0,1.35-.62,2.45,2.45,0,0,0,.55-1.68,2.48,2.48,0,0,0-.57-1.7,1.75,1.75,0,0,0-1.36-.64,1.69,1.69,0,0,0-1.34.64A2.5,2.5,0,0,0,23.92,184.14Zm.39-5.3a1.9,1.9,0,0,0,.44,1.34,1.39,1.39,0,0,0,1.09.5,1.4,1.4,0,0,0,1.08-.49,1.83,1.83,0,0,0,.44-1.27,1.87,1.87,0,0,0-.46-1.31,1.4,1.4,0,0,0-2.15,0A1.81,1.81,0,0,0,24.31,178.84Z"/><path d="M31.82,181.23a2.25,2.25,0,0,1-1-.9,2.69,2.69,0,0,1-.36-1.45,3,3,0,0,1,.77-2.12,2.67,2.67,0,0,1,3.87,0,3,3,0,0,1,.78,2.15,2.67,2.67,0,0,1-.35,1.4,2.32,2.32,0,0,1-1,.9,2.55,2.55,0,0,1,1.31,1.08,3.47,3.47,0,0,1,.46,1.86,3.54,3.54,0,0,1-.89,2.5,3,3,0,0,1-4.4,0,4.06,4.06,0,0,1-.42-4.43A2.31,2.31,0,0,1,31.82,181.23Zm-.6,2.91a2.48,2.48,0,0,0,.57,1.7,1.71,1.71,0,0,0,1.35.64,1.76,1.76,0,0,0,1.35-.62,2.45,2.45,0,0,0,.55-1.68,2.48,2.48,0,0,0-.57-1.7,1.75,1.75,0,0,0-1.36-.64,1.69,1.69,0,0,0-1.34.64A2.45,2.45,0,0,0,31.22,184.14Zm.38-5.3a1.91,1.91,0,0,0,.45,1.34,1.43,1.43,0,0,0,2.16,0,1.79,1.79,0,0,0,.45-1.27,1.87,1.87,0,0,0-.46-1.31,1.39,1.39,0,0,0-1.08-.51,1.38,1.38,0,0,0-1.07.5A1.77,1.77,0,0,0,31.6,178.84Z"/><path d="M37.67,187.44v-8.3h1v1.16a2.6,2.6,0,0,1,.89-1,2,2,0,0,1,1.17-.35,1.87,1.87,0,0,1,1.92,1.44,3.16,3.16,0,0,1,.94-1.08,2,2,0,0,1,1.17-.36,1.91,1.91,0,0,1,1.54.66,3.23,3.23,0,0,1,.57,2.13v5.69H45.75v-5.23a4.12,4.12,0,0,0-.13-1.26,1.09,1.09,0,0,0-.42-.58,1.14,1.14,0,0,0-.65-.2,1.51,1.51,0,0,0-1.22.59,3,3,0,0,0-.47,1.86v4.82H41.71V182a2.52,2.52,0,0,0-.31-1.45,1.06,1.06,0,0,0-.88-.42,1.43,1.43,0,0,0-1.24.64,4.16,4.16,0,0,0-.46,2.32v4.31Z"/><path d="M48.6,187.44v-8.3h1v1.16a2.6,2.6,0,0,1,.89-1,2,2,0,0,1,1.17-.35,1.87,1.87,0,0,1,1.92,1.44,3.16,3.16,0,0,1,.94-1.08,2,2,0,0,1,1.17-.36,1.91,1.91,0,0,1,1.54.66,3.23,3.23,0,0,1,.57,2.13v5.69H56.68v-5.23a4.12,4.12,0,0,0-.13-1.26,1.2,1.2,0,0,0-.42-.58,1.14,1.14,0,0,0-.65-.2,1.51,1.51,0,0,0-1.22.59,3,3,0,0,0-.47,1.86v4.82H52.64V182a2.52,2.52,0,0,0-.31-1.45,1.06,1.06,0,0,0-.88-.42,1.43,1.43,0,0,0-1.24.64,4.16,4.16,0,0,0-.46,2.32v4.31Z"/></g></svg>