<svg xmlns="http://www.w3.org/2000/svg" viewBox="0 0 700 400"><defs><style>.cls-1,.cls-2,.cls-3{fill:none;stroke:#000;stroke-linecap:round;stroke-linejoin:round;}.cls-1{stroke-width:0.6px;}.cls-2{stroke-width:0.5px;}.cls-3{stroke-width:0.96px;}</style></defs><title>Roofing-Corrugated-Dimensioned</title><g id="Image"><line class="cls-1" x1="101.67" y1="246.87" x2="259.34" y2="158"/><line class="cls-1" x1="616.67" y1="254.18" x2="604.16" y2="247.12"/><line class="cls-1" x1="604.16" y1="247.12" x2="601.3" y2="246.03"/><line class="cls-1" x1="601.3" y1="246.03" x2="598.28" y2="245.61"/><line class="cls-1" x1="598.28" y1="245.61" x2="595.25" y2="246.03"/><line class="cls-1" x1="595.25" y1="246.03" x2="592.4" y2="247.2"/><line class="cls-1" x1="592.4" y1="247.2" x2="579.71" y2="254.18"/><line class="cls-1" x1="579.71" y1="254.18" x2="577.36" y2="255.27"/><line class="cls-1" x1="577.36" y1="255.27" x2="574.84" y2="255.77"/><line class="cls-1" x1="574.84" y1="255.77" x2="572.24" y2="255.77"/><line class="cls-1" x1="572.24" y1="255.77" x2="569.8" y2="255.27"/><line class="cls-1" x1="569.8" y1="255.27" x2="567.53" y2="254.18"/><line class="cls-1" x1="567.53" y1="254.18" x2="554.93" y2="247.12"/><line class="cls-1" x1="554.93" y1="247.12" x2="552.16" y2="246.03"/><line class="cls-1" x1="552.16" y1="246.03" x2="549.14" y2="245.61"/><line class="cls-1" x1="549.14" y1="245.61" x2="546.11" y2="246.03"/><line class="cls-1" x1="546.11" y1="246.03" x2="543.26" y2="247.12"/><line class="cls-1" x1="543.26" y1="247.12" x2="530.57" y2="254.09"/><line class="cls-1" x1="530.57" y1="254.09" x2="528.22" y2="255.18"/><line class="cls-1" x1="528.22" y1="255.18" x2="525.7" y2="255.77"/><line class="cls-1" x1="525.7" y1="255.77" x2="523.18" y2="255.77"/><line class="cls-1" x1="523.18" y1="255.77" x2="520.66" y2="255.18"/><line class="cls-1" x1="520.66" y1="255.18" x2="518.39" y2="254.09"/><line class="cls-1" x1="518.39" y1="254.09" x2="505.79" y2="247.12"/><line class="cls-1" x1="505.79" y1="247.12" x2="503.02" y2="245.94"/><line class="cls-1" x1="503.02" y1="245.94" x2="500" y2="245.61"/><line class="cls-1" x1="500" y1="245.61" x2="496.89" y2="245.94"/><line class="cls-1" x1="496.89" y1="245.94" x2="494.03" y2="247.12"/><line class="cls-1" x1="494.03" y1="247.12" x2="481.43" y2="254.09"/><line class="cls-1" x1="481.43" y1="254.09" x2="479.17" y2="255.18"/><line class="cls-1" x1="479.17" y1="255.18" x2="476.65" y2="255.69"/><line class="cls-1" x1="476.65" y1="255.69" x2="474.13" y2="255.69"/><line class="cls-1" x1="474.13" y1="255.69" x2="471.61" y2="255.18"/><line class="cls-1" x1="471.61" y1="255.18" x2="469.34" y2="254.09"/><line class="cls-1" x1="469.34" y1="254.09" x2="456.65" y2="247.04"/><line class="cls-1" x1="456.65" y1="247.04" x2="453.88" y2="245.94"/><line class="cls-1" x1="453.88" y1="245.94" x2="450.86" y2="245.52"/><line class="cls-1" x1="450.86" y1="245.52" x2="447.75" y2="245.94"/><line class="cls-1" x1="447.75" y1="245.94" x2="444.98" y2="247.12"/><line class="cls-1" x1="444.98" y1="247.12" x2="432.38" y2="254.09"/><line class="cls-1" x1="432.38" y1="254.09" x2="430.11" y2="255.18"/><line class="cls-1" x1="430.11" y1="255.18" x2="427.59" y2="255.69"/><line class="cls-1" x1="427.59" y1="255.69" x2="425.07" y2="255.69"/><line class="cls-1" x1="425.07" y1="255.69" x2="422.55" y2="255.1"/><line class="cls-1" x1="422.55" y1="255.1" x2="420.28" y2="254.09"/><line class="cls-1" x1="420.28" y1="254.09" x2="407.51" y2="247.04"/><line class="cls-1" x1="407.51" y1="247.04" x2="404.74" y2="245.94"/><line class="cls-1" x1="404.74" y1="245.94" x2="401.72" y2="245.52"/><line class="cls-1" x1="401.72" y1="245.52" x2="398.69" y2="245.94"/><line class="cls-1" x1="398.69" y1="245.94" x2="395.84" y2="247.04"/><line class="cls-1" x1="395.84" y1="247.04" x2="383.32" y2="254.01"/><line class="cls-1" x1="383.32" y1="254.01" x2="381.05" y2="255.1"/><line class="cls-1" x1="381.05" y1="255.1" x2="378.53" y2="255.69"/><line class="cls-1" x1="378.53" y1="255.69" x2="376.01" y2="255.69"/><line class="cls-1" x1="376.01" y1="255.69" x2="373.49" y2="255.1"/><line class="cls-1" x1="373.49" y1="255.1" x2="371.23" y2="254.01"/><line class="cls-1" x1="371.23" y1="254.01" x2="358.46" y2="247.04"/><line class="cls-1" x1="358.46" y1="247.04" x2="355.6" y2="245.86"/><line class="cls-1" x1="355.6" y1="245.86" x2="352.58" y2="245.52"/><line class="cls-1" x1="352.58" y1="245.52" x2="349.55" y2="245.86"/><line class="cls-1" x1="349.55" y1="245.86" x2="346.78" y2="247.04"/><line class="cls-1" x1="346.78" y1="247.04" x2="334.27" y2="254.01"/><line class="cls-1" x1="334.27" y1="254.01" x2="332" y2="255.1"/><line class="cls-1" x1="332" y1="255.1" x2="329.56" y2="255.6"/><line class="cls-1" x1="329.56" y1="255.6" x2="326.96" y2="255.6"/><line class="cls-1" x1="326.96" y1="255.6" x2="324.52" y2="255.1"/><line class="cls-1" x1="324.52" y1="255.1" x2="322.17" y2="254.01"/><line class="cls-1" x1="322.17" y1="254.01" x2="309.4" y2="246.95"/><line class="cls-1" x1="309.4" y1="246.95" x2="306.55" y2="245.86"/><line class="cls-1" x1="306.55" y1="245.86" x2="303.52" y2="245.44"/><line class="cls-1" x1="303.52" y1="245.44" x2="300.5" y2="245.86"/><line class="cls-1" x1="300.5" y1="245.86" x2="297.64" y2="247.04"/><line class="cls-1" x1="297.64" y1="247.04" x2="285.29" y2="254.01"/><line class="cls-1" x1="285.29" y1="254.01" x2="283.03" y2="255.02"/><line class="cls-1" x1="283.03" y1="255.02" x2="280.51" y2="255.6"/><line class="cls-1" x1="280.51" y1="255.6" x2="277.99" y2="255.6"/><line class="cls-1" x1="277.99" y1="255.6" x2="275.47" y2="255.02"/><line class="cls-1" x1="275.47" y1="255.02" x2="273.2" y2="254.01"/><line class="cls-1" x1="273.2" y1="254.01" x2="260.35" y2="246.95"/><line class="cls-1" x1="260.35" y1="246.95" x2="257.49" y2="245.86"/><line class="cls-1" x1="257.49" y1="245.86" x2="254.47" y2="245.44"/><line class="cls-1" x1="254.47" y1="245.44" x2="251.44" y2="245.86"/><line class="cls-1" x1="251.44" y1="245.86" x2="248.59" y2="246.95"/><line class="cls-1" x1="248.59" y1="246.95" x2="236.32" y2="253.92"/><line class="cls-1" x1="236.32" y1="253.92" x2="233.97" y2="255.02"/><line class="cls-1" x1="233.97" y1="255.02" x2="231.53" y2="255.6"/><line class="cls-1" x1="231.53" y1="255.6" x2="229.01" y2="255.6"/><line class="cls-1" x1="229.01" y1="255.6" x2="226.49" y2="255.02"/><line class="cls-1" x1="226.49" y1="255.02" x2="224.14" y2="253.92"/><line class="cls-1" x1="224.14" y1="253.92" x2="211.29" y2="246.95"/><line class="cls-1" x1="211.29" y1="246.95" x2="208.43" y2="245.78"/><line class="cls-1" x1="208.43" y1="245.78" x2="205.41" y2="245.44"/><line class="cls-1" x1="205.41" y1="245.44" x2="202.39" y2="245.78"/><line class="cls-1" x1="202.39" y1="245.78" x2="199.61" y2="246.95"/><line class="cls-1" x1="199.61" y1="246.95" x2="187.27" y2="253.92"/><line class="cls-1" x1="187.27" y1="253.92" x2="185" y2="255.02"/><line class="cls-1" x1="185" y1="255.02" x2="182.56" y2="255.52"/><line class="cls-1" x1="182.56" y1="255.52" x2="180.04" y2="255.52"/><line class="cls-1" x1="180.04" y1="255.52" x2="177.52" y2="255.02"/><line class="cls-1" x1="177.52" y1="255.02" x2="175.17" y2="253.92"/><line class="cls-1" x1="175.17" y1="253.92" x2="162.23" y2="246.87"/><line class="cls-1" x1="162.23" y1="246.87" x2="159.38" y2="245.78"/><line class="cls-1" x1="159.38" y1="245.78" x2="156.35" y2="245.36"/><line class="cls-1" x1="156.35" y1="245.36" x2="153.33" y2="245.78"/><line class="cls-1" x1="153.33" y1="245.78" x2="150.56" y2="246.95"/><line class="cls-1" x1="150.56" y1="246.95" x2="138.38" y2="253.92"/><line class="cls-1" x1="138.38" y1="253.92" x2="136.11" y2="254.93"/><line class="cls-1" x1="136.11" y1="254.93" x2="133.59" y2="255.52"/><line class="cls-1" x1="133.59" y1="255.52" x2="131.07" y2="255.52"/><line class="cls-1" x1="131.07" y1="255.52" x2="128.55" y2="254.93"/><line class="cls-1" x1="128.55" y1="254.93" x2="126.2" y2="253.84"/><line class="cls-1" x1="126.2" y1="253.84" x2="113.26" y2="246.87"/><line class="cls-1" x1="113.26" y1="246.87" x2="110.41" y2="245.69"/><line class="cls-1" x1="110.41" y1="245.69" x2="107.3" y2="245.36"/><line class="cls-1" x1="107.3" y1="245.36" x2="104.27" y2="245.78"/><line class="cls-1" x1="104.27" y1="245.78" x2="101.67" y2="246.87"/><line class="cls-1" x1="101.67" y1="246.87" x2="101.5" y2="246.95"/><line class="cls-1" x1="101.5" y1="246.95" x2="101.84" y2="247.46"/><line class="cls-1" x1="101.84" y1="247.46" x2="101.92" y2="247.37"/><line class="cls-1" x1="101.92" y1="247.37" x2="104.44" y2="246.36"/><line class="cls-1" x1="104.44" y1="246.36" x2="107.3" y2="246.03"/><line class="cls-1" x1="107.3" y1="246.03" x2="110.24" y2="246.36"/><line class="cls-1" x1="110.24" y1="246.36" x2="112.93" y2="247.37"/><line class="cls-1" x1="112.93" y1="247.37" x2="125.95" y2="254.43"/><line class="cls-1" x1="125.95" y1="254.43" x2="128.38" y2="255.52"/><line class="cls-1" x1="128.38" y1="255.52" x2="130.99" y2="256.11"/><line class="cls-1" x1="130.99" y1="256.11" x2="133.67" y2="256.11"/><line class="cls-1" x1="133.67" y1="256.11" x2="136.28" y2="255.52"/><line class="cls-1" x1="136.28" y1="255.52" x2="138.71" y2="254.43"/><line class="cls-1" x1="138.71" y1="254.43" x2="150.89" y2="247.46"/><line class="cls-1" x1="150.89" y1="247.46" x2="153.5" y2="246.36"/><line class="cls-1" x1="153.5" y1="246.36" x2="156.35" y2="246.03"/><line class="cls-1" x1="156.35" y1="246.03" x2="159.29" y2="246.36"/><line class="cls-1" x1="159.29" y1="246.36" x2="161.98" y2="247.46"/><line class="cls-1" x1="161.98" y1="247.46" x2="174.83" y2="254.43"/><line class="cls-1" x1="174.83" y1="254.43" x2="177.35" y2="255.6"/><line class="cls-1" x1="177.35" y1="255.6" x2="179.96" y2="256.19"/><line class="cls-1" x1="179.96" y1="256.19" x2="182.65" y2="256.19"/><line class="cls-1" x1="182.65" y1="256.19" x2="185.25" y2="255.6"/><line class="cls-1" x1="185.25" y1="255.6" x2="187.6" y2="254.43"/><line class="cls-1" x1="187.6" y1="254.43" x2="199.95" y2="247.46"/><line class="cls-1" x1="199.95" y1="247.46" x2="202.55" y2="246.45"/><line class="cls-1" x1="202.55" y1="246.45" x2="205.41" y2="246.03"/><line class="cls-1" x1="205.41" y1="246.03" x2="208.27" y2="246.36"/><line class="cls-1" x1="208.27" y1="246.36" x2="210.95" y2="247.46"/><line class="cls-1" x1="210.95" y1="247.46" x2="223.81" y2="254.51"/><line class="cls-1" x1="223.81" y1="254.51" x2="226.33" y2="255.6"/><line class="cls-1" x1="226.33" y1="255.6" x2="228.93" y2="256.19"/><line class="cls-1" x1="228.93" y1="256.19" x2="231.62" y2="256.19"/><line class="cls-1" x1="231.62" y1="256.19" x2="234.22" y2="255.6"/><line class="cls-1" x1="234.22" y1="255.6" x2="236.66" y2="254.51"/><line class="cls-1" x1="236.66" y1="254.51" x2="248.92" y2="247.54"/><line class="cls-1" x1="248.92" y1="247.54" x2="251.61" y2="246.45"/><line class="cls-1" x1="251.61" y1="246.45" x2="254.47" y2="246.11"/><line class="cls-1" x1="254.47" y1="246.11" x2="257.32" y2="246.45"/><line class="cls-1" x1="257.32" y1="246.45" x2="260.01" y2="247.46"/><line class="cls-1" x1="260.01" y1="247.46" x2="272.86" y2="254.51"/><line class="cls-1" x1="272.86" y1="254.51" x2="275.3" y2="255.6"/><line class="cls-1" x1="275.3" y1="255.6" x2="277.9" y2="256.19"/><line class="cls-1" x1="277.9" y1="256.19" x2="280.59" y2="256.19"/><line class="cls-1" x1="280.59" y1="256.19" x2="283.19" y2="255.69"/><line class="cls-1" x1="283.19" y1="255.69" x2="285.63" y2="254.51"/><line class="cls-1" x1="285.63" y1="254.51" x2="297.98" y2="247.54"/><line class="cls-1" x1="297.98" y1="247.54" x2="300.67" y2="246.45"/><line class="cls-1" x1="300.67" y1="246.45" x2="303.52" y2="246.11"/><line class="cls-1" x1="303.52" y1="246.11" x2="306.38" y2="246.45"/><line class="cls-1" x1="306.38" y1="246.45" x2="309.07" y2="247.54"/><line class="cls-1" x1="309.07" y1="247.54" x2="321.83" y2="254.51"/><line class="cls-1" x1="321.83" y1="254.51" x2="324.27" y2="255.69"/><line class="cls-1" x1="324.27" y1="255.69" x2="326.87" y2="256.28"/><line class="cls-1" x1="326.87" y1="256.28" x2="329.56" y2="256.28"/><line class="cls-1" x1="329.56" y1="256.28" x2="332.25" y2="255.69"/><line class="cls-1" x1="332.25" y1="255.69" x2="334.6" y2="254.51"/><line class="cls-1" x1="334.6" y1="254.51" x2="347.03" y2="247.54"/><line class="cls-1" x1="347.03" y1="247.54" x2="349.72" y2="246.53"/><line class="cls-1" x1="349.72" y1="246.53" x2="352.58" y2="246.11"/><line class="cls-1" x1="352.58" y1="246.11" x2="355.43" y2="246.53"/><line class="cls-1" x1="355.43" y1="246.53" x2="358.12" y2="247.54"/><line class="cls-1" x1="358.12" y1="247.54" x2="370.89" y2="254.6"/><line class="cls-1" x1="370.89" y1="254.6" x2="373.33" y2="255.69"/><line class="cls-1" x1="373.33" y1="255.69" x2="375.93" y2="256.28"/><line class="cls-1" x1="375.93" y1="256.28" x2="378.62" y2="256.28"/><line class="cls-1" x1="378.62" y1="256.28" x2="381.22" y2="255.69"/><line class="cls-1" x1="381.22" y1="255.69" x2="383.66" y2="254.6"/><line class="cls-1" x1="383.66" y1="254.6" x2="396.17" y2="247.62"/><line class="cls-1" x1="396.17" y1="247.62" x2="398.86" y2="246.53"/><line class="cls-1" x1="398.86" y1="246.53" x2="401.72" y2="246.2"/><line class="cls-1" x1="401.72" y1="246.2" x2="404.57" y2="246.53"/><line class="cls-1" x1="404.57" y1="246.53" x2="407.26" y2="247.54"/><line class="cls-1" x1="407.26" y1="247.54" x2="419.95" y2="254.6"/><line class="cls-1" x1="419.95" y1="254.6" x2="422.38" y2="255.77"/><line class="cls-1" x1="422.38" y1="255.77" x2="424.99" y2="256.36"/><line class="cls-1" x1="424.99" y1="256.36" x2="427.67" y2="256.36"/><line class="cls-1" x1="427.67" y1="256.36" x2="430.28" y2="255.77"/><line class="cls-1" x1="430.28" y1="255.77" x2="432.71" y2="254.6"/><line class="cls-1" x1="432.71" y1="254.6" x2="445.23" y2="247.62"/><line class="cls-1" x1="445.23" y1="247.62" x2="447.92" y2="246.53"/><line class="cls-1" x1="447.92" y1="246.53" x2="450.77" y2="246.2"/><line class="cls-1" x1="450.77" y1="246.2" x2="453.71" y2="246.53"/><line class="cls-1" x1="453.71" y1="246.53" x2="456.32" y2="247.62"/><line class="cls-1" x1="456.32" y1="247.62" x2="469" y2="254.6"/><line class="cls-1" x1="469" y1="254.6" x2="471.44" y2="255.77"/><line class="cls-1" x1="471.44" y1="255.77" x2="474.04" y2="256.36"/><line class="cls-1" x1="474.04" y1="256.36" x2="476.73" y2="256.36"/><line class="cls-1" x1="476.73" y1="256.36" x2="479.33" y2="255.77"/><line class="cls-1" x1="479.33" y1="255.77" x2="481.77" y2="254.6"/><line class="cls-1" x1="481.77" y1="254.6" x2="494.37" y2="247.71"/><line class="cls-1" x1="494.37" y1="247.71" x2="497.06" y2="246.62"/><line class="cls-1" x1="497.06" y1="246.62" x2="499.91" y2="246.2"/><line class="cls-1" x1="499.91" y1="246.2" x2="502.77" y2="246.62"/><line class="cls-1" x1="502.77" y1="246.62" x2="505.46" y2="247.62"/><line class="cls-1" x1="505.46" y1="247.62" x2="518.06" y2="254.68"/><line class="cls-1" x1="518.06" y1="254.68" x2="520.49" y2="255.77"/><line class="cls-1" x1="520.49" y1="255.77" x2="523.1" y2="256.36"/><line class="cls-1" x1="523.1" y1="256.36" x2="525.79" y2="256.36"/><line class="cls-1" x1="525.79" y1="256.36" x2="528.39" y2="255.77"/><line class="cls-1" x1="528.39" y1="255.77" x2="530.91" y2="254.68"/><line class="cls-1" x1="530.91" y1="254.68" x2="543.51" y2="247.71"/><line class="cls-1" x1="543.51" y1="247.71" x2="546.2" y2="246.62"/><line class="cls-1" x1="546.2" y1="246.62" x2="549.14" y2="246.28"/><line class="cls-1" x1="549.14" y1="246.28" x2="551.99" y2="246.62"/><line class="cls-1" x1="551.99" y1="246.62" x2="554.6" y2="247.71"/><line class="cls-1" x1="554.6" y1="247.71" x2="567.2" y2="254.68"/><line class="cls-1" x1="567.2" y1="254.68" x2="569.55" y2="255.86"/><line class="cls-1" x1="569.55" y1="255.86" x2="572.15" y2="256.44"/><line class="cls-1" x1="572.15" y1="256.44" x2="574.84" y2="256.44"/><line class="cls-1" x1="574.84" y1="256.44" x2="577.53" y2="255.86"/><line class="cls-1" x1="577.53" y1="255.86" x2="579.97" y2="254.68"/><line class="cls-1" x1="579.97" y1="254.68" x2="592.65" y2="247.71"/><line class="cls-1" x1="592.65" y1="247.71" x2="595.42" y2="246.62"/><line class="cls-1" x1="595.42" y1="246.62" x2="598.28" y2="246.28"/><line class="cls-1" x1="598.28" y1="246.28" x2="601.13" y2="246.62"/><line class="cls-1" x1="601.13" y1="246.62" x2="603.82" y2="247.71"/><line class="cls-1" x1="603.82" y1="247.71" x2="616.34" y2="254.68"/><line class="cls-1" x1="616.34" y1="254.68" x2="618.69" y2="255.86"/><line class="cls-1" x1="618.69" y1="255.86" x2="621.29" y2="256.44"/><line class="cls-1" x1="621.29" y1="256.44" x2="623.98" y2="256.44"/><line class="cls-1" x1="623.98" y1="256.44" x2="626.67" y2="255.86"/><line class="cls-1" x1="626.67" y1="255.86" x2="629.11" y2="254.68"/><line class="cls-1" x1="629.11" y1="254.68" x2="628.77" y2="254.18"/><line class="cls-1" x1="628.77" y1="254.18" x2="626.42" y2="255.27"/><line class="cls-1" x1="626.42" y1="255.27" x2="623.98" y2="255.86"/><line class="cls-1" x1="623.98" y1="255.86" x2="621.38" y2="255.86"/><line class="cls-1" x1="621.38" y1="255.86" x2="618.94" y2="255.27"/><line class="cls-1" x1="618.94" y1="255.27" x2="616.67" y2="254.18"/><line class="cls-1" x1="472.36" y1="161.02" x2="473.37" y2="161.52"/><line class="cls-1" x1="473.37" y1="161.52" x2="474.38" y2="161.69"/><line class="cls-1" x1="474.38" y1="161.69" x2="475.39" y2="161.69"/><line class="cls-1" x1="475.39" y1="161.69" x2="476.48" y2="161.52"/><line class="cls-1" x1="476.48" y1="161.52" x2="477.4" y2="161.02"/><line class="cls-1" x1="259.25" y1="158.08" x2="259.34" y2="158"/><line class="cls-1" x1="259.34" y1="158" x2="260.43" y2="157.58"/><line class="cls-1" x1="260.43" y1="157.58" x2="261.69" y2="157.41"/><line class="cls-1" x1="261.69" y1="157.41" x2="262.95" y2="157.58"/><line class="cls-1" x1="262.95" y1="157.58" x2="264.13" y2="158"/><line class="cls-1" x1="264.13" y1="158" x2="269.5" y2="160.94"/><line class="cls-1" x1="269.5" y1="160.94" x2="270.43" y2="161.44"/><line class="cls-1" x1="270.43" y1="161.44" x2="271.43" y2="161.69"/><line class="cls-1" x1="271.43" y1="161.69" x2="272.53" y2="161.69"/><line class="cls-1" x1="272.53" y1="161.69" x2="273.53" y2="161.44"/><line class="cls-1" x1="273.53" y1="161.44" x2="274.46" y2="161.02"/><line class="cls-1" x1="274.46" y1="161.02" x2="279.58" y2="158.08"/><line class="cls-1" x1="279.58" y1="158.08" x2="280.76" y2="157.58"/><line class="cls-1" x1="280.76" y1="157.58" x2="282.02" y2="157.41"/><line class="cls-1" x1="282.02" y1="157.41" x2="283.28" y2="157.58"/><line class="cls-1" x1="283.28" y1="157.58" x2="284.45" y2="158.08"/><line class="cls-1" x1="284.45" y1="158.08" x2="289.75" y2="161.02"/><line class="cls-1" x1="289.75" y1="161.02" x2="290.67" y2="161.44"/><line class="cls-1" x1="290.67" y1="161.44" x2="291.76" y2="161.69"/><line class="cls-1" x1="291.76" y1="161.69" x2="292.77" y2="161.69"/><line class="cls-1" x1="292.77" y1="161.69" x2="293.86" y2="161.44"/><line class="cls-1" x1="293.86" y1="161.44" x2="294.79" y2="161.02"/><line class="cls-1" x1="294.79" y1="161.02" x2="299.91" y2="158.08"/><line class="cls-1" x1="299.91" y1="158.08" x2="301.09" y2="157.58"/><line class="cls-1" x1="301.09" y1="157.58" x2="302.35" y2="157.41"/><line class="cls-1" x1="302.35" y1="157.41" x2="303.52" y2="157.58"/><line class="cls-1" x1="303.52" y1="157.58" x2="304.7" y2="158.08"/><line class="cls-1" x1="304.7" y1="158.08" x2="310.07" y2="161.02"/><line class="cls-1" x1="310.07" y1="161.02" x2="311" y2="161.44"/><line class="cls-1" x1="311" y1="161.44" x2="312.01" y2="161.69"/><line class="cls-1" x1="312.01" y1="161.69" x2="313.1" y2="161.69"/><line class="cls-1" x1="313.1" y1="161.69" x2="314.11" y2="161.44"/><line class="cls-1" x1="314.11" y1="161.44" x2="315.03" y2="161.02"/><line class="cls-1" x1="315.03" y1="161.02" x2="320.15" y2="158.08"/><line class="cls-1" x1="320.15" y1="158.08" x2="321.33" y2="157.58"/><line class="cls-1" x1="321.33" y1="157.58" x2="322.59" y2="157.41"/><line class="cls-1" x1="322.59" y1="157.41" x2="323.85" y2="157.58"/><line class="cls-1" x1="323.85" y1="157.58" x2="325.03" y2="158.08"/><line class="cls-1" x1="325.03" y1="158.08" x2="330.32" y2="161.02"/><line class="cls-1" x1="330.32" y1="161.02" x2="331.24" y2="161.44"/><line class="cls-1" x1="331.24" y1="161.44" x2="332.33" y2="161.69"/><line class="cls-1" x1="332.33" y1="161.69" x2="333.34" y2="161.69"/><line class="cls-1" x1="333.34" y1="161.69" x2="334.35" y2="161.44"/><line class="cls-1" x1="334.35" y1="161.44" x2="335.36" y2="161.02"/><line class="cls-1" x1="335.36" y1="161.02" x2="340.48" y2="158.08"/><line class="cls-1" x1="340.48" y1="158.08" x2="341.66" y2="157.58"/><line class="cls-1" x1="341.66" y1="157.58" x2="342.92" y2="157.41"/><line class="cls-1" x1="342.92" y1="157.41" x2="344.18" y2="157.58"/><line class="cls-1" x1="344.18" y1="157.58" x2="345.35" y2="158.08"/><line class="cls-1" x1="345.35" y1="158.08" x2="350.56" y2="161.02"/><line class="cls-1" x1="350.56" y1="161.02" x2="351.57" y2="161.44"/><line class="cls-1" x1="351.57" y1="161.44" x2="352.58" y2="161.69"/><line class="cls-1" x1="352.58" y1="161.69" x2="353.67" y2="161.69"/><line class="cls-1" x1="353.67" y1="161.69" x2="354.68" y2="161.44"/><line class="cls-1" x1="354.68" y1="161.44" x2="355.6" y2="161.02"/><line class="cls-1" x1="355.6" y1="161.02" x2="360.81" y2="158.08"/><line class="cls-1" x1="360.81" y1="158.08" x2="361.9" y2="157.58"/><line class="cls-1" x1="361.9" y1="157.58" x2="363.16" y2="157.41"/><line class="cls-1" x1="363.16" y1="157.41" x2="364.42" y2="157.58"/><line class="cls-1" x1="364.42" y1="157.58" x2="365.6" y2="158.08"/><line class="cls-1" x1="365.6" y1="158.08" x2="370.89" y2="161.02"/><line class="cls-1" x1="370.89" y1="161.02" x2="371.81" y2="161.44"/><line class="cls-1" x1="371.81" y1="161.44" x2="372.91" y2="161.69"/><line class="cls-1" x1="372.91" y1="161.69" x2="373.91" y2="161.69"/><line class="cls-1" x1="373.91" y1="161.69" x2="374.92" y2="161.44"/><line class="cls-1" x1="374.92" y1="161.44" x2="375.93" y2="161.02"/><line class="cls-1" x1="375.93" y1="161.02" x2="381.05" y2="158.08"/><line class="cls-1" x1="381.05" y1="158.08" x2="382.23" y2="157.58"/><line class="cls-1" x1="382.23" y1="157.58" x2="383.49" y2="157.41"/><line class="cls-1" x1="383.49" y1="157.41" x2="384.75" y2="157.58"/><line class="cls-1" x1="384.75" y1="157.58" x2="385.93" y2="158.08"/><line class="cls-1" x1="385.93" y1="158.08" x2="391.22" y2="161.02"/><line class="cls-1" x1="391.22" y1="161.02" x2="392.14" y2="161.44"/><line class="cls-1" x1="392.14" y1="161.44" x2="393.15" y2="161.69"/><line class="cls-1" x1="393.15" y1="161.69" x2="394.24" y2="161.69"/><line class="cls-1" x1="394.24" y1="161.69" x2="395.25" y2="161.44"/><line class="cls-1" x1="395.25" y1="161.44" x2="396.17" y2="161.02"/><line class="cls-1" x1="396.17" y1="161.02" x2="401.38" y2="158.08"/><line class="cls-1" x1="401.38" y1="158.08" x2="402.56" y2="157.58"/><line class="cls-1" x1="402.56" y1="157.58" x2="403.82" y2="157.41"/><line class="cls-1" x1="403.82" y1="157.41" x2="405.08" y2="157.58"/><line class="cls-1" x1="405.08" y1="157.58" x2="406.25" y2="158.08"/><line class="cls-1" x1="406.25" y1="158.08" x2="411.46" y2="161.02"/><line class="cls-1" x1="411.46" y1="161.02" x2="412.39" y2="161.44"/><line class="cls-1" x1="412.39" y1="161.44" x2="413.48" y2="161.69"/><line class="cls-1" x1="413.48" y1="161.69" x2="414.49" y2="161.69"/><line class="cls-1" x1="414.49" y1="161.69" x2="415.58" y2="161.44"/><line class="cls-1" x1="415.58" y1="161.44" x2="416.5" y2="161.02"/><line class="cls-1" x1="416.5" y1="161.02" x2="421.71" y2="158.08"/><line class="cls-1" x1="421.71" y1="158.08" x2="422.89" y2="157.58"/><line class="cls-1" x1="422.89" y1="157.58" x2="424.15" y2="157.49"/><line class="cls-1" x1="424.15" y1="157.49" x2="425.32" y2="157.58"/><line class="cls-1" x1="425.32" y1="157.58" x2="426.5" y2="158.08"/><line class="cls-1" x1="426.5" y1="158.08" x2="431.79" y2="161.02"/><line class="cls-1" x1="431.79" y1="161.02" x2="432.71" y2="161.44"/><line class="cls-1" x1="432.71" y1="161.44" x2="433.72" y2="161.69"/><line class="cls-1" x1="433.72" y1="161.69" x2="434.81" y2="161.69"/><line class="cls-1" x1="434.81" y1="161.69" x2="435.82" y2="161.44"/><line class="cls-1" x1="435.82" y1="161.44" x2="436.83" y2="161.02"/><line class="cls-1" x1="436.83" y1="161.02" x2="441.95" y2="158.08"/><line class="cls-1" x1="441.95" y1="158.08" x2="443.13" y2="157.66"/><line class="cls-1" x1="443.13" y1="157.66" x2="444.39" y2="157.49"/><line class="cls-1" x1="444.39" y1="157.49" x2="445.65" y2="157.58"/><line class="cls-1" x1="445.65" y1="157.58" x2="446.83" y2="158.08"/><line class="cls-1" x1="446.83" y1="158.08" x2="452.12" y2="161.02"/><line class="cls-1" x1="452.12" y1="161.02" x2="453.04" y2="161.44"/><line class="cls-1" x1="453.04" y1="161.44" x2="454.05" y2="161.69"/><line class="cls-1" x1="454.05" y1="161.69" x2="455.14" y2="161.69"/><line class="cls-1" x1="455.14" y1="161.69" x2="456.15" y2="161.44"/><line class="cls-1" x1="456.15" y1="161.44" x2="457.07" y2="161.02"/><line class="cls-1" x1="457.07" y1="161.02" x2="462.28" y2="158.08"/><line class="cls-1" x1="462.28" y1="158.08" x2="463.46" y2="157.66"/><line class="cls-1" x1="463.46" y1="157.66" x2="464.72" y2="157.49"/><line class="cls-1" x1="464.72" y1="157.49" x2="465.98" y2="157.58"/><line class="cls-1" x1="465.98" y1="157.58" x2="467.15" y2="158.08"/><line class="cls-1" x1="467.15" y1="158.08" x2="472.36" y2="161.02"/><line class="cls-1" x1="616.67" y1="254.18" x2="472.36" y2="161.02"/><line class="cls-1" x1="457.07" y1="161.02" x2="579.71" y2="254.18"/><line class="cls-1" x1="126.2" y1="253.84" x2="269.5" y2="160.94"/><line class="cls-1" x1="101.5" y1="246.95" x2="259.25" y2="158.08"/><line class="cls-1" x1="477.4" y1="161.02" x2="628.77" y2="254.18"/><line class="cls-1" x1="452.12" y1="161.02" x2="567.53" y2="254.18"/><line class="cls-1" x1="436.83" y1="161.02" x2="530.57" y2="254.09"/><line class="cls-1" x1="431.79" y1="161.02" x2="518.39" y2="254.09"/><line class="cls-1" x1="416.5" y1="161.02" x2="481.43" y2="254.09"/><line class="cls-1" x1="411.46" y1="161.02" x2="469.34" y2="254.09"/><line class="cls-1" x1="396.17" y1="161.02" x2="432.38" y2="254.09"/><line class="cls-1" x1="391.22" y1="161.02" x2="420.28" y2="254.09"/><line class="cls-1" x1="375.93" y1="161.02" x2="383.32" y2="254.01"/><line class="cls-1" x1="370.89" y1="161.02" x2="371.23" y2="254.01"/><line class="cls-1" x1="355.6" y1="161.02" x2="334.27" y2="254.01"/><line class="cls-1" x1="350.56" y1="161.02" x2="322.17" y2="254.01"/><line class="cls-1" x1="335.36" y1="161.02" x2="285.29" y2="254.01"/><line class="cls-1" x1="330.32" y1="161.02" x2="273.2" y2="254.01"/><line class="cls-1" x1="315.03" y1="161.02" x2="236.32" y2="253.92"/><line class="cls-1" x1="310.07" y1="161.02" x2="224.14" y2="253.92"/><line class="cls-1" x1="294.79" y1="161.02" x2="187.27" y2="253.92"/><line class="cls-1" x1="289.75" y1="161.02" x2="175.17" y2="253.92"/><line class="cls-1" x1="274.46" y1="161.02" x2="138.38" y2="253.92"/></g><g id="Dimensions"><line class="cls-2" x1="108.14" y1="261.15" x2="108.14" y2="279.8"/><line class="cls-2" x1="105.2" y1="276.86" x2="600.38" y2="276.86"/><line class="cls-2" x1="597.35" y1="279.8" x2="597.35" y2="261.15"/><line class="cls-2" x1="90.25" y1="245.27" x2="69.58" y2="245.27"/><line class="cls-2" x1="90.25" y1="256.36" x2="69.58" y2="256.36"/><line class="cls-2" x1="72.52" y1="259.3" x2="72.52" y2="242.33"/><line class="cls-3" x1="72.52" y1="245.27" x2="75.29" y2="242.5"/><line class="cls-3" x1="72.52" y1="245.27" x2="69.75" y2="248.04"/><line class="cls-3" x1="72.52" y1="256.36" x2="75.29" y2="253.5"/><line class="cls-3" x1="72.52" y1="256.36" x2="69.75" y2="259.13"/><line class="cls-3" x1="108.14" y1="276.86" x2="110.99" y2="274"/><line class="cls-3" x1="108.14" y1="276.86" x2="105.37" y2="279.63"/><line class="cls-3" x1="597.35" y1="276.86" x2="600.13" y2="274"/><line class="cls-3" x1="597.35" y1="276.86" x2="594.58" y2="279.63"/><path d="M290,283.11v-1.35H296v1.09a17.14,17.14,0,0,0-2.39,4.6,19.71,19.71,0,0,0-1.19,5.61h-1.18a17,17,0,0,1,.46-3.35,20,20,0,0,1,1.19-3.65,15.56,15.56,0,0,1,1.63-2.95Z"/><path d="M303.14,284.41l-1.14.11a2.68,2.68,0,0,0-.49-1.26,1.39,1.39,0,0,0-1.1-.54,1.85,1.85,0,0,0-1.62,1.25,7.7,7.7,0,0,0-.53,3.19,3,3,0,0,1,1-1.14,2.32,2.32,0,0,1,1.28-.39,2.46,2.46,0,0,1,1.94,1,4.12,4.12,0,0,1,.84,2.71,5,5,0,0,1-.42,2.08,3.1,3.1,0,0,1-1.08,1.38,2.48,2.48,0,0,1-1.44.45A2.78,2.78,0,0,1,298,292a7.5,7.5,0,0,1-.93-4.28,8.84,8.84,0,0,1,.95-4.73,2.81,2.81,0,0,1,2.42-1.41,2.44,2.44,0,0,1,1.79.73A3.45,3.45,0,0,1,303.14,284.41Zm-4.7,4.94a3.19,3.19,0,0,0,.59,2,1.69,1.69,0,0,0,1.36.75,1.53,1.53,0,0,0,1.21-.71,3.14,3.14,0,0,0,.54-1.95,3,3,0,0,0-.53-1.89,1.61,1.61,0,0,0-1.3-.67,1.67,1.67,0,0,0-1.31.66A2.76,2.76,0,0,0,298.44,289.35Z"/><path d="M310.54,291.71v1.35h-6.21a3.86,3.86,0,0,1,.5-1.83,10.09,10.09,0,0,1,1.9-2.4,14,14,0,0,0,2.12-2.5,3.35,3.35,0,0,0,.5-1.63,2,2,0,0,0-.51-1.43,1.67,1.67,0,0,0-1.27-.55,1.7,1.7,0,0,0-1.32.59,2.57,2.57,0,0,0-.51,1.71l-1.19-.14a3.94,3.94,0,0,1,.93-2.49,2.85,2.85,0,0,1,2.13-.83,2.56,2.56,0,0,1,2.18,1,3.56,3.56,0,0,1,.74,2.2,4.21,4.21,0,0,1-.58,2.1,15.75,15.75,0,0,1-2.2,2.68c-.68.7-1.13,1.18-1.33,1.43a5.17,5.17,0,0,0-.49.77Z"/><path d="M312.1,293.06v-8.29h1v1.15a2.58,2.58,0,0,1,.88-1,2.07,2.07,0,0,1,1.18-.35,1.94,1.94,0,0,1,1.21.37,2,2,0,0,1,.71,1.07,3.14,3.14,0,0,1,.93-1.08,2.08,2.08,0,0,1,1.18-.36,1.93,1.93,0,0,1,1.54.66,3.23,3.23,0,0,1,.56,2.13v5.69h-1.14v-5.23a4.47,4.47,0,0,0-.13-1.26,1.1,1.1,0,0,0-1.08-.78,1.49,1.49,0,0,0-1.21.59,2.92,2.92,0,0,0-.47,1.86v4.82h-1.15v-5.39a2.52,2.52,0,0,0-.32-1.46,1,1,0,0,0-.87-.42,1.45,1.45,0,0,0-1.25.64,4.26,4.26,0,0,0-.45,2.32v4.31Z"/><path d="M323,293.06v-8.29h1v1.15a2.58,2.58,0,0,1,.88-1,2.07,2.07,0,0,1,1.18-.35,1.94,1.94,0,0,1,1.21.37A2,2,0,0,1,328,286a3.14,3.14,0,0,1,.93-1.08,2.08,2.08,0,0,1,1.18-.36,1.93,1.93,0,0,1,1.54.66,3.23,3.23,0,0,1,.56,2.13v5.69h-1.14v-5.23a4.47,4.47,0,0,0-.13-1.26,1.1,1.1,0,0,0-1.08-.78,1.49,1.49,0,0,0-1.21.59,2.92,2.92,0,0,0-.48,1.86v4.82h-1.14v-5.39a2.52,2.52,0,0,0-.32-1.46,1,1,0,0,0-.87-.42,1.45,1.45,0,0,0-1.25.64,4.26,4.26,0,0,0-.45,2.32v4.31Z"/><path d="M339.81,296.43a16.79,16.79,0,0,1-1.57-3.31,12.44,12.44,0,0,1-.7-4.21,14.16,14.16,0,0,1,2.27-7.5h.83a25.6,25.6,0,0,0-1.21,2.85,13.9,13.9,0,0,0-.52,2.22,15.35,15.35,0,0,0-.2,2.44,16.41,16.41,0,0,0,1.93,7.51Z"/><path d="M344.84,291v-3.15h-3.12v-1.31h3.12v-3.12h1.33v3.12h3.12v1.31h-3.12V291Zm4.45,2h-7.57v-1.31h7.57Z"/><path d="M354.11,293.06v-2.74H350V289l4.28-7.42h.95V289h1.27v1.29h-1.27v2.74Zm0-4v-5.16L351.18,289Z"/><path d="M358.05,293.06v-8.29h1v1.15a2.58,2.58,0,0,1,.88-1,2.07,2.07,0,0,1,1.18-.35,1.94,1.94,0,0,1,1.21.37,2,2,0,0,1,.71,1.07,3.06,3.06,0,0,1,.94-1.08,2,2,0,0,1,1.17-.36,1.91,1.91,0,0,1,1.54.66,3.23,3.23,0,0,1,.57,2.13v5.69h-1.15v-5.23a4.12,4.12,0,0,0-.13-1.26,1.2,1.2,0,0,0-.42-.58,1.14,1.14,0,0,0-.65-.2,1.49,1.49,0,0,0-1.22.59,3,3,0,0,0-.47,1.86v4.82h-1.15v-5.39a2.52,2.52,0,0,0-.32-1.46,1,1,0,0,0-.87-.42,1.43,1.43,0,0,0-1.24.64,4.16,4.16,0,0,0-.46,2.32v4.31Z"/><path d="M369,293.06v-8.29h1v1.15a2.58,2.58,0,0,1,.88-1,2.07,2.07,0,0,1,1.18-.35,1.94,1.94,0,0,1,1.21.37A2,2,0,0,1,374,286a3.06,3.06,0,0,1,.94-1.08,2,2,0,0,1,1.17-.36,1.91,1.91,0,0,1,1.54.66,3.23,3.23,0,0,1,.57,2.13v5.69h-1.15v-5.23a4.12,4.12,0,0,0-.13-1.26,1.2,1.2,0,0,0-.42-.58,1.16,1.16,0,0,0-.65-.2,1.49,1.49,0,0,0-1.22.59,3,3,0,0,0-.47,1.86v4.82H373v-5.39a2.52,2.52,0,0,0-.32-1.46,1,1,0,0,0-.87-.42,1.43,1.43,0,0,0-1.24.64,4.16,4.16,0,0,0-.46,2.32v4.31Z"/><path d="M380.36,296.43h-.83a16.51,16.51,0,0,0,1.91-7.51,15.34,15.34,0,0,0-.19-2.44,15.08,15.08,0,0,0-.52-2.22,27.16,27.16,0,0,0-1.2-2.85h.83a14.24,14.24,0,0,1,2.26,7.5,12.4,12.4,0,0,1-.68,4.14A15.87,15.87,0,0,1,380.36,296.43Z"/><path d="M394.75,289.05l1.25.38a5.31,5.31,0,0,1-1.45,2.88,3.61,3.61,0,0,1-2.52.95,3.78,3.78,0,0,1-2.23-.64,4.47,4.47,0,0,1-1.52-2,8.65,8.65,0,0,1-.59-3.33,7.85,7.85,0,0,1,.59-3.2,4.64,4.64,0,0,1,1.6-2,4,4,0,0,1,2.25-.66,3.47,3.47,0,0,1,2.34.84,4.6,4.6,0,0,1,1.37,2.48l-1.22.36c-.42-1.59-1.25-2.39-2.51-2.39a2.78,2.78,0,0,0-1.63.48,3.27,3.27,0,0,0-1.1,1.5,7,7,0,0,0-.41,2.57,6.15,6.15,0,0,0,.83,3.53A2.56,2.56,0,0,0,392,292a2.43,2.43,0,0,0,1.76-.72A3.93,3.93,0,0,0,394.75,289.05Z"/><path d="M397,288.91a5,5,0,0,1,.9-3.24,2.93,2.93,0,0,1,4.56,0,4.8,4.8,0,0,1,.91,3.16,5.23,5.23,0,0,1-.89,3.33,2.93,2.93,0,0,1-4.57,0A5,5,0,0,1,397,288.91Zm1.18,0a4,4,0,0,0,.58,2.4,1.78,1.78,0,0,0,1.46.78,1.69,1.69,0,0,0,1.39-.79,4,4,0,0,0,.58-2.39,4,4,0,0,0-.58-2.39,1.77,1.77,0,0,0-1.45-.79,1.7,1.7,0,0,0-1.4.79A4,4,0,0,0,398.13,288.91Z"/><path d="M406.58,293.06,404,284.77h1.21l1.47,5c.17.57.31,1.12.44,1.68.1-.44.24-1,.42-1.58l1.52-5.06h1.19l-2.59,8.29Z"/><path d="M415.89,290.39l1.19.18a3.57,3.57,0,0,1-1.07,2,2.84,2.84,0,0,1-1.93.68,2.89,2.89,0,0,1-2.34-1.1,5,5,0,0,1-.89-3.17,5.14,5.14,0,0,1,.9-3.27,2.78,2.78,0,0,1,2.29-1.13,2.71,2.71,0,0,1,2.2,1.11,5.05,5.05,0,0,1,.88,3.21v.37H412a3.55,3.55,0,0,0,.64,2.11,1.75,1.75,0,0,0,1.41.71C415,292.09,415.56,291.53,415.89,290.39Zm-3.78-2.27h3.79a3.08,3.08,0,0,0-.46-1.61,1.66,1.66,0,0,0-2.73-.13A2.76,2.76,0,0,0,412.11,288.12Z"/><path d="M418.54,293.06v-8.29h1V286a3.67,3.67,0,0,1,.73-1.16,1.11,1.11,0,0,1,.75-.28,2,2,0,0,1,1.18.45l-.39,1.31A1.43,1.43,0,0,0,421,286a1,1,0,0,0-.67.26,1.37,1.37,0,0,0-.43.72,6.26,6.26,0,0,0-.22,1.71v4.34Z"/><path d="M33,256.05H31.85v-9a5.74,5.74,0,0,1-1.07.95,6.55,6.55,0,0,1-1.23.74v-1.36a7.25,7.25,0,0,0,1.68-1.33,5.11,5.11,0,0,0,1-1.54H33Z"/><path d="M41.94,247.39l-1.15.11a2.8,2.8,0,0,0-.48-1.25,1.43,1.43,0,0,0-1.11-.55A1.85,1.85,0,0,0,37.58,247a7.9,7.9,0,0,0-.53,3.19,3,3,0,0,1,1-1.14,2.41,2.41,0,0,1,1.28-.38,2.49,2.49,0,0,1,2,1,4.16,4.16,0,0,1,.83,2.71,5,5,0,0,1-.42,2.08,3.27,3.27,0,0,1-1.07,1.38,2.58,2.58,0,0,1-1.45.44A2.75,2.75,0,0,1,36.83,255a7.47,7.47,0,0,1-.92-4.27,8.83,8.83,0,0,1,.94-4.73,2.83,2.83,0,0,1,2.42-1.41,2.41,2.41,0,0,1,1.79.73A3.48,3.48,0,0,1,41.94,247.39Zm-4.71,5a3.14,3.14,0,0,0,.59,2,1.68,1.68,0,0,0,1.36.76,1.52,1.52,0,0,0,1.21-.71,3.19,3.19,0,0,0,.54-2,3,3,0,0,0-.53-1.89,1.61,1.61,0,0,0-1.3-.67,1.65,1.65,0,0,0-1.31.67A2.74,2.74,0,0,0,37.23,252.34Z"/><path d="M43.59,256.05v-8.3h1v1.16a2.71,2.71,0,0,1,.89-1,2.11,2.11,0,0,1,1.17-.35A1.86,1.86,0,0,1,48.6,249a3.3,3.3,0,0,1,.94-1.09,2,2,0,0,1,1.17-.36,2,2,0,0,1,1.55.67,3.28,3.28,0,0,1,.56,2.12v5.7H51.67v-5.23a4.19,4.19,0,0,0-.13-1.27,1,1,0,0,0-.42-.57,1.07,1.07,0,0,0-.65-.21,1.49,1.49,0,0,0-1.22.6,3,3,0,0,0-.47,1.85v4.83H47.63v-5.4a2.49,2.49,0,0,0-.31-1.45,1.07,1.07,0,0,0-.88-.43,1.46,1.46,0,0,0-1.24.64,4.2,4.2,0,0,0-.46,2.33v4.31Z"/><path d="M54.52,256.05v-8.3h1v1.16a2.71,2.71,0,0,1,.89-1,2.11,2.11,0,0,1,1.17-.35A1.86,1.86,0,0,1,59.53,249a3.3,3.3,0,0,1,.94-1.09,2,2,0,0,1,1.17-.36,2,2,0,0,1,1.55.67,3.28,3.28,0,0,1,.56,2.12v5.7H62.6v-5.23a4.19,4.19,0,0,0-.13-1.27,1,1,0,0,0-.42-.57,1.07,1.07,0,0,0-.65-.21,1.49,1.49,0,0,0-1.22.6,3,3,0,0,0-.47,1.85v4.83H58.56v-5.4a2.49,2.49,0,0,0-.31-1.45,1.07,1.07,0,0,0-.88-.43,1.46,1.46,0,0,0-1.24.64,4.2,4.2,0,0,0-.46,2.33v4.31Z"/></g></svg>