<svg xmlns="http://www.w3.org/2000/svg" viewBox="0 0 400 400"><defs><style>.cls-1,.cls-2,.cls-3,.cls-4{fill:none;stroke:#000;stroke-linecap:round;stroke-linejoin:round;}.cls-1{stroke-width:0.6px;}.cls-2{stroke-width:0.5px;}.cls-3{stroke-width:0.96px;}.cls-4{stroke-width:0.48px;}</style></defs><title>Gutter-Quad 115-Hi Front-Dimensioned</title><g id="Image"><line class="cls-1" x1="230.63" y1="161.44" x2="349.55" y2="67.12"/><line class="cls-1" x1="354.95" y1="72.4" x2="243.95" y2="177.64"/><line class="cls-1" x1="343.55" y1="101.8" x2="216.83" y2="253.84"/><line class="cls-1" x1="100.55" y1="171.64" x2="289.43" y2="77.08"/><line class="cls-1" x1="229.19" y1="179.8" x2="244.19" y2="166.48"/><line class="cls-1" x1="100.07" y1="172.48" x2="98.51" y2="230.68"/><line class="cls-1" x1="98.51" y1="230.68" x2="98.63" y2="231.4"/><line class="cls-1" x1="98.63" y1="231.4" x2="98.75" y2="232"/><line class="cls-1" x1="98.75" y1="232" x2="98.99" y2="232.72"/><line class="cls-1" x1="98.99" y1="232.72" x2="99.35" y2="233.2"/><line class="cls-1" x1="99.35" y1="233.2" x2="99.83" y2="233.68"/><line class="cls-1" x1="99.83" y1="233.68" x2="100.31" y2="234.16"/><line class="cls-1" x1="100.31" y1="234.16" x2="100.79" y2="234.28"/><line class="cls-1" x1="100.79" y1="234.28" x2="188.03" y2="261.28"/><line class="cls-1" x1="188.03" y1="261.28" x2="192.23" y2="262.24"/><line class="cls-1" x1="192.23" y1="262.24" x2="196.43" y2="262.72"/><line class="cls-1" x1="196.43" y1="262.72" x2="200.51" y2="262.48"/><line class="cls-1" x1="200.51" y1="262.48" x2="204.59" y2="261.76"/><line class="cls-1" x1="204.59" y1="261.76" x2="208.31" y2="260.44"/><line class="cls-1" x1="208.31" y1="260.44" x2="211.79" y2="258.4"/><line class="cls-1" x1="211.79" y1="258.4" x2="214.91" y2="255.88"/><line class="cls-1" x1="214.91" y1="255.88" x2="216.83" y2="253.84"/><line class="cls-1" x1="216.83" y1="253.84" x2="217.67" y2="252.88"/><line class="cls-1" x1="217.67" y1="252.88" x2="219.83" y2="249.28"/><line class="cls-1" x1="219.83" y1="249.28" x2="221.63" y2="245.32"/><line class="cls-1" x1="221.63" y1="245.32" x2="222.95" y2="241"/><line class="cls-1" x1="222.95" y1="241" x2="223.55" y2="236.44"/><line class="cls-1" x1="223.55" y1="236.44" x2="228.23" y2="184.24"/><line class="cls-1" x1="228.23" y1="184.24" x2="228.47" y2="182.8"/><line class="cls-1" x1="228.47" y1="182.8" x2="229.07" y2="181.6"/><line class="cls-1" x1="229.07" y1="181.6" x2="229.91" y2="180.64"/><line class="cls-1" x1="229.91" y1="180.64" x2="229.91" y2="180.64"/><line class="cls-1" x1="229.91" y1="180.64" x2="230.99" y2="179.92"/><line class="cls-1" x1="230.99" y1="179.92" x2="232.19" y2="179.44"/><line class="cls-1" x1="232.19" y1="179.44" x2="233.63" y2="179.44"/><line class="cls-1" x1="233.63" y1="179.44" x2="238.19" y2="179.68"/><line class="cls-1" x1="238.19" y1="179.68" x2="240.47" y2="179.44"/><line class="cls-1" x1="240.47" y1="179.44" x2="242.63" y2="178.6"/><line class="cls-1" x1="242.63" y1="178.6" x2="243.95" y2="177.64"/><line class="cls-1" x1="243.95" y1="177.64" x2="244.31" y2="177.28"/><line class="cls-1" x1="244.31" y1="177.28" x2="245.63" y2="175.36"/><line class="cls-1" x1="245.63" y1="175.36" x2="246.35" y2="173.08"/><line class="cls-1" x1="246.35" y1="173.08" x2="246.35" y2="170.56"/><line class="cls-1" x1="246.35" y1="170.56" x2="245.87" y2="168.04"/><line class="cls-1" x1="245.87" y1="168.04" x2="244.79" y2="165.64"/><line class="cls-1" x1="244.79" y1="165.64" x2="243.11" y2="163.48"/><line class="cls-1" x1="243.11" y1="163.48" x2="241.19" y2="161.68"/><line class="cls-1" x1="241.19" y1="161.68" x2="238.91" y2="160.48"/><line class="cls-1" x1="238.91" y1="160.48" x2="236.51" y2="159.88"/><line class="cls-1" x1="236.51" y1="159.88" x2="234.11" y2="160"/><line class="cls-1" x1="234.11" y1="160" x2="231.95" y2="160.6"/><line class="cls-1" x1="231.95" y1="160.6" x2="230.63" y2="161.44"/><line class="cls-1" x1="230.63" y1="161.44" x2="230.15" y2="161.92"/><line class="cls-1" x1="230.15" y1="161.92" x2="228.71" y2="163.6"/><line class="cls-1" x1="228.71" y1="163.6" x2="227.87" y2="165.76"/><line class="cls-1" x1="227.87" y1="165.76" x2="227.63" y2="168.16"/><line class="cls-1" x1="227.63" y1="168.16" x2="228.59" y2="168.28"/><line class="cls-1" x1="228.59" y1="168.28" x2="228.83" y2="166.24"/><line class="cls-1" x1="228.83" y1="166.24" x2="229.67" y2="164.32"/><line class="cls-1" x1="229.67" y1="164.32" x2="230.87" y2="162.76"/><line class="cls-1" x1="230.87" y1="162.76" x2="231.23" y2="162.4"/><line class="cls-1" x1="231.23" y1="162.4" x2="232.55" y2="161.56"/><line class="cls-1" x1="232.55" y1="161.56" x2="234.47" y2="160.96"/><line class="cls-1" x1="234.47" y1="160.96" x2="236.51" y2="160.96"/><line class="cls-1" x1="236.51" y1="160.96" x2="238.67" y2="161.56"/><line class="cls-1" x1="238.67" y1="161.56" x2="240.71" y2="162.64"/><line class="cls-1" x1="240.71" y1="162.64" x2="242.51" y2="164.08"/><line class="cls-1" x1="242.51" y1="164.08" x2="243.95" y2="166"/><line class="cls-1" x1="243.95" y1="166" x2="244.91" y2="168.16"/><line class="cls-1" x1="244.91" y1="168.16" x2="245.39" y2="170.44"/><line class="cls-1" x1="245.39" y1="170.44" x2="245.27" y2="172.72"/><line class="cls-1" x1="245.27" y1="172.72" x2="244.67" y2="174.76"/><line class="cls-1" x1="244.67" y1="174.76" x2="243.47" y2="176.44"/><line class="cls-1" x1="243.47" y1="176.44" x2="243.11" y2="176.8"/><line class="cls-1" x1="243.11" y1="176.8" x2="242.03" y2="177.64"/><line class="cls-1" x1="242.03" y1="177.64" x2="240.11" y2="178.36"/><line class="cls-1" x1="240.11" y1="178.36" x2="238.07" y2="178.6"/><line class="cls-1" x1="238.07" y1="178.6" x2="233.51" y2="178.36"/><line class="cls-1" x1="233.51" y1="178.36" x2="231.83" y2="178.48"/><line class="cls-1" x1="231.83" y1="178.48" x2="230.39" y2="178.96"/><line class="cls-1" x1="230.39" y1="178.96" x2="229.19" y2="179.8"/><line class="cls-1" x1="229.19" y1="179.8" x2="229.19" y2="179.8"/><line class="cls-1" x1="229.19" y1="179.8" x2="228.23" y2="180.88"/><line class="cls-1" x1="228.23" y1="180.88" x2="227.51" y2="182.32"/><line class="cls-1" x1="227.51" y1="182.32" x2="227.15" y2="183.88"/><line class="cls-1" x1="227.15" y1="183.88" x2="222.59" y2="236.08"/><line class="cls-1" x1="222.59" y1="236.08" x2="221.99" y2="240.52"/><line class="cls-1" x1="221.99" y1="240.52" x2="220.79" y2="244.72"/><line class="cls-1" x1="220.79" y1="244.72" x2="218.99" y2="248.68"/><line class="cls-1" x1="218.99" y1="248.68" x2="216.83" y2="252.04"/><line class="cls-1" x1="216.83" y1="252.04" x2="215.99" y2="253"/><line class="cls-1" x1="215.99" y1="253" x2="214.19" y2="255.04"/><line class="cls-1" x1="214.19" y1="255.04" x2="211.07" y2="257.44"/><line class="cls-1" x1="211.07" y1="257.44" x2="207.71" y2="259.36"/><line class="cls-1" x1="207.71" y1="259.36" x2="204.11" y2="260.68"/><line class="cls-1" x1="204.11" y1="260.68" x2="200.27" y2="261.52"/><line class="cls-1" x1="200.27" y1="261.52" x2="196.19" y2="261.64"/><line class="cls-1" x1="196.19" y1="261.64" x2="192.11" y2="261.28"/><line class="cls-1" x1="192.11" y1="261.28" x2="188.03" y2="260.2"/><line class="cls-1" x1="188.03" y1="260.2" x2="101.15" y2="233.56"/><line class="cls-1" x1="101.15" y1="233.56" x2="100.67" y2="233.32"/><line class="cls-1" x1="100.67" y1="233.32" x2="100.19" y2="233.08"/><line class="cls-1" x1="100.19" y1="233.08" x2="99.83" y2="232.6"/><line class="cls-1" x1="99.83" y1="232.6" x2="99.59" y2="232.24"/><line class="cls-1" x1="99.59" y1="232.24" x2="99.35" y2="231.88"/><line class="cls-1" x1="99.35" y1="231.88" x2="99.23" y2="231.4"/><line class="cls-1" x1="99.23" y1="231.4" x2="99.23" y2="230.92"/><line class="cls-1" x1="99.23" y1="230.92" x2="100.79" y2="172.36"/><line class="cls-1" x1="100.79" y1="172.36" x2="103.55" y2="176.32"/><line class="cls-1" x1="103.55" y1="176.32" x2="104.03" y2="175.84"/><line class="cls-1" x1="104.03" y1="175.84" x2="101.63" y2="172.12"/><line class="cls-1" x1="101.63" y1="172.12" x2="101.51" y2="171.88"/><line class="cls-1" x1="101.51" y1="171.88" x2="101.27" y2="171.64"/><line class="cls-1" x1="101.27" y1="171.64" x2="101.03" y2="171.64"/><line class="cls-1" x1="101.03" y1="171.64" x2="100.79" y2="171.52"/><line class="cls-1" x1="100.79" y1="171.52" x2="100.55" y2="171.64"/><line class="cls-1" x1="100.55" y1="171.64" x2="100.55" y2="171.64"/><line class="cls-1" x1="100.55" y1="171.64" x2="100.43" y2="171.76"/><line class="cls-1" x1="100.43" y1="171.76" x2="100.19" y2="171.88"/><line class="cls-1" x1="100.19" y1="171.88" x2="100.19" y2="172.12"/><line class="cls-1" x1="100.19" y1="172.12" x2="100.07" y2="172.48"/><line class="cls-1" x1="289.43" y1="77.08" x2="289.43" y2="77.08"/><line class="cls-1" x1="289.43" y1="77.08" x2="289.55" y2="77.08"/><line class="cls-1" x1="289.55" y1="77.08" x2="289.67" y2="77.08"/><line class="cls-1" x1="289.67" y1="77.08" x2="289.79" y2="77.08"/><line class="cls-1" x1="289.79" y1="77.08" x2="289.91" y2="77.2"/><line class="cls-1" x1="289.91" y1="77.2" x2="290.03" y2="77.2"/><line class="cls-1" x1="290.03" y1="77.2" x2="291.23" y2="78.64"/><line class="cls-1" x1="291.23" y1="78.64" x2="290.99" y2="78.88"/><line class="cls-1" x1="289.55" y1="79.6" x2="288.59" y2="101.32"/><line class="cls-1" x1="288.59" y1="101.32" x2="288.59" y2="101.44"/><line class="cls-1" x1="288.59" y1="101.44" x2="288.71" y2="101.68"/><line class="cls-1" x1="288.71" y1="101.68" x2="288.83" y2="101.8"/><line class="cls-1" x1="288.83" y1="101.8" x2="288.95" y2="101.92"/><line class="cls-1" x1="288.95" y1="101.92" x2="289.07" y2="102.04"/><line class="cls-1" x1="289.07" y1="102.04" x2="289.31" y2="102.16"/><line class="cls-1" x1="289.31" y1="102.16" x2="289.55" y2="102.16"/><line class="cls-1" x1="289.55" y1="102.16" x2="303.59" y2="103.6"/><line class="cls-1" x1="349.31" y1="67.24" x2="349.55" y2="67.12"/><line class="cls-1" x1="349.55" y1="67.12" x2="350.03" y2="66.76"/><line class="cls-1" x1="350.03" y1="66.76" x2="350.99" y2="66.4"/><line class="cls-1" x1="350.99" y1="66.4" x2="351.95" y2="66.28"/><line class="cls-1" x1="351.95" y1="66.28" x2="352.91" y2="66.4"/><line class="cls-1" x1="352.91" y1="66.4" x2="353.87" y2="66.76"/><line class="cls-1" x1="353.87" y1="66.76" x2="354.71" y2="67.36"/><line class="cls-1" x1="354.71" y1="67.36" x2="355.31" y2="68.08"/><line class="cls-1" x1="355.31" y1="68.08" x2="355.79" y2="68.8"/><line class="cls-1" x1="355.79" y1="68.8" x2="356.03" y2="69.76"/><line class="cls-1" x1="356.03" y1="69.76" x2="355.91" y2="70.6"/><line class="cls-1" x1="355.91" y1="70.6" x2="355.67" y2="71.56"/><line class="cls-1" x1="355.67" y1="71.56" x2="355.19" y2="72.28"/><line class="cls-1" x1="355.19" y1="72.28" x2="354.95" y2="72.4"/><line class="cls-1" x1="354.95" y1="72.4" x2="354.95" y2="72.4"/><line class="cls-1" x1="348.11" y1="78.88" x2="346.43" y2="94.96"/><line class="cls-1" x1="346.43" y1="94.96" x2="346.19" y2="96.76"/><line class="cls-1" x1="346.19" y1="96.76" x2="345.59" y2="98.44"/><line class="cls-1" x1="345.59" y1="98.44" x2="344.87" y2="100"/><line class="cls-1" x1="344.87" y1="100" x2="343.91" y2="101.44"/><line class="cls-1" x1="343.91" y1="101.44" x2="343.55" y2="101.8"/><line class="cls-1" x1="343.55" y1="101.8" x2="343.43" y2="102.04"/><line class="cls-1" x1="104.03" y1="175.84" x2="291.23" y2="78.64"/><line class="cls-1" x1="99.83" y1="232.6" x2="288.95" y2="101.92"/><line class="cls-1" x1="103.55" y1="176.32" x2="290.99" y2="78.88"/><line class="cls-1" x1="228.59" y1="168.28" x2="237.35" y2="161.2"/></g><g id="Dimensions"><line class="cls-2" x1="294.71" y1="172.48" x2="294.71" y2="298.12"/><line class="cls-3" x1="294.71" y1="175.24" x2="289.67" y2="177.88"/><line class="cls-3" x1="294.71" y1="175.24" x2="299.75" y2="172.72"/><line class="cls-3" x1="294.71" y1="294.88" x2="289.67" y2="297.4"/><line class="cls-3" x1="294.71" y1="294.88" x2="299.75" y2="292.24"/><line class="cls-2" x1="103.91" y1="248.08" x2="103.91" y2="276.4"/><line class="cls-3" x1="103.91" y1="271.48" x2="108.35" y2="267.88"/><line class="cls-3" x1="103.91" y1="271.48" x2="99.47" y2="274.96"/><line class="cls-3" x1="59.63" y1="221.68" x2="64.67" y2="219.16"/><line class="cls-3" x1="59.63" y1="221.68" x2="54.47" y2="224.32"/><line class="cls-3" x1="60.35" y1="158.08" x2="64.67" y2="155.92"/><line class="cls-3" x1="54.35" y1="161.2" x2="60.35" y2="158.08"/><line class="cls-2" x1="54.59" y1="220.24" x2="81.71" y2="228.52"/><line class="cls-2" x1="272.39" y1="168.4" x2="299.39" y2="176.68"/><line class="cls-4" x1="272.27" y1="288.04" x2="299.39" y2="296.32"/><line class="cls-2" x1="53.87" y1="156.76" x2="80.99" y2="165.04"/><line class="cls-2" x1="99.59" y1="270.16" x2="227.69" y2="309.35"/><line class="cls-2" x1="223.25" y1="284.62" x2="223.25" y2="313.06"/><line class="cls-3" x1="223.25" y1="308.02" x2="227.69" y2="304.54"/><line class="cls-3" x1="223.25" y1="308.02" x2="218.81" y2="311.5"/><line class="cls-2" x1="59.63" y1="224.68" x2="59.63" y2="155.32"/><path d="M133.85,306.28h-1.16v-9a6.13,6.13,0,0,1-1.07,1,6.36,6.36,0,0,1-1.23.73v-1.36a6.85,6.85,0,0,0,1.68-1.33,5.11,5.11,0,0,0,1-1.54h.75Z"/><path d="M140.19,306.28H139v-9a6.13,6.13,0,0,1-1.07,1,7,7,0,0,1-1.23.73v-1.36a7.25,7.25,0,0,0,1.68-1.33,5.11,5.11,0,0,0,1-1.54h.75Z"/><path d="M143.22,296.33V295h6.07v1.1a17.14,17.14,0,0,0-2.39,4.6,19.23,19.23,0,0,0-1.19,5.61h-1.18a16.86,16.86,0,0,1,.46-3.35,19.25,19.25,0,0,1,1.19-3.65,15.81,15.81,0,0,1,1.62-2.95Z"/><path d="M150.77,306.28V298h1v1.16a2.71,2.71,0,0,1,.89-1,2.11,2.11,0,0,1,1.17-.35,1.86,1.86,0,0,1,1.92,1.45,3.16,3.16,0,0,1,.94-1.08,2,2,0,0,1,1.17-.37,2,2,0,0,1,1.55.67,3.28,3.28,0,0,1,.56,2.12v5.7h-1.15v-5.23a4.19,4.19,0,0,0-.13-1.27,1.11,1.11,0,0,0-1.07-.77,1.48,1.48,0,0,0-1.22.59,3,3,0,0,0-.47,1.85v4.83h-1.15v-5.4a2.49,2.49,0,0,0-.31-1.45,1.06,1.06,0,0,0-.88-.42,1.45,1.45,0,0,0-1.24.63,4.2,4.2,0,0,0-.46,2.33v4.31Z"/><path d="M161.7,306.28V298h1v1.16a2.71,2.71,0,0,1,.89-1,2.11,2.11,0,0,1,1.17-.35,1.86,1.86,0,0,1,1.92,1.45,3.16,3.16,0,0,1,.94-1.08,2,2,0,0,1,1.17-.37,1.92,1.92,0,0,1,1.54.67,3.22,3.22,0,0,1,.57,2.12v5.7h-1.15v-5.23a4.19,4.19,0,0,0-.13-1.27,1.17,1.17,0,0,0-.42-.57,1.07,1.07,0,0,0-.65-.2,1.48,1.48,0,0,0-1.22.59,3,3,0,0,0-.47,1.85v4.83h-1.15v-5.4a2.49,2.49,0,0,0-.31-1.45,1.06,1.06,0,0,0-.88-.42,1.45,1.45,0,0,0-1.24.63,4.2,4.2,0,0,0-.46,2.33v4.31Z"/><path d="M301.69,234.79a2.25,2.25,0,0,1-1-.9,2.71,2.71,0,0,1-.36-1.45,3,3,0,0,1,.77-2.12,2.68,2.68,0,0,1,3.87,0,3,3,0,0,1,.78,2.16,2.67,2.67,0,0,1-.35,1.4,2.29,2.29,0,0,1-1,.9,2.57,2.57,0,0,1,1.3,1.08,3.47,3.47,0,0,1,.46,1.86,3.55,3.55,0,0,1-.88,2.5,3,3,0,0,1-4.41,0,3.61,3.61,0,0,1-.89-2.54,3.51,3.51,0,0,1,.47-1.89A2.31,2.31,0,0,1,301.69,234.79Zm-.6,2.91a2.45,2.45,0,0,0,.57,1.69,1.74,1.74,0,0,0,2.7,0,2.4,2.4,0,0,0,.55-1.67,2.48,2.48,0,0,0-.57-1.7,1.75,1.75,0,0,0-1.36-.64,1.69,1.69,0,0,0-1.34.64A2.45,2.45,0,0,0,301.09,237.7Zm.38-5.3a1.92,1.92,0,0,0,.45,1.34,1.43,1.43,0,0,0,2.16,0,1.81,1.81,0,0,0,.45-1.27,1.87,1.87,0,0,0-.46-1.31,1.39,1.39,0,0,0-1.08-.51,1.38,1.38,0,0,0-1.07.5A1.77,1.77,0,0,0,301.47,232.4Z"/><path d="M307.38,238.35l1.11-.12c.18,1.2.7,1.81,1.56,1.81a1.55,1.55,0,0,0,1.05-.4,3,3,0,0,0,.8-1.4,7.53,7.53,0,0,0,.33-2.35v-.28a2.88,2.88,0,0,1-1,1.1,2.21,2.21,0,0,1-1.24.41,2.49,2.49,0,0,1-2-1,4.19,4.19,0,0,1-.83-2.74,4.31,4.31,0,0,1,.86-2.83,2.63,2.63,0,0,1,2.1-1,2.6,2.6,0,0,1,1.63.58,3.55,3.55,0,0,1,1.17,1.7,9.69,9.69,0,0,1,.42,3.24,11.72,11.72,0,0,1-.45,3.67,4,4,0,0,1-1.2,1.9,2.66,2.66,0,0,1-1.71.61,2.4,2.4,0,0,1-1.79-.74A3.36,3.36,0,0,1,307.38,238.35Zm4.73-5.06a3.1,3.1,0,0,0-.55-1.93,1.59,1.59,0,0,0-1.26-.7,1.67,1.67,0,0,0-1.33.75,3.17,3.17,0,0,0-.58,2,2.74,2.74,0,0,0,.55,1.8,1.7,1.7,0,0,0,1.33.67,1.59,1.59,0,0,0,1.3-.68A3,3,0,0,0,312.11,233.29Z"/><path d="M314.84,241v-8.3h1v1.16a2.58,2.58,0,0,1,.88-1,2.07,2.07,0,0,1,1.18-.35,2,2,0,0,1,1.21.36,2,2,0,0,1,.71,1.08,3.06,3.06,0,0,1,.94-1.08,2,2,0,0,1,1.17-.36,1.91,1.91,0,0,1,1.54.66,3.22,3.22,0,0,1,.57,2.12V241h-1.15v-5.23a4.19,4.19,0,0,0-.13-1.27,1.22,1.22,0,0,0-.42-.57,1.07,1.07,0,0,0-.65-.2,1.47,1.47,0,0,0-1.22.59,3,3,0,0,0-.47,1.85V241h-1.15v-5.4a2.5,2.5,0,0,0-.32-1.45,1,1,0,0,0-.87-.42,1.45,1.45,0,0,0-1.24.63,4.2,4.2,0,0,0-.46,2.33V241Z"/><path d="M325.77,241v-8.3h1v1.16a2.58,2.58,0,0,1,.88-1,2.07,2.07,0,0,1,1.18-.35,2,2,0,0,1,1.21.36,2,2,0,0,1,.71,1.08,3.06,3.06,0,0,1,.94-1.08,2,2,0,0,1,1.17-.36,1.91,1.91,0,0,1,1.54.66,3.22,3.22,0,0,1,.57,2.12V241h-1.15v-5.23a4.19,4.19,0,0,0-.13-1.27,1.22,1.22,0,0,0-.42-.57,1.09,1.09,0,0,0-.65-.2,1.47,1.47,0,0,0-1.22.59,3,3,0,0,0-.47,1.85V241h-1.15v-5.4a2.5,2.5,0,0,0-.32-1.45,1,1,0,0,0-.87-.42,1.45,1.45,0,0,0-1.24.63,4.2,4.2,0,0,0-.46,2.33V241Z"/><path d="M20.52,191.06l1.21-.13a2.88,2.88,0,0,0,.63,1.63,1.52,1.52,0,0,0,1.16.53,1.77,1.77,0,0,0,1.41-.75,3.22,3.22,0,0,0,.59-2.06,2.88,2.88,0,0,0-.57-1.91,1.8,1.8,0,0,0-1.44-.67,1.73,1.73,0,0,0-1,.29,2,2,0,0,0-.72.82l-1.09-.17.91-5.89H26.3v1.34H22.55l-.5,3.09a2.68,2.68,0,0,1,1.77-.73,2.64,2.64,0,0,1,2.05,1,4,4,0,0,1,.87,2.71,4.77,4.77,0,0,1-.87,2.88,2.75,2.75,0,0,1-2.34,1.2,2.78,2.78,0,0,1-2.06-.85A3.53,3.53,0,0,1,20.52,191.06Z"/><path d="M27.89,184.1v-1.35H34v1.09a17.43,17.43,0,0,0-2.39,4.6,19.7,19.7,0,0,0-1.19,5.62H29.2a17,17,0,0,1,.46-3.36,19.88,19.88,0,0,1,1.19-3.64,16.25,16.25,0,0,1,1.63-3Z"/><path d="M35.45,194.06v-8.3h1v1.16a2.61,2.61,0,0,1,.88-1,2.15,2.15,0,0,1,1.18-.35,2,2,0,0,1,1.21.37,2,2,0,0,1,.7,1.08,3.32,3.32,0,0,1,.94-1.09,2,2,0,0,1,1.17-.36,1.91,1.91,0,0,1,1.55.67,3.28,3.28,0,0,1,.56,2.12v5.7H43.52v-5.24a4.16,4.16,0,0,0-.13-1.26A1,1,0,0,0,43,187a1.07,1.07,0,0,0-.65-.21,1.51,1.51,0,0,0-1.22.59,3,3,0,0,0-.47,1.86v4.83H39.48v-5.4a2.55,2.55,0,0,0-.31-1.46,1,1,0,0,0-.87-.42,1.48,1.48,0,0,0-1.25.64,4.26,4.26,0,0,0-.46,2.33v4.31Z"/><path d="M46.38,194.06v-8.3h1v1.16a2.61,2.61,0,0,1,.88-1,2.15,2.15,0,0,1,1.18-.35,2,2,0,0,1,1.21.37,2,2,0,0,1,.7,1.08,3.32,3.32,0,0,1,.94-1.09,2,2,0,0,1,1.17-.36,1.91,1.91,0,0,1,1.55.67,3.28,3.28,0,0,1,.56,2.12v5.7H54.45v-5.24a4.16,4.16,0,0,0-.13-1.26,1,1,0,0,0-.42-.57,1.07,1.07,0,0,0-.65-.21,1.51,1.51,0,0,0-1.22.59,3,3,0,0,0-.47,1.86v4.83H50.41v-5.4a2.55,2.55,0,0,0-.31-1.46,1,1,0,0,0-.87-.42,1.48,1.48,0,0,0-1.25.64,4.26,4.26,0,0,0-.46,2.33v4.31Z"/></g></svg>