<svg xmlns="http://www.w3.org/2000/svg" viewBox="0 0 400 400"><defs><style>.cls-1,.cls-2,.cls-3{fill:none;stroke:#000;stroke-linecap:round;stroke-linejoin:round;}.cls-1{stroke-width:0.6px;}.cls-2{stroke-width:0.5px;}.cls-3{stroke-width:0.96px;}</style></defs><title>Gutter-Quad 115 (NSW)-Dimensioned</title><g id="Image"><line class="cls-1" x1="350.07" y1="102.76" x2="222.75" y2="256.12"/><line class="cls-1" x1="231.99" y1="185.92" x2="354.15" y2="76.36"/><line class="cls-1" x1="359.67" y1="81.28" x2="245.43" y2="201.28"/><line class="cls-1" x1="228.99" y1="202.12" x2="243.39" y2="188.2"/><line class="cls-1" x1="112.83" y1="176.2" x2="299.19" y2="78.64"/><line class="cls-1" x1="112.47" y1="176.8" x2="111.03" y2="231.88"/><line class="cls-1" x1="111.03" y1="231.88" x2="111.03" y2="232.72"/><line class="cls-1" x1="111.03" y1="232.72" x2="111.27" y2="233.44"/><line class="cls-1" x1="111.27" y1="233.44" x2="111.51" y2="234.16"/><line class="cls-1" x1="111.51" y1="234.16" x2="111.99" y2="234.88"/><line class="cls-1" x1="111.99" y1="234.88" x2="112.47" y2="235.48"/><line class="cls-1" x1="112.47" y1="235.48" x2="113.07" y2="235.84"/><line class="cls-1" x1="113.07" y1="235.84" x2="113.67" y2="236.2"/><line class="cls-1" x1="113.67" y1="236.2" x2="198.39" y2="262.24"/><line class="cls-1" x1="198.39" y1="262.24" x2="202.23" y2="263.2"/><line class="cls-1" x1="202.23" y1="263.2" x2="205.95" y2="263.56"/><line class="cls-1" x1="205.95" y1="263.56" x2="209.67" y2="263.32"/><line class="cls-1" x1="209.67" y1="263.32" x2="213.15" y2="262.48"/><line class="cls-1" x1="213.15" y1="262.48" x2="216.39" y2="261.16"/><line class="cls-1" x1="216.39" y1="261.16" x2="219.39" y2="259.24"/><line class="cls-1" x1="219.39" y1="259.24" x2="222.03" y2="256.84"/><line class="cls-1" x1="222.03" y1="256.84" x2="222.75" y2="256.12"/><line class="cls-1" x1="222.75" y1="256.12" x2="224.19" y2="253.96"/><line class="cls-1" x1="224.19" y1="253.96" x2="225.99" y2="250.72"/><line class="cls-1" x1="225.99" y1="250.72" x2="227.31" y2="247"/><line class="cls-1" x1="227.31" y1="247" x2="228.15" y2="243.04"/><line class="cls-1" x1="228.15" y1="243.04" x2="228.39" y2="238.84"/><line class="cls-1" x1="228.39" y1="238.84" x2="228.51" y2="206.2"/><line class="cls-1" x1="228.51" y1="206.2" x2="228.63" y2="204.88"/><line class="cls-1" x1="228.63" y1="204.88" x2="229.11" y2="203.68"/><line class="cls-1" x1="229.11" y1="203.68" x2="229.71" y2="202.96"/><line class="cls-1" x1="229.71" y1="202.96" x2="229.95" y2="202.84"/><line class="cls-1" x1="229.95" y1="202.84" x2="231.03" y2="202.24"/><line class="cls-1" x1="231.03" y1="202.24" x2="232.23" y2="202"/><line class="cls-1" x1="232.23" y1="202" x2="233.55" y2="202.12"/><line class="cls-1" x1="233.55" y1="202.12" x2="238.35" y2="203.2"/><line class="cls-1" x1="238.35" y1="203.2" x2="240.63" y2="203.32"/><line class="cls-1" x1="240.63" y1="203.32" x2="242.67" y2="202.96"/><line class="cls-1" x1="242.67" y1="202.96" x2="244.59" y2="202"/><line class="cls-1" x1="244.59" y1="202" x2="245.43" y2="201.28"/><line class="cls-1" x1="245.43" y1="201.28" x2="246.03" y2="200.56"/><line class="cls-1" x1="246.03" y1="200.56" x2="246.99" y2="198.64"/><line class="cls-1" x1="246.99" y1="198.64" x2="247.47" y2="196.36"/><line class="cls-1" x1="247.47" y1="196.36" x2="247.35" y2="193.96"/><line class="cls-1" x1="247.35" y1="193.96" x2="246.75" y2="191.56"/><line class="cls-1" x1="246.75" y1="191.56" x2="245.55" y2="189.28"/><line class="cls-1" x1="245.55" y1="189.28" x2="243.87" y2="187.36"/><line class="cls-1" x1="243.87" y1="187.36" x2="241.83" y2="185.8"/><line class="cls-1" x1="241.83" y1="185.8" x2="239.67" y2="184.72"/><line class="cls-1" x1="239.67" y1="184.72" x2="237.51" y2="184.24"/><line class="cls-1" x1="237.51" y1="184.24" x2="235.23" y2="184.36"/><line class="cls-1" x1="235.23" y1="184.36" x2="233.31" y2="184.96"/><line class="cls-1" x1="233.31" y1="184.96" x2="231.99" y2="185.92"/><line class="cls-1" x1="231.99" y1="185.92" x2="231.63" y2="186.16"/><line class="cls-1" x1="231.63" y1="186.16" x2="230.43" y2="187.84"/><line class="cls-1" x1="230.43" y1="187.84" x2="229.71" y2="189.88"/><line class="cls-1" x1="229.71" y1="189.88" x2="229.47" y2="192.16"/><line class="cls-1" x1="229.47" y1="192.16" x2="230.43" y2="192.4"/><line class="cls-1" x1="230.43" y1="192.4" x2="230.67" y2="190.36"/><line class="cls-1" x1="230.67" y1="190.36" x2="231.27" y2="188.56"/><line class="cls-1" x1="231.27" y1="188.56" x2="232.35" y2="187.12"/><line class="cls-1" x1="232.35" y1="187.12" x2="232.59" y2="186.88"/><line class="cls-1" x1="232.59" y1="186.88" x2="233.79" y2="185.92"/><line class="cls-1" x1="233.79" y1="185.92" x2="235.59" y2="185.32"/><line class="cls-1" x1="235.59" y1="185.32" x2="237.51" y2="185.32"/><line class="cls-1" x1="237.51" y1="185.32" x2="239.55" y2="185.68"/><line class="cls-1" x1="239.55" y1="185.68" x2="241.47" y2="186.64"/><line class="cls-1" x1="241.47" y1="186.64" x2="243.27" y2="188.08"/><line class="cls-1" x1="243.27" y1="188.08" x2="244.71" y2="189.76"/><line class="cls-1" x1="244.71" y1="189.76" x2="245.79" y2="191.8"/><line class="cls-1" x1="245.79" y1="191.8" x2="246.39" y2="193.96"/><line class="cls-1" x1="246.39" y1="193.96" x2="246.51" y2="196.12"/><line class="cls-1" x1="246.51" y1="196.12" x2="246.03" y2="198.04"/><line class="cls-1" x1="246.03" y1="198.04" x2="245.19" y2="199.72"/><line class="cls-1" x1="245.19" y1="199.72" x2="244.59" y2="200.44"/><line class="cls-1" x1="244.59" y1="200.44" x2="243.87" y2="201.04"/><line class="cls-1" x1="243.87" y1="201.04" x2="242.19" y2="202"/><line class="cls-1" x1="242.19" y1="202" x2="240.39" y2="202.36"/><line class="cls-1" x1="240.39" y1="202.36" x2="238.35" y2="202.12"/><line class="cls-1" x1="238.35" y1="202.12" x2="233.55" y2="201.04"/><line class="cls-1" x1="233.55" y1="201.04" x2="231.99" y2="200.92"/><line class="cls-1" x1="231.99" y1="200.92" x2="230.55" y2="201.16"/><line class="cls-1" x1="230.55" y1="201.16" x2="229.23" y2="201.88"/><line class="cls-1" x1="229.23" y1="201.88" x2="228.99" y2="202.12"/><line class="cls-1" x1="228.99" y1="202.12" x2="228.27" y2="202.96"/><line class="cls-1" x1="228.27" y1="202.96" x2="227.67" y2="204.4"/><line class="cls-1" x1="227.67" y1="204.4" x2="227.55" y2="205.96"/><line class="cls-1" x1="227.55" y1="205.96" x2="227.43" y2="238.6"/><line class="cls-1" x1="227.43" y1="238.6" x2="226.35" y2="246.52"/><line class="cls-1" x1="226.35" y1="246.52" x2="223.35" y2="253.24"/><line class="cls-1" x1="223.35" y1="253.24" x2="221.91" y2="255.28"/><line class="cls-1" x1="221.91" y1="255.28" x2="218.67" y2="258.4"/><line class="cls-1" x1="218.67" y1="258.4" x2="212.67" y2="261.52"/><line class="cls-1" x1="212.67" y1="261.52" x2="205.71" y2="262.48"/><line class="cls-1" x1="205.71" y1="262.48" x2="198.39" y2="261.28"/><line class="cls-1" x1="198.39" y1="261.28" x2="113.79" y2="235.24"/><line class="cls-1" x1="113.79" y1="235.24" x2="113.31" y2="235.12"/><line class="cls-1" x1="113.31" y1="235.12" x2="112.95" y2="234.76"/><line class="cls-1" x1="112.95" y1="234.76" x2="112.59" y2="234.4"/><line class="cls-1" x1="112.59" y1="234.4" x2="112.23" y2="233.92"/><line class="cls-1" x1="112.23" y1="233.92" x2="111.99" y2="233.32"/><line class="cls-1" x1="111.99" y1="233.32" x2="111.75" y2="232.72"/><line class="cls-1" x1="111.75" y1="232.72" x2="111.75" y2="232.12"/><line class="cls-1" x1="111.75" y1="232.12" x2="113.19" y2="177.04"/><line class="cls-1" x1="113.19" y1="177.04" x2="115.83" y2="181"/><line class="cls-1" x1="115.83" y1="181" x2="116.43" y2="180.52"/><line class="cls-1" x1="116.43" y1="180.52" x2="113.79" y2="176.56"/><line class="cls-1" x1="113.79" y1="176.56" x2="113.67" y2="176.32"/><line class="cls-1" x1="113.67" y1="176.32" x2="113.43" y2="176.2"/><line class="cls-1" x1="113.43" y1="176.2" x2="113.31" y2="176.2"/><line class="cls-1" x1="113.31" y1="176.2" x2="113.07" y2="176.08"/><line class="cls-1" x1="113.07" y1="176.08" x2="112.95" y2="176.2"/><line class="cls-1" x1="112.95" y1="176.2" x2="112.83" y2="176.2"/><line class="cls-1" x1="112.83" y1="176.2" x2="112.71" y2="176.32"/><line class="cls-1" x1="112.71" y1="176.32" x2="112.59" y2="176.44"/><line class="cls-1" x1="112.59" y1="176.44" x2="112.59" y2="176.56"/><line class="cls-1" x1="112.59" y1="176.56" x2="112.47" y2="176.8"/><line class="cls-1" x1="299.19" y1="78.64" x2="299.19" y2="78.64"/><line class="cls-1" x1="299.19" y1="78.64" x2="299.31" y2="78.64"/><line class="cls-1" x1="299.31" y1="78.64" x2="299.31" y2="78.64"/><line class="cls-1" x1="299.31" y1="78.64" x2="299.43" y2="78.64"/><line class="cls-1" x1="299.43" y1="78.64" x2="299.55" y2="78.64"/><line class="cls-1" x1="299.55" y1="78.64" x2="299.55" y2="78.76"/><line class="cls-1" x1="299.55" y1="78.76" x2="300.87" y2="80.2"/><line class="cls-1" x1="300.87" y1="80.2" x2="300.63" y2="80.44"/><line class="cls-1" x1="299.19" y1="81.28" x2="298.47" y2="101.44"/><line class="cls-1" x1="298.47" y1="101.44" x2="298.47" y2="101.68"/><line class="cls-1" x1="298.47" y1="101.68" x2="298.59" y2="101.92"/><line class="cls-1" x1="298.59" y1="101.92" x2="298.71" y2="102.04"/><line class="cls-1" x1="298.71" y1="102.04" x2="298.83" y2="102.28"/><line class="cls-1" x1="298.83" y1="102.28" x2="299.07" y2="102.4"/><line class="cls-1" x1="299.07" y1="102.4" x2="299.19" y2="102.4"/><line class="cls-1" x1="299.19" y1="102.4" x2="299.43" y2="102.52"/><line class="cls-1" x1="299.43" y1="102.52" x2="322.47" y2="104.8"/><line class="cls-1" x1="354.03" y1="76.48" x2="354.15" y2="76.36"/><line class="cls-1" x1="354.15" y1="76.36" x2="354.63" y2="75.88"/><line class="cls-1" x1="354.63" y1="75.88" x2="355.47" y2="75.52"/><line class="cls-1" x1="355.47" y1="75.52" x2="356.43" y2="75.4"/><line class="cls-1" x1="356.43" y1="75.4" x2="357.39" y2="75.52"/><line class="cls-1" x1="357.39" y1="75.52" x2="358.23" y2="75.76"/><line class="cls-1" x1="358.23" y1="75.76" x2="359.07" y2="76.24"/><line class="cls-1" x1="359.07" y1="76.24" x2="359.79" y2="76.96"/><line class="cls-1" x1="359.79" y1="76.96" x2="360.27" y2="77.68"/><line class="cls-1" x1="360.27" y1="77.68" x2="360.51" y2="78.52"/><line class="cls-1" x1="360.51" y1="78.52" x2="360.51" y2="79.36"/><line class="cls-1" x1="360.51" y1="79.36" x2="360.39" y2="80.2"/><line class="cls-1" x1="360.39" y1="80.2" x2="359.91" y2="80.92"/><line class="cls-1" x1="359.91" y1="80.92" x2="359.67" y2="81.28"/><line class="cls-1" x1="359.67" y1="81.28" x2="359.43" y2="81.52"/><line class="cls-1" x1="352.59" y1="88.72" x2="352.59" y2="96.04"/><line class="cls-1" x1="352.59" y1="96.04" x2="352.47" y2="97.6"/><line class="cls-1" x1="352.47" y1="97.6" x2="352.11" y2="99.16"/><line class="cls-1" x1="352.11" y1="99.16" x2="351.51" y2="100.6"/><line class="cls-1" x1="351.51" y1="100.6" x2="350.79" y2="101.92"/><line class="cls-1" x1="350.79" y1="101.92" x2="350.07" y2="102.76"/><line class="cls-1" x1="350.07" y1="102.76" x2="349.83" y2="103.12"/><line class="cls-1" x1="116.43" y1="180.52" x2="300.87" y2="80.2"/><line class="cls-1" x1="115.83" y1="181" x2="300.63" y2="80.44"/><line class="cls-1" x1="238.11" y1="185.44" x2="230.43" y2="192.4"/><line class="cls-1" x1="298.71" y1="102.04" x2="112.23" y2="233.92"/></g><g id="Dimensioned"><path d="M140.77,308.8h-1.16v-9a6.13,6.13,0,0,1-1.07,1,7,7,0,0,1-1.23.73v-1.36a7,7,0,0,0,1.68-1.33,5.11,5.11,0,0,0,1-1.54h.75Z"/><path d="M147.1,308.8H146v-9a6.52,6.52,0,0,1-1.07,1,6.72,6.72,0,0,1-1.24.73v-1.36a6.85,6.85,0,0,0,1.69-1.33,5.06,5.06,0,0,0,1-1.54h.75Z"/><path d="M150.06,305.8l1.21-.13a2.79,2.79,0,0,0,.64,1.63,1.51,1.51,0,0,0,1.15.54,1.74,1.74,0,0,0,1.41-.76,3.22,3.22,0,0,0,.6-2.06,2.86,2.86,0,0,0-.58-1.9,1.84,1.84,0,0,0-2.42-.39,2,2,0,0,0-.72.82l-1.09-.17.91-5.88h4.67v1.34h-3.75l-.5,3.08a2.69,2.69,0,0,1,1.77-.72,2.63,2.63,0,0,1,2,1,4,4,0,0,1,.87,2.71,4.77,4.77,0,0,1-.87,2.88,2.75,2.75,0,0,1-2.34,1.21,2.82,2.82,0,0,1-2.06-.85A3.63,3.63,0,0,1,150.06,305.8Z"/><path d="M157.69,308.8v-8.3h1v1.16a2.58,2.58,0,0,1,.88-1,2.07,2.07,0,0,1,1.18-.35,2,2,0,0,1,1.21.36,2,2,0,0,1,.71,1.08,3.06,3.06,0,0,1,.94-1.08,2,2,0,0,1,1.17-.36,1.91,1.91,0,0,1,1.54.66,3.22,3.22,0,0,1,.57,2.12v5.7h-1.15v-5.23a4.19,4.19,0,0,0-.13-1.27,1.22,1.22,0,0,0-.42-.57,1.09,1.09,0,0,0-.65-.2,1.47,1.47,0,0,0-1.22.59,3,3,0,0,0-.47,1.85v4.83h-1.15v-5.4a2.48,2.48,0,0,0-.32-1.45,1,1,0,0,0-.87-.42,1.45,1.45,0,0,0-1.24.63,4.2,4.2,0,0,0-.46,2.33v4.31Z"/><path d="M168.62,308.8v-8.3h1v1.16a2.58,2.58,0,0,1,.88-1,2.07,2.07,0,0,1,1.18-.35,2,2,0,0,1,1.21.36,2,2,0,0,1,.71,1.08,3.06,3.06,0,0,1,.94-1.08,2,2,0,0,1,1.17-.36,1.91,1.91,0,0,1,1.54.66,3.22,3.22,0,0,1,.57,2.12v5.7H176.7v-5.23a4.19,4.19,0,0,0-.13-1.27,1.22,1.22,0,0,0-.42-.57,1.09,1.09,0,0,0-.65-.2,1.47,1.47,0,0,0-1.22.59,2.91,2.91,0,0,0-.47,1.85v4.83h-1.15v-5.4a2.48,2.48,0,0,0-.32-1.45,1,1,0,0,0-.87-.42,1.45,1.45,0,0,0-1.24.63,4.2,4.2,0,0,0-.46,2.33v4.31Z"/><path d="M293.67,239.27v-1.36h6.07V239a17,17,0,0,0-2.39,4.6,19.56,19.56,0,0,0-1.19,5.61H295a16.86,16.86,0,0,1,.46-3.35,20,20,0,0,1,1.19-3.65,15.81,15.81,0,0,1,1.62-2.95Z"/><path d="M300.89,243.57a9.67,9.67,0,0,1,.78-4.37,2.45,2.45,0,0,1,2.29-1.48,2.42,2.42,0,0,1,2.12,1.2,8.91,8.91,0,0,1,.93,4.65,9.84,9.84,0,0,1-.77,4.36,2.47,2.47,0,0,1-2.3,1.48,2.54,2.54,0,0,1-2.2-1.31A8.74,8.74,0,0,1,300.89,243.57Zm1.18,0a8.81,8.81,0,0,0,.53,3.74,1.59,1.59,0,0,0,1.38.95,1.54,1.54,0,0,0,1.32-1,8.66,8.66,0,0,0,.53-3.73,8.8,8.8,0,0,0-.53-3.75,1.58,1.58,0,0,0-1.39-.94,1.53,1.53,0,0,0-1.31,1A8.62,8.62,0,0,0,302.07,243.57Z"/><path d="M308.52,249.22v-8.3h1v1.16a2.69,2.69,0,0,1,.88-1,2.15,2.15,0,0,1,1.18-.35,2,2,0,0,1,1.21.37,2,2,0,0,1,.71,1.08,3.06,3.06,0,0,1,.94-1.08,2,2,0,0,1,1.17-.37,1.92,1.92,0,0,1,1.54.67,3.22,3.22,0,0,1,.57,2.12v5.7H316.6V244a4.19,4.19,0,0,0-.13-1.27,1.17,1.17,0,0,0-.42-.57,1.09,1.09,0,0,0-.65-.2,1.47,1.47,0,0,0-1.22.59,3,3,0,0,0-.47,1.85v4.83h-1.15v-5.4a2.48,2.48,0,0,0-.32-1.45,1,1,0,0,0-.87-.42,1.45,1.45,0,0,0-1.24.63,4.2,4.2,0,0,0-.46,2.33v4.31Z"/><path d="M319.45,249.22v-8.3h1v1.16a2.69,2.69,0,0,1,.88-1,2.15,2.15,0,0,1,1.18-.35,2,2,0,0,1,1.21.37,2,2,0,0,1,.71,1.08,3.06,3.06,0,0,1,.94-1.08,2,2,0,0,1,1.17-.37,1.92,1.92,0,0,1,1.54.67,3.22,3.22,0,0,1,.57,2.12v5.7h-1.15V244a4.19,4.19,0,0,0-.13-1.27,1.17,1.17,0,0,0-.42-.57,1.09,1.09,0,0,0-.65-.2,1.47,1.47,0,0,0-1.22.59,2.91,2.91,0,0,0-.47,1.85v4.83h-1.15v-5.4a2.48,2.48,0,0,0-.32-1.45,1,1,0,0,0-.87-.42,1.45,1.45,0,0,0-1.24.63,4.2,4.2,0,0,0-.46,2.33v4.31Z"/><path d="M33.4,196.55l1.21-.12a2.88,2.88,0,0,0,.63,1.63,1.56,1.56,0,0,0,1.16.53,1.77,1.77,0,0,0,1.41-.75,3.25,3.25,0,0,0,.59-2.07,2.87,2.87,0,0,0-.57-1.9,1.81,1.81,0,0,0-1.44-.68,1.74,1.74,0,0,0-1,.3,2,2,0,0,0-.72.81l-1.09-.17.91-5.88h4.67v1.34H35.43l-.5,3.08A2.67,2.67,0,0,1,36.7,192a2.64,2.64,0,0,1,2,1,4,4,0,0,1,.87,2.71,4.77,4.77,0,0,1-.87,2.88,2.75,2.75,0,0,1-2.34,1.2,2.82,2.82,0,0,1-2.06-.85A3.58,3.58,0,0,1,33.4,196.55Z"/><path d="M44.39,199.55v-2.74H40.32v-1.29l4.28-7.42h.94v7.42h1.28v1.29H45.54v2.74Zm0-4v-5.16l-2.94,5.16Z"/><path d="M48.33,199.55v-8.3h1v1.16a2.58,2.58,0,0,1,.88-1,2.07,2.07,0,0,1,1.18-.35,1.87,1.87,0,0,1,1.91,1.44,3.27,3.27,0,0,1,.94-1.08,2,2,0,0,1,1.17-.36,1.93,1.93,0,0,1,1.55.66,3.29,3.29,0,0,1,.56,2.13v5.69H56.4v-5.23a4.12,4.12,0,0,0-.13-1.26,1.09,1.09,0,0,0-.42-.58,1.14,1.14,0,0,0-.65-.2,1.51,1.51,0,0,0-1.22.59,3,3,0,0,0-.47,1.86v4.82H52.36v-5.39a2.53,2.53,0,0,0-.31-1.46,1,1,0,0,0-.87-.42,1.45,1.45,0,0,0-1.25.64,4.25,4.25,0,0,0-.46,2.32v4.31Z"/><path d="M59.26,199.55v-8.3h1v1.16a2.58,2.58,0,0,1,.88-1,2.07,2.07,0,0,1,1.18-.35,1.87,1.87,0,0,1,1.91,1.44,3.27,3.27,0,0,1,.94-1.08,2,2,0,0,1,1.17-.36,1.93,1.93,0,0,1,1.55.66,3.29,3.29,0,0,1,.56,2.13v5.69H67.33v-5.23a4.12,4.12,0,0,0-.13-1.26,1.09,1.09,0,0,0-.42-.58,1.14,1.14,0,0,0-.65-.2,1.51,1.51,0,0,0-1.22.59,3,3,0,0,0-.47,1.86v4.82H63.29v-5.39A2.53,2.53,0,0,0,63,192.7a1,1,0,0,0-.87-.42,1.45,1.45,0,0,0-1.25.64,4.25,4.25,0,0,0-.46,2.32v4.31Z"/><line class="cls-2" x1="286.23" y1="195.76" x2="286.23" y2="293.44"/><line class="cls-3" x1="286.23" y1="198.88" x2="281.19" y2="201.4"/><line class="cls-3" x1="286.23" y1="198.88" x2="291.27" y2="196.24"/><line class="cls-3" x1="286.23" y1="290.08" x2="281.19" y2="292.72"/><line class="cls-3" x1="286.23" y1="290.08" x2="291.27" y2="287.56"/><line class="cls-2" x1="110.91" y1="248.08" x2="110.91" y2="276.4"/><line class="cls-3" x1="110.91" y1="271.48" x2="115.35" y2="267.88"/><line class="cls-3" x1="110.91" y1="271.48" x2="106.47" y2="274.96"/><line class="cls-3" x1="73.95" y1="223.96" x2="79.11" y2="221.44"/><line class="cls-3" x1="73.95" y1="223.96" x2="68.91" y2="226.6"/><line class="cls-3" x1="74.79" y1="163.96" x2="79.11" y2="161.8"/><line class="cls-3" x1="68.79" y1="166.96" x2="74.79" y2="163.96"/><line class="cls-2" x1="69.03" y1="222.52" x2="96.15" y2="230.8"/><line class="cls-2" x1="263.91" y1="192.04" x2="290.91" y2="200.32"/><line class="cls-2" x1="263.79" y1="283.24" x2="290.91" y2="291.52"/><line class="cls-2" x1="68.31" y1="162.64" x2="95.43" y2="170.92"/><line class="cls-2" x1="106.59" y1="270.16" x2="233.07" y2="308.8"/><line class="cls-2" x1="228.63" y1="284.08" x2="228.63" y2="312.4"/><line class="cls-3" x1="228.63" y1="307.48" x2="233.07" y2="303.88"/><line class="cls-3" x1="228.63" y1="307.48" x2="224.19" y2="310.96"/><line class="cls-2" x1="73.95" y1="226.96" x2="73.95" y2="161.08"/></g></svg>