<svg xmlns="http://www.w3.org/2000/svg" viewBox="0 0 700 400"><defs><style>.cls-1,.cls-2,.cls-3{fill:none;stroke:#000;stroke-linecap:round;stroke-linejoin:round;}.cls-1{stroke-width:0.6px;}.cls-2{stroke-width:0.5px;}.cls-3{stroke-width:0.96px;}</style></defs><title>Roofing-Monoclad-Dimensioned</title><g id="Image"><line class="cls-1" x1="251.33" y1="236.94" x2="235.29" y2="254.33"/><line class="cls-1" x1="643.95" y1="255.08" x2="639.67" y2="255.08"/><line class="cls-1" x1="639.67" y1="255.08" x2="632.27" y2="238.11"/><line class="cls-1" x1="632.27" y1="238.11" x2="628.83" y2="237.53"/><line class="cls-1" x1="628.83" y1="237.53" x2="625.3" y2="237.27"/><line class="cls-1" x1="625.3" y1="237.27" x2="621.77" y2="237.19"/><line class="cls-1" x1="621.77" y1="237.19" x2="618.25" y2="237.44"/><line class="cls-1" x1="618.25" y1="237.44" x2="614.72" y2="237.95"/><line class="cls-1" x1="614.72" y1="237.95" x2="611.19" y2="238.7"/><line class="cls-1" x1="611.19" y1="238.7" x2="602.2" y2="253.15"/><line class="cls-1" x1="602.2" y1="253.15" x2="601.61" y2="253.91"/><line class="cls-1" x1="601.61" y1="253.91" x2="600.94" y2="254.41"/><line class="cls-1" x1="600.94" y1="254.41" x2="600.1" y2="254.75"/><line class="cls-1" x1="600.1" y1="254.75" x2="599.18" y2="254.91"/><line class="cls-1" x1="599.18" y1="254.91" x2="575.66" y2="254.91"/><line class="cls-1" x1="575.66" y1="254.91" x2="573.89" y2="252.9"/><line class="cls-1" x1="573.89" y1="252.9" x2="545.75" y2="252.81"/><line class="cls-1" x1="545.75" y1="252.81" x2="543.23" y2="254.07"/><line class="cls-1" x1="543.23" y1="254.07" x2="518.54" y2="254.07"/><line class="cls-1" x1="518.54" y1="254.07" x2="508.88" y2="238.03"/><line class="cls-1" x1="508.88" y1="238.03" x2="505.52" y2="237.11"/><line class="cls-1" x1="505.52" y1="237.11" x2="502.16" y2="236.43"/><line class="cls-1" x1="502.16" y1="236.43" x2="498.63" y2="236.27"/><line class="cls-1" x1="498.63" y1="236.27" x2="495.19" y2="236.52"/><line class="cls-1" x1="495.19" y1="236.52" x2="491.74" y2="237.19"/><line class="cls-1" x1="491.74" y1="237.19" x2="488.47" y2="238.28"/><line class="cls-1" x1="488.47" y1="238.28" x2="479.48" y2="253.49"/><line class="cls-1" x1="479.48" y1="253.49" x2="479.14" y2="253.91"/><line class="cls-1" x1="479.14" y1="253.91" x2="478.81" y2="254.24"/><line class="cls-1" x1="478.81" y1="254.24" x2="478.3" y2="254.49"/><line class="cls-1" x1="478.3" y1="254.49" x2="477.88" y2="254.66"/><line class="cls-1" x1="477.88" y1="254.66" x2="477.29" y2="254.66"/><line class="cls-1" x1="477.29" y1="254.66" x2="476.79" y2="254.58"/><line class="cls-1" x1="476.79" y1="254.58" x2="453.27" y2="254.58"/><line class="cls-1" x1="453.27" y1="254.58" x2="451.84" y2="252.56"/><line class="cls-1" x1="451.84" y1="252.56" x2="423.03" y2="252.56"/><line class="cls-1" x1="423.03" y1="252.56" x2="420.59" y2="254.41"/><line class="cls-1" x1="420.59" y1="254.41" x2="395.98" y2="254.33"/><line class="cls-1" x1="395.98" y1="254.33" x2="395.56" y2="254.33"/><line class="cls-1" x1="395.56" y1="254.33" x2="395.14" y2="254.16"/><line class="cls-1" x1="395.14" y1="254.16" x2="394.81" y2="253.99"/><line class="cls-1" x1="394.81" y1="253.99" x2="394.55" y2="253.65"/><line class="cls-1" x1="394.55" y1="253.65" x2="394.3" y2="253.32"/><line class="cls-1" x1="394.3" y1="253.32" x2="386.99" y2="237.95"/><line class="cls-1" x1="386.99" y1="237.95" x2="383.55" y2="237.19"/><line class="cls-1" x1="383.55" y1="237.19" x2="380.11" y2="236.69"/><line class="cls-1" x1="380.11" y1="236.69" x2="376.49" y2="236.52"/><line class="cls-1" x1="376.49" y1="236.52" x2="372.97" y2="236.6"/><line class="cls-1" x1="372.97" y1="236.6" x2="369.44" y2="237.02"/><line class="cls-1" x1="369.44" y1="237.02" x2="365.99" y2="237.78"/><line class="cls-1" x1="365.99" y1="237.78" x2="356.5" y2="253.82"/><line class="cls-1" x1="356.5" y1="253.82" x2="356.42" y2="253.91"/><line class="cls-1" x1="356.42" y1="253.91" x2="356.33" y2="253.99"/><line class="cls-1" x1="356.33" y1="253.99" x2="356.33" y2="253.99"/><line class="cls-1" x1="356.33" y1="253.99" x2="356.25" y2="253.99"/><line class="cls-1" x1="356.25" y1="253.99" x2="356.17" y2="253.99"/><line class="cls-1" x1="356.17" y1="253.99" x2="356.08" y2="253.99"/><line class="cls-1" x1="356.08" y1="253.99" x2="356" y2="253.91"/><line class="cls-1" x1="356" y1="253.91" x2="330.71" y2="253.91"/><line class="cls-1" x1="330.71" y1="253.91" x2="329.29" y2="252.31"/><line class="cls-1" x1="329.29" y1="252.31" x2="300.56" y2="252.31"/><line class="cls-1" x1="300.56" y1="252.31" x2="297.7" y2="253.91"/><line class="cls-1" x1="297.7" y1="253.91" x2="276.37" y2="253.91"/><line class="cls-1" x1="276.37" y1="253.91" x2="275.61" y2="253.82"/><line class="cls-1" x1="275.61" y1="253.82" x2="274.94" y2="253.57"/><line class="cls-1" x1="274.94" y1="253.57" x2="274.35" y2="253.23"/><line class="cls-1" x1="274.35" y1="253.23" x2="273.85" y2="252.73"/><line class="cls-1" x1="273.85" y1="252.73" x2="273.43" y2="252.23"/><line class="cls-1" x1="273.43" y1="252.23" x2="264.44" y2="238.11"/><line class="cls-1" x1="264.44" y1="238.11" x2="259.48" y2="236.6"/><line class="cls-1" x1="259.48" y1="236.6" x2="254.36" y2="236.01"/><line class="cls-1" x1="254.36" y1="236.01" x2="249.23" y2="236.52"/><line class="cls-1" x1="249.23" y1="236.52" x2="244.28" y2="237.95"/><line class="cls-1" x1="244.28" y1="237.95" x2="235.04" y2="253.57"/><line class="cls-1" x1="235.04" y1="253.57" x2="234.79" y2="253.91"/><line class="cls-1" x1="234.79" y1="253.91" x2="234.79" y2="253.99"/><line class="cls-1" x1="234.79" y1="253.99" x2="234.37" y2="254.24"/><line class="cls-1" x1="234.37" y1="254.24" x2="233.95" y2="254.49"/><line class="cls-1" x1="233.95" y1="254.49" x2="233.44" y2="254.58"/><line class="cls-1" x1="233.44" y1="254.58" x2="232.94" y2="254.58"/><line class="cls-1" x1="232.94" y1="254.58" x2="232.43" y2="254.49"/><line class="cls-1" x1="232.43" y1="254.49" x2="209.92" y2="254.41"/><line class="cls-1" x1="209.92" y1="254.41" x2="207.57" y2="252.48"/><line class="cls-1" x1="207.57" y1="252.48" x2="178.93" y2="252.39"/><line class="cls-1" x1="178.93" y1="252.39" x2="176.49" y2="253.99"/><line class="cls-1" x1="176.49" y1="253.99" x2="154.82" y2="253.99"/><line class="cls-1" x1="154.82" y1="253.99" x2="153.81" y2="253.91"/><line class="cls-1" x1="153.81" y1="253.91" x2="152.97" y2="253.57"/><line class="cls-1" x1="152.97" y1="253.57" x2="152.21" y2="252.98"/><line class="cls-1" x1="152.21" y1="252.98" x2="151.63" y2="252.31"/><line class="cls-1" x1="151.63" y1="252.31" x2="141.97" y2="238.03"/><line class="cls-1" x1="141.97" y1="238.03" x2="138.86" y2="237.11"/><line class="cls-1" x1="138.86" y1="237.11" x2="135.58" y2="236.52"/><line class="cls-1" x1="135.58" y1="236.52" x2="132.31" y2="236.27"/><line class="cls-1" x1="132.31" y1="236.27" x2="129.03" y2="236.35"/><line class="cls-1" x1="129.03" y1="236.35" x2="125.84" y2="236.77"/><line class="cls-1" x1="125.84" y1="236.77" x2="122.73" y2="237.61"/><line class="cls-1" x1="122.73" y1="237.61" x2="117.61" y2="245.34"/><line class="cls-1" x1="117.61" y1="245.34" x2="118.11" y2="245.84"/><line class="cls-1" x1="118.11" y1="245.84" x2="123.15" y2="238.2"/><line class="cls-1" x1="123.15" y1="238.2" x2="126.09" y2="237.44"/><line class="cls-1" x1="126.09" y1="237.44" x2="129.2" y2="236.94"/><line class="cls-1" x1="129.2" y1="236.94" x2="132.31" y2="236.85"/><line class="cls-1" x1="132.31" y1="236.85" x2="135.5" y2="237.11"/><line class="cls-1" x1="135.5" y1="237.11" x2="138.52" y2="237.69"/><line class="cls-1" x1="138.52" y1="237.69" x2="141.55" y2="238.62"/><line class="cls-1" x1="141.55" y1="238.62" x2="151.04" y2="252.65"/><line class="cls-1" x1="151.04" y1="252.65" x2="151.79" y2="253.49"/><line class="cls-1" x1="151.79" y1="253.49" x2="152.72" y2="254.07"/><line class="cls-1" x1="152.72" y1="254.07" x2="153.73" y2="254.49"/><line class="cls-1" x1="153.73" y1="254.49" x2="154.82" y2="254.66"/><line class="cls-1" x1="154.82" y1="254.66" x2="176.74" y2="254.66"/><line class="cls-1" x1="176.74" y1="254.66" x2="179.09" y2="253.07"/><line class="cls-1" x1="179.09" y1="253.07" x2="207.32" y2="253.07"/><line class="cls-1" x1="207.32" y1="253.07" x2="209.67" y2="255.08"/><line class="cls-1" x1="209.67" y1="255.08" x2="232.35" y2="255.08"/><line class="cls-1" x1="232.35" y1="255.08" x2="233.02" y2="255.25"/><line class="cls-1" x1="233.02" y1="255.25" x2="233.61" y2="255.17"/><line class="cls-1" x1="233.61" y1="255.17" x2="234.2" y2="255.08"/><line class="cls-1" x1="234.2" y1="255.08" x2="234.79" y2="254.75"/><line class="cls-1" x1="234.79" y1="254.75" x2="235.21" y2="254.41"/><line class="cls-1" x1="235.21" y1="254.41" x2="235.29" y2="254.33"/><line class="cls-1" x1="235.29" y1="254.33" x2="235.63" y2="253.91"/><line class="cls-1" x1="235.63" y1="253.91" x2="244.7" y2="238.45"/><line class="cls-1" x1="244.7" y1="238.45" x2="249.4" y2="237.11"/><line class="cls-1" x1="249.4" y1="237.11" x2="254.36" y2="236.69"/><line class="cls-1" x1="254.36" y1="236.69" x2="259.31" y2="237.19"/><line class="cls-1" x1="259.31" y1="237.19" x2="264.02" y2="238.62"/><line class="cls-1" x1="264.02" y1="238.62" x2="272.84" y2="252.48"/><line class="cls-1" x1="272.84" y1="252.48" x2="273.34" y2="253.15"/><line class="cls-1" x1="273.34" y1="253.15" x2="274.01" y2="253.74"/><line class="cls-1" x1="274.01" y1="253.74" x2="274.69" y2="254.16"/><line class="cls-1" x1="274.69" y1="254.16" x2="275.53" y2="254.41"/><line class="cls-1" x1="275.53" y1="254.41" x2="276.37" y2="254.49"/><line class="cls-1" x1="276.37" y1="254.49" x2="297.87" y2="254.49"/><line class="cls-1" x1="297.87" y1="254.49" x2="300.73" y2="252.9"/><line class="cls-1" x1="300.73" y1="252.9" x2="328.95" y2="252.98"/><line class="cls-1" x1="328.95" y1="252.98" x2="330.38" y2="254.58"/><line class="cls-1" x1="330.38" y1="254.58" x2="355.83" y2="254.58"/><line class="cls-1" x1="355.83" y1="254.58" x2="356.08" y2="254.66"/><line class="cls-1" x1="356.08" y1="254.66" x2="356.25" y2="254.66"/><line class="cls-1" x1="356.25" y1="254.66" x2="356.5" y2="254.58"/><line class="cls-1" x1="356.5" y1="254.58" x2="356.75" y2="254.49"/><line class="cls-1" x1="356.75" y1="254.49" x2="356.92" y2="254.33"/><line class="cls-1" x1="356.92" y1="254.33" x2="357.01" y2="254.16"/><line class="cls-1" x1="357.01" y1="254.16" x2="366.41" y2="238.28"/><line class="cls-1" x1="366.41" y1="238.28" x2="369.77" y2="237.61"/><line class="cls-1" x1="369.77" y1="237.61" x2="373.13" y2="237.27"/><line class="cls-1" x1="373.13" y1="237.27" x2="376.49" y2="237.19"/><line class="cls-1" x1="376.49" y1="237.19" x2="379.94" y2="237.36"/><line class="cls-1" x1="379.94" y1="237.36" x2="383.21" y2="237.78"/><line class="cls-1" x1="383.21" y1="237.78" x2="386.57" y2="238.53"/><line class="cls-1" x1="386.57" y1="238.53" x2="393.71" y2="253.57"/><line class="cls-1" x1="393.71" y1="253.57" x2="394.05" y2="254.07"/><line class="cls-1" x1="394.05" y1="254.07" x2="394.39" y2="254.41"/><line class="cls-1" x1="394.39" y1="254.41" x2="394.89" y2="254.75"/><line class="cls-1" x1="394.89" y1="254.75" x2="395.39" y2="254.91"/><line class="cls-1" x1="395.39" y1="254.91" x2="395.98" y2="255"/><line class="cls-1" x1="395.98" y1="255" x2="420.76" y2="255"/><line class="cls-1" x1="420.76" y1="255" x2="423.28" y2="253.23"/><line class="cls-1" x1="423.28" y1="253.23" x2="451.51" y2="253.23"/><line class="cls-1" x1="451.51" y1="253.23" x2="452.93" y2="255.25"/><line class="cls-1" x1="452.93" y1="255.25" x2="476.71" y2="255.25"/><line class="cls-1" x1="476.71" y1="255.25" x2="477.46" y2="255.33"/><line class="cls-1" x1="477.46" y1="255.33" x2="478.22" y2="255.17"/><line class="cls-1" x1="478.22" y1="255.17" x2="478.97" y2="254.91"/><line class="cls-1" x1="478.97" y1="254.91" x2="479.56" y2="254.41"/><line class="cls-1" x1="479.56" y1="254.41" x2="480.07" y2="253.82"/><line class="cls-1" x1="480.07" y1="253.82" x2="488.89" y2="238.79"/><line class="cls-1" x1="488.89" y1="238.79" x2="492.08" y2="237.78"/><line class="cls-1" x1="492.08" y1="237.78" x2="495.35" y2="237.19"/><line class="cls-1" x1="495.35" y1="237.19" x2="498.63" y2="236.94"/><line class="cls-1" x1="498.63" y1="236.94" x2="501.99" y2="237.11"/><line class="cls-1" x1="501.99" y1="237.11" x2="505.27" y2="237.61"/><line class="cls-1" x1="505.27" y1="237.61" x2="508.37" y2="238.62"/><line class="cls-1" x1="508.37" y1="238.62" x2="518.2" y2="254.66"/><line class="cls-1" x1="518.2" y1="254.66" x2="543.4" y2="254.66"/><line class="cls-1" x1="543.4" y1="254.66" x2="545.92" y2="253.49"/><line class="cls-1" x1="545.92" y1="253.49" x2="573.56" y2="253.49"/><line class="cls-1" x1="573.56" y1="253.49" x2="575.41" y2="255.5"/><line class="cls-1" x1="575.41" y1="255.5" x2="599.18" y2="255.5"/><line class="cls-1" x1="599.18" y1="255.5" x2="600.27" y2="255.33"/><line class="cls-1" x1="600.27" y1="255.33" x2="601.19" y2="255"/><line class="cls-1" x1="601.19" y1="255" x2="602.12" y2="254.33"/><line class="cls-1" x1="602.12" y1="254.33" x2="602.71" y2="253.49"/><line class="cls-1" x1="602.71" y1="253.49" x2="611.61" y2="239.29"/><line class="cls-1" x1="611.61" y1="239.29" x2="614.97" y2="238.53"/><line class="cls-1" x1="614.97" y1="238.53" x2="618.33" y2="238.03"/><line class="cls-1" x1="618.33" y1="238.03" x2="621.69" y2="237.86"/><line class="cls-1" x1="621.69" y1="237.86" x2="625.13" y2="237.86"/><line class="cls-1" x1="625.13" y1="237.86" x2="628.49" y2="238.11"/><line class="cls-1" x1="628.49" y1="238.11" x2="631.77" y2="238.62"/><line class="cls-1" x1="275.02" y1="153.69" x2="276.28" y2="153.36"/><line class="cls-1" x1="276.28" y1="153.36" x2="277.63" y2="153.19"/><line class="cls-1" x1="277.63" y1="153.19" x2="278.97" y2="153.11"/><line class="cls-1" x1="278.97" y1="153.11" x2="280.4" y2="153.27"/><line class="cls-1" x1="280.4" y1="153.27" x2="281.66" y2="153.53"/><line class="cls-1" x1="281.66" y1="153.53" x2="283" y2="153.95"/><line class="cls-1" x1="283" y1="153.95" x2="286.87" y2="159.83"/><line class="cls-1" x1="286.87" y1="159.83" x2="287.12" y2="160.16"/><line class="cls-1" x1="287.12" y1="160.16" x2="287.37" y2="160.41"/><line class="cls-1" x1="287.37" y1="160.41" x2="287.79" y2="160.5"/><line class="cls-1" x1="287.79" y1="160.5" x2="288.13" y2="160.58"/><line class="cls-1" x1="288.13" y1="160.58" x2="297.11" y2="160.58"/><line class="cls-1" x1="297.11" y1="160.58" x2="298.12" y2="159.91"/><line class="cls-1" x1="298.12" y1="159.91" x2="310.05" y2="159.91"/><line class="cls-1" x1="310.05" y1="159.91" x2="310.97" y2="160.75"/><line class="cls-1" x1="310.97" y1="160.75" x2="318.62" y2="160.75"/><line class="cls-1" x1="325.25" y1="153.86" x2="327.35" y2="153.19"/><line class="cls-1" x1="327.35" y1="153.19" x2="329.45" y2="153.02"/><line class="cls-1" x1="329.45" y1="153.02" x2="331.55" y2="153.27"/><line class="cls-1" x1="331.55" y1="153.27" x2="333.65" y2="153.95"/><line class="cls-1" x1="333.65" y1="153.95" x2="337.27" y2="159.83"/><line class="cls-1" x1="337.27" y1="159.83" x2="337.43" y2="160.08"/><line class="cls-1" x1="337.43" y1="160.08" x2="337.69" y2="160.25"/><line class="cls-1" x1="337.69" y1="160.25" x2="337.94" y2="160.41"/><line class="cls-1" x1="337.94" y1="160.41" x2="338.19" y2="160.5"/><line class="cls-1" x1="338.19" y1="160.5" x2="338.53" y2="160.5"/><line class="cls-1" x1="338.53" y1="160.5" x2="347.35" y2="160.5"/><line class="cls-1" x1="347.35" y1="160.5" x2="348.52" y2="159.83"/><line class="cls-1" x1="348.52" y1="159.83" x2="360.37" y2="159.83"/><line class="cls-1" x1="360.37" y1="159.83" x2="360.95" y2="160.5"/><line class="cls-1" x1="360.95" y1="160.5" x2="371.45" y2="160.5"/><line class="cls-1" x1="371.45" y1="160.5" x2="371.45" y2="160.5"/><line class="cls-1" x1="371.45" y1="160.5" x2="371.54" y2="160.58"/><line class="cls-1" x1="371.54" y1="160.58" x2="371.54" y2="160.58"/><line class="cls-1" x1="371.54" y1="160.58" x2="371.62" y2="160.58"/><line class="cls-1" x1="371.62" y1="160.58" x2="371.62" y2="160.5"/><line class="cls-1" x1="371.62" y1="160.5" x2="371.62" y2="160.5"/><line class="cls-1" x1="371.62" y1="160.5" x2="371.62" y2="160.5"/><line class="cls-1" x1="371.62" y1="160.5" x2="375.65" y2="153.78"/><line class="cls-1" x1="375.65" y1="153.78" x2="377.08" y2="153.44"/><line class="cls-1" x1="377.08" y1="153.44" x2="378.51" y2="153.27"/><line class="cls-1" x1="378.51" y1="153.27" x2="379.94" y2="153.19"/><line class="cls-1" x1="379.94" y1="153.19" x2="381.45" y2="153.27"/><line class="cls-1" x1="381.45" y1="153.27" x2="382.88" y2="153.53"/><line class="cls-1" x1="382.88" y1="153.53" x2="384.31" y2="153.86"/><line class="cls-1" x1="384.31" y1="153.86" x2="387.33" y2="160.25"/><line class="cls-1" x1="387.33" y1="160.25" x2="387.41" y2="160.41"/><line class="cls-1" x1="387.41" y1="160.41" x2="387.5" y2="160.5"/><line class="cls-1" x1="387.5" y1="160.5" x2="387.67" y2="160.58"/><line class="cls-1" x1="387.67" y1="160.58" x2="387.83" y2="160.67"/><line class="cls-1" x1="387.83" y1="160.67" x2="388" y2="160.67"/><line class="cls-1" x1="388" y1="160.67" x2="398.17" y2="160.67"/><line class="cls-1" x1="398.17" y1="160.67" x2="399.17" y2="159.91"/><line class="cls-1" x1="399.17" y1="159.91" x2="411.1" y2="159.91"/><line class="cls-1" x1="411.1" y1="159.91" x2="411.69" y2="160.75"/><line class="cls-1" x1="411.69" y1="160.75" x2="421.43" y2="160.75"/><line class="cls-1" x1="421.43" y1="160.75" x2="421.69" y2="160.83"/><line class="cls-1" x1="421.69" y1="160.83" x2="421.85" y2="160.83"/><line class="cls-1" x1="421.85" y1="160.83" x2="422.11" y2="160.75"/><line class="cls-1" x1="422.11" y1="160.75" x2="422.27" y2="160.67"/><line class="cls-1" x1="422.27" y1="160.67" x2="422.44" y2="160.5"/><line class="cls-1" x1="422.44" y1="160.5" x2="422.53" y2="160.33"/><line class="cls-1" x1="422.53" y1="160.33" x2="426.22" y2="153.95"/><line class="cls-1" x1="426.22" y1="153.95" x2="427.57" y2="153.53"/><line class="cls-1" x1="427.57" y1="153.53" x2="428.99" y2="153.19"/><line class="cls-1" x1="428.99" y1="153.19" x2="430.42" y2="153.11"/><line class="cls-1" x1="430.42" y1="153.11" x2="431.85" y2="153.19"/><line class="cls-1" x1="431.85" y1="153.19" x2="433.28" y2="153.44"/><line class="cls-1" x1="433.28" y1="153.44" x2="434.62" y2="153.86"/><line class="cls-1" x1="440.5" y1="160.5" x2="448.9" y2="160.58"/><line class="cls-1" x1="448.9" y1="160.58" x2="449.91" y2="160.08"/><line class="cls-1" x1="449.91" y1="160.08" x2="461.59" y2="160.08"/><line class="cls-1" x1="462.59" y1="160.92" x2="472.09" y2="160.92"/><line class="cls-1" x1="472.09" y1="160.92" x2="472.42" y2="160.83"/><line class="cls-1" x1="472.42" y1="160.83" x2="472.76" y2="160.67"/><line class="cls-1" x1="472.76" y1="160.67" x2="473.01" y2="160.5"/><line class="cls-1" x1="473.01" y1="160.5" x2="473.26" y2="160.16"/><line class="cls-1" x1="473.26" y1="160.16" x2="476.87" y2="154.11"/><line class="cls-1" x1="476.87" y1="154.11" x2="478.3" y2="153.78"/><line class="cls-1" x1="478.3" y1="153.78" x2="479.73" y2="153.61"/><line class="cls-1" x1="479.73" y1="153.61" x2="481.24" y2="153.44"/><line class="cls-1" x1="481.24" y1="153.44" x2="482.67" y2="153.53"/><line class="cls-1" x1="482.67" y1="153.53" x2="484.1" y2="153.61"/><line class="cls-1" x1="484.1" y1="153.61" x2="485.61" y2="153.86"/><line class="cls-1" x1="638.07" y1="251.55" x2="643.95" y2="255.08"/><line class="cls-1" x1="485.61" y1="153.86" x2="632.27" y2="238.11"/><line class="cls-1" x1="476.87" y1="154.11" x2="611.19" y2="238.7"/><line class="cls-1" x1="473.26" y1="160.16" x2="602.2" y2="253.15"/><line class="cls-1" x1="472.09" y1="160.92" x2="599.18" y2="254.91"/><line class="cls-1" x1="461.59" y1="160.08" x2="573.89" y2="252.9"/><line class="cls-1" x1="449.91" y1="160.08" x2="545.75" y2="252.81"/><line class="cls-1" x1="448.9" y1="160.58" x2="543.23" y2="254.07"/><line class="cls-1" x1="434.62" y1="153.86" x2="508.88" y2="238.03"/><line class="cls-1" x1="426.22" y1="153.95" x2="488.47" y2="238.28"/><line class="cls-1" x1="422.53" y1="160.33" x2="479.48" y2="253.49"/><line class="cls-1" x1="421.43" y1="160.75" x2="476.79" y2="254.58"/><line class="cls-1" x1="411.69" y1="160.75" x2="453.27" y2="254.58"/><line class="cls-1" x1="411.1" y1="159.91" x2="451.84" y2="252.56"/><line class="cls-1" x1="399.17" y1="159.91" x2="423.03" y2="252.56"/><line class="cls-1" x1="398.17" y1="160.67" x2="420.59" y2="254.41"/><line class="cls-1" x1="388" y1="160.67" x2="395.98" y2="254.33"/><line class="cls-1" x1="387.33" y1="160.25" x2="394.3" y2="253.32"/><line class="cls-1" x1="384.31" y1="153.86" x2="386.99" y2="237.95"/><line class="cls-1" x1="375.65" y1="153.78" x2="365.99" y2="237.78"/><line class="cls-1" x1="371.62" y1="160.5" x2="356.5" y2="253.82"/><line class="cls-1" x1="371.45" y1="160.5" x2="356" y2="253.91"/><line class="cls-1" x1="360.95" y1="160.5" x2="330.71" y2="253.91"/><line class="cls-1" x1="360.37" y1="159.83" x2="329.29" y2="252.31"/><line class="cls-1" x1="348.52" y1="159.83" x2="300.56" y2="252.31"/><line class="cls-1" x1="347.35" y1="160.5" x2="297.7" y2="253.91"/><line class="cls-1" x1="337.27" y1="159.83" x2="273.43" y2="252.23"/><line class="cls-1" x1="333.65" y1="153.95" x2="264.44" y2="238.11"/><line class="cls-1" x1="325.25" y1="153.86" x2="244.28" y2="237.95"/><line class="cls-1" x1="238.06" y1="248.53" x2="232.43" y2="254.49"/><line class="cls-1" x1="310.97" y1="160.75" x2="209.92" y2="254.41"/><line class="cls-1" x1="310.05" y1="159.91" x2="207.57" y2="252.48"/><line class="cls-1" x1="298.12" y1="159.91" x2="178.93" y2="252.39"/><line class="cls-1" x1="297.11" y1="160.58" x2="176.49" y2="253.99"/><line class="cls-1" x1="288.13" y1="160.58" x2="154.82" y2="253.99"/><line class="cls-1" x1="286.87" y1="159.83" x2="151.63" y2="252.31"/><line class="cls-1" x1="283" y1="153.95" x2="141.97" y2="238.03"/><line class="cls-1" x1="275.02" y1="153.69" x2="122.73" y2="237.61"/><line class="cls-1" x1="133.57" y1="236.94" x2="118.11" y2="245.84"/><line class="cls-1" x1="503.5" y1="237.36" x2="518.2" y2="254.66"/><line class="cls-1" x1="572.97" y1="253.49" x2="575.41" y2="255.5"/><line class="cls-1" x1="639.16" y1="255.75" x2="612.62" y2="239.04"/><line class="cls-1" x1="639.16" y1="255.75" x2="643.95" y2="255.75"/><line class="cls-1" x1="631.77" y1="238.62" x2="639.16" y2="255.75"/><line class="cls-1" x1="643.95" y1="255.75" x2="643.95" y2="255.08"/></g><g id="Dimensions"><line class="cls-2" x1="131.87" y1="260.37" x2="131.87" y2="279.02"/><line class="cls-2" x1="128.85" y1="276.08" x2="624.03" y2="276.08"/><line class="cls-2" x1="621.09" y1="279.02" x2="621.09" y2="260.37"/><line class="cls-2" x1="101.98" y1="236.27" x2="81.23" y2="236.27"/><line class="cls-2" x1="101.98" y1="254.66" x2="81.23" y2="254.66"/><line class="cls-2" x1="84.26" y1="257.35" x2="84.26" y2="233.49"/><line class="cls-3" x1="84.26" y1="236.27" x2="87.03" y2="233.49"/><line class="cls-3" x1="84.26" y1="236.27" x2="81.4" y2="239.12"/><line class="cls-3" x1="84.26" y1="254.66" x2="87.03" y2="251.81"/><line class="cls-3" x1="84.26" y1="254.66" x2="81.4" y2="257.43"/><line class="cls-3" x1="131.87" y1="276.08" x2="134.65" y2="273.23"/><line class="cls-3" x1="131.87" y1="276.08" x2="129.02" y2="278.85"/><line class="cls-3" x1="621.09" y1="276.08" x2="623.86" y2="273.23"/><line class="cls-3" x1="621.09" y1="276.08" x2="618.23" y2="278.85"/><path d="M329.62,282.49v-1.35h6.07v1.09a17.43,17.43,0,0,0-2.39,4.6,19.68,19.68,0,0,0-1.18,5.62h-1.18a16.24,16.24,0,0,1,.45-3.36,20.68,20.68,0,0,1,1.19-3.64,15.92,15.92,0,0,1,1.63-3Z"/><path d="M342.82,283.79l-1.15.11a2.7,2.7,0,0,0-.48-1.25,1.4,1.4,0,0,0-1.11-.55,1.82,1.82,0,0,0-1.61,1.25,7.54,7.54,0,0,0-.53,3.19,2.87,2.87,0,0,1,1-1.14,2.27,2.27,0,0,1,1.27-.38,2.46,2.46,0,0,1,2,1,4.13,4.13,0,0,1,.83,2.7,5.07,5.07,0,0,1-.42,2.09,3.2,3.2,0,0,1-1.07,1.38,2.58,2.58,0,0,1-1.45.44,2.78,2.78,0,0,1-2.34-1.28,7.49,7.49,0,0,1-.92-4.27,8.83,8.83,0,0,1,.94-4.73,2.83,2.83,0,0,1,2.42-1.41,2.44,2.44,0,0,1,1.79.72A3.51,3.51,0,0,1,342.82,283.79Zm-4.7,4.94a3.17,3.17,0,0,0,.58,2,1.71,1.71,0,0,0,1.36.75,1.52,1.52,0,0,0,1.22-.71,3.2,3.2,0,0,0,.53-1.95,3,3,0,0,0-.53-1.89,1.59,1.59,0,0,0-1.3-.67,1.67,1.67,0,0,0-1.31.67A2.71,2.71,0,0,0,338.12,288.73Z"/><path d="M350.22,291.09v1.36H344a3.88,3.88,0,0,1,.49-1.84,10.36,10.36,0,0,1,1.9-2.4,13.92,13.92,0,0,0,2.12-2.49,3.39,3.39,0,0,0,.5-1.64,2,2,0,0,0-.51-1.43,1.67,1.67,0,0,0-1.26-.55,1.65,1.65,0,0,0-1.32.6,2.48,2.48,0,0,0-.52,1.71l-1.18-.15a3.83,3.83,0,0,1,.93-2.48,2.82,2.82,0,0,1,2.13-.83,2.56,2.56,0,0,1,2.17,1,3.51,3.51,0,0,1,.74,2.21,4.1,4.1,0,0,1-.58,2.09,15.11,15.11,0,0,1-2.19,2.68,19.55,19.55,0,0,0-1.33,1.44,4.06,4.06,0,0,0-.49.76Z"/><path d="M351.77,292.45v-8.3h1v1.15a2.75,2.75,0,0,1,.88-1,2.17,2.17,0,0,1,1.18-.35,2,2,0,0,1,1.22.37,2,2,0,0,1,.7,1.08,3,3,0,0,1,.94-1.09,2,2,0,0,1,1.17-.36,1.89,1.89,0,0,1,1.54.67,3.22,3.22,0,0,1,.57,2.12v5.7h-1.15v-5.24a4.16,4.16,0,0,0-.13-1.26,1.13,1.13,0,0,0-.42-.57,1.07,1.07,0,0,0-.65-.21,1.51,1.51,0,0,0-1.22.59,3,3,0,0,0-.47,1.86v4.83h-1.15v-5.4a2.46,2.46,0,0,0-.32-1.46,1,1,0,0,0-.87-.42,1.43,1.43,0,0,0-1.24.64,4.17,4.17,0,0,0-.46,2.33v4.31Z"/><path d="M362.7,292.45v-8.3h1v1.15a2.75,2.75,0,0,1,.88-1,2.17,2.17,0,0,1,1.18-.35,1.94,1.94,0,0,1,1.21.37,2,2,0,0,1,.71,1.08,3,3,0,0,1,.94-1.09,2,2,0,0,1,1.17-.36,1.89,1.89,0,0,1,1.54.67,3.22,3.22,0,0,1,.57,2.12v5.7h-1.15v-5.24a4.16,4.16,0,0,0-.13-1.26,1.13,1.13,0,0,0-.42-.57,1.07,1.07,0,0,0-.65-.21,1.49,1.49,0,0,0-1.22.59,3,3,0,0,0-.47,1.86v4.83h-1.15v-5.4a2.46,2.46,0,0,0-.32-1.46,1,1,0,0,0-.87-.42,1.43,1.43,0,0,0-1.24.64,4.17,4.17,0,0,0-.46,2.33v4.31Z"/><path d="M379.48,295.81a16.53,16.53,0,0,1-1.56-3.31,12.16,12.16,0,0,1-.71-4.21,14.19,14.19,0,0,1,2.27-7.49h.83a29.14,29.14,0,0,0-1.21,2.84,14.92,14.92,0,0,0-.52,2.23,15.21,15.21,0,0,0-.19,2.43,16.37,16.37,0,0,0,1.92,7.51Z"/><path d="M384.51,290.41v-3.14H381.4V286h3.11v-3.11h1.33V286H389v1.32h-3.12v3.14Zm4.45,2H381.4v-1.32H389Z"/><path d="M393.79,292.45V289.7h-4.07v-1.29L394,281h.94v7.42h1.28v1.29h-1.28v2.75Zm0-4v-5.16l-2.94,5.16Z"/><path d="M397.73,292.45v-8.3h1v1.15a2.57,2.57,0,0,1,.88-1,2.15,2.15,0,0,1,1.18-.35,2,2,0,0,1,1.21.37,2,2,0,0,1,.7,1.08,3.22,3.22,0,0,1,.94-1.09,2,2,0,0,1,1.17-.36,1.91,1.91,0,0,1,1.55.67,3.28,3.28,0,0,1,.56,2.12v5.7H405.8v-5.24a4.16,4.16,0,0,0-.13-1.26,1,1,0,0,0-.42-.57,1.07,1.07,0,0,0-.65-.21,1.51,1.51,0,0,0-1.22.59,3,3,0,0,0-.47,1.86v4.83h-1.15v-5.4a2.55,2.55,0,0,0-.31-1.46,1,1,0,0,0-.87-.42,1.45,1.45,0,0,0-1.25.64,4.26,4.26,0,0,0-.46,2.33v4.31Z"/><path d="M408.65,292.45v-8.3h1v1.15a2.57,2.57,0,0,1,.88-1,2.15,2.15,0,0,1,1.18-.35,2,2,0,0,1,1.21.37,2,2,0,0,1,.7,1.08,3.22,3.22,0,0,1,.94-1.09,2,2,0,0,1,1.17-.36,1.91,1.91,0,0,1,1.55.67,3.28,3.28,0,0,1,.56,2.12v5.7h-1.15v-5.24a4.16,4.16,0,0,0-.13-1.26,1,1,0,0,0-.42-.57,1.07,1.07,0,0,0-.65-.21,1.51,1.51,0,0,0-1.22.59,3,3,0,0,0-.47,1.86v4.83h-1.15v-5.4a2.55,2.55,0,0,0-.31-1.46,1,1,0,0,0-.87-.42,1.44,1.44,0,0,0-1.25.64,4.26,4.26,0,0,0-.46,2.33v4.31Z"/><path d="M420,295.81h-.83a16.37,16.37,0,0,0,1.92-7.51,15.22,15.22,0,0,0-.2-2.43,13.78,13.78,0,0,0-.52-2.23,24.4,24.4,0,0,0-1.2-2.84H420a14.19,14.19,0,0,1,2.27,7.49,12.66,12.66,0,0,1-.68,4.14A15.4,15.4,0,0,1,420,295.81Z"/><path d="M434.42,288.43l1.25.38a5.31,5.31,0,0,1-1.45,2.88,3.61,3.61,0,0,1-2.52.95,3.81,3.81,0,0,1-2.23-.64,4.41,4.41,0,0,1-1.51-2,8.45,8.45,0,0,1-.59-3.32,7.65,7.65,0,0,1,.59-3.2,4.39,4.39,0,0,1,1.6-2,3.94,3.94,0,0,1,2.25-.67,3.5,3.5,0,0,1,2.34.84,4.63,4.63,0,0,1,1.36,2.49l-1.21.35c-.42-1.59-1.26-2.38-2.52-2.38a2.77,2.77,0,0,0-1.62.48,3.22,3.22,0,0,0-1.1,1.49,6.84,6.84,0,0,0-.41,2.58,6.09,6.09,0,0,0,.83,3.53,2.56,2.56,0,0,0,2.2,1.17,2.43,2.43,0,0,0,1.75-.72A3.93,3.93,0,0,0,434.42,288.43Z"/><path d="M436.62,288.3a5,5,0,0,1,.91-3.25,2.92,2.92,0,0,1,4.55,0,4.82,4.82,0,0,1,.92,3.16,5.17,5.17,0,0,1-.9,3.33,2.94,2.94,0,0,1-4.57,0A5,5,0,0,1,436.62,288.3Zm1.18,0a4,4,0,0,0,.59,2.4,1.76,1.76,0,0,0,1.45.79,1.72,1.72,0,0,0,1.4-.8,4.08,4.08,0,0,0,.58-2.39,4,4,0,0,0-.59-2.39,1.75,1.75,0,0,0-1.45-.78,1.69,1.69,0,0,0-1.4.79A4,4,0,0,0,437.8,288.29Z"/><path d="M446.26,292.45l-2.59-8.3h1.22l1.46,5c.17.56.32,1.12.44,1.67.1-.44.24-1,.42-1.58l1.52-5.06h1.19l-2.59,8.3Z"/><path d="M455.57,289.77l1.19.18a3.61,3.61,0,0,1-1.08,2,3.07,3.07,0,0,1-4.26-.42,4.91,4.91,0,0,1-.9-3.17,5.15,5.15,0,0,1,.9-3.28,2.84,2.84,0,0,1,2.29-1.13,2.71,2.71,0,0,1,2.2,1.11,5.05,5.05,0,0,1,.89,3.21v.38h-5.08a3.6,3.6,0,0,0,.65,2.11,1.75,1.75,0,0,0,1.4.71C454.63,291.48,455.23,290.91,455.57,289.77Zm-3.79-2.27h3.8a3.32,3.32,0,0,0-.46-1.61,1.69,1.69,0,0,0-2.74-.13A2.88,2.88,0,0,0,451.78,287.5Z"/><path d="M458.22,292.45v-8.3h1v1.26a3.4,3.4,0,0,1,.73-1.16,1.12,1.12,0,0,1,.74-.29,2,2,0,0,1,1.18.45l-.39,1.31a1.45,1.45,0,0,0-.83-.31,1.05,1.05,0,0,0-.68.26,1.44,1.44,0,0,0-.43.72,6.79,6.79,0,0,0-.21,1.71v4.35Z"/><path d="M47.4,249.18v1.35H41.19a3.79,3.79,0,0,1,.5-1.84,10.09,10.09,0,0,1,1.9-2.4,13.65,13.65,0,0,0,2.12-2.49,3.36,3.36,0,0,0,.5-1.64,2,2,0,0,0-.52-1.42,1.64,1.64,0,0,0-1.26-.55,1.67,1.67,0,0,0-1.32.59,2.57,2.57,0,0,0-.51,1.71l-1.19-.15a3.85,3.85,0,0,1,.93-2.48,2.85,2.85,0,0,1,2.13-.83,2.56,2.56,0,0,1,2.18,1,3.54,3.54,0,0,1,.74,2.2,4.21,4.21,0,0,1-.58,2.1,15.77,15.77,0,0,1-2.2,2.67c-.69.71-1.13,1.19-1.33,1.44a4.71,4.71,0,0,0-.49.77Z"/><path d="M48.79,247.88l1.11-.12c.18,1.2.7,1.81,1.56,1.81a1.55,1.55,0,0,0,1-.4,3,3,0,0,0,.81-1.4,7.86,7.86,0,0,0,.32-2.35v-.28a2.88,2.88,0,0,1-1,1.1,2.21,2.21,0,0,1-1.24.41,2.52,2.52,0,0,1-2-1,4.19,4.19,0,0,1-.83-2.74,4.34,4.34,0,0,1,.86-2.84,2.65,2.65,0,0,1,2.1-1,2.6,2.6,0,0,1,1.63.58,3.63,3.63,0,0,1,1.18,1.7,10,10,0,0,1,.41,3.24,11.72,11.72,0,0,1-.45,3.67,3.9,3.9,0,0,1-1.2,1.9,2.7,2.7,0,0,1-1.71.6,2.41,2.41,0,0,1-1.79-.73A3.41,3.41,0,0,1,48.79,247.88Zm4.73-5.06a3,3,0,0,0-.55-1.93,1.57,1.57,0,0,0-1.26-.7,1.67,1.67,0,0,0-1.33.75,3.17,3.17,0,0,0-.58,2,2.69,2.69,0,0,0,.56,1.8,1.68,1.68,0,0,0,1.33.66,1.61,1.61,0,0,0,1.3-.67A3,3,0,0,0,53.52,242.82Z"/><path d="M56.25,250.53v-8.3h1v1.16a2.71,2.71,0,0,1,.89-1,2.11,2.11,0,0,1,1.17-.35,1.86,1.86,0,0,1,1.92,1.45,3.16,3.16,0,0,1,.94-1.08,2,2,0,0,1,1.17-.37,2,2,0,0,1,1.55.67,3.28,3.28,0,0,1,.56,2.12v5.7H64.33V245.3A4.19,4.19,0,0,0,64.2,244a1.11,1.11,0,0,0-1.07-.77,1.48,1.48,0,0,0-1.22.59,3,3,0,0,0-.47,1.85v4.83H60.29v-5.4a2.49,2.49,0,0,0-.31-1.45,1.06,1.06,0,0,0-.88-.42,1.45,1.45,0,0,0-1.24.63,4.2,4.2,0,0,0-.46,2.33v4.31Z"/><path d="M67.18,250.53v-8.3h1v1.16a2.71,2.71,0,0,1,.89-1,2.11,2.11,0,0,1,1.17-.35,1.86,1.86,0,0,1,1.92,1.45,3.16,3.16,0,0,1,.94-1.08A2,2,0,0,1,74.3,242a1.92,1.92,0,0,1,1.54.67,3.22,3.22,0,0,1,.57,2.12v5.7H75.26V245.3a4.19,4.19,0,0,0-.13-1.27,1.17,1.17,0,0,0-.42-.57,1.07,1.07,0,0,0-.65-.2,1.48,1.48,0,0,0-1.22.59,3,3,0,0,0-.47,1.85v4.83H71.22v-5.4a2.49,2.49,0,0,0-.31-1.45,1.06,1.06,0,0,0-.88-.42,1.45,1.45,0,0,0-1.24.63,4.2,4.2,0,0,0-.46,2.33v4.31Z"/></g></svg>