<svg xmlns="http://www.w3.org/2000/svg" viewBox="0 0 700 500"><defs><style>.cls-1,.cls-2,.cls-3{fill:none;stroke:#000;stroke-linecap:round;stroke-linejoin:round;}.cls-1{stroke-width:0.6px;}.cls-2{stroke-width:0.5px;}.cls-3{stroke-width:0.96px;}</style></defs><title>Wall Cladding-Monoclad-Dimensioned</title><g id="Image"><line class="cls-1" x1="453.08" y1="135.68" x2="453.08" y2="310.48"/><line class="cls-1" x1="482.48" y1="144.33" x2="482.48" y2="295.95"/><line class="cls-1" x1="217.79" y1="77.63" x2="218.3" y2="77.38"/><line class="cls-1" x1="218.3" y1="77.38" x2="222.83" y2="78.56"/><line class="cls-1" x1="222.83" y1="78.56" x2="244.25" y2="73.85"/><line class="cls-1" x1="244.25" y1="73.85" x2="248.29" y2="74.69"/><line class="cls-1" x1="248.29" y1="74.69" x2="252.15" y2="75.62"/><line class="cls-1" x1="252.15" y1="75.62" x2="255.76" y2="76.71"/><line class="cls-1" x1="255.76" y1="76.71" x2="259.04" y2="77.8"/><line class="cls-1" x1="259.04" y1="77.8" x2="261.98" y2="79.06"/><line class="cls-1" x1="261.98" y1="79.06" x2="264.67" y2="80.32"/><line class="cls-1" x1="264.67" y1="89.81" x2="281.97" y2="94.6"/><line class="cls-1" x1="281.97" y1="94.6" x2="285.08" y2="94.35"/><line class="cls-1" x1="285.08" y1="94.35" x2="306.25" y2="100.15"/><line class="cls-1" x1="306.25" y1="100.15" x2="307" y2="100.99"/><line class="cls-1" x1="307" y1="100.99" x2="323.63" y2="105.52"/><line class="cls-1" x1="323.63" y1="105.52" x2="343.54" y2="103.34"/><line class="cls-1" x1="343.54" y1="103.34" x2="346.48" y2="103.67"/><line class="cls-1" x1="346.48" y1="103.67" x2="349.09" y2="104.18"/><line class="cls-1" x1="349.09" y1="104.18" x2="351.35" y2="104.68"/><line class="cls-1" x1="351.35" y1="104.68" x2="353.12" y2="105.35"/><line class="cls-1" x1="353.12" y1="105.35" x2="354.55" y2="106.11"/><line class="cls-1" x1="354.55" y1="106.11" x2="355.55" y2="106.95"/><line class="cls-1" x1="355.55" y1="114.51" x2="360.68" y2="115.85"/><line class="cls-1" x1="360.68" y1="115.85" x2="363.03" y2="115.69"/><line class="cls-1" x1="363.03" y1="115.69" x2="377.06" y2="119.55"/><line class="cls-1" x1="377.06" y1="120.31" x2="387.64" y2="123.16"/><line class="cls-1" x1="387.64" y1="123.16" x2="387.89" y2="123.25"/><line class="cls-1" x1="387.89" y1="123.25" x2="388.06" y2="123.25"/><line class="cls-1" x1="388.06" y1="123.25" x2="388.4" y2="123.25"/><line class="cls-1" x1="388.4" y1="123.25" x2="388.9" y2="123.25"/><line class="cls-1" x1="388.9" y1="123.25" x2="389.41" y2="123.16"/><line class="cls-1" x1="389.41" y1="123.16" x2="404.95" y2="121.48"/><line class="cls-1" x1="404.95" y1="121.48" x2="407.05" y2="121.82"/><line class="cls-1" x1="407.05" y1="121.82" x2="408.89" y2="122.15"/><line class="cls-1" x1="408.89" y1="122.15" x2="410.49" y2="122.57"/><line class="cls-1" x1="410.49" y1="122.57" x2="411.75" y2="122.99"/><line class="cls-1" x1="411.75" y1="122.99" x2="412.76" y2="123.41"/><line class="cls-1" x1="412.76" y1="123.41" x2="413.51" y2="124"/><line class="cls-1" x1="413.51" y1="130.05" x2="415.28" y2="129.97"/><line class="cls-1" x1="415.28" y1="129.97" x2="425.02" y2="132.74"/><line class="cls-1" x1="425.02" y1="133.24" x2="431.49" y2="135.01"/><line class="cls-1" x1="431.49" y1="135.01" x2="431.74" y2="135.09"/><line class="cls-1" x1="431.74" y1="135.09" x2="432.16" y2="135.09"/><line class="cls-1" x1="432.16" y1="135.09" x2="432.58" y2="135.09"/><line class="cls-1" x1="432.58" y1="135.09" x2="433.09" y2="135.09"/><line class="cls-1" x1="433.09" y1="135.09" x2="433.67" y2="135.09"/><line class="cls-1" x1="433.67" y1="135.09" x2="447.2" y2="134.08"/><line class="cls-1" x1="447.2" y1="134.08" x2="449.89" y2="134.33"/><line class="cls-1" x1="449.89" y1="134.33" x2="451.73" y2="134.75"/><line class="cls-1" x1="451.73" y1="134.75" x2="452.83" y2="135.17"/><line class="cls-1" x1="452.83" y1="135.17" x2="453.08" y2="135.68"/><line class="cls-1" x1="453.08" y1="135.68" x2="453.08" y2="135.76"/><line class="cls-1" x1="453.08" y1="140.47" x2="459.21" y2="142.15"/><line class="cls-1" x1="459.21" y1="142.65" x2="463.83" y2="143.91"/><line class="cls-1" x1="463.83" y1="143.91" x2="464.08" y2="143.91"/><line class="cls-1" x1="464.08" y1="143.91" x2="464.5" y2="143.99"/><line class="cls-1" x1="464.5" y1="143.99" x2="465.09" y2="143.99"/><line class="cls-1" x1="465.09" y1="143.99" x2="465.85" y2="143.91"/><line class="cls-1" x1="465.85" y1="143.91" x2="478.03" y2="143.24"/><line class="cls-1" x1="478.03" y1="143.24" x2="479.45" y2="143.41"/><line class="cls-1" x1="479.45" y1="143.41" x2="480.63" y2="143.49"/><line class="cls-1" x1="480.63" y1="143.49" x2="481.47" y2="143.74"/><line class="cls-1" x1="481.47" y1="143.74" x2="482.06" y2="143.91"/><line class="cls-1" x1="482.06" y1="143.91" x2="482.39" y2="144.16"/><line class="cls-1" x1="482.39" y1="144.16" x2="482.48" y2="144.33"/><line class="cls-1" x1="482.48" y1="144.33" x2="482.48" y2="144.41"/><line class="cls-1" x1="482.48" y1="295.87" x2="482.48" y2="295.95"/><line class="cls-1" x1="482.48" y1="295.95" x2="482.39" y2="296.29"/><line class="cls-1" x1="482.39" y1="296.29" x2="482.06" y2="296.71"/><line class="cls-1" x1="482.06" y1="296.71" x2="481.47" y2="297.04"/><line class="cls-1" x1="481.47" y1="297.04" x2="480.63" y2="297.38"/><line class="cls-1" x1="480.63" y1="297.38" x2="479.45" y2="297.63"/><line class="cls-1" x1="479.45" y1="297.63" x2="478.03" y2="297.8"/><line class="cls-1" x1="478.03" y1="297.8" x2="465.85" y2="296.71"/><line class="cls-1" x1="465.85" y1="296.71" x2="465.09" y2="296.62"/><line class="cls-1" x1="465.09" y1="296.62" x2="464.5" y2="296.62"/><line class="cls-1" x1="464.5" y1="296.62" x2="464.08" y2="296.62"/><line class="cls-1" x1="464.08" y1="296.62" x2="463.83" y2="296.71"/><line class="cls-1" x1="463.83" y1="296.71" x2="459.21" y2="298.81"/><line class="cls-1" x1="459.21" y1="299.65" x2="453.08" y2="302.42"/><line class="cls-1" x1="453.08" y1="310.23" x2="453.08" y2="310.48"/><line class="cls-1" x1="453.08" y1="310.48" x2="452.83" y2="311.24"/><line class="cls-1" x1="452.83" y1="311.24" x2="451.73" y2="311.99"/><line class="cls-1" x1="451.73" y1="311.99" x2="449.89" y2="312.67"/><line class="cls-1" x1="449.89" y1="312.67" x2="447.2" y2="313"/><line class="cls-1" x1="447.2" y1="313" x2="433.67" y2="311.49"/><line class="cls-1" x1="433.67" y1="311.49" x2="433.09" y2="311.41"/><line class="cls-1" x1="433.09" y1="311.41" x2="432.58" y2="311.41"/><line class="cls-1" x1="432.58" y1="311.41" x2="432.16" y2="311.41"/><line class="cls-1" x1="432.16" y1="311.41" x2="431.74" y2="311.49"/><line class="cls-1" x1="431.74" y1="311.49" x2="431.49" y2="311.57"/><line class="cls-1" x1="431.49" y1="311.57" x2="425.02" y2="314.51"/><line class="cls-1" x1="425.02" y1="315.44" x2="415.28" y2="319.89"/><line class="cls-1" x1="415.28" y1="319.89" x2="413.51" y2="319.81"/><line class="cls-1" x1="413.51" y1="329.97" x2="412.76" y2="330.81"/><line class="cls-1" x1="412.76" y1="330.81" x2="411.75" y2="331.65"/><line class="cls-1" x1="411.75" y1="331.65" x2="410.49" y2="332.32"/><line class="cls-1" x1="410.49" y1="332.32" x2="408.89" y2="332.99"/><line class="cls-1" x1="408.89" y1="332.99" x2="407.05" y2="333.58"/><line class="cls-1" x1="407.05" y1="333.58" x2="404.95" y2="334"/><line class="cls-1" x1="404.95" y1="334" x2="389.41" y2="331.23"/><line class="cls-1" x1="389.41" y1="331.23" x2="388.9" y2="331.15"/><line class="cls-1" x1="388.9" y1="331.15" x2="388.4" y2="331.15"/><line class="cls-1" x1="388.4" y1="331.15" x2="388.06" y2="331.15"/><line class="cls-1" x1="388.06" y1="331.15" x2="387.89" y2="331.23"/><line class="cls-1" x1="387.89" y1="331.23" x2="387.64" y2="331.31"/><line class="cls-1" x1="387.64" y1="331.31" x2="377.06" y2="336.1"/><line class="cls-1" x1="377.06" y1="337.28" x2="363.03" y2="343.75"/><line class="cls-1" x1="363.03" y1="343.75" x2="360.68" y2="343.41"/><line class="cls-1" x1="360.68" y1="343.41" x2="355.55" y2="345.76"/><line class="cls-1" x1="355.55" y1="358.28" x2="354.55" y2="359.62"/><line class="cls-1" x1="354.55" y1="359.62" x2="353.12" y2="360.88"/><line class="cls-1" x1="353.12" y1="360.88" x2="351.35" y2="362.06"/><line class="cls-1" x1="351.35" y1="362.06" x2="349.09" y2="362.98"/><line class="cls-1" x1="349.09" y1="362.98" x2="346.48" y2="363.82"/><line class="cls-1" x1="346.48" y1="363.82" x2="343.54" y2="364.41"/><line class="cls-1" x1="343.54" y1="364.41" x2="323.63" y2="360.71"/><line class="cls-1" x1="323.63" y1="360.71" x2="307" y2="368.27"/><line class="cls-1" x1="307" y1="368.27" x2="306.25" y2="369.62"/><line class="cls-1" x1="306.25" y1="369.62" x2="285.08" y2="379.28"/><line class="cls-1" x1="285.08" y1="379.28" x2="281.97" y2="378.94"/><line class="cls-1" x1="281.97" y1="378.94" x2="264.67" y2="386.84"/><line class="cls-1" x1="264.67" y1="402.71" x2="261.98" y2="404.9"/><line class="cls-1" x1="261.98" y1="404.9" x2="259.04" y2="406.91"/><line class="cls-1" x1="259.04" y1="406.91" x2="255.76" y2="408.76"/><line class="cls-1" x1="255.76" y1="408.76" x2="252.15" y2="410.53"/><line class="cls-1" x1="252.15" y1="410.53" x2="248.29" y2="412.12"/><line class="cls-1" x1="248.29" y1="412.12" x2="244.25" y2="413.47"/><line class="cls-1" x1="244.25" y1="413.47" x2="222.83" y2="405.57"/><line class="cls-1" x1="222.83" y1="405.57" x2="218.3" y2="407.67"/><line class="cls-1" x1="218.3" y1="407.67" x2="217.79" y2="407.25"/><line class="cls-1" x1="217.79" y1="407.25" x2="217.79" y2="77.63"/><line class="cls-1" x1="218.3" y1="407.67" x2="218.3" y2="77.38"/><line class="cls-1" x1="222.83" y1="405.57" x2="222.83" y2="78.56"/><line class="cls-1" x1="244.25" y1="413.47" x2="244.25" y2="73.85"/><line class="cls-1" x1="264.67" y1="402.71" x2="264.67" y2="80.32"/><line class="cls-1" x1="281.97" y1="378.94" x2="281.97" y2="94.6"/><line class="cls-1" x1="285.08" y1="379.28" x2="285.08" y2="94.35"/><line class="cls-1" x1="306.25" y1="369.62" x2="306.25" y2="100.15"/><line class="cls-1" x1="307" y1="368.27" x2="307" y2="100.99"/><line class="cls-1" x1="323.63" y1="360.71" x2="323.63" y2="105.52"/><line class="cls-1" x1="343.54" y1="364.41" x2="343.54" y2="103.34"/><line class="cls-1" x1="355.55" y1="358.28" x2="355.55" y2="106.95"/><line class="cls-1" x1="360.68" y1="343.41" x2="360.68" y2="115.85"/><line class="cls-1" x1="363.03" y1="343.75" x2="363.03" y2="115.69"/><line class="cls-1" x1="377.06" y1="337.28" x2="377.06" y2="119.55"/><line class="cls-1" x1="404.95" y1="334" x2="404.95" y2="121.48"/><line class="cls-1" x1="413.51" y1="329.97" x2="413.51" y2="124"/><line class="cls-1" x1="415.28" y1="319.89" x2="415.28" y2="129.97"/><line class="cls-1" x1="425.02" y1="315.44" x2="425.02" y2="132.74"/><line class="cls-1" x1="433.67" y1="311.49" x2="433.67" y2="135.09"/><line class="cls-1" x1="447.2" y1="313" x2="447.2" y2="134.08"/><line class="cls-1" x1="453.08" y1="310.23" x2="453.08" y2="135.76"/><line class="cls-1" x1="459.21" y1="299.65" x2="459.21" y2="142.15"/><line class="cls-1" x1="478.03" y1="297.8" x2="478.03" y2="143.24"/><line class="cls-1" x1="482.48" y1="295.87" x2="482.48" y2="144.41"/><line class="cls-1" x1="388.4" y1="123.25" x2="388.4" y2="331.15"/><line class="cls-1" x1="464.5" y1="296.62" x2="464.5" y2="143.99"/></g><g id="Dimensions"><line class="cls-2" x1="254.84" y1="441.44" x2="484.07" y2="331.73"/><line class="cls-3" x1="480.71" y1="333.33" x2="484.24" y2="335.18"/><line class="cls-3" x1="480.71" y1="333.33" x2="477.1" y2="331.4"/><line class="cls-2" x1="480.71" y1="336.61" x2="480.71" y2="316.78"/><line class="cls-3" x1="257.19" y1="440.26" x2="260.72" y2="442.11"/><line class="cls-3" x1="257.19" y1="440.26" x2="253.66" y2="438.5"/><line class="cls-2" x1="257.19" y1="443.71" x2="257.19" y2="423.88"/><line class="cls-2" x1="187.39" y1="418.76" x2="203.85" y2="435.22"/><line class="cls-3" x1="201.41" y1="432.79" x2="200.74" y2="436.73"/><line class="cls-3" x1="201.41" y1="432.79" x2="202.17" y2="428.92"/><line class="cls-3" x1="188.98" y1="420.35" x2="188.31" y2="424.3"/><line class="cls-3" x1="188.98" y1="420.35" x2="189.74" y2="416.49"/><line class="cls-2" x1="199.4" y1="433.79" x2="217.29" y2="425.23"/><line class="cls-2" x1="186.97" y1="421.28" x2="204.86" y2="412.71"/><path d="M160.76,437.27v1.35h-6.21a3.86,3.86,0,0,1,.5-1.83,10.36,10.36,0,0,1,1.9-2.4,13.92,13.92,0,0,0,2.12-2.49,3.42,3.42,0,0,0,.5-1.64,2,2,0,0,0-.51-1.43,1.74,1.74,0,0,0-2.58.05,2.47,2.47,0,0,0-.52,1.7l-1.19-.14a3.89,3.89,0,0,1,.94-2.48,2.8,2.8,0,0,1,2.12-.84,2.59,2.59,0,0,1,2.18,1,3.56,3.56,0,0,1,.74,2.2,4.11,4.11,0,0,1-.58,2.1,15.59,15.59,0,0,1-2.19,2.68c-.69.7-1.14,1.18-1.34,1.44a4,4,0,0,0-.48.76Z"/><path d="M162.16,436l1.1-.13c.18,1.21.7,1.81,1.57,1.81a1.63,1.63,0,0,0,1-.39,3.07,3.07,0,0,0,.8-1.4,7.64,7.64,0,0,0,.33-2.36v-.28a2.89,2.89,0,0,1-1,1.1,2.16,2.16,0,0,1-1.24.41,2.48,2.48,0,0,1-2-1A4.16,4.16,0,0,1,162,431a4.26,4.26,0,0,1,.87-2.83,2.63,2.63,0,0,1,2.09-1,2.69,2.69,0,0,1,1.64.58,3.78,3.78,0,0,1,1.17,1.71,10,10,0,0,1,.41,3.24,12,12,0,0,1-.44,3.66,4,4,0,0,1-1.21,1.91,2.7,2.7,0,0,1-1.71.6,2.41,2.41,0,0,1-1.79-.73A3.43,3.43,0,0,1,162.16,436Zm4.72-5.06a3.07,3.07,0,0,0-.55-1.94,1.56,1.56,0,0,0-1.26-.7,1.67,1.67,0,0,0-1.32.75,3.17,3.17,0,0,0-.59,2,2.73,2.73,0,0,0,.56,1.8,1.66,1.66,0,0,0,1.33.67,1.64,1.64,0,0,0,1.3-.67A3.06,3.06,0,0,0,166.88,430.92Z"/><path d="M169.62,438.62v-8.29h1v1.15a2.58,2.58,0,0,1,.88-1,2.15,2.15,0,0,1,1.18-.35,2,2,0,0,1,1.21.37,2,2,0,0,1,.71,1.07,3.14,3.14,0,0,1,.93-1.08,2.07,2.07,0,0,1,1.17-.36,1.93,1.93,0,0,1,1.55.66,3.33,3.33,0,0,1,.56,2.13v5.69h-1.15v-5.23a4.16,4.16,0,0,0-.13-1.26,1.09,1.09,0,0,0-.42-.58,1.14,1.14,0,0,0-.65-.2,1.52,1.52,0,0,0-1.22.59,3,3,0,0,0-.47,1.86v4.82h-1.14v-5.39a2.52,2.52,0,0,0-.32-1.46,1,1,0,0,0-.87-.42,1.45,1.45,0,0,0-1.25.64,4.25,4.25,0,0,0-.46,2.32v4.31Z"/><path d="M180.55,438.62v-8.29h1v1.15a2.58,2.58,0,0,1,.88-1,2.15,2.15,0,0,1,1.18-.35,1.87,1.87,0,0,1,1.91,1.44,3.27,3.27,0,0,1,.94-1.08,2,2,0,0,1,1.17-.36,1.93,1.93,0,0,1,1.55.66,3.33,3.33,0,0,1,.56,2.13v5.69h-1.15v-5.23a4.16,4.16,0,0,0-.13-1.26,1.09,1.09,0,0,0-.42-.58,1.14,1.14,0,0,0-.65-.2,1.51,1.51,0,0,0-1.22.59,3,3,0,0,0-.47,1.86v4.82h-1.15v-5.39a2.53,2.53,0,0,0-.31-1.46,1,1,0,0,0-.87-.42,1.45,1.45,0,0,0-1.25.64,4.25,4.25,0,0,0-.46,2.32v4.31Z"/><path d="M364.51,397v-1.35h6.07v1.09a17.43,17.43,0,0,0-2.39,4.6,19.68,19.68,0,0,0-1.18,5.61h-1.18a16.16,16.16,0,0,1,.45-3.35,20.78,20.78,0,0,1,1.19-3.65A15.81,15.81,0,0,1,369.1,397Z"/><path d="M377.71,398.27l-1.15.11a2.8,2.8,0,0,0-.48-1.25,1.42,1.42,0,0,0-1.11-.54,1.81,1.81,0,0,0-1.61,1.25,7.52,7.52,0,0,0-.53,3.18,2.84,2.84,0,0,1,1-1.13,2.28,2.28,0,0,1,1.27-.39,2.49,2.49,0,0,1,1.95,1,4.18,4.18,0,0,1,.83,2.71,5,5,0,0,1-.42,2.08,3.2,3.2,0,0,1-1.07,1.38,2.51,2.51,0,0,1-1.45.45,2.78,2.78,0,0,1-2.34-1.29,7.45,7.45,0,0,1-.92-4.27,8.86,8.86,0,0,1,.94-4.73,2.83,2.83,0,0,1,2.42-1.41,2.41,2.41,0,0,1,1.79.73A3.48,3.48,0,0,1,377.71,398.27Zm-4.7,5a3.19,3.19,0,0,0,.58,2A1.71,1.71,0,0,0,375,406a1.55,1.55,0,0,0,1.22-.71,3.22,3.22,0,0,0,.53-1.95,3,3,0,0,0-.53-1.89,1.6,1.6,0,0,0-1.3-.68,1.7,1.7,0,0,0-1.31.67A2.75,2.75,0,0,0,373,403.22Z"/><path d="M385.11,405.58v1.35H378.9a3.88,3.88,0,0,1,.49-1.84,10.79,10.79,0,0,1,1.9-2.4,13.25,13.25,0,0,0,2.12-2.49,3.25,3.25,0,0,0,.5-1.63,2,2,0,0,0-.51-1.43,1.64,1.64,0,0,0-1.26-.55,1.67,1.67,0,0,0-1.32.59,2.52,2.52,0,0,0-.52,1.71l-1.18-.15a3.85,3.85,0,0,1,.93-2.48,2.85,2.85,0,0,1,2.13-.83,2.54,2.54,0,0,1,2.17,1,3.48,3.48,0,0,1,.74,2.2,4.11,4.11,0,0,1-.58,2.1,14.77,14.77,0,0,1-2.19,2.67c-.69.71-1.13,1.19-1.33,1.44a4.12,4.12,0,0,0-.49.77Z"/><path d="M386.66,406.93v-8.3h1v1.16a2.67,2.67,0,0,1,.88-1,2.09,2.09,0,0,1,1.18-.35,2,2,0,0,1,1.22.37,2,2,0,0,1,.7,1.07,3.06,3.06,0,0,1,.94-1.08,2,2,0,0,1,1.17-.36,1.91,1.91,0,0,1,1.54.66,3.23,3.23,0,0,1,.57,2.13v5.69h-1.15V401.7a4.07,4.07,0,0,0-.13-1.26,1.2,1.2,0,0,0-.42-.58,1.14,1.14,0,0,0-.65-.2,1.48,1.48,0,0,0-1.22.59,3,3,0,0,0-.47,1.86v4.82H390.7v-5.4a2.43,2.43,0,0,0-.32-1.45,1,1,0,0,0-.87-.42,1.45,1.45,0,0,0-1.24.63,4.22,4.22,0,0,0-.46,2.33v4.31Z"/><path d="M397.59,406.93v-8.3h1v1.16a2.67,2.67,0,0,1,.88-1,2.09,2.09,0,0,1,1.18-.35,2,2,0,0,1,1.22.37,2,2,0,0,1,.7,1.07,3.06,3.06,0,0,1,.94-1.08,2,2,0,0,1,1.17-.36,1.91,1.91,0,0,1,1.54.66,3.23,3.23,0,0,1,.57,2.13v5.69h-1.15V401.7a4.07,4.07,0,0,0-.13-1.26,1.2,1.2,0,0,0-.42-.58,1.14,1.14,0,0,0-.65-.2,1.47,1.47,0,0,0-1.22.59,3,3,0,0,0-.47,1.86v4.82h-1.15v-5.4a2.43,2.43,0,0,0-.32-1.45,1,1,0,0,0-.87-.42,1.45,1.45,0,0,0-1.24.63,4.22,4.22,0,0,0-.46,2.33v4.31Z"/><path d="M414.37,410.3a16.8,16.8,0,0,1-1.56-3.31,12.22,12.22,0,0,1-.71-4.22,14.22,14.22,0,0,1,2.27-7.49h.83a30.18,30.18,0,0,0-1.21,2.85,14.5,14.5,0,0,0-.52,2.22,15.34,15.34,0,0,0-.19,2.44,16.4,16.4,0,0,0,1.92,7.51Z"/><path d="M419.4,404.9v-3.15h-3.11v-1.31h3.11v-3.12h1.33v3.12h3.12v1.31h-3.12v3.15Zm4.45,2h-7.56v-1.31h7.56Z"/><path d="M428.68,406.93v-2.74h-4.07V402.9l4.28-7.42h.94v7.42h1.28v1.29h-1.28v2.74Zm0-4v-5.16l-2.94,5.16Z"/><path d="M432.62,406.93v-8.3h1v1.16a2.58,2.58,0,0,1,.88-1,2.07,2.07,0,0,1,1.18-.35,1.87,1.87,0,0,1,1.91,1.44,3.27,3.27,0,0,1,.94-1.08,2,2,0,0,1,1.17-.36,1.93,1.93,0,0,1,1.55.66,3.29,3.29,0,0,1,.56,2.13v5.69h-1.15V401.7a4.07,4.07,0,0,0-.13-1.26,1.09,1.09,0,0,0-.42-.58,1.14,1.14,0,0,0-.65-.2,1.48,1.48,0,0,0-1.22.59,3,3,0,0,0-.47,1.86v4.82h-1.15v-5.4a2.52,2.52,0,0,0-.31-1.45,1,1,0,0,0-.87-.42,1.47,1.47,0,0,0-1.25.63,4.31,4.31,0,0,0-.46,2.33v4.31Z"/><path d="M443.54,406.93v-8.3h1v1.16a2.5,2.5,0,0,1,.88-1,2.07,2.07,0,0,1,1.18-.35,1.87,1.87,0,0,1,1.91,1.44,3.27,3.27,0,0,1,.94-1.08,2,2,0,0,1,1.17-.36,1.93,1.93,0,0,1,1.55.66,3.29,3.29,0,0,1,.56,2.13v5.69h-1.15V401.7a4.07,4.07,0,0,0-.13-1.26,1.09,1.09,0,0,0-.42-.58,1.14,1.14,0,0,0-.65-.2,1.48,1.48,0,0,0-1.22.59,3,3,0,0,0-.47,1.86v4.82h-1.15v-5.4a2.52,2.52,0,0,0-.31-1.45,1,1,0,0,0-.87-.42,1.47,1.47,0,0,0-1.25.63,4.31,4.31,0,0,0-.46,2.33v4.31Z"/><path d="M454.92,410.3h-.83a16.4,16.4,0,0,0,1.92-7.51,15.35,15.35,0,0,0-.2-2.44,13.41,13.41,0,0,0-.52-2.22,25.13,25.13,0,0,0-1.2-2.85h.83a14.22,14.22,0,0,1,2.27,7.49,12.67,12.67,0,0,1-.68,4.15A15.4,15.4,0,0,1,454.92,410.3Z"/><path d="M469.31,402.92l1.25.38a5.38,5.38,0,0,1-1.45,2.88,3.61,3.61,0,0,1-2.52.95,3.88,3.88,0,0,1-2.23-.64,4.49,4.49,0,0,1-1.51-2.05,8.38,8.38,0,0,1-.59-3.32,7.65,7.65,0,0,1,.59-3.2,4.5,4.5,0,0,1,1.6-2,4,4,0,0,1,2.25-.67,3.51,3.51,0,0,1,2.34.85,4.56,4.56,0,0,1,1.36,2.48l-1.21.35c-.42-1.58-1.26-2.38-2.52-2.38a2.77,2.77,0,0,0-1.62.48,3.2,3.2,0,0,0-1.1,1.5,6.78,6.78,0,0,0-.41,2.57,6.07,6.07,0,0,0,.83,3.53,2.55,2.55,0,0,0,2.2,1.18,2.41,2.41,0,0,0,1.75-.72A4,4,0,0,0,469.31,402.92Z"/><path d="M471.51,402.78a5,5,0,0,1,.91-3.24,2.92,2.92,0,0,1,4.55,0,4.8,4.8,0,0,1,.92,3.16A5.14,5.14,0,0,1,477,406a2.92,2.92,0,0,1-4.57,0A5,5,0,0,1,471.51,402.78Zm1.18,0a4,4,0,0,0,.59,2.4,1.75,1.75,0,0,0,1.45.78,1.7,1.7,0,0,0,1.4-.79,4.11,4.11,0,0,0,.58-2.39,4,4,0,0,0-.59-2.39,1.74,1.74,0,0,0-1.45-.79,1.72,1.72,0,0,0-1.4.79A4.08,4.08,0,0,0,472.69,402.78Z"/><path d="M481.15,406.93l-2.59-8.3h1.22l1.46,5c.17.57.32,1.12.44,1.67.1-.43.24-1,.42-1.57l1.52-5.07h1.19l-2.59,8.3Z"/><path d="M490.46,404.26l1.19.18a3.62,3.62,0,0,1-1.08,2,2.83,2.83,0,0,1-1.92.68,2.86,2.86,0,0,1-2.34-1.1,4.89,4.89,0,0,1-.9-3.17,5.14,5.14,0,0,1,.9-3.27,2.81,2.81,0,0,1,2.29-1.13,2.71,2.71,0,0,1,2.2,1.11,5,5,0,0,1,.89,3.21v.37H486.6a3.57,3.57,0,0,0,.65,2.11,1.75,1.75,0,0,0,1.4.71C489.52,406,490.12,405.39,490.46,404.26ZM486.67,402h3.8a3.28,3.28,0,0,0-.46-1.61,1.67,1.67,0,0,0-2.74-.13A2.88,2.88,0,0,0,486.67,402Z"/><path d="M493.11,406.93v-8.3h1v1.26a3.5,3.5,0,0,1,.73-1.16,1.1,1.1,0,0,1,.74-.28,2,2,0,0,1,1.18.45l-.39,1.3a1.43,1.43,0,0,0-.83-.3,1.05,1.05,0,0,0-.68.26,1.44,1.44,0,0,0-.43.72,6.68,6.68,0,0,0-.21,1.71v4.34Z"/></g></svg>