<svg xmlns="http://www.w3.org/2000/svg" viewBox="0 0 700 400"><defs><style>.cls-1,.cls-2,.cls-3{fill:none;stroke:#000;stroke-linecap:round;stroke-linejoin:round;}.cls-1{stroke-width:0.6px;}.cls-2{stroke-width:0.5px;}.cls-3{stroke-width:0.96px;}</style></defs><title>Roofing-Speed Deck Ultra-Dimensioned</title><g id="Image"><line class="cls-1" x1="299.46" y1="150.08" x2="170.01" y2="234.92"/><line class="cls-1" x1="361.79" y1="149.83" x2="320.79" y2="234.42"/><line class="cls-1" x1="449.31" y1="234.42" x2="414.96" y2="149.83"/><line class="cls-1" x1="600.43" y1="235.17" x2="477.37" y2="150.17"/><line class="cls-1" x1="479.89" y1="145.88" x2="606.73" y2="224.93"/><line class="cls-1" x1="600.51" y1="233.41" x2="602.95" y2="235.17"/><line class="cls-1" x1="467.79" y1="236.6" x2="461.41" y2="224.42"/><line class="cls-1" x1="450.99" y1="231.31" x2="452.84" y2="235.59"/><line class="cls-1" x1="317.35" y1="235.43" x2="319.28" y2="231.56"/><line class="cls-1" x1="167.58" y1="234.84" x2="170.01" y2="233.24"/><line class="cls-1" x1="422.1" y1="145.8" x2="466.7" y2="224.84"/><line class="cls-1" x1="153.3" y1="224" x2="292.65" y2="145.55"/><line class="cls-1" x1="303.57" y1="224.67" x2="354.73" y2="145.8"/><line class="cls-1" x1="310.38" y1="224.42" x2="295.09" y2="249.87"/><line class="cls-1" x1="148.51" y1="233.66" x2="153.13" y2="224.93"/><line class="cls-1" x1="153.13" y1="224.93" x2="153.3" y2="224.67"/><line class="cls-1" x1="153.3" y1="224.67" x2="153.47" y2="224.51"/><line class="cls-1" x1="153.47" y1="224.51" x2="153.63" y2="224.42"/><line class="cls-1" x1="153.63" y1="224.42" x2="153.72" y2="224.34"/><line class="cls-1" x1="153.72" y1="224.34" x2="154.05" y2="224.34"/><line class="cls-1" x1="154.05" y1="224.34" x2="164.13" y2="224.34"/><line class="cls-1" x1="164.13" y1="224.34" x2="164.47" y2="224.34"/><line class="cls-1" x1="164.47" y1="224.34" x2="164.72" y2="224.51"/><line class="cls-1" x1="164.72" y1="224.51" x2="164.89" y2="224.67"/><line class="cls-1" x1="164.89" y1="224.67" x2="165.06" y2="224.93"/><line class="cls-1" x1="165.06" y1="224.93" x2="170.01" y2="233.24"/><line class="cls-1" x1="170.01" y1="233.24" x2="170.1" y2="233.49"/><line class="cls-1" x1="170.1" y1="233.49" x2="170.18" y2="233.75"/><line class="cls-1" x1="170.18" y1="233.75" x2="170.1" y2="234"/><line class="cls-1" x1="170.1" y1="234" x2="170.01" y2="234.25"/><line class="cls-1" x1="170.01" y1="234.25" x2="169.93" y2="234.42"/><line class="cls-1" x1="169.93" y1="234.42" x2="169.76" y2="234.5"/><line class="cls-1" x1="169.76" y1="234.5" x2="169.68" y2="234.59"/><line class="cls-1" x1="169.68" y1="234.59" x2="169.51" y2="234.67"/><line class="cls-1" x1="169.51" y1="234.67" x2="169.26" y2="234.67"/><line class="cls-1" x1="169.26" y1="234.67" x2="168.25" y2="234.67"/><line class="cls-1" x1="168.25" y1="234.67" x2="167.91" y2="234.75"/><line class="cls-1" x1="167.91" y1="234.75" x2="167.58" y2="234.84"/><line class="cls-1" x1="167.58" y1="234.84" x2="167.58" y2="234.84"/><line class="cls-1" x1="167.58" y1="234.84" x2="167.33" y2="235.01"/><line class="cls-1" x1="167.33" y1="235.01" x2="167.16" y2="235.26"/><line class="cls-1" x1="167.16" y1="235.26" x2="167.07" y2="235.59"/><line class="cls-1" x1="167.07" y1="235.59" x2="166.99" y2="235.93"/><line class="cls-1" x1="166.99" y1="235.93" x2="167.07" y2="236.27"/><line class="cls-1" x1="167.07" y1="236.27" x2="167.16" y2="236.52"/><line class="cls-1" x1="167.16" y1="236.52" x2="174.97" y2="249.71"/><line class="cls-1" x1="174.97" y1="249.71" x2="175.39" y2="250.21"/><line class="cls-1" x1="175.39" y1="250.21" x2="175.81" y2="250.63"/><line class="cls-1" x1="175.81" y1="250.63" x2="176.4" y2="250.88"/><line class="cls-1" x1="176.4" y1="250.88" x2="176.99" y2="251.13"/><line class="cls-1" x1="176.99" y1="251.13" x2="177.57" y2="251.13"/><line class="cls-1" x1="177.57" y1="251.13" x2="200.84" y2="251.22"/><line class="cls-1" x1="200.84" y1="251.22" x2="203.61" y2="249.62"/><line class="cls-1" x1="203.61" y1="249.62" x2="216.3" y2="249.62"/><line class="cls-1" x1="216.3" y1="249.62" x2="219.15" y2="251.22"/><line class="cls-1" x1="219.15" y1="251.22" x2="250.99" y2="251.22"/><line class="cls-1" x1="250.99" y1="251.22" x2="253.76" y2="249.62"/><line class="cls-1" x1="253.76" y1="249.62" x2="266.45" y2="249.62"/><line class="cls-1" x1="266.45" y1="249.62" x2="269.3" y2="251.22"/><line class="cls-1" x1="269.3" y1="251.22" x2="292.57" y2="251.22"/><line class="cls-1" x1="292.57" y1="251.22" x2="293.24" y2="251.22"/><line class="cls-1" x1="293.24" y1="251.22" x2="293.83" y2="250.97"/><line class="cls-1" x1="293.83" y1="250.97" x2="294.33" y2="250.71"/><line class="cls-1" x1="294.33" y1="250.71" x2="294.75" y2="250.29"/><line class="cls-1" x1="294.75" y1="250.29" x2="295.09" y2="249.87"/><line class="cls-1" x1="295.09" y1="249.87" x2="295.09" y2="249.79"/><line class="cls-1" x1="295.09" y1="249.79" x2="302.31" y2="236.6"/><line class="cls-1" x1="302.31" y1="236.6" x2="302.48" y2="236.27"/><line class="cls-1" x1="302.48" y1="236.27" x2="302.48" y2="235.93"/><line class="cls-1" x1="302.48" y1="235.93" x2="302.48" y2="235.68"/><line class="cls-1" x1="302.48" y1="235.68" x2="302.31" y2="235.34"/><line class="cls-1" x1="302.31" y1="235.34" x2="302.15" y2="235.09"/><line class="cls-1" x1="302.15" y1="235.09" x2="301.89" y2="234.92"/><line class="cls-1" x1="301.89" y1="234.92" x2="301.56" y2="234.75"/><line class="cls-1" x1="301.56" y1="234.75" x2="301.22" y2="234.75"/><line class="cls-1" x1="301.22" y1="234.75" x2="300.21" y2="234.75"/><line class="cls-1" x1="300.21" y1="234.75" x2="299.96" y2="234.75"/><line class="cls-1" x1="299.96" y1="234.75" x2="299.79" y2="234.59"/><line class="cls-1" x1="299.79" y1="234.59" x2="299.54" y2="234.5"/><line class="cls-1" x1="299.54" y1="234.5" x2="299.37" y2="234.25"/><line class="cls-1" x1="299.37" y1="234.25" x2="299.29" y2="234.08"/><line class="cls-1" x1="299.29" y1="234.08" x2="299.29" y2="233.83"/><line class="cls-1" x1="299.29" y1="233.83" x2="299.29" y2="233.58"/><line class="cls-1" x1="299.29" y1="233.58" x2="299.37" y2="233.33"/><line class="cls-1" x1="299.37" y1="233.33" x2="303.91" y2="225.01"/><line class="cls-1" x1="303.91" y1="225.01" x2="303.99" y2="224.93"/><line class="cls-1" x1="303.99" y1="224.93" x2="304.08" y2="224.76"/><line class="cls-1" x1="304.08" y1="224.76" x2="304.33" y2="224.59"/><line class="cls-1" x1="304.33" y1="224.59" x2="304.58" y2="224.42"/><line class="cls-1" x1="304.58" y1="224.42" x2="304.83" y2="224.34"/><line class="cls-1" x1="304.83" y1="224.34" x2="314.66" y2="224.42"/><line class="cls-1" x1="314.66" y1="224.42" x2="314.91" y2="224.42"/><line class="cls-1" x1="314.91" y1="224.42" x2="315.17" y2="224.59"/><line class="cls-1" x1="315.17" y1="224.59" x2="315.42" y2="224.76"/><line class="cls-1" x1="315.42" y1="224.76" x2="315.59" y2="225.01"/><line class="cls-1" x1="315.59" y1="225.01" x2="320.29" y2="233.33"/><line class="cls-1" x1="320.29" y1="233.33" x2="320.37" y2="233.58"/><line class="cls-1" x1="320.37" y1="233.58" x2="320.46" y2="233.83"/><line class="cls-1" x1="320.46" y1="233.83" x2="320.37" y2="234.08"/><line class="cls-1" x1="320.37" y1="234.08" x2="320.37" y2="234.25"/><line class="cls-1" x1="320.37" y1="234.25" x2="320.29" y2="234.25"/><line class="cls-1" x1="320.29" y1="234.25" x2="320.12" y2="234.5"/><line class="cls-1" x1="320.12" y1="234.5" x2="319.95" y2="234.67"/><line class="cls-1" x1="319.95" y1="234.67" x2="319.7" y2="234.75"/><line class="cls-1" x1="319.7" y1="234.75" x2="319.45" y2="234.75"/><line class="cls-1" x1="319.45" y1="234.75" x2="318.44" y2="234.75"/><line class="cls-1" x1="318.44" y1="234.75" x2="318.19" y2="234.84"/><line class="cls-1" x1="318.19" y1="234.84" x2="317.85" y2="234.92"/><line class="cls-1" x1="317.85" y1="234.92" x2="317.6" y2="235.09"/><line class="cls-1" x1="317.6" y1="235.09" x2="317.43" y2="235.34"/><line class="cls-1" x1="317.43" y1="235.34" x2="317.35" y2="235.43"/><line class="cls-1" x1="317.35" y1="235.43" x2="317.27" y2="235.68"/><line class="cls-1" x1="317.27" y1="235.68" x2="317.27" y2="235.93"/><line class="cls-1" x1="317.27" y1="235.93" x2="317.27" y2="236.27"/><line class="cls-1" x1="317.27" y1="236.27" x2="317.43" y2="236.6"/><line class="cls-1" x1="317.43" y1="236.6" x2="324.99" y2="249.79"/><line class="cls-1" x1="324.99" y1="249.79" x2="325.33" y2="250.29"/><line class="cls-1" x1="325.33" y1="250.29" x2="325.75" y2="250.71"/><line class="cls-1" x1="325.75" y1="250.71" x2="326.34" y2="251.05"/><line class="cls-1" x1="326.34" y1="251.05" x2="326.93" y2="251.22"/><line class="cls-1" x1="326.93" y1="251.22" x2="327.51" y2="251.3"/><line class="cls-1" x1="327.51" y1="251.3" x2="350.78" y2="251.3"/><line class="cls-1" x1="350.78" y1="251.3" x2="353.64" y2="249.71"/><line class="cls-1" x1="353.64" y1="249.71" x2="366.32" y2="249.71"/><line class="cls-1" x1="366.32" y1="249.71" x2="369.18" y2="251.3"/><line class="cls-1" x1="369.18" y1="251.3" x2="401.01" y2="251.3"/><line class="cls-1" x1="401.01" y1="251.3" x2="403.79" y2="249.71"/><line class="cls-1" x1="403.79" y1="249.71" x2="416.55" y2="249.71"/><line class="cls-1" x1="416.55" y1="249.71" x2="419.33" y2="251.3"/><line class="cls-1" x1="419.33" y1="251.3" x2="442.68" y2="251.3"/><line class="cls-1" x1="442.68" y1="251.3" x2="443.27" y2="251.3"/><line class="cls-1" x1="443.27" y1="251.3" x2="443.85" y2="251.05"/><line class="cls-1" x1="443.85" y1="251.05" x2="444.36" y2="250.8"/><line class="cls-1" x1="444.36" y1="250.8" x2="444.86" y2="250.38"/><line class="cls-1" x1="444.86" y1="250.38" x2="445.2" y2="249.87"/><line class="cls-1" x1="445.2" y1="249.87" x2="452.76" y2="236.69"/><line class="cls-1" x1="452.76" y1="236.69" x2="452.84" y2="236.35"/><line class="cls-1" x1="452.84" y1="236.35" x2="452.93" y2="236.01"/><line class="cls-1" x1="452.93" y1="236.01" x2="452.84" y2="235.76"/><line class="cls-1" x1="452.84" y1="235.76" x2="452.84" y2="235.59"/><line class="cls-1" x1="452.84" y1="235.59" x2="452.76" y2="235.43"/><line class="cls-1" x1="452.76" y1="235.43" x2="452.51" y2="235.17"/><line class="cls-1" x1="452.51" y1="235.17" x2="452.25" y2="235.01"/><line class="cls-1" x1="452.25" y1="235.01" x2="452" y2="234.84"/><line class="cls-1" x1="452" y1="234.84" x2="451.67" y2="234.84"/><line class="cls-1" x1="451.67" y1="234.84" x2="450.66" y2="234.84"/><line class="cls-1" x1="450.66" y1="234.84" x2="450.41" y2="234.84"/><line class="cls-1" x1="450.41" y1="234.84" x2="450.24" y2="234.67"/><line class="cls-1" x1="450.24" y1="234.67" x2="449.99" y2="234.59"/><line class="cls-1" x1="449.99" y1="234.59" x2="449.82" y2="234.33"/><line class="cls-1" x1="449.82" y1="234.33" x2="449.82" y2="234.25"/><line class="cls-1" x1="449.82" y1="234.25" x2="449.73" y2="234.17"/><line class="cls-1" x1="449.73" y1="234.17" x2="449.73" y2="233.91"/><line class="cls-1" x1="449.73" y1="233.91" x2="449.73" y2="233.66"/><line class="cls-1" x1="449.73" y1="233.66" x2="449.82" y2="233.41"/><line class="cls-1" x1="449.82" y1="233.41" x2="454.61" y2="225.09"/><line class="cls-1" x1="454.61" y1="225.09" x2="454.77" y2="224.84"/><line class="cls-1" x1="454.77" y1="224.84" x2="454.94" y2="224.67"/><line class="cls-1" x1="454.94" y1="224.67" x2="455.19" y2="224.51"/><line class="cls-1" x1="455.19" y1="224.51" x2="455.45" y2="224.42"/><line class="cls-1" x1="455.45" y1="224.42" x2="465.36" y2="224.42"/><line class="cls-1" x1="465.36" y1="224.42" x2="465.61" y2="224.51"/><line class="cls-1" x1="465.61" y1="224.51" x2="465.86" y2="224.67"/><line class="cls-1" x1="465.86" y1="224.67" x2="466.03" y2="224.84"/><line class="cls-1" x1="466.03" y1="224.84" x2="466.2" y2="225.09"/><line class="cls-1" x1="466.2" y1="225.09" x2="466.2" y2="225.09"/><line class="cls-1" x1="466.2" y1="225.09" x2="470.82" y2="233.41"/><line class="cls-1" x1="470.82" y1="233.41" x2="470.9" y2="233.66"/><line class="cls-1" x1="470.9" y1="233.66" x2="470.9" y2="233.91"/><line class="cls-1" x1="470.9" y1="233.91" x2="470.9" y2="234.17"/><line class="cls-1" x1="470.9" y1="234.17" x2="470.73" y2="234.33"/><line class="cls-1" x1="470.73" y1="234.33" x2="470.65" y2="234.59"/><line class="cls-1" x1="470.65" y1="234.59" x2="470.4" y2="234.75"/><line class="cls-1" x1="470.4" y1="234.75" x2="470.15" y2="234.84"/><line class="cls-1" x1="470.15" y1="234.84" x2="469.89" y2="234.84"/><line class="cls-1" x1="469.89" y1="234.84" x2="468.97" y2="234.84"/><line class="cls-1" x1="468.97" y1="234.84" x2="468.63" y2="234.92"/><line class="cls-1" x1="468.63" y1="234.92" x2="468.3" y2="235.01"/><line class="cls-1" x1="468.3" y1="235.01" x2="468.05" y2="235.17"/><line class="cls-1" x1="468.05" y1="235.17" x2="467.88" y2="235.43"/><line class="cls-1" x1="467.88" y1="235.43" x2="467.71" y2="235.76"/><line class="cls-1" x1="467.71" y1="235.76" x2="467.63" y2="236.01"/><line class="cls-1" x1="467.63" y1="236.01" x2="467.71" y2="236.35"/><line class="cls-1" x1="467.71" y1="236.35" x2="467.79" y2="236.6"/><line class="cls-1" x1="467.79" y1="236.6" x2="467.79" y2="236.69"/><line class="cls-1" x1="467.79" y1="236.69" x2="475.1" y2="249.87"/><line class="cls-1" x1="475.1" y1="249.87" x2="475.44" y2="250.38"/><line class="cls-1" x1="475.44" y1="250.38" x2="475.86" y2="250.8"/><line class="cls-1" x1="475.86" y1="250.8" x2="476.45" y2="251.13"/><line class="cls-1" x1="476.45" y1="251.13" x2="477.03" y2="251.3"/><line class="cls-1" x1="477.03" y1="251.3" x2="477.62" y2="251.39"/><line class="cls-1" x1="477.62" y1="251.39" x2="500.97" y2="251.39"/><line class="cls-1" x1="500.97" y1="251.39" x2="503.83" y2="249.79"/><line class="cls-1" x1="503.83" y1="249.79" x2="516.51" y2="249.79"/><line class="cls-1" x1="516.51" y1="249.79" x2="519.29" y2="251.39"/><line class="cls-1" x1="519.29" y1="251.39" x2="551.21" y2="251.39"/><line class="cls-1" x1="551.21" y1="251.39" x2="554.06" y2="249.79"/><line class="cls-1" x1="554.06" y1="249.79" x2="566.75" y2="249.79"/><line class="cls-1" x1="566.75" y1="249.79" x2="569.52" y2="251.39"/><line class="cls-1" x1="569.52" y1="251.39" x2="592.95" y2="251.39"/><line class="cls-1" x1="592.95" y1="251.39" x2="593.54" y2="251.39"/><line class="cls-1" x1="593.54" y1="251.39" x2="594.13" y2="251.13"/><line class="cls-1" x1="594.13" y1="251.13" x2="594.63" y2="250.88"/><line class="cls-1" x1="594.63" y1="250.88" x2="595.14" y2="250.46"/><line class="cls-1" x1="595.14" y1="250.46" x2="595.47" y2="249.96"/><line class="cls-1" x1="595.47" y1="249.96" x2="603.29" y2="236.77"/><line class="cls-1" x1="603.29" y1="236.77" x2="603.45" y2="236.43"/><line class="cls-1" x1="603.45" y1="236.43" x2="603.45" y2="236.1"/><line class="cls-1" x1="603.45" y1="236.1" x2="603.45" y2="235.85"/><line class="cls-1" x1="603.45" y1="235.85" x2="603.37" y2="235.51"/><line class="cls-1" x1="603.37" y1="235.51" x2="603.12" y2="235.26"/><line class="cls-1" x1="603.12" y1="235.26" x2="602.95" y2="235.17"/><line class="cls-1" x1="602.95" y1="235.17" x2="602.87" y2="235.09"/><line class="cls-1" x1="602.87" y1="235.09" x2="602.61" y2="234.92"/><line class="cls-1" x1="602.61" y1="234.92" x2="602.28" y2="234.92"/><line class="cls-1" x1="602.28" y1="234.92" x2="601.27" y2="234.92"/><line class="cls-1" x1="601.27" y1="234.92" x2="601.02" y2="234.92"/><line class="cls-1" x1="601.02" y1="234.92" x2="600.77" y2="234.75"/><line class="cls-1" x1="600.77" y1="234.75" x2="600.77" y2="234.75"/><line class="cls-1" x1="600.77" y1="234.75" x2="600.6" y2="234.67"/><line class="cls-1" x1="600.6" y1="234.67" x2="600.43" y2="234.42"/><line class="cls-1" x1="600.43" y1="234.42" x2="600.35" y2="234.25"/><line class="cls-1" x1="600.35" y1="234.25" x2="600.35" y2="234"/><line class="cls-1" x1="600.35" y1="234" x2="600.35" y2="233.75"/><line class="cls-1" x1="600.35" y1="233.75" x2="600.43" y2="233.49"/><line class="cls-1" x1="600.43" y1="233.49" x2="605.05" y2="225.77"/><line class="cls-1" x1="605.05" y1="225.77" x2="605.22" y2="225.51"/><line class="cls-1" x1="605.22" y1="225.51" x2="605.39" y2="225.43"/><line class="cls-1" x1="605.39" y1="225.43" x2="605.55" y2="225.26"/><line class="cls-1" x1="605.55" y1="225.26" x2="605.81" y2="225.26"/><line class="cls-1" x1="605.81" y1="225.26" x2="606.06" y2="225.26"/><line class="cls-1" x1="606.06" y1="225.26" x2="606.31" y2="225.26"/><line class="cls-1" x1="606.31" y1="225.26" x2="606.48" y2="225.35"/><line class="cls-1" x1="606.48" y1="225.35" x2="606.48" y2="225.43"/><line class="cls-1" x1="606.48" y1="225.43" x2="606.65" y2="225.6"/><line class="cls-1" x1="606.65" y1="225.6" x2="606.81" y2="225.77"/><line class="cls-1" x1="606.81" y1="225.77" x2="606.9" y2="225.93"/><line class="cls-1" x1="606.9" y1="225.93" x2="606.9" y2="226.19"/><line class="cls-1" x1="606.9" y1="226.19" x2="606.81" y2="228.03"/><line class="cls-1" x1="606.81" y1="228.03" x2="607.32" y2="228.03"/><line class="cls-1" x1="607.32" y1="228.03" x2="607.4" y2="226.19"/><line class="cls-1" x1="607.4" y1="226.19" x2="607.4" y2="225.85"/><line class="cls-1" x1="607.4" y1="225.85" x2="607.23" y2="225.51"/><line class="cls-1" x1="607.23" y1="225.51" x2="607.07" y2="225.26"/><line class="cls-1" x1="607.07" y1="225.26" x2="606.81" y2="225.01"/><line class="cls-1" x1="606.81" y1="225.01" x2="606.73" y2="224.93"/><line class="cls-1" x1="606.73" y1="224.93" x2="606.48" y2="224.84"/><line class="cls-1" x1="606.48" y1="224.84" x2="606.14" y2="224.76"/><line class="cls-1" x1="606.14" y1="224.76" x2="605.81" y2="224.76"/><line class="cls-1" x1="605.81" y1="224.76" x2="605.47" y2="224.84"/><line class="cls-1" x1="605.47" y1="224.84" x2="605.13" y2="225.01"/><line class="cls-1" x1="605.13" y1="225.01" x2="604.8" y2="225.18"/><line class="cls-1" x1="604.8" y1="225.18" x2="604.63" y2="225.51"/><line class="cls-1" x1="604.63" y1="225.51" x2="600.01" y2="233.24"/><line class="cls-1" x1="600.01" y1="233.24" x2="599.84" y2="233.58"/><line class="cls-1" x1="599.84" y1="233.58" x2="599.84" y2="234"/><line class="cls-1" x1="599.84" y1="234" x2="599.84" y2="234.33"/><line class="cls-1" x1="599.84" y1="234.33" x2="600.01" y2="234.67"/><line class="cls-1" x1="600.01" y1="234.67" x2="600.26" y2="235.01"/><line class="cls-1" x1="600.26" y1="235.01" x2="600.43" y2="235.17"/><line class="cls-1" x1="600.43" y1="235.17" x2="600.51" y2="235.26"/><line class="cls-1" x1="600.51" y1="235.26" x2="600.93" y2="235.34"/><line class="cls-1" x1="600.93" y1="235.34" x2="601.27" y2="235.43"/><line class="cls-1" x1="601.27" y1="235.43" x2="602.28" y2="235.43"/><line class="cls-1" x1="602.28" y1="235.43" x2="602.45" y2="235.43"/><line class="cls-1" x1="602.45" y1="235.43" x2="602.61" y2="235.51"/><line class="cls-1" x1="602.61" y1="235.51" x2="602.7" y2="235.51"/><line class="cls-1" x1="602.7" y1="235.51" x2="602.78" y2="235.59"/><line class="cls-1" x1="602.78" y1="235.59" x2="602.87" y2="235.76"/><line class="cls-1" x1="602.87" y1="235.76" x2="602.95" y2="235.93"/><line class="cls-1" x1="602.95" y1="235.93" x2="602.95" y2="236.1"/><line class="cls-1" x1="602.95" y1="236.1" x2="602.95" y2="236.35"/><line class="cls-1" x1="602.95" y1="236.35" x2="602.87" y2="236.52"/><line class="cls-1" x1="602.87" y1="236.52" x2="595.05" y2="249.71"/><line class="cls-1" x1="595.05" y1="249.71" x2="594.72" y2="250.13"/><line class="cls-1" x1="594.72" y1="250.13" x2="594.38" y2="250.46"/><line class="cls-1" x1="594.38" y1="250.46" x2="593.88" y2="250.71"/><line class="cls-1" x1="593.88" y1="250.71" x2="593.46" y2="250.88"/><line class="cls-1" x1="593.46" y1="250.88" x2="592.95" y2="250.88"/><line class="cls-1" x1="592.95" y1="250.88" x2="569.69" y2="250.88"/><line class="cls-1" x1="569.69" y1="250.88" x2="566.91" y2="249.29"/><line class="cls-1" x1="566.91" y1="249.29" x2="553.89" y2="249.29"/><line class="cls-1" x1="553.89" y1="249.29" x2="551.04" y2="250.88"/><line class="cls-1" x1="551.04" y1="250.88" x2="519.45" y2="250.88"/><line class="cls-1" x1="519.45" y1="250.88" x2="516.68" y2="249.29"/><line class="cls-1" x1="516.68" y1="249.29" x2="503.66" y2="249.29"/><line class="cls-1" x1="503.66" y1="249.29" x2="500.81" y2="250.88"/><line class="cls-1" x1="500.81" y1="250.88" x2="477.62" y2="250.88"/><line class="cls-1" x1="477.62" y1="250.88" x2="477.12" y2="250.8"/><line class="cls-1" x1="477.12" y1="250.8" x2="476.61" y2="250.63"/><line class="cls-1" x1="476.61" y1="250.63" x2="476.19" y2="250.38"/><line class="cls-1" x1="476.19" y1="250.38" x2="475.86" y2="250.04"/><line class="cls-1" x1="475.86" y1="250.04" x2="475.52" y2="249.62"/><line class="cls-1" x1="475.52" y1="249.62" x2="468.3" y2="236.43"/><line class="cls-1" x1="468.3" y1="236.43" x2="468.3" y2="236.43"/><line class="cls-1" x1="468.3" y1="236.43" x2="468.21" y2="236.27"/><line class="cls-1" x1="468.21" y1="236.27" x2="468.21" y2="236.1"/><line class="cls-1" x1="468.21" y1="236.1" x2="468.21" y2="235.85"/><line class="cls-1" x1="468.21" y1="235.85" x2="468.3" y2="235.68"/><line class="cls-1" x1="468.3" y1="235.68" x2="468.38" y2="235.59"/><line class="cls-1" x1="468.38" y1="235.59" x2="468.55" y2="235.43"/><line class="cls-1" x1="468.55" y1="235.43" x2="468.72" y2="235.34"/><line class="cls-1" x1="468.72" y1="235.34" x2="468.89" y2="235.34"/><line class="cls-1" x1="468.89" y1="235.34" x2="469.89" y2="235.34"/><line class="cls-1" x1="469.89" y1="235.34" x2="470.31" y2="235.34"/><line class="cls-1" x1="470.31" y1="235.34" x2="470.65" y2="235.17"/><line class="cls-1" x1="470.65" y1="235.17" x2="470.99" y2="234.92"/><line class="cls-1" x1="470.99" y1="234.92" x2="471.24" y2="234.59"/><line class="cls-1" x1="471.24" y1="234.59" x2="471.41" y2="234.25"/><line class="cls-1" x1="471.41" y1="234.25" x2="471.41" y2="233.91"/><line class="cls-1" x1="471.41" y1="233.91" x2="471.41" y2="233.49"/><line class="cls-1" x1="471.41" y1="233.49" x2="471.24" y2="233.16"/><line class="cls-1" x1="471.24" y1="233.16" x2="466.7" y2="224.84"/><line class="cls-1" x1="466.7" y1="224.84" x2="466.7" y2="224.84"/><line class="cls-1" x1="466.7" y1="224.84" x2="466.45" y2="224.51"/><line class="cls-1" x1="466.45" y1="224.51" x2="466.11" y2="224.25"/><line class="cls-1" x1="466.11" y1="224.25" x2="465.78" y2="224.09"/><line class="cls-1" x1="465.78" y1="224.09" x2="465.36" y2="223.92"/><line class="cls-1" x1="465.36" y1="223.92" x2="455.45" y2="223.92"/><line class="cls-1" x1="455.45" y1="223.92" x2="455.03" y2="224.09"/><line class="cls-1" x1="455.03" y1="224.09" x2="454.69" y2="224.25"/><line class="cls-1" x1="454.69" y1="224.25" x2="454.35" y2="224.51"/><line class="cls-1" x1="454.35" y1="224.51" x2="454.1" y2="224.84"/><line class="cls-1" x1="454.1" y1="224.84" x2="449.4" y2="233.16"/><line class="cls-1" x1="449.4" y1="233.16" x2="449.23" y2="233.49"/><line class="cls-1" x1="449.23" y1="233.49" x2="449.23" y2="233.91"/><line class="cls-1" x1="449.23" y1="233.91" x2="449.23" y2="234.25"/><line class="cls-1" x1="449.23" y1="234.25" x2="449.31" y2="234.42"/><line class="cls-1" x1="449.31" y1="234.42" x2="449.4" y2="234.59"/><line class="cls-1" x1="449.4" y1="234.59" x2="449.65" y2="234.92"/><line class="cls-1" x1="449.65" y1="234.92" x2="449.9" y2="235.17"/><line class="cls-1" x1="449.9" y1="235.17" x2="450.32" y2="235.26"/><line class="cls-1" x1="450.32" y1="235.26" x2="450.66" y2="235.34"/><line class="cls-1" x1="450.66" y1="235.34" x2="451.67" y2="235.34"/><line class="cls-1" x1="451.67" y1="235.34" x2="451.83" y2="235.34"/><line class="cls-1" x1="451.83" y1="235.34" x2="452" y2="235.43"/><line class="cls-1" x1="452" y1="235.43" x2="452.17" y2="235.51"/><line class="cls-1" x1="452.17" y1="235.51" x2="452.25" y2="235.68"/><line class="cls-1" x1="452.25" y1="235.68" x2="452.34" y2="235.76"/><line class="cls-1" x1="452.34" y1="235.76" x2="452.34" y2="235.85"/><line class="cls-1" x1="452.34" y1="235.85" x2="452.42" y2="236.01"/><line class="cls-1" x1="452.42" y1="236.01" x2="452.34" y2="236.27"/><line class="cls-1" x1="452.34" y1="236.27" x2="452.34" y2="236.43"/><line class="cls-1" x1="452.34" y1="236.43" x2="444.78" y2="249.62"/><line class="cls-1" x1="444.78" y1="249.62" x2="444.44" y2="250.04"/><line class="cls-1" x1="444.44" y1="250.04" x2="444.11" y2="250.38"/><line class="cls-1" x1="444.11" y1="250.38" x2="443.69" y2="250.63"/><line class="cls-1" x1="443.69" y1="250.63" x2="443.18" y2="250.8"/><line class="cls-1" x1="443.18" y1="250.8" x2="442.68" y2="250.8"/><line class="cls-1" x1="442.68" y1="250.8" x2="419.49" y2="250.8"/><line class="cls-1" x1="419.49" y1="250.8" x2="416.64" y2="249.2"/><line class="cls-1" x1="416.64" y1="249.2" x2="403.7" y2="249.2"/><line class="cls-1" x1="403.7" y1="249.2" x2="400.85" y2="250.8"/><line class="cls-1" x1="400.85" y1="250.8" x2="369.26" y2="250.8"/><line class="cls-1" x1="369.26" y1="250.8" x2="366.49" y2="249.2"/><line class="cls-1" x1="366.49" y1="249.2" x2="353.47" y2="249.2"/><line class="cls-1" x1="353.47" y1="249.2" x2="350.7" y2="250.8"/><line class="cls-1" x1="350.7" y1="250.8" x2="327.51" y2="250.8"/><line class="cls-1" x1="327.51" y1="250.8" x2="327.01" y2="250.71"/><line class="cls-1" x1="327.01" y1="250.71" x2="326.51" y2="250.55"/><line class="cls-1" x1="326.51" y1="250.55" x2="326.09" y2="250.29"/><line class="cls-1" x1="326.09" y1="250.29" x2="325.67" y2="249.96"/><line class="cls-1" x1="325.67" y1="249.96" x2="325.41" y2="249.54"/><line class="cls-1" x1="325.41" y1="249.54" x2="317.85" y2="236.35"/><line class="cls-1" x1="317.85" y1="236.35" x2="317.77" y2="236.18"/><line class="cls-1" x1="317.77" y1="236.18" x2="317.77" y2="236.01"/><line class="cls-1" x1="317.77" y1="236.01" x2="317.77" y2="235.76"/><line class="cls-1" x1="317.77" y1="235.76" x2="317.85" y2="235.68"/><line class="cls-1" x1="317.85" y1="235.68" x2="317.85" y2="235.59"/><line class="cls-1" x1="317.85" y1="235.59" x2="317.94" y2="235.51"/><line class="cls-1" x1="317.94" y1="235.51" x2="318.11" y2="235.34"/><line class="cls-1" x1="318.11" y1="235.34" x2="318.27" y2="235.26"/><line class="cls-1" x1="318.27" y1="235.26" x2="318.44" y2="235.26"/><line class="cls-1" x1="318.44" y1="235.26" x2="319.45" y2="235.26"/><line class="cls-1" x1="319.45" y1="235.26" x2="319.87" y2="235.26"/><line class="cls-1" x1="319.87" y1="235.26" x2="320.21" y2="235.09"/><line class="cls-1" x1="320.21" y1="235.09" x2="320.54" y2="234.84"/><line class="cls-1" x1="320.54" y1="234.84" x2="320.71" y2="234.5"/><line class="cls-1" x1="320.71" y1="234.5" x2="320.79" y2="234.42"/><line class="cls-1" x1="320.79" y1="234.42" x2="320.88" y2="234.17"/><line class="cls-1" x1="320.88" y1="234.17" x2="320.96" y2="233.83"/><line class="cls-1" x1="320.96" y1="233.83" x2="320.88" y2="233.41"/><line class="cls-1" x1="320.88" y1="233.41" x2="320.79" y2="233.07"/><line class="cls-1" x1="320.79" y1="233.07" x2="316.01" y2="224.76"/><line class="cls-1" x1="316.01" y1="224.76" x2="315.75" y2="224.42"/><line class="cls-1" x1="315.75" y1="224.42" x2="315.42" y2="224.17"/><line class="cls-1" x1="315.42" y1="224.17" x2="315.08" y2="224"/><line class="cls-1" x1="315.08" y1="224" x2="314.66" y2="223.83"/><line class="cls-1" x1="314.66" y1="223.83" x2="304.75" y2="223.83"/><line class="cls-1" x1="304.75" y1="223.83" x2="304.41" y2="224"/><line class="cls-1" x1="304.41" y1="224" x2="303.99" y2="224.17"/><line class="cls-1" x1="303.99" y1="224.17" x2="303.74" y2="224.42"/><line class="cls-1" x1="303.74" y1="224.42" x2="303.57" y2="224.67"/><line class="cls-1" x1="303.57" y1="224.67" x2="303.49" y2="224.76"/><line class="cls-1" x1="303.49" y1="224.76" x2="298.95" y2="233.07"/><line class="cls-1" x1="298.95" y1="233.07" x2="298.79" y2="233.41"/><line class="cls-1" x1="298.79" y1="233.41" x2="298.7" y2="233.83"/><line class="cls-1" x1="298.7" y1="233.83" x2="298.79" y2="234.17"/><line class="cls-1" x1="298.79" y1="234.17" x2="298.95" y2="234.5"/><line class="cls-1" x1="298.95" y1="234.5" x2="299.21" y2="234.84"/><line class="cls-1" x1="299.21" y1="234.84" x2="299.54" y2="235.09"/><line class="cls-1" x1="299.54" y1="235.09" x2="299.88" y2="235.17"/><line class="cls-1" x1="299.88" y1="235.17" x2="300.3" y2="235.26"/><line class="cls-1" x1="300.3" y1="235.26" x2="301.22" y2="235.26"/><line class="cls-1" x1="301.22" y1="235.26" x2="301.39" y2="235.26"/><line class="cls-1" x1="301.39" y1="235.26" x2="301.64" y2="235.34"/><line class="cls-1" x1="301.64" y1="235.34" x2="301.73" y2="235.43"/><line class="cls-1" x1="301.73" y1="235.43" x2="301.89" y2="235.59"/><line class="cls-1" x1="301.89" y1="235.59" x2="301.98" y2="235.76"/><line class="cls-1" x1="301.98" y1="235.76" x2="301.98" y2="235.93"/><line class="cls-1" x1="301.98" y1="235.93" x2="301.98" y2="236.18"/><line class="cls-1" x1="301.98" y1="236.18" x2="301.89" y2="236.35"/><line class="cls-1" x1="301.89" y1="236.35" x2="294.67" y2="249.54"/><line class="cls-1" x1="294.67" y1="249.54" x2="294.59" y2="249.62"/><line class="cls-1" x1="294.59" y1="249.62" x2="294.33" y2="249.96"/><line class="cls-1" x1="294.33" y1="249.96" x2="294" y2="250.29"/><line class="cls-1" x1="294" y1="250.29" x2="293.58" y2="250.55"/><line class="cls-1" x1="293.58" y1="250.55" x2="293.07" y2="250.71"/><line class="cls-1" x1="293.07" y1="250.71" x2="292.57" y2="250.71"/><line class="cls-1" x1="292.57" y1="250.71" x2="269.39" y2="250.71"/><line class="cls-1" x1="269.39" y1="250.71" x2="266.61" y2="249.12"/><line class="cls-1" x1="266.61" y1="249.12" x2="253.59" y2="249.12"/><line class="cls-1" x1="253.59" y1="249.12" x2="250.82" y2="250.71"/><line class="cls-1" x1="250.82" y1="250.71" x2="219.24" y2="250.71"/><line class="cls-1" x1="219.24" y1="250.71" x2="216.47" y2="249.12"/><line class="cls-1" x1="216.47" y1="249.12" x2="203.45" y2="249.12"/><line class="cls-1" x1="203.45" y1="249.12" x2="200.67" y2="250.71"/><line class="cls-1" x1="200.67" y1="250.71" x2="177.57" y2="250.63"/><line class="cls-1" x1="177.57" y1="250.63" x2="177.07" y2="250.63"/><line class="cls-1" x1="177.07" y1="250.63" x2="176.57" y2="250.46"/><line class="cls-1" x1="176.57" y1="250.46" x2="176.15" y2="250.21"/><line class="cls-1" x1="176.15" y1="250.21" x2="175.73" y2="249.87"/><line class="cls-1" x1="175.73" y1="249.87" x2="175.47" y2="249.45"/><line class="cls-1" x1="175.47" y1="249.45" x2="167.66" y2="236.27"/><line class="cls-1" x1="167.66" y1="236.27" x2="167.58" y2="236.1"/><line class="cls-1" x1="167.58" y1="236.1" x2="167.49" y2="235.93"/><line class="cls-1" x1="167.49" y1="235.93" x2="167.58" y2="235.76"/><line class="cls-1" x1="167.58" y1="235.76" x2="167.58" y2="235.51"/><line class="cls-1" x1="167.58" y1="235.51" x2="167.75" y2="235.43"/><line class="cls-1" x1="167.75" y1="235.43" x2="167.83" y2="235.34"/><line class="cls-1" x1="167.83" y1="235.34" x2="167.91" y2="235.26"/><line class="cls-1" x1="167.91" y1="235.26" x2="168.08" y2="235.17"/><line class="cls-1" x1="168.08" y1="235.17" x2="168.25" y2="235.17"/><line class="cls-1" x1="168.25" y1="235.17" x2="169.26" y2="235.17"/><line class="cls-1" x1="169.26" y1="235.17" x2="169.59" y2="235.17"/><line class="cls-1" x1="169.59" y1="235.17" x2="169.93" y2="235.01"/><line class="cls-1" x1="169.93" y1="235.01" x2="170.01" y2="234.92"/><line class="cls-1" x1="170.01" y1="234.92" x2="170.27" y2="234.75"/><line class="cls-1" x1="170.27" y1="234.75" x2="170.52" y2="234.5"/><line class="cls-1" x1="170.52" y1="234.5" x2="170.6" y2="234.17"/><line class="cls-1" x1="170.6" y1="234.17" x2="170.69" y2="233.75"/><line class="cls-1" x1="170.69" y1="233.75" x2="170.6" y2="233.41"/><line class="cls-1" x1="170.6" y1="233.41" x2="170.43" y2="233.07"/><line class="cls-1" x1="170.43" y1="233.07" x2="165.48" y2="224.67"/><line class="cls-1" x1="165.48" y1="224.67" x2="165.31" y2="224.34"/><line class="cls-1" x1="165.31" y1="224.34" x2="164.97" y2="224.09"/><line class="cls-1" x1="164.97" y1="224.09" x2="164.55" y2="223.92"/><line class="cls-1" x1="164.55" y1="223.92" x2="164.13" y2="223.83"/><line class="cls-1" x1="164.13" y1="223.83" x2="153.97" y2="223.75"/><line class="cls-1" x1="153.97" y1="223.75" x2="153.55" y2="223.92"/><line class="cls-1" x1="153.55" y1="223.92" x2="153.3" y2="224"/><line class="cls-1" x1="153.3" y1="224" x2="153.21" y2="224.09"/><line class="cls-1" x1="153.21" y1="224.09" x2="152.88" y2="224.34"/><line class="cls-1" x1="152.88" y1="224.34" x2="152.71" y2="224.67"/><line class="cls-1" x1="152.71" y1="224.67" x2="148.09" y2="233.41"/><line class="cls-1" x1="148.09" y1="233.41" x2="147.92" y2="233.75"/><line class="cls-1" x1="147.92" y1="233.75" x2="147.92" y2="234.08"/><line class="cls-1" x1="147.92" y1="234.08" x2="147.92" y2="234.42"/><line class="cls-1" x1="147.92" y1="234.42" x2="148.09" y2="234.75"/><line class="cls-1" x1="148.09" y1="234.75" x2="148.26" y2="235.09"/><line class="cls-1" x1="148.26" y1="235.09" x2="148.51" y2="235.26"/><line class="cls-1" x1="148.51" y1="235.26" x2="148.85" y2="235.43"/><line class="cls-1" x1="148.85" y1="235.43" x2="149.18" y2="235.59"/><line class="cls-1" x1="149.18" y1="235.59" x2="149.52" y2="235.59"/><line class="cls-1" x1="149.52" y1="235.59" x2="150.86" y2="235.51"/><line class="cls-1" x1="150.86" y1="235.51" x2="150.95" y2="235.51"/><line class="cls-1" x1="150.95" y1="235.51" x2="151.11" y2="235.59"/><line class="cls-1" x1="151.11" y1="235.59" x2="151.2" y2="235.59"/><line class="cls-1" x1="151.2" y1="235.59" x2="151.28" y2="235.68"/><line class="cls-1" x1="151.28" y1="235.68" x2="151.28" y2="235.76"/><line class="cls-1" x1="151.28" y1="235.76" x2="151.37" y2="235.85"/><line class="cls-1" x1="151.37" y1="235.85" x2="151.37" y2="236.01"/><line class="cls-1" x1="151.37" y1="236.01" x2="151.37" y2="236.1"/><line class="cls-1" x1="151.37" y1="236.1" x2="151.28" y2="236.18"/><line class="cls-1" x1="151.28" y1="236.18" x2="150.27" y2="238.11"/><line class="cls-1" x1="150.27" y1="238.11" x2="150.78" y2="238.37"/><line class="cls-1" x1="150.78" y1="238.37" x2="151.79" y2="236.43"/><line class="cls-1" x1="151.79" y1="236.43" x2="151.87" y2="236.27"/><line class="cls-1" x1="151.87" y1="236.27" x2="151.87" y2="236.01"/><line class="cls-1" x1="151.87" y1="236.01" x2="151.87" y2="235.76"/><line class="cls-1" x1="151.87" y1="235.76" x2="151.79" y2="235.59"/><line class="cls-1" x1="151.79" y1="235.59" x2="151.62" y2="235.34"/><line class="cls-1" x1="151.62" y1="235.34" x2="151.45" y2="235.26"/><line class="cls-1" x1="151.45" y1="235.26" x2="151.28" y2="235.09"/><line class="cls-1" x1="151.28" y1="235.09" x2="151.03" y2="235.01"/><line class="cls-1" x1="151.03" y1="235.01" x2="150.86" y2="235.01"/><line class="cls-1" x1="150.86" y1="235.01" x2="149.43" y2="235.09"/><line class="cls-1" x1="149.43" y1="235.09" x2="149.27" y2="235.09"/><line class="cls-1" x1="149.27" y1="235.09" x2="149.01" y2="235.01"/><line class="cls-1" x1="149.01" y1="235.01" x2="148.85" y2="234.92"/><line class="cls-1" x1="148.85" y1="234.92" x2="148.68" y2="234.75"/><line class="cls-1" x1="148.68" y1="234.75" x2="148.51" y2="234.59"/><line class="cls-1" x1="148.51" y1="234.59" x2="148.43" y2="234.33"/><line class="cls-1" x1="148.43" y1="234.33" x2="148.43" y2="234.08"/><line class="cls-1" x1="148.43" y1="234.08" x2="148.43" y2="233.91"/><line class="cls-1" x1="148.43" y1="233.91" x2="148.51" y2="233.66"/><line class="cls-1" x1="292.57" y1="145.55" x2="292.65" y2="145.55"/><line class="cls-1" x1="292.65" y1="145.55" x2="292.74" y2="145.46"/><line class="cls-1" x1="292.74" y1="145.46" x2="292.91" y2="145.46"/><line class="cls-1" x1="292.91" y1="145.46" x2="297.11" y2="145.46"/><line class="cls-1" x1="297.11" y1="145.46" x2="297.27" y2="145.46"/><line class="cls-1" x1="297.27" y1="145.46" x2="297.44" y2="145.55"/><line class="cls-1" x1="297.44" y1="145.55" x2="297.61" y2="145.71"/><line class="cls-1" x1="297.61" y1="145.71" x2="297.69" y2="145.8"/><line class="cls-1" x1="297.69" y1="145.8" x2="299.63" y2="149.33"/><line class="cls-1" x1="299.63" y1="149.33" x2="299.71" y2="149.49"/><line class="cls-1" x1="299.71" y1="149.49" x2="299.71" y2="149.58"/><line class="cls-1" x1="299.71" y1="149.58" x2="299.71" y2="149.75"/><line class="cls-1" x1="299.71" y1="149.75" x2="299.63" y2="149.91"/><line class="cls-1" x1="299.63" y1="149.91" x2="299.54" y2="150"/><line class="cls-1" x1="299.54" y1="150" x2="299.46" y2="150.08"/><line class="cls-1" x1="299.46" y1="150.08" x2="299.46" y2="150.17"/><line class="cls-1" x1="298.53" y1="150.75" x2="301.64" y2="156.21"/><line class="cls-1" x1="301.64" y1="156.21" x2="301.73" y2="156.38"/><line class="cls-1" x1="301.73" y1="156.38" x2="301.89" y2="156.47"/><line class="cls-1" x1="301.89" y1="156.47" x2="302.06" y2="156.63"/><line class="cls-1" x1="302.06" y1="156.63" x2="302.23" y2="156.63"/><line class="cls-1" x1="302.23" y1="156.63" x2="302.48" y2="156.72"/><line class="cls-1" x1="302.48" y1="156.72" x2="312.06" y2="156.72"/><line class="cls-1" x1="312.06" y1="156.72" x2="313.23" y2="156.05"/><line class="cls-1" x1="313.23" y1="156.05" x2="318.61" y2="156.05"/><line class="cls-1" x1="318.61" y1="156.05" x2="319.79" y2="156.72"/><line class="cls-1" x1="319.79" y1="156.72" x2="332.81" y2="156.72"/><line class="cls-1" x1="332.81" y1="156.72" x2="333.98" y2="156.05"/><line class="cls-1" x1="333.98" y1="156.05" x2="339.36" y2="156.05"/><line class="cls-1" x1="339.36" y1="156.05" x2="340.53" y2="156.72"/><line class="cls-1" x1="340.53" y1="156.72" x2="347.67" y2="156.72"/><line class="cls-1" x1="354.73" y1="145.8" x2="354.73" y2="145.8"/><line class="cls-1" x1="354.73" y1="145.8" x2="354.81" y2="145.71"/><line class="cls-1" x1="354.81" y1="145.71" x2="354.9" y2="145.55"/><line class="cls-1" x1="354.9" y1="145.55" x2="355.07" y2="145.46"/><line class="cls-1" x1="355.07" y1="145.46" x2="355.23" y2="145.46"/><line class="cls-1" x1="355.23" y1="145.46" x2="359.35" y2="145.46"/><line class="cls-1" x1="359.35" y1="145.46" x2="359.52" y2="145.46"/><line class="cls-1" x1="359.52" y1="145.46" x2="359.6" y2="145.55"/><line class="cls-1" x1="359.6" y1="145.55" x2="359.77" y2="145.71"/><line class="cls-1" x1="359.77" y1="145.71" x2="359.85" y2="145.8"/><line class="cls-1" x1="359.85" y1="145.8" x2="361.79" y2="149.33"/><line class="cls-1" x1="361.79" y1="149.33" x2="361.87" y2="149.41"/><line class="cls-1" x1="361.87" y1="149.41" x2="361.87" y2="149.58"/><line class="cls-1" x1="361.87" y1="149.58" x2="361.87" y2="149.75"/><line class="cls-1" x1="361.87" y1="149.75" x2="361.79" y2="149.83"/><line class="cls-1" x1="361.79" y1="149.83" x2="361.79" y2="149.91"/><line class="cls-1" x1="361.03" y1="151.43" x2="363.72" y2="156.21"/><line class="cls-1" x1="363.72" y1="156.21" x2="363.8" y2="156.38"/><line class="cls-1" x1="363.8" y1="156.38" x2="363.97" y2="156.55"/><line class="cls-1" x1="363.97" y1="156.55" x2="364.14" y2="156.63"/><line class="cls-1" x1="364.14" y1="156.63" x2="364.31" y2="156.72"/><line class="cls-1" x1="364.31" y1="156.72" x2="364.56" y2="156.72"/><line class="cls-1" x1="364.56" y1="156.72" x2="374.13" y2="156.72"/><line class="cls-1" x1="374.13" y1="156.72" x2="375.31" y2="156.05"/><line class="cls-1" x1="375.31" y1="156.05" x2="380.69" y2="156.05"/><line class="cls-1" x1="380.69" y1="156.05" x2="381.86" y2="156.72"/><line class="cls-1" x1="381.86" y1="156.72" x2="394.88" y2="156.72"/><line class="cls-1" x1="394.88" y1="156.72" x2="396.06" y2="156.05"/><line class="cls-1" x1="396.06" y1="156.05" x2="401.43" y2="156.05"/><line class="cls-1" x1="401.43" y1="156.05" x2="402.61" y2="156.72"/><line class="cls-1" x1="402.61" y1="156.72" x2="412.19" y2="156.72"/><line class="cls-1" x1="412.19" y1="156.72" x2="412.44" y2="156.72"/><line class="cls-1" x1="412.44" y1="156.72" x2="412.61" y2="156.63"/><line class="cls-1" x1="412.61" y1="156.63" x2="412.77" y2="156.55"/><line class="cls-1" x1="412.77" y1="156.55" x2="412.94" y2="156.38"/><line class="cls-1" x1="412.94" y1="156.38" x2="413.11" y2="156.21"/><line class="cls-1" x1="413.11" y1="156.21" x2="415.63" y2="151.59"/><line class="cls-1" x1="414.96" y1="149.91" x2="414.96" y2="149.83"/><line class="cls-1" x1="414.96" y1="149.83" x2="414.87" y2="149.75"/><line class="cls-1" x1="414.87" y1="149.75" x2="414.87" y2="149.66"/><line class="cls-1" x1="414.87" y1="149.66" x2="414.87" y2="149.49"/><line class="cls-1" x1="414.87" y1="149.49" x2="414.96" y2="149.33"/><line class="cls-1" x1="414.96" y1="149.33" x2="416.89" y2="145.8"/><line class="cls-1" x1="416.89" y1="145.8" x2="416.97" y2="145.71"/><line class="cls-1" x1="416.97" y1="145.71" x2="417.14" y2="145.63"/><line class="cls-1" x1="417.14" y1="145.63" x2="417.31" y2="145.55"/><line class="cls-1" x1="417.31" y1="145.55" x2="417.48" y2="145.46"/><line class="cls-1" x1="417.48" y1="145.46" x2="421.51" y2="145.46"/><line class="cls-1" x1="421.51" y1="145.46" x2="421.68" y2="145.55"/><line class="cls-1" x1="421.68" y1="145.55" x2="421.85" y2="145.63"/><line class="cls-1" x1="421.85" y1="145.63" x2="422.01" y2="145.71"/><line class="cls-1" x1="422.01" y1="145.71" x2="422.1" y2="145.8"/><line class="cls-1" x1="422.1" y1="145.8" x2="422.1" y2="145.8"/><line class="cls-1" x1="428.23" y1="156.72" x2="436.29" y2="156.72"/><line class="cls-1" x1="436.29" y1="156.72" x2="437.47" y2="156.05"/><line class="cls-1" x1="437.47" y1="156.05" x2="442.85" y2="156.05"/><line class="cls-1" x1="442.85" y1="156.05" x2="443.94" y2="156.72"/><line class="cls-1" x1="443.94" y1="156.72" x2="457.04" y2="156.72"/><line class="cls-1" x1="457.04" y1="156.72" x2="458.22" y2="156.05"/><line class="cls-1" x1="458.22" y1="156.05" x2="463.59" y2="156.05"/><line class="cls-1" x1="463.59" y1="156.05" x2="464.77" y2="156.72"/><line class="cls-1" x1="464.77" y1="156.72" x2="474.35" y2="156.72"/><line class="cls-1" x1="474.35" y1="156.72" x2="474.6" y2="156.72"/><line class="cls-1" x1="474.6" y1="156.72" x2="474.77" y2="156.63"/><line class="cls-1" x1="474.77" y1="156.63" x2="474.93" y2="156.55"/><line class="cls-1" x1="474.93" y1="156.55" x2="475.1" y2="156.38"/><line class="cls-1" x1="475.1" y1="156.38" x2="475.19" y2="156.21"/><line class="cls-1" x1="475.19" y1="156.21" x2="478.29" y2="150.75"/><line class="cls-1" x1="477.37" y1="150.17" x2="477.37" y2="150.17"/><line class="cls-1" x1="477.37" y1="150.17" x2="477.29" y2="150.08"/><line class="cls-1" x1="477.29" y1="150.08" x2="477.2" y2="149.91"/><line class="cls-1" x1="477.2" y1="149.91" x2="477.12" y2="149.83"/><line class="cls-1" x1="477.12" y1="149.83" x2="477.12" y2="149.66"/><line class="cls-1" x1="477.12" y1="149.66" x2="477.12" y2="149.49"/><line class="cls-1" x1="477.12" y1="149.49" x2="477.2" y2="149.33"/><line class="cls-1" x1="477.2" y1="149.33" x2="478.97" y2="146.13"/><line class="cls-1" x1="478.97" y1="146.13" x2="479.05" y2="145.97"/><line class="cls-1" x1="479.05" y1="145.97" x2="479.22" y2="145.88"/><line class="cls-1" x1="479.22" y1="145.88" x2="479.3" y2="145.8"/><line class="cls-1" x1="479.3" y1="145.8" x2="479.47" y2="145.8"/><line class="cls-1" x1="479.47" y1="145.8" x2="479.64" y2="145.8"/><line class="cls-1" x1="479.64" y1="145.8" x2="479.81" y2="145.8"/><line class="cls-1" x1="479.81" y1="145.8" x2="479.89" y2="145.88"/><line class="cls-1" x1="479.89" y1="145.88" x2="479.89" y2="145.88"/><line class="cls-1" x1="150.78" y1="238.37" x2="167.07" y2="228.29"/><line class="cls-1" x1="175.47" y1="249.45" x2="301.64" y2="156.21"/><line class="cls-1" x1="200.67" y1="250.71" x2="312.06" y2="156.72"/><line class="cls-1" x1="203.45" y1="249.12" x2="313.23" y2="156.05"/><line class="cls-1" x1="216.47" y1="249.12" x2="318.61" y2="156.05"/><line class="cls-1" x1="219.24" y1="250.71" x2="319.79" y2="156.72"/><line class="cls-1" x1="250.82" y1="250.71" x2="332.81" y2="156.72"/><line class="cls-1" x1="253.59" y1="249.12" x2="333.98" y2="156.05"/><line class="cls-1" x1="266.61" y1="249.12" x2="339.36" y2="156.05"/><line class="cls-1" x1="269.39" y1="250.71" x2="340.53" y2="156.72"/><line class="cls-1" x1="314.66" y1="223.83" x2="359.35" y2="145.46"/><line class="cls-1" x1="320.79" y1="233.07" x2="361.79" y2="149.33"/><line class="cls-1" x1="325.41" y1="249.54" x2="363.72" y2="156.21"/><line class="cls-1" x1="350.7" y1="250.8" x2="374.13" y2="156.72"/><line class="cls-1" x1="353.47" y1="249.2" x2="375.31" y2="156.05"/><line class="cls-1" x1="366.49" y1="249.2" x2="380.69" y2="156.05"/><line class="cls-1" x1="369.26" y1="250.8" x2="381.86" y2="156.72"/><line class="cls-1" x1="400.85" y1="250.8" x2="394.88" y2="156.72"/><line class="cls-1" x1="403.7" y1="249.2" x2="396.06" y2="156.05"/><line class="cls-1" x1="416.64" y1="249.2" x2="401.43" y2="156.05"/><line class="cls-1" x1="419.49" y1="250.8" x2="402.61" y2="156.72"/><line class="cls-1" x1="475.52" y1="249.62" x2="468.21" y2="235.85"/><line class="cls-1" x1="500.81" y1="250.88" x2="436.29" y2="156.72"/><line class="cls-1" x1="503.66" y1="249.29" x2="437.47" y2="156.05"/><line class="cls-1" x1="516.68" y1="249.29" x2="442.85" y2="156.05"/><line class="cls-1" x1="519.45" y1="250.88" x2="443.94" y2="156.72"/><line class="cls-1" x1="551.04" y1="250.88" x2="457.04" y2="156.72"/><line class="cls-1" x1="553.89" y1="249.29" x2="458.22" y2="156.05"/><line class="cls-1" x1="566.91" y1="249.29" x2="463.59" y2="156.05"/><line class="cls-1" x1="569.69" y1="250.88" x2="464.77" y2="156.72"/><line class="cls-1" x1="606.81" y1="228.03" x2="604.55" y2="226.61"/><line class="cls-1" x1="470.82" y1="233.41" x2="465.95" y2="224.76"/><line class="cls-1" x1="295.09" y1="249.79" x2="310.29" y2="224.42"/><line class="cls-1" x1="455.45" y1="223.92" x2="417.48" y2="145.46"/><line class="cls-1" x1="413.11" y1="156.21" x2="444.78" y2="249.62"/><line class="cls-1" x1="421.51" y1="145.46" x2="465.36" y2="223.92"/><line class="cls-1" x1="153.97" y1="223.75" x2="292.91" y2="145.46"/><line class="cls-1" x1="164.13" y1="223.83" x2="297.11" y2="145.46"/><line class="cls-1" x1="355.23" y1="145.46" x2="304.75" y2="223.83"/><line class="cls-1" x1="475.19" y1="156.21" x2="595.05" y2="249.71"/><line class="cls-1" x1="297.69" y1="145.8" x2="165.48" y2="224.67"/></g><g id="Dimensions"><line class="cls-2" x1="160.69" y1="256.09" x2="160.69" y2="274.74"/><line class="cls-2" x1="157.83" y1="271.8" x2="610.43" y2="271.8"/><line class="cls-2" x1="607.57" y1="274.74" x2="607.57" y2="256.09"/><line class="cls-2" x1="131.37" y1="223.67" x2="110.71" y2="223.67"/><line class="cls-2" x1="131.37" y1="250.97" x2="110.71" y2="250.97"/><line class="cls-2" x1="113.65" y1="253.65" x2="113.65" y2="220.73"/><line class="cls-3" x1="113.65" y1="223.67" x2="116.42" y2="220.89"/><line class="cls-3" x1="113.65" y1="223.67" x2="110.88" y2="226.44"/><line class="cls-3" x1="113.65" y1="250.97" x2="116.42" y2="248.19"/><line class="cls-3" x1="113.65" y1="250.97" x2="110.88" y2="253.74"/><line class="cls-3" x1="160.69" y1="271.8" x2="163.46" y2="268.94"/><line class="cls-3" x1="160.69" y1="271.8" x2="157.83" y2="274.57"/><line class="cls-3" x1="607.57" y1="271.8" x2="610.34" y2="268.94"/><line class="cls-3" x1="607.57" y1="271.8" x2="604.71" y2="274.57"/><path d="M317.87,276.87v-1.36h6.07v1.1a16.71,16.71,0,0,0-2.39,4.6,19.23,19.23,0,0,0-1.19,5.61h-1.18a16.77,16.77,0,0,1,.45-3.35,20.52,20.52,0,0,1,1.19-3.65,16.41,16.41,0,0,1,1.63-2.95Z"/><path d="M325.08,281.17a9.67,9.67,0,0,1,.78-4.37,2.47,2.47,0,0,1,2.3-1.48,2.39,2.39,0,0,1,2.11,1.2,8.79,8.79,0,0,1,.94,4.65,9.84,9.84,0,0,1-.77,4.36,2.47,2.47,0,0,1-2.3,1.48,2.53,2.53,0,0,1-2.2-1.31A8.72,8.72,0,0,1,325.08,281.17Zm1.18,0a8.61,8.61,0,0,0,.54,3.74,1.59,1.59,0,0,0,1.37.95,1.55,1.55,0,0,0,1.33-1,8.85,8.85,0,0,0,.53-3.73,8.6,8.6,0,0,0-.54-3.75,1.58,1.58,0,0,0-1.39-.95,1.53,1.53,0,0,0-1.31,1A8.78,8.78,0,0,0,326.26,281.17Z"/><path d="M332.38,281.17a9.67,9.67,0,0,1,.78-4.37,2.46,2.46,0,0,1,2.29-1.48,2.4,2.4,0,0,1,2.12,1.2,8.89,8.89,0,0,1,.94,4.65,9.68,9.68,0,0,1-.78,4.36,2.45,2.45,0,0,1-2.29,1.48,2.53,2.53,0,0,1-2.2-1.31A8.72,8.72,0,0,1,332.38,281.17Zm1.18,0a8.61,8.61,0,0,0,.54,3.74,1.58,1.58,0,0,0,1.37.95,1.53,1.53,0,0,0,1.32-1,13.22,13.22,0,0,0,0-7.48,1.59,1.59,0,0,0-1.39-.95,1.52,1.52,0,0,0-1.31,1A8.78,8.78,0,0,0,333.56,281.17Z"/><path d="M340,286.82v-8.3h1v1.16a2.61,2.61,0,0,1,.88-1,2.14,2.14,0,0,1,1.17-.35,1.86,1.86,0,0,1,1.92,1.45,3.27,3.27,0,0,1,.94-1.08,2,2,0,0,1,1.17-.37,1.94,1.94,0,0,1,1.55.67,3.28,3.28,0,0,1,.56,2.12v5.7h-1.15v-5.23a4.19,4.19,0,0,0-.13-1.27,1.06,1.06,0,0,0-.42-.57,1.07,1.07,0,0,0-.65-.21,1.49,1.49,0,0,0-1.22.6,3,3,0,0,0-.47,1.85v4.83h-1.15v-5.4a2.49,2.49,0,0,0-.31-1.45,1,1,0,0,0-.87-.43,1.46,1.46,0,0,0-1.25.64,4.29,4.29,0,0,0-.46,2.33v4.31Z"/><path d="M350.94,286.82v-8.3h1v1.16a2.61,2.61,0,0,1,.88-1,2.14,2.14,0,0,1,1.17-.35,1.86,1.86,0,0,1,1.92,1.45,3.27,3.27,0,0,1,.94-1.08,2,2,0,0,1,1.17-.37,1.94,1.94,0,0,1,1.55.67,3.28,3.28,0,0,1,.56,2.12v5.7H359v-5.23a4.19,4.19,0,0,0-.13-1.27,1.06,1.06,0,0,0-.42-.57,1.07,1.07,0,0,0-.65-.21,1.49,1.49,0,0,0-1.22.6,3,3,0,0,0-.47,1.85v4.83H355v-5.4a2.49,2.49,0,0,0-.31-1.45,1,1,0,0,0-.87-.43,1.46,1.46,0,0,0-1.25.64,4.29,4.29,0,0,0-.46,2.33v4.31Z"/><path d="M367.73,290.19a16.09,16.09,0,0,1-1.57-3.32,12.36,12.36,0,0,1-.71-4.21,14.12,14.12,0,0,1,2.28-7.49h.82a25.48,25.48,0,0,0-1.2,2.85,14.47,14.47,0,0,0-.53,2.22,16.6,16.6,0,0,0-.19,2.44,16.4,16.4,0,0,0,1.92,7.51Z"/><path d="M372.76,284.79v-3.15h-3.12v-1.31h3.12v-3.12h1.32v3.12h3.12v1.31h-3.12v3.15Zm4.44,2h-7.56v-1.31h7.56Z"/><path d="M382,286.82v-2.74H378v-1.29l4.28-7.42h.95v7.42h1.27v1.29h-1.27v2.74Zm0-4v-5.17l-2.93,5.17Z"/><path d="M386,286.82v-8.3h1v1.16a2.69,2.69,0,0,1,.88-1,2.15,2.15,0,0,1,1.18-.35,2,2,0,0,1,1.21.37,2,2,0,0,1,.71,1.08,3.14,3.14,0,0,1,.93-1.08,2,2,0,0,1,1.18-.37,1.93,1.93,0,0,1,1.54.67,3.22,3.22,0,0,1,.56,2.12v5.7h-1.14v-5.23a4.55,4.55,0,0,0-.13-1.27,1.17,1.17,0,0,0-.42-.57,1.13,1.13,0,0,0-.66-.21,1.47,1.47,0,0,0-1.21.6,2.91,2.91,0,0,0-.47,1.85v4.83H390v-5.4a2.48,2.48,0,0,0-.32-1.45,1,1,0,0,0-.87-.43,1.48,1.48,0,0,0-1.25.64,4.31,4.31,0,0,0-.45,2.33v4.31Z"/><path d="M396.9,286.82v-8.3h1v1.16a2.69,2.69,0,0,1,.88-1,2.15,2.15,0,0,1,1.18-.35,2,2,0,0,1,1.21.37,2,2,0,0,1,.71,1.08,3.14,3.14,0,0,1,.93-1.08,2,2,0,0,1,1.18-.37,1.93,1.93,0,0,1,1.54.67,3.22,3.22,0,0,1,.56,2.12v5.7H405v-5.23a4.55,4.55,0,0,0-.13-1.27,1.17,1.17,0,0,0-.42-.57,1.13,1.13,0,0,0-.66-.21,1.47,1.47,0,0,0-1.21.6,2.91,2.91,0,0,0-.48,1.85v4.83h-1.14v-5.4a2.48,2.48,0,0,0-.32-1.45,1,1,0,0,0-.87-.43,1.48,1.48,0,0,0-1.25.64,4.31,4.31,0,0,0-.45,2.33v4.31Z"/><path d="M408.27,290.19h-.83a16.4,16.4,0,0,0,1.92-7.51,16.6,16.6,0,0,0-.19-2.44,14.5,14.5,0,0,0-.52-2.22,24.1,24.1,0,0,0-1.21-2.85h.83a14.19,14.19,0,0,1,2.27,7.49,12.67,12.67,0,0,1-.68,4.15A15.62,15.62,0,0,1,408.27,290.19Z"/><path d="M422.66,282.8l1.25.39a5.24,5.24,0,0,1-1.45,2.87,3.56,3.56,0,0,1-2.52.95,3.87,3.87,0,0,1-2.23-.63,4.57,4.57,0,0,1-1.51-2.05,8.42,8.42,0,0,1-.59-3.32,7.82,7.82,0,0,1,.59-3.2,4.57,4.57,0,0,1,1.6-2,3.94,3.94,0,0,1,2.25-.67,3.42,3.42,0,0,1,2.34.85,4.57,4.57,0,0,1,1.37,2.48l-1.22.35c-.42-1.59-1.26-2.38-2.51-2.38a2.78,2.78,0,0,0-1.63.48,3.2,3.2,0,0,0-1.1,1.5,7,7,0,0,0-.41,2.57,6.15,6.15,0,0,0,.83,3.53,2.57,2.57,0,0,0,2.2,1.18,2.38,2.38,0,0,0,1.75-.73A3.8,3.8,0,0,0,422.66,282.8Z"/><path d="M424.87,282.67a5,5,0,0,1,.9-3.24,2.91,2.91,0,0,1,4.56,0,4.79,4.79,0,0,1,.91,3.15,5.17,5.17,0,0,1-.9,3.33,2.91,2.91,0,0,1-4.56,0A5,5,0,0,1,424.87,282.67Zm1.18,0a4,4,0,0,0,.58,2.39,1.75,1.75,0,0,0,1.45.79,1.72,1.72,0,0,0,1.4-.79,4,4,0,0,0,.58-2.39,4,4,0,0,0-.58-2.39,1.77,1.77,0,0,0-1.46-.79,1.7,1.7,0,0,0-1.4.79A4.09,4.09,0,0,0,426.05,282.67Z"/><path d="M434.5,286.82l-2.59-8.3h1.22l1.47,5c.16.56.31,1.12.43,1.67.1-.44.24-1,.43-1.58l1.52-5.06h1.18l-2.58,8.3Z"/><path d="M443.81,284.15l1.19.18a3.62,3.62,0,0,1-1.08,2A2.82,2.82,0,0,1,442,287a2.89,2.89,0,0,1-2.34-1.1,4.89,4.89,0,0,1-.9-3.17,5.19,5.19,0,0,1,.91-3.28,2.8,2.8,0,0,1,2.28-1.13,2.72,2.72,0,0,1,2.21,1.11,5.11,5.11,0,0,1,.88,3.21V283H440a3.57,3.57,0,0,0,.65,2.11,1.77,1.77,0,0,0,1.41.71C442.87,285.85,443.47,285.28,443.81,284.15ZM440,281.87h3.8a3.21,3.21,0,0,0-.46-1.61,1.69,1.69,0,0,0-1.42-.77,1.72,1.72,0,0,0-1.32.64A2.88,2.88,0,0,0,440,281.87Z"/><path d="M446.46,286.82v-8.3h1v1.26a3.5,3.5,0,0,1,.73-1.16,1.12,1.12,0,0,1,.75-.29,2,2,0,0,1,1.18.46l-.4,1.3a1.43,1.43,0,0,0-.83-.3,1,1,0,0,0-.67.25,1.39,1.39,0,0,0-.43.72,6.36,6.36,0,0,0-.22,1.71v4.35Z"/><path d="M76.26,242.9v-2.74H72.19v-1.29l4.28-7.42h1v7.42h1.27v1.29H77.42v2.74Zm0-4v-5.16l-2.93,5.16Z"/><path d="M79.86,239.87l1.15-.19c.24,1.51.85,2.26,1.83,2.26a1.76,1.76,0,0,0,1.37-.67,2.56,2.56,0,0,0,.57-1.73,2.32,2.32,0,0,0-.53-1.61,1.65,1.65,0,0,0-1.3-.61,2.81,2.81,0,0,0-.81.15l.13-1.23h.18a1.81,1.81,0,0,0,1.92-1.92,1.84,1.84,0,0,0-.45-1.29,1.41,1.41,0,0,0-1.08-.48,1.46,1.46,0,0,0-1.13.51,2.8,2.8,0,0,0-.58,1.55L80,234.37a3.82,3.82,0,0,1,1-2.22,2.56,2.56,0,0,1,1.86-.75,2.53,2.53,0,0,1,1.93.85,3,3,0,0,1,.8,2.12,2.72,2.72,0,0,1-.34,1.38,2.36,2.36,0,0,1-.94.94,2.13,2.13,0,0,1,.92.52,2.54,2.54,0,0,1,.6,1,3.81,3.81,0,0,1,.22,1.34,3.65,3.65,0,0,1-.93,2.58,2.93,2.93,0,0,1-2.23,1,2.7,2.7,0,0,1-2-.88A3.71,3.71,0,0,1,79.86,239.87Z"/><path d="M87.5,242.9v-8.3h1v1.16a2.58,2.58,0,0,1,.88-1,2.07,2.07,0,0,1,1.18-.35,1.87,1.87,0,0,1,1.91,1.44,3.27,3.27,0,0,1,.94-1.08,2,2,0,0,1,1.17-.36,1.93,1.93,0,0,1,1.55.66,3.29,3.29,0,0,1,.56,2.13v5.69H95.57v-5.23a4.12,4.12,0,0,0-.13-1.26,1.09,1.09,0,0,0-.42-.58,1.14,1.14,0,0,0-.65-.2,1.51,1.51,0,0,0-1.22.59,3,3,0,0,0-.47,1.86v4.82H91.53v-5.4a2.52,2.52,0,0,0-.31-1.45,1,1,0,0,0-.87-.42,1.45,1.45,0,0,0-1.25.64,4.25,4.25,0,0,0-.46,2.32v4.31Z"/><path d="M98.43,242.9v-8.3h1v1.16a2.58,2.58,0,0,1,.88-1,2.07,2.07,0,0,1,1.18-.35,1.87,1.87,0,0,1,1.91,1.44,3.27,3.27,0,0,1,.94-1.08,2,2,0,0,1,1.17-.36,1.93,1.93,0,0,1,1.55.66,3.29,3.29,0,0,1,.56,2.13v5.69H106.5v-5.23a4.12,4.12,0,0,0-.13-1.26,1.09,1.09,0,0,0-.42-.58,1.14,1.14,0,0,0-.65-.2,1.51,1.51,0,0,0-1.22.59,3,3,0,0,0-.47,1.86v4.82h-1.15v-5.4a2.52,2.52,0,0,0-.31-1.45,1,1,0,0,0-.87-.42,1.45,1.45,0,0,0-1.25.64,4.25,4.25,0,0,0-.46,2.32v4.31Z"/></g></svg>