<svg xmlns="http://www.w3.org/2000/svg" viewBox="0 0 700 400"><defs><style>.cls-1,.cls-2,.cls-3{fill:none;stroke:#000;stroke-linecap:round;stroke-linejoin:round;}.cls-1{stroke-width:0.6px;}.cls-2{stroke-width:0.5px;}.cls-3{stroke-width:0.96px;}</style></defs><title>Roofing-Sunset-Dimensioned</title><g id="Image"><line class="cls-1" x1="360.1" y1="239.81" x2="360.27" y2="242.16"/><line class="cls-1" x1="344.9" y1="151.7" x2="340.19" y2="237.38"/><line class="cls-1" x1="367.41" y1="238.89" x2="356.15" y2="152.37"/><line class="cls-1" x1="552.46" y1="236.62" x2="540.7" y2="228.22"/><line class="cls-1" x1="427.55" y1="148.76" x2="540.03" y2="230.32"/><line class="cls-1" x1="540.03" y1="225.7" x2="427.47" y2="146.91"/><line class="cls-1" x1="539.1" y1="226.54" x2="540.03" y2="229.31"/><line class="cls-1" x1="540.03" y1="229.31" x2="540.2" y2="229.48"/><line class="cls-1" x1="540.2" y1="229.48" x2="540.28" y2="229.73"/><line class="cls-1" x1="540.28" y1="229.73" x2="540.45" y2="229.82"/><line class="cls-1" x1="540.45" y1="229.82" x2="540.53" y2="229.82"/><line class="cls-1" x1="540.53" y1="229.82" x2="552.29" y2="236.54"/><line class="cls-1" x1="552.29" y1="236.54" x2="552.46" y2="236.62"/><line class="cls-1" x1="552.46" y1="236.62" x2="552.71" y2="236.79"/><line class="cls-1" x1="552.71" y1="236.79" x2="552.96" y2="237.12"/><line class="cls-1" x1="552.96" y1="237.12" x2="553.13" y2="237.54"/><line class="cls-1" x1="553.13" y1="237.54" x2="553.22" y2="237.96"/><line class="cls-1" x1="553.22" y1="237.96" x2="553.22" y2="238.38"/><line class="cls-1" x1="553.22" y1="238.38" x2="553.05" y2="238.8"/><line class="cls-1" x1="553.05" y1="238.8" x2="552.8" y2="239.22"/><line class="cls-1" x1="552.8" y1="239.22" x2="552.54" y2="239.56"/><line class="cls-1" x1="552.54" y1="239.56" x2="552.12" y2="239.81"/><line class="cls-1" x1="552.12" y1="239.81" x2="551.7" y2="239.9"/><line class="cls-1" x1="551.7" y1="239.9" x2="551.28" y2="239.98"/><line class="cls-1" x1="551.28" y1="239.98" x2="550.86" y2="239.9"/><line class="cls-1" x1="550.86" y1="239.9" x2="549.1" y2="239.48"/><line class="cls-1" x1="549.1" y1="239.48" x2="548.51" y2="239.39"/><line class="cls-1" x1="548.51" y1="239.39" x2="547.84" y2="239.48"/><line class="cls-1" x1="547.84" y1="239.48" x2="547.17" y2="239.73"/><line class="cls-1" x1="547.17" y1="239.73" x2="546.66" y2="240.15"/><line class="cls-1" x1="546.66" y1="240.15" x2="546.24" y2="240.65"/><line class="cls-1" x1="546.24" y1="240.65" x2="545.91" y2="241.24"/><line class="cls-1" x1="545.91" y1="241.24" x2="545.82" y2="241.91"/><line class="cls-1" x1="545.82" y1="241.91" x2="545.91" y2="242.58"/><line class="cls-1" x1="545.91" y1="242.58" x2="546.16" y2="243.17"/><line class="cls-1" x1="546.16" y1="243.17" x2="548.93" y2="248.04"/><line class="cls-1" x1="548.93" y1="248.04" x2="549.1" y2="248.63"/><line class="cls-1" x1="549.1" y1="248.63" x2="549.27" y2="249.3"/><line class="cls-1" x1="549.27" y1="249.3" x2="549.18" y2="249.98"/><line class="cls-1" x1="549.18" y1="249.98" x2="548.93" y2="250.56"/><line class="cls-1" x1="548.93" y1="250.56" x2="548.6" y2="251.15"/><line class="cls-1" x1="548.6" y1="251.15" x2="548.18" y2="251.57"/><line class="cls-1" x1="548.18" y1="251.57" x2="547.59" y2="251.91"/><line class="cls-1" x1="547.59" y1="251.91" x2="547" y2="252.16"/><line class="cls-1" x1="547" y1="252.16" x2="546.33" y2="252.24"/><line class="cls-1" x1="546.33" y1="252.24" x2="506.51" y2="252.24"/><line class="cls-1" x1="506.51" y1="252.24" x2="505.76" y2="252.16"/><line class="cls-1" x1="505.76" y1="252.16" x2="505" y2="251.91"/><line class="cls-1" x1="505" y1="251.91" x2="504.33" y2="251.49"/><line class="cls-1" x1="504.33" y1="251.49" x2="503.32" y2="250.65"/><line class="cls-1" x1="503.32" y1="250.65" x2="503.15" y2="250.56"/><line class="cls-1" x1="503.15" y1="250.56" x2="502.98" y2="250.48"/><line class="cls-1" x1="502.98" y1="250.48" x2="502.73" y2="250.48"/><line class="cls-1" x1="502.73" y1="250.48" x2="502.48" y2="250.48"/><line class="cls-1" x1="502.48" y1="250.48" x2="502.31" y2="250.56"/><line class="cls-1" x1="502.31" y1="250.56" x2="502.14" y2="250.65"/><line class="cls-1" x1="502.14" y1="250.65" x2="501.14" y2="251.49"/><line class="cls-1" x1="501.14" y1="251.49" x2="500.46" y2="251.91"/><line class="cls-1" x1="500.46" y1="251.91" x2="499.62" y2="252.16"/><line class="cls-1" x1="499.62" y1="252.16" x2="498.87" y2="252.24"/><line class="cls-1" x1="498.87" y1="252.24" x2="459.98" y2="252.33"/><line class="cls-1" x1="459.98" y1="252.33" x2="459.14" y2="252.24"/><line class="cls-1" x1="459.14" y1="252.24" x2="458.38" y2="251.91"/><line class="cls-1" x1="458.38" y1="251.91" x2="457.71" y2="251.49"/><line class="cls-1" x1="457.71" y1="251.49" x2="456.78" y2="250.73"/><line class="cls-1" x1="456.78" y1="250.73" x2="456.53" y2="250.56"/><line class="cls-1" x1="456.53" y1="250.56" x2="456.36" y2="250.48"/><line class="cls-1" x1="456.36" y1="250.48" x2="456.11" y2="250.48"/><line class="cls-1" x1="456.11" y1="250.48" x2="455.94" y2="250.48"/><line class="cls-1" x1="455.94" y1="250.48" x2="455.69" y2="250.56"/><line class="cls-1" x1="455.69" y1="250.56" x2="455.52" y2="250.73"/><line class="cls-1" x1="455.52" y1="250.73" x2="454.52" y2="251.49"/><line class="cls-1" x1="454.52" y1="251.49" x2="453.84" y2="251.91"/><line class="cls-1" x1="453.84" y1="251.91" x2="453.09" y2="252.24"/><line class="cls-1" x1="453.09" y1="252.24" x2="452.25" y2="252.33"/><line class="cls-1" x1="452.25" y1="252.33" x2="413.61" y2="252.33"/><line class="cls-1" x1="413.61" y1="252.33" x2="412.77" y2="252.24"/><line class="cls-1" x1="412.77" y1="252.24" x2="412.01" y2="251.99"/><line class="cls-1" x1="412.01" y1="251.99" x2="411.34" y2="251.49"/><line class="cls-1" x1="411.34" y1="251.49" x2="410.42" y2="250.73"/><line class="cls-1" x1="410.42" y1="250.73" x2="410.16" y2="250.56"/><line class="cls-1" x1="410.16" y1="250.56" x2="410" y2="250.56"/><line class="cls-1" x1="410" y1="250.56" x2="409.74" y2="250.48"/><line class="cls-1" x1="409.74" y1="250.48" x2="409.49" y2="250.56"/><line class="cls-1" x1="409.49" y1="250.56" x2="409.32" y2="250.56"/><line class="cls-1" x1="409.32" y1="250.56" x2="409.16" y2="250.73"/><line class="cls-1" x1="409.16" y1="250.73" x2="408.15" y2="251.57"/><line class="cls-1" x1="408.15" y1="251.57" x2="407.48" y2="251.99"/><line class="cls-1" x1="407.48" y1="251.99" x2="406.72" y2="252.24"/><line class="cls-1" x1="406.72" y1="252.24" x2="405.88" y2="252.33"/><line class="cls-1" x1="405.88" y1="252.33" x2="366.4" y2="252.33"/><line class="cls-1" x1="366.4" y1="252.33" x2="365.56" y2="252.24"/><line class="cls-1" x1="365.56" y1="252.24" x2="364.72" y2="251.99"/><line class="cls-1" x1="364.72" y1="251.99" x2="364.05" y2="251.49"/><line class="cls-1" x1="364.05" y1="251.49" x2="363.54" y2="250.82"/><line class="cls-1" x1="363.54" y1="250.82" x2="363.12" y2="250.14"/><line class="cls-1" x1="363.12" y1="250.14" x2="360.35" y2="242.67"/><line class="cls-1" x1="360.35" y1="242.67" x2="360.27" y2="242.25"/><line class="cls-1" x1="360.27" y1="242.25" x2="360.27" y2="242.16"/><line class="cls-1" x1="360.27" y1="242.16" x2="360.27" y2="241.66"/><line class="cls-1" x1="360.27" y1="241.66" x2="360.44" y2="241.24"/><line class="cls-1" x1="360.44" y1="241.24" x2="360.6" y2="240.74"/><line class="cls-1" x1="360.6" y1="240.74" x2="361.02" y2="240.4"/><line class="cls-1" x1="361.02" y1="240.4" x2="361.44" y2="240.06"/><line class="cls-1" x1="361.44" y1="240.06" x2="361.86" y2="239.9"/><line class="cls-1" x1="361.86" y1="239.9" x2="362.45" y2="239.81"/><line class="cls-1" x1="362.45" y1="239.81" x2="362.96" y2="239.9"/><line class="cls-1" x1="362.96" y1="239.9" x2="365.14" y2="240.32"/><line class="cls-1" x1="365.14" y1="240.32" x2="365.48" y2="240.4"/><line class="cls-1" x1="365.48" y1="240.4" x2="365.81" y2="240.32"/><line class="cls-1" x1="365.81" y1="240.32" x2="366.06" y2="240.23"/><line class="cls-1" x1="366.06" y1="240.23" x2="366.32" y2="239.98"/><line class="cls-1" x1="366.32" y1="239.98" x2="366.57" y2="239.73"/><line class="cls-1" x1="366.57" y1="239.73" x2="366.65" y2="239.48"/><line class="cls-1" x1="366.65" y1="239.48" x2="366.74" y2="239.14"/><line class="cls-1" x1="366.74" y1="239.14" x2="366.74" y2="238.97"/><line class="cls-1" x1="366.74" y1="238.97" x2="366.74" y2="238.89"/><line class="cls-1" x1="366.74" y1="238.89" x2="366.65" y2="238.55"/><line class="cls-1" x1="366.65" y1="238.55" x2="360.6" y2="225.87"/><line class="cls-1" x1="360.6" y1="225.87" x2="360.44" y2="225.62"/><line class="cls-1" x1="360.44" y1="225.62" x2="360.27" y2="225.45"/><line class="cls-1" x1="360.27" y1="225.45" x2="360.02" y2="225.28"/><line class="cls-1" x1="360.02" y1="225.28" x2="359.76" y2="225.2"/><line class="cls-1" x1="359.76" y1="225.2" x2="359.43" y2="225.11"/><line class="cls-1" x1="359.43" y1="225.11" x2="348.59" y2="225.11"/><line class="cls-1" x1="348.59" y1="225.11" x2="348.26" y2="225.2"/><line class="cls-1" x1="348.26" y1="225.2" x2="347.92" y2="225.28"/><line class="cls-1" x1="347.92" y1="225.28" x2="347.67" y2="225.53"/><line class="cls-1" x1="347.67" y1="225.53" x2="347.5" y2="225.78"/><line class="cls-1" x1="347.5" y1="225.78" x2="340.95" y2="236.87"/><line class="cls-1" x1="340.95" y1="236.87" x2="340.86" y2="237.12"/><line class="cls-1" x1="340.86" y1="237.12" x2="340.78" y2="237.38"/><line class="cls-1" x1="340.78" y1="237.38" x2="340.78" y2="237.38"/><line class="cls-1" x1="340.78" y1="237.38" x2="340.78" y2="237.71"/><line class="cls-1" x1="340.78" y1="237.71" x2="340.95" y2="237.96"/><line class="cls-1" x1="340.95" y1="237.96" x2="341.03" y2="238.22"/><line class="cls-1" x1="341.03" y1="238.22" x2="341.28" y2="238.47"/><line class="cls-1" x1="341.28" y1="238.47" x2="341.54" y2="238.64"/><line class="cls-1" x1="341.54" y1="238.64" x2="341.79" y2="238.72"/><line class="cls-1" x1="341.79" y1="238.72" x2="342.12" y2="238.72"/><line class="cls-1" x1="342.12" y1="238.72" x2="345.06" y2="238.72"/><line class="cls-1" x1="345.06" y1="238.72" x2="345.06" y2="239.39"/><line class="cls-1" x1="345.06" y1="239.39" x2="342.12" y2="239.39"/><line class="cls-1" x1="342.12" y1="239.39" x2="341.62" y2="239.31"/><line class="cls-1" x1="341.62" y1="239.31" x2="341.12" y2="239.14"/><line class="cls-1" x1="341.12" y1="239.14" x2="340.7" y2="238.8"/><line class="cls-1" x1="340.7" y1="238.8" x2="340.44" y2="238.38"/><line class="cls-1" x1="340.44" y1="238.38" x2="340.19" y2="237.96"/><line class="cls-1" x1="340.19" y1="237.96" x2="340.19" y2="237.46"/><line class="cls-1" x1="340.19" y1="237.46" x2="340.19" y2="237.38"/><line class="cls-1" x1="340.19" y1="237.38" x2="340.19" y2="236.96"/><line class="cls-1" x1="340.19" y1="236.96" x2="340.44" y2="236.54"/><line class="cls-1" x1="340.44" y1="236.54" x2="346.83" y2="225.53"/><line class="cls-1" x1="346.83" y1="225.53" x2="347.16" y2="225.11"/><line class="cls-1" x1="347.16" y1="225.11" x2="347.58" y2="224.78"/><line class="cls-1" x1="347.58" y1="224.78" x2="347.92" y2="224.61"/><line class="cls-1" x1="347.92" y1="224.61" x2="348.26" y2="224.52"/><line class="cls-1" x1="348.26" y1="224.52" x2="348.59" y2="224.52"/><line class="cls-1" x1="348.59" y1="224.52" x2="359.34" y2="224.52"/><line class="cls-1" x1="359.34" y1="224.52" x2="359.85" y2="224.52"/><line class="cls-1" x1="359.85" y1="224.52" x2="360.44" y2="224.78"/><line class="cls-1" x1="360.44" y1="224.78" x2="360.69" y2="224.94"/><line class="cls-1" x1="360.69" y1="224.94" x2="361.02" y2="225.28"/><line class="cls-1" x1="361.02" y1="225.28" x2="361.19" y2="225.62"/><line class="cls-1" x1="361.19" y1="225.62" x2="367.24" y2="238.3"/><line class="cls-1" x1="367.24" y1="238.3" x2="367.32" y2="238.72"/><line class="cls-1" x1="367.32" y1="238.72" x2="367.41" y2="238.89"/><line class="cls-1" x1="367.41" y1="238.89" x2="367.41" y2="239.22"/><line class="cls-1" x1="367.41" y1="239.22" x2="367.32" y2="239.64"/><line class="cls-1" x1="367.32" y1="239.64" x2="367.07" y2="240.06"/><line class="cls-1" x1="367.07" y1="240.06" x2="366.82" y2="240.48"/><line class="cls-1" x1="366.82" y1="240.48" x2="366.4" y2="240.74"/><line class="cls-1" x1="366.4" y1="240.74" x2="365.98" y2="240.9"/><line class="cls-1" x1="365.98" y1="240.9" x2="365.48" y2="240.99"/><line class="cls-1" x1="365.48" y1="240.99" x2="365.06" y2="240.99"/><line class="cls-1" x1="365.06" y1="240.99" x2="362.79" y2="240.48"/><line class="cls-1" x1="362.79" y1="240.48" x2="362.45" y2="240.4"/><line class="cls-1" x1="362.45" y1="240.4" x2="362.03" y2="240.48"/><line class="cls-1" x1="362.03" y1="240.48" x2="361.7" y2="240.65"/><line class="cls-1" x1="361.7" y1="240.65" x2="361.44" y2="240.82"/><line class="cls-1" x1="361.44" y1="240.82" x2="361.19" y2="241.07"/><line class="cls-1" x1="361.19" y1="241.07" x2="361.02" y2="241.41"/><line class="cls-1" x1="361.02" y1="241.41" x2="360.94" y2="241.74"/><line class="cls-1" x1="360.94" y1="241.74" x2="360.94" y2="242.08"/><line class="cls-1" x1="360.94" y1="242.08" x2="360.94" y2="242.16"/><line class="cls-1" x1="360.94" y1="242.16" x2="361.02" y2="242.5"/><line class="cls-1" x1="361.02" y1="242.5" x2="363.71" y2="249.81"/><line class="cls-1" x1="363.71" y1="249.81" x2="363.96" y2="250.31"/><line class="cls-1" x1="363.96" y1="250.31" x2="364.22" y2="250.73"/><line class="cls-1" x1="364.22" y1="250.73" x2="364.64" y2="251.15"/><line class="cls-1" x1="364.64" y1="251.15" x2="365.14" y2="251.49"/><line class="cls-1" x1="365.14" y1="251.49" x2="365.81" y2="251.66"/><line class="cls-1" x1="365.81" y1="251.66" x2="366.4" y2="251.74"/><line class="cls-1" x1="366.4" y1="251.74" x2="405.8" y2="251.74"/><line class="cls-1" x1="405.8" y1="251.74" x2="406.38" y2="251.66"/><line class="cls-1" x1="406.38" y1="251.66" x2="406.89" y2="251.49"/><line class="cls-1" x1="406.89" y1="251.49" x2="407.31" y2="251.32"/><line class="cls-1" x1="407.31" y1="251.32" x2="407.73" y2="251.07"/><line class="cls-1" x1="407.73" y1="251.07" x2="408.65" y2="250.31"/><line class="cls-1" x1="408.65" y1="250.31" x2="408.99" y2="250.06"/><line class="cls-1" x1="408.99" y1="250.06" x2="409.41" y2="249.89"/><line class="cls-1" x1="409.41" y1="249.89" x2="409.83" y2="249.89"/><line class="cls-1" x1="409.83" y1="249.89" x2="410.16" y2="249.89"/><line class="cls-1" x1="410.16" y1="249.89" x2="410.5" y2="250.06"/><line class="cls-1" x1="410.5" y1="250.06" x2="410.75" y2="250.23"/><line class="cls-1" x1="410.75" y1="250.23" x2="411.68" y2="250.98"/><line class="cls-1" x1="411.68" y1="250.98" x2="412.18" y2="251.32"/><line class="cls-1" x1="412.18" y1="251.32" x2="412.6" y2="251.57"/><line class="cls-1" x1="412.6" y1="251.57" x2="413.1" y2="251.66"/><line class="cls-1" x1="413.1" y1="251.66" x2="413.61" y2="251.66"/><line class="cls-1" x1="413.61" y1="251.66" x2="452.16" y2="251.66"/><line class="cls-1" x1="452.16" y1="251.66" x2="452.67" y2="251.66"/><line class="cls-1" x1="452.67" y1="251.66" x2="453.26" y2="251.49"/><line class="cls-1" x1="453.26" y1="251.49" x2="453.68" y2="251.32"/><line class="cls-1" x1="453.68" y1="251.32" x2="454.1" y2="250.98"/><line class="cls-1" x1="454.1" y1="250.98" x2="455.02" y2="250.23"/><line class="cls-1" x1="455.02" y1="250.23" x2="455.36" y2="250.06"/><line class="cls-1" x1="455.36" y1="250.06" x2="455.78" y2="249.89"/><line class="cls-1" x1="455.78" y1="249.89" x2="456.2" y2="249.81"/><line class="cls-1" x1="456.2" y1="249.81" x2="456.53" y2="249.89"/><line class="cls-1" x1="456.53" y1="249.89" x2="456.87" y2="250.06"/><line class="cls-1" x1="456.87" y1="250.06" x2="457.2" y2="250.23"/><line class="cls-1" x1="457.2" y1="250.23" x2="458.04" y2="250.98"/><line class="cls-1" x1="458.04" y1="250.98" x2="458.46" y2="251.24"/><line class="cls-1" x1="458.46" y1="251.24" x2="458.97" y2="251.49"/><line class="cls-1" x1="458.97" y1="251.49" x2="459.47" y2="251.66"/><line class="cls-1" x1="459.47" y1="251.66" x2="459.98" y2="251.66"/><line class="cls-1" x1="459.98" y1="251.66" x2="498.78" y2="251.66"/><line class="cls-1" x1="498.78" y1="251.66" x2="499.29" y2="251.57"/><line class="cls-1" x1="499.29" y1="251.57" x2="499.88" y2="251.49"/><line class="cls-1" x1="499.88" y1="251.49" x2="500.3" y2="251.24"/><line class="cls-1" x1="500.3" y1="251.24" x2="500.72" y2="250.98"/><line class="cls-1" x1="500.72" y1="250.98" x2="501.64" y2="250.23"/><line class="cls-1" x1="501.64" y1="250.23" x2="501.98" y2="250.06"/><line class="cls-1" x1="501.98" y1="250.06" x2="502.4" y2="249.89"/><line class="cls-1" x1="502.4" y1="249.89" x2="502.9" y2="249.81"/><line class="cls-1" x1="502.9" y1="249.81" x2="503.15" y2="249.89"/><line class="cls-1" x1="503.15" y1="249.89" x2="503.49" y2="249.98"/><line class="cls-1" x1="503.49" y1="249.98" x2="503.74" y2="250.14"/><line class="cls-1" x1="503.74" y1="250.14" x2="504.66" y2="250.9"/><line class="cls-1" x1="504.66" y1="250.9" x2="505.08" y2="251.24"/><line class="cls-1" x1="505.08" y1="251.24" x2="505.5" y2="251.4"/><line class="cls-1" x1="505.5" y1="251.4" x2="506.01" y2="251.57"/><line class="cls-1" x1="506.01" y1="251.57" x2="506.51" y2="251.66"/><line class="cls-1" x1="506.51" y1="251.66" x2="546.33" y2="251.57"/><line class="cls-1" x1="546.33" y1="251.57" x2="546.83" y2="251.57"/><line class="cls-1" x1="546.83" y1="251.57" x2="547.34" y2="251.4"/><line class="cls-1" x1="547.34" y1="251.4" x2="547.76" y2="251.15"/><line class="cls-1" x1="547.76" y1="251.15" x2="548.09" y2="250.73"/><line class="cls-1" x1="548.09" y1="250.73" x2="548.43" y2="250.31"/><line class="cls-1" x1="548.43" y1="250.31" x2="548.51" y2="249.81"/><line class="cls-1" x1="548.51" y1="249.81" x2="548.6" y2="249.3"/><line class="cls-1" x1="548.6" y1="249.3" x2="548.51" y2="248.88"/><line class="cls-1" x1="548.51" y1="248.88" x2="548.34" y2="248.38"/><line class="cls-1" x1="548.34" y1="248.38" x2="545.57" y2="243.51"/><line class="cls-1" x1="545.57" y1="243.51" x2="545.24" y2="242.75"/><line class="cls-1" x1="545.24" y1="242.75" x2="545.15" y2="241.91"/><line class="cls-1" x1="545.15" y1="241.91" x2="545.32" y2="241.07"/><line class="cls-1" x1="545.32" y1="241.07" x2="545.66" y2="240.32"/><line class="cls-1" x1="545.66" y1="240.32" x2="546.16" y2="239.64"/><line class="cls-1" x1="546.16" y1="239.64" x2="546.83" y2="239.14"/><line class="cls-1" x1="546.83" y1="239.14" x2="547.67" y2="238.8"/><line class="cls-1" x1="547.67" y1="238.8" x2="548.51" y2="238.72"/><line class="cls-1" x1="548.51" y1="238.72" x2="549.35" y2="238.8"/><line class="cls-1" x1="549.35" y1="238.8" x2="550.86" y2="239.22"/><line class="cls-1" x1="550.86" y1="239.22" x2="551.2" y2="239.31"/><line class="cls-1" x1="551.2" y1="239.31" x2="551.45" y2="239.22"/><line class="cls-1" x1="551.45" y1="239.22" x2="551.79" y2="239.14"/><line class="cls-1" x1="551.79" y1="239.14" x2="552.04" y2="238.97"/><line class="cls-1" x1="552.04" y1="238.97" x2="552.21" y2="238.8"/><line class="cls-1" x1="552.21" y1="238.8" x2="552.38" y2="238.55"/><line class="cls-1" x1="552.38" y1="238.55" x2="552.46" y2="238.22"/><line class="cls-1" x1="552.46" y1="238.22" x2="552.46" y2="237.96"/><line class="cls-1" x1="552.46" y1="237.96" x2="552.38" y2="237.63"/><line class="cls-1" x1="552.38" y1="237.63" x2="552.29" y2="237.38"/><line class="cls-1" x1="552.29" y1="237.38" x2="552.04" y2="237.12"/><line class="cls-1" x1="552.04" y1="237.12" x2="551.96" y2="237.12"/><line class="cls-1" x1="551.96" y1="237.12" x2="551.79" y2="237.04"/><line class="cls-1" x1="551.79" y1="237.04" x2="540.2" y2="230.4"/><line class="cls-1" x1="540.2" y1="230.4" x2="540.03" y2="230.32"/><line class="cls-1" x1="540.03" y1="230.32" x2="539.86" y2="230.15"/><line class="cls-1" x1="539.86" y1="230.15" x2="539.61" y2="229.82"/><line class="cls-1" x1="539.61" y1="229.82" x2="539.44" y2="229.48"/><line class="cls-1" x1="539.44" y1="229.48" x2="538.52" y2="226.79"/><line class="cls-1" x1="538.52" y1="226.79" x2="538.52" y2="226.62"/><line class="cls-1" x1="538.52" y1="226.62" x2="538.52" y2="226.37"/><line class="cls-1" x1="538.52" y1="226.37" x2="538.6" y2="226.12"/><line class="cls-1" x1="538.6" y1="226.12" x2="538.77" y2="225.95"/><line class="cls-1" x1="538.77" y1="225.95" x2="538.94" y2="225.78"/><line class="cls-1" x1="538.94" y1="225.78" x2="539.1" y2="225.62"/><line class="cls-1" x1="539.1" y1="225.62" x2="539.36" y2="225.62"/><line class="cls-1" x1="539.36" y1="225.62" x2="539.61" y2="225.62"/><line class="cls-1" x1="539.61" y1="225.62" x2="539.86" y2="225.62"/><line class="cls-1" x1="539.86" y1="225.62" x2="540.03" y2="225.7"/><line class="cls-1" x1="540.03" y1="225.7" x2="540.03" y2="225.78"/><line class="cls-1" x1="540.03" y1="225.78" x2="540.2" y2="225.95"/><line class="cls-1" x1="540.2" y1="225.95" x2="540.36" y2="226.12"/><line class="cls-1" x1="540.36" y1="226.12" x2="540.45" y2="226.37"/><line class="cls-1" x1="540.45" y1="226.37" x2="540.78" y2="228.89"/><line class="cls-1" x1="540.78" y1="228.89" x2="540.11" y2="229.06"/><line class="cls-1" x1="540.11" y1="229.06" x2="539.78" y2="226.29"/><line class="cls-1" x1="539.78" y1="226.29" x2="539.69" y2="226.2"/><line class="cls-1" x1="539.69" y1="226.2" x2="539.69" y2="226.2"/><line class="cls-1" x1="539.69" y1="226.2" x2="539.61" y2="226.2"/><line class="cls-1" x1="539.61" y1="226.2" x2="539.61" y2="226.12"/><line class="cls-1" x1="539.61" y1="226.12" x2="539.52" y2="226.12"/><line class="cls-1" x1="539.52" y1="226.12" x2="539.44" y2="226.12"/><line class="cls-1" x1="539.44" y1="226.12" x2="539.36" y2="226.12"/><line class="cls-1" x1="539.36" y1="226.12" x2="539.27" y2="226.2"/><line class="cls-1" x1="539.27" y1="226.2" x2="539.19" y2="226.2"/><line class="cls-1" x1="539.19" y1="226.2" x2="539.19" y2="226.29"/><line class="cls-1" x1="539.19" y1="226.29" x2="539.1" y2="226.37"/><line class="cls-1" x1="539.1" y1="226.37" x2="539.1" y2="226.46"/><line class="cls-1" x1="539.1" y1="226.46" x2="539.1" y2="226.54"/><line class="cls-1" x1="427.47" y1="146.91" x2="427.47" y2="146.91"/><line class="cls-1" x1="427.47" y1="146.91" x2="427.38" y2="146.82"/><line class="cls-1" x1="427.38" y1="146.82" x2="427.3" y2="146.82"/><line class="cls-1" x1="427.3" y1="146.82" x2="427.22" y2="146.82"/><line class="cls-1" x1="427.22" y1="146.82" x2="427.13" y2="146.82"/><line class="cls-1" x1="427.13" y1="146.82" x2="427.05" y2="146.91"/><line class="cls-1" x1="427.05" y1="146.91" x2="426.96" y2="146.91"/><line class="cls-1" x1="426.96" y1="146.91" x2="426.88" y2="146.99"/><line class="cls-1" x1="426.88" y1="146.99" x2="426.88" y2="147.16"/><line class="cls-1" x1="426.88" y1="147.16" x2="426.88" y2="147.24"/><line class="cls-1" x1="426.88" y1="147.24" x2="426.88" y2="147.33"/><line class="cls-1" x1="426.88" y1="147.33" x2="427.3" y2="148.42"/><line class="cls-1" x1="427.3" y1="148.42" x2="427.38" y2="148.59"/><line class="cls-1" x1="427.38" y1="148.59" x2="427.47" y2="148.76"/><line class="cls-1" x1="427.47" y1="148.76" x2="427.55" y2="148.76"/><line class="cls-1" x1="427.55" y1="148.76" x2="427.55" y2="148.84"/><line class="cls-1" x1="432.51" y1="152.45" x2="432.42" y2="152.45"/><line class="cls-1" x1="432.42" y1="152.45" x2="432.34" y2="152.54"/><line class="cls-1" x1="432.34" y1="152.54" x2="432.17" y2="152.54"/><line class="cls-1" x1="432.17" y1="152.54" x2="432.09" y2="152.54"/><line class="cls-1" x1="432.09" y1="152.54" x2="431.42" y2="152.37"/><line class="cls-1" x1="431.42" y1="152.37" x2="431.08" y2="152.28"/><line class="cls-1" x1="431.08" y1="152.28" x2="430.74" y2="152.37"/><line class="cls-1" x1="430.74" y1="152.37" x2="430.41" y2="152.45"/><line class="cls-1" x1="430.41" y1="152.45" x2="430.16" y2="152.7"/><line class="cls-1" x1="430.16" y1="152.7" x2="429.9" y2="152.96"/><line class="cls-1" x1="429.9" y1="152.96" x2="429.82" y2="153.29"/><line class="cls-1" x1="429.82" y1="153.29" x2="429.74" y2="153.63"/><line class="cls-1" x1="429.74" y1="153.63" x2="429.74" y2="153.96"/><line class="cls-1" x1="429.74" y1="153.96" x2="429.9" y2="154.3"/><line class="cls-1" x1="429.9" y1="154.3" x2="431.08" y2="156.32"/><line class="cls-1" x1="431.08" y1="156.32" x2="431.16" y2="156.57"/><line class="cls-1" x1="431.16" y1="156.57" x2="431.16" y2="156.74"/><line class="cls-1" x1="431.16" y1="156.74" x2="431.16" y2="156.99"/><line class="cls-1" x1="431.16" y1="156.99" x2="431.08" y2="157.16"/><line class="cls-1" x1="431.08" y1="157.16" x2="431" y2="157.32"/><line class="cls-1" x1="431" y1="157.32" x2="430.83" y2="157.49"/><line class="cls-1" x1="430.83" y1="157.49" x2="430.66" y2="157.58"/><line class="cls-1" x1="430.66" y1="157.58" x2="430.49" y2="157.66"/><line class="cls-1" x1="430.49" y1="157.66" x2="430.24" y2="157.74"/><line class="cls-1" x1="430.24" y1="157.74" x2="413.78" y2="157.74"/><line class="cls-1" x1="413.78" y1="157.74" x2="413.61" y2="157.66"/><line class="cls-1" x1="413.61" y1="157.66" x2="413.36" y2="157.66"/><line class="cls-1" x1="413.36" y1="157.66" x2="413.19" y2="157.49"/><line class="cls-1" x1="413.19" y1="157.49" x2="413.02" y2="157.41"/><line class="cls-1" x1="413.02" y1="157.41" x2="412.68" y2="157.07"/><line class="cls-1" x1="412.68" y1="157.07" x2="412.52" y2="156.99"/><line class="cls-1" x1="412.52" y1="156.99" x2="412.43" y2="156.99"/><line class="cls-1" x1="412.43" y1="156.99" x2="412.26" y2="156.9"/><line class="cls-1" x1="412.26" y1="156.9" x2="412.1" y2="156.99"/><line class="cls-1" x1="412.1" y1="156.99" x2="411.93" y2="156.99"/><line class="cls-1" x1="411.93" y1="156.99" x2="411.76" y2="157.16"/><line class="cls-1" x1="411.76" y1="157.16" x2="411.34" y2="157.41"/><line class="cls-1" x1="411.34" y1="157.41" x2="411.17" y2="157.58"/><line class="cls-1" x1="411.17" y1="157.58" x2="411" y2="157.66"/><line class="cls-1" x1="411" y1="157.66" x2="410.84" y2="157.66"/><line class="cls-1" x1="410.84" y1="157.66" x2="410.58" y2="157.74"/><line class="cls-1" x1="410.58" y1="157.74" x2="394.54" y2="157.74"/><line class="cls-1" x1="394.54" y1="157.74" x2="394.29" y2="157.66"/><line class="cls-1" x1="394.29" y1="157.66" x2="394.12" y2="157.66"/><line class="cls-1" x1="394.12" y1="157.66" x2="393.87" y2="157.58"/><line class="cls-1" x1="393.87" y1="157.58" x2="393.7" y2="157.41"/><line class="cls-1" x1="393.7" y1="157.41" x2="393.36" y2="157.07"/><line class="cls-1" x1="393.36" y1="157.07" x2="393.2" y2="156.99"/><line class="cls-1" x1="393.2" y1="156.99" x2="393.11" y2="156.99"/><line class="cls-1" x1="393.11" y1="156.99" x2="392.94" y2="156.99"/><line class="cls-1" x1="392.94" y1="156.99" x2="392.78" y2="156.99"/><line class="cls-1" x1="392.78" y1="156.99" x2="392.61" y2="156.99"/><line class="cls-1" x1="392.61" y1="156.99" x2="392.44" y2="157.16"/><line class="cls-1" x1="392.44" y1="157.16" x2="392.1" y2="157.41"/><line class="cls-1" x1="392.1" y1="157.41" x2="391.94" y2="157.58"/><line class="cls-1" x1="391.94" y1="157.58" x2="391.68" y2="157.66"/><line class="cls-1" x1="391.68" y1="157.66" x2="391.52" y2="157.66"/><line class="cls-1" x1="391.52" y1="157.66" x2="391.26" y2="157.74"/><line class="cls-1" x1="391.26" y1="157.74" x2="375.3" y2="157.74"/><line class="cls-1" x1="375.3" y1="157.74" x2="375.14" y2="157.66"/><line class="cls-1" x1="375.14" y1="157.66" x2="374.88" y2="157.66"/><line class="cls-1" x1="374.88" y1="157.66" x2="374.72" y2="157.58"/><line class="cls-1" x1="374.72" y1="157.58" x2="374.55" y2="157.41"/><line class="cls-1" x1="374.55" y1="157.41" x2="374.13" y2="157.07"/><line class="cls-1" x1="374.13" y1="157.07" x2="374.04" y2="156.99"/><line class="cls-1" x1="374.04" y1="156.99" x2="373.88" y2="156.99"/><line class="cls-1" x1="373.88" y1="156.99" x2="373.79" y2="156.99"/><line class="cls-1" x1="373.79" y1="156.99" x2="373.54" y2="156.99"/><line class="cls-1" x1="373.54" y1="156.99" x2="373.37" y2="157.07"/><line class="cls-1" x1="373.37" y1="157.07" x2="373.29" y2="157.16"/><line class="cls-1" x1="373.29" y1="157.16" x2="372.87" y2="157.41"/><line class="cls-1" x1="372.87" y1="157.41" x2="372.7" y2="157.58"/><line class="cls-1" x1="372.7" y1="157.58" x2="372.53" y2="157.66"/><line class="cls-1" x1="372.53" y1="157.66" x2="372.36" y2="157.66"/><line class="cls-1" x1="372.36" y1="157.66" x2="372.11" y2="157.74"/><line class="cls-1" x1="372.11" y1="157.74" x2="356.91" y2="157.74"/><line class="cls-1" x1="356.15" y1="152.37" x2="356.15" y2="152.28"/><line class="cls-1" x1="356.15" y1="152.28" x2="356.15" y2="152.12"/><line class="cls-1" x1="356.15" y1="152.12" x2="353.63" y2="146.82"/><line class="cls-1" x1="353.63" y1="146.82" x2="353.55" y2="146.66"/><line class="cls-1" x1="353.55" y1="146.66" x2="353.46" y2="146.49"/><line class="cls-1" x1="353.46" y1="146.49" x2="353.3" y2="146.4"/><line class="cls-1" x1="353.3" y1="146.4" x2="353.04" y2="146.32"/><line class="cls-1" x1="353.04" y1="146.32" x2="352.88" y2="146.32"/><line class="cls-1" x1="352.88" y1="146.32" x2="348.42" y2="146.32"/><line class="cls-1" x1="348.42" y1="146.32" x2="348.26" y2="146.32"/><line class="cls-1" x1="348.26" y1="146.32" x2="348.09" y2="146.4"/><line class="cls-1" x1="348.09" y1="146.4" x2="348" y2="146.49"/><line class="cls-1" x1="348" y1="146.49" x2="347.84" y2="146.57"/><line class="cls-1" x1="347.84" y1="146.57" x2="347.67" y2="146.74"/><line class="cls-1" x1="347.67" y1="146.74" x2="345.06" y2="151.36"/><line class="cls-1" x1="345.06" y1="151.36" x2="344.98" y2="151.53"/><line class="cls-1" x1="344.98" y1="151.53" x2="344.9" y2="151.7"/><line class="cls-1" x1="344.9" y1="151.7" x2="344.9" y2="151.78"/><line class="cls-1" x1="540.11" y1="229.06" x2="539.94" y2="228.89"/><line class="cls-1" x1="548.09" y1="250.73" x2="431" y2="157.32"/><line class="cls-1" x1="505.5" y1="251.4" x2="413.36" y2="157.66"/><line class="cls-1" x1="502.9" y1="249.81" x2="412.26" y2="156.9"/><line class="cls-1" x1="499.88" y1="251.49" x2="411" y2="157.66"/><line class="cls-1" x1="458.97" y1="251.49" x2="394.12" y2="157.66"/><line class="cls-1" x1="456.2" y1="249.81" x2="392.94" y2="156.99"/><line class="cls-1" x1="453.26" y1="251.49" x2="391.68" y2="157.66"/><line class="cls-1" x1="539.44" y1="226.12" x2="539.78" y2="226.29"/><line class="cls-1" x1="345.23" y1="229.56" x2="345.06" y2="238.72"/><line class="cls-1" x1="345.23" y1="229.56" x2="345.06" y2="239.39"/><line class="cls-1" x1="347.58" y1="224.78" x2="348" y2="146.49"/><line class="cls-1" x1="360.44" y1="224.78" x2="353.3" y2="146.4"/><line class="cls-1" x1="364.64" y1="251.15" x2="363.54" y2="240.65"/><line class="cls-1" x1="406.89" y1="251.49" x2="372.53" y2="157.66"/><line class="cls-1" x1="409.83" y1="249.89" x2="373.79" y2="156.99"/><line class="cls-1" x1="412.6" y1="251.57" x2="374.88" y2="157.66"/><line class="cls-1" x1="178.16" y1="236.62" x2="173.62" y2="240.4"/><line class="cls-1" x1="357.5" y1="233.18" x2="358.08" y2="242.25"/><line class="cls-1" x1="362.28" y1="249.3" x2="362.2" y2="247.54"/><line class="cls-1" x1="270.47" y1="146.49" x2="159.68" y2="224.86"/><line class="cls-1" x1="179.33" y1="240.65" x2="278.45" y2="153.04"/><line class="cls-1" x1="365.98" y1="238.05" x2="365.9" y2="236.96"/><line class="cls-1" x1="350.94" y1="225.11" x2="350.94" y2="226.62"/><line class="cls-1" x1="351.62" y1="226.62" x2="352.62" y2="229.4"/><line class="cls-1" x1="352.62" y1="229.4" x2="352.71" y2="229.65"/><line class="cls-1" x1="352.71" y1="229.65" x2="352.88" y2="229.82"/><line class="cls-1" x1="352.88" y1="229.82" x2="353.04" y2="229.9"/><line class="cls-1" x1="353.04" y1="229.9" x2="365.06" y2="236.62"/><line class="cls-1" x1="365.06" y1="236.62" x2="365.48" y2="236.96"/><line class="cls-1" x1="365.48" y1="236.96" x2="365.73" y2="237.29"/><line class="cls-1" x1="365.73" y1="237.29" x2="365.9" y2="237.63"/><line class="cls-1" x1="365.9" y1="237.63" x2="365.98" y2="238.05"/><line class="cls-1" x1="365.98" y1="238.05" x2="365.98" y2="238.05"/><line class="cls-1" x1="365.98" y1="238.05" x2="365.98" y2="238.55"/><line class="cls-1" x1="365.98" y1="238.55" x2="365.9" y2="238.97"/><line class="cls-1" x1="365.9" y1="238.97" x2="365.64" y2="239.31"/><line class="cls-1" x1="365.64" y1="239.31" x2="365.39" y2="239.64"/><line class="cls-1" x1="365.39" y1="239.64" x2="364.97" y2="239.9"/><line class="cls-1" x1="364.97" y1="239.9" x2="364.55" y2="240.06"/><line class="cls-1" x1="364.55" y1="240.06" x2="364.13" y2="240.06"/><line class="cls-1" x1="364.13" y1="240.06" x2="363.63" y2="239.98"/><line class="cls-1" x1="363.63" y1="239.98" x2="361.95" y2="239.56"/><line class="cls-1" x1="361.95" y1="239.56" x2="361.28" y2="239.48"/><line class="cls-1" x1="361.28" y1="239.48" x2="360.6" y2="239.56"/><line class="cls-1" x1="360.6" y1="239.56" x2="360.02" y2="239.81"/><line class="cls-1" x1="360.02" y1="239.81" x2="359.51" y2="240.23"/><line class="cls-1" x1="359.51" y1="240.23" x2="359.09" y2="240.74"/><line class="cls-1" x1="359.09" y1="240.74" x2="358.84" y2="241.32"/><line class="cls-1" x1="358.84" y1="241.32" x2="358.76" y2="242"/><line class="cls-1" x1="358.76" y1="242" x2="358.76" y2="242.16"/><line class="cls-1" x1="358.76" y1="242.16" x2="358.84" y2="242.67"/><line class="cls-1" x1="358.84" y1="242.67" x2="359.09" y2="243.26"/><line class="cls-1" x1="359.09" y1="243.26" x2="361.95" y2="248.21"/><line class="cls-1" x1="361.95" y1="248.21" x2="362.2" y2="248.8"/><line class="cls-1" x1="362.2" y1="248.8" x2="362.28" y2="249.3"/><line class="cls-1" x1="362.28" y1="249.3" x2="362.37" y2="249.39"/><line class="cls-1" x1="362.37" y1="249.39" x2="362.28" y2="250.06"/><line class="cls-1" x1="362.28" y1="250.06" x2="362.12" y2="250.65"/><line class="cls-1" x1="362.12" y1="250.65" x2="361.78" y2="251.24"/><line class="cls-1" x1="361.78" y1="251.24" x2="361.28" y2="251.74"/><line class="cls-1" x1="361.28" y1="251.74" x2="360.77" y2="252.08"/><line class="cls-1" x1="360.77" y1="252.08" x2="360.1" y2="252.24"/><line class="cls-1" x1="360.1" y1="252.24" x2="359.51" y2="252.33"/><line class="cls-1" x1="359.51" y1="252.33" x2="319.61" y2="252.41"/><line class="cls-1" x1="319.61" y1="252.41" x2="318.86" y2="252.33"/><line class="cls-1" x1="318.86" y1="252.33" x2="318.1" y2="251.99"/><line class="cls-1" x1="318.1" y1="251.99" x2="317.43" y2="251.57"/><line class="cls-1" x1="317.43" y1="251.57" x2="316.42" y2="250.82"/><line class="cls-1" x1="316.42" y1="250.82" x2="316.25" y2="250.65"/><line class="cls-1" x1="316.25" y1="250.65" x2="316" y2="250.56"/><line class="cls-1" x1="316" y1="250.56" x2="315.83" y2="250.56"/><line class="cls-1" x1="315.83" y1="250.56" x2="315.58" y2="250.56"/><line class="cls-1" x1="315.58" y1="250.56" x2="315.33" y2="250.65"/><line class="cls-1" x1="315.33" y1="250.65" x2="315.16" y2="250.82"/><line class="cls-1" x1="315.16" y1="250.82" x2="314.15" y2="251.57"/><line class="cls-1" x1="314.15" y1="251.57" x2="313.48" y2="251.99"/><line class="cls-1" x1="313.48" y1="251.99" x2="312.72" y2="252.33"/><line class="cls-1" x1="312.72" y1="252.33" x2="311.97" y2="252.41"/><line class="cls-1" x1="311.97" y1="252.41" x2="272.99" y2="252.41"/><line class="cls-1" x1="272.99" y1="252.41" x2="272.15" y2="252.33"/><line class="cls-1" x1="272.15" y1="252.33" x2="271.4" y2="252.08"/><line class="cls-1" x1="271.4" y1="252.08" x2="270.72" y2="251.66"/><line class="cls-1" x1="270.72" y1="251.66" x2="269.72" y2="250.82"/><line class="cls-1" x1="269.72" y1="250.82" x2="269.55" y2="250.65"/><line class="cls-1" x1="269.55" y1="250.65" x2="269.38" y2="250.65"/><line class="cls-1" x1="269.38" y1="250.65" x2="269.13" y2="250.56"/><line class="cls-1" x1="269.13" y1="250.56" x2="268.88" y2="250.65"/><line class="cls-1" x1="268.88" y1="250.65" x2="268.71" y2="250.65"/><line class="cls-1" x1="268.71" y1="250.65" x2="268.46" y2="250.82"/><line class="cls-1" x1="268.46" y1="250.82" x2="267.53" y2="251.66"/><line class="cls-1" x1="267.53" y1="251.66" x2="266.86" y2="252.08"/><line class="cls-1" x1="266.86" y1="252.08" x2="266.1" y2="252.33"/><line class="cls-1" x1="266.1" y1="252.33" x2="265.26" y2="252.41"/><line class="cls-1" x1="265.26" y1="252.41" x2="226.54" y2="252.41"/><line class="cls-1" x1="226.54" y1="252.41" x2="225.78" y2="252.33"/><line class="cls-1" x1="225.78" y1="252.33" x2="225.03" y2="252.08"/><line class="cls-1" x1="225.03" y1="252.08" x2="224.27" y2="251.66"/><line class="cls-1" x1="224.27" y1="251.66" x2="223.26" y2="250.82"/><line class="cls-1" x1="223.26" y1="250.82" x2="223.1" y2="250.73"/><line class="cls-1" x1="223.1" y1="250.73" x2="222.93" y2="250.65"/><line class="cls-1" x1="222.93" y1="250.65" x2="222.68" y2="250.65"/><line class="cls-1" x1="222.68" y1="250.65" x2="222.42" y2="250.65"/><line class="cls-1" x1="222.42" y1="250.65" x2="222.26" y2="250.73"/><line class="cls-1" x1="222.26" y1="250.73" x2="222.09" y2="250.82"/><line class="cls-1" x1="222.09" y1="250.82" x2="221.08" y2="251.66"/><line class="cls-1" x1="221.08" y1="251.66" x2="220.41" y2="252.08"/><line class="cls-1" x1="220.41" y1="252.08" x2="219.65" y2="252.33"/><line class="cls-1" x1="219.65" y1="252.33" x2="218.9" y2="252.41"/><line class="cls-1" x1="218.9" y1="252.41" x2="179.33" y2="252.5"/><line class="cls-1" x1="179.33" y1="252.5" x2="178.49" y2="252.41"/><line class="cls-1" x1="178.49" y1="252.41" x2="177.65" y2="252.08"/><line class="cls-1" x1="177.65" y1="252.08" x2="176.98" y2="251.57"/><line class="cls-1" x1="176.98" y1="251.57" x2="176.39" y2="250.98"/><line class="cls-1" x1="176.39" y1="250.98" x2="175.97" y2="250.23"/><line class="cls-1" x1="175.97" y1="250.23" x2="173.03" y2="242.84"/><line class="cls-1" x1="173.03" y1="242.84" x2="172.86" y2="242.33"/><line class="cls-1" x1="172.86" y1="242.33" x2="172.86" y2="241.83"/><line class="cls-1" x1="172.86" y1="241.83" x2="173.03" y2="241.32"/><line class="cls-1" x1="173.03" y1="241.32" x2="173.2" y2="240.82"/><line class="cls-1" x1="173.2" y1="240.82" x2="173.54" y2="240.48"/><line class="cls-1" x1="173.54" y1="240.48" x2="173.62" y2="240.4"/><line class="cls-1" x1="173.62" y1="240.4" x2="173.96" y2="240.15"/><line class="cls-1" x1="173.96" y1="240.15" x2="174.46" y2="239.98"/><line class="cls-1" x1="174.46" y1="239.98" x2="174.96" y2="239.9"/><line class="cls-1" x1="174.96" y1="239.9" x2="175.47" y2="239.98"/><line class="cls-1" x1="175.47" y1="239.98" x2="177.74" y2="240.48"/><line class="cls-1" x1="177.74" y1="240.48" x2="178.07" y2="240.48"/><line class="cls-1" x1="178.07" y1="240.48" x2="178.41" y2="240.4"/><line class="cls-1" x1="178.41" y1="240.4" x2="178.66" y2="240.32"/><line class="cls-1" x1="178.66" y1="240.32" x2="178.91" y2="240.15"/><line class="cls-1" x1="178.91" y1="240.15" x2="178.91" y2="240.15"/><line class="cls-1" x1="178.91" y1="240.15" x2="179.16" y2="239.9"/><line class="cls-1" x1="179.16" y1="239.9" x2="179.25" y2="239.56"/><line class="cls-1" x1="179.25" y1="239.56" x2="179.33" y2="239.31"/><line class="cls-1" x1="179.33" y1="239.31" x2="179.25" y2="238.97"/><line class="cls-1" x1="179.25" y1="238.97" x2="179.16" y2="238.64"/><line class="cls-1" x1="179.16" y1="238.64" x2="172.78" y2="225.95"/><line class="cls-1" x1="172.78" y1="225.95" x2="172.61" y2="225.7"/><line class="cls-1" x1="172.61" y1="225.7" x2="172.44" y2="225.53"/><line class="cls-1" x1="172.44" y1="225.53" x2="172.19" y2="225.36"/><line class="cls-1" x1="172.19" y1="225.36" x2="171.94" y2="225.28"/><line class="cls-1" x1="171.94" y1="225.28" x2="171.6" y2="225.2"/><line class="cls-1" x1="171.6" y1="225.2" x2="160.77" y2="225.2"/><line class="cls-1" x1="160.77" y1="225.2" x2="160.43" y2="225.28"/><line class="cls-1" x1="160.43" y1="225.28" x2="160.1" y2="225.45"/><line class="cls-1" x1="160.1" y1="225.45" x2="160.01" y2="225.45"/><line class="cls-1" x1="160.01" y1="225.45" x2="159.84" y2="225.62"/><line class="cls-1" x1="159.84" y1="225.62" x2="159.68" y2="225.87"/><line class="cls-1" x1="159.68" y1="225.87" x2="153.46" y2="236.96"/><line class="cls-1" x1="153.46" y1="236.96" x2="153.29" y2="237.21"/><line class="cls-1" x1="153.29" y1="237.21" x2="153.29" y2="237.54"/><line class="cls-1" x1="153.29" y1="237.54" x2="153.29" y2="237.8"/><line class="cls-1" x1="153.29" y1="237.8" x2="153.38" y2="238.05"/><line class="cls-1" x1="153.38" y1="238.05" x2="153.54" y2="238.3"/><line class="cls-1" x1="153.54" y1="238.3" x2="153.8" y2="238.55"/><line class="cls-1" x1="153.8" y1="238.55" x2="154.05" y2="238.72"/><line class="cls-1" x1="154.05" y1="238.72" x2="154.3" y2="238.8"/><line class="cls-1" x1="154.3" y1="238.8" x2="154.64" y2="238.89"/><line class="cls-1" x1="154.64" y1="238.89" x2="157.58" y2="238.89"/><line class="cls-1" x1="157.58" y1="238.89" x2="157.58" y2="239.48"/><line class="cls-1" x1="157.58" y1="239.48" x2="154.64" y2="239.48"/><line class="cls-1" x1="154.64" y1="239.48" x2="154.13" y2="239.39"/><line class="cls-1" x1="154.13" y1="239.39" x2="153.63" y2="239.22"/><line class="cls-1" x1="153.63" y1="239.22" x2="153.21" y2="238.89"/><line class="cls-1" x1="153.21" y1="238.89" x2="152.96" y2="238.55"/><line class="cls-1" x1="152.96" y1="238.55" x2="152.7" y2="238.05"/><line class="cls-1" x1="152.7" y1="238.05" x2="152.62" y2="237.54"/><line class="cls-1" x1="152.62" y1="237.54" x2="152.7" y2="237.12"/><line class="cls-1" x1="152.7" y1="237.12" x2="152.87" y2="236.62"/><line class="cls-1" x1="152.87" y1="236.62" x2="159" y2="225.62"/><line class="cls-1" x1="159" y1="225.62" x2="159.34" y2="225.2"/><line class="cls-1" x1="159.34" y1="225.2" x2="159.68" y2="224.86"/><line class="cls-1" x1="159.68" y1="224.86" x2="159.68" y2="224.86"/><line class="cls-1" x1="159.68" y1="224.86" x2="160.01" y2="224.69"/><line class="cls-1" x1="160.01" y1="224.69" x2="160.35" y2="224.61"/><line class="cls-1" x1="160.35" y1="224.61" x2="160.77" y2="224.61"/><line class="cls-1" x1="160.77" y1="224.61" x2="171.52" y2="224.61"/><line class="cls-1" x1="171.52" y1="224.61" x2="172.02" y2="224.69"/><line class="cls-1" x1="172.02" y1="224.69" x2="172.53" y2="224.86"/><line class="cls-1" x1="172.53" y1="224.86" x2="172.86" y2="225.11"/><line class="cls-1" x1="172.86" y1="225.11" x2="173.2" y2="225.36"/><line class="cls-1" x1="173.2" y1="225.36" x2="173.37" y2="225.7"/><line class="cls-1" x1="173.37" y1="225.7" x2="179.75" y2="238.38"/><line class="cls-1" x1="179.75" y1="238.38" x2="179.92" y2="238.89"/><line class="cls-1" x1="179.92" y1="238.89" x2="179.92" y2="239.31"/><line class="cls-1" x1="179.92" y1="239.31" x2="179.84" y2="239.81"/><line class="cls-1" x1="179.84" y1="239.81" x2="179.67" y2="240.23"/><line class="cls-1" x1="179.67" y1="240.23" x2="179.42" y2="240.57"/><line class="cls-1" x1="179.42" y1="240.57" x2="179.33" y2="240.65"/><line class="cls-1" x1="179.33" y1="240.65" x2="179" y2="240.82"/><line class="cls-1" x1="179" y1="240.82" x2="178.58" y2="241.07"/><line class="cls-1" x1="178.58" y1="241.07" x2="178.07" y2="241.07"/><line class="cls-1" x1="178.07" y1="241.07" x2="177.65" y2="241.07"/><line class="cls-1" x1="177.65" y1="241.07" x2="175.38" y2="240.57"/><line class="cls-1" x1="175.38" y1="240.57" x2="175.05" y2="240.57"/><line class="cls-1" x1="175.05" y1="240.57" x2="174.63" y2="240.57"/><line class="cls-1" x1="174.63" y1="240.57" x2="174.29" y2="240.74"/><line class="cls-1" x1="174.29" y1="240.74" x2="174.04" y2="240.9"/><line class="cls-1" x1="174.04" y1="240.9" x2="174.04" y2="240.9"/><line class="cls-1" x1="174.04" y1="240.9" x2="173.79" y2="241.24"/><line class="cls-1" x1="173.79" y1="241.24" x2="173.62" y2="241.49"/><line class="cls-1" x1="173.62" y1="241.49" x2="173.54" y2="241.91"/><line class="cls-1" x1="173.54" y1="241.91" x2="173.54" y2="242.25"/><line class="cls-1" x1="173.54" y1="242.25" x2="173.62" y2="242.58"/><line class="cls-1" x1="173.62" y1="242.58" x2="176.56" y2="249.98"/><line class="cls-1" x1="176.56" y1="249.98" x2="176.81" y2="250.48"/><line class="cls-1" x1="176.81" y1="250.48" x2="177.15" y2="250.9"/><line class="cls-1" x1="177.15" y1="250.9" x2="177.48" y2="251.24"/><line class="cls-1" x1="177.48" y1="251.24" x2="178.07" y2="251.57"/><line class="cls-1" x1="178.07" y1="251.57" x2="178.66" y2="251.74"/><line class="cls-1" x1="178.66" y1="251.74" x2="179.25" y2="251.82"/><line class="cls-1" x1="179.25" y1="251.82" x2="218.81" y2="251.82"/><line class="cls-1" x1="218.81" y1="251.82" x2="219.32" y2="251.74"/><line class="cls-1" x1="219.32" y1="251.74" x2="219.82" y2="251.66"/><line class="cls-1" x1="219.82" y1="251.66" x2="220.32" y2="251.4"/><line class="cls-1" x1="220.32" y1="251.4" x2="220.66" y2="251.15"/><line class="cls-1" x1="220.66" y1="251.15" x2="221.58" y2="250.4"/><line class="cls-1" x1="221.58" y1="250.4" x2="221.92" y2="250.23"/><line class="cls-1" x1="221.92" y1="250.23" x2="222.34" y2="250.06"/><line class="cls-1" x1="222.34" y1="250.06" x2="222.76" y2="249.98"/><line class="cls-1" x1="222.76" y1="249.98" x2="223.1" y2="250.06"/><line class="cls-1" x1="223.1" y1="250.06" x2="223.43" y2="250.14"/><line class="cls-1" x1="223.43" y1="250.14" x2="223.68" y2="250.31"/><line class="cls-1" x1="223.68" y1="250.31" x2="224.61" y2="251.15"/><line class="cls-1" x1="224.61" y1="251.15" x2="225.11" y2="251.4"/><line class="cls-1" x1="225.11" y1="251.4" x2="225.62" y2="251.66"/><line class="cls-1" x1="225.62" y1="251.66" x2="226.04" y2="251.74"/><line class="cls-1" x1="226.04" y1="251.74" x2="226.54" y2="251.82"/><line class="cls-1" x1="226.54" y1="251.82" x2="265.18" y2="251.82"/><line class="cls-1" x1="265.18" y1="251.82" x2="265.68" y2="251.74"/><line class="cls-1" x1="265.68" y1="251.74" x2="266.27" y2="251.66"/><line class="cls-1" x1="266.27" y1="251.66" x2="266.69" y2="251.4"/><line class="cls-1" x1="266.69" y1="251.4" x2="267.11" y2="251.15"/><line class="cls-1" x1="267.11" y1="251.15" x2="268.04" y2="250.4"/><line class="cls-1" x1="268.04" y1="250.4" x2="268.37" y2="250.14"/><line class="cls-1" x1="268.37" y1="250.14" x2="268.79" y2="249.98"/><line class="cls-1" x1="268.79" y1="249.98" x2="269.21" y2="249.98"/><line class="cls-1" x1="269.21" y1="249.98" x2="269.55" y2="249.98"/><line class="cls-1" x1="269.55" y1="249.98" x2="269.88" y2="250.14"/><line class="cls-1" x1="269.88" y1="250.14" x2="270.14" y2="250.31"/><line class="cls-1" x1="270.14" y1="250.31" x2="271.06" y2="251.07"/><line class="cls-1" x1="271.06" y1="251.07" x2="271.48" y2="251.4"/><line class="cls-1" x1="271.48" y1="251.4" x2="271.98" y2="251.57"/><line class="cls-1" x1="271.98" y1="251.57" x2="272.49" y2="251.74"/><line class="cls-1" x1="272.49" y1="251.74" x2="272.99" y2="251.82"/><line class="cls-1" x1="272.99" y1="251.82" x2="311.8" y2="251.74"/><line class="cls-1" x1="311.8" y1="251.74" x2="312.39" y2="251.74"/><line class="cls-1" x1="312.39" y1="251.74" x2="312.89" y2="251.57"/><line class="cls-1" x1="312.89" y1="251.57" x2="313.4" y2="251.4"/><line class="cls-1" x1="313.4" y1="251.4" x2="313.82" y2="251.07"/><line class="cls-1" x1="313.82" y1="251.07" x2="314.66" y2="250.4"/><line class="cls-1" x1="314.66" y1="250.4" x2="314.99" y2="250.14"/><line class="cls-1" x1="314.99" y1="250.14" x2="315.41" y2="249.98"/><line class="cls-1" x1="315.41" y1="249.98" x2="315.92" y2="249.89"/><line class="cls-1" x1="315.92" y1="249.89" x2="316.25" y2="249.98"/><line class="cls-1" x1="316.25" y1="249.98" x2="316.5" y2="250.14"/><line class="cls-1" x1="316.5" y1="250.14" x2="316.84" y2="250.31"/><line class="cls-1" x1="316.84" y1="250.31" x2="317.76" y2="251.07"/><line class="cls-1" x1="317.76" y1="251.07" x2="318.18" y2="251.32"/><line class="cls-1" x1="318.18" y1="251.32" x2="318.6" y2="251.57"/><line class="cls-1" x1="318.6" y1="251.57" x2="319.11" y2="251.74"/><line class="cls-1" x1="319.11" y1="251.74" x2="319.61" y2="251.74"/><line class="cls-1" x1="319.61" y1="251.74" x2="359.51" y2="251.74"/><line class="cls-1" x1="359.51" y1="251.74" x2="360.02" y2="251.66"/><line class="cls-1" x1="360.02" y1="251.66" x2="360.44" y2="251.49"/><line class="cls-1" x1="360.44" y1="251.49" x2="360.86" y2="251.24"/><line class="cls-1" x1="360.86" y1="251.24" x2="361.28" y2="250.9"/><line class="cls-1" x1="361.28" y1="250.9" x2="361.53" y2="250.4"/><line class="cls-1" x1="361.53" y1="250.4" x2="361.7" y2="249.98"/><line class="cls-1" x1="361.7" y1="249.98" x2="361.7" y2="249.47"/><line class="cls-1" x1="361.7" y1="249.47" x2="361.7" y2="249.39"/><line class="cls-1" x1="361.7" y1="249.39" x2="361.61" y2="248.97"/><line class="cls-1" x1="361.61" y1="248.97" x2="361.36" y2="248.46"/><line class="cls-1" x1="361.36" y1="248.46" x2="358.5" y2="243.59"/><line class="cls-1" x1="358.5" y1="243.59" x2="358.17" y2="242.84"/><line class="cls-1" x1="358.17" y1="242.84" x2="358.08" y2="242.25"/><line class="cls-1" x1="358.08" y1="242.25" x2="358.08" y2="242"/><line class="cls-1" x1="358.08" y1="242" x2="358.17" y2="241.16"/><line class="cls-1" x1="358.17" y1="241.16" x2="358.5" y2="240.4"/><line class="cls-1" x1="358.5" y1="240.4" x2="359.01" y2="239.81"/><line class="cls-1" x1="359.01" y1="239.81" x2="359.68" y2="239.31"/><line class="cls-1" x1="359.68" y1="239.31" x2="360.44" y2="238.97"/><line class="cls-1" x1="360.44" y1="238.97" x2="361.28" y2="238.8"/><line class="cls-1" x1="361.28" y1="238.8" x2="362.12" y2="238.97"/><line class="cls-1" x1="362.12" y1="238.97" x2="363.71" y2="239.39"/><line class="cls-1" x1="363.71" y1="239.39" x2="363.96" y2="239.39"/><line class="cls-1" x1="363.96" y1="239.39" x2="364.3" y2="239.39"/><line class="cls-1" x1="364.3" y1="239.39" x2="364.55" y2="239.31"/><line class="cls-1" x1="364.55" y1="239.31" x2="364.8" y2="239.14"/><line class="cls-1" x1="364.8" y1="239.14" x2="365.06" y2="238.89"/><line class="cls-1" x1="365.06" y1="238.89" x2="365.14" y2="238.64"/><line class="cls-1" x1="365.14" y1="238.64" x2="365.22" y2="238.3"/><line class="cls-1" x1="365.22" y1="238.3" x2="365.22" y2="238.05"/><line class="cls-1" x1="365.22" y1="238.05" x2="365.22" y2="238.05"/><line class="cls-1" x1="365.22" y1="238.05" x2="365.14" y2="237.71"/><line class="cls-1" x1="365.14" y1="237.71" x2="365.06" y2="237.46"/><line class="cls-1" x1="365.06" y1="237.46" x2="364.8" y2="237.29"/><line class="cls-1" x1="364.8" y1="237.29" x2="364.55" y2="237.12"/><line class="cls-1" x1="364.55" y1="237.12" x2="352.79" y2="230.49"/><line class="cls-1" x1="352.79" y1="230.49" x2="352.46" y2="230.24"/><line class="cls-1" x1="352.46" y1="230.24" x2="352.2" y2="229.98"/><line class="cls-1" x1="352.2" y1="229.98" x2="352.04" y2="229.56"/><line class="cls-1" x1="352.04" y1="229.56" x2="351.03" y2="226.96"/><line class="cls-1" x1="351.03" y1="226.96" x2="350.94" y2="226.71"/><line class="cls-1" x1="350.94" y1="226.71" x2="350.94" y2="226.62"/><line class="cls-1" x1="350.94" y1="226.62" x2="351.03" y2="226.46"/><line class="cls-1" x1="351.03" y1="226.46" x2="351.03" y2="226.2"/><line class="cls-1" x1="351.03" y1="226.2" x2="351.2" y2="226.04"/><line class="cls-1" x1="351.2" y1="226.04" x2="351.36" y2="225.87"/><line class="cls-1" x1="351.36" y1="225.87" x2="351.62" y2="225.7"/><line class="cls-1" x1="351.62" y1="225.7" x2="351.78" y2="225.7"/><line class="cls-1" x1="351.78" y1="225.7" x2="352.04" y2="225.7"/><line class="cls-1" x1="352.04" y1="225.7" x2="352.29" y2="225.7"/><line class="cls-1" x1="352.29" y1="225.7" x2="352.54" y2="225.87"/><line class="cls-1" x1="352.54" y1="225.87" x2="352.71" y2="226.04"/><line class="cls-1" x1="352.71" y1="226.04" x2="352.79" y2="226.2"/><line class="cls-1" x1="352.79" y1="226.2" x2="352.88" y2="226.46"/><line class="cls-1" x1="352.88" y1="226.46" x2="353.3" y2="229.06"/><line class="cls-1" x1="353.3" y1="229.06" x2="352.62" y2="229.14"/><line class="cls-1" x1="352.62" y1="229.14" x2="352.2" y2="226.37"/><line class="cls-1" x1="352.2" y1="226.37" x2="352.2" y2="226.37"/><line class="cls-1" x1="352.2" y1="226.37" x2="352.12" y2="226.29"/><line class="cls-1" x1="352.12" y1="226.29" x2="352.04" y2="226.2"/><line class="cls-1" x1="352.04" y1="226.2" x2="351.95" y2="226.2"/><line class="cls-1" x1="351.95" y1="226.2" x2="351.87" y2="226.2"/><line class="cls-1" x1="351.87" y1="226.2" x2="351.78" y2="226.2"/><line class="cls-1" x1="351.78" y1="226.2" x2="351.7" y2="226.29"/><line class="cls-1" x1="351.7" y1="226.29" x2="351.7" y2="226.29"/><line class="cls-1" x1="351.7" y1="226.29" x2="351.62" y2="226.37"/><line class="cls-1" x1="351.62" y1="226.37" x2="351.62" y2="226.46"/><line class="cls-1" x1="351.62" y1="226.46" x2="351.62" y2="226.54"/><line class="cls-1" x1="351.62" y1="226.54" x2="351.62" y2="226.54"/><line class="cls-1" x1="351.62" y1="226.54" x2="351.62" y2="226.62"/><line class="cls-1" x1="344.56" y1="157.74" x2="336.41" y2="157.74"/><line class="cls-1" x1="336.41" y1="157.74" x2="336.24" y2="157.74"/><line class="cls-1" x1="336.24" y1="157.74" x2="335.99" y2="157.66"/><line class="cls-1" x1="335.99" y1="157.66" x2="335.82" y2="157.58"/><line class="cls-1" x1="335.82" y1="157.58" x2="335.66" y2="157.41"/><line class="cls-1" x1="335.66" y1="157.41" x2="335.24" y2="157.16"/><line class="cls-1" x1="335.24" y1="157.16" x2="335.15" y2="157.07"/><line class="cls-1" x1="335.15" y1="157.07" x2="335.07" y2="156.99"/><line class="cls-1" x1="335.07" y1="156.99" x2="334.9" y2="156.99"/><line class="cls-1" x1="334.9" y1="156.99" x2="334.73" y2="156.99"/><line class="cls-1" x1="334.73" y1="156.99" x2="334.56" y2="157.07"/><line class="cls-1" x1="334.56" y1="157.07" x2="334.4" y2="157.16"/><line class="cls-1" x1="334.4" y1="157.16" x2="333.98" y2="157.49"/><line class="cls-1" x1="333.98" y1="157.49" x2="333.81" y2="157.58"/><line class="cls-1" x1="333.81" y1="157.58" x2="333.64" y2="157.66"/><line class="cls-1" x1="333.64" y1="157.66" x2="333.47" y2="157.74"/><line class="cls-1" x1="333.47" y1="157.74" x2="333.22" y2="157.74"/><line class="cls-1" x1="333.22" y1="157.74" x2="317.09" y2="157.74"/><line class="cls-1" x1="317.09" y1="157.74" x2="316.92" y2="157.74"/><line class="cls-1" x1="316.92" y1="157.74" x2="316.76" y2="157.66"/><line class="cls-1" x1="316.76" y1="157.66" x2="316.5" y2="157.58"/><line class="cls-1" x1="316.5" y1="157.58" x2="316.34" y2="157.41"/><line class="cls-1" x1="316.34" y1="157.41" x2="316" y2="157.16"/><line class="cls-1" x1="316" y1="157.16" x2="315.83" y2="157.07"/><line class="cls-1" x1="315.83" y1="157.07" x2="315.75" y2="156.99"/><line class="cls-1" x1="315.75" y1="156.99" x2="315.58" y2="156.99"/><line class="cls-1" x1="315.58" y1="156.99" x2="315.41" y2="156.99"/><line class="cls-1" x1="315.41" y1="156.99" x2="315.24" y2="157.07"/><line class="cls-1" x1="315.24" y1="157.07" x2="315.08" y2="157.16"/><line class="cls-1" x1="315.08" y1="157.16" x2="314.74" y2="157.49"/><line class="cls-1" x1="314.74" y1="157.49" x2="314.57" y2="157.58"/><line class="cls-1" x1="314.57" y1="157.58" x2="314.32" y2="157.66"/><line class="cls-1" x1="314.32" y1="157.66" x2="314.15" y2="157.74"/><line class="cls-1" x1="314.15" y1="157.74" x2="313.9" y2="157.74"/><line class="cls-1" x1="313.9" y1="157.74" x2="297.94" y2="157.74"/><line class="cls-1" x1="297.94" y1="157.74" x2="297.69" y2="157.74"/><line class="cls-1" x1="297.69" y1="157.74" x2="297.52" y2="157.66"/><line class="cls-1" x1="297.52" y1="157.66" x2="297.35" y2="157.58"/><line class="cls-1" x1="297.35" y1="157.58" x2="297.18" y2="157.41"/><line class="cls-1" x1="297.18" y1="157.41" x2="296.76" y2="157.16"/><line class="cls-1" x1="296.76" y1="157.16" x2="296.68" y2="157.07"/><line class="cls-1" x1="296.68" y1="157.07" x2="296.51" y2="156.99"/><line class="cls-1" x1="296.51" y1="156.99" x2="296.34" y2="156.99"/><line class="cls-1" x1="296.34" y1="156.99" x2="296.18" y2="156.99"/><line class="cls-1" x1="296.18" y1="156.99" x2="296.01" y2="157.07"/><line class="cls-1" x1="296.01" y1="157.07" x2="295.84" y2="157.16"/><line class="cls-1" x1="295.84" y1="157.16" x2="295.5" y2="157.49"/><line class="cls-1" x1="295.5" y1="157.49" x2="295.34" y2="157.58"/><line class="cls-1" x1="295.34" y1="157.58" x2="295.17" y2="157.66"/><line class="cls-1" x1="295.17" y1="157.66" x2="294.92" y2="157.74"/><line class="cls-1" x1="294.92" y1="157.74" x2="294.75" y2="157.74"/><line class="cls-1" x1="294.75" y1="157.74" x2="278.37" y2="157.74"/><line class="cls-1" x1="278.37" y1="157.74" x2="278.12" y2="157.74"/><line class="cls-1" x1="278.12" y1="157.74" x2="277.86" y2="157.66"/><line class="cls-1" x1="277.86" y1="157.66" x2="277.7" y2="157.49"/><line class="cls-1" x1="277.7" y1="157.49" x2="277.53" y2="157.32"/><line class="cls-1" x1="277.53" y1="157.32" x2="277.36" y2="157.16"/><line class="cls-1" x1="277.36" y1="157.16" x2="277.28" y2="156.99"/><line class="cls-1" x1="277.28" y1="156.99" x2="276.44" y2="154.8"/><line class="cls-1" x1="278.45" y1="153.04" x2="278.54" y2="153.04"/><line class="cls-1" x1="278.54" y1="153.04" x2="278.62" y2="152.87"/><line class="cls-1" x1="278.62" y1="152.87" x2="278.7" y2="152.7"/><line class="cls-1" x1="278.7" y1="152.7" x2="278.7" y2="152.54"/><line class="cls-1" x1="278.7" y1="152.54" x2="278.7" y2="152.28"/><line class="cls-1" x1="278.7" y1="152.28" x2="278.62" y2="152.12"/><line class="cls-1" x1="278.62" y1="152.12" x2="276.1" y2="146.82"/><line class="cls-1" x1="276.1" y1="146.82" x2="276.02" y2="146.66"/><line class="cls-1" x1="276.02" y1="146.66" x2="275.93" y2="146.57"/><line class="cls-1" x1="275.93" y1="146.57" x2="275.76" y2="146.49"/><line class="cls-1" x1="275.76" y1="146.49" x2="275.6" y2="146.4"/><line class="cls-1" x1="275.6" y1="146.4" x2="275.34" y2="146.32"/><line class="cls-1" x1="275.34" y1="146.32" x2="270.89" y2="146.32"/><line class="cls-1" x1="270.89" y1="146.32" x2="270.72" y2="146.32"/><line class="cls-1" x1="270.72" y1="146.32" x2="270.64" y2="146.4"/><line class="cls-1" x1="270.64" y1="146.4" x2="270.47" y2="146.49"/><line class="cls-1" x1="270.47" y1="146.49" x2="270.47" y2="146.49"/><line class="cls-1" x1="353.3" y1="229.06" x2="353.13" y2="225.11"/><line class="cls-1" x1="361.28" y1="250.9" x2="361.02" y2="247.79"/><line class="cls-1" x1="318.6" y1="251.57" x2="335.99" y2="157.66"/><line class="cls-1" x1="315.92" y1="249.89" x2="334.9" y2="156.99"/><line class="cls-1" x1="312.89" y1="251.57" x2="333.64" y2="157.66"/><line class="cls-1" x1="271.98" y1="251.57" x2="316.76" y2="157.66"/><line class="cls-1" x1="269.21" y1="249.98" x2="315.58" y2="156.99"/><line class="cls-1" x1="266.27" y1="251.66" x2="314.32" y2="157.66"/><line class="cls-1" x1="173.2" y1="226.79" x2="157.58" y2="238.89"/><line class="cls-1" x1="173.45" y1="227.21" x2="157.58" y2="239.48"/><line class="cls-1" x1="159.68" y1="224.86" x2="270.47" y2="146.49"/><line class="cls-1" x1="172.53" y1="224.86" x2="275.76" y2="146.49"/><line class="cls-1" x1="177.48" y1="251.24" x2="277.7" y2="157.49"/><line class="cls-1" x1="219.82" y1="251.66" x2="295.17" y2="157.66"/><line class="cls-1" x1="222.76" y1="249.98" x2="296.34" y2="156.99"/><line class="cls-1" x1="225.62" y1="251.66" x2="297.52" y2="157.66"/></g><g id="Dimensions"><line class="cls-2" x1="166.1" y1="262.07" x2="166.1" y2="280.8"/><line class="cls-2" x1="161.3" y1="277.78" x2="360.72" y2="277.78"/><line class="cls-2" x1="354.39" y1="280.8" x2="354.39" y2="262.07"/><line class="cls-2" x1="141.91" y1="225.87" x2="121.16" y2="225.87"/><line class="cls-2" x1="141.91" y1="252.08" x2="121.16" y2="252.08"/><line class="cls-2" x1="124.19" y1="254.68" x2="124.19" y2="222.84"/><line class="cls-3" x1="124.19" y1="225.87" x2="126.96" y2="223.1"/><line class="cls-3" x1="124.19" y1="225.87" x2="121.33" y2="228.64"/><line class="cls-3" x1="124.19" y1="252.08" x2="126.96" y2="249.22"/><line class="cls-3" x1="124.19" y1="252.08" x2="121.33" y2="254.85"/><line class="cls-3" x1="166.1" y1="277.78" x2="168.88" y2="275.01"/><line class="cls-3" x1="166.1" y1="277.78" x2="163.33" y2="280.55"/><line class="cls-3" x1="354.39" y1="277.78" x2="357.16" y2="275.01"/><line class="cls-3" x1="354.39" y1="277.78" x2="351.53" y2="280.55"/><path d="M204.48,294.14v1.36h-6.21a3.79,3.79,0,0,1,.5-1.84,10.09,10.09,0,0,1,1.9-2.4,13.65,13.65,0,0,0,2.12-2.49,3.39,3.39,0,0,0,.5-1.64,2,2,0,0,0-.52-1.43,1.74,1.74,0,0,0-2.58.05,2.55,2.55,0,0,0-.51,1.71l-1.19-.15a3.83,3.83,0,0,1,.93-2.48,2.82,2.82,0,0,1,2.13-.83,2.59,2.59,0,0,1,2.18,1,3.56,3.56,0,0,1,.73,2.21,4.19,4.19,0,0,1-.57,2.09,15.75,15.75,0,0,1-2.2,2.68,19.55,19.55,0,0,0-1.33,1.44,4.64,4.64,0,0,0-.49.76Z"/><path d="M205.87,292.85l1.11-.13c.18,1.21.7,1.82,1.56,1.82a1.6,1.6,0,0,0,1.05-.4,2.9,2.9,0,0,0,.8-1.4,7.58,7.58,0,0,0,.33-2.35v-.28a2.88,2.88,0,0,1-1,1.1,2.2,2.2,0,0,1-1.24.4,2.51,2.51,0,0,1-2-1,4.22,4.22,0,0,1-.83-2.75,4.33,4.33,0,0,1,.86-2.83,2.64,2.64,0,0,1,3.73-.46,3.63,3.63,0,0,1,1.17,1.71,9.69,9.69,0,0,1,.42,3.24,11.69,11.69,0,0,1-.45,3.66,4,4,0,0,1-1.2,1.91,2.7,2.7,0,0,1-1.71.6,2.41,2.41,0,0,1-1.79-.73A3.38,3.38,0,0,1,205.87,292.85Zm4.73-5.06a3,3,0,0,0-.55-1.93,1.6,1.6,0,0,0-1.26-.71,1.67,1.67,0,0,0-1.33.75,3.18,3.18,0,0,0-.58,2,2.7,2.7,0,0,0,.55,1.79,1.69,1.69,0,0,0,1.34.67,1.61,1.61,0,0,0,1.3-.67A3.06,3.06,0,0,0,210.6,287.79Z"/><path d="M213,289.85a9.69,9.69,0,0,1,.77-4.37,2.48,2.48,0,0,1,2.3-1.48,2.39,2.39,0,0,1,2.11,1.2,8.79,8.79,0,0,1,.94,4.65,9.76,9.76,0,0,1-.77,4.35,2.46,2.46,0,0,1-2.3,1.49,2.55,2.55,0,0,1-2.2-1.31A8.79,8.79,0,0,1,213,289.85Zm1.18,0a8.59,8.59,0,0,0,.53,3.74,1.58,1.58,0,0,0,1.38,1,1.56,1.56,0,0,0,1.32-1,13.43,13.43,0,0,0,0-7.47,1.6,1.6,0,0,0-1.39-1,1.54,1.54,0,0,0-1.32,1A8.86,8.86,0,0,0,214.18,289.84Z"/><path d="M220.63,295.5v-8.3h1v1.16a2.61,2.61,0,0,1,.88-1,2.15,2.15,0,0,1,1.18-.35,1.94,1.94,0,0,1,1.21.37,2,2,0,0,1,.71,1.08,3.19,3.19,0,0,1,.93-1.09,2.08,2.08,0,0,1,1.18-.36,1.9,1.9,0,0,1,1.54.67,3.22,3.22,0,0,1,.57,2.12v5.7h-1.15v-5.24a4.52,4.52,0,0,0-.13-1.26,1.13,1.13,0,0,0-.42-.57,1.1,1.1,0,0,0-.65-.21,1.49,1.49,0,0,0-1.22.59,3,3,0,0,0-.47,1.86v4.83h-1.15v-5.4a2.54,2.54,0,0,0-.32-1.46,1,1,0,0,0-.87-.42,1.48,1.48,0,0,0-1.25.64,4.31,4.31,0,0,0-.45,2.33v4.31Z"/><path d="M231.56,295.5v-8.3h1v1.16a2.61,2.61,0,0,1,.88-1,2.15,2.15,0,0,1,1.18-.35,1.94,1.94,0,0,1,1.21.37,2,2,0,0,1,.71,1.08,3.19,3.19,0,0,1,.93-1.09,2.08,2.08,0,0,1,1.18-.36,1.9,1.9,0,0,1,1.54.67,3.22,3.22,0,0,1,.57,2.12v5.7h-1.15v-5.24a4.52,4.52,0,0,0-.13-1.26,1.13,1.13,0,0,0-.42-.57,1.1,1.1,0,0,0-.65-.21,1.49,1.49,0,0,0-1.22.59,3,3,0,0,0-.47,1.86v4.83H235.6v-5.4a2.54,2.54,0,0,0-.32-1.46,1,1,0,0,0-.87-.42,1.48,1.48,0,0,0-1.25.64,4.31,4.31,0,0,0-.45,2.33v4.31Z"/><path d="M248.34,298.86a16.52,16.52,0,0,1-1.57-3.31,12.4,12.4,0,0,1-.7-4.21,14.1,14.1,0,0,1,2.27-7.49h.83A24.1,24.1,0,0,0,248,286.7a13.41,13.41,0,0,0-.52,2.22,15.34,15.34,0,0,0-.19,2.44,16.33,16.33,0,0,0,1.92,7.5Z"/><path d="M253.37,293.46v-3.14h-3.12V289h3.12v-3.11h1.33V289h3.12v1.32H254.7v3.14Zm4.45,2h-7.57v-1.32h7.57Z"/><path d="M262.64,295.5v-2.75h-4.07v-1.29l4.28-7.42h.95v7.42h1.27v1.29H263.8v2.75Zm0-4V286.3l-2.93,5.16Z"/><path d="M266.58,295.5v-8.3h1v1.16a2.7,2.7,0,0,1,.88-1,2.17,2.17,0,0,1,1.18-.35,2,2,0,0,1,1.22.37,2,2,0,0,1,.7,1.08,3.1,3.1,0,0,1,.94-1.09,2,2,0,0,1,1.17-.36,1.89,1.89,0,0,1,1.54.67,3.22,3.22,0,0,1,.57,2.12v5.7h-1.15v-5.24a4.16,4.16,0,0,0-.13-1.26,1.13,1.13,0,0,0-.42-.57,1.07,1.07,0,0,0-.65-.21,1.51,1.51,0,0,0-1.22.59,3,3,0,0,0-.47,1.86v4.83h-1.15v-5.4a2.46,2.46,0,0,0-.32-1.46,1,1,0,0,0-.87-.42,1.46,1.46,0,0,0-1.24.64,4.2,4.2,0,0,0-.46,2.33v4.31Z"/><path d="M277.51,295.5v-8.3h1v1.16a2.7,2.7,0,0,1,.88-1,2.17,2.17,0,0,1,1.18-.35,1.94,1.94,0,0,1,1.21.37,2,2,0,0,1,.71,1.08,3.1,3.1,0,0,1,.94-1.09,2,2,0,0,1,1.17-.36,1.89,1.89,0,0,1,1.54.67,3.22,3.22,0,0,1,.57,2.12v5.7h-1.15v-5.24a4.16,4.16,0,0,0-.13-1.26,1.13,1.13,0,0,0-.42-.57,1.07,1.07,0,0,0-.65-.21,1.49,1.49,0,0,0-1.22.59,3,3,0,0,0-.47,1.86v4.83h-1.15v-5.4a2.46,2.46,0,0,0-.32-1.46,1,1,0,0,0-.87-.42,1.46,1.46,0,0,0-1.24.64,4.2,4.2,0,0,0-.46,2.33v4.31Z"/><path d="M288.89,298.86h-.83a16.44,16.44,0,0,0,1.91-7.5,15.34,15.34,0,0,0-.19-2.44,14.5,14.5,0,0,0-.52-2.22,25.48,25.48,0,0,0-1.2-2.85h.83a14.18,14.18,0,0,1,2.26,7.49,12.65,12.65,0,0,1-.67,4.14A16.37,16.37,0,0,1,288.89,298.86Z"/><path d="M303.28,291.48l1.25.38a5.31,5.31,0,0,1-1.45,2.88,3.56,3.56,0,0,1-2.52.95,3.81,3.81,0,0,1-2.23-.64,4.49,4.49,0,0,1-1.52-2,8.64,8.64,0,0,1-.59-3.32,7.82,7.82,0,0,1,.59-3.2,4.52,4.52,0,0,1,1.6-2,4,4,0,0,1,2.25-.67,3.42,3.42,0,0,1,2.34.85,4.57,4.57,0,0,1,1.37,2.48l-1.22.35c-.41-1.59-1.25-2.38-2.51-2.38a2.8,2.8,0,0,0-1.63.48,3.27,3.27,0,0,0-1.1,1.5,7,7,0,0,0-.41,2.57,6.17,6.17,0,0,0,.83,3.53,2.58,2.58,0,0,0,2.21,1.17,2.43,2.43,0,0,0,1.75-.72A3.93,3.93,0,0,0,303.28,291.48Z"/><path d="M305.48,291.35a5,5,0,0,1,.9-3.24,2.91,2.91,0,0,1,4.56,0,4.77,4.77,0,0,1,.92,3.15,5.17,5.17,0,0,1-.9,3.33,2.94,2.94,0,0,1-4.57,0A5,5,0,0,1,305.48,291.35Zm1.18,0a4,4,0,0,0,.59,2.4,1.74,1.74,0,0,0,1.45.79,1.69,1.69,0,0,0,1.39-.8,5.14,5.14,0,0,0,0-4.78,1.76,1.76,0,0,0-1.45-.78,1.68,1.68,0,0,0-1.4.79A4,4,0,0,0,306.66,291.34Z"/><path d="M315.12,295.5l-2.59-8.3h1.22l1.46,5c.17.56.31,1.12.44,1.67.1-.44.24-1,.42-1.58l1.52-5.06h1.19l-2.59,8.3Z"/><path d="M324.43,292.82l1.18.18a3.54,3.54,0,0,1-1.07,2,2.84,2.84,0,0,1-1.93.67,2.88,2.88,0,0,1-2.34-1.09,5,5,0,0,1-.89-3.17,5.17,5.17,0,0,1,.9-3.28,2.81,2.81,0,0,1,2.29-1.13,2.71,2.71,0,0,1,2.2,1.11,5.05,5.05,0,0,1,.88,3.21v.38h-5.07a3.6,3.6,0,0,0,.64,2.11,1.78,1.78,0,0,0,1.41.71C323.49,294.53,324.09,294,324.43,292.82Zm-3.79-2.27h3.79a3.11,3.11,0,0,0-.46-1.61,1.68,1.68,0,0,0-1.41-.77,1.66,1.66,0,0,0-1.32.64A2.76,2.76,0,0,0,320.64,290.55Z"/><path d="M327.07,295.5v-8.3h1v1.26a3.56,3.56,0,0,1,.73-1.16,1.12,1.12,0,0,1,.75-.29,2,2,0,0,1,1.18.45l-.39,1.31a1.51,1.51,0,0,0-.84-.31,1,1,0,0,0-.67.26,1.37,1.37,0,0,0-.43.72,6.79,6.79,0,0,0-.22,1.71v4.35Z"/><path d="M83.49,243.89v-2.74H79.42v-1.29l4.28-7.43h.94v7.43h1.28v1.29H84.64v2.74Zm0-4v-5.17l-2.94,5.17Z"/><path d="M90.78,243.89v-2.74H86.71v-1.29L91,232.43h1v7.43h1.27v1.29H91.94v2.74Zm0-4v-5.17l-2.93,5.17Z"/><path d="M94.72,243.89v-8.3h1v1.16a2.69,2.69,0,0,1,.88-1,2.17,2.17,0,0,1,1.18-.35,2,2,0,0,1,1.21.37,2,2,0,0,1,.71,1.08,3.19,3.19,0,0,1,.94-1.09,2,2,0,0,1,1.17-.36,1.92,1.92,0,0,1,1.54.67,3.22,3.22,0,0,1,.57,2.12v5.7H102.8v-5.23a4.19,4.19,0,0,0-.13-1.27,1.13,1.13,0,0,0-.42-.57,1.07,1.07,0,0,0-.65-.21,1.47,1.47,0,0,0-1.22.6,3,3,0,0,0-.47,1.85v4.83H98.76v-5.4a2.48,2.48,0,0,0-.32-1.45,1,1,0,0,0-.87-.43,1.46,1.46,0,0,0-1.24.64,4.2,4.2,0,0,0-.46,2.33v4.31Z"/><path d="M105.65,243.89v-8.3h1v1.16a2.69,2.69,0,0,1,.88-1,2.15,2.15,0,0,1,1.18-.35,2,2,0,0,1,1.21.37,2,2,0,0,1,.71,1.08,3.19,3.19,0,0,1,.94-1.09,2,2,0,0,1,1.17-.36,1.92,1.92,0,0,1,1.54.67,3.22,3.22,0,0,1,.57,2.12v5.7h-1.15v-5.23a4.19,4.19,0,0,0-.13-1.27,1.13,1.13,0,0,0-.42-.57,1.07,1.07,0,0,0-.65-.21,1.47,1.47,0,0,0-1.22.6,3,3,0,0,0-.47,1.85v4.83h-1.15v-5.4a2.48,2.48,0,0,0-.32-1.45,1,1,0,0,0-.87-.43,1.46,1.46,0,0,0-1.24.64,4.2,4.2,0,0,0-.46,2.33v4.31Z"/></g></svg>