<svg xmlns="http://www.w3.org/2000/svg" viewBox="0 0 700 500"><defs><style>.cls-1,.cls-2,.cls-3{fill:none;stroke:#000;stroke-linecap:round;stroke-linejoin:round;}.cls-1{stroke-width:0.6px;}.cls-2{stroke-width:0.5px;}.cls-3{stroke-width:0.96px;}</style></defs><title>Wall Cladding-Mini Corry-Dimensioned</title><g id="Image"><line class="cls-1" x1="414.27" y1="128.39" x2="414.27" y2="321.34"/><line class="cls-1" x1="419.98" y1="129.9" x2="419.98" y2="318.73"/><line class="cls-1" x1="425.53" y1="131.41" x2="425.53" y2="316.21"/><line class="cls-1" x1="430.73" y1="132.92" x2="430.73" y2="313.78"/><line class="cls-1" x1="435.77" y1="134.27" x2="435.77" y2="311.51"/><line class="cls-1" x1="408.31" y1="126.71" x2="408.31" y2="324.11"/><line class="cls-1" x1="402.01" y1="125.03" x2="402.01" y2="326.96"/><line class="cls-1" x1="395.45" y1="123.18" x2="395.45" y2="329.99"/><line class="cls-1" x1="388.57" y1="121.33" x2="388.57" y2="333.1"/><line class="cls-1" x1="440.65" y1="135.61" x2="440.65" y2="309.24"/><line class="cls-1" x1="445.27" y1="136.87" x2="445.27" y2="307.14"/><line class="cls-1" x1="449.72" y1="138.13" x2="449.72" y2="305.04"/><line class="cls-1" x1="454.09" y1="139.31" x2="454.09" y2="303.11"/><line class="cls-1" x1="458.2" y1="140.48" x2="458.2" y2="301.18"/><line class="cls-1" x1="462.15" y1="141.58" x2="462.15" y2="299.33"/><line class="cls-1" x1="466.01" y1="142.58" x2="466.01" y2="297.56"/><line class="cls-1" x1="469.71" y1="143.59" x2="469.71" y2="295.88"/><line class="cls-1" x1="473.32" y1="144.6" x2="473.32" y2="294.2"/><line class="cls-1" x1="476.77" y1="145.61" x2="476.77" y2="292.69"/><line class="cls-1" x1="480.13" y1="146.53" x2="480.13" y2="291.1"/><line class="cls-1" x1="221.66" y1="76.31" x2="222.41" y2="76.22"/><line class="cls-1" x1="222.41" y1="76.22" x2="224.26" y2="77.65"/><line class="cls-1" x1="224.26" y1="77.65" x2="224.6" y2="77.9"/><line class="cls-1" x1="224.6" y1="77.9" x2="225.02" y2="78.07"/><line class="cls-1" x1="225.02" y1="78.07" x2="225.61" y2="78.16"/><line class="cls-1" x1="225.61" y1="78.16" x2="226.19" y2="78.24"/><line class="cls-1" x1="226.19" y1="78.24" x2="226.78" y2="78.32"/><line class="cls-1" x1="226.78" y1="78.32" x2="233.84" y2="78.58"/><line class="cls-1" x1="233.84" y1="78.58" x2="234.68" y2="78.66"/><line class="cls-1" x1="234.68" y1="78.66" x2="235.52" y2="78.83"/><line class="cls-1" x1="235.52" y1="78.83" x2="236.27" y2="79"/><line class="cls-1" x1="236.27" y1="79" x2="236.95" y2="79.16"/><line class="cls-1" x1="236.95" y1="79.16" x2="237.45" y2="79.42"/><line class="cls-1" x1="237.45" y1="79.42" x2="237.87" y2="79.75"/><line class="cls-1" x1="237.87" y1="79.75" x2="240.73" y2="82.1"/><line class="cls-1" x1="240.73" y1="82.1" x2="241.06" y2="82.27"/><line class="cls-1" x1="241.06" y1="82.27" x2="241.4" y2="82.44"/><line class="cls-1" x1="241.4" y1="82.44" x2="241.9" y2="82.61"/><line class="cls-1" x1="241.9" y1="82.61" x2="242.41" y2="82.69"/><line class="cls-1" x1="242.41" y1="82.69" x2="242.99" y2="82.78"/><line class="cls-1" x1="242.99" y1="82.78" x2="249.88" y2="83.03"/><line class="cls-1" x1="249.88" y1="83.03" x2="250.72" y2="83.11"/><line class="cls-1" x1="250.72" y1="83.11" x2="251.48" y2="83.2"/><line class="cls-1" x1="251.48" y1="83.2" x2="252.23" y2="83.36"/><line class="cls-1" x1="252.23" y1="83.36" x2="252.82" y2="83.62"/><line class="cls-1" x1="252.82" y1="83.62" x2="253.33" y2="83.87"/><line class="cls-1" x1="253.33" y1="83.87" x2="253.66" y2="84.12"/><line class="cls-1" x1="253.66" y1="84.12" x2="256.1" y2="86.3"/><line class="cls-1" x1="256.1" y1="86.3" x2="256.43" y2="86.47"/><line class="cls-1" x1="256.43" y1="86.47" x2="256.77" y2="86.64"/><line class="cls-1" x1="256.77" y1="86.64" x2="257.19" y2="86.81"/><line class="cls-1" x1="257.19" y1="86.81" x2="257.69" y2="86.89"/><line class="cls-1" x1="257.69" y1="86.89" x2="258.2" y2="86.89"/><line class="cls-1" x1="258.2" y1="86.89" x2="264.83" y2="87.14"/><line class="cls-1" x1="264.83" y1="87.14" x2="265.67" y2="87.23"/><line class="cls-1" x1="265.67" y1="87.23" x2="266.35" y2="87.31"/><line class="cls-1" x1="266.35" y1="87.31" x2="267.02" y2="87.48"/><line class="cls-1" x1="267.02" y1="87.48" x2="267.61" y2="87.65"/><line class="cls-1" x1="267.61" y1="87.65" x2="268.11" y2="87.9"/><line class="cls-1" x1="268.11" y1="87.9" x2="268.36" y2="88.15"/><line class="cls-1" x1="268.36" y1="88.15" x2="270.46" y2="90.25"/><line class="cls-1" x1="270.46" y1="90.25" x2="270.71" y2="90.42"/><line class="cls-1" x1="270.71" y1="90.42" x2="271.05" y2="90.5"/><line class="cls-1" x1="271.05" y1="90.5" x2="271.47" y2="90.67"/><line class="cls-1" x1="271.47" y1="90.67" x2="271.89" y2="90.76"/><line class="cls-1" x1="271.89" y1="90.76" x2="272.39" y2="90.76"/><line class="cls-1" x1="272.39" y1="90.76" x2="278.78" y2="91.01"/><line class="cls-1" x1="278.78" y1="91.01" x2="279.53" y2="91.09"/><line class="cls-1" x1="279.53" y1="91.09" x2="280.29" y2="91.18"/><line class="cls-1" x1="280.29" y1="91.18" x2="280.88" y2="91.34"/><line class="cls-1" x1="280.88" y1="91.34" x2="281.38" y2="91.51"/><line class="cls-1" x1="281.38" y1="91.51" x2="281.8" y2="91.68"/><line class="cls-1" x1="281.8" y1="91.68" x2="282.14" y2="91.93"/><line class="cls-1" x1="282.14" y1="91.93" x2="283.9" y2="93.86"/><line class="cls-1" x1="283.9" y1="93.86" x2="284.07" y2="94.03"/><line class="cls-1" x1="284.07" y1="94.03" x2="284.41" y2="94.2"/><line class="cls-1" x1="284.41" y1="94.2" x2="284.74" y2="94.28"/><line class="cls-1" x1="284.74" y1="94.28" x2="285.16" y2="94.37"/><line class="cls-1" x1="285.16" y1="94.37" x2="285.67" y2="94.37"/><line class="cls-1" x1="285.67" y1="94.37" x2="291.88" y2="94.62"/><line class="cls-1" x1="291.88" y1="94.62" x2="292.55" y2="94.7"/><line class="cls-1" x1="292.55" y1="94.7" x2="293.23" y2="94.79"/><line class="cls-1" x1="293.23" y1="94.79" x2="293.81" y2="94.87"/><line class="cls-1" x1="293.81" y1="94.87" x2="294.32" y2="95.04"/><line class="cls-1" x1="294.32" y1="95.04" x2="294.65" y2="95.29"/><line class="cls-1" x1="294.65" y1="95.29" x2="294.91" y2="95.46"/><line class="cls-1" x1="294.91" y1="95.46" x2="296.42" y2="97.31"/><line class="cls-1" x1="296.42" y1="97.31" x2="296.59" y2="97.39"/><line class="cls-1" x1="296.59" y1="97.39" x2="296.92" y2="97.56"/><line class="cls-1" x1="296.92" y1="97.56" x2="297.26" y2="97.64"/><line class="cls-1" x1="297.26" y1="97.64" x2="297.68" y2="97.73"/><line class="cls-1" x1="297.68" y1="97.73" x2="298.1" y2="97.81"/><line class="cls-1" x1="298.1" y1="97.81" x2="304.06" y2="97.98"/><line class="cls-1" x1="304.06" y1="97.98" x2="304.73" y2="98.06"/><line class="cls-1" x1="304.73" y1="98.06" x2="305.41" y2="98.15"/><line class="cls-1" x1="305.41" y1="98.15" x2="305.91" y2="98.23"/><line class="cls-1" x1="305.91" y1="98.23" x2="306.41" y2="98.4"/><line class="cls-1" x1="306.41" y1="98.4" x2="306.75" y2="98.57"/><line class="cls-1" x1="306.75" y1="98.57" x2="306.92" y2="98.82"/><line class="cls-1" x1="306.92" y1="98.82" x2="308.18" y2="100.5"/><line class="cls-1" x1="308.18" y1="100.5" x2="308.35" y2="100.58"/><line class="cls-1" x1="308.35" y1="100.58" x2="308.6" y2="100.75"/><line class="cls-1" x1="308.6" y1="100.75" x2="308.93" y2="100.84"/><line class="cls-1" x1="308.93" y1="100.84" x2="309.35" y2="100.92"/><line class="cls-1" x1="309.35" y1="100.92" x2="309.77" y2="100.92"/><line class="cls-1" x1="309.77" y1="100.92" x2="315.49" y2="101.17"/><line class="cls-1" x1="315.49" y1="101.17" x2="316.16" y2="101.17"/><line class="cls-1" x1="316.16" y1="101.17" x2="316.75" y2="101.26"/><line class="cls-1" x1="316.75" y1="101.26" x2="317.25" y2="101.42"/><line class="cls-1" x1="317.25" y1="101.42" x2="317.75" y2="101.51"/><line class="cls-1" x1="317.75" y1="101.51" x2="318.01" y2="101.68"/><line class="cls-1" x1="318.01" y1="101.68" x2="318.26" y2="101.93"/><line class="cls-1" x1="318.26" y1="101.93" x2="319.27" y2="103.52"/><line class="cls-1" x1="319.27" y1="103.52" x2="319.43" y2="103.61"/><line class="cls-1" x1="319.43" y1="103.61" x2="319.6" y2="103.78"/><line class="cls-1" x1="319.6" y1="103.78" x2="319.94" y2="103.86"/><line class="cls-1" x1="319.94" y1="103.86" x2="320.27" y2="103.94"/><line class="cls-1" x1="320.27" y1="103.94" x2="320.69" y2="103.94"/><line class="cls-1" x1="320.69" y1="103.94" x2="326.24" y2="104.11"/><line class="cls-1" x1="326.24" y1="104.11" x2="326.91" y2="104.2"/><line class="cls-1" x1="326.91" y1="104.2" x2="327.5" y2="104.28"/><line class="cls-1" x1="327.5" y1="104.28" x2="328" y2="104.36"/><line class="cls-1" x1="328" y1="104.36" x2="328.42" y2="104.53"/><line class="cls-1" x1="328.42" y1="104.53" x2="328.67" y2="104.62"/><line class="cls-1" x1="328.67" y1="104.62" x2="328.84" y2="104.87"/><line class="cls-1" x1="328.84" y1="104.87" x2="329.68" y2="106.3"/><line class="cls-1" x1="329.68" y1="106.3" x2="329.77" y2="106.46"/><line class="cls-1" x1="329.77" y1="106.46" x2="330.02" y2="106.55"/><line class="cls-1" x1="330.02" y1="106.55" x2="330.27" y2="106.63"/><line class="cls-1" x1="330.27" y1="106.63" x2="330.61" y2="106.72"/><line class="cls-1" x1="330.61" y1="106.72" x2="331.03" y2="106.72"/><line class="cls-1" x1="331.03" y1="106.72" x2="336.4" y2="106.97"/><line class="cls-1" x1="336.4" y1="106.97" x2="337.07" y2="106.97"/><line class="cls-1" x1="337.07" y1="106.97" x2="337.58" y2="107.05"/><line class="cls-1" x1="337.58" y1="107.05" x2="338.08" y2="107.14"/><line class="cls-1" x1="338.08" y1="107.14" x2="338.42" y2="107.3"/><line class="cls-1" x1="338.42" y1="107.3" x2="338.67" y2="107.39"/><line class="cls-1" x1="338.67" y1="107.39" x2="338.84" y2="107.56"/><line class="cls-1" x1="338.84" y1="107.56" x2="339.51" y2="108.98"/><line class="cls-1" x1="339.51" y1="108.98" x2="339.59" y2="109.15"/><line class="cls-1" x1="339.59" y1="109.15" x2="339.76" y2="109.24"/><line class="cls-1" x1="339.76" y1="109.24" x2="340.1" y2="109.32"/><line class="cls-1" x1="340.1" y1="109.32" x2="340.43" y2="109.4"/><line class="cls-1" x1="340.43" y1="109.4" x2="340.77" y2="109.4"/><line class="cls-1" x1="340.77" y1="109.4" x2="345.98" y2="109.57"/><line class="cls-1" x1="345.98" y1="109.57" x2="346.57" y2="109.57"/><line class="cls-1" x1="346.57" y1="109.57" x2="347.15" y2="109.66"/><line class="cls-1" x1="347.15" y1="109.66" x2="347.57" y2="109.74"/><line class="cls-1" x1="347.57" y1="109.74" x2="347.91" y2="109.91"/><line class="cls-1" x1="347.91" y1="109.91" x2="348.16" y2="110.08"/><line class="cls-1" x1="348.16" y1="110.08" x2="348.25" y2="110.16"/><line class="cls-1" x1="348.25" y1="110.16" x2="348.75" y2="111.5"/><line class="cls-1" x1="348.75" y1="111.5" x2="348.83" y2="111.67"/><line class="cls-1" x1="348.83" y1="111.67" x2="349.09" y2="111.76"/><line class="cls-1" x1="349.09" y1="111.76" x2="349.34" y2="111.84"/><line class="cls-1" x1="349.34" y1="111.84" x2="349.59" y2="111.84"/><line class="cls-1" x1="349.59" y1="111.84" x2="350.01" y2="111.92"/><line class="cls-1" x1="350.01" y1="111.92" x2="355.05" y2="112.09"/><line class="cls-1" x1="355.05" y1="112.09" x2="355.64" y2="112.09"/><line class="cls-1" x1="355.64" y1="112.09" x2="356.14" y2="112.18"/><line class="cls-1" x1="356.14" y1="112.18" x2="356.56" y2="112.26"/><line class="cls-1" x1="356.56" y1="112.26" x2="356.9" y2="112.34"/><line class="cls-1" x1="356.9" y1="112.34" x2="357.07" y2="112.51"/><line class="cls-1" x1="357.07" y1="112.51" x2="357.23" y2="112.68"/><line class="cls-1" x1="357.23" y1="112.68" x2="357.57" y2="113.94"/><line class="cls-1" x1="357.57" y1="113.94" x2="357.65" y2="114.02"/><line class="cls-1" x1="357.65" y1="114.02" x2="357.82" y2="114.11"/><line class="cls-1" x1="357.82" y1="114.11" x2="358.07" y2="114.19"/><line class="cls-1" x1="358.07" y1="114.19" x2="358.33" y2="114.28"/><line class="cls-1" x1="358.33" y1="114.28" x2="358.75" y2="114.28"/><line class="cls-1" x1="358.75" y1="114.28" x2="363.62" y2="114.44"/><line class="cls-1" x1="363.62" y1="114.44" x2="364.21" y2="114.44"/><line class="cls-1" x1="364.21" y1="114.44" x2="364.63" y2="114.53"/><line class="cls-1" x1="364.63" y1="114.53" x2="365.05" y2="114.61"/><line class="cls-1" x1="365.05" y1="114.61" x2="365.38" y2="114.7"/><line class="cls-1" x1="365.38" y1="114.7" x2="365.55" y2="114.86"/><line class="cls-1" x1="365.55" y1="114.86" x2="365.63" y2="115.03"/><line class="cls-1" x1="365.63" y1="115.03" x2="365.89" y2="116.21"/><line class="cls-1" x1="365.89" y1="116.21" x2="365.97" y2="116.29"/><line class="cls-1" x1="365.97" y1="116.29" x2="366.14" y2="116.38"/><line class="cls-1" x1="366.14" y1="116.38" x2="366.39" y2="116.46"/><line class="cls-1" x1="366.39" y1="116.46" x2="366.64" y2="116.54"/><line class="cls-1" x1="366.64" y1="116.54" x2="366.98" y2="116.54"/><line class="cls-1" x1="366.98" y1="116.54" x2="371.77" y2="116.71"/><line class="cls-1" x1="371.77" y1="116.71" x2="372.27" y2="116.71"/><line class="cls-1" x1="372.27" y1="116.71" x2="372.77" y2="116.8"/><line class="cls-1" x1="372.77" y1="116.8" x2="373.11" y2="116.88"/><line class="cls-1" x1="373.11" y1="116.88" x2="373.45" y2="116.96"/><line class="cls-1" x1="373.45" y1="116.96" x2="373.61" y2="117.05"/><line class="cls-1" x1="373.61" y1="117.05" x2="373.7" y2="117.22"/><line class="cls-1" x1="373.7" y1="117.22" x2="373.78" y2="118.31"/><line class="cls-1" x1="373.78" y1="118.31" x2="373.87" y2="118.48"/><line class="cls-1" x1="373.87" y1="118.48" x2="374.03" y2="118.56"/><line class="cls-1" x1="374.03" y1="118.56" x2="374.2" y2="118.56"/><line class="cls-1" x1="374.2" y1="118.56" x2="374.45" y2="118.64"/><line class="cls-1" x1="374.45" y1="118.64" x2="374.87" y2="118.64"/><line class="cls-1" x1="374.87" y1="118.64" x2="379.41" y2="118.81"/><line class="cls-1" x1="379.41" y1="118.81" x2="380" y2="118.81"/><line class="cls-1" x1="380" y1="118.81" x2="380.42" y2="118.9"/><line class="cls-1" x1="380.42" y1="118.9" x2="380.75" y2="118.98"/><line class="cls-1" x1="380.75" y1="118.98" x2="381.09" y2="119.06"/><line class="cls-1" x1="381.09" y1="119.06" x2="381.26" y2="119.15"/><line class="cls-1" x1="381.26" y1="119.15" x2="381.26" y2="119.32"/><line class="cls-1" x1="381.26" y1="119.32" x2="381.34" y2="120.41"/><line class="cls-1" x1="381.34" y1="120.41" x2="381.34" y2="120.49"/><line class="cls-1" x1="381.34" y1="120.49" x2="381.51" y2="120.58"/><line class="cls-1" x1="381.51" y1="120.58" x2="381.68" y2="120.66"/><line class="cls-1" x1="381.68" y1="120.66" x2="381.93" y2="120.66"/><line class="cls-1" x1="381.93" y1="120.66" x2="382.27" y2="120.66"/><line class="cls-1" x1="382.27" y1="120.66" x2="386.8" y2="120.83"/><line class="cls-1" x1="386.8" y1="120.83" x2="387.31" y2="120.83"/><line class="cls-1" x1="387.31" y1="120.83" x2="387.73" y2="120.91"/><line class="cls-1" x1="387.73" y1="120.91" x2="388.06" y2="121"/><line class="cls-1" x1="388.06" y1="121" x2="388.31" y2="121.08"/><line class="cls-1" x1="388.31" y1="121.08" x2="388.48" y2="121.16"/><line class="cls-1" x1="388.48" y1="121.16" x2="388.57" y2="121.33"/><line class="cls-1" x1="388.57" y1="121.33" x2="388.57" y2="121.33"/><line class="cls-1" x1="388.57" y1="122.42" x2="388.65" y2="122.51"/><line class="cls-1" x1="388.65" y1="122.51" x2="388.82" y2="122.59"/><line class="cls-1" x1="388.82" y1="122.59" x2="389.07" y2="122.59"/><line class="cls-1" x1="389.07" y1="122.59" x2="389.41" y2="122.59"/><line class="cls-1" x1="389.41" y1="122.59" x2="393.77" y2="122.76"/><line class="cls-1" x1="393.77" y1="122.76" x2="394.28" y2="122.76"/><line class="cls-1" x1="394.28" y1="122.76" x2="394.7" y2="122.84"/><line class="cls-1" x1="394.7" y1="122.84" x2="395.03" y2="122.93"/><line class="cls-1" x1="395.03" y1="122.93" x2="395.29" y2="123.01"/><line class="cls-1" x1="395.29" y1="123.01" x2="395.37" y2="123.1"/><line class="cls-1" x1="395.37" y1="123.1" x2="395.45" y2="123.18"/><line class="cls-1" x1="395.45" y1="123.18" x2="395.45" y2="123.18"/><line class="cls-1" x1="395.45" y1="124.36" x2="395.62" y2="124.44"/><line class="cls-1" x1="395.62" y1="124.44" x2="395.87" y2="124.44"/><line class="cls-1" x1="395.87" y1="124.44" x2="396.13" y2="124.44"/><line class="cls-1" x1="396.13" y1="124.44" x2="400.41" y2="124.61"/><line class="cls-1" x1="400.41" y1="124.61" x2="400.91" y2="124.61"/><line class="cls-1" x1="400.91" y1="124.61" x2="401.25" y2="124.69"/><line class="cls-1" x1="401.25" y1="124.69" x2="401.59" y2="124.69"/><line class="cls-1" x1="401.59" y1="124.69" x2="401.84" y2="124.78"/><line class="cls-1" x1="401.84" y1="124.78" x2="402.01" y2="124.94"/><line class="cls-1" x1="402.01" y1="124.94" x2="402.01" y2="125.03"/><line class="cls-1" x1="402.01" y1="125.03" x2="402.01" y2="125.03"/><line class="cls-1" x1="402.01" y1="126.12" x2="402.09" y2="126.2"/><line class="cls-1" x1="402.09" y1="126.2" x2="402.26" y2="126.2"/><line class="cls-1" x1="402.26" y1="126.2" x2="402.59" y2="126.2"/><line class="cls-1" x1="402.59" y1="126.2" x2="406.71" y2="126.37"/><line class="cls-1" x1="406.71" y1="126.37" x2="407.21" y2="126.37"/><line class="cls-1" x1="407.21" y1="126.37" x2="407.63" y2="126.37"/><line class="cls-1" x1="407.63" y1="126.37" x2="407.89" y2="126.46"/><line class="cls-1" x1="407.89" y1="126.46" x2="408.14" y2="126.54"/><line class="cls-1" x1="408.14" y1="126.54" x2="408.22" y2="126.62"/><line class="cls-1" x1="408.22" y1="126.62" x2="408.31" y2="126.71"/><line class="cls-1" x1="408.31" y1="126.71" x2="408.31" y2="126.79"/><line class="cls-1" x1="408.31" y1="127.88" x2="408.47" y2="127.88"/><line class="cls-1" x1="408.47" y1="127.88" x2="408.73" y2="127.88"/><line class="cls-1" x1="408.73" y1="127.88" x2="412.84" y2="127.97"/><line class="cls-1" x1="412.84" y1="127.97" x2="413.26" y2="128.05"/><line class="cls-1" x1="413.26" y1="128.05" x2="413.6" y2="128.05"/><line class="cls-1" x1="413.6" y1="128.05" x2="413.93" y2="128.14"/><line class="cls-1" x1="413.93" y1="128.14" x2="414.19" y2="128.22"/><line class="cls-1" x1="414.19" y1="128.22" x2="414.27" y2="128.3"/><line class="cls-1" x1="414.27" y1="128.3" x2="414.27" y2="128.39"/><line class="cls-1" x1="414.27" y1="128.39" x2="414.27" y2="128.39"/><line class="cls-1" x1="414.27" y1="129.48" x2="414.35" y2="129.48"/><line class="cls-1" x1="414.35" y1="129.48" x2="414.61" y2="129.48"/><line class="cls-1" x1="414.61" y1="129.48" x2="418.55" y2="129.65"/><line class="cls-1" x1="418.55" y1="129.65" x2="419.06" y2="129.65"/><line class="cls-1" x1="419.06" y1="129.65" x2="419.39" y2="129.65"/><line class="cls-1" x1="419.39" y1="129.65" x2="419.73" y2="129.73"/><line class="cls-1" x1="419.73" y1="129.73" x2="419.9" y2="129.82"/><line class="cls-1" x1="419.9" y1="129.82" x2="419.98" y2="129.9"/><line class="cls-1" x1="419.98" y1="129.9" x2="419.98" y2="129.9"/><line class="cls-1" x1="419.98" y1="130.99" x2="420.32" y2="131.08"/><line class="cls-1" x1="420.32" y1="131.08" x2="424.1" y2="131.16"/><line class="cls-1" x1="424.1" y1="131.16" x2="424.6" y2="131.16"/><line class="cls-1" x1="424.6" y1="131.16" x2="424.94" y2="131.16"/><line class="cls-1" x1="424.94" y1="131.16" x2="425.19" y2="131.24"/><line class="cls-1" x1="425.19" y1="131.24" x2="425.36" y2="131.33"/><line class="cls-1" x1="425.36" y1="131.33" x2="425.44" y2="131.41"/><line class="cls-1" x1="425.44" y1="131.41" x2="425.53" y2="131.41"/><line class="cls-1" x1="425.44" y1="132.5" x2="425.69" y2="132.5"/><line class="cls-1" x1="425.69" y1="132.5" x2="429.47" y2="132.59"/><line class="cls-1" x1="429.47" y1="132.59" x2="429.89" y2="132.59"/><line class="cls-1" x1="429.89" y1="132.59" x2="430.23" y2="132.67"/><line class="cls-1" x1="430.23" y1="132.67" x2="430.48" y2="132.76"/><line class="cls-1" x1="430.48" y1="132.76" x2="430.65" y2="132.76"/><line class="cls-1" x1="430.65" y1="132.76" x2="430.73" y2="132.84"/><line class="cls-1" x1="430.73" y1="132.84" x2="430.73" y2="132.92"/><line class="cls-1" x1="430.73" y1="133.93" x2="430.82" y2="133.93"/><line class="cls-1" x1="430.82" y1="133.93" x2="434.51" y2="134.02"/><line class="cls-1" x1="434.51" y1="134.02" x2="434.93" y2="134.02"/><line class="cls-1" x1="434.93" y1="134.02" x2="435.27" y2="134.1"/><line class="cls-1" x1="435.27" y1="134.1" x2="435.52" y2="134.1"/><line class="cls-1" x1="435.52" y1="134.1" x2="435.69" y2="134.18"/><line class="cls-1" x1="435.69" y1="134.18" x2="435.77" y2="134.27"/><line class="cls-1" x1="435.77" y1="134.27" x2="435.77" y2="134.27"/><line class="cls-1" x1="435.86" y1="135.28" x2="439.39" y2="135.36"/><line class="cls-1" x1="439.39" y1="135.36" x2="439.81" y2="135.36"/><line class="cls-1" x1="439.81" y1="135.36" x2="440.14" y2="135.44"/><line class="cls-1" x1="440.14" y1="135.44" x2="440.39" y2="135.44"/><line class="cls-1" x1="440.39" y1="135.44" x2="440.56" y2="135.53"/><line class="cls-1" x1="440.56" y1="135.53" x2="440.65" y2="135.61"/><line class="cls-1" x1="440.65" y1="135.61" x2="440.65" y2="135.61"/><line class="cls-1" x1="440.65" y1="136.54" x2="444.09" y2="136.62"/><line class="cls-1" x1="444.09" y1="136.62" x2="444.51" y2="136.7"/><line class="cls-1" x1="444.51" y1="136.7" x2="444.85" y2="136.7"/><line class="cls-1" x1="444.85" y1="136.7" x2="445.1" y2="136.79"/><line class="cls-1" x1="445.1" y1="136.79" x2="445.18" y2="136.79"/><line class="cls-1" x1="445.18" y1="136.79" x2="445.27" y2="136.87"/><line class="cls-1" x1="445.27" y1="136.87" x2="445.27" y2="136.87"/><line class="cls-1" x1="445.27" y1="137.8" x2="448.63" y2="137.88"/><line class="cls-1" x1="448.63" y1="137.88" x2="448.96" y2="137.88"/><line class="cls-1" x1="448.96" y1="137.88" x2="449.3" y2="137.96"/><line class="cls-1" x1="449.3" y1="137.96" x2="449.55" y2="137.96"/><line class="cls-1" x1="449.55" y1="137.96" x2="449.72" y2="138.05"/><line class="cls-1" x1="449.72" y1="138.05" x2="449.72" y2="138.13"/><line class="cls-1" x1="449.72" y1="138.13" x2="449.72" y2="138.13"/><line class="cls-1" x1="449.72" y1="139.06" x2="452.99" y2="139.06"/><line class="cls-1" x1="452.99" y1="139.06" x2="453.33" y2="139.14"/><line class="cls-1" x1="453.33" y1="139.14" x2="453.67" y2="139.14"/><line class="cls-1" x1="453.67" y1="139.14" x2="453.83" y2="139.22"/><line class="cls-1" x1="453.83" y1="139.22" x2="454" y2="139.22"/><line class="cls-1" x1="454" y1="139.22" x2="454.09" y2="139.31"/><line class="cls-1" x1="454.09" y1="139.31" x2="454.09" y2="139.31"/><line class="cls-1" x1="454.09" y1="140.15" x2="457.11" y2="140.23"/><line class="cls-1" x1="457.11" y1="140.23" x2="457.53" y2="140.23"/><line class="cls-1" x1="457.53" y1="140.23" x2="457.78" y2="140.32"/><line class="cls-1" x1="457.78" y1="140.32" x2="458.03" y2="140.32"/><line class="cls-1" x1="458.03" y1="140.32" x2="458.12" y2="140.4"/><line class="cls-1" x1="458.12" y1="140.4" x2="458.2" y2="140.48"/><line class="cls-1" x1="458.2" y1="140.48" x2="458.2" y2="140.48"/><line class="cls-1" x1="458.2" y1="141.32" x2="461.14" y2="141.32"/><line class="cls-1" x1="461.14" y1="141.32" x2="461.48" y2="141.41"/><line class="cls-1" x1="461.48" y1="141.41" x2="461.81" y2="141.41"/><line class="cls-1" x1="461.81" y1="141.41" x2="461.98" y2="141.41"/><line class="cls-1" x1="461.98" y1="141.41" x2="462.15" y2="141.49"/><line class="cls-1" x1="462.15" y1="141.49" x2="462.15" y2="141.58"/><line class="cls-1" x1="462.15" y1="141.58" x2="462.15" y2="141.58"/><line class="cls-1" x1="462.15" y1="142.33" x2="465.01" y2="142.42"/><line class="cls-1" x1="465.01" y1="142.42" x2="465.34" y2="142.42"/><line class="cls-1" x1="465.34" y1="142.42" x2="465.68" y2="142.5"/><line class="cls-1" x1="465.68" y1="142.5" x2="465.85" y2="142.5"/><line class="cls-1" x1="465.85" y1="142.5" x2="466.01" y2="142.58"/><line class="cls-1" x1="466.01" y1="142.58" x2="466.01" y2="142.58"/><line class="cls-1" x1="466.01" y1="142.58" x2="466.01" y2="142.58"/><line class="cls-1" x1="466.01" y1="143.42" x2="468.79" y2="143.42"/><line class="cls-1" x1="468.79" y1="143.42" x2="469.12" y2="143.51"/><line class="cls-1" x1="469.12" y1="143.51" x2="469.37" y2="143.51"/><line class="cls-1" x1="469.37" y1="143.51" x2="469.54" y2="143.51"/><line class="cls-1" x1="469.54" y1="143.51" x2="469.71" y2="143.59"/><line class="cls-1" x1="469.71" y1="143.59" x2="469.71" y2="143.59"/><line class="cls-1" x1="469.71" y1="143.59" x2="469.71" y2="143.68"/><line class="cls-1" x1="469.71" y1="144.43" x2="472.4" y2="144.43"/><line class="cls-1" x1="472.4" y1="144.43" x2="472.73" y2="144.43"/><line class="cls-1" x1="472.73" y1="144.43" x2="472.99" y2="144.52"/><line class="cls-1" x1="472.99" y1="144.52" x2="473.15" y2="144.52"/><line class="cls-1" x1="473.15" y1="144.52" x2="473.32" y2="144.6"/><line class="cls-1" x1="473.32" y1="144.6" x2="473.32" y2="144.6"/><line class="cls-1" x1="473.32" y1="144.6" x2="473.32" y2="144.6"/><line class="cls-1" x1="473.32" y1="145.36" x2="475.84" y2="145.44"/><line class="cls-1" x1="475.84" y1="145.44" x2="476.18" y2="145.44"/><line class="cls-1" x1="476.18" y1="145.44" x2="476.43" y2="145.44"/><line class="cls-1" x1="476.43" y1="145.44" x2="476.6" y2="145.52"/><line class="cls-1" x1="476.6" y1="145.52" x2="476.77" y2="145.52"/><line class="cls-1" x1="476.77" y1="145.52" x2="476.77" y2="145.61"/><line class="cls-1" x1="476.77" y1="145.61" x2="476.77" y2="145.61"/><line class="cls-1" x1="476.77" y1="146.28" x2="479.2" y2="146.36"/><line class="cls-1" x1="479.2" y1="146.36" x2="479.54" y2="146.36"/><line class="cls-1" x1="479.54" y1="146.36" x2="479.79" y2="146.36"/><line class="cls-1" x1="479.79" y1="146.36" x2="479.96" y2="146.45"/><line class="cls-1" x1="479.96" y1="146.45" x2="480.13" y2="146.45"/><line class="cls-1" x1="480.13" y1="146.45" x2="480.13" y2="146.53"/><line class="cls-1" x1="480.13" y1="146.53" x2="480.13" y2="146.53"/><line class="cls-1" x1="480.13" y1="291.1" x2="480.13" y2="291.1"/><line class="cls-1" x1="480.13" y1="291.1" x2="480.13" y2="291.18"/><line class="cls-1" x1="480.13" y1="291.18" x2="479.96" y2="291.26"/><line class="cls-1" x1="479.96" y1="291.26" x2="479.79" y2="291.35"/><line class="cls-1" x1="479.79" y1="291.35" x2="479.54" y2="291.35"/><line class="cls-1" x1="479.54" y1="291.35" x2="479.2" y2="291.35"/><line class="cls-1" x1="479.2" y1="291.35" x2="476.77" y2="291.43"/><line class="cls-1" x1="476.77" y1="292.61" x2="476.77" y2="292.69"/><line class="cls-1" x1="476.77" y1="292.69" x2="476.77" y2="292.69"/><line class="cls-1" x1="476.77" y1="292.69" x2="476.6" y2="292.78"/><line class="cls-1" x1="476.6" y1="292.78" x2="476.43" y2="292.86"/><line class="cls-1" x1="476.43" y1="292.86" x2="476.18" y2="292.86"/><line class="cls-1" x1="476.18" y1="292.86" x2="475.84" y2="292.94"/><line class="cls-1" x1="475.84" y1="292.94" x2="473.32" y2="293.03"/><line class="cls-1" x1="473.32" y1="294.2" x2="473.32" y2="294.2"/><line class="cls-1" x1="473.32" y1="294.2" x2="473.32" y2="294.29"/><line class="cls-1" x1="473.32" y1="294.29" x2="473.15" y2="294.37"/><line class="cls-1" x1="473.15" y1="294.37" x2="472.99" y2="294.46"/><line class="cls-1" x1="472.99" y1="294.46" x2="472.73" y2="294.54"/><line class="cls-1" x1="472.73" y1="294.54" x2="472.4" y2="294.54"/><line class="cls-1" x1="472.4" y1="294.54" x2="469.71" y2="294.62"/><line class="cls-1" x1="469.71" y1="295.88" x2="469.71" y2="295.88"/><line class="cls-1" x1="469.71" y1="295.88" x2="469.71" y2="295.97"/><line class="cls-1" x1="469.71" y1="295.97" x2="469.54" y2="296.05"/><line class="cls-1" x1="469.54" y1="296.05" x2="469.37" y2="296.14"/><line class="cls-1" x1="469.37" y1="296.14" x2="469.12" y2="296.14"/><line class="cls-1" x1="469.12" y1="296.14" x2="468.79" y2="296.22"/><line class="cls-1" x1="468.79" y1="296.22" x2="466.01" y2="296.3"/><line class="cls-1" x1="466.01" y1="297.56" x2="466.01" y2="297.56"/><line class="cls-1" x1="466.01" y1="297.56" x2="466.01" y2="297.65"/><line class="cls-1" x1="466.01" y1="297.65" x2="465.85" y2="297.73"/><line class="cls-1" x1="465.85" y1="297.73" x2="465.68" y2="297.82"/><line class="cls-1" x1="465.68" y1="297.82" x2="465.34" y2="297.9"/><line class="cls-1" x1="465.34" y1="297.9" x2="465.01" y2="297.9"/><line class="cls-1" x1="465.01" y1="297.9" x2="462.15" y2="297.98"/><line class="cls-1" x1="462.15" y1="299.33" x2="462.15" y2="299.33"/><line class="cls-1" x1="462.15" y1="299.33" x2="462.15" y2="299.5"/><line class="cls-1" x1="462.15" y1="299.5" x2="461.98" y2="299.58"/><line class="cls-1" x1="461.98" y1="299.58" x2="461.81" y2="299.58"/><line class="cls-1" x1="461.81" y1="299.58" x2="461.48" y2="299.66"/><line class="cls-1" x1="461.48" y1="299.66" x2="461.14" y2="299.66"/><line class="cls-1" x1="461.14" y1="299.66" x2="458.2" y2="299.83"/><line class="cls-1" x1="458.2" y1="301.18" x2="458.2" y2="301.18"/><line class="cls-1" x1="458.2" y1="301.18" x2="458.12" y2="301.26"/><line class="cls-1" x1="458.12" y1="301.26" x2="458.03" y2="301.43"/><line class="cls-1" x1="458.03" y1="301.43" x2="457.78" y2="301.43"/><line class="cls-1" x1="457.78" y1="301.43" x2="457.53" y2="301.51"/><line class="cls-1" x1="457.53" y1="301.51" x2="457.11" y2="301.51"/><line class="cls-1" x1="457.11" y1="301.51" x2="454.09" y2="301.68"/><line class="cls-1" x1="454.09" y1="303.11" x2="454.09" y2="303.11"/><line class="cls-1" x1="454.09" y1="303.11" x2="454" y2="303.19"/><line class="cls-1" x1="454" y1="303.19" x2="453.83" y2="303.28"/><line class="cls-1" x1="453.83" y1="303.28" x2="453.67" y2="303.36"/><line class="cls-1" x1="453.67" y1="303.36" x2="453.33" y2="303.44"/><line class="cls-1" x1="453.33" y1="303.44" x2="452.99" y2="303.44"/><line class="cls-1" x1="452.99" y1="303.44" x2="449.72" y2="303.61"/><line class="cls-1" x1="449.72" y1="305.04" x2="449.72" y2="305.04"/><line class="cls-1" x1="449.72" y1="305.04" x2="449.72" y2="305.21"/><line class="cls-1" x1="449.72" y1="305.21" x2="449.55" y2="305.29"/><line class="cls-1" x1="449.55" y1="305.29" x2="449.3" y2="305.38"/><line class="cls-1" x1="449.3" y1="305.38" x2="448.96" y2="305.46"/><line class="cls-1" x1="448.96" y1="305.46" x2="448.63" y2="305.46"/><line class="cls-1" x1="448.63" y1="305.46" x2="445.27" y2="305.54"/><line class="cls-1" x1="445.27" y1="307.14" x2="445.27" y2="307.14"/><line class="cls-1" x1="445.27" y1="307.14" x2="445.18" y2="307.22"/><line class="cls-1" x1="445.18" y1="307.22" x2="445.1" y2="307.39"/><line class="cls-1" x1="445.1" y1="307.39" x2="444.85" y2="307.48"/><line class="cls-1" x1="444.85" y1="307.48" x2="444.51" y2="307.48"/><line class="cls-1" x1="444.51" y1="307.48" x2="444.09" y2="307.56"/><line class="cls-1" x1="444.09" y1="307.56" x2="440.65" y2="307.64"/><line class="cls-1" x1="440.65" y1="309.24" x2="440.65" y2="309.32"/><line class="cls-1" x1="440.65" y1="309.32" x2="440.56" y2="309.41"/><line class="cls-1" x1="440.56" y1="309.41" x2="440.39" y2="309.49"/><line class="cls-1" x1="440.39" y1="309.49" x2="440.14" y2="309.58"/><line class="cls-1" x1="440.14" y1="309.58" x2="439.81" y2="309.66"/><line class="cls-1" x1="439.81" y1="309.66" x2="439.39" y2="309.66"/><line class="cls-1" x1="439.39" y1="309.66" x2="435.86" y2="309.83"/><line class="cls-1" x1="435.77" y1="311.51" x2="435.77" y2="311.51"/><line class="cls-1" x1="435.77" y1="311.51" x2="435.69" y2="311.68"/><line class="cls-1" x1="435.69" y1="311.68" x2="435.52" y2="311.76"/><line class="cls-1" x1="435.52" y1="311.76" x2="435.27" y2="311.84"/><line class="cls-1" x1="435.27" y1="311.84" x2="434.93" y2="311.93"/><line class="cls-1" x1="434.93" y1="311.93" x2="434.51" y2="311.93"/><line class="cls-1" x1="434.51" y1="311.93" x2="430.82" y2="312.1"/><line class="cls-1" x1="430.82" y1="312.1" x2="430.73" y2="312.1"/><line class="cls-1" x1="430.73" y1="313.78" x2="430.73" y2="313.86"/><line class="cls-1" x1="430.73" y1="313.86" x2="430.65" y2="313.94"/><line class="cls-1" x1="430.65" y1="313.94" x2="430.48" y2="314.11"/><line class="cls-1" x1="430.48" y1="314.11" x2="430.23" y2="314.2"/><line class="cls-1" x1="430.23" y1="314.2" x2="429.89" y2="314.28"/><line class="cls-1" x1="429.89" y1="314.28" x2="429.47" y2="314.28"/><line class="cls-1" x1="429.47" y1="314.28" x2="425.69" y2="314.45"/><line class="cls-1" x1="425.69" y1="314.45" x2="425.44" y2="314.45"/><line class="cls-1" x1="425.53" y1="316.21" x2="425.44" y2="316.3"/><line class="cls-1" x1="425.44" y1="316.3" x2="425.36" y2="316.38"/><line class="cls-1" x1="425.36" y1="316.38" x2="425.19" y2="316.55"/><line class="cls-1" x1="425.19" y1="316.55" x2="424.94" y2="316.63"/><line class="cls-1" x1="424.94" y1="316.63" x2="424.6" y2="316.72"/><line class="cls-1" x1="424.6" y1="316.72" x2="424.1" y2="316.72"/><line class="cls-1" x1="424.1" y1="316.72" x2="420.32" y2="316.88"/><line class="cls-1" x1="420.32" y1="316.88" x2="419.98" y2="316.88"/><line class="cls-1" x1="419.98" y1="318.65" x2="419.98" y2="318.73"/><line class="cls-1" x1="419.98" y1="318.73" x2="419.98" y2="318.82"/><line class="cls-1" x1="419.98" y1="318.82" x2="419.9" y2="318.9"/><line class="cls-1" x1="419.9" y1="318.9" x2="419.73" y2="319.07"/><line class="cls-1" x1="419.73" y1="319.07" x2="419.39" y2="319.15"/><line class="cls-1" x1="419.39" y1="319.15" x2="419.06" y2="319.24"/><line class="cls-1" x1="419.06" y1="319.24" x2="418.55" y2="319.24"/><line class="cls-1" x1="418.55" y1="319.24" x2="414.61" y2="319.4"/><line class="cls-1" x1="414.61" y1="319.4" x2="414.35" y2="319.49"/><line class="cls-1" x1="414.35" y1="319.49" x2="414.27" y2="319.49"/><line class="cls-1" x1="414.27" y1="321.25" x2="414.27" y2="321.34"/><line class="cls-1" x1="414.27" y1="321.34" x2="414.27" y2="321.42"/><line class="cls-1" x1="414.27" y1="321.42" x2="414.19" y2="321.59"/><line class="cls-1" x1="414.19" y1="321.59" x2="413.93" y2="321.67"/><line class="cls-1" x1="413.93" y1="321.67" x2="413.6" y2="321.84"/><line class="cls-1" x1="413.6" y1="321.84" x2="413.26" y2="321.92"/><line class="cls-1" x1="413.26" y1="321.92" x2="412.84" y2="321.92"/><line class="cls-1" x1="412.84" y1="321.92" x2="408.73" y2="322.09"/><line class="cls-1" x1="408.73" y1="322.09" x2="408.47" y2="322.18"/><line class="cls-1" x1="408.47" y1="322.18" x2="408.31" y2="322.18"/><line class="cls-1" x1="408.31" y1="324.02" x2="408.31" y2="324.11"/><line class="cls-1" x1="408.31" y1="324.11" x2="408.22" y2="324.19"/><line class="cls-1" x1="408.22" y1="324.19" x2="408.14" y2="324.36"/><line class="cls-1" x1="408.14" y1="324.36" x2="407.89" y2="324.53"/><line class="cls-1" x1="407.89" y1="324.53" x2="407.63" y2="324.61"/><line class="cls-1" x1="407.63" y1="324.61" x2="407.21" y2="324.7"/><line class="cls-1" x1="407.21" y1="324.7" x2="406.71" y2="324.7"/><line class="cls-1" x1="406.71" y1="324.7" x2="402.59" y2="324.86"/><line class="cls-1" x1="402.59" y1="324.86" x2="402.26" y2="324.95"/><line class="cls-1" x1="402.26" y1="324.95" x2="402.09" y2="325.03"/><line class="cls-1" x1="402.09" y1="325.03" x2="402.01" y2="325.03"/><line class="cls-1" x1="402.01" y1="326.88" x2="402.01" y2="326.96"/><line class="cls-1" x1="402.01" y1="326.96" x2="402.01" y2="327.05"/><line class="cls-1" x1="402.01" y1="327.05" x2="401.84" y2="327.22"/><line class="cls-1" x1="401.84" y1="327.22" x2="401.59" y2="327.38"/><line class="cls-1" x1="401.59" y1="327.38" x2="401.25" y2="327.47"/><line class="cls-1" x1="401.25" y1="327.47" x2="400.91" y2="327.55"/><line class="cls-1" x1="400.91" y1="327.55" x2="400.41" y2="327.64"/><line class="cls-1" x1="400.41" y1="327.64" x2="396.13" y2="327.8"/><line class="cls-1" x1="396.13" y1="327.8" x2="395.87" y2="327.89"/><line class="cls-1" x1="395.87" y1="327.89" x2="395.62" y2="327.97"/><line class="cls-1" x1="395.62" y1="327.97" x2="395.45" y2="328.06"/><line class="cls-1" x1="395.45" y1="329.9" x2="395.45" y2="329.99"/><line class="cls-1" x1="395.45" y1="329.99" x2="395.37" y2="330.16"/><line class="cls-1" x1="395.37" y1="330.16" x2="395.29" y2="330.32"/><line class="cls-1" x1="395.29" y1="330.32" x2="395.03" y2="330.41"/><line class="cls-1" x1="395.03" y1="330.41" x2="394.7" y2="330.58"/><line class="cls-1" x1="394.7" y1="330.58" x2="394.28" y2="330.66"/><line class="cls-1" x1="394.28" y1="330.66" x2="393.77" y2="330.66"/><line class="cls-1" x1="393.77" y1="330.66" x2="389.41" y2="330.91"/><line class="cls-1" x1="389.41" y1="330.91" x2="389.07" y2="330.91"/><line class="cls-1" x1="389.07" y1="330.91" x2="388.82" y2="331"/><line class="cls-1" x1="388.82" y1="331" x2="388.65" y2="331.08"/><line class="cls-1" x1="388.65" y1="331.08" x2="388.57" y2="331.16"/><line class="cls-1" x1="388.57" y1="333.1" x2="388.57" y2="333.1"/><line class="cls-1" x1="388.57" y1="333.1" x2="388.48" y2="333.26"/><line class="cls-1" x1="388.48" y1="333.26" x2="388.31" y2="333.52"/><line class="cls-1" x1="388.31" y1="333.52" x2="388.06" y2="333.6"/><line class="cls-1" x1="388.06" y1="333.6" x2="387.73" y2="333.77"/><line class="cls-1" x1="387.73" y1="333.77" x2="387.31" y2="333.85"/><line class="cls-1" x1="387.31" y1="333.85" x2="386.8" y2="333.94"/><line class="cls-1" x1="386.8" y1="333.94" x2="382.27" y2="334.1"/><line class="cls-1" x1="382.27" y1="334.1" x2="381.93" y2="334.19"/><line class="cls-1" x1="381.93" y1="334.19" x2="381.68" y2="334.19"/><line class="cls-1" x1="381.68" y1="334.19" x2="381.51" y2="334.36"/><line class="cls-1" x1="381.51" y1="334.36" x2="381.34" y2="334.44"/><line class="cls-1" x1="381.34" y1="334.44" x2="381.34" y2="334.61"/><line class="cls-1" x1="381.34" y1="334.61" x2="381.26" y2="336.46"/><line class="cls-1" x1="381.26" y1="336.46" x2="381.26" y2="336.62"/><line class="cls-1" x1="381.26" y1="336.62" x2="381.09" y2="336.79"/><line class="cls-1" x1="381.09" y1="336.79" x2="380.75" y2="336.96"/><line class="cls-1" x1="380.75" y1="336.96" x2="380.42" y2="337.13"/><line class="cls-1" x1="380.42" y1="337.13" x2="380" y2="337.21"/><line class="cls-1" x1="380" y1="337.21" x2="379.41" y2="337.3"/><line class="cls-1" x1="379.41" y1="337.3" x2="374.87" y2="337.46"/><line class="cls-1" x1="374.87" y1="337.46" x2="374.45" y2="337.55"/><line class="cls-1" x1="374.45" y1="337.55" x2="374.2" y2="337.63"/><line class="cls-1" x1="374.2" y1="337.63" x2="374.03" y2="337.72"/><line class="cls-1" x1="374.03" y1="337.72" x2="373.87" y2="337.88"/><line class="cls-1" x1="373.87" y1="337.88" x2="373.78" y2="338.05"/><line class="cls-1" x1="373.78" y1="338.05" x2="373.7" y2="339.9"/><line class="cls-1" x1="373.7" y1="339.9" x2="373.61" y2="340.15"/><line class="cls-1" x1="373.61" y1="340.15" x2="373.45" y2="340.32"/><line class="cls-1" x1="373.45" y1="340.32" x2="373.11" y2="340.49"/><line class="cls-1" x1="373.11" y1="340.49" x2="372.77" y2="340.66"/><line class="cls-1" x1="372.77" y1="340.66" x2="372.27" y2="340.74"/><line class="cls-1" x1="372.27" y1="340.74" x2="371.77" y2="340.82"/><line class="cls-1" x1="371.77" y1="340.82" x2="366.98" y2="341.08"/><line class="cls-1" x1="366.98" y1="341.08" x2="366.64" y2="341.08"/><line class="cls-1" x1="366.64" y1="341.08" x2="366.39" y2="341.16"/><line class="cls-1" x1="366.39" y1="341.16" x2="366.14" y2="341.33"/><line class="cls-1" x1="366.14" y1="341.33" x2="365.97" y2="341.41"/><line class="cls-1" x1="365.97" y1="341.41" x2="365.89" y2="341.58"/><line class="cls-1" x1="365.89" y1="341.58" x2="365.63" y2="343.6"/><line class="cls-1" x1="365.63" y1="343.6" x2="365.55" y2="343.85"/><line class="cls-1" x1="365.55" y1="343.85" x2="365.38" y2="344.1"/><line class="cls-1" x1="365.38" y1="344.1" x2="365.05" y2="344.27"/><line class="cls-1" x1="365.05" y1="344.27" x2="364.63" y2="344.44"/><line class="cls-1" x1="364.63" y1="344.44" x2="364.21" y2="344.52"/><line class="cls-1" x1="364.21" y1="344.52" x2="363.62" y2="344.52"/><line class="cls-1" x1="363.62" y1="344.52" x2="358.75" y2="344.77"/><line class="cls-1" x1="358.75" y1="344.77" x2="358.33" y2="344.86"/><line class="cls-1" x1="358.33" y1="344.86" x2="358.07" y2="344.94"/><line class="cls-1" x1="358.07" y1="344.94" x2="357.82" y2="345.02"/><line class="cls-1" x1="357.82" y1="345.02" x2="357.65" y2="345.19"/><line class="cls-1" x1="357.65" y1="345.19" x2="357.57" y2="345.36"/><line class="cls-1" x1="357.57" y1="345.36" x2="357.23" y2="347.46"/><line class="cls-1" x1="357.23" y1="347.46" x2="357.07" y2="347.8"/><line class="cls-1" x1="357.07" y1="347.8" x2="356.9" y2="347.96"/><line class="cls-1" x1="356.9" y1="347.96" x2="356.56" y2="348.13"/><line class="cls-1" x1="356.56" y1="348.13" x2="356.14" y2="348.3"/><line class="cls-1" x1="356.14" y1="348.3" x2="355.64" y2="348.47"/><line class="cls-1" x1="355.64" y1="348.47" x2="355.05" y2="348.47"/><line class="cls-1" x1="355.05" y1="348.47" x2="350.01" y2="348.72"/><line class="cls-1" x1="350.01" y1="348.72" x2="349.59" y2="348.8"/><line class="cls-1" x1="349.59" y1="348.8" x2="349.34" y2="348.89"/><line class="cls-1" x1="349.34" y1="348.89" x2="349.09" y2="349.06"/><line class="cls-1" x1="349.09" y1="349.06" x2="348.83" y2="349.22"/><line class="cls-1" x1="348.83" y1="349.22" x2="348.75" y2="349.39"/><line class="cls-1" x1="348.75" y1="349.39" x2="348.25" y2="351.58"/><line class="cls-1" x1="348.25" y1="351.58" x2="348.16" y2="351.91"/><line class="cls-1" x1="348.16" y1="351.91" x2="347.91" y2="352.08"/><line class="cls-1" x1="347.91" y1="352.08" x2="347.57" y2="352.33"/><line class="cls-1" x1="347.57" y1="352.33" x2="347.15" y2="352.5"/><line class="cls-1" x1="347.15" y1="352.5" x2="346.57" y2="352.58"/><line class="cls-1" x1="346.57" y1="352.58" x2="345.98" y2="352.67"/><line class="cls-1" x1="345.98" y1="352.67" x2="340.77" y2="352.92"/><line class="cls-1" x1="340.77" y1="352.92" x2="340.43" y2="353"/><line class="cls-1" x1="340.43" y1="353" x2="340.1" y2="353.09"/><line class="cls-1" x1="340.1" y1="353.09" x2="339.76" y2="353.26"/><line class="cls-1" x1="339.76" y1="353.26" x2="339.59" y2="353.42"/><line class="cls-1" x1="339.59" y1="353.42" x2="339.51" y2="353.59"/><line class="cls-1" x1="339.51" y1="353.59" x2="338.84" y2="355.94"/><line class="cls-1" x1="338.84" y1="355.94" x2="338.67" y2="356.2"/><line class="cls-1" x1="338.67" y1="356.2" x2="338.42" y2="356.45"/><line class="cls-1" x1="338.42" y1="356.45" x2="338.08" y2="356.7"/><line class="cls-1" x1="338.08" y1="356.7" x2="337.58" y2="356.87"/><line class="cls-1" x1="337.58" y1="356.87" x2="337.07" y2="357.04"/><line class="cls-1" x1="337.07" y1="357.04" x2="336.4" y2="357.04"/><line class="cls-1" x1="336.4" y1="357.04" x2="331.03" y2="357.37"/><line class="cls-1" x1="331.03" y1="357.37" x2="330.61" y2="357.37"/><line class="cls-1" x1="330.61" y1="357.37" x2="330.27" y2="357.54"/><line class="cls-1" x1="330.27" y1="357.54" x2="330.02" y2="357.62"/><line class="cls-1" x1="330.02" y1="357.62" x2="329.77" y2="357.88"/><line class="cls-1" x1="329.77" y1="357.88" x2="329.68" y2="358.04"/><line class="cls-1" x1="329.68" y1="358.04" x2="328.84" y2="360.56"/><line class="cls-1" x1="328.84" y1="360.56" x2="328.67" y2="360.82"/><line class="cls-1" x1="328.67" y1="360.82" x2="328.42" y2="361.15"/><line class="cls-1" x1="328.42" y1="361.15" x2="328" y2="361.32"/><line class="cls-1" x1="328" y1="361.32" x2="327.5" y2="361.57"/><line class="cls-1" x1="327.5" y1="361.57" x2="326.91" y2="361.66"/><line class="cls-1" x1="326.91" y1="361.66" x2="326.24" y2="361.74"/><line class="cls-1" x1="326.24" y1="361.74" x2="320.69" y2="362.08"/><line class="cls-1" x1="320.69" y1="362.08" x2="320.27" y2="362.08"/><line class="cls-1" x1="320.27" y1="362.08" x2="319.94" y2="362.24"/><line class="cls-1" x1="319.94" y1="362.24" x2="319.6" y2="362.33"/><line class="cls-1" x1="319.6" y1="362.33" x2="319.43" y2="362.58"/><line class="cls-1" x1="319.43" y1="362.58" x2="319.27" y2="362.75"/><line class="cls-1" x1="319.27" y1="362.75" x2="318.26" y2="365.44"/><line class="cls-1" x1="318.26" y1="365.44" x2="318.01" y2="365.77"/><line class="cls-1" x1="318.01" y1="365.77" x2="317.75" y2="366.02"/><line class="cls-1" x1="317.75" y1="366.02" x2="317.25" y2="366.28"/><line class="cls-1" x1="317.25" y1="366.28" x2="316.75" y2="366.44"/><line class="cls-1" x1="316.75" y1="366.44" x2="316.16" y2="366.61"/><line class="cls-1" x1="316.16" y1="366.61" x2="315.49" y2="366.7"/><line class="cls-1" x1="315.49" y1="366.7" x2="309.77" y2="367.03"/><line class="cls-1" x1="309.77" y1="367.03" x2="309.35" y2="367.12"/><line class="cls-1" x1="309.35" y1="367.12" x2="308.93" y2="367.2"/><line class="cls-1" x1="308.93" y1="367.2" x2="308.6" y2="367.37"/><line class="cls-1" x1="308.6" y1="367.37" x2="308.35" y2="367.54"/><line class="cls-1" x1="308.35" y1="367.54" x2="308.18" y2="367.79"/><line class="cls-1" x1="308.18" y1="367.79" x2="306.92" y2="370.64"/><line class="cls-1" x1="306.92" y1="370.64" x2="306.75" y2="370.98"/><line class="cls-1" x1="306.75" y1="370.98" x2="306.41" y2="371.23"/><line class="cls-1" x1="306.41" y1="371.23" x2="305.91" y2="371.48"/><line class="cls-1" x1="305.91" y1="371.48" x2="305.41" y2="371.74"/><line class="cls-1" x1="305.41" y1="371.74" x2="304.73" y2="371.9"/><line class="cls-1" x1="304.73" y1="371.9" x2="304.06" y2="371.99"/><line class="cls-1" x1="304.06" y1="371.99" x2="298.1" y2="372.32"/><line class="cls-1" x1="298.1" y1="372.32" x2="297.68" y2="372.41"/><line class="cls-1" x1="297.68" y1="372.41" x2="297.26" y2="372.49"/><line class="cls-1" x1="297.26" y1="372.49" x2="296.92" y2="372.66"/><line class="cls-1" x1="296.92" y1="372.66" x2="296.59" y2="372.91"/><line class="cls-1" x1="296.59" y1="372.91" x2="296.42" y2="373.16"/><line class="cls-1" x1="296.42" y1="373.16" x2="294.91" y2="376.1"/><line class="cls-1" x1="294.91" y1="376.1" x2="294.65" y2="376.52"/><line class="cls-1" x1="294.65" y1="376.52" x2="294.32" y2="376.86"/><line class="cls-1" x1="294.32" y1="376.86" x2="293.81" y2="377.11"/><line class="cls-1" x1="293.81" y1="377.11" x2="293.23" y2="377.36"/><line class="cls-1" x1="293.23" y1="377.36" x2="292.55" y2="377.45"/><line class="cls-1" x1="292.55" y1="377.45" x2="291.88" y2="377.53"/><line class="cls-1" x1="291.88" y1="377.53" x2="285.67" y2="377.95"/><line class="cls-1" x1="285.67" y1="377.95" x2="285.16" y2="378.04"/><line class="cls-1" x1="285.16" y1="378.04" x2="284.74" y2="378.12"/><line class="cls-1" x1="284.74" y1="378.12" x2="284.41" y2="378.37"/><line class="cls-1" x1="284.41" y1="378.37" x2="284.07" y2="378.54"/><line class="cls-1" x1="284.07" y1="378.54" x2="283.9" y2="378.88"/><line class="cls-1" x1="283.9" y1="378.88" x2="282.14" y2="382.07"/><line class="cls-1" x1="282.14" y1="382.07" x2="281.8" y2="382.4"/><line class="cls-1" x1="281.8" y1="382.4" x2="281.38" y2="382.74"/><line class="cls-1" x1="281.38" y1="382.74" x2="280.88" y2="383.08"/><line class="cls-1" x1="280.88" y1="383.08" x2="280.29" y2="383.33"/><line class="cls-1" x1="280.29" y1="383.33" x2="279.53" y2="383.5"/><line class="cls-1" x1="279.53" y1="383.5" x2="278.78" y2="383.58"/><line class="cls-1" x1="278.78" y1="383.58" x2="272.39" y2="384"/><line class="cls-1" x1="272.39" y1="384" x2="271.89" y2="384"/><line class="cls-1" x1="271.89" y1="384" x2="271.47" y2="384.17"/><line class="cls-1" x1="271.47" y1="384.17" x2="271.05" y2="384.42"/><line class="cls-1" x1="271.05" y1="384.42" x2="270.71" y2="384.67"/><line class="cls-1" x1="270.71" y1="384.67" x2="270.46" y2="384.92"/><line class="cls-1" x1="270.46" y1="384.92" x2="268.36" y2="388.37"/><line class="cls-1" x1="268.36" y1="388.37" x2="268.11" y2="388.79"/><line class="cls-1" x1="268.11" y1="388.79" x2="267.61" y2="389.12"/><line class="cls-1" x1="267.61" y1="389.12" x2="267.02" y2="389.46"/><line class="cls-1" x1="267.02" y1="389.46" x2="266.35" y2="389.71"/><line class="cls-1" x1="266.35" y1="389.71" x2="265.67" y2="389.88"/><line class="cls-1" x1="265.67" y1="389.88" x2="264.83" y2="389.96"/><line class="cls-1" x1="264.83" y1="389.96" x2="258.2" y2="390.38"/><line class="cls-1" x1="258.2" y1="390.38" x2="257.69" y2="390.47"/><line class="cls-1" x1="257.69" y1="390.47" x2="257.19" y2="390.64"/><line class="cls-1" x1="257.19" y1="390.64" x2="256.77" y2="390.89"/><line class="cls-1" x1="256.77" y1="390.89" x2="256.43" y2="391.14"/><line class="cls-1" x1="256.43" y1="391.14" x2="256.1" y2="391.48"/><line class="cls-1" x1="256.1" y1="391.48" x2="253.66" y2="395.09"/><line class="cls-1" x1="253.66" y1="395.09" x2="253.33" y2="395.59"/><line class="cls-1" x1="253.33" y1="395.59" x2="252.82" y2="395.93"/><line class="cls-1" x1="252.82" y1="395.93" x2="252.23" y2="396.26"/><line class="cls-1" x1="252.23" y1="396.26" x2="251.48" y2="396.6"/><line class="cls-1" x1="251.48" y1="396.6" x2="250.72" y2="396.77"/><line class="cls-1" x1="250.72" y1="396.77" x2="249.88" y2="396.85"/><line class="cls-1" x1="249.88" y1="396.85" x2="242.99" y2="397.36"/><line class="cls-1" x1="242.99" y1="397.36" x2="242.41" y2="397.44"/><line class="cls-1" x1="242.41" y1="397.44" x2="241.9" y2="397.61"/><line class="cls-1" x1="241.9" y1="397.61" x2="241.4" y2="397.78"/><line class="cls-1" x1="241.4" y1="397.78" x2="241.06" y2="398.11"/><line class="cls-1" x1="241.06" y1="398.11" x2="240.73" y2="398.45"/><line class="cls-1" x1="240.73" y1="398.45" x2="237.87" y2="402.4"/><line class="cls-1" x1="237.87" y1="402.4" x2="237.45" y2="402.9"/><line class="cls-1" x1="237.45" y1="402.9" x2="236.95" y2="403.32"/><line class="cls-1" x1="236.95" y1="403.32" x2="236.27" y2="403.66"/><line class="cls-1" x1="236.27" y1="403.66" x2="235.52" y2="403.91"/><line class="cls-1" x1="235.52" y1="403.91" x2="234.68" y2="404.16"/><line class="cls-1" x1="234.68" y1="404.16" x2="233.84" y2="404.24"/><line class="cls-1" x1="233.84" y1="404.24" x2="226.78" y2="404.75"/><line class="cls-1" x1="226.78" y1="404.75" x2="226.19" y2="404.83"/><line class="cls-1" x1="226.19" y1="404.83" x2="225.61" y2="405"/><line class="cls-1" x1="225.61" y1="405" x2="225.02" y2="405.25"/><line class="cls-1" x1="225.02" y1="405.25" x2="224.6" y2="405.5"/><line class="cls-1" x1="224.6" y1="405.5" x2="224.26" y2="405.84"/><line class="cls-1" x1="224.26" y1="405.84" x2="222.41" y2="408.28"/><line class="cls-1" x1="222.41" y1="408.28" x2="221.66" y2="408.02"/><line class="cls-1" x1="413.93" y1="128.14" x2="413.93" y2="321.67"/><line class="cls-1" x1="419.73" y1="319.07" x2="419.73" y2="129.73"/><line class="cls-1" x1="425.19" y1="316.55" x2="425.19" y2="131.24"/><line class="cls-1" x1="430.48" y1="314.11" x2="430.48" y2="132.76"/><line class="cls-1" x1="435.52" y1="311.76" x2="435.52" y2="134.1"/><line class="cls-1" x1="407.89" y1="126.46" x2="407.89" y2="324.53"/><line class="cls-1" x1="402.09" y1="325.03" x2="402.09" y2="126.2"/><line class="cls-1" x1="401.59" y1="124.69" x2="401.59" y2="327.38"/><line class="cls-1" x1="395.62" y1="327.97" x2="395.62" y2="124.44"/><line class="cls-1" x1="395.03" y1="122.93" x2="395.03" y2="330.41"/><line class="cls-1" x1="388.82" y1="331" x2="388.82" y2="122.59"/><line class="cls-1" x1="388.06" y1="121" x2="388.06" y2="333.6"/><line class="cls-1" x1="349.34" y1="111.84" x2="349.34" y2="348.89"/><line class="cls-1" x1="356.56" y1="112.26" x2="356.56" y2="348.13"/><line class="cls-1" x1="358.07" y1="114.19" x2="358.07" y2="344.94"/><line class="cls-1" x1="365.05" y1="344.27" x2="365.05" y2="114.61"/><line class="cls-1" x1="366.39" y1="116.46" x2="366.39" y2="341.16"/><line class="cls-1" x1="373.11" y1="340.49" x2="373.11" y2="116.88"/><line class="cls-1" x1="374.2" y1="118.56" x2="374.2" y2="337.63"/><line class="cls-1" x1="380.75" y1="336.96" x2="380.75" y2="118.98"/><line class="cls-1" x1="381.68" y1="120.66" x2="381.68" y2="334.19"/><line class="cls-1" x1="308.93" y1="367.2" x2="308.93" y2="100.84"/><line class="cls-1" x1="340.1" y1="353.09" x2="340.1" y2="109.32"/><line class="cls-1" x1="338.08" y1="356.7" x2="338.08" y2="107.14"/><line class="cls-1" x1="328" y1="104.36" x2="328" y2="361.32"/><line class="cls-1" x1="319.94" y1="362.24" x2="319.94" y2="103.86"/><line class="cls-1" x1="317.25" y1="101.42" x2="317.25" y2="366.28"/><line class="cls-1" x1="330.27" y1="357.54" x2="330.27" y2="106.63"/><line class="cls-1" x1="305.91" y1="98.23" x2="305.91" y2="371.48"/><line class="cls-1" x1="297.26" y1="372.49" x2="297.26" y2="97.64"/><line class="cls-1" x1="293.81" y1="94.87" x2="293.81" y2="377.11"/><line class="cls-1" x1="221.66" y1="408.02" x2="221.66" y2="76.31"/><line class="cls-1" x1="222.41" y1="408.28" x2="222.41" y2="76.22"/><line class="cls-1" x1="225.02" y1="405.25" x2="225.02" y2="78.07"/><line class="cls-1" x1="236.27" y1="403.66" x2="236.27" y2="79"/><line class="cls-1" x1="241.9" y1="397.61" x2="241.9" y2="82.61"/><line class="cls-1" x1="252.23" y1="396.26" x2="252.23" y2="83.36"/><line class="cls-1" x1="257.19" y1="390.64" x2="257.19" y2="86.81"/><line class="cls-1" x1="267.02" y1="389.46" x2="267.02" y2="87.48"/><line class="cls-1" x1="271.47" y1="384.17" x2="271.47" y2="90.67"/><line class="cls-1" x1="280.88" y1="383.08" x2="280.88" y2="91.34"/><line class="cls-1" x1="284.74" y1="378.12" x2="284.74" y2="94.28"/><line class="cls-1" x1="347.57" y1="352.33" x2="347.57" y2="109.74"/><line class="cls-1" x1="440.39" y1="309.49" x2="440.39" y2="135.44"/><line class="cls-1" x1="445.1" y1="307.39" x2="445.1" y2="136.79"/><line class="cls-1" x1="449.55" y1="305.29" x2="449.55" y2="137.96"/><line class="cls-1" x1="453.83" y1="303.28" x2="453.83" y2="139.22"/><line class="cls-1" x1="458.03" y1="301.43" x2="458.03" y2="140.32"/><line class="cls-1" x1="461.98" y1="299.58" x2="461.98" y2="141.41"/><line class="cls-1" x1="465.85" y1="297.73" x2="465.85" y2="142.5"/><line class="cls-1" x1="469.54" y1="296.05" x2="469.54" y2="143.51"/><line class="cls-1" x1="473.15" y1="294.37" x2="473.15" y2="144.52"/><line class="cls-1" x1="476.6" y1="292.78" x2="476.6" y2="145.52"/><line class="cls-1" x1="479.96" y1="291.26" x2="479.96" y2="146.45"/></g><g id="Dimensions"><path d="M164,426.46l-1.15.11a2.7,2.7,0,0,0-.48-1.25,1.4,1.4,0,0,0-1.11-.55,1.85,1.85,0,0,0-1.62,1.25,7.86,7.86,0,0,0-.53,3.19,3,3,0,0,1,1-1.14,2.3,2.3,0,0,1,1.28-.38,2.46,2.46,0,0,1,1.95,1,4.13,4.13,0,0,1,.83,2.7,5.07,5.07,0,0,1-.42,2.09,3.27,3.27,0,0,1-1.07,1.38,2.58,2.58,0,0,1-1.45.44A2.78,2.78,0,0,1,158.9,434a7.49,7.49,0,0,1-.92-4.27,8.83,8.83,0,0,1,.94-4.73,2.8,2.8,0,0,1,2.42-1.41,2.44,2.44,0,0,1,1.79.72A3.51,3.51,0,0,1,164,426.46Zm-4.71,4.94a3.17,3.17,0,0,0,.59,2,1.69,1.69,0,0,0,1.36.75,1.49,1.49,0,0,0,1.21-.71,3.14,3.14,0,0,0,.54-1.95,3,3,0,0,0-.53-1.89,1.61,1.61,0,0,0-1.3-.67,1.65,1.65,0,0,0-1.31.67A2.71,2.71,0,0,0,159.3,431.4Z"/><path d="M165.66,435.12v-8.3h1V428a2.6,2.6,0,0,1,.89-1,2.11,2.11,0,0,1,1.17-.35A2,2,0,0,1,170,427a2,2,0,0,1,.7,1.08,3.11,3.11,0,0,1,.94-1.09,2,2,0,0,1,1.17-.36,2,2,0,0,1,1.55.66,3.33,3.33,0,0,1,.56,2.13v5.7h-1.15v-5.24a4.16,4.16,0,0,0-.13-1.26,1.09,1.09,0,0,0-.42-.58,1.14,1.14,0,0,0-.65-.2,1.51,1.51,0,0,0-1.22.59,3,3,0,0,0-.47,1.86v4.83H169.7v-5.4a2.55,2.55,0,0,0-.31-1.46,1.06,1.06,0,0,0-.88-.42,1.43,1.43,0,0,0-1.24.64,4.17,4.17,0,0,0-.46,2.33v4.31Z"/><path d="M176.59,435.12v-8.3h1V428a2.6,2.6,0,0,1,.89-1,2.11,2.11,0,0,1,1.17-.35,2,2,0,0,1,1.22.37,2,2,0,0,1,.7,1.08,3.11,3.11,0,0,1,.94-1.09,2,2,0,0,1,1.17-.36,1.91,1.91,0,0,1,1.54.66,3.27,3.27,0,0,1,.57,2.13v5.7h-1.15v-5.24a4.16,4.16,0,0,0-.13-1.26,1.1,1.1,0,0,0-1.07-.78,1.51,1.51,0,0,0-1.22.59,3,3,0,0,0-.47,1.86v4.83h-1.15v-5.4a2.55,2.55,0,0,0-.31-1.46,1.06,1.06,0,0,0-.88-.42,1.43,1.43,0,0,0-1.24.64,4.17,4.17,0,0,0-.46,2.33v4.31Z"/><path d="M352.56,393.21a2.25,2.25,0,0,1-1-.9,2.68,2.68,0,0,1-.36-1.44,3,3,0,0,1,.77-2.13,2.67,2.67,0,0,1,3.87,0,3,3,0,0,1,.78,2.15,2.67,2.67,0,0,1-.35,1.4,2.26,2.26,0,0,1-1,.9,2.55,2.55,0,0,1,1.31,1.08,3.47,3.47,0,0,1,.46,1.86,3.54,3.54,0,0,1-.89,2.5,3,3,0,0,1-4.4,0,4.06,4.06,0,0,1-.42-4.43A2.31,2.31,0,0,1,352.56,393.21Zm-.6,2.91a2.52,2.52,0,0,0,.56,1.7,1.77,1.77,0,0,0,2.71,0,2.83,2.83,0,0,0,0-3.38,1.78,1.78,0,0,0-1.36-.64,1.69,1.69,0,0,0-1.34.64A2.45,2.45,0,0,0,352,396.12Zm.38-5.3a2,2,0,0,0,.45,1.35,1.4,1.4,0,0,0,1.09.49,1.37,1.37,0,0,0,1.07-.49,1.79,1.79,0,0,0,.45-1.27,1.92,1.92,0,0,0-.46-1.31,1.39,1.39,0,0,0-1.08-.51,1.38,1.38,0,0,0-1.07.5A1.79,1.79,0,0,0,352.34,390.82Z"/><path d="M364.15,398.07v1.35h-6.21a3.93,3.93,0,0,1,.5-1.84,10.79,10.79,0,0,1,1.9-2.4,13.25,13.25,0,0,0,2.12-2.49,3.35,3.35,0,0,0,.5-1.63,2,2,0,0,0-.51-1.43,1.64,1.64,0,0,0-1.26-.55,1.67,1.67,0,0,0-1.32.59,2.52,2.52,0,0,0-.52,1.71l-1.19-.15a3.93,3.93,0,0,1,.94-2.48,2.82,2.82,0,0,1,2.12-.83,2.56,2.56,0,0,1,2.18,1,3.56,3.56,0,0,1,.74,2.2,4.11,4.11,0,0,1-.58,2.1,16.09,16.09,0,0,1-2.19,2.68c-.69.7-1.14,1.18-1.34,1.43a4.71,4.71,0,0,0-.49.77Z"/><path d="M365.37,396.42l1.21-.12a3,3,0,0,0,.64,1.63,1.55,1.55,0,0,0,1.15.53,1.77,1.77,0,0,0,1.42-.75,3.31,3.31,0,0,0,.59-2.07,2.87,2.87,0,0,0-.57-1.9,1.84,1.84,0,0,0-1.44-.68,1.79,1.79,0,0,0-1,.3,2.1,2.1,0,0,0-.72.81l-1.08-.17.91-5.88h4.66v1.34h-3.74l-.51,3.08a2.69,2.69,0,0,1,1.78-.72,2.65,2.65,0,0,1,2.05,1,4,4,0,0,1,.87,2.71,4.77,4.77,0,0,1-.87,2.88,2.75,2.75,0,0,1-2.34,1.2,2.82,2.82,0,0,1-2.06-.85A3.64,3.64,0,0,1,365.37,396.42Z"/><path d="M373,399.42v-8.29h1v1.15a2.58,2.58,0,0,1,.88-1,2.07,2.07,0,0,1,1.18-.35,1.87,1.87,0,0,1,1.91,1.44,3.27,3.27,0,0,1,.94-1.08,2,2,0,0,1,1.17-.36,1.93,1.93,0,0,1,1.55.66,3.29,3.29,0,0,1,.56,2.13v5.69h-1.15v-5.23a4.12,4.12,0,0,0-.13-1.26,1.09,1.09,0,0,0-.42-.58,1.14,1.14,0,0,0-.65-.2,1.51,1.51,0,0,0-1.22.59,3,3,0,0,0-.47,1.86v4.82H377V394a2.53,2.53,0,0,0-.31-1.46,1,1,0,0,0-.87-.42,1.45,1.45,0,0,0-1.25.64,4.25,4.25,0,0,0-.46,2.32v4.31Z"/><path d="M383.94,399.42v-8.29h1v1.15a2.58,2.58,0,0,1,.88-1,2.07,2.07,0,0,1,1.18-.35,1.87,1.87,0,0,1,1.91,1.44,3.27,3.27,0,0,1,.94-1.08,2,2,0,0,1,1.17-.36,1.93,1.93,0,0,1,1.55.66,3.29,3.29,0,0,1,.56,2.13v5.69H392v-5.23a4.12,4.12,0,0,0-.13-1.26,1.09,1.09,0,0,0-.42-.58,1.14,1.14,0,0,0-.65-.2,1.51,1.51,0,0,0-1.22.59,3,3,0,0,0-.47,1.86v4.82H388V394a2.53,2.53,0,0,0-.31-1.46,1,1,0,0,0-.87-.42,1.45,1.45,0,0,0-1.25.64,4.25,4.25,0,0,0-.46,2.32v4.31Z"/><path d="M400.72,402.79a16.24,16.24,0,0,1-1.57-3.31,12.45,12.45,0,0,1-.71-4.21,14.15,14.15,0,0,1,2.28-7.5h.82a27.16,27.16,0,0,0-1.2,2.85,15.05,15.05,0,0,0-.53,2.22,16.6,16.6,0,0,0-.19,2.44,16.4,16.4,0,0,0,1.92,7.51Z"/><path d="M405.75,397.39v-3.15h-3.12v-1.31h3.12v-3.12h1.33v3.12h3.11v1.31h-3.11v3.15Zm4.44,2h-7.56v-1.31h7.56Z"/><path d="M415,399.42v-2.74H411v-1.29l4.28-7.42h.95v7.42h1.27v1.29h-1.27v2.74Zm0-4v-5.16l-2.93,5.16Z"/><path d="M419,399.42v-8.29h1v1.15a2.58,2.58,0,0,1,.88-1,2.07,2.07,0,0,1,1.18-.35,1.94,1.94,0,0,1,1.21.37,2,2,0,0,1,.71,1.07,3.14,3.14,0,0,1,.93-1.08,2.08,2.08,0,0,1,1.18-.36,1.93,1.93,0,0,1,1.54.66,3.23,3.23,0,0,1,.57,2.13v5.69H427v-5.23a4.47,4.47,0,0,0-.13-1.26,1.2,1.2,0,0,0-.42-.58,1.16,1.16,0,0,0-.65-.2,1.49,1.49,0,0,0-1.22.59,2.92,2.92,0,0,0-.47,1.86v4.82H423V394a2.52,2.52,0,0,0-.32-1.46,1,1,0,0,0-.87-.42,1.45,1.45,0,0,0-1.25.64,4.26,4.26,0,0,0-.45,2.32v4.31Z"/><path d="M429.89,399.42v-8.29h1v1.15a2.58,2.58,0,0,1,.88-1,2.07,2.07,0,0,1,1.18-.35,1.94,1.94,0,0,1,1.21.37,2,2,0,0,1,.71,1.07,3.14,3.14,0,0,1,.93-1.08,2.08,2.08,0,0,1,1.18-.36,1.93,1.93,0,0,1,1.54.66,3.23,3.23,0,0,1,.57,2.13v5.69H438v-5.23a4.47,4.47,0,0,0-.13-1.26,1.2,1.2,0,0,0-.42-.58,1.16,1.16,0,0,0-.65-.2,1.49,1.49,0,0,0-1.22.59,2.92,2.92,0,0,0-.47,1.86v4.82h-1.15V394a2.52,2.52,0,0,0-.32-1.46,1,1,0,0,0-.87-.42,1.45,1.45,0,0,0-1.25.64,4.26,4.26,0,0,0-.45,2.32v4.31Z"/><path d="M441.26,402.79h-.82a16.51,16.51,0,0,0,1.91-7.51,15.34,15.34,0,0,0-.19-2.44,15.08,15.08,0,0,0-.52-2.22,27.16,27.16,0,0,0-1.2-2.85h.82a14.22,14.22,0,0,1,2.27,7.5,12.66,12.66,0,0,1-.68,4.14A15.4,15.4,0,0,1,441.26,402.79Z"/><path d="M455.65,395.41l1.25.38a5.23,5.23,0,0,1-1.44,2.88,3.64,3.64,0,0,1-2.52.95,3.78,3.78,0,0,1-2.23-.64,4.47,4.47,0,0,1-1.52-2,8.65,8.65,0,0,1-.59-3.33,7.85,7.85,0,0,1,.59-3.2,4.57,4.57,0,0,1,1.6-2,4,4,0,0,1,2.25-.66,3.47,3.47,0,0,1,2.34.84,4.57,4.57,0,0,1,1.37,2.48l-1.22.36c-.42-1.59-1.26-2.39-2.51-2.39a2.78,2.78,0,0,0-1.63.48,3.27,3.27,0,0,0-1.1,1.5,7,7,0,0,0-.41,2.57,6.15,6.15,0,0,0,.83,3.53,2.56,2.56,0,0,0,2.2,1.18,2.45,2.45,0,0,0,1.76-.72A3.85,3.85,0,0,0,455.65,395.41Z"/><path d="M457.86,395.27a5,5,0,0,1,.9-3.24,2.93,2.93,0,0,1,4.56,0,4.8,4.8,0,0,1,.91,3.16,5.17,5.17,0,0,1-.9,3.33,2.92,2.92,0,0,1-4.56,0A5,5,0,0,1,457.86,395.27Zm1.18,0a4,4,0,0,0,.58,2.4,1.77,1.77,0,0,0,1.46.78,1.69,1.69,0,0,0,1.39-.79,4,4,0,0,0,.58-2.39,4,4,0,0,0-.58-2.39,1.78,1.78,0,0,0-1.46-.79,1.7,1.7,0,0,0-1.39.79A4,4,0,0,0,459,395.27Z"/><path d="M467.49,399.42l-2.59-8.29h1.22l1.47,5c.16.57.31,1.12.44,1.68.09-.44.24-1,.42-1.58l1.52-5.06h1.18l-2.58,8.29Z"/><path d="M476.8,396.75l1.19.18a3.63,3.63,0,0,1-1.07,2,2.84,2.84,0,0,1-1.93.68,2.89,2.89,0,0,1-2.34-1.1,4.89,4.89,0,0,1-.89-3.17,5.14,5.14,0,0,1,.9-3.27,2.78,2.78,0,0,1,2.28-1.13,2.72,2.72,0,0,1,2.21,1.11,5.11,5.11,0,0,1,.88,3.21v.37h-5.08a3.62,3.62,0,0,0,.65,2.11,1.75,1.75,0,0,0,1.41.71C475.86,398.45,476.46,397.89,476.8,396.75ZM473,394.48h3.8a3.18,3.18,0,0,0-.46-1.61,1.66,1.66,0,0,0-2.73-.13A2.82,2.82,0,0,0,473,394.48Z"/><path d="M479.45,399.42v-8.29h1v1.25a3.67,3.67,0,0,1,.73-1.16,1.11,1.11,0,0,1,.75-.28,2,2,0,0,1,1.18.45l-.39,1.31a1.43,1.43,0,0,0-.84-.31,1,1,0,0,0-.67.26,1.31,1.31,0,0,0-.43.72,6.26,6.26,0,0,0-.22,1.71v4.34Z"/><line class="cls-2" x1="238.88" y1="436.16" x2="483.23" y2="319.24"/><line class="cls-3" x1="480.04" y1="320.75" x2="483.57" y2="322.6"/><line class="cls-3" x1="480.04" y1="320.75" x2="476.43" y2="318.82"/><line class="cls-2" x1="480.04" y1="324.02" x2="480.04" y2="304.2"/><line class="cls-3" x1="241.99" y1="434.65" x2="245.51" y2="436.5"/><line class="cls-3" x1="241.99" y1="434.65" x2="238.46" y2="432.8"/><line class="cls-2" x1="241.99" y1="438.1" x2="241.99" y2="418.19"/><line class="cls-2" x1="189.91" y1="418.27" x2="200.41" y2="428.77"/><line class="cls-3" x1="198.22" y1="426.5" x2="197.47" y2="430.37"/><line class="cls-3" x1="198.22" y1="426.5" x2="198.89" y2="422.56"/><line class="cls-3" x1="191.5" y1="419.87" x2="190.83" y2="423.82"/><line class="cls-3" x1="191.5" y1="419.87" x2="192.26" y2="416"/><line class="cls-2" x1="196.12" y1="427.43" x2="214.01" y2="418.86"/><line class="cls-2" x1="189.49" y1="420.79" x2="207.38" y2="412.22"/></g></svg>