<svg xmlns="http://www.w3.org/2000/svg" xmlns:xlink="http://www.w3.org/1999/xlink" viewBox="0 0 700 400"><defs><style>.cls-1,.cls-2,.cls-6,.cls-7,.cls-8{fill:none;}.cls-2,.cls-6,.cls-7,.cls-8{stroke:#000;}.cls-2,.cls-7,.cls-8{stroke-linecap:round;stroke-linejoin:round;}.cls-2,.cls-6{stroke-width:0.6px;}.cls-3{clip-path:url(#clip-path);}.cls-4{clip-path:url(#clip-path-2);}.cls-5{clip-path:url(#clip-path-3);}.cls-6{stroke-miterlimit:10;}.cls-7{stroke-width:0.5px;}.cls-8{stroke-width:0.96px;}</style><clipPath id="clip-path"><rect class="cls-1" x="631.04" y="254.56" width="4.03" height="1.34"/></clipPath><clipPath id="clip-path-2"><rect class="cls-1" x="630.88" y="254.06" width="4.2" height="1.34"/></clipPath><clipPath id="clip-path-3"><rect class="cls-1" x="623.57" y="247.08" width="11.51" height="7.56"/></clipPath></defs><title>Roofing-Longspan-Dimensioned</title><g id="Image"><line class="cls-2" x1="604.84" y1="239.69" x2="628.86" y2="255.06"/><line class="cls-2" x1="203.74" y1="255.57" x2="221.12" y2="239.61"/><line class="cls-2" x1="488.66" y1="240.28" x2="499.92" y2="255.15"/><line class="cls-2" x1="545.87" y1="239.36" x2="564.35" y2="255.4"/><g class="cls-3"><line class="cls-2" x1="635.08" y1="254.81" x2="631.38" y2="255.57"/></g><line class="cls-2" x1="631.38" y1="255.57" x2="630.62" y2="255.65"/><line class="cls-2" x1="630.62" y1="255.65" x2="629.95" y2="255.57"/><line class="cls-2" x1="629.95" y1="255.57" x2="629.28" y2="255.32"/><line class="cls-2" x1="629.28" y1="255.32" x2="628.86" y2="255.06"/><line class="cls-2" x1="628.86" y1="255.06" x2="628.69" y2="254.98"/><line class="cls-2" x1="628.69" y1="254.98" x2="618.44" y2="240.45"/><line class="cls-2" x1="618.44" y1="240.45" x2="614.75" y2="239.69"/><line class="cls-2" x1="614.75" y1="239.69" x2="610.88" y2="239.27"/><line class="cls-2" x1="610.88" y1="239.27" x2="607.1" y2="239.36"/><line class="cls-2" x1="607.1" y1="239.36" x2="603.24" y2="239.94"/><line class="cls-2" x1="603.24" y1="239.94" x2="602.9" y2="240.11"/><line class="cls-2" x1="602.9" y1="240.11" x2="602.48" y2="240.36"/><line class="cls-2" x1="602.48" y1="240.36" x2="602.23" y2="240.7"/><line class="cls-2" x1="602.23" y1="240.7" x2="601.98" y2="241.12"/><line class="cls-2" x1="601.98" y1="241.12" x2="601.64" y2="241.71"/><line class="cls-2" x1="601.64" y1="241.71" x2="601.14" y2="242.21"/><line class="cls-2" x1="601.14" y1="242.21" x2="600.55" y2="242.63"/><line class="cls-2" x1="600.55" y1="242.63" x2="599.88" y2="242.8"/><line class="cls-2" x1="599.88" y1="242.8" x2="599.46" y2="242.97"/><line class="cls-2" x1="599.46" y1="242.97" x2="599.12" y2="243.14"/><line class="cls-2" x1="599.12" y1="243.14" x2="598.79" y2="243.39"/><line class="cls-2" x1="598.79" y1="243.39" x2="598.54" y2="243.64"/><line class="cls-2" x1="598.54" y1="243.64" x2="589.97" y2="255.06"/><line class="cls-2" x1="589.97" y1="255.06" x2="589.72" y2="255.32"/><line class="cls-2" x1="589.72" y1="255.32" x2="589.38" y2="255.57"/><line class="cls-2" x1="589.38" y1="255.57" x2="589.04" y2="255.65"/><line class="cls-2" x1="589.04" y1="255.65" x2="565.1" y2="255.74"/><line class="cls-2" x1="565.1" y1="255.74" x2="564.68" y2="255.57"/><line class="cls-2" x1="564.68" y1="255.57" x2="564.35" y2="255.4"/><line class="cls-2" x1="564.35" y1="255.4" x2="564.35" y2="255.4"/><line class="cls-2" x1="564.35" y1="255.4" x2="564.1" y2="255.06"/><line class="cls-2" x1="564.1" y1="255.06" x2="554.02" y2="240.53"/><line class="cls-2" x1="554.02" y1="240.53" x2="551.16" y2="239.86"/><line class="cls-2" x1="551.16" y1="239.86" x2="548.3" y2="239.44"/><line class="cls-2" x1="548.3" y1="239.44" x2="545.28" y2="239.36"/><line class="cls-2" x1="545.28" y1="239.36" x2="542.34" y2="239.44"/><line class="cls-2" x1="542.34" y1="239.44" x2="539.4" y2="239.86"/><line class="cls-2" x1="539.4" y1="239.86" x2="536.54" y2="240.53"/><line class="cls-2" x1="536.54" y1="240.53" x2="525.71" y2="255.15"/><line class="cls-2" x1="525.71" y1="255.15" x2="525.46" y2="255.4"/><line class="cls-2" x1="525.46" y1="255.4" x2="525.12" y2="255.57"/><line class="cls-2" x1="525.12" y1="255.57" x2="524.78" y2="255.74"/><line class="cls-2" x1="524.78" y1="255.74" x2="500.84" y2="255.74"/><line class="cls-2" x1="500.84" y1="255.74" x2="500.42" y2="255.65"/><line class="cls-2" x1="500.42" y1="255.65" x2="500.09" y2="255.4"/><line class="cls-2" x1="500.09" y1="255.4" x2="499.92" y2="255.15"/><line class="cls-2" x1="499.92" y1="255.15" x2="499.84" y2="255.15"/><line class="cls-2" x1="499.84" y1="255.15" x2="489.67" y2="240.53"/><line class="cls-2" x1="489.67" y1="240.53" x2="486.82" y2="239.86"/><line class="cls-2" x1="486.82" y1="239.86" x2="483.88" y2="239.52"/><line class="cls-2" x1="483.88" y1="239.52" x2="480.85" y2="239.36"/><line class="cls-2" x1="480.85" y1="239.36" x2="477.91" y2="239.52"/><line class="cls-2" x1="477.91" y1="239.52" x2="474.97" y2="239.86"/><line class="cls-2" x1="474.97" y1="239.86" x2="472.12" y2="240.53"/><line class="cls-2" x1="472.12" y1="240.53" x2="461.45" y2="255.15"/><line class="cls-2" x1="461.45" y1="255.15" x2="461.2" y2="255.4"/><line class="cls-2" x1="461.2" y1="255.4" x2="460.86" y2="255.65"/><line class="cls-2" x1="460.86" y1="255.65" x2="460.52" y2="255.74"/><line class="cls-2" x1="460.52" y1="255.74" x2="436.5" y2="255.82"/><line class="cls-2" x1="436.5" y1="255.82" x2="436.16" y2="255.65"/><line class="cls-2" x1="436.16" y1="255.65" x2="435.83" y2="255.48"/><line class="cls-2" x1="435.83" y1="255.48" x2="435.58" y2="255.15"/><line class="cls-2" x1="435.58" y1="255.15" x2="425.24" y2="240.62"/><line class="cls-2" x1="425.24" y1="240.62" x2="422.3" y2="239.94"/><line class="cls-2" x1="422.3" y1="239.94" x2="419.36" y2="239.52"/><line class="cls-2" x1="419.36" y1="239.52" x2="416.42" y2="239.36"/><line class="cls-2" x1="416.42" y1="239.36" x2="413.48" y2="239.52"/><line class="cls-2" x1="413.48" y1="239.52" x2="410.54" y2="239.94"/><line class="cls-2" x1="410.54" y1="239.94" x2="407.69" y2="240.62"/><line class="cls-2" x1="407.69" y1="240.62" x2="397.1" y2="255.15"/><line class="cls-2" x1="397.1" y1="255.15" x2="396.85" y2="255.48"/><line class="cls-2" x1="396.85" y1="255.48" x2="396.52" y2="255.65"/><line class="cls-2" x1="396.52" y1="255.65" x2="396.18" y2="255.82"/><line class="cls-2" x1="396.18" y1="255.82" x2="372.16" y2="255.82"/><line class="cls-2" x1="372.16" y1="255.82" x2="371.82" y2="255.74"/><line class="cls-2" x1="371.82" y1="255.74" x2="371.48" y2="255.48"/><line class="cls-2" x1="371.48" y1="255.48" x2="371.23" y2="255.23"/><line class="cls-2" x1="371.23" y1="255.23" x2="360.73" y2="240.62"/><line class="cls-2" x1="360.73" y1="240.62" x2="357.88" y2="239.94"/><line class="cls-2" x1="357.88" y1="239.94" x2="354.94" y2="239.52"/><line class="cls-2" x1="354.94" y1="239.52" x2="351.91" y2="239.44"/><line class="cls-2" x1="351.91" y1="239.44" x2="348.97" y2="239.52"/><line class="cls-2" x1="348.97" y1="239.52" x2="346.03" y2="239.94"/><line class="cls-2" x1="346.03" y1="239.94" x2="343.18" y2="240.62"/><line class="cls-2" x1="343.18" y1="240.62" x2="332.76" y2="255.23"/><line class="cls-2" x1="332.76" y1="255.23" x2="332.51" y2="255.48"/><line class="cls-2" x1="332.51" y1="255.48" x2="332.17" y2="255.74"/><line class="cls-2" x1="332.17" y1="255.74" x2="331.84" y2="255.82"/><line class="cls-2" x1="331.84" y1="255.82" x2="307.81" y2="255.9"/><line class="cls-2" x1="307.81" y1="255.9" x2="307.48" y2="255.74"/><line class="cls-2" x1="307.48" y1="255.74" x2="307.14" y2="255.48"/><line class="cls-2" x1="307.14" y1="255.48" x2="306.89" y2="255.23"/><line class="cls-2" x1="306.89" y1="255.23" x2="296.22" y2="240.62"/><line class="cls-2" x1="296.22" y1="240.62" x2="293.36" y2="240.03"/><line class="cls-2" x1="293.36" y1="240.03" x2="290.42" y2="239.61"/><line class="cls-2" x1="290.42" y1="239.61" x2="287.4" y2="239.44"/><line class="cls-2" x1="287.4" y1="239.44" x2="284.46" y2="239.61"/><line class="cls-2" x1="284.46" y1="239.61" x2="281.52" y2="240.03"/><line class="cls-2" x1="281.52" y1="240.03" x2="278.66" y2="240.7"/><line class="cls-2" x1="278.66" y1="240.7" x2="268.42" y2="255.23"/><line class="cls-2" x1="268.42" y1="255.23" x2="268.16" y2="255.57"/><line class="cls-2" x1="268.16" y1="255.57" x2="267.83" y2="255.74"/><line class="cls-2" x1="267.83" y1="255.74" x2="267.49" y2="255.9"/><line class="cls-2" x1="267.49" y1="255.9" x2="243.47" y2="255.9"/><line class="cls-2" x1="243.47" y1="255.9" x2="243.05" y2="255.74"/><line class="cls-2" x1="243.05" y1="255.74" x2="242.71" y2="255.57"/><line class="cls-2" x1="242.71" y1="255.57" x2="242.46" y2="255.32"/><line class="cls-2" x1="242.46" y1="255.32" x2="231.71" y2="240.7"/><line class="cls-2" x1="231.71" y1="240.7" x2="228.77" y2="240.03"/><line class="cls-2" x1="228.77" y1="240.03" x2="225.83" y2="239.61"/><line class="cls-2" x1="225.83" y1="239.61" x2="222.89" y2="239.52"/><line class="cls-2" x1="222.89" y1="239.52" x2="219.95" y2="239.61"/><line class="cls-2" x1="219.95" y1="239.61" x2="217.01" y2="240.03"/><line class="cls-2" x1="217.01" y1="240.03" x2="214.15" y2="240.7"/><line class="cls-2" x1="214.15" y1="240.7" x2="203.99" y2="255.32"/><line class="cls-2" x1="203.99" y1="255.32" x2="203.74" y2="255.57"/><line class="cls-2" x1="203.74" y1="255.57" x2="203.74" y2="255.57"/><line class="cls-2" x1="203.74" y1="255.57" x2="203.4" y2="255.82"/><line class="cls-2" x1="203.4" y1="255.82" x2="203.06" y2="255.9"/><line class="cls-2" x1="203.06" y1="255.9" x2="179.04" y2="255.9"/><line class="cls-2" x1="179.04" y1="255.9" x2="178.62" y2="255.82"/><line class="cls-2" x1="178.62" y1="255.82" x2="178.28" y2="255.57"/><line class="cls-2" x1="178.28" y1="255.57" x2="178.03" y2="255.32"/><line class="cls-2" x1="178.03" y1="255.32" x2="167.11" y2="240.7"/><line class="cls-2" x1="167.11" y1="240.7" x2="161.4" y2="239.69"/><line class="cls-2" x1="161.4" y1="239.69" x2="155.69" y2="239.61"/><line class="cls-2" x1="155.69" y1="239.61" x2="149.98" y2="240.62"/><line class="cls-2" x1="149.98" y1="240.62" x2="147.54" y2="243.22"/><line class="cls-2" x1="147.54" y1="243.22" x2="145.69" y2="246.24"/><line class="cls-2" x1="145.69" y1="246.24" x2="145.27" y2="246.08"/><line class="cls-2" x1="145.27" y1="246.08" x2="147.12" y2="242.88"/><line class="cls-2" x1="147.12" y1="242.88" x2="149.72" y2="240.11"/><line class="cls-2" x1="149.72" y1="240.11" x2="155.6" y2="239.1"/><line class="cls-2" x1="155.6" y1="239.1" x2="161.57" y2="239.19"/><line class="cls-2" x1="161.57" y1="239.19" x2="167.45" y2="240.28"/><line class="cls-2" x1="167.45" y1="240.28" x2="178.45" y2="255.06"/><line class="cls-2" x1="178.45" y1="255.06" x2="178.62" y2="255.23"/><line class="cls-2" x1="178.62" y1="255.23" x2="178.87" y2="255.32"/><line class="cls-2" x1="178.87" y1="255.32" x2="179.04" y2="255.4"/><line class="cls-2" x1="179.04" y1="255.4" x2="202.98" y2="255.4"/><line class="cls-2" x1="202.98" y1="255.4" x2="203.23" y2="255.32"/><line class="cls-2" x1="203.23" y1="255.32" x2="203.4" y2="255.23"/><line class="cls-2" x1="203.4" y1="255.23" x2="203.4" y2="255.15"/><line class="cls-2" x1="203.4" y1="255.15" x2="203.57" y2="254.98"/><line class="cls-2" x1="203.57" y1="254.98" x2="213.82" y2="240.28"/><line class="cls-2" x1="213.82" y1="240.28" x2="216.76" y2="239.52"/><line class="cls-2" x1="216.76" y1="239.52" x2="219.78" y2="239.1"/><line class="cls-2" x1="219.78" y1="239.1" x2="222.89" y2="239.02"/><line class="cls-2" x1="222.89" y1="239.02" x2="225.91" y2="239.1"/><line class="cls-2" x1="225.91" y1="239.1" x2="229.02" y2="239.52"/><line class="cls-2" x1="229.02" y1="239.52" x2="232.04" y2="240.28"/><line class="cls-2" x1="232.04" y1="240.28" x2="242.88" y2="254.98"/><line class="cls-2" x1="242.88" y1="254.98" x2="243.05" y2="255.15"/><line class="cls-2" x1="243.05" y1="255.15" x2="243.3" y2="255.32"/><line class="cls-2" x1="243.3" y1="255.32" x2="243.47" y2="255.4"/><line class="cls-2" x1="243.47" y1="255.4" x2="267.41" y2="255.4"/><line class="cls-2" x1="267.41" y1="255.4" x2="267.58" y2="255.32"/><line class="cls-2" x1="267.58" y1="255.32" x2="267.83" y2="255.15"/><line class="cls-2" x1="267.83" y1="255.15" x2="268" y2="254.98"/><line class="cls-2" x1="268" y1="254.98" x2="278.33" y2="240.2"/><line class="cls-2" x1="278.33" y1="240.2" x2="281.35" y2="239.52"/><line class="cls-2" x1="281.35" y1="239.52" x2="284.38" y2="239.1"/><line class="cls-2" x1="284.38" y1="239.1" x2="287.4" y2="238.94"/><line class="cls-2" x1="287.4" y1="238.94" x2="290.51" y2="239.1"/><line class="cls-2" x1="290.51" y1="239.1" x2="293.53" y2="239.52"/><line class="cls-2" x1="293.53" y1="239.52" x2="296.56" y2="240.2"/><line class="cls-2" x1="296.56" y1="240.2" x2="307.31" y2="254.98"/><line class="cls-2" x1="307.31" y1="254.98" x2="307.48" y2="255.15"/><line class="cls-2" x1="307.48" y1="255.15" x2="307.64" y2="255.23"/><line class="cls-2" x1="307.64" y1="255.23" x2="307.9" y2="255.4"/><line class="cls-2" x1="307.9" y1="255.4" x2="331.75" y2="255.32"/><line class="cls-2" x1="331.75" y1="255.32" x2="332" y2="255.23"/><line class="cls-2" x1="332" y1="255.23" x2="332.17" y2="255.15"/><line class="cls-2" x1="332.17" y1="255.15" x2="332.34" y2="254.98"/><line class="cls-2" x1="332.34" y1="254.98" x2="342.84" y2="240.2"/><line class="cls-2" x1="342.84" y1="240.2" x2="345.86" y2="239.52"/><line class="cls-2" x1="345.86" y1="239.52" x2="348.89" y2="239.1"/><line class="cls-2" x1="348.89" y1="239.1" x2="351.91" y2="238.94"/><line class="cls-2" x1="351.91" y1="238.94" x2="355.02" y2="239.02"/><line class="cls-2" x1="355.02" y1="239.02" x2="358.04" y2="239.44"/><line class="cls-2" x1="358.04" y1="239.44" x2="361.07" y2="240.2"/><line class="cls-2" x1="361.07" y1="240.2" x2="371.65" y2="254.9"/><line class="cls-2" x1="371.65" y1="254.9" x2="371.82" y2="255.06"/><line class="cls-2" x1="371.82" y1="255.06" x2="371.99" y2="255.23"/><line class="cls-2" x1="371.99" y1="255.23" x2="372.24" y2="255.32"/><line class="cls-2" x1="372.24" y1="255.32" x2="396.1" y2="255.32"/><line class="cls-2" x1="396.1" y1="255.32" x2="396.35" y2="255.23"/><line class="cls-2" x1="396.35" y1="255.23" x2="396.52" y2="255.06"/><line class="cls-2" x1="396.52" y1="255.06" x2="396.68" y2="254.9"/><line class="cls-2" x1="396.68" y1="254.9" x2="407.35" y2="240.2"/><line class="cls-2" x1="407.35" y1="240.2" x2="410.29" y2="239.44"/><line class="cls-2" x1="410.29" y1="239.44" x2="413.4" y2="239.02"/><line class="cls-2" x1="413.4" y1="239.02" x2="416.42" y2="238.85"/><line class="cls-2" x1="416.42" y1="238.85" x2="419.53" y2="239.02"/><line class="cls-2" x1="419.53" y1="239.02" x2="422.56" y2="239.44"/><line class="cls-2" x1="422.56" y1="239.44" x2="425.5" y2="240.11"/><line class="cls-2" x1="425.5" y1="240.11" x2="436" y2="254.9"/><line class="cls-2" x1="436" y1="254.9" x2="436.16" y2="255.06"/><line class="cls-2" x1="436.16" y1="255.06" x2="436.33" y2="255.15"/><line class="cls-2" x1="436.33" y1="255.15" x2="436.58" y2="255.32"/><line class="cls-2" x1="436.58" y1="255.32" x2="460.44" y2="255.23"/><line class="cls-2" x1="460.44" y1="255.23" x2="460.69" y2="255.15"/><line class="cls-2" x1="460.69" y1="255.15" x2="460.86" y2="255.06"/><line class="cls-2" x1="460.86" y1="255.06" x2="461.03" y2="254.9"/><line class="cls-2" x1="461.03" y1="254.9" x2="471.78" y2="240.11"/><line class="cls-2" x1="471.78" y1="240.11" x2="474.8" y2="239.44"/><line class="cls-2" x1="474.8" y1="239.44" x2="477.83" y2="239.02"/><line class="cls-2" x1="477.83" y1="239.02" x2="480.94" y2="238.85"/><line class="cls-2" x1="480.94" y1="238.85" x2="483.96" y2="239.02"/><line class="cls-2" x1="483.96" y1="239.02" x2="486.98" y2="239.44"/><line class="cls-2" x1="486.98" y1="239.44" x2="490.01" y2="240.11"/><line class="cls-2" x1="490.01" y1="240.11" x2="500.26" y2="254.81"/><line class="cls-2" x1="500.26" y1="254.81" x2="500.34" y2="254.9"/><line class="cls-2" x1="500.34" y1="254.9" x2="500.42" y2="254.98"/><line class="cls-2" x1="500.42" y1="254.98" x2="500.68" y2="255.15"/><line class="cls-2" x1="500.68" y1="255.15" x2="500.84" y2="255.23"/><line class="cls-2" x1="500.84" y1="255.23" x2="524.7" y2="255.23"/><line class="cls-2" x1="524.7" y1="255.23" x2="524.95" y2="255.15"/><line class="cls-2" x1="524.95" y1="255.15" x2="525.12" y2="254.98"/><line class="cls-2" x1="525.12" y1="254.98" x2="525.29" y2="254.81"/><line class="cls-2" x1="525.29" y1="254.81" x2="536.21" y2="240.11"/><line class="cls-2" x1="536.21" y1="240.11" x2="539.23" y2="239.36"/><line class="cls-2" x1="539.23" y1="239.36" x2="542.26" y2="238.94"/><line class="cls-2" x1="542.26" y1="238.94" x2="545.36" y2="238.85"/><line class="cls-2" x1="545.36" y1="238.85" x2="548.39" y2="238.94"/><line class="cls-2" x1="548.39" y1="238.94" x2="551.41" y2="239.36"/><line class="cls-2" x1="551.41" y1="239.36" x2="554.35" y2="240.11"/><line class="cls-2" x1="554.35" y1="240.11" x2="564.6" y2="254.81"/><line class="cls-2" x1="564.6" y1="254.81" x2="564.68" y2="254.98"/><line class="cls-2" x1="564.68" y1="254.98" x2="564.77" y2="254.98"/><line class="cls-2" x1="564.77" y1="254.98" x2="564.94" y2="255.15"/><line class="cls-2" x1="564.94" y1="255.15" x2="565.1" y2="255.23"/><line class="cls-2" x1="565.1" y1="255.23" x2="588.96" y2="255.15"/><line class="cls-2" x1="588.96" y1="255.15" x2="589.21" y2="255.06"/><line class="cls-2" x1="589.21" y1="255.06" x2="589.38" y2="254.98"/><line class="cls-2" x1="589.38" y1="254.98" x2="589.55" y2="254.81"/><line class="cls-2" x1="589.55" y1="254.81" x2="598.12" y2="243.39"/><line class="cls-2" x1="598.12" y1="243.39" x2="598.45" y2="242.97"/><line class="cls-2" x1="598.45" y1="242.97" x2="598.87" y2="242.72"/><line class="cls-2" x1="598.87" y1="242.72" x2="599.29" y2="242.46"/><line class="cls-2" x1="599.29" y1="242.46" x2="599.8" y2="242.3"/><line class="cls-2" x1="599.8" y1="242.3" x2="600.38" y2="242.13"/><line class="cls-2" x1="600.38" y1="242.13" x2="600.89" y2="241.88"/><line class="cls-2" x1="600.89" y1="241.88" x2="601.22" y2="241.46"/><line class="cls-2" x1="601.22" y1="241.46" x2="601.56" y2="240.95"/><line class="cls-2" x1="601.56" y1="240.95" x2="601.81" y2="240.45"/><line class="cls-2" x1="601.81" y1="240.45" x2="602.15" y2="240.03"/><line class="cls-2" x1="602.15" y1="240.03" x2="602.65" y2="239.69"/><line class="cls-2" x1="602.65" y1="239.69" x2="603.16" y2="239.44"/><line class="cls-2" x1="603.16" y1="239.44" x2="607.1" y2="238.85"/><line class="cls-2" x1="607.1" y1="238.85" x2="611.05" y2="238.77"/><line class="cls-2" x1="611.05" y1="238.77" x2="614.92" y2="239.19"/><line class="cls-2" x1="614.92" y1="239.19" x2="618.78" y2="240.03"/><line class="cls-2" x1="618.78" y1="240.03" x2="629.03" y2="254.64"/><line class="cls-2" x1="629.03" y1="254.64" x2="629.2" y2="254.73"/><line class="cls-2" x1="629.2" y1="254.73" x2="629.53" y2="254.9"/><line class="cls-2" x1="629.53" y1="254.9" x2="630.12" y2="255.06"/><line class="cls-2" x1="630.12" y1="255.06" x2="630.62" y2="255.15"/><line class="cls-2" x1="630.62" y1="255.15" x2="631.21" y2="255.06"/><g class="cls-4"><line class="cls-2" x1="631.21" y1="255.06" x2="635.08" y2="254.31"/></g><line class="cls-2" x1="477.83" y1="154.85" x2="476.32" y2="154.52"/><line class="cls-2" x1="476.32" y1="154.52" x2="474.64" y2="154.35"/><line class="cls-2" x1="474.64" y1="154.35" x2="473.04" y2="154.35"/><line class="cls-2" x1="473.04" y1="154.35" x2="471.44" y2="154.6"/><line class="cls-2" x1="471.44" y1="154.6" x2="471.19" y2="154.68"/><line class="cls-2" x1="471.19" y1="154.68" x2="471.02" y2="154.85"/><line class="cls-2" x1="471.02" y1="154.85" x2="470.86" y2="155.02"/><line class="cls-2" x1="470.86" y1="155.02" x2="470.77" y2="155.27"/><line class="cls-2" x1="470.77" y1="155.27" x2="470.6" y2="155.44"/><line class="cls-2" x1="470.6" y1="155.44" x2="470.44" y2="155.61"/><line class="cls-2" x1="470.44" y1="155.61" x2="470.27" y2="155.78"/><line class="cls-2" x1="470.27" y1="155.78" x2="470.02" y2="155.86"/><line class="cls-2" x1="470.02" y1="155.86" x2="469.85" y2="155.86"/><line class="cls-2" x1="469.85" y1="155.86" x2="469.68" y2="155.94"/><line class="cls-2" x1="469.68" y1="155.94" x2="469.51" y2="156.11"/><line class="cls-2" x1="469.51" y1="156.11" x2="469.34" y2="156.28"/><line class="cls-2" x1="469.34" y1="156.28" x2="465.9" y2="161.07"/><line class="cls-2" x1="465.9" y1="161.07" x2="465.82" y2="161.15"/><line class="cls-2" x1="465.82" y1="161.15" x2="465.73" y2="161.15"/><line class="cls-2" x1="465.73" y1="161.15" x2="465.65" y2="161.24"/><line class="cls-2" x1="465.65" y1="161.24" x2="458.93" y2="161.24"/><line class="cls-2" x1="451.2" y1="154.85" x2="450.02" y2="154.6"/><line class="cls-2" x1="450.02" y1="154.6" x2="448.76" y2="154.43"/><line class="cls-2" x1="448.76" y1="154.43" x2="447.5" y2="154.35"/><line class="cls-2" x1="447.5" y1="154.35" x2="446.24" y2="154.43"/><line class="cls-2" x1="446.24" y1="154.43" x2="444.98" y2="154.6"/><line class="cls-2" x1="444.98" y1="154.6" x2="443.72" y2="154.85"/><line class="cls-2" x1="443.72" y1="154.85" x2="439.27" y2="161.07"/><line class="cls-2" x1="439.27" y1="161.07" x2="439.19" y2="161.15"/><line class="cls-2" x1="439.19" y1="161.15" x2="439.1" y2="161.15"/><line class="cls-2" x1="439.1" y1="161.15" x2="439.02" y2="161.24"/><line class="cls-2" x1="439.02" y1="161.24" x2="429.44" y2="161.24"/><line class="cls-2" x1="424.57" y1="154.85" x2="423.4" y2="154.6"/><line class="cls-2" x1="423.4" y1="154.6" x2="422.14" y2="154.43"/><line class="cls-2" x1="422.14" y1="154.43" x2="420.88" y2="154.35"/><line class="cls-2" x1="420.88" y1="154.35" x2="419.53" y2="154.43"/><line class="cls-2" x1="419.53" y1="154.43" x2="418.36" y2="154.6"/><line class="cls-2" x1="418.36" y1="154.6" x2="417.1" y2="154.85"/><line class="cls-2" x1="417.1" y1="154.85" x2="412.64" y2="161.07"/><line class="cls-2" x1="412.64" y1="161.07" x2="412.64" y2="161.15"/><line class="cls-2" x1="412.64" y1="161.15" x2="412.56" y2="161.15"/><line class="cls-2" x1="412.56" y1="161.15" x2="412.39" y2="161.24"/><line class="cls-2" x1="412.39" y1="161.24" x2="402.56" y2="161.24"/><line class="cls-2" x1="402.56" y1="161.24" x2="402.48" y2="161.15"/><line class="cls-2" x1="402.48" y1="161.15" x2="402.4" y2="161.15"/><line class="cls-2" x1="402.4" y1="161.15" x2="402.31" y2="161.07"/><line class="cls-2" x1="402.31" y1="161.07" x2="397.94" y2="154.85"/><line class="cls-2" x1="397.94" y1="154.85" x2="396.68" y2="154.6"/><line class="cls-2" x1="396.68" y1="154.6" x2="395.42" y2="154.43"/><line class="cls-2" x1="395.42" y1="154.43" x2="394.16" y2="154.35"/><line class="cls-2" x1="394.16" y1="154.35" x2="392.9" y2="154.43"/><line class="cls-2" x1="392.9" y1="154.43" x2="391.64" y2="154.6"/><line class="cls-2" x1="391.64" y1="154.6" x2="390.47" y2="154.85"/><line class="cls-2" x1="390.47" y1="154.85" x2="386.02" y2="161.07"/><line class="cls-2" x1="386.02" y1="161.07" x2="386.02" y2="161.15"/><line class="cls-2" x1="386.02" y1="161.15" x2="385.93" y2="161.15"/><line class="cls-2" x1="385.93" y1="161.15" x2="385.85" y2="161.24"/><line class="cls-2" x1="385.85" y1="161.24" x2="375.94" y2="161.24"/><line class="cls-2" x1="375.94" y1="161.24" x2="375.85" y2="161.15"/><line class="cls-2" x1="375.85" y1="161.15" x2="375.77" y2="161.15"/><line class="cls-2" x1="375.77" y1="161.15" x2="375.68" y2="161.07"/><line class="cls-2" x1="375.68" y1="161.07" x2="371.32" y2="154.85"/><line class="cls-2" x1="371.32" y1="154.85" x2="370.06" y2="154.6"/><line class="cls-2" x1="370.06" y1="154.6" x2="368.8" y2="154.43"/><line class="cls-2" x1="368.8" y1="154.43" x2="367.54" y2="154.35"/><line class="cls-2" x1="367.54" y1="154.35" x2="366.28" y2="154.43"/><line class="cls-2" x1="366.28" y1="154.43" x2="365.02" y2="154.6"/><line class="cls-2" x1="365.02" y1="154.6" x2="363.76" y2="154.85"/><line class="cls-2" x1="363.76" y1="154.85" x2="359.39" y2="161.07"/><line class="cls-2" x1="359.39" y1="161.07" x2="359.39" y2="161.15"/><line class="cls-2" x1="359.39" y1="161.15" x2="359.3" y2="161.24"/><line class="cls-2" x1="359.3" y1="161.24" x2="359.22" y2="161.24"/><line class="cls-2" x1="359.22" y1="161.24" x2="349.31" y2="161.24"/><line class="cls-2" x1="349.31" y1="161.24" x2="349.22" y2="161.24"/><line class="cls-2" x1="349.22" y1="161.24" x2="349.14" y2="161.15"/><line class="cls-2" x1="349.14" y1="161.15" x2="349.06" y2="161.07"/><line class="cls-2" x1="349.06" y1="161.07" x2="344.69" y2="154.94"/><line class="cls-2" x1="344.69" y1="154.94" x2="343.43" y2="154.6"/><line class="cls-2" x1="343.43" y1="154.6" x2="342.17" y2="154.43"/><line class="cls-2" x1="342.17" y1="154.43" x2="340.91" y2="154.35"/><line class="cls-2" x1="340.91" y1="154.35" x2="339.65" y2="154.43"/><line class="cls-2" x1="339.65" y1="154.43" x2="338.39" y2="154.6"/><line class="cls-2" x1="338.39" y1="154.6" x2="337.13" y2="154.94"/><line class="cls-2" x1="337.13" y1="154.94" x2="332.76" y2="161.07"/><line class="cls-2" x1="332.76" y1="161.07" x2="332.76" y2="161.15"/><line class="cls-2" x1="332.76" y1="161.15" x2="332.68" y2="161.24"/><line class="cls-2" x1="332.68" y1="161.24" x2="332.59" y2="161.24"/><line class="cls-2" x1="332.59" y1="161.24" x2="322.68" y2="161.24"/><line class="cls-2" x1="322.68" y1="161.24" x2="322.6" y2="161.24"/><line class="cls-2" x1="322.6" y1="161.24" x2="322.51" y2="161.15"/><line class="cls-2" x1="322.51" y1="161.15" x2="322.43" y2="161.07"/><line class="cls-2" x1="322.43" y1="161.07" x2="317.98" y2="154.94"/><line class="cls-2" x1="317.98" y1="154.94" x2="316.8" y2="154.6"/><line class="cls-2" x1="316.8" y1="154.6" x2="315.54" y2="154.43"/><line class="cls-2" x1="315.54" y1="154.43" x2="314.2" y2="154.35"/><line class="cls-2" x1="314.2" y1="154.35" x2="312.94" y2="154.43"/><line class="cls-2" x1="312.94" y1="154.43" x2="311.68" y2="154.6"/><line class="cls-2" x1="311.68" y1="154.6" x2="310.5" y2="154.94"/><line class="cls-2" x1="303.28" y1="161.24" x2="296.05" y2="161.24"/><line class="cls-2" x1="296.05" y1="161.24" x2="295.97" y2="161.24"/><line class="cls-2" x1="295.97" y1="161.24" x2="295.88" y2="161.15"/><line class="cls-2" x1="295.88" y1="161.15" x2="295.8" y2="161.07"/><line class="cls-2" x1="295.8" y1="161.07" x2="291.35" y2="154.94"/><line class="cls-2" x1="291.35" y1="154.94" x2="288.91" y2="154.43"/><line class="cls-2" x1="288.91" y1="154.43" x2="286.48" y2="154.43"/><line class="cls-2" x1="286.48" y1="154.43" x2="284.04" y2="154.85"/><line class="cls-2" x1="500.84" y1="255.23" x2="497.15" y2="250.44"/><line class="cls-2" x1="490.01" y1="240.11" x2="424.57" y2="154.85"/><line class="cls-2" x1="471.78" y1="240.11" x2="417.1" y2="154.85"/><line class="cls-2" x1="460.44" y1="255.23" x2="412.39" y2="161.24"/><line class="cls-2" x1="436.58" y1="255.32" x2="402.56" y2="161.24"/><line class="cls-2" x1="425.5" y1="240.11" x2="397.94" y2="154.85"/><line class="cls-2" x1="407.35" y1="240.2" x2="390.47" y2="154.85"/><line class="cls-2" x1="396.1" y1="255.32" x2="385.85" y2="161.24"/><line class="cls-2" x1="372.24" y1="255.32" x2="375.94" y2="161.24"/><line class="cls-2" x1="361.07" y1="240.2" x2="371.32" y2="154.85"/><line class="cls-2" x1="342.84" y1="240.2" x2="363.76" y2="154.85"/><line class="cls-2" x1="331.75" y1="255.32" x2="359.22" y2="161.24"/><line class="cls-2" x1="307.9" y1="255.4" x2="349.31" y2="161.24"/><line class="cls-2" x1="296.56" y1="240.2" x2="344.69" y2="154.94"/><line class="cls-2" x1="278.33" y1="240.2" x2="337.13" y2="154.94"/><line class="cls-2" x1="267.41" y1="255.4" x2="332.59" y2="161.24"/><line class="cls-2" x1="243.47" y1="255.4" x2="322.68" y2="161.24"/><line class="cls-2" x1="232.04" y1="240.28" x2="317.98" y2="154.94"/><line class="cls-2" x1="213.82" y1="240.28" x2="310.5" y2="154.94"/><line class="cls-2" x1="202.98" y1="255.4" x2="203.82" y2="254.64"/><line class="cls-2" x1="179.04" y1="255.4" x2="296.05" y2="161.24"/><line class="cls-2" x1="167.45" y1="240.28" x2="291.35" y2="154.94"/><line class="cls-2" x1="149.72" y1="240.11" x2="284.04" y2="154.85"/><line class="cls-2" x1="145.69" y1="246.24" x2="155.94" y2="239.61"/><g class="cls-5"><line class="cls-2" x1="635.08" y1="254.31" x2="623.9" y2="247.34"/></g><line class="cls-2" x1="536.21" y1="240.11" x2="443.72" y2="154.85"/><line class="cls-2" x1="439.02" y1="161.24" x2="524.7" y2="255.23"/><line class="cls-2" x1="588.96" y1="255.15" x2="465.65" y2="161.24"/><line class="cls-2" x1="451.2" y1="154.85" x2="554.35" y2="240.11"/><line class="cls-2" x1="565.1" y1="255.23" x2="564.43" y2="254.56"/><line class="cls-2" x1="470.02" y1="155.86" x2="599.8" y2="242.3"/><line class="cls-2" x1="618.78" y1="240.03" x2="477.83" y2="154.85"/><line class="cls-2" x1="471.44" y1="154.6" x2="603.16" y2="239.44"/><line class="cls-2" x1="604.84" y1="239.69" x2="628.69" y2="254.98"/><line class="cls-6" x1="634.87" y1="254.31" x2="634.87" y2="254.9"/></g><g id="Dimensions"><line class="cls-7" x1="158.54" y1="260.61" x2="158.54" y2="279.26"/><line class="cls-7" x1="155.77" y1="276.32" x2="614.83" y2="276.32"/><line class="cls-7" x1="611.97" y1="279.26" x2="611.97" y2="260.61"/><line class="cls-8" x1="158.54" y1="276.32" x2="161.31" y2="273.46"/><line class="cls-8" x1="158.54" y1="276.32" x2="155.68" y2="279.09"/><line class="cls-8" x1="611.97" y1="276.32" x2="614.74" y2="273.46"/><line class="cls-8" x1="611.97" y1="276.32" x2="609.2" y2="279.09"/><line class="cls-7" x1="126.28" y1="238.6" x2="105.54" y2="238.6"/><line class="cls-7" x1="126.28" y1="255.48" x2="105.54" y2="255.48"/><line class="cls-7" x1="108.56" y1="258.17" x2="108.56" y2="235.74"/><line class="cls-8" x1="108.56" y1="238.6" x2="111.33" y2="235.83"/><line class="cls-8" x1="108.56" y1="238.6" x2="105.7" y2="241.46"/><line class="cls-8" x1="108.56" y1="255.48" x2="111.33" y2="252.71"/><line class="cls-8" x1="108.56" y1="255.48" x2="105.7" y2="258.26"/><path d="M316.64,287.68v-1.35h6.07v1.1a17.36,17.36,0,0,0-2.39,4.59,19.7,19.7,0,0,0-1.19,5.62H318a16.86,16.86,0,0,1,.46-3.35,19.74,19.74,0,0,1,1.19-3.65,16.25,16.25,0,0,1,1.63-3Z"/><path d="M323.86,292a9.67,9.67,0,0,1,.78-4.37,2.46,2.46,0,0,1,2.29-1.48,2.4,2.4,0,0,1,2.12,1.2A8.91,8.91,0,0,1,330,292a9.62,9.62,0,0,1-.77,4.35,2.45,2.45,0,0,1-2.3,1.49,2.55,2.55,0,0,1-2.19-1.31A8.77,8.77,0,0,1,323.86,292Zm1.18,0a8.63,8.63,0,0,0,.54,3.75,1.56,1.56,0,0,0,1.37.95,1.52,1.52,0,0,0,1.32-1,13.19,13.19,0,0,0,0-7.47,1.59,1.59,0,0,0-1.39-.95,1.53,1.53,0,0,0-1.31,1A8.85,8.85,0,0,0,325,292Z"/><path d="M331.16,292a9.83,9.83,0,0,1,.77-4.37,2.48,2.48,0,0,1,2.3-1.48,2.39,2.39,0,0,1,2.11,1.2,8.79,8.79,0,0,1,.94,4.65,9.76,9.76,0,0,1-.77,4.35,2.46,2.46,0,0,1-2.3,1.49,2.56,2.56,0,0,1-2.2-1.31A8.79,8.79,0,0,1,331.16,292Zm1.18,0a8.83,8.83,0,0,0,.53,3.75,1.59,1.59,0,0,0,1.38.95,1.55,1.55,0,0,0,1.32-1,13.43,13.43,0,0,0,0-7.47,1.59,1.59,0,0,0-1.39-.95,1.54,1.54,0,0,0-1.32,1A8.89,8.89,0,0,0,332.34,292Z"/><path d="M338.79,297.64v-8.3h1v1.16a2.69,2.69,0,0,1,.88-1,2.15,2.15,0,0,1,1.18-.35,2,2,0,0,1,1.21.37,2,2,0,0,1,.71,1.08,3.1,3.1,0,0,1,.94-1.09,2,2,0,0,1,1.17-.36,1.89,1.89,0,0,1,1.54.67,3.22,3.22,0,0,1,.57,2.12v5.7h-1.15V292.4a4.52,4.52,0,0,0-.13-1.26,1.13,1.13,0,0,0-.42-.57,1.1,1.1,0,0,0-.65-.21,1.49,1.49,0,0,0-1.22.59,3,3,0,0,0-.47,1.86v4.83h-1.15v-5.4a2.48,2.48,0,0,0-.32-1.45,1,1,0,0,0-.87-.43,1.45,1.45,0,0,0-1.24.64,4.2,4.2,0,0,0-.46,2.33v4.31Z"/><path d="M349.72,297.64v-8.3h1v1.16a2.69,2.69,0,0,1,.88-1,2.15,2.15,0,0,1,1.18-.35,2,2,0,0,1,1.21.37,2,2,0,0,1,.71,1.08,3.1,3.1,0,0,1,.94-1.09,2,2,0,0,1,1.17-.36,1.9,1.9,0,0,1,1.54.67,3.22,3.22,0,0,1,.57,2.12v5.7H357.8V292.4a4.52,4.52,0,0,0-.13-1.26,1.13,1.13,0,0,0-.42-.57,1.1,1.1,0,0,0-.65-.21,1.49,1.49,0,0,0-1.22.59,3,3,0,0,0-.47,1.86v4.83h-1.15v-5.4a2.48,2.48,0,0,0-.32-1.45,1,1,0,0,0-.87-.43,1.48,1.48,0,0,0-1.25.64,4.31,4.31,0,0,0-.45,2.33v4.31Z"/><path d="M366.5,301a17.09,17.09,0,0,1-1.57-3.31,12.36,12.36,0,0,1-.7-4.21A14.1,14.1,0,0,1,366.5,286h.83a25.94,25.94,0,0,0-1.21,2.85,14.5,14.5,0,0,0-.52,2.22,15.34,15.34,0,0,0-.19,2.44,16.33,16.33,0,0,0,1.92,7.5Z"/><path d="M371.53,295.61v-3.15h-3.12v-1.32h3.12V288h1.33v3.11H376v1.32h-3.12v3.15Zm4.45,2h-7.57v-1.32H376Z"/><path d="M380.81,297.64v-2.75h-4.08v-1.28l4.29-7.43H382v7.43h1.27v1.28H382v2.75Zm0-4v-5.17l-2.94,5.17Z"/><path d="M384.74,297.64v-8.3h1v1.16a2.71,2.71,0,0,1,.89-1,2.11,2.11,0,0,1,1.17-.35,1.86,1.86,0,0,1,1.92,1.45,3.2,3.2,0,0,1,.94-1.09,2,2,0,0,1,1.17-.36,1.89,1.89,0,0,1,1.54.67,3.22,3.22,0,0,1,.57,2.12v5.7h-1.15V292.4a4.16,4.16,0,0,0-.13-1.26,1.13,1.13,0,0,0-.42-.57,1.07,1.07,0,0,0-.65-.21,1.51,1.51,0,0,0-1.22.59,3,3,0,0,0-.47,1.86v4.83h-1.15v-5.4a2.49,2.49,0,0,0-.31-1.45,1,1,0,0,0-.88-.43,1.46,1.46,0,0,0-1.24.64,4.2,4.2,0,0,0-.46,2.33v4.31Z"/><path d="M395.67,297.64v-8.3h1v1.16a2.78,2.78,0,0,1,.88-1,2.17,2.17,0,0,1,1.18-.35,1.86,1.86,0,0,1,1.92,1.45,3.2,3.2,0,0,1,.94-1.09,2,2,0,0,1,1.17-.36,1.89,1.89,0,0,1,1.54.67,3.22,3.22,0,0,1,.57,2.12v5.7h-1.15V292.4a4.16,4.16,0,0,0-.13-1.26,1.13,1.13,0,0,0-.42-.57,1.07,1.07,0,0,0-.65-.21,1.51,1.51,0,0,0-1.22.59,3,3,0,0,0-.47,1.86v4.83h-1.15v-5.4a2.49,2.49,0,0,0-.31-1.45,1,1,0,0,0-.88-.43,1.46,1.46,0,0,0-1.24.64,4.2,4.2,0,0,0-.46,2.33v4.31Z"/><path d="M407.05,301h-.83a16.31,16.31,0,0,0,1.91-7.5,15.34,15.34,0,0,0-.19-2.44,14.5,14.5,0,0,0-.52-2.22,25.48,25.48,0,0,0-1.2-2.85h.83a14.18,14.18,0,0,1,2.26,7.49,12.71,12.71,0,0,1-.67,4.15A16.52,16.52,0,0,1,407.05,301Z"/><path d="M421.44,293.62l1.25.38a5.31,5.31,0,0,1-1.45,2.88,3.56,3.56,0,0,1-2.52.95,3.87,3.87,0,0,1-2.23-.63,4.58,4.58,0,0,1-1.52-2.05,8.6,8.6,0,0,1-.59-3.32,7.82,7.82,0,0,1,.59-3.2,4.52,4.52,0,0,1,1.6-2,4,4,0,0,1,2.26-.67,3.42,3.42,0,0,1,2.33.85,4.57,4.57,0,0,1,1.37,2.48l-1.22.35c-.41-1.59-1.25-2.38-2.51-2.38a2.8,2.8,0,0,0-1.63.48,3.26,3.26,0,0,0-1.09,1.5,6.73,6.73,0,0,0-.42,2.57,6.17,6.17,0,0,0,.83,3.53,2.59,2.59,0,0,0,2.21,1.18,2.44,2.44,0,0,0,1.75-.73A3.93,3.93,0,0,0,421.44,293.62Z"/><path d="M423.64,293.49a5,5,0,0,1,.9-3.24,2.91,2.91,0,0,1,4.56,0,4.79,4.79,0,0,1,.92,3.15,5.17,5.17,0,0,1-.9,3.33,2.94,2.94,0,0,1-4.57,0A5,5,0,0,1,423.64,293.49Zm1.18,0a4,4,0,0,0,.59,2.4,1.74,1.74,0,0,0,1.45.79,1.69,1.69,0,0,0,1.39-.8,5.14,5.14,0,0,0,0-4.78,1.75,1.75,0,0,0-1.45-.78,1.68,1.68,0,0,0-1.4.79A4,4,0,0,0,424.82,293.48Z"/><path d="M433.28,297.64l-2.59-8.3h1.22l1.46,5c.17.56.31,1.12.44,1.67.1-.44.24-1,.42-1.58l1.52-5.06h1.19l-2.59,8.3Z"/><path d="M442.59,295l1.18.18a3.54,3.54,0,0,1-1.07,2,2.84,2.84,0,0,1-1.93.67,2.88,2.88,0,0,1-2.34-1.09,5,5,0,0,1-.89-3.17,5.17,5.17,0,0,1,.9-3.28,2.82,2.82,0,0,1,2.29-1.13,2.71,2.71,0,0,1,2.2,1.11,5.05,5.05,0,0,1,.88,3.21v.38h-5.08a3.53,3.53,0,0,0,.65,2.11,1.75,1.75,0,0,0,1.4.71C441.65,296.67,442.25,296.1,442.59,295Zm-3.79-2.27h3.79a3.11,3.11,0,0,0-.46-1.61,1.68,1.68,0,0,0-1.41-.77,1.66,1.66,0,0,0-1.32.64A2.76,2.76,0,0,0,438.8,292.69Z"/><path d="M445.23,297.64v-8.3h1v1.26a3.56,3.56,0,0,1,.73-1.16,1.14,1.14,0,0,1,.75-.29,1.92,1.92,0,0,1,1.18.46l-.39,1.3a1.49,1.49,0,0,0-.84-.3,1,1,0,0,0-.67.25,1.48,1.48,0,0,0-.43.72,6.79,6.79,0,0,0-.22,1.71v4.35Z"/><path d="M72.53,250.79v1.35H66.32a3.88,3.88,0,0,1,.49-1.84,10.89,10.89,0,0,1,1.91-2.4,13.09,13.09,0,0,0,2.11-2.49,3.26,3.26,0,0,0,.5-1.64,2,2,0,0,0-.51-1.42,1.75,1.75,0,0,0-2.58,0,2.57,2.57,0,0,0-.51,1.71L66.54,244a3.85,3.85,0,0,1,.93-2.48,2.85,2.85,0,0,1,2.13-.83,2.57,2.57,0,0,1,2.18,1,3.53,3.53,0,0,1,.73,2.2,4.2,4.2,0,0,1-.57,2.1,15.39,15.39,0,0,1-2.2,2.67c-.69.71-1.13,1.19-1.33,1.44a4.71,4.71,0,0,0-.49.77Z"/><path d="M73.83,242.19v-1.36H79.9v1.1a16.86,16.86,0,0,0-2.39,4.6,19.3,19.3,0,0,0-1.19,5.61H75.14a16.15,16.15,0,0,1,.46-3.35,20,20,0,0,1,1.18-3.65,16.41,16.41,0,0,1,1.63-2.95Z"/><path d="M81.38,252.14v-8.3h1V245a2.78,2.78,0,0,1,.88-1,2.16,2.16,0,0,1,1.18-.34,2,2,0,0,1,1.21.36,2,2,0,0,1,.71,1.08,3.06,3.06,0,0,1,.94-1.08,2,2,0,0,1,1.17-.36,1.91,1.91,0,0,1,1.54.66,3.22,3.22,0,0,1,.57,2.12v5.7H89.46v-5.23a4.19,4.19,0,0,0-.13-1.27,1.22,1.22,0,0,0-.42-.57,1.07,1.07,0,0,0-.65-.2,1.47,1.47,0,0,0-1.22.59,3,3,0,0,0-.47,1.85v4.83H85.42v-5.4a2.48,2.48,0,0,0-.32-1.45,1,1,0,0,0-.87-.42,1.45,1.45,0,0,0-1.24.63,4.2,4.2,0,0,0-.46,2.33v4.31Z"/><path d="M92.31,252.14v-8.3h1V245a2.69,2.69,0,0,1,.88-1,2.16,2.16,0,0,1,1.18-.34,2,2,0,0,1,1.21.36,2,2,0,0,1,.71,1.08,3.06,3.06,0,0,1,.94-1.08,2,2,0,0,1,1.17-.36,1.91,1.91,0,0,1,1.54.66,3.22,3.22,0,0,1,.57,2.12v5.7h-1.15v-5.23a4.19,4.19,0,0,0-.13-1.27,1.22,1.22,0,0,0-.42-.57,1.07,1.07,0,0,0-.65-.2,1.47,1.47,0,0,0-1.22.59,3,3,0,0,0-.47,1.85v4.83H96.35v-5.4a2.48,2.48,0,0,0-.32-1.45,1,1,0,0,0-.87-.42,1.45,1.45,0,0,0-1.24.63,4.2,4.2,0,0,0-.46,2.33v4.31Z"/></g></svg>