<svg xmlns="http://www.w3.org/2000/svg" viewBox="0 0 400 400"><defs><style>.cls-1,.cls-2,.cls-3{fill:none;stroke:#000;stroke-linecap:round;stroke-linejoin:round;}.cls-1{stroke-width:0.6px;}.cls-2{stroke-width:0.5px;}.cls-3{stroke-width:0.96px;}</style></defs><title>Downpipe-Round-Dimensioned</title><g id="Image"><line class="cls-1" x1="140.72" y1="115.9" x2="195.29" y2="320.39"/><line class="cls-1" x1="232.98" y1="318.3" x2="237.78" y2="96.93"/><line class="cls-1" x1="154.34" y1="79.91" x2="153.69" y2="80.2"/><line class="cls-1" x1="153.69" y1="80.2" x2="152.94" y2="80.58"/><line class="cls-1" x1="152.94" y1="80.58" x2="152.48" y2="81.05"/><line class="cls-1" x1="152.48" y1="81.05" x2="151.93" y2="81.62"/><line class="cls-1" x1="151.93" y1="81.62" x2="151.65" y2="82.27"/><line class="cls-1" x1="151.65" y1="82.27" x2="151.47" y2="82.84"/><line class="cls-1" x1="151.47" y1="82.84" x2="148.07" y2="87.07"/><line class="cls-1" x1="148.07" y1="87.07" x2="145.31" y2="91.4"/><line class="cls-1" x1="145.31" y1="91.4" x2="143.12" y2="96.09"/><line class="cls-1" x1="143.12" y1="96.09" x2="141.77" y2="100.86"/><line class="cls-1" x1="141.77" y1="100.86" x2="140.98" y2="105.63"/><line class="cls-1" x1="140.98" y1="105.63" x2="141.03" y2="110.3"/><line class="cls-1" x1="141.03" y1="110.3" x2="141.83" y2="114.96"/><line class="cls-1" x1="141.83" y1="114.96" x2="141.84" y2="115.33"/><line class="cls-1" x1="141.84" y1="115.33" x2="143.19" y2="119.42"/><line class="cls-1" x1="143.19" y1="119.42" x2="145.56" y2="123.6"/><line class="cls-1" x1="145.56" y1="123.6" x2="148.41" y2="127.49"/><line class="cls-1" x1="148.41" y1="127.49" x2="151.99" y2="130.99"/><line class="cls-1" x1="151.99" y1="130.99" x2="156.32" y2="133.94"/><line class="cls-1" x1="156.32" y1="133.94" x2="161.01" y2="136.5"/><line class="cls-1" x1="161.01" y1="136.5" x2="166.35" y2="138.4"/><line class="cls-1" x1="166.35" y1="138.4" x2="172.06" y2="139.74"/><line class="cls-1" x1="172.06" y1="139.74" x2="178.14" y2="140.51"/><line class="cls-1" x1="178.14" y1="140.51" x2="184.39" y2="140.54"/><line class="cls-1" x1="184.39" y1="140.54" x2="190.73" y2="139.91"/><line class="cls-1" x1="190.73" y1="139.91" x2="197.06" y2="138.54"/><line class="cls-1" x1="197.06" y1="138.54" x2="203.3" y2="136.51"/><line class="cls-1" x1="203.3" y1="136.51" x2="209.24" y2="133.83"/><line class="cls-1" x1="209.24" y1="133.83" x2="214.9" y2="130.69"/><line class="cls-1" x1="214.9" y1="130.69" x2="220" y2="127"/><line class="cls-1" x1="220" y1="127" x2="224.62" y2="122.84"/><line class="cls-1" x1="224.62" y1="122.84" x2="228.49" y2="118.32"/><line class="cls-1" x1="228.49" y1="118.32" x2="231.71" y2="113.52"/><line class="cls-1" x1="231.71" y1="113.52" x2="234.08" y2="108.46"/><line class="cls-1" x1="234.08" y1="108.46" x2="235.61" y2="103.31"/><line class="cls-1" x1="235.61" y1="103.31" x2="236.39" y2="98.16"/><line class="cls-1" x1="236.39" y1="98.16" x2="236.47" y2="96.95"/><line class="cls-1" x1="236.47" y1="96.95" x2="236.34" y2="93.12"/><line class="cls-1" x1="236.34" y1="93.12" x2="235.35" y2="88.28"/><line class="cls-1" x1="235.35" y1="88.28" x2="233.62" y2="83.63"/><line class="cls-1" x1="233.62" y1="83.63" x2="231.06" y2="79.46"/><line class="cls-1" x1="231.06" y1="79.46" x2="227.84" y2="75.57"/><line class="cls-1" x1="227.84" y1="75.57" x2="223.98" y2="72.16"/><line class="cls-1" x1="223.98" y1="72.16" x2="219.47" y2="69.41"/><line class="cls-1" x1="219.47" y1="69.41" x2="214.59" y2="67.03"/><line class="cls-1" x1="214.59" y1="67.03" x2="209.25" y2="65.32"/><line class="cls-1" x1="209.25" y1="65.32" x2="203.64" y2="64.26"/><line class="cls-1" x1="203.64" y1="64.26" x2="197.75" y2="63.67"/><line class="cls-1" x1="197.75" y1="63.67" x2="191.78" y2="63.92"/><line class="cls-1" x1="191.78" y1="63.92" x2="185.81" y2="64.54"/><line class="cls-1" x1="185.81" y1="64.54" x2="179.95" y2="65.82"/><line class="cls-1" x1="179.95" y1="65.82" x2="174.18" y2="67.75"/><line class="cls-1" x1="174.18" y1="67.75" x2="168.7" y2="70.14"/><line class="cls-1" x1="168.7" y1="70.14" x2="163.5" y2="73"/><line class="cls-1" x1="163.5" y1="73" x2="158.68" y2="76.22"/><line class="cls-1" x1="158.68" y1="76.22" x2="154.34" y2="79.91"/><line class="cls-1" x1="153.77" y1="79.17" x2="158.21" y2="75.39"/><line class="cls-1" x1="158.21" y1="75.39" x2="163.12" y2="72.07"/><line class="cls-1" x1="163.12" y1="72.07" x2="168.5" y2="69.21"/><line class="cls-1" x1="168.5" y1="69.21" x2="174.17" y2="66.82"/><line class="cls-1" x1="174.17" y1="66.82" x2="180.03" y2="64.98"/><line class="cls-1" x1="180.03" y1="64.98" x2="186.08" y2="63.51"/><line class="cls-1" x1="186.08" y1="63.51" x2="192.24" y2="62.89"/><line class="cls-1" x1="192.24" y1="62.89" x2="198.21" y2="62.82"/><line class="cls-1" x1="198.21" y1="62.82" x2="204.19" y2="63.32"/><line class="cls-1" x1="204.19" y1="63.32" x2="209.99" y2="64.38"/><line class="cls-1" x1="209.99" y1="64.38" x2="215.42" y2="66.19"/><line class="cls-1" x1="215.42" y1="66.19" x2="220.49" y2="68.56"/><line class="cls-1" x1="220.49" y1="68.56" x2="225" y2="71.5"/><line class="cls-1" x1="225" y1="71.5" x2="228.96" y2="75"/><line class="cls-1" x1="228.96" y1="75" x2="232.36" y2="78.88"/><line class="cls-1" x1="232.36" y1="78.88" x2="234.93" y2="83.24"/><line class="cls-1" x1="234.93" y1="83.24" x2="236.75" y2="87.99"/><line class="cls-1" x1="236.75" y1="87.99" x2="237.64" y2="92.92"/><line class="cls-1" x1="237.64" y1="92.92" x2="237.78" y2="96.93"/><line class="cls-1" x1="237.78" y1="96.93" x2="237.7" y2="98.15"/><line class="cls-1" x1="237.7" y1="98.15" x2="237.01" y2="103.38"/><line class="cls-1" x1="237.01" y1="103.38" x2="235.39" y2="108.63"/><line class="cls-1" x1="235.39" y1="108.63" x2="232.92" y2="113.79"/><line class="cls-1" x1="232.92" y1="113.79" x2="229.62" y2="118.87"/><line class="cls-1" x1="229.62" y1="118.87" x2="225.65" y2="123.48"/><line class="cls-1" x1="225.65" y1="123.48" x2="220.94" y2="127.73"/><line class="cls-1" x1="220.94" y1="127.73" x2="215.66" y2="131.62"/><line class="cls-1" x1="215.66" y1="131.62" x2="209.91" y2="134.85"/><line class="cls-1" x1="209.91" y1="134.85" x2="203.77" y2="137.53"/><line class="cls-1" x1="203.77" y1="137.53" x2="197.45" y2="139.47"/><line class="cls-1" x1="197.45" y1="139.47" x2="190.93" y2="140.84"/><line class="cls-1" x1="190.93" y1="140.84" x2="184.4" y2="141.47"/><line class="cls-1" x1="184.4" y1="141.47" x2="178.05" y2="141.54"/><line class="cls-1" x1="178.05" y1="141.54" x2="171.79" y2="140.77"/><line class="cls-1" x1="171.79" y1="140.77" x2="165.99" y2="139.53"/><line class="cls-1" x1="165.99" y1="139.53" x2="160.56" y2="137.53"/><line class="cls-1" x1="160.56" y1="137.53" x2="155.58" y2="134.88"/><line class="cls-1" x1="155.58" y1="134.88" x2="151.16" y2="131.84"/><line class="cls-1" x1="151.16" y1="131.84" x2="147.58" y2="128.34"/><line class="cls-1" x1="147.58" y1="128.34" x2="144.45" y2="124.36"/><line class="cls-1" x1="144.45" y1="124.36" x2="142.17" y2="120.09"/><line class="cls-1" x1="142.17" y1="120.09" x2="140.72" y2="115.9"/><line class="cls-1" x1="140.72" y1="115.9" x2="140.72" y2="115.53"/><line class="cls-1" x1="140.72" y1="115.53" x2="139.83" y2="110.78"/><line class="cls-1" x1="139.83" y1="110.78" x2="139.77" y2="105.92"/><line class="cls-1" x1="139.77" y1="105.92" x2="140.47" y2="101.06"/><line class="cls-1" x1="140.47" y1="101.06" x2="142" y2="96.29"/><line class="cls-1" x1="142" y1="96.29" x2="144.1" y2="91.5"/><line class="cls-1" x1="144.1" y1="91.5" x2="146.94" y2="86.9"/><line class="cls-1" x1="146.94" y1="86.9" x2="150.44" y2="82.57"/><line class="cls-1" x1="150.44" y1="82.57" x2="150.72" y2="81.72"/><line class="cls-1" x1="150.72" y1="81.72" x2="151.17" y2="80.88"/><line class="cls-1" x1="151.17" y1="80.88" x2="151.91" y2="80.12"/><line class="cls-1" x1="151.91" y1="80.12" x2="152.84" y2="79.55"/><line class="cls-1" x1="152.84" y1="79.55" x2="153.77" y2="79.17"/><line class="cls-1" x1="195.19" y1="320.3" x2="195.29" y2="320.39"/><line class="cls-1" x1="195.29" y1="320.39" x2="195.87" y2="322.44"/><line class="cls-1" x1="195.87" y1="322.44" x2="196.92" y2="324.57"/><line class="cls-1" x1="196.92" y1="324.57" x2="198.25" y2="326.43"/><line class="cls-1" x1="198.25" y1="326.43" x2="199.76" y2="328.28"/><line class="cls-1" x1="199.76" y1="328.28" x2="201.46" y2="329.94"/><line class="cls-1" x1="201.46" y1="329.94" x2="203.53" y2="331.41"/><line class="cls-1" x1="203.53" y1="331.41" x2="205.69" y2="332.6"/><line class="cls-1" x1="205.69" y1="332.6" x2="207.94" y2="333.51"/><line class="cls-1" x1="207.94" y1="333.51" x2="210.46" y2="334.13"/><line class="cls-1" x1="210.46" y1="334.13" x2="212.89" y2="334.48"/><line class="cls-1" x1="212.89" y1="334.48" x2="215.32" y2="334.64"/><line class="cls-1" x1="215.32" y1="334.64" x2="217.84" y2="334.34"/><line class="cls-1" x1="217.84" y1="334.34" x2="220.26" y2="333.94"/><line class="cls-1" x1="220.26" y1="333.94" x2="222.59" y2="333.07"/><line class="cls-1" x1="222.59" y1="333.07" x2="224.72" y2="332.02"/><line class="cls-1" x1="224.72" y1="332.02" x2="226.67" y2="330.6"/><line class="cls-1" x1="226.67" y1="330.6" x2="228.33" y2="329.09"/><line class="cls-1" x1="228.33" y1="329.09" x2="229.9" y2="327.3"/><line class="cls-1" x1="229.9" y1="327.3" x2="231.09" y2="325.33"/><line class="cls-1" x1="231.09" y1="325.33" x2="232" y2="323.26"/><line class="cls-1" x1="232" y1="323.26" x2="232.63" y2="321.11"/><line class="cls-1" x1="232.63" y1="321.11" x2="232.89" y2="318.77"/><line class="cls-1" x1="232.89" y1="318.77" x2="232.98" y2="318.3"/><line class="cls-1" x1="232.98" y1="318.3" x2="232.97" y2="318.12"/><line class="cls-1" x1="154.34" y1="79.91" x2="166.35" y2="138.4"/><line class="cls-1" x1="163.07" y1="137.22" x2="151.47" y2="82.84"/></g><g id="Dimensions"><line class="cls-2" x1="185.31" y1="50.82" x2="162.07" y2="34.63"/><line class="cls-3" x1="166.11" y1="37.44" x2="166.53" y2="43.15"/><line class="cls-3" x1="166.11" y1="37.44" x2="165.79" y2="31.81"/><line class="cls-2" x1="123.32" y1="112.98" x2="100.28" y2="96.92"/><line class="cls-3" x1="104.22" y1="99.67" x2="104.54" y2="105.3"/><line class="cls-3" x1="104.22" y1="99.67" x2="103.81" y2="93.97"/><line class="cls-2" x1="170.34" y1="33.27" x2="100.28" y2="103.56"/><path d="M95.93,58.64,97,58.52c.18,1.2.7,1.81,1.56,1.81a1.59,1.59,0,0,0,1.06-.4,3.07,3.07,0,0,0,.8-1.4,7.86,7.86,0,0,0,.32-2.35V55.9a2.94,2.94,0,0,1-1,1.1,2.24,2.24,0,0,1-1.25.41,2.52,2.52,0,0,1-2-1,4.19,4.19,0,0,1-.83-2.74,4.36,4.36,0,0,1,.86-2.84,2.65,2.65,0,0,1,2.1-1,2.6,2.6,0,0,1,1.63.58,3.63,3.63,0,0,1,1.18,1.7,10,10,0,0,1,.41,3.24A12.07,12.07,0,0,1,101.5,59a4,4,0,0,1-1.21,1.9,2.65,2.65,0,0,1-1.71.6,2.41,2.41,0,0,1-1.79-.73A3.41,3.41,0,0,1,95.93,58.64Zm4.73-5.06a3,3,0,0,0-.55-1.93,1.56,1.56,0,0,0-1.26-.7,1.67,1.67,0,0,0-1.33.75,3.17,3.17,0,0,0-.58,2,2.75,2.75,0,0,0,.56,1.8,1.68,1.68,0,0,0,1.33.66,1.61,1.61,0,0,0,1.3-.67A3,3,0,0,0,100.66,53.58Z"/><path d="M103.06,55.64a9.83,9.83,0,0,1,.77-4.37,2.49,2.49,0,0,1,2.3-1.48,2.42,2.42,0,0,1,2.12,1.2,8.91,8.91,0,0,1,.93,4.65,9.84,9.84,0,0,1-.77,4.36,2.47,2.47,0,0,1-2.3,1.48,2.54,2.54,0,0,1-2.2-1.31A8.74,8.74,0,0,1,103.06,55.64Zm1.18,0a8.78,8.78,0,0,0,.53,3.74,1.59,1.59,0,0,0,1.38.95,1.54,1.54,0,0,0,1.32-1,8.66,8.66,0,0,0,.53-3.73,8.8,8.8,0,0,0-.53-3.75,1.58,1.58,0,0,0-1.39-.94,1.53,1.53,0,0,0-1.31,1A8.62,8.62,0,0,0,104.24,55.64Z"/><path d="M110.69,61.29V53h1v1.16a2.69,2.69,0,0,1,.88-1,2.15,2.15,0,0,1,1.18-.35,2,2,0,0,1,1.21.37,2,2,0,0,1,.71,1.08,3.06,3.06,0,0,1,.94-1.08,2,2,0,0,1,1.17-.37,1.92,1.92,0,0,1,1.54.67,3.22,3.22,0,0,1,.57,2.12v5.7h-1.15V56.06a4.19,4.19,0,0,0-.13-1.27,1.22,1.22,0,0,0-.42-.57,1.09,1.09,0,0,0-.65-.2,1.47,1.47,0,0,0-1.22.59,3,3,0,0,0-.47,1.85v4.83h-1.15v-5.4a2.5,2.5,0,0,0-.32-1.45,1,1,0,0,0-.87-.42,1.45,1.45,0,0,0-1.24.63,4.2,4.2,0,0,0-.46,2.33v4.31Z"/><path d="M121.62,61.29V53h1v1.16a2.69,2.69,0,0,1,.88-1,2.15,2.15,0,0,1,1.18-.35,2,2,0,0,1,1.21.37,2,2,0,0,1,.71,1.08,3.06,3.06,0,0,1,.94-1.08,2,2,0,0,1,1.17-.37,1.92,1.92,0,0,1,1.54.67,3.22,3.22,0,0,1,.57,2.12v5.7H129.7V56.06a4.19,4.19,0,0,0-.13-1.27,1.22,1.22,0,0,0-.42-.57,1.09,1.09,0,0,0-.65-.2,1.47,1.47,0,0,0-1.22.59,2.91,2.91,0,0,0-.47,1.85v4.83h-1.15v-5.4a2.5,2.5,0,0,0-.32-1.45,1,1,0,0,0-.87-.42,1.45,1.45,0,0,0-1.24.63,4.2,4.2,0,0,0-.46,2.33v4.31Z"/></g></svg>