<svg xmlns="http://www.w3.org/2000/svg" viewBox="0 0 400 400"><defs><style>.cls-1,.cls-2,.cls-3{fill:none;stroke:#000;stroke-linecap:round;stroke-linejoin:round;}.cls-1{stroke-width:0.6px;}.cls-2{stroke-width:0.5px;}.cls-3{stroke-width:0.96px;}</style></defs><title>Gutter-Ogee Heritage-Dimensioned</title><g id="Image"><line class="cls-1" x1="199.91" y1="239.76" x2="179.15" y2="260.16"/><line class="cls-1" x1="245.39" y1="192.6" x2="356.63" y2="84.72"/><line class="cls-1" x1="362.39" y1="89.4" x2="259.55" y2="207.24"/><line class="cls-1" x1="189.71" y1="243.12" x2="332.87" y2="106.56"/><line class="cls-1" x1="235.55" y1="207" x2="251.03" y2="191.64"/><line class="cls-1" x1="351.47" y1="104.64" x2="232.79" y2="245.4"/><line class="cls-1" x1="95.03" y1="240" x2="95.15" y2="240.72"/><line class="cls-1" x1="95.15" y1="240.72" x2="95.27" y2="241.44"/><line class="cls-1" x1="95.27" y1="241.44" x2="95.63" y2="242.16"/><line class="cls-1" x1="95.63" y1="242.16" x2="96.11" y2="242.76"/><line class="cls-1" x1="96.11" y1="242.76" x2="96.71" y2="243.12"/><line class="cls-1" x1="96.71" y1="243.12" x2="97.31" y2="243.48"/><line class="cls-1" x1="97.31" y1="243.48" x2="162.59" y2="263.64"/><line class="cls-1" x1="162.59" y1="263.64" x2="168.11" y2="264.48"/><line class="cls-1" x1="168.11" y1="264.48" x2="173.51" y2="263.64"/><line class="cls-1" x1="173.51" y1="263.64" x2="178.07" y2="261.12"/><line class="cls-1" x1="178.07" y1="261.12" x2="179.15" y2="260.16"/><line class="cls-1" x1="179.15" y1="260.16" x2="181.67" y2="256.92"/><line class="cls-1" x1="181.67" y1="256.92" x2="187.67" y2="247.32"/><line class="cls-1" x1="187.67" y1="247.32" x2="190.31" y2="243.96"/><line class="cls-1" x1="190.31" y1="243.96" x2="190.43" y2="243.84"/><line class="cls-1" x1="190.43" y1="243.84" x2="194.03" y2="241.32"/><line class="cls-1" x1="194.03" y1="241.32" x2="198.23" y2="239.88"/><line class="cls-1" x1="198.23" y1="239.88" x2="202.91" y2="239.52"/><line class="cls-1" x1="202.91" y1="239.52" x2="207.83" y2="240.36"/><line class="cls-1" x1="207.83" y1="240.36" x2="229.19" y2="246.36"/><line class="cls-1" x1="229.19" y1="246.36" x2="230.27" y2="246.48"/><line class="cls-1" x1="230.27" y1="246.48" x2="231.35" y2="246.36"/><line class="cls-1" x1="231.35" y1="246.36" x2="232.31" y2="245.88"/><line class="cls-1" x1="232.31" y1="245.88" x2="232.79" y2="245.4"/><line class="cls-1" x1="232.79" y1="245.4" x2="233.03" y2="245.16"/><line class="cls-1" x1="233.03" y1="245.16" x2="233.51" y2="244.2"/><line class="cls-1" x1="233.51" y1="244.2" x2="233.63" y2="243.12"/><line class="cls-1" x1="233.63" y1="243.12" x2="235.43" y2="210"/><line class="cls-1" x1="235.43" y1="210" x2="235.67" y2="209.16"/><line class="cls-1" x1="235.67" y1="209.16" x2="236.03" y2="208.32"/><line class="cls-1" x1="236.03" y1="208.32" x2="236.39" y2="207.84"/><line class="cls-1" x1="236.39" y1="207.84" x2="236.63" y2="207.72"/><line class="cls-1" x1="236.63" y1="207.72" x2="237.35" y2="207.24"/><line class="cls-1" x1="237.35" y1="207.24" x2="238.19" y2="207"/><line class="cls-1" x1="238.19" y1="207" x2="239.15" y2="207.12"/><line class="cls-1" x1="239.15" y1="207.12" x2="252.47" y2="209.4"/><line class="cls-1" x1="252.47" y1="209.4" x2="254.63" y2="209.52"/><line class="cls-1" x1="254.63" y1="209.52" x2="256.79" y2="209.16"/><line class="cls-1" x1="256.79" y1="209.16" x2="258.59" y2="208.08"/><line class="cls-1" x1="258.59" y1="208.08" x2="259.55" y2="207.24"/><line class="cls-1" x1="259.55" y1="207.24" x2="260.03" y2="206.52"/><line class="cls-1" x1="260.03" y1="206.52" x2="260.99" y2="204.6"/><line class="cls-1" x1="260.99" y1="204.6" x2="261.35" y2="202.44"/><line class="cls-1" x1="261.35" y1="202.44" x2="261.23" y2="200.04"/><line class="cls-1" x1="261.23" y1="200.04" x2="260.51" y2="197.76"/><line class="cls-1" x1="260.51" y1="197.76" x2="259.31" y2="195.48"/><line class="cls-1" x1="259.31" y1="195.48" x2="257.63" y2="193.56"/><line class="cls-1" x1="257.63" y1="193.56" x2="255.71" y2="192.12"/><line class="cls-1" x1="255.71" y1="192.12" x2="253.43" y2="191.04"/><line class="cls-1" x1="253.43" y1="191.04" x2="251.27" y2="190.56"/><line class="cls-1" x1="251.27" y1="190.56" x2="248.99" y2="190.68"/><line class="cls-1" x1="248.99" y1="190.68" x2="247.07" y2="191.4"/><line class="cls-1" x1="247.07" y1="191.4" x2="245.39" y2="192.48"/><line class="cls-1" x1="245.39" y1="192.48" x2="245.39" y2="192.6"/><line class="cls-1" x1="245.39" y1="192.6" x2="244.07" y2="194.16"/><line class="cls-1" x1="244.07" y1="194.16" x2="245.03" y2="194.88"/><line class="cls-1" x1="245.03" y1="194.88" x2="246.11" y2="193.44"/><line class="cls-1" x1="246.11" y1="193.44" x2="246.11" y2="193.44"/><line class="cls-1" x1="246.11" y1="193.44" x2="247.67" y2="192.36"/><line class="cls-1" x1="247.67" y1="192.36" x2="249.35" y2="191.76"/><line class="cls-1" x1="249.35" y1="191.76" x2="251.27" y2="191.64"/><line class="cls-1" x1="251.27" y1="191.64" x2="253.31" y2="192.12"/><line class="cls-1" x1="253.31" y1="192.12" x2="255.23" y2="192.96"/><line class="cls-1" x1="255.23" y1="192.96" x2="257.03" y2="194.4"/><line class="cls-1" x1="257.03" y1="194.4" x2="258.47" y2="196.08"/><line class="cls-1" x1="258.47" y1="196.08" x2="259.55" y2="198"/><line class="cls-1" x1="259.55" y1="198" x2="260.15" y2="200.04"/><line class="cls-1" x1="260.15" y1="200.04" x2="260.27" y2="202.2"/><line class="cls-1" x1="260.27" y1="202.2" x2="259.91" y2="204.12"/><line class="cls-1" x1="259.91" y1="204.12" x2="259.07" y2="205.8"/><line class="cls-1" x1="259.07" y1="205.8" x2="258.59" y2="206.4"/><line class="cls-1" x1="258.59" y1="206.4" x2="257.87" y2="207.12"/><line class="cls-1" x1="257.87" y1="207.12" x2="256.19" y2="208.08"/><line class="cls-1" x1="256.19" y1="208.08" x2="254.39" y2="208.44"/><line class="cls-1" x1="254.39" y1="208.44" x2="252.35" y2="208.44"/><line class="cls-1" x1="252.35" y1="208.44" x2="239.03" y2="206.04"/><line class="cls-1" x1="239.03" y1="206.04" x2="237.95" y2="206.04"/><line class="cls-1" x1="237.95" y1="206.04" x2="236.87" y2="206.28"/><line class="cls-1" x1="236.87" y1="206.28" x2="235.91" y2="206.76"/><line class="cls-1" x1="235.91" y1="206.76" x2="235.55" y2="207"/><line class="cls-1" x1="235.55" y1="207" x2="235.19" y2="207.6"/><line class="cls-1" x1="235.19" y1="207.6" x2="234.71" y2="208.56"/><line class="cls-1" x1="234.71" y1="208.56" x2="234.47" y2="209.76"/><line class="cls-1" x1="234.47" y1="209.76" x2="232.67" y2="242.88"/><line class="cls-1" x1="232.67" y1="242.88" x2="232.55" y2="243.72"/><line class="cls-1" x1="232.55" y1="243.72" x2="232.19" y2="244.44"/><line class="cls-1" x1="232.19" y1="244.44" x2="232.07" y2="244.56"/><line class="cls-1" x1="232.07" y1="244.56" x2="231.59" y2="244.92"/><line class="cls-1" x1="231.59" y1="244.92" x2="230.87" y2="245.28"/><line class="cls-1" x1="230.87" y1="245.28" x2="230.03" y2="245.4"/><line class="cls-1" x1="230.03" y1="245.4" x2="229.19" y2="245.28"/><line class="cls-1" x1="229.19" y1="245.28" x2="207.95" y2="239.28"/><line class="cls-1" x1="207.95" y1="239.28" x2="202.79" y2="238.44"/><line class="cls-1" x1="202.79" y1="238.44" x2="197.87" y2="238.8"/><line class="cls-1" x1="197.87" y1="238.8" x2="193.55" y2="240.36"/><line class="cls-1" x1="193.55" y1="240.36" x2="189.71" y2="243"/><line class="cls-1" x1="189.71" y1="243" x2="189.71" y2="243.12"/><line class="cls-1" x1="189.71" y1="243.12" x2="186.83" y2="246.6"/><line class="cls-1" x1="186.83" y1="246.6" x2="180.95" y2="256.2"/><line class="cls-1" x1="180.95" y1="256.2" x2="178.43" y2="259.32"/><line class="cls-1" x1="178.43" y1="259.32" x2="177.47" y2="260.16"/><line class="cls-1" x1="177.47" y1="260.16" x2="173.03" y2="262.68"/><line class="cls-1" x1="173.03" y1="262.68" x2="167.99" y2="263.52"/><line class="cls-1" x1="167.99" y1="263.52" x2="162.59" y2="262.68"/><line class="cls-1" x1="162.59" y1="262.68" x2="97.43" y2="242.64"/><line class="cls-1" x1="97.43" y1="242.64" x2="97.07" y2="242.4"/><line class="cls-1" x1="97.07" y1="242.4" x2="96.59" y2="242.16"/><line class="cls-1" x1="96.59" y1="242.16" x2="96.23" y2="241.68"/><line class="cls-1" x1="96.23" y1="241.68" x2="95.99" y2="241.32"/><line class="cls-1" x1="95.99" y1="241.32" x2="95.87" y2="240.96"/><line class="cls-1" x1="95.87" y1="240.96" x2="95.75" y2="240.6"/><line class="cls-1" x1="95.75" y1="240.6" x2="95.75" y2="240.24"/><line class="cls-1" x1="95.75" y1="240.24" x2="95.51" y2="141.36"/><line class="cls-1" x1="95.51" y1="141.36" x2="94.79" y2="141.24"/><line class="cls-1" x1="94.79" y1="141.24" x2="95.03" y2="240"/><line class="cls-1" x1="287.51" y1="71.52" x2="287.87" y2="71.52"/><line class="cls-1" x1="287.87" y1="71.52" x2="287.75" y2="111.84"/><line class="cls-1" x1="287.75" y1="111.84" x2="287.75" y2="112.08"/><line class="cls-1" x1="287.75" y1="112.08" x2="287.75" y2="112.2"/><line class="cls-1" x1="287.75" y1="112.2" x2="287.87" y2="112.32"/><line class="cls-1" x1="287.87" y1="112.32" x2="287.99" y2="112.44"/><line class="cls-1" x1="287.99" y1="112.44" x2="288.11" y2="112.56"/><line class="cls-1" x1="288.11" y1="112.56" x2="288.35" y2="112.68"/><line class="cls-1" x1="288.35" y1="112.68" x2="288.59" y2="112.8"/><line class="cls-1" x1="288.59" y1="112.8" x2="320.51" y2="115.92"/><line class="cls-1" x1="320.51" y1="115.92" x2="322.91" y2="115.8"/><line class="cls-1" x1="322.91" y1="115.8" x2="323.15" y2="115.8"/><line class="cls-1" x1="332.87" y1="106.56" x2="332.87" y2="106.44"/><line class="cls-1" x1="332.87" y1="106.44" x2="334.55" y2="105.24"/><line class="cls-1" x1="334.55" y1="105.24" x2="336.23" y2="104.52"/><line class="cls-1" x1="356.63" y1="84.72" x2="357.35" y2="84.24"/><line class="cls-1" x1="357.35" y1="84.24" x2="358.19" y2="83.88"/><line class="cls-1" x1="358.19" y1="83.88" x2="359.03" y2="83.76"/><line class="cls-1" x1="359.03" y1="83.76" x2="359.99" y2="83.88"/><line class="cls-1" x1="359.99" y1="83.88" x2="360.83" y2="84.12"/><line class="cls-1" x1="360.83" y1="84.12" x2="361.67" y2="84.6"/><line class="cls-1" x1="361.67" y1="84.6" x2="362.27" y2="85.2"/><line class="cls-1" x1="362.27" y1="85.2" x2="362.75" y2="85.92"/><line class="cls-1" x1="362.75" y1="85.92" x2="363.11" y2="86.76"/><line class="cls-1" x1="363.11" y1="86.76" x2="363.11" y2="87.6"/><line class="cls-1" x1="363.11" y1="87.6" x2="362.99" y2="88.32"/><line class="cls-1" x1="362.99" y1="88.32" x2="362.51" y2="89.04"/><line class="cls-1" x1="362.51" y1="89.04" x2="362.39" y2="89.4"/><line class="cls-1" x1="362.39" y1="89.4" x2="362.27" y2="89.52"/><line class="cls-1" x1="351.95" y1="101.28" x2="351.83" y2="103.8"/><line class="cls-1" x1="351.83" y1="103.8" x2="351.71" y2="104.16"/><line class="cls-1" x1="351.71" y1="104.16" x2="351.47" y2="104.64"/><line class="cls-1" x1="351.47" y1="104.64" x2="351.47" y2="104.64"/><line class="cls-1" x1="245.03" y1="194.88" x2="247.43" y2="192.48"/><line class="cls-1" x1="287.87" y1="71.52" x2="95.51" y2="141.36"/><line class="cls-1" x1="287.51" y1="71.52" x2="94.79" y2="141.24"/><line class="cls-1" x1="287.99" y1="112.44" x2="96.23" y2="241.68"/></g><g id="Dimensions"><path d="M146.84,330.48h-1.16v-9a6.52,6.52,0,0,1-1.07,1,7,7,0,0,1-1.23.73v-1.36a7.25,7.25,0,0,0,1.68-1.33,5.11,5.11,0,0,0,1-1.54h.75Z"/><path d="M149.79,327.48l1.21-.13a2.85,2.85,0,0,0,.64,1.63,1.51,1.51,0,0,0,1.15.54,1.72,1.72,0,0,0,1.41-.76,3.22,3.22,0,0,0,.6-2.06,2.8,2.8,0,0,0-.58-1.9,1.81,1.81,0,0,0-1.44-.68,1.83,1.83,0,0,0-1,.29,2.05,2.05,0,0,0-.72.82l-1.09-.17.92-5.89h4.66v1.35h-3.75l-.5,3.08a2.69,2.69,0,0,1,1.77-.72,2.63,2.63,0,0,1,2,1,4,4,0,0,1,.88,2.71,4.71,4.71,0,0,1-.88,2.88,2.75,2.75,0,0,1-2.34,1.2,2.78,2.78,0,0,1-2.05-.84A3.64,3.64,0,0,1,149.79,327.48Z"/><path d="M160.78,330.48v-2.74h-4.07v-1.29L161,319h.95v7.42h1.27v1.29h-1.27v2.74Zm0-4v-5.17l-2.93,5.17Z"/><path d="M164.72,330.48v-8.3h1v1.16a2.69,2.69,0,0,1,.88-1,2.14,2.14,0,0,1,1.18-.34,2,2,0,0,1,1.21.36,2,2,0,0,1,.71,1.08,3.14,3.14,0,0,1,.93-1.08,2.08,2.08,0,0,1,1.18-.36,1.93,1.93,0,0,1,1.54.66,3.22,3.22,0,0,1,.57,2.12v5.7H172.8v-5.23a4.55,4.55,0,0,0-.13-1.27,1.17,1.17,0,0,0-.42-.57,1.09,1.09,0,0,0-.65-.2,1.47,1.47,0,0,0-1.22.59,2.91,2.91,0,0,0-.47,1.85v4.83h-1.15v-5.4a2.48,2.48,0,0,0-.32-1.45,1,1,0,0,0-.87-.42,1.47,1.47,0,0,0-1.25.63,4.31,4.31,0,0,0-.45,2.33v4.31Z"/><path d="M175.65,330.48v-8.3h1v1.16a2.69,2.69,0,0,1,.88-1,2.14,2.14,0,0,1,1.18-.34,2,2,0,0,1,1.21.36,2,2,0,0,1,.71,1.08,3.14,3.14,0,0,1,.93-1.08,2.08,2.08,0,0,1,1.18-.36,1.93,1.93,0,0,1,1.54.66,3.22,3.22,0,0,1,.57,2.12v5.7h-1.15v-5.23a4.55,4.55,0,0,0-.13-1.27,1.17,1.17,0,0,0-.42-.57,1.1,1.1,0,0,0-.66-.2,1.46,1.46,0,0,0-1.21.59,2.91,2.91,0,0,0-.47,1.85v4.83h-1.15v-5.4a2.48,2.48,0,0,0-.32-1.45,1,1,0,0,0-.87-.42,1.47,1.47,0,0,0-1.25.63,4.31,4.31,0,0,0-.45,2.33v4.31Z"/><path d="M304.15,251.47v-1.35h6.07v1.09a17.14,17.14,0,0,0-2.39,4.6,19.63,19.63,0,0,0-1.19,5.61h-1.18a16.86,16.86,0,0,1,.46-3.35,20,20,0,0,1,1.19-3.65,15.81,15.81,0,0,1,1.62-2.95Z"/><path d="M311.37,258.42l1.21-.13a2.79,2.79,0,0,0,.64,1.63,1.51,1.51,0,0,0,1.15.54,1.74,1.74,0,0,0,1.41-.76,3.22,3.22,0,0,0,.6-2.06,2.86,2.86,0,0,0-.58-1.9,1.84,1.84,0,0,0-2.42-.39,2,2,0,0,0-.72.82l-1.09-.17.91-5.88h4.67v1.34H313.4l-.5,3.08a2.69,2.69,0,0,1,1.77-.72,2.63,2.63,0,0,1,2.05,1,4,4,0,0,1,.87,2.71,4.83,4.83,0,0,1-.87,2.89,2.77,2.77,0,0,1-2.34,1.2,2.82,2.82,0,0,1-2.06-.85A3.63,3.63,0,0,1,311.37,258.42Z"/><path d="M319,261.42v-8.3h1v1.16a2.58,2.58,0,0,1,.88-1,2.07,2.07,0,0,1,1.18-.35,2,2,0,0,1,1.21.36,2,2,0,0,1,.71,1.08,3.06,3.06,0,0,1,.94-1.08,2,2,0,0,1,1.17-.36,1.91,1.91,0,0,1,1.54.66,3.22,3.22,0,0,1,.57,2.12v5.7h-1.15v-5.23a4.19,4.19,0,0,0-.13-1.27,1.22,1.22,0,0,0-.42-.57,1.09,1.09,0,0,0-.65-.2,1.47,1.47,0,0,0-1.22.59,3,3,0,0,0-.47,1.85v4.83H323V256a2.48,2.48,0,0,0-.32-1.45,1,1,0,0,0-.87-.42,1.45,1.45,0,0,0-1.24.63,4.2,4.2,0,0,0-.46,2.33v4.31Z"/><path d="M329.93,261.42v-8.3h1v1.16a2.58,2.58,0,0,1,.88-1,2.07,2.07,0,0,1,1.18-.35,2,2,0,0,1,1.21.36,2,2,0,0,1,.71,1.08,3.06,3.06,0,0,1,.94-1.08,2,2,0,0,1,1.17-.36,1.91,1.91,0,0,1,1.54.66,3.22,3.22,0,0,1,.57,2.12v5.7H338v-5.23a4.19,4.19,0,0,0-.13-1.27,1.22,1.22,0,0,0-.42-.57,1.09,1.09,0,0,0-.65-.2,1.47,1.47,0,0,0-1.22.59,2.91,2.91,0,0,0-.47,1.85v4.83H334V256a2.48,2.48,0,0,0-.32-1.45,1,1,0,0,0-.87-.42,1.45,1.45,0,0,0-1.24.63,4.2,4.2,0,0,0-.46,2.33v4.31Z"/><path d="M21.62,187.91l1.11-.12c.17,1.2.69,1.81,1.56,1.81a1.59,1.59,0,0,0,1.05-.4,3.07,3.07,0,0,0,.8-1.4,7.53,7.53,0,0,0,.33-2.35v-.28a2.88,2.88,0,0,1-1,1.1,2.24,2.24,0,0,1-1.24.41,2.49,2.49,0,0,1-2-1,4.14,4.14,0,0,1-.84-2.74,4.3,4.3,0,0,1,.87-2.84,2.62,2.62,0,0,1,3.73-.45,3.69,3.69,0,0,1,1.17,1.7,9.73,9.73,0,0,1,.41,3.24,11.76,11.76,0,0,1-.44,3.67,4,4,0,0,1-1.21,1.9,2.68,2.68,0,0,1-1.7.6,2.39,2.39,0,0,1-1.79-.73A3.36,3.36,0,0,1,21.62,187.91Zm4.72-5.06a3.1,3.1,0,0,0-.54-1.93,1.59,1.59,0,0,0-1.27-.7,1.67,1.67,0,0,0-1.32.75,3.17,3.17,0,0,0-.59,2,2.75,2.75,0,0,0,.56,1.8,1.68,1.68,0,0,0,1.33.66,1.59,1.59,0,0,0,1.3-.67A3,3,0,0,0,26.34,182.85Z"/><path d="M28.74,187.53l1.15-.19c.24,1.51.85,2.26,1.82,2.26a1.74,1.74,0,0,0,1.37-.67,2.53,2.53,0,0,0,.58-1.73,2.36,2.36,0,0,0-.53-1.62,1.68,1.68,0,0,0-1.3-.61,2.87,2.87,0,0,0-.81.16l.13-1.23h.18A1.81,1.81,0,0,0,33.25,182a1.84,1.84,0,0,0-.45-1.29,1.42,1.42,0,0,0-1.09-.48,1.46,1.46,0,0,0-1.12.51,2.8,2.8,0,0,0-.58,1.55L28.86,182a3.76,3.76,0,0,1,1-2.22,2.66,2.66,0,0,1,3.79.09,3,3,0,0,1,.8,2.13,2.72,2.72,0,0,1-.34,1.38,2.43,2.43,0,0,1-.94.94,2.13,2.13,0,0,1,.92.52,2.53,2.53,0,0,1,.59,1,3.8,3.8,0,0,1,.23,1.34,3.65,3.65,0,0,1-.93,2.58,2.92,2.92,0,0,1-2.23,1,2.73,2.73,0,0,1-2-.87A3.76,3.76,0,0,1,28.74,187.53Z"/><path d="M36.37,190.56v-8.3h1v1.16a2.61,2.61,0,0,1,.88-1,2.13,2.13,0,0,1,1.17-.34,1.84,1.84,0,0,1,1.92,1.44,3.27,3.27,0,0,1,.94-1.08,2,2,0,0,1,1.17-.36,1.93,1.93,0,0,1,1.55.66,3.28,3.28,0,0,1,.56,2.12v5.7H44.45v-5.23a4.19,4.19,0,0,0-.13-1.27,1.1,1.1,0,0,0-.42-.57,1.07,1.07,0,0,0-.65-.2,1.48,1.48,0,0,0-1.22.59,3,3,0,0,0-.47,1.85v4.83H40.41v-5.4a2.49,2.49,0,0,0-.31-1.45,1,1,0,0,0-.87-.42,1.45,1.45,0,0,0-1.25.63,4.29,4.29,0,0,0-.46,2.33v4.31Z"/><path d="M47.3,190.56v-8.3h1v1.16a2.61,2.61,0,0,1,.88-1,2.13,2.13,0,0,1,1.17-.34,1.84,1.84,0,0,1,1.92,1.44,3.16,3.16,0,0,1,.94-1.08,2,2,0,0,1,1.17-.36,1.93,1.93,0,0,1,1.55.66,3.28,3.28,0,0,1,.56,2.12v5.7H55.38v-5.23a4.19,4.19,0,0,0-.13-1.27,1.1,1.1,0,0,0-.42-.57,1.07,1.07,0,0,0-.65-.2,1.48,1.48,0,0,0-1.22.59,3,3,0,0,0-.47,1.85v4.83H51.34v-5.4a2.49,2.49,0,0,0-.31-1.45,1,1,0,0,0-.87-.42,1.45,1.45,0,0,0-1.25.63,4.2,4.2,0,0,0-.46,2.33v4.31Z"/><line class="cls-2" x1="299.27" y1="201.6" x2="299.27" y2="310.32"/><line class="cls-3" x1="299.27" y1="205.08" x2="294.23" y2="207.72"/><line class="cls-3" x1="299.27" y1="205.08" x2="304.31" y2="202.56"/><line class="cls-3" x1="299.27" y1="306.36" x2="294.23" y2="308.88"/><line class="cls-3" x1="299.27" y1="306.36" x2="304.31" y2="303.72"/><line class="cls-2" x1="99.23" y1="263.88" x2="99.23" y2="292.2"/><line class="cls-3" x1="99.23" y1="287.16" x2="103.67" y2="283.68"/><line class="cls-3" x1="99.23" y1="287.16" x2="94.79" y2="290.76"/><line class="cls-3" x1="62.27" y1="232.8" x2="67.31" y2="230.16"/><line class="cls-3" x1="62.27" y1="232.8" x2="57.23" y2="235.32"/><line class="cls-3" x1="63.11" y1="130.2" x2="67.31" y2="128.04"/><line class="cls-3" x1="57.11" y1="133.32" x2="63.11" y2="130.2"/><line class="cls-2" x1="57.23" y1="231.24" x2="84.35" y2="239.52"/><line class="cls-2" x1="276.83" y1="198.24" x2="303.95" y2="206.52"/><line class="cls-2" x1="276.83" y1="299.4" x2="303.95" y2="307.68"/><line class="cls-2" x1="56.63" y1="128.88" x2="83.63" y2="137.16"/><line class="cls-2" x1="94.31" y1="285.72" x2="266.63" y2="338.4"/><line class="cls-2" x1="262.07" y1="313.68" x2="262.07" y2="342"/><line class="cls-3" x1="262.07" y1="336.96" x2="266.51" y2="333.48"/><line class="cls-3" x1="262.07" y1="336.96" x2="257.63" y2="340.56"/><line class="cls-2" x1="62.27" y1="235.68" x2="62.27" y2="126.48"/></g></svg>